M48
;Layer_Color=9474304
;FILE_FORMAT=2:4
INCH,TZ
;TYPE=PLATED
T1F00S00C0.0118
T2F00S00C0.0197
T3F00S00C0.0276
T4F00S00C0.0394
T5F00S00C0.0512
;TYPE=NON_PLATED
T6F00S00C0.0354
T7F00S00C0.0454
T8F00S00C0.0984
T9F00S00C0.1181
T10F00S00C0.1575
%
T01
X8888Y394
X11742
X14596
X13396Y2352
X15305Y3583
X13907Y5138
X12480Y5285
X10827Y5207
X10384Y5423
X11083Y5680
X9626Y5128
X9488Y6850
X8573Y9370
X8317Y9577
X8612Y2982
X14468Y8002
X14843Y7982
X15984Y8031
X18130Y7992
X18360Y6589
X17825Y4892
X19380Y4636
X20768Y5472
X21811Y5502
X23071
X22352Y7972
X23287Y8573
X22779Y9567
X22933Y10108
X21506Y10197
X21329Y10581
X20994Y10728
X21555Y9459
X22071Y9262
X21339Y8750
X20335Y8140
X19990
X20600Y6713
X21260Y2175
X18671Y2283
X19222Y1457
X20305Y394
X17451
X23159
X26014
X28868
X29518Y3376
X27985Y4491
X28219Y4774
X28484Y5089
X28834Y5359
X28346Y5699
X26772Y5522
X26171Y7608
X25315Y7884
X27254Y7835
X27638Y8780
X27933Y8642
X27628Y10305
X27598Y13927
X27677Y14281
X27461Y14528
X27854Y14843
X27224Y15571
X26713Y13799
X23474Y13278
X23031Y14016
X23481Y11218
X24222Y11024
X29775Y7737
X29951Y7461
X16506Y5531
X16172Y5542
X31407Y6033
X33287Y6093
Y6329
Y6565
Y6801
Y7037
Y7274
Y7510
X33573
Y7274
Y7037
Y6801
Y6565
Y6329
Y6093
X34606Y4675
X34596Y2008
X33927Y984
X31722Y394
X32047Y3494
X38917Y7766
X38957Y25591
X37884Y26319
X37589Y26516
X37293Y26909
X36565Y26526
X35974Y26476
X35955Y26821
X35665Y26368
X35659Y27569
X35955Y28770
X35965Y29370
X36329Y29065
X35277Y29007
X34134Y28740
X33258
X32402
X31939
X34154Y25610
X36230Y30335
X37624Y29118
X38199Y29675
X38888Y30246
X38868Y28258
X29774Y28110
X30276Y29004
X28604Y29311
X27549Y28819
X27382Y28543
X26703Y28435
X27884Y26781
X28386
X29035
X29390
X29823Y25679
X31053Y25630
X28524Y25472
X28238Y25335
X27697Y25344
X27224Y24872
X29656Y30935
X13140Y30020
X12323Y30630
X12283Y28858
X10778Y29400
X10433Y29606
X10896Y29902
X9616Y28907
X7500Y28652
X7506Y27904
X7421Y27520
X7506Y27175
X7535Y26841
X7713Y26201
X8228Y25945
Y26713
Y27736
X5896Y28770
X5472Y29528
X4882Y24921
X7087Y23189
X7520Y31378
X8691Y31841
X8826Y34132
X11681
X14535
X12593Y31516
X10866Y31299
X17421Y31516
X17389Y34132
X20244
X23098
X23012Y31516
X27303
X28091Y31594
X28807Y34132
X25952
X31661
X31909Y31939
X35689Y31919
X38691
X37370Y34132
X34515
T02
X7539Y11421
X7854Y11413
Y11787
X7539Y11795
X7165Y16472
X6742Y16480
Y17071
X7165Y17063
X7106Y21685
X6732Y21693
Y22283
X7106Y22276
X3762Y24232
X3770Y24587
X3179
X3171Y24232
T03
X2854Y8780
X2854Y9380
X2854Y9980
X2854Y10591
X2854Y11211
X2854Y11811
X2854Y12411
X3573
X4291
X5010
X5010Y11811
X5010Y11211
X5010Y10610
X5010Y10118
X4094Y9980
X3573
Y8780
X4094
X4291Y11211
X3573
Y13937
X4094
Y15138
X3573
X2854
X2854Y14537
X2854Y13937
X5010Y15276
X5010Y15768
X5010Y16368
X5010Y16968
X5010Y17569
X4291
X3573
X2854
X2854Y16968
X2854Y16368
X2854Y15748
X3573Y16368
X4291
X4094Y19213
X3573
X2854
X2854Y19813
X2854Y20413
X2854Y21024
X2854Y21644
X2854Y22244
X2854Y22844
X3573
X4291
X5010
X5010Y22244
X5010Y21644
X5010Y21043
X5010Y20551
X4094Y20413
X3573
Y21644
X4291
X4183Y26329
X3583Y26329
X2982Y26329
X2382Y26329
X1890Y26329
X1752Y27244
Y27766
Y28484
X1152Y28484
X551Y28484
Y27766
Y27244
X2982Y27047
Y27766
Y28484
X3583Y28484
X4183Y28484
Y27766
Y27047
X2362Y28484
T04
X10831Y2933
Y3933
X11831
Y2933
X12831
Y3933
X13831
Y2933
X14831
Y3933
Y6209
X13831
X12831
X11831
X10831
Y7209
X11831
X12831
X13831
X14831
X15831
Y6209
X16831
Y7209
X17831
Y6209
X18831
Y7209
X19831
X20831
Y6209
X21831
X22831
X23831
X24831
X25831
X26831
X27831
X28831
Y7209
X27831
X26831
X25831
X24831
X23831
X22831
X21831
X19831Y6209
Y3933
X20831
Y2933
X21831
X22831
X23831
X24831
X25831
X26831
X27831
X28831
Y3933
X27831
X26831
X25831
X24831
X23831
X22831
X21831
X18831
X17831
X16831
X15831
Y2933
X16831
X17831
X18831
X19831
T05
X5433Y4114
X6575Y5031
X7717Y4114
Y7315
X5433
T06
X37480Y28504
Y30236
T07
X563Y543
X34301
X563Y34102
T08
X3602Y5217
X3433Y7315
X31220Y5217
X31650Y7315
T09
X25059Y31772
T10
X2835Y2146
X1508Y3945
X33370
X31988Y2146
M30
