G04*
G04 #@! TF.GenerationSoftware,Altium Limited,Altium Designer,20.2.7 (254)*
G04*
G04 Layer_Color=57008*
%FSLAX25Y25*%
%MOIN*%
G70*
G04*
G04 #@! TF.SameCoordinates,F02F79C3-03E1-47DE-868D-05DBDBA98D82*
G04*
G04*
G04 #@! TF.FilePolarity,Positive*
G04*
G01*
G75*
%ADD14C,0.00787*%
%ADD18C,0.00669*%
D14*
X89764Y139665D02*
X207480Y139665D01*
X209449Y137697D01*
Y86319D02*
Y137697D01*
X205807Y82677D02*
X209449Y86319D01*
X94291Y82677D02*
X205827D01*
X88189Y88779D02*
X94291Y82677D01*
X88189Y88779D02*
Y138091D01*
X89764Y139665D01*
X89695Y286811D02*
X260512D01*
X263268Y284055D01*
X269272D01*
X87776Y142796D02*
X90016Y140555D01*
X270154Y283172D02*
X270154Y141903D01*
X87776Y284891D02*
X87776Y142796D01*
X87776Y284891D02*
X89695Y286811D01*
X90016Y140555D02*
X268806Y140555D01*
X270154Y141903D01*
X269272Y284055D02*
X270154Y283172D01*
X273917Y78543D02*
Y139665D01*
X210236D02*
X273917D01*
X238189Y78543D02*
X273917D01*
X231004Y103051D02*
X233957Y100098D01*
X210236Y103543D02*
Y139665D01*
X210729Y103051D02*
X231004D01*
X210236Y103543D02*
X210729Y103051D01*
X233957Y82776D02*
Y100098D01*
Y82776D02*
X238189Y78543D01*
X283465Y316437D02*
X356890D01*
X357677Y266183D02*
Y315650D01*
X297835Y256299D02*
X354730D01*
X297835D02*
Y304823D01*
X296063Y306594D02*
X297835Y304823D01*
X283465Y306594D02*
X296063D01*
X283465D02*
Y316437D01*
X354730Y266183D02*
X357677D01*
X354730Y256299D02*
Y266183D01*
X77854Y293504D02*
Y315936D01*
X79158Y288976D02*
X121850D01*
X77854Y315936D02*
X121850Y316089D01*
Y288952D02*
Y316089D01*
X77854Y293504D02*
X78937Y292421D01*
Y289173D02*
Y292421D01*
Y289173D02*
X79158Y288976D01*
X297047Y255610D02*
Y304429D01*
X275787Y255610D02*
X297047D01*
X275787D02*
Y288780D01*
X279921Y292914D02*
Y304528D01*
X281299Y305906D01*
X295571D01*
X297047Y304429D01*
X275886Y288878D02*
X279921Y292914D01*
X279984Y151154D02*
X280518Y151688D01*
X279984Y87655D02*
Y151154D01*
Y87655D02*
X280943Y86696D01*
X389148D01*
X280518Y151688D02*
Y249129D01*
X286719Y255330D02*
X388786D01*
X280518Y249129D02*
X286719Y255330D01*
X388786D02*
X390656Y253460D01*
X389148Y86696D02*
X390656Y88204D01*
Y253460D01*
X123819Y288386D02*
X272047D01*
X274410Y290748D01*
X276476D01*
X279035Y293307D01*
X244980Y310925D02*
X255315D01*
X123819Y316928D02*
X279035Y316635D01*
X123819Y288386D02*
Y316928D01*
X279035Y293307D02*
Y316635D01*
X53884Y292416D02*
X76476D01*
Y290059D02*
X79429Y287106D01*
X83366Y239567D02*
Y287106D01*
X82383Y238584D02*
X83366Y239567D01*
X53445Y238584D02*
X82383D01*
X52461Y239568D02*
X53445Y238584D01*
X52461Y239568D02*
Y290992D01*
X53884Y292416D01*
X76476Y290059D02*
Y292416D01*
X79429Y287106D02*
X83366D01*
D18*
X273766Y51614D02*
X274842D01*
X274304D01*
Y48924D01*
X274842Y48386D01*
X275380D01*
X275918Y48924D01*
X272691Y51076D02*
X272153Y51614D01*
X271077D01*
X270539Y51076D01*
Y50538D01*
X271077Y50000D01*
X271615D01*
X271077D01*
X270539Y49462D01*
Y48924D01*
X271077Y48386D01*
X272153D01*
X272691Y48924D01*
M02*
