G04*
G04 #@! TF.GenerationSoftware,Altium Limited,Altium Designer,20.2.7 (254)*
G04*
G04 Layer_Physical_Order=1*
G04 Layer_Color=255*
%FSLAX25Y25*%
%MOIN*%
G70*
G04*
G04 #@! TF.SameCoordinates,F02F79C3-03E1-47DE-868D-05DBDBA98D82*
G04*
G04*
G04 #@! TF.FilePolarity,Positive*
G04*
G01*
G75*
%ADD10C,0.00984*%
%ADD14C,0.00787*%
G04:AMPARAMS|DCode=19|XSize=80.71mil|YSize=137.8mil|CornerRadius=20.18mil|HoleSize=0mil|Usage=FLASHONLY|Rotation=270.000|XOffset=0mil|YOffset=0mil|HoleType=Round|Shape=RoundedRectangle|*
%AMROUNDEDRECTD19*
21,1,0.08071,0.09744,0,0,270.0*
21,1,0.04035,0.13780,0,0,270.0*
1,1,0.04035,-0.04872,-0.02018*
1,1,0.04035,-0.04872,0.02018*
1,1,0.04035,0.04872,0.02018*
1,1,0.04035,0.04872,-0.02018*
%
%ADD19ROUNDEDRECTD19*%
G04:AMPARAMS|DCode=20|XSize=80.71mil|YSize=157.48mil|CornerRadius=20.18mil|HoleSize=0mil|Usage=FLASHONLY|Rotation=270.000|XOffset=0mil|YOffset=0mil|HoleType=Round|Shape=RoundedRectangle|*
%AMROUNDEDRECTD20*
21,1,0.08071,0.11713,0,0,270.0*
21,1,0.04035,0.15748,0,0,270.0*
1,1,0.04035,-0.05856,-0.02018*
1,1,0.04035,-0.05856,0.02018*
1,1,0.04035,0.05856,0.02018*
1,1,0.04035,0.05856,-0.02018*
%
%ADD20ROUNDEDRECTD20*%
G04:AMPARAMS|DCode=21|XSize=78.74mil|YSize=98.43mil|CornerRadius=19.68mil|HoleSize=0mil|Usage=FLASHONLY|Rotation=90.000|XOffset=0mil|YOffset=0mil|HoleType=Round|Shape=RoundedRectangle|*
%AMROUNDEDRECTD21*
21,1,0.07874,0.05906,0,0,90.0*
21,1,0.03937,0.09843,0,0,90.0*
1,1,0.03937,0.02953,0.01968*
1,1,0.03937,0.02953,-0.01968*
1,1,0.03937,-0.02953,-0.01968*
1,1,0.03937,-0.02953,0.01968*
%
%ADD21ROUNDEDRECTD21*%
%ADD22O,0.08858X0.01968*%
G04:AMPARAMS|DCode=23|XSize=41.34mil|YSize=78.74mil|CornerRadius=4.13mil|HoleSize=0mil|Usage=FLASHONLY|Rotation=90.000|XOffset=0mil|YOffset=0mil|HoleType=Round|Shape=RoundedRectangle|*
%AMROUNDEDRECTD23*
21,1,0.04134,0.07047,0,0,90.0*
21,1,0.03307,0.07874,0,0,90.0*
1,1,0.00827,0.03524,0.01654*
1,1,0.00827,0.03524,-0.01654*
1,1,0.00827,-0.03524,-0.01654*
1,1,0.00827,-0.03524,0.01654*
%
%ADD23ROUNDEDRECTD23*%
%ADD24R,0.11811X0.03937*%
%ADD25R,0.07874X0.03937*%
G04:AMPARAMS|DCode=26|XSize=41.34mil|YSize=78.74mil|CornerRadius=4.13mil|HoleSize=0mil|Usage=FLASHONLY|Rotation=0.000|XOffset=0mil|YOffset=0mil|HoleType=Round|Shape=RoundedRectangle|*
%AMROUNDEDRECTD26*
21,1,0.04134,0.07047,0,0,0.0*
21,1,0.03307,0.07874,0,0,0.0*
1,1,0.00827,0.01654,-0.03524*
1,1,0.00827,-0.01654,-0.03524*
1,1,0.00827,-0.01654,0.03524*
1,1,0.00827,0.01654,0.03524*
%
%ADD26ROUNDEDRECTD26*%
%ADD27R,0.03937X0.11811*%
%ADD28R,0.03937X0.07874*%
%ADD29R,0.01378X0.00984*%
%ADD30R,0.00984X0.01378*%
G04:AMPARAMS|DCode=31|XSize=33.47mil|YSize=33.47mil|CornerRadius=3.35mil|HoleSize=0mil|Usage=FLASHONLY|Rotation=180.000|XOffset=0mil|YOffset=0mil|HoleType=Round|Shape=RoundedRectangle|*
%AMROUNDEDRECTD31*
21,1,0.03347,0.02677,0,0,180.0*
21,1,0.02677,0.03347,0,0,180.0*
1,1,0.00669,-0.01339,0.01339*
1,1,0.00669,0.01339,0.01339*
1,1,0.00669,0.01339,-0.01339*
1,1,0.00669,-0.01339,-0.01339*
%
%ADD31ROUNDEDRECTD31*%
G04:AMPARAMS|DCode=32|XSize=125.98mil|YSize=70.87mil|CornerRadius=7.09mil|HoleSize=0mil|Usage=FLASHONLY|Rotation=270.000|XOffset=0mil|YOffset=0mil|HoleType=Round|Shape=RoundedRectangle|*
%AMROUNDEDRECTD32*
21,1,0.12598,0.05669,0,0,270.0*
21,1,0.11181,0.07087,0,0,270.0*
1,1,0.01417,-0.02835,-0.05591*
1,1,0.01417,-0.02835,0.05591*
1,1,0.01417,0.02835,0.05591*
1,1,0.01417,0.02835,-0.05591*
%
%ADD32ROUNDEDRECTD32*%
G04:AMPARAMS|DCode=33|XSize=31.5mil|YSize=78.74mil|CornerRadius=3.15mil|HoleSize=0mil|Usage=FLASHONLY|Rotation=180.000|XOffset=0mil|YOffset=0mil|HoleType=Round|Shape=RoundedRectangle|*
%AMROUNDEDRECTD33*
21,1,0.03150,0.07244,0,0,180.0*
21,1,0.02520,0.07874,0,0,180.0*
1,1,0.00630,-0.01260,0.03622*
1,1,0.00630,0.01260,0.03622*
1,1,0.00630,0.01260,-0.03622*
1,1,0.00630,-0.01260,-0.03622*
%
%ADD33ROUNDEDRECTD33*%
G04:AMPARAMS|DCode=34|XSize=27.56mil|YSize=36.22mil|CornerRadius=2.76mil|HoleSize=0mil|Usage=FLASHONLY|Rotation=270.000|XOffset=0mil|YOffset=0mil|HoleType=Round|Shape=RoundedRectangle|*
%AMROUNDEDRECTD34*
21,1,0.02756,0.03071,0,0,270.0*
21,1,0.02205,0.03622,0,0,270.0*
1,1,0.00551,-0.01535,-0.01102*
1,1,0.00551,-0.01535,0.01102*
1,1,0.00551,0.01535,0.01102*
1,1,0.00551,0.01535,-0.01102*
%
%ADD34ROUNDEDRECTD34*%
G04:AMPARAMS|DCode=35|XSize=125.98mil|YSize=70.87mil|CornerRadius=7.09mil|HoleSize=0mil|Usage=FLASHONLY|Rotation=180.000|XOffset=0mil|YOffset=0mil|HoleType=Round|Shape=RoundedRectangle|*
%AMROUNDEDRECTD35*
21,1,0.12598,0.05669,0,0,180.0*
21,1,0.11181,0.07087,0,0,180.0*
1,1,0.01417,-0.05591,0.02835*
1,1,0.01417,0.05591,0.02835*
1,1,0.01417,0.05591,-0.02835*
1,1,0.01417,-0.05591,-0.02835*
%
%ADD35ROUNDEDRECTD35*%
%ADD79C,0.01378*%
G04:AMPARAMS|DCode=80|XSize=7.87mil|YSize=511.81mil|CornerRadius=3.94mil|HoleSize=0mil|Usage=FLASHONLY|Rotation=180.000|XOffset=0mil|YOffset=0mil|HoleType=Round|Shape=RoundedRectangle|*
%AMROUNDEDRECTD80*
21,1,0.00787,0.50394,0,0,180.0*
21,1,0.00000,0.51181,0,0,180.0*
1,1,0.00787,0.00000,0.25197*
1,1,0.00787,0.00000,0.25197*
1,1,0.00787,0.00000,-0.25197*
1,1,0.00787,0.00000,-0.25197*
%
%ADD80ROUNDEDRECTD80*%
G04:AMPARAMS|DCode=81|XSize=9.84mil|YSize=929.13mil|CornerRadius=4.92mil|HoleSize=0mil|Usage=FLASHONLY|Rotation=270.000|XOffset=0mil|YOffset=0mil|HoleType=Round|Shape=RoundedRectangle|*
%AMROUNDEDRECTD81*
21,1,0.00984,0.91929,0,0,270.0*
21,1,0.00000,0.92913,0,0,270.0*
1,1,0.00984,-0.45965,0.00000*
1,1,0.00984,-0.45965,0.00000*
1,1,0.00984,0.45965,0.00000*
1,1,0.00984,0.45965,0.00000*
%
%ADD81ROUNDEDRECTD81*%
G04:AMPARAMS|DCode=82|XSize=7.87mil|YSize=49.21mil|CornerRadius=3.94mil|HoleSize=0mil|Usage=FLASHONLY|Rotation=0.000|XOffset=0mil|YOffset=0mil|HoleType=Round|Shape=RoundedRectangle|*
%AMROUNDEDRECTD82*
21,1,0.00787,0.04134,0,0,0.0*
21,1,0.00000,0.04921,0,0,0.0*
1,1,0.00787,0.00000,-0.02067*
1,1,0.00787,0.00000,-0.02067*
1,1,0.00787,0.00000,0.02067*
1,1,0.00787,0.00000,0.02067*
%
%ADD82ROUNDEDRECTD82*%
G04:AMPARAMS|DCode=83|XSize=7.87mil|YSize=37.01mil|CornerRadius=3.94mil|HoleSize=0mil|Usage=FLASHONLY|Rotation=225.000|XOffset=0mil|YOffset=0mil|HoleType=Round|Shape=RoundedRectangle|*
%AMROUNDEDRECTD83*
21,1,0.00787,0.02913,0,0,225.0*
21,1,0.00000,0.03701,0,0,225.0*
1,1,0.00787,-0.01030,0.01030*
1,1,0.00787,-0.01030,0.01030*
1,1,0.00787,0.01030,-0.01030*
1,1,0.00787,0.01030,-0.01030*
%
%ADD83ROUNDEDRECTD83*%
G04:AMPARAMS|DCode=84|XSize=7.87mil|YSize=22.84mil|CornerRadius=3.94mil|HoleSize=0mil|Usage=FLASHONLY|Rotation=135.000|XOffset=0mil|YOffset=0mil|HoleType=Round|Shape=RoundedRectangle|*
%AMROUNDEDRECTD84*
21,1,0.00787,0.01496,0,0,135.0*
21,1,0.00000,0.02284,0,0,135.0*
1,1,0.00787,0.00529,0.00529*
1,1,0.00787,0.00529,0.00529*
1,1,0.00787,-0.00529,-0.00529*
1,1,0.00787,-0.00529,-0.00529*
%
%ADD84ROUNDEDRECTD84*%
G04:AMPARAMS|DCode=85|XSize=7.87mil|YSize=21.65mil|CornerRadius=3.94mil|HoleSize=0mil|Usage=FLASHONLY|Rotation=45.000|XOffset=0mil|YOffset=0mil|HoleType=Round|Shape=RoundedRectangle|*
%AMROUNDEDRECTD85*
21,1,0.00787,0.01378,0,0,45.0*
21,1,0.00000,0.02165,0,0,45.0*
1,1,0.00787,0.00487,-0.00487*
1,1,0.00787,0.00487,-0.00487*
1,1,0.00787,-0.00487,0.00487*
1,1,0.00787,-0.00487,0.00487*
%
%ADD85ROUNDEDRECTD85*%
G04:AMPARAMS|DCode=86|XSize=7.87mil|YSize=47.24mil|CornerRadius=3.94mil|HoleSize=0mil|Usage=FLASHONLY|Rotation=45.000|XOffset=0mil|YOffset=0mil|HoleType=Round|Shape=RoundedRectangle|*
%AMROUNDEDRECTD86*
21,1,0.00787,0.03937,0,0,45.0*
21,1,0.00000,0.04724,0,0,45.0*
1,1,0.00787,0.01392,-0.01392*
1,1,0.00787,0.01392,-0.01392*
1,1,0.00787,-0.01392,0.01392*
1,1,0.00787,-0.01392,0.01392*
%
%ADD86ROUNDEDRECTD86*%
G04:AMPARAMS|DCode=87|XSize=7.87mil|YSize=62.99mil|CornerRadius=3.94mil|HoleSize=0mil|Usage=FLASHONLY|Rotation=270.000|XOffset=0mil|YOffset=0mil|HoleType=Round|Shape=RoundedRectangle|*
%AMROUNDEDRECTD87*
21,1,0.00787,0.05512,0,0,270.0*
21,1,0.00000,0.06299,0,0,270.0*
1,1,0.00787,-0.02756,0.00000*
1,1,0.00787,-0.02756,0.00000*
1,1,0.00787,0.02756,0.00000*
1,1,0.00787,0.02756,0.00000*
%
%ADD87ROUNDEDRECTD87*%
G04:AMPARAMS|DCode=88|XSize=7.87mil|YSize=31.5mil|CornerRadius=3.94mil|HoleSize=0mil|Usage=FLASHONLY|Rotation=315.000|XOffset=0mil|YOffset=0mil|HoleType=Round|Shape=RoundedRectangle|*
%AMROUNDEDRECTD88*
21,1,0.00787,0.02362,0,0,315.0*
21,1,0.00000,0.03150,0,0,315.0*
1,1,0.00787,-0.00835,-0.00835*
1,1,0.00787,-0.00835,-0.00835*
1,1,0.00787,0.00835,0.00835*
1,1,0.00787,0.00835,0.00835*
%
%ADD88ROUNDEDRECTD88*%
G04:AMPARAMS|DCode=89|XSize=7.87mil|YSize=1712.6mil|CornerRadius=3.94mil|HoleSize=0mil|Usage=FLASHONLY|Rotation=270.000|XOffset=0mil|YOffset=0mil|HoleType=Round|Shape=RoundedRectangle|*
%AMROUNDEDRECTD89*
21,1,0.00787,1.70472,0,0,270.0*
21,1,0.00000,1.71260,0,0,270.0*
1,1,0.00787,-0.85236,0.00000*
1,1,0.00787,-0.85236,0.00000*
1,1,0.00787,0.85236,0.00000*
1,1,0.00787,0.85236,0.00000*
%
%ADD89ROUNDEDRECTD89*%
G04:AMPARAMS|DCode=90|XSize=7.87mil|YSize=1413.39mil|CornerRadius=3.94mil|HoleSize=0mil|Usage=FLASHONLY|Rotation=180.000|XOffset=0mil|YOffset=0mil|HoleType=Round|Shape=RoundedRectangle|*
%AMROUNDEDRECTD90*
21,1,0.00787,1.40551,0,0,180.0*
21,1,0.00000,1.41339,0,0,180.0*
1,1,0.00787,0.00000,0.70276*
1,1,0.00787,0.00000,0.70276*
1,1,0.00787,0.00000,-0.70276*
1,1,0.00787,0.00000,-0.70276*
%
%ADD90ROUNDEDRECTD90*%
G04:AMPARAMS|DCode=91|XSize=7.87mil|YSize=1795.28mil|CornerRadius=3.94mil|HoleSize=0mil|Usage=FLASHONLY|Rotation=270.000|XOffset=0mil|YOffset=0mil|HoleType=Round|Shape=RoundedRectangle|*
%AMROUNDEDRECTD91*
21,1,0.00787,1.78740,0,0,270.0*
21,1,0.00000,1.79528,0,0,270.0*
1,1,0.00787,-0.89370,0.00000*
1,1,0.00787,-0.89370,0.00000*
1,1,0.00787,0.89370,0.00000*
1,1,0.00787,0.89370,0.00000*
%
%ADD91ROUNDEDRECTD91*%
G04:AMPARAMS|DCode=92|XSize=7.87mil|YSize=1424.8mil|CornerRadius=3.94mil|HoleSize=0mil|Usage=FLASHONLY|Rotation=180.000|XOffset=0mil|YOffset=0mil|HoleType=Round|Shape=RoundedRectangle|*
%AMROUNDEDRECTD92*
21,1,0.00787,1.41693,0,0,180.0*
21,1,0.00000,1.42480,0,0,180.0*
1,1,0.00787,0.00000,0.70847*
1,1,0.00787,0.00000,0.70847*
1,1,0.00787,0.00000,-0.70847*
1,1,0.00787,0.00000,-0.70847*
%
%ADD92ROUNDEDRECTD92*%
G04:AMPARAMS|DCode=93|XSize=9.84mil|YSize=27.56mil|CornerRadius=4.92mil|HoleSize=0mil|Usage=FLASHONLY|Rotation=180.000|XOffset=0mil|YOffset=0mil|HoleType=Round|Shape=RoundedRectangle|*
%AMROUNDEDRECTD93*
21,1,0.00984,0.01772,0,0,180.0*
21,1,0.00000,0.02756,0,0,180.0*
1,1,0.00984,0.00000,0.00886*
1,1,0.00984,0.00000,0.00886*
1,1,0.00984,0.00000,-0.00886*
1,1,0.00984,0.00000,-0.00886*
%
%ADD93ROUNDEDRECTD93*%
G04:AMPARAMS|DCode=94|XSize=15.75mil|YSize=62.99mil|CornerRadius=0mil|HoleSize=0mil|Usage=FLASHONLY|Rotation=45.000|XOffset=0mil|YOffset=0mil|HoleType=Round|Shape=Round|*
%AMOVALD94*
21,1,0.04724,0.01575,0.00000,0.00000,135.0*
1,1,0.01575,0.01670,-0.01670*
1,1,0.01575,-0.01670,0.01670*
%
%ADD94OVALD94*%

%ADD95O,0.35433X0.01575*%
%ADD96O,0.01575X0.21260*%
%ADD97O,0.25591X0.00787*%
%ADD98O,0.00787X0.01968*%
%ADD99O,0.03937X0.01968*%
%ADD100O,0.00787X0.36221*%
%ADD101O,0.54331X0.00787*%
%ADD102O,0.03937X0.34429*%
%ADD103O,0.04724X0.01968*%
%ADD104O,0.01968X0.11811*%
%ADD105O,0.01968X0.44882*%
%ADD106O,0.56890X0.01968*%
%ADD107O,0.01968X0.50000*%
%ADD108O,0.68504X0.01575*%
%ADD109O,0.00787X0.22323*%
%ADD110O,0.38583X0.01575*%
%ADD111O,0.00787X0.26772*%
%ADD112O,0.43701X0.00787*%
%ADD113O,0.00984X0.01968*%
%ADD114O,0.01968X0.00984*%
%ADD115O,0.00787X0.28543*%
%ADD116O,0.00984X0.01968*%
%ADD117O,0.00787X0.02756*%
%ADD118O,0.01968X0.03937*%
%ADD119O,0.20669X0.00787*%
%ADD120O,0.00787X0.33071*%
G04:AMPARAMS|DCode=121|XSize=7.87mil|YSize=47.24mil|CornerRadius=0mil|HoleSize=0mil|Usage=FLASHONLY|Rotation=315.000|XOffset=0mil|YOffset=0mil|HoleType=Round|Shape=Round|*
%AMOVALD121*
21,1,0.03937,0.00787,0.00000,0.00000,45.0*
1,1,0.00787,-0.01392,-0.01392*
1,1,0.00787,0.01392,0.01392*
%
%ADD121OVALD121*%

G04:AMPARAMS|DCode=122|XSize=7.87mil|YSize=11.81mil|CornerRadius=0mil|HoleSize=0mil|Usage=FLASHONLY|Rotation=45.000|XOffset=0mil|YOffset=0mil|HoleType=Round|Shape=Round|*
%AMOVALD122*
21,1,0.00394,0.00787,0.00000,0.00000,135.0*
1,1,0.00787,0.00139,-0.00139*
1,1,0.00787,-0.00139,0.00139*
%
%ADD122OVALD122*%

%ADD123O,0.00787X0.14173*%
%ADD124O,0.06693X0.00787*%
G04:AMPARAMS|DCode=125|XSize=95.67mil|YSize=7.87mil|CornerRadius=0mil|HoleSize=0mil|Usage=FLASHONLY|Rotation=45.000|XOffset=0mil|YOffset=0mil|HoleType=Round|Shape=Round|*
%AMOVALD125*
21,1,0.08780,0.00787,0.00000,0.00000,45.0*
1,1,0.00787,-0.03104,-0.03104*
1,1,0.00787,0.03104,0.03104*
%
%ADD125OVALD125*%

%ADD126O,1.01181X0.00787*%
%ADD127O,0.00787X0.56693*%
%ADD128O,0.00787X0.34744*%
%ADD129O,0.00787X0.16732*%
%ADD130O,0.00787X1.01772*%
%ADD131O,0.44587X0.00787*%
%ADD132O,0.03937X0.05906*%
G04:AMPARAMS|DCode=133|XSize=39.37mil|YSize=7.87mil|CornerRadius=0mil|HoleSize=0mil|Usage=FLASHONLY|Rotation=315.000|XOffset=0mil|YOffset=0mil|HoleType=Round|Shape=Round|*
%AMOVALD133*
21,1,0.03150,0.00787,0.00000,0.00000,315.0*
1,1,0.00787,-0.01114,0.01114*
1,1,0.00787,0.01114,-0.01114*
%
%ADD133OVALD133*%

%ADD134O,0.00787X0.16339*%
%ADD135O,0.03150X0.02362*%
%ADD136O,0.19685X0.01575*%
%ADD137O,0.01575X0.28347*%
%ADD138O,1.39370X0.01575*%
%ADD139O,1.18110X0.01575*%
%ADD140O,0.00787X0.12205*%
%ADD141O,0.00787X0.01575*%
%ADD142O,0.00984X0.40158*%
%ADD143O,0.22835X0.00984*%
G04:AMPARAMS|DCode=144|XSize=25.59mil|YSize=9.84mil|CornerRadius=0mil|HoleSize=0mil|Usage=FLASHONLY|Rotation=45.000|XOffset=0mil|YOffset=0mil|HoleType=Round|Shape=Round|*
%AMOVALD144*
21,1,0.01575,0.00984,0.00000,0.00000,45.0*
1,1,0.00984,-0.00557,-0.00557*
1,1,0.00984,0.00557,0.00557*
%
%ADD144OVALD144*%

G04:AMPARAMS|DCode=145|XSize=438.98mil|YSize=283.47mil|CornerRadius=28.35mil|HoleSize=0mil|Usage=FLASHONLY|Rotation=180.000|XOffset=0mil|YOffset=0mil|HoleType=Round|Shape=RoundedRectangle|*
%AMROUNDEDRECTD145*
21,1,0.43898,0.22677,0,0,180.0*
21,1,0.38228,0.28347,0,0,180.0*
1,1,0.05669,-0.19114,0.11339*
1,1,0.05669,0.19114,0.11339*
1,1,0.05669,0.19114,-0.11339*
1,1,0.05669,-0.19114,-0.11339*
%
%ADD145ROUNDEDRECTD145*%
G04:AMPARAMS|DCode=146|XSize=332.68mil|YSize=187.01mil|CornerRadius=18.7mil|HoleSize=0mil|Usage=FLASHONLY|Rotation=180.000|XOffset=0mil|YOffset=0mil|HoleType=Round|Shape=RoundedRectangle|*
%AMROUNDEDRECTD146*
21,1,0.33268,0.14961,0,0,180.0*
21,1,0.29528,0.18701,0,0,180.0*
1,1,0.03740,-0.14764,0.07480*
1,1,0.03740,0.14764,0.07480*
1,1,0.03740,0.14764,-0.07480*
1,1,0.03740,-0.14764,-0.07480*
%
%ADD146ROUNDEDRECTD146*%
G04:AMPARAMS|DCode=147|XSize=438.98mil|YSize=283.47mil|CornerRadius=28.35mil|HoleSize=0mil|Usage=FLASHONLY|Rotation=90.000|XOffset=0mil|YOffset=0mil|HoleType=Round|Shape=RoundedRectangle|*
%AMROUNDEDRECTD147*
21,1,0.43898,0.22677,0,0,90.0*
21,1,0.38228,0.28347,0,0,90.0*
1,1,0.05669,0.11339,0.19114*
1,1,0.05669,0.11339,-0.19114*
1,1,0.05669,-0.11339,-0.19114*
1,1,0.05669,-0.11339,0.19114*
%
%ADD147ROUNDEDRECTD147*%
G04:AMPARAMS|DCode=148|XSize=332.68mil|YSize=187.01mil|CornerRadius=18.7mil|HoleSize=0mil|Usage=FLASHONLY|Rotation=90.000|XOffset=0mil|YOffset=0mil|HoleType=Round|Shape=RoundedRectangle|*
%AMROUNDEDRECTD148*
21,1,0.33268,0.14961,0,0,90.0*
21,1,0.29528,0.18701,0,0,90.0*
1,1,0.03740,0.07480,0.14764*
1,1,0.03740,0.07480,-0.14764*
1,1,0.03740,-0.07480,-0.14764*
1,1,0.03740,-0.07480,0.14764*
%
%ADD148ROUNDEDRECTD148*%
%ADD149R,0.01968X0.01968*%
%ADD150C,0.03150*%
%ADD151C,0.01575*%
%ADD152C,0.03937*%
%ADD153C,0.01181*%
%ADD154C,0.01968*%
%ADD155C,0.05906*%
%ADD156C,0.02362*%
%ADD157C,0.02756*%
%ADD158C,0.03543*%
%ADD159C,0.02362*%
%ADD160O,0.07087X0.07874*%
%ADD161O,0.05118X0.07087*%
%ADD162C,0.04535*%
%ADD163C,0.03937*%
G36*
X384921Y345905D02*
X386322Y345481D01*
X387613Y344791D01*
X388744Y343862D01*
X389673Y342731D01*
X390363Y341440D01*
X390787Y340039D01*
X390927Y338619D01*
X390912Y338583D01*
Y317391D01*
X390180Y317125D01*
X390125Y317118D01*
X389550Y317559D01*
X388868Y317841D01*
X388136Y317938D01*
X376423D01*
X375691Y317841D01*
X375009Y317559D01*
X374423Y317109D01*
X373973Y316523D01*
X373847Y316220D01*
X372995D01*
X372870Y316523D01*
X372420Y317109D01*
X371834Y317559D01*
X371152Y317841D01*
X370419Y317938D01*
X360675D01*
X359943Y317841D01*
X359261Y317559D01*
X358675Y317109D01*
X358225Y316523D01*
X357942Y315841D01*
X357846Y315108D01*
Y311073D01*
X357942Y310341D01*
X358225Y309658D01*
X358675Y309072D01*
X358962Y308852D01*
X359004Y308533D01*
X359282Y307862D01*
X359723Y307286D01*
X360299Y306845D01*
X360969Y306567D01*
X361689Y306472D01*
X367595D01*
X368314Y306567D01*
X368984Y306845D01*
X369560Y307286D01*
X370002Y307862D01*
X370160Y308243D01*
X370419D01*
X371152Y308340D01*
X371834Y308623D01*
X372420Y309072D01*
X372870Y309658D01*
X372995Y309961D01*
X373847D01*
X373973Y309658D01*
X374423Y309072D01*
X375009Y308623D01*
X375691Y308340D01*
X376423Y308243D01*
X380580D01*
X380738Y307862D01*
X381180Y307286D01*
X381756Y306845D01*
X382426Y306567D01*
X383146Y306472D01*
X389051D01*
X389771Y306567D01*
X390125Y306714D01*
X390912Y306287D01*
Y281114D01*
X390125Y280688D01*
X389771Y280835D01*
X389051Y280929D01*
X383146D01*
X382426Y280835D01*
X381756Y280557D01*
X381180Y280115D01*
X380738Y279539D01*
X380580Y279158D01*
X376423D01*
X375691Y279062D01*
X375009Y278779D01*
X374423Y278329D01*
X373973Y277743D01*
X373847Y277440D01*
X372995D01*
X372870Y277743D01*
X372420Y278329D01*
X371834Y278779D01*
X371152Y279062D01*
X370419Y279158D01*
X370160D01*
X370002Y279539D01*
X369560Y280115D01*
X368984Y280557D01*
X368314Y280835D01*
X367595Y280929D01*
X361689D01*
X360969Y280835D01*
X360299Y280557D01*
X359723Y280115D01*
X359282Y279539D01*
X359004Y278869D01*
X358962Y278550D01*
X358675Y278329D01*
X358225Y277743D01*
X357942Y277061D01*
X357846Y276329D01*
Y272293D01*
X357942Y271561D01*
X358225Y270879D01*
X358348Y270719D01*
X358244Y269737D01*
X358193Y269672D01*
X358128Y269628D01*
X357693Y268977D01*
X357540Y268209D01*
X357693Y267441D01*
X358128Y266790D01*
X358109Y265967D01*
X357461Y265509D01*
X357422Y265535D01*
X356654Y265688D01*
X355886Y265535D01*
X355235Y265100D01*
X354800Y264449D01*
X354647Y263681D01*
X354800Y262913D01*
X355235Y262262D01*
X355886Y261827D01*
X356654Y261674D01*
X356825Y261708D01*
X356840Y261706D01*
X356924Y261712D01*
X356970Y261712D01*
X357008Y261708D01*
X357039Y261702D01*
X357067Y261694D01*
X357092Y261684D01*
X357117Y261672D01*
X357141Y261657D01*
X357444Y261353D01*
X357835Y261092D01*
X358296Y261000D01*
X359055D01*
Y258182D01*
X359093Y258185D01*
X359213Y258205D01*
X359316Y258232D01*
X359404Y258268D01*
X359476Y258311D01*
X359532Y258362D01*
X359572Y258421D01*
X359596Y258488D01*
X359604Y258563D01*
Y256988D01*
X359596Y257063D01*
X359572Y257130D01*
X359532Y257189D01*
X359476Y257240D01*
X359404Y257283D01*
X359316Y257319D01*
X359213Y257347D01*
X359093Y257366D01*
X359055Y257369D01*
Y255805D01*
X364386D01*
X364392Y255800D01*
X364083Y255041D01*
X364043Y255012D01*
X287418D01*
X285051Y252646D01*
X284326Y253034D01*
X284389Y253352D01*
X284236Y254120D01*
X283801Y254771D01*
X283282Y255118D01*
X283344Y255723D01*
X283413Y255905D01*
X296555D01*
X296555Y255906D01*
Y283858D01*
X297736D01*
X297835Y283957D01*
X298622Y283818D01*
Y257480D01*
X298524Y257382D01*
X353709D01*
X353709Y267323D01*
X356303D01*
Y315654D01*
X356348Y315699D01*
X289321D01*
X288814Y316277D01*
X288809Y317442D01*
X281988D01*
X281988Y309465D01*
X281201Y309209D01*
X280831Y309456D01*
X280217Y309578D01*
X279626Y310058D01*
Y317224D01*
X277165D01*
X276083Y316142D01*
X274978D01*
X274593Y316719D01*
X273876Y317197D01*
X273031Y317365D01*
X272187Y317197D01*
X271470Y316719D01*
X271085Y316142D01*
X257972D01*
Y317028D01*
X257579Y317421D01*
X257315Y317712D01*
X257316Y317717D01*
X257187Y319029D01*
X256804Y320290D01*
X256182Y321453D01*
X255346Y322472D01*
X254327Y323308D01*
X253164Y323930D01*
X251903Y324313D01*
X250590Y324442D01*
X249278Y324313D01*
X248017Y323930D01*
X246854Y323308D01*
X245835Y322472D01*
X244999Y321453D01*
X244377Y320290D01*
X243994Y319029D01*
X243865Y317717D01*
X243598Y317421D01*
X243307D01*
Y316339D01*
X243110Y316142D01*
X232083Y316114D01*
X231679Y316719D01*
X230963Y317197D01*
X230118Y317365D01*
X229273Y317197D01*
X228557Y316719D01*
X228146Y316104D01*
X212697Y316065D01*
X212077Y316073D01*
X193504Y316066D01*
X176210D01*
X175774Y316719D01*
X175057Y317197D01*
X174213Y317365D01*
X173368Y317197D01*
X172652Y316719D01*
X172215Y316066D01*
X127929D01*
X127493Y316719D01*
X126777Y317197D01*
X125932Y317365D01*
X125087Y317197D01*
X124371Y316719D01*
X123892Y316002D01*
X123724Y315158D01*
X123892Y314313D01*
X124371Y313596D01*
X124794Y313314D01*
X124707Y290354D01*
X124705Y289665D01*
X124705Y289567D01*
X125827Y289567D01*
X126150Y289173D01*
X126272Y288559D01*
X126620Y288038D01*
X127141Y287690D01*
X127756Y287568D01*
X263761D01*
X263804Y287351D01*
X264152Y286830D01*
X265011Y285971D01*
X265011Y285971D01*
X265532Y285623D01*
X266146Y285501D01*
X266146Y285501D01*
X267504D01*
X268556Y284449D01*
X268230Y283662D01*
X263071D01*
X260315Y286417D01*
X89459D01*
X88026Y284984D01*
X87896Y284927D01*
X87053Y284903D01*
X86977Y284978D01*
X86939Y285168D01*
X86678Y285559D01*
X86678Y285559D01*
X84606Y287631D01*
X84606Y287854D01*
X84381Y287857D01*
X83230Y289007D01*
Y289055D01*
X83293Y289370D01*
Y289837D01*
X83801Y290345D01*
X121210D01*
Y315394D01*
X78592D01*
Y294032D01*
X77557Y292996D01*
X78355Y292198D01*
Y290475D01*
X77605Y290130D01*
X77165Y290469D01*
Y291929D01*
X54236Y291929D01*
X53150Y290843D01*
X52362Y291003D01*
Y316527D01*
X426Y316527D01*
Y346030D01*
X383465D01*
X383500Y346045D01*
X384921Y345905D01*
D02*
G37*
G36*
X278463Y308864D02*
X278543Y308842D01*
X278651Y308823D01*
X278786Y308806D01*
X279357Y308771D01*
X280178Y308760D01*
Y307185D01*
X279877Y307184D01*
X278543Y307103D01*
X278463Y307081D01*
X278411Y307057D01*
Y308888D01*
X278463Y308864D01*
D02*
G37*
G36*
X279176Y292566D02*
X279200Y292203D01*
X279214Y292108D01*
X279232Y292027D01*
X279253Y291959D01*
X279277Y291904D01*
X279304Y291863D01*
X279335Y291835D01*
X278002Y291035D01*
X278075Y291092D01*
X278140Y291172D01*
X278198Y291275D01*
X278248Y291399D01*
X278291Y291547D01*
X278325Y291716D01*
X278352Y291908D01*
X278383Y292359D01*
X278387Y292618D01*
X279174Y292714D01*
X279176Y292566D01*
D02*
G37*
G36*
X80468Y289169D02*
X80464Y289140D01*
X80459Y289037D01*
X80451Y288364D01*
X79664Y288251D01*
X79663Y288402D01*
X79629Y288965D01*
X79616Y289038D01*
X79602Y289099D01*
X79586Y289147D01*
X79567Y289183D01*
X80472D01*
X80468Y289169D01*
D02*
G37*
G36*
X274743Y284688D02*
X274714Y284629D01*
X274689Y284561D01*
X274667Y284485D01*
X274648Y284399D01*
X274633Y284306D01*
X274613Y284092D01*
X274606Y283844D01*
X273425Y283611D01*
X273422Y283738D01*
X273400Y283964D01*
X273380Y284063D01*
X273355Y284153D01*
X273324Y284233D01*
X273288Y284305D01*
X273245Y284367D01*
X273198Y284420D01*
X273144Y284464D01*
X274775Y284739D01*
X274743Y284688D01*
D02*
G37*
G36*
X10244Y270468D02*
X10252Y270382D01*
X11024D01*
X10874Y270366D01*
X10740Y270319D01*
X10622Y270239D01*
X10520Y270128D01*
X10433Y269985D01*
X10362Y269811D01*
X10355Y269782D01*
X10362Y269754D01*
X10433Y269579D01*
X10520Y269436D01*
X10622Y269325D01*
X10740Y269246D01*
X10874Y269198D01*
X11024Y269182D01*
X10252D01*
X10244Y269097D01*
X10236Y268795D01*
X8661D01*
X8654Y269097D01*
X8646Y269182D01*
X7874D01*
X8024Y269198D01*
X8157Y269246D01*
X8276Y269325D01*
X8378Y269436D01*
X8465Y269579D01*
X8535Y269754D01*
X8543Y269782D01*
X8535Y269811D01*
X8465Y269985D01*
X8378Y270128D01*
X8276Y270239D01*
X8157Y270319D01*
X8024Y270366D01*
X7874Y270382D01*
X8646D01*
X8654Y270468D01*
X8661Y270769D01*
X10236D01*
X10244Y270468D01*
D02*
G37*
G36*
X373863Y269839D02*
X373952Y269765D01*
X374043Y269700D01*
X374137Y269644D01*
X374234Y269597D01*
X374333Y269557D01*
X374434Y269527D01*
X374539Y269506D01*
X374646Y269493D01*
X374755Y269488D01*
Y268701D01*
X374646Y268696D01*
X374539Y268684D01*
X374434Y268662D01*
X374333Y268632D01*
X374234Y268593D01*
X374137Y268545D01*
X374043Y268489D01*
X373952Y268424D01*
X373863Y268350D01*
X373777Y268268D01*
Y269921D01*
X373863Y269839D01*
D02*
G37*
G36*
X360507Y268915D02*
X360592Y268839D01*
X360680Y268772D01*
X360771Y268714D01*
X360866Y268665D01*
X360964Y268625D01*
X361065Y268593D01*
X361159Y268573D01*
X361528Y268590D01*
Y267630D01*
X361520Y267656D01*
X361496Y267679D01*
X361457Y267699D01*
X361402Y267717D01*
X361331Y267732D01*
X361244Y267744D01*
X361151Y267751D01*
X361135Y267749D01*
X361030Y267728D01*
X360928Y267699D01*
X360827Y267661D01*
X360729Y267615D01*
X360632Y267561D01*
X360538Y267498D01*
X360446Y267427D01*
X360355Y267348D01*
X360424Y269000D01*
X360507Y268915D01*
D02*
G37*
G36*
X16841Y266600D02*
X16872Y266584D01*
X17025Y266531D01*
X17205Y266490D01*
X17414Y266461D01*
X17650Y266443D01*
X17913Y266437D01*
Y264862D01*
X17650Y264856D01*
X17414Y264839D01*
X17205Y264809D01*
X17025Y264768D01*
X16872Y264715D01*
X16841Y264699D01*
Y264075D01*
X16825Y264224D01*
X16777Y264358D01*
X16698Y264476D01*
X16626Y264543D01*
X16581Y264485D01*
X16539Y264385D01*
X16525Y264273D01*
Y264616D01*
X16444Y264665D01*
X16270Y264736D01*
X16063Y264791D01*
X15825Y264831D01*
X15556Y264854D01*
X15254Y264862D01*
Y266437D01*
X15556Y266445D01*
X15825Y266469D01*
X16063Y266508D01*
X16270Y266563D01*
X16444Y266634D01*
X16525Y266683D01*
Y267026D01*
X16539Y266914D01*
X16581Y266814D01*
X16626Y266756D01*
X16698Y266823D01*
X16777Y266941D01*
X16825Y267075D01*
X16841Y267224D01*
Y266600D01*
D02*
G37*
G36*
X369127Y267622D02*
X369079Y267599D01*
X369037Y267559D01*
X369000Y267504D01*
X368969Y267433D01*
X368943Y267347D01*
X368923Y267244D01*
X368911Y267143D01*
X368923Y267008D01*
X368943Y266905D01*
X368969Y266819D01*
X369000Y266748D01*
X369037Y266693D01*
X369079Y266653D01*
X369127Y266630D01*
X369181Y266622D01*
X367827D01*
X367881Y266630D01*
X367929Y266653D01*
X367971Y266693D01*
X368008Y266748D01*
X368039Y266819D01*
X368065Y266905D01*
X368085Y267008D01*
X368097Y267109D01*
X368085Y267244D01*
X368065Y267347D01*
X368039Y267433D01*
X368008Y267504D01*
X367971Y267559D01*
X367929Y267599D01*
X367881Y267622D01*
X367827Y267630D01*
X369181D01*
X369127Y267622D01*
D02*
G37*
G36*
X362890Y266605D02*
X362913Y266591D01*
X362953Y266578D01*
X363008Y266567D01*
X363079Y266557D01*
X363268Y266543D01*
X363669Y266535D01*
Y265748D01*
X363520Y265747D01*
X363008Y265717D01*
X362953Y265706D01*
X362913Y265693D01*
X362890Y265678D01*
X362882Y265662D01*
Y266622D01*
X362890Y266605D01*
D02*
G37*
G36*
X387357Y266667D02*
X387624Y266443D01*
X387747Y266359D01*
X387862Y266293D01*
X387970Y266245D01*
X388070Y266215D01*
X388162Y266205D01*
X388248Y266212D01*
X388325Y266238D01*
X386830Y265530D01*
X386891Y265572D01*
X386927Y265630D01*
X386936Y265702D01*
X386921Y265788D01*
X386879Y265890D01*
X386812Y266006D01*
X386719Y266137D01*
X386600Y266283D01*
X386286Y266618D01*
X387212Y266807D01*
X387357Y266667D01*
D02*
G37*
G36*
X369189Y266605D02*
X369213Y266589D01*
X369252Y266576D01*
X369307Y266564D01*
X369378Y266554D01*
X369567Y266540D01*
X369968Y266531D01*
Y266529D01*
X370020Y266529D01*
X371044Y266461D01*
X371108Y266430D01*
X371094Y266393D01*
X371004Y266351D01*
X370836Y266303D01*
X370591Y266250D01*
X370295Y265350D01*
X370310Y265425D01*
X370304Y265492D01*
X370277Y265551D01*
X370229Y265602D01*
X370160Y265646D01*
X370069Y265681D01*
X369957Y265708D01*
X369825Y265728D01*
X369720Y265736D01*
X369252Y265704D01*
X369213Y265691D01*
X369189Y265677D01*
X369181Y265662D01*
Y266622D01*
X369189Y266605D01*
D02*
G37*
G36*
X361406Y264478D02*
X360876Y263895D01*
X360675Y264037D01*
X360917Y264903D01*
X361406Y264478D01*
D02*
G37*
G36*
X369127Y263685D02*
X369079Y263662D01*
X369037Y263622D01*
X369000Y263567D01*
X368969Y263496D01*
X368943Y263410D01*
X368923Y263307D01*
X368911Y263206D01*
X368923Y263071D01*
X368943Y262968D01*
X368969Y262882D01*
X369000Y262811D01*
X369037Y262756D01*
X369079Y262716D01*
X369127Y262693D01*
X369181Y262685D01*
X367827D01*
X367881Y262693D01*
X367929Y262716D01*
X367971Y262756D01*
X368008Y262811D01*
X368039Y262882D01*
X368065Y262968D01*
X368085Y263071D01*
X368097Y263172D01*
X368085Y263307D01*
X368065Y263410D01*
X368039Y263496D01*
X368008Y263567D01*
X367971Y263622D01*
X367929Y263662D01*
X367881Y263685D01*
X367827Y263693D01*
X369181D01*
X369127Y263685D01*
D02*
G37*
G36*
X365870Y261417D02*
X365862Y261492D01*
X365837Y261559D01*
X365797Y261618D01*
X365741Y261669D01*
X365669Y261713D01*
X365581Y261748D01*
X365477Y261776D01*
X365358Y261795D01*
X365356Y261795D01*
X365354Y261795D01*
X365236Y261776D01*
X365134Y261748D01*
X365047Y261713D01*
X364976Y261669D01*
X364921Y261618D01*
X364882Y261559D01*
X364858Y261492D01*
X364850Y261417D01*
Y262685D01*
X364858Y262668D01*
X364882Y262654D01*
X364921Y262641D01*
X364976Y262630D01*
X365047Y262620D01*
X365236Y262606D01*
X365313Y262605D01*
X365733Y262630D01*
X365788Y262641D01*
X365827Y262654D01*
X365851Y262668D01*
X365859Y262685D01*
X365870Y261417D01*
D02*
G37*
G36*
X367827Y261725D02*
X367819Y261741D01*
X367795Y261756D01*
X367756Y261769D01*
X367701Y261780D01*
X367630Y261789D01*
X367441Y261803D01*
X367418Y261804D01*
X367323Y261795D01*
X367205Y261776D01*
X367102Y261748D01*
X367016Y261713D01*
X366945Y261669D01*
X366890Y261618D01*
X366850Y261559D01*
X366827Y261492D01*
X366819Y261417D01*
Y262685D01*
X366827Y262668D01*
X366850Y262654D01*
X366890Y262641D01*
X366945Y262630D01*
X367016Y262620D01*
X367205Y262606D01*
X367281Y262605D01*
X367701Y262630D01*
X367756Y262641D01*
X367795Y262654D01*
X367819Y262668D01*
X367827Y262685D01*
Y261725D01*
D02*
G37*
G36*
X357845Y263666D02*
X357866Y263550D01*
X357893Y263438D01*
X357927Y263332D01*
X357968Y263229D01*
X358015Y263132D01*
X358069Y263039D01*
X358129Y262951D01*
X358196Y262867D01*
X358270Y262788D01*
X357772Y262172D01*
X357690Y262248D01*
X357604Y262314D01*
X357515Y262370D01*
X357422Y262418D01*
X357325Y262456D01*
X357224Y262485D01*
X357119Y262504D01*
X357011Y262514D01*
X356899Y262515D01*
X356783Y262507D01*
X357831Y263786D01*
X357845Y263666D01*
D02*
G37*
G36*
X361528Y261725D02*
X361520Y261741D01*
X361496Y261756D01*
X361457Y261769D01*
X361402Y261780D01*
X361331Y261789D01*
X361142Y261803D01*
X360740Y261811D01*
Y262598D01*
X360890Y262599D01*
X361402Y262630D01*
X361457Y262641D01*
X361496Y262654D01*
X361520Y262668D01*
X361528Y262685D01*
Y261725D01*
D02*
G37*
G36*
X378827Y262008D02*
X378708Y262005D01*
X378593Y261995D01*
X378482Y261976D01*
X378376Y261949D01*
X378274Y261914D01*
X378176Y261872D01*
X378083Y261821D01*
X377994Y261763D01*
X377909Y261697D01*
X377829Y261622D01*
X377272Y262179D01*
X377346Y262259D01*
X377413Y262344D01*
X377471Y262433D01*
X377521Y262527D01*
X377564Y262624D01*
X377599Y262726D01*
X377625Y262833D01*
X377644Y262943D01*
X377655Y263058D01*
X377658Y263177D01*
X378827Y262008D01*
D02*
G37*
G36*
X383204Y267751D02*
X383204Y267751D01*
X383594Y267490D01*
X384055Y267398D01*
X384055Y267398D01*
X384360D01*
X385866Y265892D01*
X385995Y265755D01*
X386003Y265745D01*
Y258697D01*
X386089Y258267D01*
X386332Y257902D01*
X386697Y257658D01*
X387127Y257573D01*
X389647D01*
X390077Y257658D01*
X390125Y257691D01*
X390912Y257298D01*
Y252962D01*
X390125Y252708D01*
X387934Y254899D01*
Y255012D01*
X370091D01*
X369951Y255199D01*
X369743Y255800D01*
X369876Y255999D01*
X369963Y256437D01*
Y256916D01*
X370592Y257573D01*
X373111D01*
X373541Y257658D01*
X373906Y257902D01*
X374150Y258267D01*
X374235Y258697D01*
Y260623D01*
X377476D01*
X377476Y260623D01*
X377937Y260714D01*
X378328Y260975D01*
X378464Y261111D01*
X378495Y261132D01*
X378528Y261150D01*
X378564Y261165D01*
X378603Y261178D01*
X378647Y261189D01*
X378697Y261198D01*
X378739Y261202D01*
X378839Y261182D01*
X379607Y261335D01*
X380258Y261770D01*
X380693Y262421D01*
X380846Y263189D01*
X380693Y263957D01*
X380258Y264608D01*
X379607Y265043D01*
X378839Y265196D01*
X378070Y265043D01*
X377419Y264608D01*
X376984Y263957D01*
X376832Y263189D01*
X376060Y263031D01*
X374235D01*
Y265941D01*
X374150Y266371D01*
X374014Y266574D01*
X373918Y266778D01*
X374135Y267530D01*
X374352Y267675D01*
X374409Y267760D01*
X374441Y267787D01*
X374482Y267816D01*
X374521Y267839D01*
X374558Y267858D01*
X374595Y267872D01*
X374631Y267883D01*
X374668Y267890D01*
X383064D01*
X383204Y267751D01*
D02*
G37*
G36*
X373416Y262539D02*
X373440Y262473D01*
X373480Y262413D01*
X373536Y262362D01*
X373608Y262319D01*
X373696Y262283D01*
X373800Y262256D01*
X373920Y262236D01*
X374056Y262225D01*
X374207Y262221D01*
Y261433D01*
X374056Y261429D01*
X373920Y261417D01*
X373800Y261398D01*
X373696Y261370D01*
X373608Y261335D01*
X373536Y261291D01*
X373480Y261240D01*
X373440Y261181D01*
X373416Y261114D01*
X373408Y261039D01*
Y262614D01*
X373416Y262539D01*
D02*
G37*
G36*
X364834Y261323D02*
X364819Y261299D01*
X364806Y261260D01*
X364795Y261205D01*
X364785Y261134D01*
X364772Y260945D01*
X364764Y260543D01*
X363976D01*
X363976Y260693D01*
X363945Y261205D01*
X363934Y261260D01*
X363921Y261299D01*
X363906Y261323D01*
X363890Y261331D01*
X364850D01*
X364834Y261323D01*
D02*
G37*
G36*
X363484Y258853D02*
X363361Y258724D01*
X363158Y258478D01*
X363079Y258360D01*
X363015Y258247D01*
X362965Y258138D01*
X362931Y258032D01*
X362911Y257930D01*
X362906Y257833D01*
X362915Y257739D01*
X362598Y259443D01*
X362661Y259437D01*
X362727Y259441D01*
X362798Y259457D01*
X362872Y259485D01*
X362950Y259523D01*
X363033Y259573D01*
X363119Y259633D01*
X363209Y259706D01*
X363401Y259883D01*
X363484Y258853D01*
D02*
G37*
G36*
X370295Y258758D02*
X370288Y258800D01*
X370270Y258838D01*
X370238Y258871D01*
X370194Y258900D01*
X370138Y258924D01*
X370069Y258944D01*
X369988Y258959D01*
X369894Y258970D01*
X369787Y258977D01*
X369668Y258979D01*
Y259767D01*
X369787Y259769D01*
X369988Y259786D01*
X370069Y259802D01*
X370138Y259822D01*
X370194Y259846D01*
X370238Y259875D01*
X370270Y259908D01*
X370288Y259945D01*
X370295Y259987D01*
Y258758D01*
D02*
G37*
G36*
X281291Y252899D02*
X281282Y252910D01*
X281264Y252920D01*
X281238Y252929D01*
X281203Y252937D01*
X281159Y252943D01*
X281046Y252953D01*
X280812Y252958D01*
Y253746D01*
X280899Y253746D01*
X281203Y253767D01*
X281238Y253775D01*
X281264Y253783D01*
X281282Y253794D01*
X281291Y253805D01*
Y252899D01*
D02*
G37*
G36*
X277713Y252515D02*
X277639Y252426D01*
X277574Y252335D01*
X277518Y252241D01*
X277470Y252145D01*
X277432Y252045D01*
X277401Y251943D01*
X277379Y251839D01*
X277366Y251732D01*
X277362Y251623D01*
X276575D01*
X276571Y251732D01*
X276557Y251839D01*
X276536Y251943D01*
X276505Y252045D01*
X276466Y252145D01*
X276419Y252241D01*
X276363Y252335D01*
X276298Y252426D01*
X276224Y252515D01*
X276142Y252601D01*
X277795D01*
X277713Y252515D01*
D02*
G37*
G36*
X274907Y251650D02*
X274023Y250766D01*
X274017Y250781D01*
X274003Y250803D01*
X273981Y250832D01*
X273913Y250913D01*
X273677Y251160D01*
X273598Y251239D01*
X274433Y252075D01*
X274907Y251650D01*
D02*
G37*
G36*
X272639Y250409D02*
X272664Y250003D01*
X272675Y249935D01*
X272689Y249879D01*
X272705Y249837D01*
X272723Y249808D01*
X272743Y249791D01*
X271183Y249240D01*
X271063Y249434D01*
X272638Y250543D01*
X272639Y250409D01*
D02*
G37*
G36*
X48093Y248281D02*
X47995Y248353D01*
X47896Y248418D01*
X47795Y248475D01*
X47694Y248524D01*
X47592Y248566D01*
X47489Y248601D01*
X47384Y248627D01*
X47279Y248646D01*
X47173Y248658D01*
X47066Y248661D01*
X46953Y249449D01*
X47064Y249453D01*
X47172Y249468D01*
X47274Y249491D01*
X47373Y249524D01*
X47467Y249566D01*
X47557Y249618D01*
X47642Y249679D01*
X47723Y249750D01*
X47800Y249830D01*
X47873Y249920D01*
X48093Y248281D01*
D02*
G37*
G36*
X272743Y247650D02*
X272723Y247633D01*
X272705Y247604D01*
X272689Y247562D01*
X272675Y247506D01*
X272664Y247437D01*
X272647Y247261D01*
X272639Y247032D01*
X272638Y246898D01*
X271063Y246898D01*
X271183Y248201D01*
X272743Y247650D01*
D02*
G37*
G36*
X16533Y244413D02*
X16557Y244346D01*
X16597Y244287D01*
X16653Y244236D01*
X16725Y244193D01*
X16813Y244158D01*
X16917Y244130D01*
X17037Y244110D01*
X17173Y244098D01*
X17324Y244094D01*
Y243307D01*
X17173Y243303D01*
X17037Y243291D01*
X16917Y243272D01*
X16813Y243244D01*
X16725Y243209D01*
X16653Y243165D01*
X16597Y243114D01*
X16557Y243055D01*
X16533Y242988D01*
X16525Y242913D01*
Y244488D01*
X16533Y244413D01*
D02*
G37*
G36*
X15681D02*
X15705Y244346D01*
X15745Y244287D01*
X15801Y244236D01*
X15873Y244193D01*
X15961Y244158D01*
X16064Y244130D01*
X16184Y244110D01*
X16320Y244098D01*
X16472Y244094D01*
Y243307D01*
X16320Y243303D01*
X16184Y243291D01*
X16064Y243272D01*
X15961Y243244D01*
X15873Y243209D01*
X15801Y243165D01*
X15745Y243114D01*
X15705Y243055D01*
X15681Y242988D01*
X15673Y242913D01*
Y244488D01*
X15681Y244413D01*
D02*
G37*
G36*
X60188Y239628D02*
X60182Y239541D01*
X60194Y239447D01*
X60225Y239346D01*
X60273Y239238D01*
X60340Y239123D01*
X60425Y239000D01*
X60528Y238869D01*
X60649Y238732D01*
X60789Y238587D01*
X60311Y237951D01*
X59694Y238520D01*
X60211Y239707D01*
X60188Y239628D01*
D02*
G37*
G36*
X55567Y239527D02*
X55559Y239442D01*
X55570Y239350D01*
X55599Y239250D01*
X55647Y239142D01*
X55713Y239027D01*
X55798Y238904D01*
X55901Y238774D01*
X56022Y238636D01*
X56163Y238490D01*
X55770Y237769D01*
X55068Y238520D01*
X55594Y239604D01*
X55567Y239527D01*
D02*
G37*
G36*
X69795Y231391D02*
X69745Y231486D01*
X69688Y231571D01*
X69624Y231646D01*
X69553Y231710D01*
X69475Y231765D01*
X69389Y231810D01*
X69297Y231845D01*
X69197Y231870D01*
X69090Y231885D01*
X68976Y231890D01*
X69277Y232677D01*
X69380Y232680D01*
X69588Y232702D01*
X69694Y232721D01*
X69908Y232775D01*
X70016Y232811D01*
X70235Y232898D01*
X70346Y232950D01*
X69795Y231391D01*
D02*
G37*
G36*
X72756Y202793D02*
X72774Y202593D01*
X72789Y202512D01*
X72809Y202443D01*
X72833Y202387D01*
X72861Y202343D01*
X72894Y202312D01*
X72931Y202293D01*
X72973Y202287D01*
X71748D01*
X71789Y202293D01*
X71827Y202312D01*
X71860Y202343D01*
X71863Y202349D01*
X71813Y202352D01*
X71842Y202356D01*
X71868Y202371D01*
X71891Y202398D01*
X71900Y202416D01*
X71912Y202443D01*
X71932Y202512D01*
X71947Y202593D01*
X71958Y202687D01*
X71962Y202749D01*
X71967Y202912D01*
X72754D01*
X72756Y202793D01*
D02*
G37*
G36*
X48728Y203637D02*
X48744Y203455D01*
X49508D01*
X49358Y203439D01*
X49224Y203392D01*
X49106Y203312D01*
X49004Y203201D01*
X48917Y203058D01*
X48854Y202904D01*
X48917Y202749D01*
X49004Y202606D01*
X49106Y202495D01*
X49224Y202415D01*
X49358Y202368D01*
X49508Y202352D01*
X48744D01*
X48728Y202170D01*
X48720Y201868D01*
X47146D01*
X47138Y202170D01*
X47122Y202352D01*
X46358D01*
X46508Y202368D01*
X46642Y202415D01*
X46760Y202495D01*
X46862Y202606D01*
X46949Y202749D01*
X47012Y202904D01*
X46949Y203058D01*
X46862Y203201D01*
X46760Y203312D01*
X46642Y203392D01*
X46508Y203439D01*
X46358Y203455D01*
X47122D01*
X47138Y203637D01*
X47146Y203939D01*
X48720D01*
X48728Y203637D01*
D02*
G37*
G36*
X44203Y196964D02*
X44289Y196957D01*
X44591Y196949D01*
Y195374D01*
X44289Y195366D01*
X44203Y195359D01*
Y194587D01*
X44187Y194736D01*
X44140Y194870D01*
X44061Y194988D01*
X43949Y195091D01*
X43807Y195177D01*
X43632Y195248D01*
X43604Y195256D01*
X43575Y195248D01*
X43401Y195177D01*
X43258Y195091D01*
X43147Y194988D01*
X43067Y194870D01*
X43020Y194736D01*
X43004Y194587D01*
Y195359D01*
X42918Y195366D01*
X42617Y195374D01*
Y196949D01*
X42918Y196957D01*
X43004Y196964D01*
Y197736D01*
X43020Y197587D01*
X43067Y197453D01*
X43147Y197335D01*
X43258Y197232D01*
X43401Y197146D01*
X43575Y197075D01*
X43604Y197067D01*
X43632Y197075D01*
X43807Y197146D01*
X43949Y197232D01*
X44061Y197335D01*
X44140Y197453D01*
X44187Y197587D01*
X44203Y197736D01*
Y196964D01*
D02*
G37*
G36*
X281614Y251498D02*
X282382Y251345D01*
X282700Y251408D01*
X283088Y250682D01*
X281136Y248730D01*
X281102Y192503D01*
X280497Y192091D01*
X279748Y192343D01*
Y250584D01*
X281043Y251879D01*
X281614Y251498D01*
D02*
G37*
G36*
X272639Y157397D02*
X272664Y156992D01*
X272675Y156923D01*
X272689Y156868D01*
X272705Y156825D01*
X272723Y156796D01*
X272743Y156780D01*
X271693Y155709D01*
X271183Y156228D01*
X271063Y156427D01*
X272638Y157531D01*
X272639Y157397D01*
D02*
G37*
G36*
X272743Y154638D02*
X272723Y154622D01*
X272705Y154592D01*
X272689Y154550D01*
X272675Y154494D01*
X272664Y154426D01*
X272639Y154021D01*
X272638Y153886D01*
X271063Y154990D01*
X271183Y155189D01*
X271693Y155709D01*
X272743Y154638D01*
D02*
G37*
G36*
X74441Y149475D02*
X74248Y149276D01*
X73815Y148762D01*
X73720Y148617D01*
X73649Y148486D01*
X73601Y148368D01*
X73579Y148264D01*
X73580Y148173D01*
X73606Y148095D01*
X72839Y149531D01*
X72884Y149472D01*
X72943Y149439D01*
X73016Y149430D01*
X73103Y149446D01*
X73205Y149488D01*
X73320Y149554D01*
X73449Y149645D01*
X73593Y149761D01*
X73922Y150069D01*
X74441Y149475D01*
D02*
G37*
G36*
X281102Y169153D02*
Y149448D01*
X280858Y149360D01*
X280315Y149317D01*
X279962Y149844D01*
X279748Y149988D01*
Y169549D01*
X280535Y169721D01*
X281102Y169153D01*
D02*
G37*
G36*
X48728Y150881D02*
X48744Y150699D01*
X49508D01*
X49358Y150683D01*
X49224Y150636D01*
X49106Y150556D01*
X49004Y150445D01*
X48917Y150303D01*
X48854Y150148D01*
X48917Y149993D01*
X49004Y149850D01*
X49106Y149739D01*
X49224Y149659D01*
X49358Y149612D01*
X49508Y149596D01*
X48744D01*
X48728Y149414D01*
X48720Y149112D01*
X47146D01*
X47138Y149414D01*
X47122Y149596D01*
X46358D01*
X46508Y149612D01*
X46642Y149659D01*
X46760Y149739D01*
X46862Y149850D01*
X46949Y149993D01*
X47012Y150148D01*
X46949Y150303D01*
X46862Y150445D01*
X46760Y150556D01*
X46642Y150636D01*
X46508Y150683D01*
X46358Y150699D01*
X47122D01*
X47138Y150881D01*
X47146Y151183D01*
X48720D01*
X48728Y150881D01*
D02*
G37*
G36*
X44203Y144208D02*
X44289Y144201D01*
X44591Y144193D01*
Y142618D01*
X44289Y142610D01*
X44203Y142603D01*
Y141831D01*
X44187Y141980D01*
X44140Y142114D01*
X44061Y142232D01*
X43949Y142335D01*
X43807Y142421D01*
X43632Y142492D01*
X43604Y142500D01*
X43575Y142492D01*
X43401Y142421D01*
X43258Y142335D01*
X43147Y142232D01*
X43067Y142114D01*
X43020Y141980D01*
X43004Y141831D01*
Y142603D01*
X42918Y142610D01*
X42617Y142618D01*
Y144193D01*
X42918Y144201D01*
X43004Y144208D01*
Y144980D01*
X43020Y144831D01*
X43067Y144697D01*
X43147Y144579D01*
X43258Y144476D01*
X43401Y144390D01*
X43575Y144319D01*
X43604Y144311D01*
X43632Y144319D01*
X43807Y144390D01*
X43949Y144476D01*
X44061Y144579D01*
X44140Y144697D01*
X44187Y144831D01*
X44203Y144980D01*
Y144208D01*
D02*
G37*
G36*
X277362Y144546D02*
X277366Y144440D01*
X277377Y144334D01*
X277395Y144228D01*
X277421Y144124D01*
X277454Y144020D01*
X277494Y143916D01*
X277541Y143813D01*
X277596Y143711D01*
X277658Y143610D01*
X277728Y143509D01*
X276097Y143784D01*
X276188Y143853D01*
X276269Y143927D01*
X276341Y144005D01*
X276403Y144089D01*
X276455Y144177D01*
X276498Y144269D01*
X276532Y144367D01*
X276556Y144469D01*
X276570Y144576D01*
X276575Y144688D01*
X277362Y144546D01*
D02*
G37*
G36*
X276000Y140453D02*
X274804Y139312D01*
X274799Y139329D01*
X274785Y139355D01*
X274760Y139389D01*
X274725Y139433D01*
X274561Y139615D01*
X274307Y139875D01*
X275456Y140954D01*
X276000Y140453D01*
D02*
G37*
G36*
X264161Y140016D02*
X263652Y139370D01*
X210827D01*
Y138763D01*
X210039Y138484D01*
X208663Y139860D01*
X208964Y140588D01*
X263925D01*
X264161Y140016D01*
D02*
G37*
G36*
X273796Y118530D02*
X273712Y118581D01*
X273601Y118627D01*
X273464Y118667D01*
X273299Y118702D01*
X273108Y118732D01*
X272646Y118775D01*
X272077Y118797D01*
X271752Y118799D01*
Y120768D01*
X272077Y120770D01*
X273108Y120835D01*
X273299Y120865D01*
X273464Y120900D01*
X273601Y120940D01*
X273712Y120986D01*
X273796Y121037D01*
Y118530D01*
D02*
G37*
G36*
X30331Y105604D02*
X30378Y105067D01*
X30457Y104592D01*
X30567Y104181D01*
X30709Y103834D01*
X30882Y103549D01*
X31087Y103328D01*
X31323Y103170D01*
X31590Y103075D01*
X31890Y103043D01*
X25590D01*
X25890Y103075D01*
X26157Y103170D01*
X26393Y103328D01*
X26598Y103549D01*
X26772Y103834D01*
X26913Y104181D01*
X27024Y104592D01*
X27102Y105067D01*
X27149Y105604D01*
X27165Y106205D01*
X30315D01*
X30331Y105604D01*
D02*
G37*
G36*
X280598Y102325D02*
X280522Y102376D01*
X280435Y102421D01*
X280336Y102461D01*
X280225Y102495D01*
X280102Y102524D01*
X279968Y102548D01*
X279662Y102580D01*
X279492Y102588D01*
X279309Y102591D01*
X279259Y103575D01*
X279443Y103578D01*
X279748Y103601D01*
X279868Y103621D01*
X279968Y103647D01*
X280046Y103678D01*
X280103Y103716D01*
X280139Y103759D01*
X280154Y103807D01*
X280148Y103862D01*
X280598Y102325D01*
D02*
G37*
G36*
X229587Y99930D02*
X229501Y99907D01*
X229415Y99878D01*
X229329Y99842D01*
X229243Y99800D01*
X229157Y99751D01*
X229071Y99695D01*
X228985Y99632D01*
X228813Y99488D01*
X228727Y99405D01*
X227851Y99921D01*
X227933Y100009D01*
X228005Y100097D01*
X228065Y100185D01*
X228115Y100273D01*
X228154Y100361D01*
X228182Y100450D01*
X228198Y100538D01*
X228204Y100627D01*
X228199Y100715D01*
X228183Y100804D01*
X229587Y99930D01*
D02*
G37*
G36*
X280858Y147491D02*
X281102Y147403D01*
Y134902D01*
X280217D01*
X279921Y134606D01*
Y123386D01*
X280906D01*
X281102Y123189D01*
Y106988D01*
X279626Y105512D01*
Y104553D01*
X279516Y104388D01*
X279503Y104387D01*
X279259D01*
X278760Y104288D01*
X278337Y104005D01*
X277818Y103486D01*
X277535Y103063D01*
X277436Y102564D01*
Y101426D01*
X275849Y99840D01*
X275566Y99417D01*
X275520Y99182D01*
X274732Y99260D01*
Y117361D01*
X274750Y117375D01*
X275191D01*
X276113Y117558D01*
X276894Y118080D01*
X278278Y119464D01*
X278800Y120246D01*
X278983Y121167D01*
Y138681D01*
X278800Y139603D01*
X278278Y140384D01*
X278204Y140458D01*
X278191Y141396D01*
X278626Y142047D01*
X278779Y142815D01*
X278626Y143583D01*
X278420Y143891D01*
X278389Y143964D01*
X278332Y144047D01*
X278293Y144111D01*
X278260Y144172D01*
X278233Y144230D01*
X278211Y144286D01*
X278194Y144340D01*
X278182Y144393D01*
X278173Y144443D01*
Y146114D01*
X278543Y146418D01*
X279311Y146571D01*
X279962Y147006D01*
X280315Y147533D01*
X280858Y147491D01*
D02*
G37*
G36*
X277269Y98426D02*
X277284Y98257D01*
X277308Y98107D01*
X277343Y97978D01*
X277387Y97868D01*
X277441Y97778D01*
X277505Y97709D01*
X277579Y97659D01*
X277662Y97629D01*
X277756Y97619D01*
X275787D01*
X275881Y97629D01*
X275965Y97659D01*
X276038Y97709D01*
X276102Y97778D01*
X276156Y97868D01*
X276201Y97978D01*
X276235Y98107D01*
X276260Y98257D01*
X276275Y98426D01*
X276279Y98615D01*
X277264D01*
X277269Y98426D01*
D02*
G37*
G36*
X48728Y99306D02*
X48744Y99124D01*
X49508D01*
X49358Y99108D01*
X49224Y99061D01*
X49106Y98982D01*
X49004Y98870D01*
X48917Y98728D01*
X48854Y98573D01*
X48917Y98418D01*
X49004Y98275D01*
X49106Y98164D01*
X49224Y98085D01*
X49358Y98037D01*
X49508Y98021D01*
X48744D01*
X48728Y97839D01*
X48720Y97538D01*
X47146D01*
X47138Y97839D01*
X47122Y98021D01*
X46358D01*
X46508Y98037D01*
X46642Y98085D01*
X46760Y98164D01*
X46862Y98275D01*
X46949Y98418D01*
X47012Y98573D01*
X46949Y98728D01*
X46862Y98870D01*
X46760Y98982D01*
X46642Y99061D01*
X46508Y99108D01*
X46358Y99124D01*
X47122D01*
X47138Y99306D01*
X47146Y99608D01*
X48720D01*
X48728Y99306D01*
D02*
G37*
G36*
X66422Y98412D02*
X66649Y98220D01*
X66700Y98178D01*
X66820Y98096D01*
X66934Y98030D01*
X67043Y97982D01*
X67090Y97967D01*
X67140Y97956D01*
X67221Y97956D01*
X67292Y97978D01*
X67352Y98021D01*
X67267Y97936D01*
X67332Y97938D01*
X67417Y97956D01*
X67222Y97891D01*
X66250Y96920D01*
X66294Y96979D01*
X66316Y97050D01*
X66316Y97132D01*
X66294Y97224D01*
X66251Y97328D01*
X66186Y97442D01*
X66127Y97527D01*
X65764Y97406D01*
X65833Y97440D01*
X65877Y97489D01*
X65895Y97553D01*
X65888Y97631D01*
X65856Y97723D01*
X65798Y97830D01*
X65715Y97951D01*
X65606Y98087D01*
X65472Y98237D01*
X65313Y98402D01*
X66213Y98514D01*
X66264Y98564D01*
X66422Y98412D01*
D02*
G37*
G36*
X31590Y99093D02*
X31323Y98998D01*
X31087Y98840D01*
X30882Y98619D01*
X30709Y98334D01*
X30567Y97986D01*
X30457Y97575D01*
X30378Y97101D01*
X30331Y96564D01*
X30315Y95963D01*
X27165D01*
X27149Y96564D01*
X27102Y97101D01*
X27024Y97575D01*
X26913Y97986D01*
X26772Y98334D01*
X26598Y98619D01*
X26393Y98840D01*
X26157Y98998D01*
X25890Y99093D01*
X25590Y99124D01*
X31890D01*
X31590Y99093D01*
D02*
G37*
G36*
X84736Y96778D02*
X84662Y96697D01*
X84595Y96613D01*
X84537Y96523D01*
X84486Y96430D01*
X84444Y96332D01*
X84409Y96230D01*
X84382Y96124D01*
X84364Y96013D01*
X84353Y95899D01*
X84350Y95780D01*
X83181Y96949D01*
X83300Y96952D01*
X83415Y96962D01*
X83526Y96981D01*
X83632Y97008D01*
X83734Y97042D01*
X83832Y97085D01*
X83925Y97135D01*
X84014Y97194D01*
X84099Y97260D01*
X84179Y97335D01*
X84736Y96778D01*
D02*
G37*
G36*
X86221Y95483D02*
X86225Y95375D01*
X86237Y95268D01*
X86257Y95163D01*
X86285Y95060D01*
X86321Y94958D01*
X86365Y94858D01*
X86418Y94759D01*
X86478Y94662D01*
X86546Y94566D01*
X86623Y94472D01*
X84975Y94610D01*
X85062Y94688D01*
X85140Y94770D01*
X85208Y94855D01*
X85268Y94943D01*
X85318Y95036D01*
X85360Y95132D01*
X85392Y95232D01*
X85415Y95335D01*
X85429Y95442D01*
X85433Y95553D01*
X86221Y95483D01*
D02*
G37*
G36*
X228969Y95538D02*
X228980Y95424D01*
X228998Y95313D01*
X229025Y95207D01*
X229060Y95105D01*
X229102Y95007D01*
X229153Y94914D01*
X229211Y94824D01*
X229278Y94740D01*
X229352Y94659D01*
X228795Y94102D01*
X228715Y94177D01*
X228630Y94243D01*
X228541Y94302D01*
X228448Y94352D01*
X228350Y94395D01*
X228248Y94429D01*
X228142Y94456D01*
X228031Y94475D01*
X227916Y94485D01*
X227797Y94488D01*
X228966Y95657D01*
X228969Y95538D01*
D02*
G37*
G36*
X70385Y93847D02*
X70318Y93823D01*
X70259Y93783D01*
X70208Y93727D01*
X70165Y93655D01*
X70129Y93567D01*
X70102Y93463D01*
X70082Y93343D01*
X70070Y93207D01*
X70066Y93055D01*
X69279D01*
X69275Y93207D01*
X69263Y93343D01*
X69243Y93463D01*
X69216Y93567D01*
X69180Y93655D01*
X69137Y93727D01*
X69086Y93783D01*
X69027Y93823D01*
X68960Y93847D01*
X68885Y93855D01*
X70460D01*
X70385Y93847D01*
D02*
G37*
G36*
X44203Y92633D02*
X44289Y92626D01*
X44591Y92618D01*
Y91043D01*
X44289Y91035D01*
X44203Y91028D01*
Y90256D01*
X44187Y90405D01*
X44140Y90539D01*
X44061Y90658D01*
X43949Y90760D01*
X43807Y90847D01*
X43632Y90917D01*
X43604Y90925D01*
X43575Y90917D01*
X43401Y90847D01*
X43258Y90760D01*
X43147Y90658D01*
X43067Y90539D01*
X43020Y90405D01*
X43004Y90256D01*
Y91028D01*
X42918Y91035D01*
X42617Y91043D01*
Y92618D01*
X42918Y92626D01*
X43004Y92633D01*
Y93405D01*
X43020Y93256D01*
X43067Y93122D01*
X43147Y93004D01*
X43258Y92902D01*
X43401Y92815D01*
X43575Y92744D01*
X43604Y92737D01*
X43632Y92744D01*
X43807Y92815D01*
X43949Y92902D01*
X44061Y93004D01*
X44140Y93122D01*
X44187Y93256D01*
X44203Y93405D01*
Y92633D01*
D02*
G37*
G36*
X221452Y91688D02*
X221379Y91600D01*
X221314Y91508D01*
X221257Y91414D01*
X221210Y91318D01*
X221171Y91219D01*
X221141Y91117D01*
X221119Y91012D01*
X221106Y90905D01*
X221102Y90796D01*
X220314D01*
X220310Y90905D01*
X220297Y91012D01*
X220275Y91117D01*
X220245Y91219D01*
X220206Y91318D01*
X220158Y91414D01*
X220102Y91508D01*
X220037Y91600D01*
X219963Y91688D01*
X219881Y91775D01*
X221535D01*
X221452Y91688D01*
D02*
G37*
G36*
X202873Y91066D02*
X202807Y91034D01*
X202749Y90985D01*
X202698Y90919D01*
X202656Y90835D01*
X202621Y90735D01*
X202594Y90617D01*
X202575Y90482D01*
X202563Y90329D01*
X202559Y90160D01*
X201772D01*
X201768Y90317D01*
X201756Y90457D01*
X201736Y90580D01*
X201709Y90686D01*
X201673Y90775D01*
X201630Y90846D01*
X201579Y90900D01*
X201520Y90937D01*
X201453Y90957D01*
X201378Y90960D01*
X202946Y91080D01*
X202873Y91066D01*
D02*
G37*
G36*
X199433Y90952D02*
X199366Y90927D01*
X199307Y90887D01*
X199256Y90832D01*
X199213Y90760D01*
X199177Y90672D01*
X199150Y90568D01*
X199130Y90448D01*
X199118Y90312D01*
X199114Y90160D01*
X198327D01*
X198323Y90312D01*
X198311Y90448D01*
X198291Y90568D01*
X198264Y90672D01*
X198228Y90760D01*
X198185Y90832D01*
X198134Y90887D01*
X198075Y90927D01*
X198008Y90952D01*
X197933Y90960D01*
X199508D01*
X199433Y90952D01*
D02*
G37*
G36*
X196283D02*
X196217Y90927D01*
X196158Y90887D01*
X196106Y90832D01*
X196063Y90760D01*
X196028Y90672D01*
X196000Y90568D01*
X195980Y90448D01*
X195969Y90312D01*
X195965Y90160D01*
X195177D01*
X195173Y90312D01*
X195161Y90448D01*
X195142Y90568D01*
X195114Y90672D01*
X195079Y90760D01*
X195036Y90832D01*
X194984Y90887D01*
X194925Y90927D01*
X194858Y90952D01*
X194783Y90960D01*
X196358D01*
X196283Y90952D01*
D02*
G37*
G36*
X192839D02*
X192772Y90927D01*
X192713Y90887D01*
X192661Y90832D01*
X192618Y90760D01*
X192583Y90672D01*
X192555Y90568D01*
X192535Y90448D01*
X192524Y90312D01*
X192520Y90160D01*
X191732D01*
X191728Y90312D01*
X191717Y90448D01*
X191697Y90568D01*
X191669Y90672D01*
X191634Y90760D01*
X191591Y90832D01*
X191539Y90887D01*
X191480Y90927D01*
X191413Y90952D01*
X191339Y90960D01*
X192913D01*
X192839Y90952D01*
D02*
G37*
G36*
X181205D02*
X181138Y90927D01*
X181079Y90887D01*
X181027Y90832D01*
X180984Y90760D01*
X180949Y90672D01*
X180921Y90568D01*
X180902Y90448D01*
X180890Y90312D01*
X180886Y90160D01*
X180098D01*
X180095Y90312D01*
X180083Y90448D01*
X180063Y90568D01*
X180035Y90672D01*
X180000Y90760D01*
X179957Y90832D01*
X179905Y90887D01*
X179847Y90927D01*
X179780Y90952D01*
X179705Y90960D01*
X181280D01*
X181205Y90952D01*
D02*
G37*
G36*
X178055D02*
X177988Y90927D01*
X177929Y90887D01*
X177878Y90832D01*
X177835Y90760D01*
X177799Y90672D01*
X177772Y90568D01*
X177752Y90448D01*
X177740Y90312D01*
X177736Y90160D01*
X176949D01*
X176945Y90312D01*
X176933Y90448D01*
X176913Y90568D01*
X176886Y90672D01*
X176850Y90760D01*
X176807Y90832D01*
X176756Y90887D01*
X176697Y90927D01*
X176630Y90952D01*
X176555Y90960D01*
X178130D01*
X178055Y90952D01*
D02*
G37*
G36*
X174610D02*
X174543Y90927D01*
X174484Y90887D01*
X174433Y90832D01*
X174390Y90760D01*
X174354Y90672D01*
X174327Y90568D01*
X174307Y90448D01*
X174295Y90312D01*
X174291Y90160D01*
X173504D01*
X173500Y90312D01*
X173488Y90448D01*
X173468Y90568D01*
X173441Y90672D01*
X173406Y90760D01*
X173362Y90832D01*
X173311Y90887D01*
X173252Y90927D01*
X173185Y90952D01*
X173110Y90960D01*
X174685D01*
X174610Y90952D01*
D02*
G37*
G36*
X169689D02*
X169622Y90927D01*
X169563Y90887D01*
X169512Y90832D01*
X169468Y90760D01*
X169433Y90672D01*
X169405Y90568D01*
X169386Y90448D01*
X169374Y90312D01*
X169370Y90160D01*
X168583D01*
X168579Y90312D01*
X168567Y90448D01*
X168547Y90568D01*
X168520Y90672D01*
X168484Y90760D01*
X168441Y90832D01*
X168390Y90887D01*
X168331Y90927D01*
X168264Y90952D01*
X168189Y90960D01*
X169764D01*
X169689Y90952D01*
D02*
G37*
G36*
X166244D02*
X166177Y90927D01*
X166118Y90887D01*
X166067Y90832D01*
X166024Y90760D01*
X165988Y90672D01*
X165961Y90568D01*
X165941Y90448D01*
X165929Y90312D01*
X165925Y90160D01*
X165138D01*
X165134Y90312D01*
X165122Y90448D01*
X165102Y90568D01*
X165075Y90672D01*
X165039Y90760D01*
X164996Y90832D01*
X164945Y90887D01*
X164886Y90927D01*
X164819Y90952D01*
X164744Y90960D01*
X166319D01*
X166244Y90952D01*
D02*
G37*
G36*
X163094D02*
X163028Y90927D01*
X162969Y90887D01*
X162917Y90832D01*
X162874Y90760D01*
X162839Y90672D01*
X162811Y90568D01*
X162791Y90448D01*
X162780Y90312D01*
X162776Y90160D01*
X161988D01*
X161984Y90312D01*
X161972Y90448D01*
X161953Y90568D01*
X161925Y90672D01*
X161890Y90760D01*
X161846Y90832D01*
X161795Y90887D01*
X161736Y90927D01*
X161669Y90952D01*
X161594Y90960D01*
X163169D01*
X163094Y90952D01*
D02*
G37*
G36*
X159650D02*
X159583Y90927D01*
X159524Y90887D01*
X159473Y90832D01*
X159429Y90760D01*
X159394Y90672D01*
X159366Y90568D01*
X159346Y90448D01*
X159335Y90312D01*
X159331Y90160D01*
X158543D01*
X158539Y90312D01*
X158528Y90448D01*
X158508Y90568D01*
X158480Y90672D01*
X158445Y90760D01*
X158402Y90832D01*
X158350Y90887D01*
X158291Y90927D01*
X158224Y90952D01*
X158150Y90960D01*
X159724D01*
X159650Y90952D01*
D02*
G37*
G36*
X142819D02*
X142752Y90927D01*
X142693Y90887D01*
X142642Y90832D01*
X142598Y90760D01*
X142563Y90672D01*
X142535Y90568D01*
X142516Y90448D01*
X142504Y90312D01*
X142500Y90160D01*
X141713D01*
X141709Y90312D01*
X141697Y90448D01*
X141677Y90568D01*
X141650Y90672D01*
X141614Y90760D01*
X141571Y90832D01*
X141520Y90887D01*
X141461Y90927D01*
X141394Y90952D01*
X141319Y90960D01*
X142894D01*
X142819Y90952D01*
D02*
G37*
G36*
X137799D02*
X137732Y90927D01*
X137673Y90887D01*
X137622Y90832D01*
X137579Y90760D01*
X137543Y90672D01*
X137516Y90568D01*
X137496Y90448D01*
X137484Y90312D01*
X137480Y90160D01*
X136693D01*
X136689Y90312D01*
X136677Y90448D01*
X136658Y90568D01*
X136630Y90672D01*
X136594Y90760D01*
X136551Y90832D01*
X136500Y90887D01*
X136441Y90927D01*
X136374Y90952D01*
X136299Y90960D01*
X137874D01*
X137799Y90952D01*
D02*
G37*
G36*
X134354D02*
X134287Y90927D01*
X134228Y90887D01*
X134177Y90832D01*
X134134Y90760D01*
X134098Y90672D01*
X134071Y90568D01*
X134051Y90448D01*
X134039Y90312D01*
X134035Y90160D01*
X133248D01*
X133244Y90312D01*
X133232Y90448D01*
X133213Y90568D01*
X133185Y90672D01*
X133150Y90760D01*
X133106Y90832D01*
X133055Y90887D01*
X132996Y90927D01*
X132929Y90952D01*
X132854Y90960D01*
X134429D01*
X134354Y90952D01*
D02*
G37*
G36*
X131205D02*
X131138Y90927D01*
X131079Y90887D01*
X131028Y90832D01*
X130984Y90760D01*
X130949Y90672D01*
X130921Y90568D01*
X130902Y90448D01*
X130890Y90312D01*
X130886Y90160D01*
X130098D01*
X130095Y90312D01*
X130083Y90448D01*
X130063Y90568D01*
X130035Y90672D01*
X130000Y90760D01*
X129957Y90832D01*
X129905Y90887D01*
X129847Y90927D01*
X129780Y90952D01*
X129705Y90960D01*
X131280D01*
X131205Y90952D01*
D02*
G37*
G36*
X127760D02*
X127693Y90927D01*
X127634Y90887D01*
X127583Y90832D01*
X127539Y90760D01*
X127504Y90672D01*
X127476Y90568D01*
X127457Y90448D01*
X127445Y90312D01*
X127441Y90160D01*
X126654D01*
X126650Y90312D01*
X126638Y90448D01*
X126618Y90568D01*
X126591Y90672D01*
X126555Y90760D01*
X126512Y90832D01*
X126461Y90887D01*
X126402Y90927D01*
X126335Y90952D01*
X126260Y90960D01*
X127835D01*
X127760Y90952D01*
D02*
G37*
G36*
X119886D02*
X119819Y90927D01*
X119760Y90887D01*
X119709Y90832D01*
X119666Y90760D01*
X119630Y90672D01*
X119603Y90568D01*
X119583Y90448D01*
X119571Y90312D01*
X119567Y90160D01*
X118780D01*
X118776Y90312D01*
X118764Y90448D01*
X118744Y90568D01*
X118717Y90672D01*
X118681Y90760D01*
X118638Y90832D01*
X118587Y90887D01*
X118528Y90927D01*
X118461Y90952D01*
X118386Y90960D01*
X119961D01*
X119886Y90952D01*
D02*
G37*
G36*
X116736D02*
X116669Y90927D01*
X116610Y90887D01*
X116559Y90832D01*
X116516Y90760D01*
X116480Y90672D01*
X116453Y90568D01*
X116433Y90448D01*
X116421Y90312D01*
X116417Y90160D01*
X115630D01*
X115626Y90312D01*
X115614Y90448D01*
X115595Y90568D01*
X115567Y90672D01*
X115532Y90760D01*
X115488Y90832D01*
X115437Y90887D01*
X115378Y90927D01*
X115311Y90952D01*
X115236Y90960D01*
X116811D01*
X116736Y90952D01*
D02*
G37*
G36*
X276873Y89455D02*
X276883Y89340D01*
X276898Y89232D01*
X276920Y89130D01*
X276948Y89035D01*
X276982Y88946D01*
X277023Y88865D01*
X277069Y88790D01*
X277122Y88722D01*
X277182Y88661D01*
X275574D01*
X275633Y88722D01*
X275686Y88790D01*
X275733Y88865D01*
X275774Y88946D01*
X275808Y89035D01*
X275836Y89130D01*
X275858Y89232D01*
X275873Y89340D01*
X275883Y89455D01*
X275886Y89578D01*
X276870D01*
X276873Y89455D01*
D02*
G37*
G36*
X277115Y88593D02*
X277063Y88569D01*
X277018Y88529D01*
X276979Y88472D01*
X276946Y88400D01*
X276918Y88311D01*
X276897Y88206D01*
X276882Y88086D01*
X276873Y87949D01*
X276870Y87795D01*
X275886D01*
X275883Y87949D01*
X275859Y88206D01*
X275837Y88311D01*
X275810Y88400D01*
X275777Y88472D01*
X275738Y88529D01*
X275693Y88569D01*
X275641Y88593D01*
X275584Y88601D01*
X277172D01*
X277115Y88593D01*
D02*
G37*
G36*
X184335Y84983D02*
X184346Y84848D01*
X184366Y84728D01*
X184394Y84624D01*
X184429Y84536D01*
X184472Y84464D01*
X184524Y84408D01*
X184583Y84368D01*
X184650Y84344D01*
X184724Y84336D01*
X183150D01*
X183224Y84344D01*
X183291Y84368D01*
X183350Y84408D01*
X183402Y84464D01*
X183445Y84536D01*
X183480Y84624D01*
X183508Y84728D01*
X183528Y84848D01*
X183539Y84983D01*
X183543Y85135D01*
X184331D01*
X184335Y84983D01*
D02*
G37*
G36*
X152543D02*
X152555Y84848D01*
X152575Y84728D01*
X152602Y84624D01*
X152638Y84536D01*
X152681Y84464D01*
X152732Y84408D01*
X152791Y84368D01*
X152858Y84344D01*
X152933Y84336D01*
X151358D01*
X151433Y84344D01*
X151500Y84368D01*
X151559Y84408D01*
X151610Y84464D01*
X151654Y84536D01*
X151689Y84624D01*
X151717Y84728D01*
X151736Y84848D01*
X151748Y84983D01*
X151752Y85135D01*
X152539D01*
X152543Y84983D01*
D02*
G37*
G36*
X149098D02*
X149110Y84848D01*
X149130Y84728D01*
X149158Y84624D01*
X149193Y84536D01*
X149236Y84464D01*
X149287Y84408D01*
X149346Y84368D01*
X149413Y84344D01*
X149488Y84336D01*
X147913D01*
X147988Y84344D01*
X148055Y84368D01*
X148114Y84408D01*
X148165Y84464D01*
X148209Y84536D01*
X148244Y84624D01*
X148272Y84728D01*
X148291Y84848D01*
X148303Y84983D01*
X148307Y85135D01*
X149094D01*
X149098Y84983D01*
D02*
G37*
G36*
X145949D02*
X145961Y84848D01*
X145980Y84728D01*
X146008Y84624D01*
X146043Y84536D01*
X146087Y84464D01*
X146138Y84408D01*
X146197Y84368D01*
X146264Y84344D01*
X146339Y84336D01*
X144764D01*
X144839Y84344D01*
X144905Y84368D01*
X144965Y84408D01*
X145016Y84464D01*
X145059Y84536D01*
X145095Y84624D01*
X145122Y84728D01*
X145142Y84848D01*
X145154Y84983D01*
X145158Y85135D01*
X145945D01*
X145949Y84983D01*
D02*
G37*
G36*
X123016D02*
X123028Y84848D01*
X123047Y84728D01*
X123075Y84624D01*
X123110Y84536D01*
X123154Y84464D01*
X123205Y84408D01*
X123264Y84368D01*
X123331Y84344D01*
X123406Y84336D01*
X121831D01*
X121906Y84344D01*
X121973Y84368D01*
X122032Y84408D01*
X122083Y84464D01*
X122126Y84536D01*
X122162Y84624D01*
X122189Y84728D01*
X122209Y84848D01*
X122221Y84983D01*
X122225Y85135D01*
X123012D01*
X123016Y84983D01*
D02*
G37*
G36*
X112976D02*
X112988Y84848D01*
X113008Y84728D01*
X113036Y84624D01*
X113071Y84536D01*
X113114Y84464D01*
X113165Y84408D01*
X113224Y84368D01*
X113291Y84344D01*
X113366Y84336D01*
X111791D01*
X111866Y84344D01*
X111933Y84368D01*
X111992Y84408D01*
X112043Y84464D01*
X112087Y84536D01*
X112122Y84624D01*
X112150Y84728D01*
X112169Y84848D01*
X112181Y84983D01*
X112185Y85135D01*
X112972D01*
X112976Y84983D01*
D02*
G37*
G36*
X279782Y99916D02*
X280414Y99670D01*
Y87625D01*
X280972Y87067D01*
X286910D01*
Y86476D01*
X287106Y86279D01*
X307395D01*
X307663Y85492D01*
X307582Y85430D01*
X306986Y84834D01*
X305851Y83769D01*
X305243Y83260D01*
X305022Y83096D01*
X304858Y82990D01*
X304782Y82951D01*
X304715Y82932D01*
X304699Y82924D01*
X304339Y82876D01*
X303429Y82499D01*
X302647Y81900D01*
X302334Y81879D01*
X299833Y84380D01*
X299052Y84902D01*
X298130Y85086D01*
X297062D01*
X296864Y85125D01*
X278419D01*
X278381Y85162D01*
X277890Y85491D01*
X277800Y86344D01*
X277821Y86412D01*
X278232Y87027D01*
X278385Y87795D01*
X278382Y87809D01*
X278623Y87857D01*
X278975Y88092D01*
X279210Y88443D01*
X279292Y88858D01*
Y91063D01*
X279210Y91478D01*
X278975Y91829D01*
X278623Y92064D01*
X278209Y92147D01*
X275138D01*
X274732Y92479D01*
Y93741D01*
X275138Y94074D01*
X278209D01*
X278623Y94156D01*
X278975Y94391D01*
X279210Y94743D01*
X279292Y95157D01*
Y97362D01*
X279210Y97777D01*
X278975Y98129D01*
X278955Y98142D01*
X278787Y99012D01*
X278812Y99112D01*
X279626Y99927D01*
X279782Y99916D01*
D02*
G37*
G36*
X273354Y86310D02*
X273405Y86042D01*
X273532Y85806D01*
X273735Y85601D01*
X274013Y85428D01*
X274367Y85286D01*
X274797Y85176D01*
X275302Y85097D01*
X275883Y85050D01*
X276539Y85034D01*
X275849Y81884D01*
X275248Y81882D01*
X272491Y81700D01*
X272403Y81657D01*
X273378Y86609D01*
X273354Y86310D01*
D02*
G37*
G36*
X24035Y84319D02*
X23701Y84200D01*
X23405Y84003D01*
X23150Y83727D01*
X22933Y83371D01*
X22756Y82937D01*
X22618Y82423D01*
X22520Y81831D01*
X22461Y81160D01*
X22441Y80409D01*
X18504D01*
X18484Y81160D01*
X18425Y81831D01*
X18327Y82423D01*
X18189Y82937D01*
X18012Y83371D01*
X17795Y83727D01*
X17539Y84003D01*
X17244Y84200D01*
X16909Y84319D01*
X16535Y84358D01*
X24409D01*
X24035Y84319D01*
D02*
G37*
G36*
X201085Y81267D02*
X201096Y81152D01*
X201115Y81041D01*
X201142Y80935D01*
X201176Y80833D01*
X201219Y80735D01*
X201269Y80642D01*
X201328Y80553D01*
X201394Y80468D01*
X201468Y80388D01*
X200912Y79831D01*
X200831Y79905D01*
X200746Y79972D01*
X200657Y80030D01*
X200564Y80081D01*
X200466Y80123D01*
X200364Y80158D01*
X200258Y80184D01*
X200147Y80203D01*
X200032Y80214D01*
X199913Y80217D01*
X201083Y81386D01*
X201085Y81267D01*
D02*
G37*
G36*
X204284Y80665D02*
X204178Y80453D01*
X204135Y80348D01*
X204099Y80242D01*
X204069Y80137D01*
X204046Y80032D01*
X204029Y79926D01*
X204019Y79821D01*
X204016Y79716D01*
X203228Y79514D01*
X203223Y79627D01*
X203209Y79734D01*
X203184Y79835D01*
X203150Y79930D01*
X203106Y80020D01*
X203052Y80105D01*
X202989Y80183D01*
X202915Y80256D01*
X202832Y80323D01*
X202739Y80384D01*
X204347Y80770D01*
X204284Y80665D01*
D02*
G37*
G36*
X182229Y80666D02*
X182318Y80592D01*
X182409Y80527D01*
X182503Y80471D01*
X182600Y80423D01*
X182699Y80384D01*
X182801Y80354D01*
X182905Y80332D01*
X183012Y80319D01*
X183121Y80315D01*
Y79527D01*
X183012Y79523D01*
X182905Y79510D01*
X182801Y79489D01*
X182699Y79458D01*
X182600Y79419D01*
X182503Y79372D01*
X182409Y79315D01*
X182318Y79250D01*
X182229Y79177D01*
X182143Y79094D01*
Y80748D01*
X182229Y80666D01*
D02*
G37*
G36*
X310939Y82073D02*
X310441Y81569D01*
X308519Y79397D01*
X308376Y79177D01*
X308284Y78997D01*
X308244Y78857D01*
X304940Y82161D01*
X305079Y82202D01*
X305259Y82293D01*
X305480Y82436D01*
X305741Y82629D01*
X306384Y83168D01*
X307652Y84358D01*
X308155Y84856D01*
X310939Y82073D01*
D02*
G37*
G36*
X159831Y79134D02*
X159815Y79129D01*
X159791Y79114D01*
X159758Y79089D01*
X159664Y79009D01*
X159371Y78730D01*
X159276Y78635D01*
X158162Y79748D01*
X158661Y80303D01*
X159831Y79134D01*
D02*
G37*
G36*
X144673Y78839D02*
X144580Y78835D01*
X144487Y78823D01*
X144395Y78802D01*
X144304Y78772D01*
X144214Y78734D01*
X144124Y78687D01*
X144035Y78631D01*
X143947Y78567D01*
X143860Y78493D01*
X143773Y78411D01*
X143077Y79107D01*
X143159Y79194D01*
X143232Y79282D01*
X143297Y79370D01*
X143352Y79459D01*
X143400Y79549D01*
X143438Y79639D01*
X143467Y79730D01*
X143488Y79822D01*
X143501Y79914D01*
X143504Y80008D01*
X144673Y78839D01*
D02*
G37*
G36*
X148622Y78658D02*
X148533Y78640D01*
X148445Y78614D01*
X148356Y78581D01*
X148268Y78541D01*
X148181Y78494D01*
X148093Y78440D01*
X148006Y78379D01*
X147920Y78311D01*
X147748Y78154D01*
X146913Y78711D01*
X146995Y78799D01*
X147067Y78887D01*
X147129Y78975D01*
X147179Y79064D01*
X147220Y79153D01*
X147250Y79242D01*
X147269Y79332D01*
X147278Y79422D01*
X147277Y79512D01*
X147265Y79602D01*
X148622Y78658D01*
D02*
G37*
G36*
X195247Y74428D02*
X195047Y73944D01*
X194932Y73071D01*
Y71102D01*
X195047Y70229D01*
X195384Y69415D01*
X195920Y68716D01*
X196619Y68179D01*
X197433Y67842D01*
X198307Y67727D01*
X199181Y67842D01*
X199995Y68179D01*
X200056Y68226D01*
X200843Y67838D01*
Y66336D01*
X200056Y65947D01*
X199995Y65994D01*
X199181Y66331D01*
X198307Y66446D01*
X197433Y66331D01*
X196619Y65994D01*
X195920Y65458D01*
X195384Y64758D01*
X195047Y63945D01*
X194932Y63071D01*
Y61102D01*
X194966Y60843D01*
X194934Y60783D01*
X194861Y60675D01*
X194642Y60409D01*
X192627Y58393D01*
X191439D01*
X191051Y59180D01*
X191230Y59415D01*
X191567Y60229D01*
X191682Y61102D01*
Y63071D01*
X191567Y63945D01*
X191230Y64758D01*
X190694Y65458D01*
X189995Y65994D01*
X189181Y66331D01*
X188307Y66446D01*
X187434Y66331D01*
X186619Y65994D01*
X185920Y65458D01*
X185384Y64758D01*
X185128Y64140D01*
X185108Y64129D01*
X184963Y64077D01*
X184755Y64027D01*
X184487Y63987D01*
X184293Y63972D01*
X182321D01*
X182127Y63987D01*
X181859Y64027D01*
X181651Y64077D01*
X181507Y64129D01*
X181486Y64140D01*
X181259Y64689D01*
X181201Y65453D01*
X181201Y65453D01*
X181201Y65453D01*
Y68996D01*
X181201Y68996D01*
X181356Y69719D01*
X181567Y70229D01*
X181682Y71102D01*
Y73071D01*
X181567Y73944D01*
X181230Y74758D01*
X180694Y75458D01*
X180127Y75892D01*
X180113Y76225D01*
Y77471D01*
X180901Y77993D01*
X181299Y77914D01*
X182067Y78067D01*
X182718Y78502D01*
X182775Y78587D01*
X182807Y78613D01*
X182849Y78643D01*
X182887Y78666D01*
X182925Y78684D01*
X182961Y78699D01*
X182997Y78709D01*
X183034Y78717D01*
X190958D01*
X195247Y74428D01*
D02*
G37*
G36*
X297741Y78554D02*
X296572Y77385D01*
X296567Y77400D01*
X296552Y77425D01*
X296527Y77458D01*
X296447Y77551D01*
X296168Y77845D01*
X296073Y77940D01*
X297186Y79054D01*
X297741Y78554D01*
D02*
G37*
G36*
X324819Y86609D02*
X324815Y86527D01*
X324283Y86119D01*
X322208Y84043D01*
X321766Y83468D01*
X321488Y82797D01*
X321394Y82078D01*
Y77369D01*
X320648Y77116D01*
X320567Y77221D01*
X319375Y78136D01*
X317986Y78711D01*
X316496Y78908D01*
X315006Y78711D01*
X313617Y78136D01*
X312425Y77221D01*
X311510Y76029D01*
X310934Y74640D01*
X310738Y73150D01*
X310934Y71659D01*
X311510Y70271D01*
X312425Y69078D01*
X313617Y68163D01*
X315006Y67588D01*
X316496Y67392D01*
X316811Y67433D01*
X317325Y66707D01*
X317197Y66398D01*
X317102Y65678D01*
Y56385D01*
X316357Y56132D01*
X316276Y56237D01*
X315084Y57152D01*
X313695Y57727D01*
X312205Y57923D01*
X310715Y57727D01*
X309326Y57152D01*
X308133Y56237D01*
X307218Y55044D01*
X306643Y53656D01*
X306447Y52165D01*
X306643Y50675D01*
X307218Y49286D01*
X308133Y48094D01*
X309326Y47179D01*
X310715Y46604D01*
X312176Y46411D01*
X312241Y46324D01*
X312535Y45657D01*
X293605Y26727D01*
X293605Y26727D01*
X292690Y25811D01*
X291572D01*
X291184Y26599D01*
X291230Y26659D01*
X291567Y27473D01*
X291682Y28346D01*
Y30315D01*
X291567Y31189D01*
X291429Y31522D01*
X291413Y31602D01*
X291412Y31603D01*
X291412Y31605D01*
X291356Y31738D01*
X291311Y31900D01*
X291268Y32119D01*
X291117Y34588D01*
X291141Y35317D01*
X291216Y36189D01*
X291262Y36511D01*
X291311Y36761D01*
X291356Y36923D01*
X291357Y36926D01*
X295279Y41164D01*
X295925Y41811D01*
X296525Y42592D01*
X296902Y43502D01*
X297030Y44478D01*
Y54097D01*
X307982Y65049D01*
X308582Y65830D01*
X308959Y66740D01*
X309087Y67716D01*
Y78798D01*
X309160Y78910D01*
X310730Y80685D01*
X314961D01*
X315680Y80780D01*
X316351Y81057D01*
X316926Y81499D01*
X319196Y83769D01*
X319638Y84345D01*
X319915Y85015D01*
X320010Y85734D01*
Y86279D01*
X320079D01*
Y86476D01*
X320916Y87314D01*
X324448D01*
X324819Y86609D01*
D02*
G37*
G36*
X219390Y76168D02*
X219394Y75998D01*
X219406Y75844D01*
X219426Y75705D01*
X219454Y75582D01*
X219490Y75474D01*
X219534Y75381D01*
X219586Y75304D01*
X219647Y75242D01*
X219715Y75195D01*
X219791Y75164D01*
X218208Y75633D01*
X218283Y75619D01*
X218350Y75625D01*
X218409Y75651D01*
X218460Y75697D01*
X218504Y75763D01*
X218539Y75849D01*
X218567Y75954D01*
X218587Y76079D01*
X218598Y76224D01*
X218602Y76389D01*
X219390Y76168D01*
D02*
G37*
G36*
X151691Y75341D02*
X151427Y75066D01*
X151017Y74568D01*
X150872Y74345D01*
X150766Y74140D01*
X150699Y73952D01*
X150671Y73781D01*
X150683Y73627D01*
X150734Y73491D01*
X150825Y73372D01*
X148608Y75589D01*
X148727Y75498D01*
X148864Y75447D01*
X149017Y75435D01*
X149188Y75462D01*
X149376Y75529D01*
X149582Y75635D01*
X149805Y75781D01*
X150045Y75966D01*
X150302Y76191D01*
X150577Y76454D01*
X151691Y75341D01*
D02*
G37*
G36*
X228804Y76349D02*
X228819Y76154D01*
X228843Y75983D01*
X228877Y75834D01*
X228921Y75708D01*
X228974Y75605D01*
X229038Y75525D01*
X229111Y75468D01*
X229193Y75434D01*
X229286Y75422D01*
X227328D01*
X227421Y75434D01*
X227504Y75468D01*
X227577Y75525D01*
X227640Y75605D01*
X227693Y75708D01*
X227737Y75834D01*
X227771Y75983D01*
X227796Y76154D01*
X227810Y76349D01*
X227815Y76566D01*
X228799D01*
X228804Y76349D01*
D02*
G37*
G36*
X179344Y75391D02*
X177270D01*
X177280Y75404D01*
X177289Y75442D01*
X177297Y75506D01*
X177310Y75712D01*
X177323Y76673D01*
X179291D01*
X179344Y75391D01*
D02*
G37*
G36*
X235039Y103347D02*
X235138Y103248D01*
X235138Y83169D01*
X238878Y79429D01*
X272736D01*
X273963Y80993D01*
X274841Y81051D01*
X275681D01*
X275718Y81014D01*
X276500Y80491D01*
X277421Y80308D01*
X277993D01*
X278294Y79581D01*
X277524Y78810D01*
X276595D01*
X275980Y78688D01*
X275459Y78340D01*
X275459Y78340D01*
X273038Y75919D01*
X272690Y75398D01*
X272568Y74783D01*
X272568Y74783D01*
Y74454D01*
X272292Y74252D01*
X271328Y74522D01*
X271230Y74758D01*
X270694Y75458D01*
X269995Y75994D01*
X269181Y76331D01*
X268307Y76446D01*
X267434Y76331D01*
X266619Y75994D01*
X265920Y75458D01*
X265384Y74758D01*
X265047Y73944D01*
X264932Y73071D01*
Y71102D01*
X265047Y70229D01*
X265384Y69415D01*
X265536Y69217D01*
X265534Y69030D01*
X265285Y68251D01*
X265006Y68064D01*
X263038Y66096D01*
X262690Y65575D01*
X262568Y64961D01*
X262568Y64961D01*
Y62502D01*
X262470Y62436D01*
X261682Y62857D01*
Y63071D01*
X261567Y63945D01*
X261230Y64758D01*
X260886Y65207D01*
X260919Y66096D01*
X260986Y66226D01*
X261102Y66342D01*
X261230Y66428D01*
X263297Y68495D01*
X263601Y68950D01*
X263708Y69488D01*
Y74643D01*
X263601Y75180D01*
X263539Y75273D01*
X263567Y75315D01*
X263720Y76083D01*
X263567Y76851D01*
X263132Y77502D01*
X262481Y77937D01*
X261713Y78090D01*
X260945Y77937D01*
X260293Y77502D01*
X259858Y76851D01*
X259823Y76675D01*
X259181Y76331D01*
X258307Y76446D01*
X257434Y76331D01*
X256619Y75994D01*
X255920Y75458D01*
X255384Y74758D01*
X255191Y74293D01*
X254319Y74051D01*
X250708Y77662D01*
X250317Y77924D01*
X249856Y78015D01*
X249856Y78015D01*
X234003D01*
X231185Y80834D01*
Y93474D01*
X231185Y93474D01*
X231093Y93935D01*
X230832Y94326D01*
X229863Y95294D01*
X229843Y95326D01*
X229825Y95359D01*
X229809Y95394D01*
X229796Y95434D01*
X229785Y95478D01*
X229776Y95528D01*
X229772Y95569D01*
X229792Y95669D01*
X229640Y96437D01*
X229205Y97088D01*
X228886Y97301D01*
X228706Y98235D01*
X229423Y98952D01*
X229480Y99000D01*
X229526Y99033D01*
X229575Y99065D01*
X229620Y99091D01*
X229661Y99111D01*
X229698Y99126D01*
X229731Y99138D01*
X229789Y99153D01*
X229838Y99177D01*
X230099Y99228D01*
X230750Y99664D01*
X231185Y100315D01*
X231338Y101083D01*
X231185Y101851D01*
X230750Y102502D01*
X230638Y102577D01*
X230878Y103363D01*
X235039Y103347D01*
D02*
G37*
G36*
X196370Y75571D02*
X196486Y75471D01*
X196595Y75390D01*
X196696Y75327D01*
X196791Y75282D01*
X196878Y75255D01*
X196959Y75247D01*
X197032Y75256D01*
X197098Y75284D01*
X197156Y75330D01*
X196048Y74222D01*
X196094Y74280D01*
X196122Y74346D01*
X196131Y74419D01*
X196123Y74500D01*
X196096Y74587D01*
X196051Y74682D01*
X195988Y74783D01*
X195907Y74892D01*
X195807Y75008D01*
X195690Y75132D01*
X196246Y75688D01*
X196370Y75571D01*
D02*
G37*
G36*
X136370D02*
X136486Y75471D01*
X136595Y75390D01*
X136696Y75327D01*
X136791Y75282D01*
X136878Y75255D01*
X136959Y75247D01*
X137032Y75256D01*
X137098Y75284D01*
X137156Y75330D01*
X136048Y74222D01*
X136094Y74280D01*
X136122Y74346D01*
X136131Y74419D01*
X136123Y74500D01*
X136096Y74587D01*
X136051Y74682D01*
X135988Y74783D01*
X135907Y74892D01*
X135807Y75008D01*
X135690Y75132D01*
X136246Y75688D01*
X136370Y75571D01*
D02*
G37*
G36*
X126370D02*
X126486Y75471D01*
X126595Y75390D01*
X126696Y75327D01*
X126791Y75282D01*
X126878Y75255D01*
X126959Y75247D01*
X127032Y75256D01*
X127098Y75284D01*
X127156Y75330D01*
X126048Y74222D01*
X126094Y74280D01*
X126122Y74346D01*
X126131Y74419D01*
X126123Y74500D01*
X126096Y74587D01*
X126051Y74682D01*
X125988Y74783D01*
X125907Y74892D01*
X125807Y75008D01*
X125690Y75132D01*
X126246Y75688D01*
X126370Y75571D01*
D02*
G37*
G36*
X116370D02*
X116486Y75471D01*
X116595Y75390D01*
X116696Y75327D01*
X116791Y75282D01*
X116878Y75255D01*
X116959Y75247D01*
X117032Y75256D01*
X117098Y75284D01*
X117156Y75330D01*
X116048Y74222D01*
X116094Y74280D01*
X116122Y74346D01*
X116131Y74419D01*
X116123Y74500D01*
X116096Y74587D01*
X116051Y74682D01*
X115988Y74783D01*
X115907Y74892D01*
X115807Y75008D01*
X115690Y75132D01*
X116246Y75688D01*
X116370Y75571D01*
D02*
G37*
G36*
X106370D02*
X106486Y75471D01*
X106595Y75390D01*
X106696Y75327D01*
X106791Y75282D01*
X106878Y75255D01*
X106959Y75247D01*
X107032Y75256D01*
X107098Y75284D01*
X107156Y75330D01*
X106048Y74222D01*
X106094Y74280D01*
X106122Y74346D01*
X106131Y74419D01*
X106123Y74500D01*
X106096Y74587D01*
X106051Y74682D01*
X105988Y74783D01*
X105907Y74892D01*
X105807Y75008D01*
X105690Y75132D01*
X106246Y75688D01*
X106370Y75571D01*
D02*
G37*
G36*
X298664Y73779D02*
X298650Y73787D01*
X298622Y73794D01*
X298581Y73800D01*
X298459Y73809D01*
X298054Y73818D01*
X297919Y73819D01*
Y75394D01*
X298664Y75433D01*
Y73779D01*
D02*
G37*
G36*
X255760Y71299D02*
X255752Y71374D01*
X255728Y71441D01*
X255688Y71500D01*
X255632Y71551D01*
X255560Y71595D01*
X255472Y71630D01*
X255368Y71658D01*
X255248Y71677D01*
X255112Y71689D01*
X254960Y71693D01*
Y72480D01*
X255112Y72484D01*
X255248Y72496D01*
X255368Y72516D01*
X255472Y72543D01*
X255560Y72579D01*
X255632Y72622D01*
X255688Y72673D01*
X255728Y72732D01*
X255752Y72799D01*
X255760Y72874D01*
Y71299D01*
D02*
G37*
G36*
X210827Y137517D02*
Y103543D01*
X210728Y103445D01*
X227802Y103376D01*
X228039Y102587D01*
X227911Y102502D01*
X227476Y101851D01*
X227324Y101083D01*
X227394Y100728D01*
X227393Y100661D01*
X227398Y100636D01*
X227396Y100632D01*
X227383Y100610D01*
X227366Y100585D01*
X224402Y97621D01*
X224119Y97198D01*
X224020Y96698D01*
Y91506D01*
X224119Y91007D01*
X224402Y90584D01*
X227003Y87983D01*
Y76315D01*
X226997Y76241D01*
X226983Y76145D01*
X226619Y75994D01*
X225920Y75458D01*
X225384Y74758D01*
X225047Y73944D01*
X224932Y73071D01*
Y71102D01*
X225047Y70229D01*
X225384Y69415D01*
X225920Y68716D01*
X226619Y68179D01*
X227433Y67842D01*
X228307Y67727D01*
X229181Y67842D01*
X229995Y68179D01*
X230694Y68716D01*
X231230Y69415D01*
X231567Y70229D01*
X231682Y71102D01*
Y73071D01*
X231567Y73944D01*
X231230Y74758D01*
X230694Y75458D01*
X229995Y75994D01*
X229631Y76145D01*
X229617Y76241D01*
X229612Y76315D01*
Y77971D01*
X230339Y78273D01*
X232652Y75959D01*
X232652Y75959D01*
X233043Y75699D01*
X233504Y75607D01*
X233504Y75607D01*
X235042D01*
X235431Y74819D01*
X235384Y74758D01*
X235047Y73944D01*
X234932Y73071D01*
Y71102D01*
X235047Y70229D01*
X235384Y69415D01*
X235428Y69358D01*
X235039Y68570D01*
X233386D01*
X232848Y68463D01*
X232392Y68159D01*
X230221Y65988D01*
X230143Y65921D01*
X230117Y65901D01*
X229995Y65994D01*
X229181Y66331D01*
X228307Y66446D01*
X227433Y66331D01*
X226619Y65994D01*
X225920Y65458D01*
X225384Y64758D01*
X225047Y63945D01*
X224932Y63071D01*
Y61102D01*
X225047Y60229D01*
X225384Y59415D01*
X225920Y58716D01*
X226619Y58179D01*
X227433Y57842D01*
X228307Y57727D01*
X229181Y57842D01*
X229995Y58179D01*
X230694Y58716D01*
X231230Y59415D01*
X231567Y60229D01*
X231682Y61102D01*
Y63071D01*
X231648Y63331D01*
X231681Y63390D01*
X231753Y63499D01*
X231972Y63765D01*
X233968Y65760D01*
X235160D01*
X235548Y64973D01*
X235384Y64758D01*
X235047Y63945D01*
X234932Y63071D01*
Y61102D01*
X235047Y60229D01*
X235384Y59415D01*
X235920Y58716D01*
X236619Y58179D01*
X236847Y58085D01*
X237032Y57156D01*
X223038Y43163D01*
X222690Y42642D01*
X222568Y42027D01*
X222568Y42027D01*
Y41132D01*
X221780Y41080D01*
X221759Y41240D01*
X221402Y42102D01*
X220834Y42842D01*
X220094Y43410D01*
X219232Y43767D01*
X219094Y43785D01*
Y39331D01*
Y34876D01*
X219232Y34894D01*
X219693Y35085D01*
X220139Y34418D01*
X219670Y33949D01*
X219536Y33832D01*
X219339Y33680D01*
X219179Y33575D01*
X218307Y33690D01*
X217434Y33575D01*
X216619Y33238D01*
X216582Y33209D01*
X216384Y33224D01*
X215737Y33554D01*
X215611Y34189D01*
X215089Y34971D01*
X212882Y37178D01*
X212562Y37538D01*
X212161Y38043D01*
X211849Y38495D01*
X211682Y38787D01*
Y40315D01*
X211567Y41189D01*
X211230Y42003D01*
X210694Y42702D01*
X209995Y43238D01*
X209181Y43575D01*
X208307Y43690D01*
X207434Y43575D01*
X206619Y43238D01*
X205920Y42702D01*
X205384Y42003D01*
X205047Y41189D01*
X204932Y40315D01*
Y38346D01*
X205047Y37473D01*
X205384Y36659D01*
X205920Y35960D01*
X206619Y35423D01*
X206975Y35276D01*
X207066Y35223D01*
X207287Y35147D01*
X207434Y35086D01*
X207449Y35084D01*
X207644Y35001D01*
X207927Y34860D01*
X208563Y34471D01*
X208597Y34446D01*
X208312Y33703D01*
X208302Y33690D01*
X207434Y33575D01*
X206619Y33238D01*
X205920Y32702D01*
X205384Y32003D01*
X205047Y31189D01*
X204932Y30315D01*
Y28346D01*
X205047Y27473D01*
X205384Y26659D01*
X205920Y25960D01*
X206619Y25423D01*
X207434Y25086D01*
X208307Y24971D01*
X209181Y25086D01*
X209995Y25423D01*
X210303Y25660D01*
X211147Y25391D01*
X211183Y25352D01*
X211683Y24605D01*
X214142Y22146D01*
X214146Y22115D01*
X214423Y21445D01*
X214547Y21284D01*
X214159Y20496D01*
X202825D01*
X198962Y24359D01*
X199299Y25135D01*
X199995Y25423D01*
X200694Y25960D01*
X201230Y26659D01*
X201567Y27473D01*
X201682Y28346D01*
Y30315D01*
X201567Y31189D01*
X201230Y32003D01*
X200694Y32702D01*
X199995Y33238D01*
X199181Y33575D01*
X198307Y33690D01*
X197433Y33575D01*
X196619Y33238D01*
X196582Y33209D01*
X196384Y33224D01*
X195737Y33554D01*
X195611Y34189D01*
X195089Y34971D01*
X192882Y37178D01*
X192562Y37538D01*
X192161Y38043D01*
X191849Y38495D01*
X191682Y38787D01*
Y40315D01*
X191567Y41189D01*
X191230Y42003D01*
X190694Y42702D01*
X189995Y43238D01*
X189181Y43575D01*
X188307Y43690D01*
X187434Y43575D01*
X186619Y43238D01*
X185920Y42702D01*
X185384Y42003D01*
X185047Y41189D01*
X184932Y40315D01*
Y38346D01*
X185047Y37473D01*
X185384Y36659D01*
X185920Y35960D01*
X186619Y35423D01*
X186975Y35276D01*
X187066Y35223D01*
X187287Y35147D01*
X187434Y35086D01*
X187449Y35084D01*
X187644Y35001D01*
X187927Y34860D01*
X188563Y34471D01*
X188597Y34446D01*
X188312Y33703D01*
X188302Y33690D01*
X187434Y33575D01*
X186619Y33238D01*
X185920Y32702D01*
X185384Y32003D01*
X185047Y31189D01*
X184932Y30315D01*
Y28346D01*
X185047Y27473D01*
X185384Y26659D01*
X185920Y25960D01*
X186619Y25423D01*
X187434Y25086D01*
X188307Y24971D01*
X189181Y25086D01*
X189995Y25423D01*
X190251Y25620D01*
X191119Y25293D01*
X191161Y25082D01*
X191683Y24301D01*
X193576Y22408D01*
X193853Y21740D01*
X194294Y21164D01*
X198952Y16506D01*
X198651Y15779D01*
X193782D01*
X193644Y15986D01*
X192992Y16421D01*
X192224Y16574D01*
X191456Y16421D01*
X190805Y15986D01*
X190370Y15335D01*
X190217Y14567D01*
X190370Y13799D01*
X190805Y13148D01*
X191456Y12713D01*
X192224Y12560D01*
X192547Y12624D01*
X192831Y12568D01*
X192831Y12568D01*
X251870D01*
X251870Y12568D01*
X252484Y12690D01*
X253006Y13038D01*
X264620Y24652D01*
X264620Y24652D01*
X264968Y25173D01*
X265084Y25757D01*
X265170Y25811D01*
X265877Y26016D01*
X265920Y25960D01*
X266619Y25423D01*
X266955Y25284D01*
X267024Y25239D01*
X267158Y25184D01*
X267304Y25102D01*
X267490Y24977D01*
X269715Y23008D01*
X276381Y16342D01*
X276957Y15900D01*
X277627Y15622D01*
X278346Y15527D01*
X295885D01*
X296604Y15622D01*
X297275Y15900D01*
X297850Y16342D01*
X325317Y43808D01*
X325956Y43334D01*
X325660Y42779D01*
X325165Y41147D01*
X324997Y39449D01*
X325165Y37751D01*
X325660Y36118D01*
X326464Y34613D01*
X327547Y33295D01*
X328866Y32212D01*
X330370Y31408D01*
X332003Y30913D01*
X333701Y30746D01*
X335399Y30913D01*
X337031Y31408D01*
X338536Y32212D01*
X339855Y33295D01*
X340937Y34613D01*
X341742Y36118D01*
X342237Y37751D01*
X342404Y39449D01*
X342237Y41147D01*
X341742Y42779D01*
X340937Y44284D01*
X339855Y45603D01*
X338536Y46685D01*
X337031Y47490D01*
X335399Y47985D01*
X333701Y48152D01*
X332003Y47985D01*
X330370Y47490D01*
X328866Y46685D01*
X328008Y45982D01*
X327557Y46188D01*
X327307Y46424D01*
X327386Y47028D01*
Y62570D01*
X330863Y66047D01*
X331305Y66623D01*
X331583Y67293D01*
X331677Y68013D01*
Y76202D01*
X332125Y76649D01*
X376694D01*
X377413Y76744D01*
X378084Y77022D01*
X378659Y77464D01*
X380735Y79539D01*
X381177Y80115D01*
X381454Y80785D01*
X381549Y81505D01*
Y86024D01*
X389852D01*
Y88239D01*
X390125Y88396D01*
X390912Y87942D01*
Y75952D01*
X390682Y75721D01*
X348622D01*
X348321Y75597D01*
X348196Y75295D01*
Y426D01*
X77756D01*
Y30171D01*
X78827Y30255D01*
X80448Y30645D01*
X81988Y31283D01*
X83410Y32154D01*
X84677Y33236D01*
X85760Y34504D01*
X86631Y35925D01*
X87269Y37465D01*
X87658Y39086D01*
X87789Y40748D01*
Y41535D01*
X87658Y43197D01*
X87269Y44818D01*
X86631Y46358D01*
X85760Y47780D01*
X84677Y49047D01*
X83410Y50130D01*
X81988Y51001D01*
X80448Y51639D01*
X78827Y52028D01*
X77756Y52112D01*
Y62179D01*
X78827Y62263D01*
X80448Y62652D01*
X81988Y63291D01*
X83410Y64161D01*
X84677Y65244D01*
X85760Y66512D01*
X86631Y67933D01*
X87269Y69473D01*
X87658Y71094D01*
X87789Y72756D01*
Y73543D01*
X87658Y75205D01*
X87269Y76826D01*
X86631Y78366D01*
X85760Y79787D01*
X85516Y80073D01*
X86095Y80608D01*
X91944Y74759D01*
X92334Y74498D01*
X92795Y74406D01*
X92795Y74406D01*
X104473D01*
X105004Y73619D01*
X104932Y73071D01*
Y71102D01*
X105047Y70229D01*
X105384Y69415D01*
X105920Y68716D01*
X106619Y68179D01*
X107433Y67842D01*
X108307Y67727D01*
X109181Y67842D01*
X109995Y68179D01*
X110694Y68716D01*
X111230Y69415D01*
X111567Y70229D01*
X111682Y71102D01*
Y73071D01*
X111567Y73944D01*
X111230Y74758D01*
X110897Y75194D01*
X111242Y75981D01*
X113694D01*
X115247Y74428D01*
X115047Y73944D01*
X114932Y73071D01*
Y71102D01*
X115047Y70229D01*
X115384Y69415D01*
X115920Y68716D01*
X116619Y68179D01*
X117434Y67842D01*
X118307Y67727D01*
X119181Y67842D01*
X119995Y68179D01*
X120694Y68716D01*
X121230Y69415D01*
X121567Y70229D01*
X121682Y71102D01*
Y73071D01*
X121567Y73944D01*
X121230Y74758D01*
X120694Y75458D01*
X119995Y75994D01*
X119181Y76331D01*
X118307Y76446D01*
X117434Y76331D01*
X116950Y76131D01*
X116174Y76907D01*
X116475Y77634D01*
X122041D01*
X125247Y74428D01*
X125047Y73944D01*
X124932Y73071D01*
Y71102D01*
X125047Y70229D01*
X125384Y69415D01*
X125920Y68716D01*
X126619Y68179D01*
X127434Y67842D01*
X128307Y67727D01*
X129181Y67842D01*
X129995Y68179D01*
X130694Y68716D01*
X131230Y69415D01*
X131567Y70229D01*
X131682Y71102D01*
Y73071D01*
X131567Y73944D01*
X131230Y74758D01*
X130694Y75458D01*
X129995Y75994D01*
X129181Y76331D01*
X128307Y76446D01*
X127434Y76331D01*
X126950Y76131D01*
X124599Y78482D01*
X124901Y79209D01*
X130466D01*
X135247Y74428D01*
X135047Y73944D01*
X134932Y73071D01*
Y71102D01*
X135047Y70229D01*
X135384Y69415D01*
X135920Y68716D01*
X136619Y68179D01*
X137434Y67842D01*
X138307Y67727D01*
X139181Y67842D01*
X139995Y68179D01*
X140428Y68511D01*
X141215Y68164D01*
Y66682D01*
X140296Y65763D01*
X139995Y65994D01*
X139181Y66331D01*
X138307Y66446D01*
X137434Y66331D01*
X136619Y65994D01*
X135920Y65458D01*
X135384Y64758D01*
X135047Y63945D01*
X134932Y63071D01*
Y61102D01*
X135047Y60229D01*
X135384Y59415D01*
X135861Y58793D01*
X135793Y58470D01*
X135552Y58006D01*
X131062D01*
X130821Y58470D01*
X130753Y58793D01*
X131230Y59415D01*
X131567Y60229D01*
X131682Y61102D01*
Y63071D01*
X131567Y63945D01*
X131230Y64758D01*
X130694Y65458D01*
X129995Y65994D01*
X129181Y66331D01*
X128307Y66446D01*
X127434Y66331D01*
X126619Y65994D01*
X125920Y65458D01*
X125384Y64758D01*
X125047Y63945D01*
X124932Y63071D01*
Y61102D01*
X125047Y60229D01*
X125384Y59415D01*
X125861Y58793D01*
X125793Y58470D01*
X125552Y58006D01*
X121062D01*
X120821Y58470D01*
X120753Y58793D01*
X121230Y59415D01*
X121567Y60229D01*
X121682Y61102D01*
Y63071D01*
X121567Y63945D01*
X121230Y64758D01*
X120694Y65458D01*
X119995Y65994D01*
X119181Y66331D01*
X118307Y66446D01*
X117434Y66331D01*
X116619Y65994D01*
X115920Y65458D01*
X115384Y64758D01*
X115047Y63945D01*
X114932Y63071D01*
Y61102D01*
X115047Y60229D01*
X115384Y59415D01*
X115861Y58793D01*
X115793Y58470D01*
X115552Y58006D01*
X112569D01*
X112532Y58013D01*
X112496Y58024D01*
X112460Y58038D01*
X112423Y58056D01*
X112384Y58080D01*
X112342Y58109D01*
X112310Y58136D01*
X112254Y58221D01*
X111627Y58639D01*
X111599Y58662D01*
X111344Y59183D01*
X111275Y59524D01*
X111567Y60229D01*
X111682Y61102D01*
Y63071D01*
X111567Y63945D01*
X111230Y64758D01*
X110694Y65458D01*
X109995Y65994D01*
X109181Y66331D01*
X108307Y66446D01*
X107433Y66331D01*
X106619Y65994D01*
X105920Y65458D01*
X105384Y64758D01*
X105047Y63945D01*
X104932Y63071D01*
Y61102D01*
X105047Y60229D01*
X105384Y59415D01*
X105920Y58716D01*
X106619Y58179D01*
X107103Y57979D01*
Y55988D01*
X107103Y55988D01*
X107194Y55527D01*
X107456Y55137D01*
X107807Y54785D01*
X107548Y53931D01*
X107500Y53921D01*
X106849Y53486D01*
X106413Y52835D01*
X106261Y52067D01*
X106413Y51299D01*
X106849Y50648D01*
X107500Y50213D01*
X108268Y50060D01*
X109036Y50213D01*
X109687Y50648D01*
X109743Y50732D01*
X109776Y50759D01*
X109817Y50788D01*
X109856Y50812D01*
X109893Y50830D01*
X109929Y50844D01*
X109966Y50855D01*
X110002Y50863D01*
X123590D01*
X123590Y50863D01*
X124050Y50954D01*
X124100Y50987D01*
X124803Y50847D01*
X125571Y51000D01*
X126222Y51435D01*
X126657Y52086D01*
X126810Y52854D01*
X126736Y53225D01*
X127272Y54012D01*
X138192D01*
X138307Y53232D01*
X137656Y52797D01*
X137221Y52146D01*
X137068Y51378D01*
X137221Y50610D01*
X137656Y49959D01*
X138307Y49524D01*
X139075Y49371D01*
X139843Y49524D01*
X140494Y49959D01*
X140550Y50043D01*
X140583Y50070D01*
X140624Y50099D01*
X140663Y50123D01*
X140700Y50141D01*
X140736Y50155D01*
X140773Y50166D01*
X140809Y50174D01*
X196099D01*
X196099Y50174D01*
X196560Y50265D01*
X196951Y50526D01*
X204474Y58049D01*
X204474Y58049D01*
X204735Y58440D01*
X204818Y58859D01*
X204936Y58931D01*
X205614Y59115D01*
X205920Y58716D01*
X206619Y58179D01*
X207434Y57842D01*
X208307Y57727D01*
X209181Y57842D01*
X209995Y58179D01*
X210694Y58716D01*
X211230Y59415D01*
X211391Y59803D01*
X211400Y59816D01*
X211403Y59833D01*
X211521Y60117D01*
X211536Y60125D01*
X211676Y60176D01*
X211879Y60226D01*
X212143Y60265D01*
X212334Y60280D01*
X214680D01*
X214700Y60279D01*
X214899Y60255D01*
X215047Y60227D01*
X215384Y59415D01*
X215920Y58716D01*
X216619Y58179D01*
X217434Y57842D01*
X218307Y57727D01*
X219181Y57842D01*
X219995Y58179D01*
X220694Y58716D01*
X221230Y59415D01*
X221567Y60229D01*
X221682Y61102D01*
Y63071D01*
X221567Y63945D01*
X221230Y64758D01*
X220694Y65458D01*
X219995Y65994D01*
X219181Y66331D01*
X218307Y66446D01*
X217434Y66331D01*
X216619Y65994D01*
X216566Y65953D01*
X215779Y66342D01*
Y67832D01*
X216566Y68220D01*
X216619Y68179D01*
X217434Y67842D01*
X218307Y67727D01*
X219181Y67842D01*
X219995Y68179D01*
X220694Y68716D01*
X221230Y69415D01*
X221567Y70229D01*
X221682Y71102D01*
Y73071D01*
X221567Y73944D01*
X221230Y74758D01*
X220694Y75458D01*
X220381Y75698D01*
X220358Y75732D01*
X220323Y75755D01*
X220296Y75787D01*
X220222Y75827D01*
X220216Y75852D01*
X220204Y75933D01*
X220200Y75982D01*
Y85229D01*
X221559Y86589D01*
X221820Y86979D01*
X221912Y87440D01*
Y90884D01*
X221920Y90920D01*
X221931Y90957D01*
X221945Y90993D01*
X221963Y91030D01*
X221986Y91069D01*
X222016Y91110D01*
X222042Y91142D01*
X222127Y91199D01*
X222562Y91850D01*
X222715Y92618D01*
X222562Y93386D01*
X222127Y94037D01*
X221476Y94472D01*
X220708Y94625D01*
X219940Y94472D01*
X219289Y94037D01*
X218854Y93386D01*
X218701Y92618D01*
X218854Y91850D01*
X219289Y91199D01*
X219373Y91142D01*
X219400Y91110D01*
X219429Y91069D01*
X219453Y91030D01*
X219471Y90993D01*
X219485Y90957D01*
X219496Y90920D01*
X219504Y90884D01*
Y87939D01*
X218144Y86580D01*
X217883Y86189D01*
X217792Y85728D01*
X217792Y85728D01*
Y76378D01*
X217434Y76331D01*
X216619Y75994D01*
X216566Y75953D01*
X215779Y76341D01*
Y77167D01*
X215842Y77262D01*
X215980Y77953D01*
X215842Y78644D01*
X215451Y79230D01*
X215192Y79488D01*
Y86660D01*
X215240Y86732D01*
X215393Y87500D01*
X215240Y88268D01*
X214805Y88919D01*
X214154Y89354D01*
X213386Y89507D01*
X212618Y89354D01*
X211967Y88919D01*
X211531Y88268D01*
X211379Y87500D01*
X211531Y86732D01*
X211579Y86660D01*
Y78740D01*
X211717Y78049D01*
X212108Y77463D01*
X212568Y77004D01*
Y64899D01*
X211907Y64283D01*
X211633Y64314D01*
X211376Y64407D01*
X211230Y64758D01*
X210694Y65458D01*
X209995Y65994D01*
X209181Y66331D01*
X208307Y66446D01*
X207434Y66331D01*
X206619Y65994D01*
X205920Y65458D01*
X205614Y65058D01*
X204826Y65325D01*
Y68848D01*
X205614Y69115D01*
X205920Y68716D01*
X206619Y68179D01*
X207434Y67842D01*
X208307Y67727D01*
X209181Y67842D01*
X209995Y68179D01*
X210694Y68716D01*
X211230Y69415D01*
X211567Y70229D01*
X211682Y71102D01*
Y73071D01*
X211567Y73944D01*
X211230Y74758D01*
X210694Y75458D01*
X209995Y75994D01*
X209181Y76331D01*
X208307Y76446D01*
X207434Y76331D01*
X206619Y75994D01*
X205920Y75458D01*
X205614Y75058D01*
X204826Y75325D01*
Y79828D01*
X204835Y79883D01*
X204848Y79941D01*
X204865Y80002D01*
X204887Y80065D01*
X204910Y80121D01*
X204989Y80279D01*
X205037Y80360D01*
X205056Y80413D01*
X205201Y80630D01*
X205353Y81398D01*
X205515Y81595D01*
X205961D01*
X209440Y85073D01*
X209395Y85117D01*
Y137151D01*
X210039Y137795D01*
X210827Y137517D01*
D02*
G37*
G36*
X231608Y64552D02*
X231415Y64351D01*
X231107Y63977D01*
X230992Y63805D01*
X230904Y63643D01*
X230842Y63490D01*
X230806Y63347D01*
X230796Y63213D01*
X230812Y63090D01*
X230855Y62976D01*
X229732Y65181D01*
X229796Y65086D01*
X229874Y65022D01*
X229966Y64989D01*
X230073Y64988D01*
X230195Y65018D01*
X230331Y65079D01*
X230481Y65171D01*
X230646Y65294D01*
X230825Y65448D01*
X231019Y65634D01*
X231608Y64552D01*
D02*
G37*
G36*
X141473Y64399D02*
X141316Y64235D01*
X141065Y63929D01*
X140971Y63788D01*
X140899Y63653D01*
X140847Y63526D01*
X140817Y63407D01*
X140807Y63295D01*
X140819Y63190D01*
X140852Y63093D01*
X139972Y64984D01*
X140022Y64902D01*
X140084Y64846D01*
X140158Y64816D01*
X140244Y64812D01*
X140343Y64834D01*
X140453Y64882D01*
X140575Y64956D01*
X140709Y65055D01*
X140856Y65180D01*
X141014Y65332D01*
X141473Y64399D01*
D02*
G37*
G36*
X145829Y65267D02*
X145976Y65142D01*
X146110Y65042D01*
X146234Y64967D01*
X146345Y64918D01*
X146445Y64894D01*
X146533Y64896D01*
X146610Y64924D01*
X146675Y64977D01*
X146729Y65055D01*
X145776Y63236D01*
X145812Y63330D01*
X145827Y63432D01*
X145821Y63541D01*
X145793Y63658D01*
X145744Y63782D01*
X145674Y63914D01*
X145582Y64054D01*
X145469Y64202D01*
X145334Y64357D01*
X145178Y64520D01*
X145671Y65418D01*
X145829Y65267D01*
D02*
G37*
G36*
X215836Y60516D02*
X215819Y60627D01*
X215770Y60727D01*
X215686Y60815D01*
X215570Y60891D01*
X215420Y60956D01*
X215237Y61009D01*
X215021Y61049D01*
X214772Y61079D01*
X214489Y61097D01*
X214173Y61102D01*
Y63071D01*
X214489Y63077D01*
X215021Y63124D01*
X215237Y63165D01*
X215420Y63218D01*
X215570Y63282D01*
X215686Y63358D01*
X215770Y63446D01*
X215819Y63546D01*
X215836Y63658D01*
Y60516D01*
D02*
G37*
G36*
X185932Y60200D02*
X185913Y60387D01*
X185851Y60553D01*
X185745Y60701D01*
X185595Y60828D01*
X185402Y60936D01*
X185165Y61024D01*
X184884Y61093D01*
X184559Y61142D01*
X184191Y61171D01*
X183779Y61181D01*
X183787Y63150D01*
X184204Y63160D01*
X184578Y63189D01*
X184908Y63238D01*
X185194Y63306D01*
X185437Y63394D01*
X185636Y63502D01*
X185792Y63629D01*
X185904Y63776D01*
X185973Y63942D01*
X185998Y64128D01*
X185932Y60200D01*
D02*
G37*
G36*
X180641Y63942D02*
X180710Y63776D01*
X180822Y63629D01*
X180978Y63502D01*
X181177Y63394D01*
X181420Y63306D01*
X181707Y63238D01*
X182037Y63189D01*
X182410Y63160D01*
X182827Y63150D01*
X182835Y61181D01*
X182423Y61171D01*
X182055Y61142D01*
X181730Y61093D01*
X181449Y61024D01*
X181212Y60936D01*
X181019Y60828D01*
X180869Y60701D01*
X180763Y60553D01*
X180701Y60387D01*
X180683Y60200D01*
X180616Y64128D01*
X180641Y63942D01*
D02*
G37*
G36*
X210680Y63863D02*
X210746Y63697D01*
X210854Y63550D01*
X211007Y63423D01*
X211203Y63315D01*
X211442Y63227D01*
X211725Y63159D01*
X212051Y63110D01*
X212421Y63081D01*
X212835Y63071D01*
Y61102D01*
X212421Y61093D01*
X212051Y61063D01*
X211725Y61014D01*
X211442Y60946D01*
X211203Y60858D01*
X211007Y60750D01*
X210854Y60623D01*
X210746Y60476D01*
X210680Y60310D01*
X210659Y60124D01*
Y64050D01*
X210680Y63863D01*
D02*
G37*
G36*
X196882Y58993D02*
X196818Y59088D01*
X196740Y59151D01*
X196648Y59184D01*
X196541Y59185D01*
X196420Y59155D01*
X196284Y59095D01*
X196133Y59003D01*
X195968Y58879D01*
X195789Y58725D01*
X195595Y58539D01*
X195006Y59621D01*
X195199Y59822D01*
X195507Y60196D01*
X195622Y60368D01*
X195710Y60531D01*
X195772Y60684D01*
X195808Y60826D01*
X195818Y60960D01*
X195802Y61084D01*
X195760Y61198D01*
X196882Y58993D01*
D02*
G37*
G36*
X109017Y58682D02*
X108950Y58655D01*
X108892Y58610D01*
X108841Y58548D01*
X108798Y58467D01*
X108763Y58368D01*
X108736Y58252D01*
X108716Y58117D01*
X108705Y57965D01*
X108701Y57794D01*
X107913D01*
X107910Y57965D01*
X107898Y58117D01*
X107878Y58252D01*
X107851Y58368D01*
X107816Y58467D01*
X107773Y58548D01*
X107722Y58610D01*
X107664Y58655D01*
X107597Y58682D01*
X107523Y58691D01*
X109091D01*
X109017Y58682D01*
D02*
G37*
G36*
X269120Y54956D02*
X268835Y54838D01*
X268117Y56328D01*
X268143Y56325D01*
X268176Y56333D01*
X268217Y56352D01*
X268266Y56382D01*
X268323Y56422D01*
X268460Y56535D01*
X268627Y56691D01*
X268723Y56785D01*
X269120Y54956D01*
D02*
G37*
G36*
X282693Y56094D02*
X282684Y56096D01*
X282661Y56097D01*
X282109Y56102D01*
X281975Y56102D01*
X281797Y57677D01*
X281931Y57678D01*
X282464Y57709D01*
X282508Y57718D01*
X282538Y57730D01*
X282555Y57742D01*
X282693Y56094D01*
D02*
G37*
G36*
X111764Y57546D02*
X111853Y57472D01*
X111944Y57407D01*
X112038Y57351D01*
X112135Y57303D01*
X112234Y57264D01*
X112336Y57234D01*
X112440Y57212D01*
X112547Y57199D01*
X112657Y57195D01*
Y56408D01*
X112547Y56403D01*
X112440Y56390D01*
X112336Y56369D01*
X112234Y56338D01*
X112135Y56299D01*
X112038Y56252D01*
X111944Y56195D01*
X111853Y56130D01*
X111764Y56057D01*
X111678Y55975D01*
Y57628D01*
X111764Y57546D01*
D02*
G37*
G36*
X160775Y56907D02*
X160860Y56840D01*
X160949Y56782D01*
X161042Y56732D01*
X161140Y56690D01*
X161242Y56657D01*
X161348Y56631D01*
X161458Y56614D01*
X161573Y56605D01*
X161691Y56604D01*
X160542Y55415D01*
X160537Y55535D01*
X160524Y55650D01*
X160504Y55761D01*
X160477Y55867D01*
X160441Y55969D01*
X160398Y56067D01*
X160346Y56160D01*
X160288Y56249D01*
X160221Y56334D01*
X160147Y56415D01*
X160694Y56981D01*
X160775Y56907D01*
D02*
G37*
G36*
X166701Y56122D02*
X166613Y56030D01*
X166465Y55855D01*
X166404Y55772D01*
X166354Y55691D01*
X166312Y55613D01*
X166280Y55537D01*
X166258Y55464D01*
X166244Y55394D01*
X166240Y55327D01*
X165071Y56496D01*
X165138Y56500D01*
X165208Y56513D01*
X165281Y56536D01*
X165357Y56568D01*
X165435Y56610D01*
X165516Y56660D01*
X165599Y56721D01*
X165685Y56790D01*
X165866Y56957D01*
X166701Y56122D01*
D02*
G37*
G36*
X267362Y54090D02*
X265997Y53819D01*
X265840Y55394D01*
X265974Y55395D01*
X266440Y55428D01*
X266492Y55440D01*
X266531Y55454D01*
X266556Y55471D01*
X266567Y55489D01*
X267362Y54090D01*
D02*
G37*
G36*
X287459Y52802D02*
X287443Y52812D01*
X287414Y52821D01*
X287372Y52829D01*
X287316Y52835D01*
X287165Y52846D01*
X286706Y52854D01*
X286794Y54429D01*
X287528Y54454D01*
X287459Y52802D01*
D02*
G37*
G36*
X109197Y52811D02*
X109286Y52738D01*
X109378Y52673D01*
X109472Y52617D01*
X109568Y52569D01*
X109667Y52530D01*
X109769Y52500D01*
X109873Y52478D01*
X109980Y52465D01*
X110090Y52461D01*
Y51673D01*
X109980Y51669D01*
X109873Y51656D01*
X109769Y51634D01*
X109667Y51604D01*
X109568Y51565D01*
X109472Y51517D01*
X109378Y51461D01*
X109286Y51396D01*
X109197Y51322D01*
X109111Y51240D01*
Y52894D01*
X109197Y52811D01*
D02*
G37*
G36*
X140005Y52122D02*
X140093Y52049D01*
X140185Y51984D01*
X140279Y51928D01*
X140375Y51880D01*
X140474Y51841D01*
X140576Y51811D01*
X140681Y51789D01*
X140787Y51776D01*
X140897Y51772D01*
Y50984D01*
X140787Y50980D01*
X140681Y50967D01*
X140576Y50945D01*
X140474Y50915D01*
X140375Y50876D01*
X140279Y50828D01*
X140185Y50772D01*
X140093Y50707D01*
X140005Y50634D01*
X139918Y50551D01*
Y52205D01*
X140005Y52122D01*
D02*
G37*
G36*
X283999Y50059D02*
X283985Y50067D01*
X283957Y50073D01*
X283916Y50079D01*
X283793Y50089D01*
X283388Y50098D01*
X283254Y50098D01*
Y51673D01*
X283999Y51713D01*
Y50059D01*
D02*
G37*
G36*
X281342Y46909D02*
X281327Y46917D01*
X281299Y46924D01*
X281258Y46929D01*
X281136Y46939D01*
X280731Y46948D01*
X280596Y46949D01*
Y48524D01*
X281342Y48563D01*
Y46909D01*
D02*
G37*
G36*
X279009Y44085D02*
X278994Y44092D01*
X278967Y44099D01*
X278926Y44105D01*
X278803Y44114D01*
X278398Y44124D01*
X278263Y44124D01*
Y45699D01*
X279009Y45738D01*
Y44085D01*
D02*
G37*
G36*
X251691Y42585D02*
X251427Y42310D01*
X251017Y41813D01*
X250872Y41590D01*
X250765Y41384D01*
X250699Y41196D01*
X250671Y41025D01*
X250683Y40871D01*
X250734Y40735D01*
X250825Y40616D01*
X248608Y42833D01*
X248727Y42742D01*
X248864Y42691D01*
X249017Y42679D01*
X249188Y42707D01*
X249376Y42773D01*
X249582Y42880D01*
X249805Y43025D01*
X250045Y43210D01*
X250302Y43435D01*
X250577Y43698D01*
X251691Y42585D01*
D02*
G37*
G36*
X241691D02*
X241427Y42310D01*
X241017Y41813D01*
X240872Y41590D01*
X240766Y41384D01*
X240699Y41196D01*
X240671Y41025D01*
X240683Y40871D01*
X240734Y40735D01*
X240825Y40616D01*
X238608Y42833D01*
X238727Y42742D01*
X238864Y42691D01*
X239017Y42679D01*
X239188Y42707D01*
X239376Y42773D01*
X239582Y42880D01*
X239805Y43025D01*
X240045Y43210D01*
X240302Y43435D01*
X240577Y43698D01*
X241691Y42585D01*
D02*
G37*
G36*
X231691D02*
X231427Y42310D01*
X231017Y41813D01*
X230872Y41590D01*
X230766Y41384D01*
X230699Y41196D01*
X230671Y41025D01*
X230683Y40871D01*
X230734Y40735D01*
X230825Y40616D01*
X228608Y42833D01*
X228727Y42742D01*
X228864Y42691D01*
X229017Y42679D01*
X229188Y42707D01*
X229376Y42773D01*
X229582Y42880D01*
X229805Y43025D01*
X230045Y43210D01*
X230302Y43435D01*
X230577Y43698D01*
X231691Y42585D01*
D02*
G37*
G36*
X294995Y42039D02*
X290672Y37367D01*
X290596Y37188D01*
X290529Y36947D01*
X290470Y36644D01*
X290418Y36280D01*
X290339Y35365D01*
X290314Y34577D01*
X290470Y32017D01*
X290529Y31714D01*
X290596Y31473D01*
X290672Y31294D01*
X290276D01*
X290276Y31224D01*
X286339D01*
X286337Y31294D01*
X285943D01*
X286018Y31473D01*
X286085Y31714D01*
X286144Y32017D01*
X286196Y32382D01*
X286275Y33297D01*
X286289Y33713D01*
X286272Y34560D01*
X286144Y36644D01*
X286138Y36678D01*
X285861Y36802D01*
X285436Y36950D01*
X284969Y37076D01*
X284460Y37179D01*
X283910Y37259D01*
X283307Y37304D01*
X282704Y37259D01*
X282154Y37179D01*
X281645Y37076D01*
X281178Y36950D01*
X280753Y36802D01*
X280370Y36630D01*
X280029Y36436D01*
X279729Y36218D01*
Y42443D01*
X280029Y42226D01*
X280370Y42031D01*
X280753Y41860D01*
X281178Y41711D01*
X281645Y41585D01*
X282154Y41482D01*
X282704Y41402D01*
X283261Y41361D01*
X283387Y41363D01*
X283910Y41402D01*
X284460Y41482D01*
X284969Y41585D01*
X285436Y41711D01*
X285861Y41860D01*
X286244Y42031D01*
X286585Y42226D01*
X286885Y42443D01*
Y37367D01*
X290672D01*
X287808Y42825D01*
X287766Y42855D01*
X287808Y42961D01*
X287934Y43145D01*
X288144Y43404D01*
X289279Y44641D01*
X291170Y46566D01*
X294995Y42039D01*
D02*
G37*
G36*
X210696Y39979D02*
X210622Y39677D01*
X210632Y39334D01*
X210726Y38952D01*
X210905Y38529D01*
X211168Y38067D01*
X211516Y37564D01*
X211947Y37022D01*
X212463Y36439D01*
X213064Y35817D01*
X210837Y33590D01*
X210458Y33957D01*
X209360Y34887D01*
X209007Y35141D01*
X208317Y35562D01*
X207981Y35731D01*
X207651Y35870D01*
X207328Y35982D01*
X210855Y40241D01*
X210696Y39979D01*
D02*
G37*
G36*
X190696D02*
X190622Y39677D01*
X190632Y39334D01*
X190726Y38952D01*
X190905Y38529D01*
X191168Y38067D01*
X191516Y37564D01*
X191947Y37022D01*
X192463Y36439D01*
X193064Y35817D01*
X190837Y33590D01*
X190459Y33957D01*
X189360Y34887D01*
X189006Y35141D01*
X188317Y35562D01*
X187981Y35731D01*
X187651Y35870D01*
X187328Y35982D01*
X190855Y40241D01*
X190696Y39979D01*
D02*
G37*
G36*
X241691Y32585D02*
X241427Y32310D01*
X241017Y31813D01*
X240872Y31590D01*
X240766Y31384D01*
X240699Y31196D01*
X240671Y31025D01*
X240683Y30871D01*
X240734Y30735D01*
X240825Y30616D01*
X238608Y32833D01*
X238727Y32742D01*
X238864Y32691D01*
X239017Y32679D01*
X239188Y32706D01*
X239376Y32773D01*
X239582Y32880D01*
X239805Y33025D01*
X240045Y33210D01*
X240302Y33435D01*
X240577Y33698D01*
X241691Y32585D01*
D02*
G37*
G36*
X231691D02*
X231427Y32310D01*
X231017Y31813D01*
X230872Y31590D01*
X230766Y31384D01*
X230699Y31196D01*
X230671Y31025D01*
X230683Y30871D01*
X230734Y30735D01*
X230825Y30616D01*
X228608Y32833D01*
X228727Y32742D01*
X228864Y32691D01*
X229017Y32679D01*
X229188Y32706D01*
X229376Y32773D01*
X229582Y32880D01*
X229805Y33025D01*
X230045Y33210D01*
X230302Y33435D01*
X230577Y33698D01*
X231691Y32585D01*
D02*
G37*
G36*
X221691D02*
X221427Y32310D01*
X221017Y31813D01*
X220872Y31590D01*
X220765Y31384D01*
X220699Y31196D01*
X220671Y31025D01*
X220683Y30871D01*
X220734Y30735D01*
X220825Y30616D01*
X218608Y32833D01*
X218727Y32742D01*
X218864Y32691D01*
X219017Y32679D01*
X219188Y32706D01*
X219376Y32773D01*
X219582Y32880D01*
X219805Y33025D01*
X220045Y33210D01*
X220302Y33435D01*
X220577Y33698D01*
X221691Y32585D01*
D02*
G37*
G36*
X280889Y30326D02*
X281007Y29834D01*
X281173Y29340D01*
X281386Y28842D01*
X281645Y28341D01*
X281952Y27836D01*
X282306Y27329D01*
X282707Y26818D01*
X283650Y25787D01*
X280842Y23028D01*
X280319Y23545D01*
X277982Y25614D01*
X277726Y25786D01*
X277507Y25908D01*
X277328Y25982D01*
X280817Y30814D01*
X280889Y30326D01*
D02*
G37*
G36*
X270889D02*
X271007Y29834D01*
X271173Y29340D01*
X271386Y28842D01*
X271645Y28341D01*
X271952Y27836D01*
X272306Y27329D01*
X272707Y26818D01*
X273650Y25787D01*
X270842Y23028D01*
X270319Y23545D01*
X267982Y25614D01*
X267725Y25786D01*
X267508Y25908D01*
X267328Y25982D01*
X270817Y30814D01*
X270889Y30326D01*
D02*
G37*
G36*
X259286Y25982D02*
X259107Y25908D01*
X258889Y25786D01*
X258633Y25614D01*
X258338Y25392D01*
X257635Y24801D01*
X256295Y23545D01*
X255772Y23028D01*
X252964Y25787D01*
X253459Y26304D01*
X254308Y27329D01*
X254662Y27836D01*
X254969Y28341D01*
X255228Y28842D01*
X255441Y29340D01*
X255607Y29834D01*
X255725Y30326D01*
X255797Y30814D01*
X259286Y25982D01*
D02*
G37*
G36*
X249287D02*
X249107Y25908D01*
X248889Y25786D01*
X248633Y25614D01*
X248338Y25392D01*
X247636Y24801D01*
X246295Y23545D01*
X245772Y23028D01*
X242964Y25787D01*
X243459Y26304D01*
X244308Y27329D01*
X244662Y27836D01*
X244969Y28341D01*
X245229Y28842D01*
X245441Y29340D01*
X245607Y29834D01*
X245725Y30326D01*
X245797Y30814D01*
X249287Y25982D01*
D02*
G37*
G36*
X193312Y15045D02*
X193341Y15028D01*
X193383Y15012D01*
X193439Y14998D01*
X193507Y14987D01*
X193684Y14970D01*
X193913Y14962D01*
X194047Y14961D01*
Y13386D01*
X192744Y13506D01*
X193295Y15065D01*
X193312Y15045D01*
D02*
G37*
%LPC*%
G36*
X49842Y343291D02*
X25432D01*
X25426Y343290D01*
X25426Y343290D01*
Y343290D01*
X24207Y343170D01*
X23009Y342807D01*
X21904Y342216D01*
X21445Y341839D01*
X21260D01*
Y341691D01*
X21257Y341690D01*
X21253Y341688D01*
X21248Y341687D01*
X21122Y341602D01*
X20994Y341519D01*
X20992Y341515D01*
X20987Y341513D01*
X20903Y341386D01*
X20885Y341360D01*
X20141Y340453D01*
X19550Y339348D01*
X19186Y338149D01*
X19064Y336903D01*
X19066Y336882D01*
X19066Y336881D01*
Y324839D01*
X19065Y324839D01*
X19062Y324811D01*
X19065Y324781D01*
X19066Y324744D01*
X19073Y324709D01*
X19185Y323564D01*
X19549Y322366D01*
X20140Y321261D01*
X20934Y320292D01*
X21903Y319498D01*
X23007Y318907D01*
X24206Y318544D01*
X25424Y318424D01*
Y318424D01*
X25431Y318423D01*
X25436Y318424D01*
X26203Y318431D01*
X49019D01*
X49781Y318413D01*
X49787Y318412D01*
X49793Y318413D01*
Y318413D01*
X51012Y318533D01*
X52210Y318897D01*
X53315Y319487D01*
X54283Y320282D01*
X55078Y321250D01*
X55669Y322355D01*
X56032Y323554D01*
X56155Y324800D01*
X56152Y324829D01*
X56152D01*
Y336878D01*
X56154Y336898D01*
X56152Y336917D01*
Y336939D01*
X56148Y336961D01*
X56031Y338144D01*
X55668Y339343D01*
X55077Y340448D01*
X54282Y341416D01*
X53314Y342211D01*
X52209Y342801D01*
X51010Y343165D01*
X49950Y343269D01*
X49842Y343291D01*
D02*
G37*
G36*
X5630Y344105D02*
X4832Y344000D01*
X4089Y343692D01*
X3451Y343203D01*
X2961Y342564D01*
X2654Y341821D01*
X2548Y341024D01*
X2654Y340226D01*
X2961Y339483D01*
X3451Y338845D01*
X4089Y338355D01*
X4832Y338047D01*
X5630Y337942D01*
X6427Y338047D01*
X7171Y338355D01*
X7809Y338845D01*
X8299Y339483D01*
X8606Y340226D01*
X8711Y341024D01*
X8606Y341821D01*
X8299Y342564D01*
X7809Y343203D01*
X7171Y343692D01*
X6427Y344000D01*
X5630Y344105D01*
D02*
G37*
G36*
X374799Y304943D02*
X374131Y304855D01*
X373509Y304597D01*
X372974Y304187D01*
X372564Y303653D01*
X372306Y303030D01*
X372218Y302362D01*
X372306Y301694D01*
X372564Y301072D01*
X372974Y300537D01*
X373509Y300127D01*
X374131Y299869D01*
X374799Y299781D01*
X375467Y299869D01*
X376090Y300127D01*
X376624Y300537D01*
X377034Y301072D01*
X377292Y301694D01*
X377380Y302362D01*
X377292Y303030D01*
X377034Y303653D01*
X376624Y304187D01*
X376090Y304597D01*
X375467Y304855D01*
X374799Y304943D01*
D02*
G37*
G36*
X381988Y298759D02*
X381220Y298606D01*
X380569Y298171D01*
X380134Y297520D01*
X379981Y296752D01*
X379991Y296702D01*
X379980Y296650D01*
X379966Y296600D01*
X379949Y296556D01*
X379930Y296515D01*
X379909Y296477D01*
X379886Y296442D01*
X376677Y293233D01*
X376649Y293216D01*
X376621Y293200D01*
X376590Y293188D01*
X376557Y293178D01*
X376520Y293170D01*
X376476Y293164D01*
X376425Y293162D01*
X376375Y293163D01*
X376240Y293190D01*
X375472Y293037D01*
X374820Y292602D01*
X374385Y291951D01*
X374233Y291183D01*
X374385Y290415D01*
X374820Y289764D01*
X375472Y289329D01*
X376240Y289176D01*
X377008Y289329D01*
X377659Y289764D01*
X378094Y290415D01*
X378247Y291183D01*
X378237Y291232D01*
X378248Y291285D01*
X378262Y291335D01*
X378279Y291379D01*
X378298Y291420D01*
X378319Y291458D01*
X378342Y291493D01*
X381551Y294702D01*
X381579Y294719D01*
X381608Y294734D01*
X381638Y294747D01*
X381671Y294757D01*
X381708Y294765D01*
X381752Y294771D01*
X381803Y294773D01*
X381853Y294772D01*
X381988Y294745D01*
X382756Y294898D01*
X383407Y295333D01*
X383842Y295984D01*
X383995Y296752D01*
X383842Y297520D01*
X383407Y298171D01*
X382756Y298606D01*
X381988Y298759D01*
D02*
G37*
G36*
X368209Y302756D02*
X358760D01*
X358955Y298915D01*
X359307D01*
X359546Y298128D01*
X359546Y298128D01*
X359154Y297542D01*
X359016Y296850D01*
X359154Y296159D01*
X358906Y295561D01*
X358878Y295555D01*
X358226Y295120D01*
X357791Y294469D01*
X357639Y293701D01*
X357791Y292933D01*
X358226Y292282D01*
X358878Y291847D01*
X358906Y291841D01*
X359154Y291242D01*
X359016Y290551D01*
X359154Y289860D01*
X359048Y289605D01*
X358779Y289551D01*
X358128Y289116D01*
X357693Y288465D01*
X357540Y287697D01*
X357693Y286929D01*
X358128Y286278D01*
X358779Y285843D01*
X359547Y285690D01*
X360047Y285789D01*
X360132Y285733D01*
X360823Y285595D01*
X367713D01*
X368404Y285733D01*
X368990Y286124D01*
X369381Y286710D01*
X369519Y287402D01*
X369381Y288093D01*
X368990Y288679D01*
Y289274D01*
X369381Y289860D01*
X369519Y290551D01*
X369381Y291242D01*
X368990Y291828D01*
Y292424D01*
X369381Y293009D01*
X369519Y293701D01*
X369381Y294392D01*
X368990Y294978D01*
Y295573D01*
X369381Y296159D01*
X369519Y296850D01*
X369381Y297542D01*
X368990Y298128D01*
X368764Y298279D01*
X368399Y298915D01*
X368265Y299050D01*
X368241Y299141D01*
X368200Y299131D01*
X368138Y299109D01*
X368092Y299084D01*
X368209Y299668D01*
Y302756D01*
D02*
G37*
G36*
X374799Y287620D02*
X374131Y287532D01*
X373509Y287275D01*
X372974Y286864D01*
X372564Y286330D01*
X372306Y285707D01*
X372218Y285039D01*
X372306Y284371D01*
X372564Y283749D01*
X372974Y283214D01*
X373509Y282804D01*
X374131Y282546D01*
X374799Y282458D01*
X375467Y282546D01*
X376090Y282804D01*
X376624Y283214D01*
X377034Y283749D01*
X377292Y284371D01*
X377380Y285039D01*
X377292Y285707D01*
X377034Y286330D01*
X376624Y286864D01*
X376090Y287275D01*
X375467Y287532D01*
X374799Y287620D01*
D02*
G37*
%LPD*%
G36*
X48380Y342126D02*
X50254D01*
X53093Y340945D01*
X51894D01*
X52996Y340574D01*
X54994Y337453D01*
Y323486D01*
X52680Y320608D01*
X51725Y320473D01*
X50860Y319936D01*
X25062D01*
X24224Y320147D01*
Y320052D01*
X23995Y320205D01*
X22933Y320472D01*
Y320917D01*
X22580Y321153D01*
X22047D01*
Y321510D01*
X20965Y322236D01*
Y339272D01*
X22047Y340191D01*
Y340945D01*
X21555D01*
X24165Y341989D01*
X24224Y342039D01*
Y342012D01*
X24508Y342126D01*
X48228D01*
Y342177D01*
X48380Y342126D01*
D02*
G37*
%LPC*%
G36*
X40819Y340945D02*
X36273D01*
X36128Y340252D01*
X35895Y339586D01*
X35596Y339054D01*
X35330Y338621D01*
X35064Y338255D01*
X34831Y338022D01*
X34698Y337889D01*
X34631Y337856D01*
X34365Y337690D01*
X34099Y337557D01*
X33433Y337324D01*
X32768Y337158D01*
X32103Y337024D01*
X31504Y336958D01*
X31238Y336925D01*
X31005D01*
X30805Y336891D01*
X30539D01*
Y332766D01*
X34997D01*
Y321358D01*
X40819D01*
Y340945D01*
D02*
G37*
%LPD*%
G36*
X40087Y321820D02*
X35729D01*
Y333431D01*
X31238D01*
Y336226D01*
X32136Y336326D01*
X32934Y336492D01*
X33633Y336658D01*
X34165Y336858D01*
X34631Y337058D01*
X34931Y337224D01*
X35130Y337357D01*
X35197Y337390D01*
X35662Y337823D01*
X36062Y338289D01*
X36361Y338788D01*
X36594Y339287D01*
X36760Y339719D01*
X36860Y340052D01*
X36893Y340185D01*
X36927Y340285D01*
Y340351D01*
Y340385D01*
X40087D01*
Y321820D01*
D02*
G37*
G36*
X381913Y295573D02*
X381795Y295577D01*
X381682Y295571D01*
X381572Y295557D01*
X381467Y295534D01*
X381365Y295503D01*
X381268Y295463D01*
X381175Y295414D01*
X381085Y295356D01*
X381000Y295290D01*
X380919Y295216D01*
X380394Y295804D01*
X380468Y295884D01*
X380534Y295968D01*
X380594Y296057D01*
X380646Y296150D01*
X380691Y296248D01*
X380729Y296350D01*
X380760Y296457D01*
X380783Y296568D01*
X380799Y296684D01*
X380808Y296804D01*
X381913Y295573D01*
D02*
G37*
G36*
X377834Y292131D02*
X377760Y292051D01*
X377694Y291967D01*
X377634Y291878D01*
X377582Y291785D01*
X377537Y291687D01*
X377499Y291585D01*
X377468Y291478D01*
X377445Y291367D01*
X377429Y291251D01*
X377420Y291131D01*
X376315Y292362D01*
X376433Y292358D01*
X376546Y292364D01*
X376656Y292378D01*
X376761Y292401D01*
X376863Y292432D01*
X376960Y292472D01*
X377053Y292521D01*
X377143Y292578D01*
X377228Y292645D01*
X377309Y292719D01*
X377834Y292131D01*
D02*
G37*
G36*
X364473Y301786D02*
X364488Y301617D01*
X364513Y301467D01*
X364547Y301338D01*
X364592Y301228D01*
X364646Y301139D01*
X364710Y301069D01*
X364784Y301019D01*
X364867Y300989D01*
X364961Y300979D01*
X362992D01*
X363086Y300989D01*
X363169Y301019D01*
X363243Y301069D01*
X363307Y301139D01*
X363361Y301228D01*
X363405Y301338D01*
X363440Y301467D01*
X363465Y301617D01*
X363479Y301786D01*
X363484Y301976D01*
X364469D01*
X364473Y301786D01*
D02*
G37*
G36*
X360443Y299084D02*
X360383Y299118D01*
X360308Y299148D01*
X360219Y299175D01*
X360116Y299198D01*
X359998Y299218D01*
X359719Y299246D01*
X359383Y299260D01*
X359193Y299262D01*
X359006Y300246D01*
X359226Y300250D01*
X359592Y300280D01*
X359738Y300306D01*
X359858Y300340D01*
X359953Y300381D01*
X360023Y300430D01*
X360068Y300487D01*
X360088Y300551D01*
X360084Y300622D01*
X360443Y299084D01*
D02*
G37*
%LPC*%
G36*
X188307Y76446D02*
X187434Y76331D01*
X186619Y75994D01*
X185920Y75458D01*
X185384Y74758D01*
X185047Y73944D01*
X184932Y73071D01*
Y71102D01*
X185047Y70229D01*
X185384Y69415D01*
X185920Y68716D01*
X186619Y68179D01*
X187434Y67842D01*
X188307Y67727D01*
X189181Y67842D01*
X189995Y68179D01*
X190694Y68716D01*
X191230Y69415D01*
X191567Y70229D01*
X191682Y71102D01*
Y73071D01*
X191567Y73944D01*
X191230Y74758D01*
X190694Y75458D01*
X189995Y75994D01*
X189181Y76331D01*
X188307Y76446D01*
D02*
G37*
G36*
X217520Y43785D02*
X217382Y43767D01*
X216748Y43504D01*
X216877Y43430D01*
X217258Y43243D01*
X217520Y43138D01*
Y43785D01*
D02*
G37*
G36*
X199094D02*
Y43138D01*
X199356Y43243D01*
X199737Y43430D01*
X199866Y43504D01*
X199232Y43767D01*
X199094Y43785D01*
D02*
G37*
G36*
X217520Y40373D02*
X217386Y40118D01*
X217520D01*
Y40373D01*
D02*
G37*
G36*
X214733Y40253D02*
Y40118D01*
X214806D01*
X214733Y40253D01*
D02*
G37*
G36*
X201881D02*
X201809Y40118D01*
X201881D01*
Y40253D01*
D02*
G37*
G36*
X199145Y40276D02*
X199094D01*
Y40118D01*
X199228D01*
X199145Y40276D01*
D02*
G37*
G36*
X195825Y42876D02*
X195780Y42842D01*
X195212Y42102D01*
X194855Y41240D01*
X194733Y40315D01*
Y40118D01*
X197520D01*
Y40276D01*
X197048D01*
X197100Y40358D01*
X197147Y40457D01*
X197188Y40572D01*
X197224Y40704D01*
X197254Y40853D01*
X197298Y41201D01*
X197312Y41401D01*
X197323Y41850D01*
X197520D01*
Y41980D01*
X196001Y41378D01*
X196171Y41471D01*
X196286Y41592D01*
X196344Y41741D01*
X196347Y41919D01*
X196293Y42125D01*
X196184Y42360D01*
X196018Y42623D01*
X195825Y42876D01*
D02*
G37*
G36*
X119095Y43785D02*
Y40118D01*
X121881D01*
Y40315D01*
X121759Y41240D01*
X121402Y42102D01*
X120834Y42842D01*
X120094Y43410D01*
X119232Y43767D01*
X119095Y43785D01*
D02*
G37*
G36*
X117520D02*
X117382Y43767D01*
X116520Y43410D01*
X115780Y42842D01*
X115212Y42102D01*
X114855Y41240D01*
X114733Y40315D01*
Y40118D01*
X117520D01*
Y43785D01*
D02*
G37*
G36*
X217520Y38543D02*
X216560D01*
X215943Y37367D01*
X215754Y37955D01*
X215530Y38543D01*
X214733D01*
Y38346D01*
X214855Y37422D01*
X215212Y36560D01*
X215780Y35819D01*
X216520Y35251D01*
X217382Y34894D01*
X217520Y34876D01*
Y38543D01*
D02*
G37*
G36*
X201881D02*
X201084D01*
X200861Y37955D01*
X200672Y37367D01*
X200054Y38543D01*
X199094D01*
Y34876D01*
X199232Y34894D01*
X200094Y35251D01*
X200834Y35819D01*
X201402Y36560D01*
X201759Y37422D01*
X201881Y38346D01*
Y38543D01*
D02*
G37*
G36*
X178307Y43690D02*
X177434Y43575D01*
X176619Y43238D01*
X175920Y42702D01*
X175384Y42003D01*
X175047Y41189D01*
X174932Y40315D01*
Y38346D01*
X175047Y37473D01*
X175384Y36659D01*
X175920Y35960D01*
X176619Y35423D01*
X177434Y35086D01*
X178307Y34971D01*
X179181Y35086D01*
X179995Y35423D01*
X180694Y35960D01*
X181230Y36659D01*
X181567Y37473D01*
X181682Y38346D01*
Y40315D01*
X181567Y41189D01*
X181230Y42003D01*
X180694Y42702D01*
X179995Y43238D01*
X179181Y43575D01*
X178307Y43690D01*
D02*
G37*
G36*
X168307D02*
X167434Y43575D01*
X166619Y43238D01*
X165920Y42702D01*
X165384Y42003D01*
X165047Y41189D01*
X164932Y40315D01*
Y38346D01*
X165047Y37473D01*
X165384Y36659D01*
X165920Y35960D01*
X166619Y35423D01*
X167434Y35086D01*
X168307Y34971D01*
X169181Y35086D01*
X169995Y35423D01*
X170694Y35960D01*
X171230Y36659D01*
X171567Y37473D01*
X171682Y38346D01*
Y40315D01*
X171567Y41189D01*
X171230Y42003D01*
X170694Y42702D01*
X169995Y43238D01*
X169181Y43575D01*
X168307Y43690D01*
D02*
G37*
G36*
X158307D02*
X157433Y43575D01*
X156619Y43238D01*
X155920Y42702D01*
X155384Y42003D01*
X155047Y41189D01*
X154932Y40315D01*
Y38346D01*
X155047Y37473D01*
X155384Y36659D01*
X155920Y35960D01*
X156619Y35423D01*
X157433Y35086D01*
X158307Y34971D01*
X159181Y35086D01*
X159995Y35423D01*
X160694Y35960D01*
X161230Y36659D01*
X161567Y37473D01*
X161682Y38346D01*
Y40315D01*
X161567Y41189D01*
X161230Y42003D01*
X160694Y42702D01*
X159995Y43238D01*
X159181Y43575D01*
X158307Y43690D01*
D02*
G37*
G36*
X148307D02*
X147433Y43575D01*
X146619Y43238D01*
X145920Y42702D01*
X145384Y42003D01*
X145047Y41189D01*
X144932Y40315D01*
Y38346D01*
X145047Y37473D01*
X145384Y36659D01*
X145920Y35960D01*
X146619Y35423D01*
X147433Y35086D01*
X148307Y34971D01*
X149181Y35086D01*
X149995Y35423D01*
X150694Y35960D01*
X151230Y36659D01*
X151567Y37473D01*
X151682Y38346D01*
Y40315D01*
X151567Y41189D01*
X151230Y42003D01*
X150694Y42702D01*
X149995Y43238D01*
X149181Y43575D01*
X148307Y43690D01*
D02*
G37*
G36*
X138307D02*
X137434Y43575D01*
X136619Y43238D01*
X135920Y42702D01*
X135384Y42003D01*
X135047Y41189D01*
X134932Y40315D01*
Y38346D01*
X135047Y37473D01*
X135384Y36659D01*
X135920Y35960D01*
X136619Y35423D01*
X137434Y35086D01*
X138307Y34971D01*
X139181Y35086D01*
X139995Y35423D01*
X140694Y35960D01*
X141230Y36659D01*
X141567Y37473D01*
X141682Y38346D01*
Y40315D01*
X141567Y41189D01*
X141230Y42003D01*
X140694Y42702D01*
X139995Y43238D01*
X139181Y43575D01*
X138307Y43690D01*
D02*
G37*
G36*
X128307D02*
X127434Y43575D01*
X126619Y43238D01*
X125920Y42702D01*
X125384Y42003D01*
X125047Y41189D01*
X124932Y40315D01*
Y38346D01*
X125047Y37473D01*
X125384Y36659D01*
X125920Y35960D01*
X126619Y35423D01*
X127434Y35086D01*
X128307Y34971D01*
X129181Y35086D01*
X129995Y35423D01*
X130694Y35960D01*
X131230Y36659D01*
X131567Y37473D01*
X131682Y38346D01*
Y40315D01*
X131567Y41189D01*
X131230Y42003D01*
X130694Y42702D01*
X129995Y43238D01*
X129181Y43575D01*
X128307Y43690D01*
D02*
G37*
G36*
X108307D02*
X107433Y43575D01*
X106619Y43238D01*
X105920Y42702D01*
X105384Y42003D01*
X105047Y41189D01*
X104932Y40315D01*
Y38346D01*
X105047Y37473D01*
X105384Y36659D01*
X105920Y35960D01*
X106619Y35423D01*
X107433Y35086D01*
X108307Y34971D01*
X109181Y35086D01*
X109995Y35423D01*
X110694Y35960D01*
X111230Y36659D01*
X111567Y37473D01*
X111682Y38346D01*
Y40315D01*
X111567Y41189D01*
X111230Y42003D01*
X110694Y42702D01*
X109995Y43238D01*
X109181Y43575D01*
X108307Y43690D01*
D02*
G37*
G36*
X197520Y38543D02*
X194733D01*
Y38346D01*
X194855Y37422D01*
X195212Y36560D01*
X195780Y35819D01*
X196520Y35251D01*
X197382Y34894D01*
X197520Y34876D01*
Y38543D01*
D02*
G37*
G36*
X121881D02*
X119095D01*
Y34876D01*
X119232Y34894D01*
X120094Y35251D01*
X120834Y35819D01*
X121402Y36560D01*
X121759Y37422D01*
X121881Y38346D01*
Y38543D01*
D02*
G37*
G36*
X117520D02*
X114733D01*
Y38346D01*
X114855Y37422D01*
X115212Y36560D01*
X115780Y35819D01*
X116520Y35251D01*
X117382Y34894D01*
X117520Y34876D01*
Y38543D01*
D02*
G37*
G36*
X119095Y33785D02*
Y30118D01*
X121881D01*
Y30315D01*
X121759Y31240D01*
X121402Y32102D01*
X120834Y32842D01*
X120094Y33410D01*
X119232Y33767D01*
X119095Y33785D01*
D02*
G37*
G36*
X117520D02*
X117382Y33767D01*
X116520Y33410D01*
X115780Y32842D01*
X115212Y32102D01*
X114855Y31240D01*
X114733Y30315D01*
Y30118D01*
X117520D01*
Y33785D01*
D02*
G37*
G36*
X178307Y33690D02*
X177434Y33575D01*
X176619Y33238D01*
X175920Y32702D01*
X175384Y32003D01*
X175047Y31189D01*
X174932Y30315D01*
Y28346D01*
X175047Y27473D01*
X175384Y26659D01*
X175920Y25960D01*
X176619Y25423D01*
X177434Y25086D01*
X178307Y24971D01*
X179181Y25086D01*
X179995Y25423D01*
X180694Y25960D01*
X181230Y26659D01*
X181567Y27473D01*
X181682Y28346D01*
Y30315D01*
X181567Y31189D01*
X181230Y32003D01*
X180694Y32702D01*
X179995Y33238D01*
X179181Y33575D01*
X178307Y33690D01*
D02*
G37*
G36*
X168307D02*
X167434Y33575D01*
X166619Y33238D01*
X165920Y32702D01*
X165384Y32003D01*
X165047Y31189D01*
X164932Y30315D01*
Y28346D01*
X165047Y27473D01*
X165384Y26659D01*
X165920Y25960D01*
X166619Y25423D01*
X167434Y25086D01*
X168307Y24971D01*
X169181Y25086D01*
X169995Y25423D01*
X170694Y25960D01*
X171230Y26659D01*
X171567Y27473D01*
X171682Y28346D01*
Y30315D01*
X171567Y31189D01*
X171230Y32003D01*
X170694Y32702D01*
X169995Y33238D01*
X169181Y33575D01*
X168307Y33690D01*
D02*
G37*
G36*
X158307D02*
X157433Y33575D01*
X156619Y33238D01*
X155920Y32702D01*
X155384Y32003D01*
X155047Y31189D01*
X154932Y30315D01*
Y28346D01*
X155047Y27473D01*
X155384Y26659D01*
X155920Y25960D01*
X156619Y25423D01*
X157433Y25086D01*
X158307Y24971D01*
X159181Y25086D01*
X159995Y25423D01*
X160694Y25960D01*
X161230Y26659D01*
X161567Y27473D01*
X161682Y28346D01*
Y30315D01*
X161567Y31189D01*
X161230Y32003D01*
X160694Y32702D01*
X159995Y33238D01*
X159181Y33575D01*
X158307Y33690D01*
D02*
G37*
G36*
X148307D02*
X147433Y33575D01*
X146619Y33238D01*
X145920Y32702D01*
X145384Y32003D01*
X145047Y31189D01*
X144932Y30315D01*
Y28346D01*
X145047Y27473D01*
X145384Y26659D01*
X145920Y25960D01*
X146619Y25423D01*
X147433Y25086D01*
X148307Y24971D01*
X149181Y25086D01*
X149995Y25423D01*
X150694Y25960D01*
X151230Y26659D01*
X151567Y27473D01*
X151682Y28346D01*
Y30315D01*
X151567Y31189D01*
X151230Y32003D01*
X150694Y32702D01*
X149995Y33238D01*
X149181Y33575D01*
X148307Y33690D01*
D02*
G37*
G36*
X138307D02*
X137434Y33575D01*
X136619Y33238D01*
X135920Y32702D01*
X135384Y32003D01*
X135047Y31189D01*
X134932Y30315D01*
Y28346D01*
X135047Y27473D01*
X135384Y26659D01*
X135920Y25960D01*
X136619Y25423D01*
X137434Y25086D01*
X138307Y24971D01*
X139181Y25086D01*
X139995Y25423D01*
X140694Y25960D01*
X141230Y26659D01*
X141567Y27473D01*
X141682Y28346D01*
Y30315D01*
X141567Y31189D01*
X141230Y32003D01*
X140694Y32702D01*
X139995Y33238D01*
X139181Y33575D01*
X138307Y33690D01*
D02*
G37*
G36*
X128307D02*
X127434Y33575D01*
X126619Y33238D01*
X125920Y32702D01*
X125384Y32003D01*
X125047Y31189D01*
X124932Y30315D01*
Y28346D01*
X125047Y27473D01*
X125384Y26659D01*
X125920Y25960D01*
X126619Y25423D01*
X127434Y25086D01*
X128307Y24971D01*
X129181Y25086D01*
X129995Y25423D01*
X130694Y25960D01*
X131230Y26659D01*
X131567Y27473D01*
X131682Y28346D01*
Y30315D01*
X131567Y31189D01*
X131230Y32003D01*
X130694Y32702D01*
X129995Y33238D01*
X129181Y33575D01*
X128307Y33690D01*
D02*
G37*
G36*
X108307D02*
X107433Y33575D01*
X106619Y33238D01*
X105920Y32702D01*
X105384Y32003D01*
X105047Y31189D01*
X104932Y30315D01*
Y28346D01*
X105047Y27473D01*
X105384Y26659D01*
X105920Y25960D01*
X106619Y25423D01*
X107433Y25086D01*
X108307Y24971D01*
X109181Y25086D01*
X109995Y25423D01*
X110694Y25960D01*
X111230Y26659D01*
X111567Y27473D01*
X111682Y28346D01*
Y30315D01*
X111567Y31189D01*
X111230Y32003D01*
X110694Y32702D01*
X109995Y33238D01*
X109181Y33575D01*
X108307Y33690D01*
D02*
G37*
G36*
X121881Y28543D02*
X119095D01*
Y24876D01*
X119232Y24894D01*
X120094Y25251D01*
X120834Y25819D01*
X121402Y26559D01*
X121759Y27422D01*
X121881Y28346D01*
Y28543D01*
D02*
G37*
G36*
X117520D02*
X114733D01*
Y28346D01*
X114855Y27422D01*
X115212Y26559D01*
X115780Y25819D01*
X116520Y25251D01*
X117382Y24894D01*
X117520Y24876D01*
Y28543D01*
D02*
G37*
G36*
X319882Y30160D02*
X318184Y29993D01*
X316551Y29498D01*
X315047Y28693D01*
X313728Y27611D01*
X312645Y26292D01*
X311841Y24787D01*
X311346Y23155D01*
X311179Y21457D01*
X311346Y19759D01*
X311841Y18126D01*
X312645Y16621D01*
X313728Y15303D01*
X315047Y14220D01*
X316551Y13416D01*
X318184Y12921D01*
X319882Y12753D01*
X321580Y12921D01*
X323213Y13416D01*
X324717Y14220D01*
X326036Y15303D01*
X327118Y16621D01*
X327923Y18126D01*
X328418Y19759D01*
X328585Y21457D01*
X328418Y23155D01*
X327923Y24787D01*
X327118Y26292D01*
X326036Y27611D01*
X324717Y28693D01*
X323213Y29498D01*
X321580Y29993D01*
X319882Y30160D01*
D02*
G37*
G36*
X343012Y8514D02*
X342214Y8410D01*
X341471Y8102D01*
X340833Y7612D01*
X340343Y6974D01*
X340035Y6231D01*
X339930Y5433D01*
X340035Y4636D01*
X340343Y3892D01*
X340833Y3254D01*
X341471Y2764D01*
X342214Y2457D01*
X343012Y2352D01*
X343809Y2457D01*
X344552Y2764D01*
X345191Y3254D01*
X345680Y3892D01*
X345988Y4636D01*
X346093Y5433D01*
X345988Y6231D01*
X345680Y6974D01*
X345191Y7612D01*
X344552Y8102D01*
X343809Y8410D01*
X343012Y8514D01*
D02*
G37*
%LPD*%
D10*
X225325Y96698D02*
X229331Y100705D01*
X225325Y91506D02*
Y96698D01*
Y91506D02*
X228307Y88524D01*
X229331Y100705D02*
Y101083D01*
X228307Y72087D02*
Y88524D01*
X276378Y87795D02*
Y89665D01*
X278740Y100886D02*
Y102564D01*
X279259Y103083D02*
X281451D01*
X278740Y102564D02*
X279259Y103083D01*
X276772Y96358D02*
Y98917D01*
X278740Y100886D01*
X276378Y89665D02*
X276673Y89961D01*
X24388Y317285D02*
X41323D01*
X363976Y299898D02*
Y302953D01*
X364071Y299705D02*
X370177D01*
X320479Y86916D02*
X324020D01*
X363976Y299898D02*
X364022Y299852D01*
X370177Y298425D02*
X370374Y298622D01*
X358957Y298524D02*
X359006Y298474D01*
Y299754D02*
X364022D01*
X390354Y88041D02*
Y88829D01*
X144291Y75394D02*
X148917Y80020D01*
X144685D02*
X144747Y80082D01*
X142520Y77854D02*
X144685Y80020D01*
X142520Y66142D02*
Y77854D01*
X138307Y62087D02*
X138465D01*
X142520Y66142D01*
X144291Y66102D02*
Y75394D01*
Y66102D02*
X148307Y62087D01*
X276673Y96260D02*
X276772Y96358D01*
D14*
X227785Y95669D02*
X229980Y93474D01*
X278543Y148425D02*
Y251083D01*
X276969Y150191D02*
Y253445D01*
X220708Y87440D02*
Y92618D01*
X218996Y85728D02*
X220708Y87440D01*
X218996Y72776D02*
Y85728D01*
X218307Y72087D02*
X218996Y72776D01*
X229980Y80335D02*
Y93474D01*
Y80335D02*
X233504Y76811D01*
X249856D02*
X254581Y72087D01*
X233504Y76811D02*
X249856D01*
X254581Y72087D02*
X258307D01*
X68898Y232283D02*
X71653D01*
X30526Y249055D02*
X48819D01*
X69907Y228912D02*
X73844D01*
X59842Y238879D02*
Y239273D01*
Y238879D02*
X59939D01*
X69907Y228912D01*
X75419Y205970D02*
Y227337D01*
X73844Y228912D02*
X75419Y227337D01*
X74508Y234252D02*
X76994Y231766D01*
Y152585D02*
Y231766D01*
X70768Y234252D02*
X74508D01*
X72047Y235827D02*
X75161D01*
X78569Y232419D01*
Y145374D02*
Y232419D01*
Y139592D02*
Y145374D01*
X82972Y235754D02*
Y239273D01*
Y235754D02*
X83293Y235433D01*
X79980Y235596D02*
Y239273D01*
Y235596D02*
X81718Y233858D01*
X75354Y237860D02*
Y239273D01*
Y237860D02*
X80144Y233071D01*
X70728Y237146D02*
Y239273D01*
Y237146D02*
X72047Y235827D01*
X67422Y237598D02*
Y239273D01*
Y237598D02*
X70768Y234252D01*
X64468Y236713D02*
X68898Y232283D01*
X72360Y202912D02*
X75419Y205970D01*
X72360Y201908D02*
Y202912D01*
X70689Y200236D02*
X72360Y201908D01*
X64468Y236713D02*
Y239273D01*
X56400Y237896D02*
X62598Y231697D01*
Y125849D02*
Y231697D01*
X55216Y238879D02*
Y239273D01*
Y238879D02*
X56200Y237896D01*
X56400D01*
X62598Y101673D02*
X68366Y95906D01*
X62598Y101673D02*
Y110371D01*
X61417Y111552D02*
Y124668D01*
X62598Y125849D01*
X61417Y111552D02*
X62598Y110371D01*
X84868Y97466D02*
Y283157D01*
X86443Y96814D02*
Y283810D01*
X72909Y149018D02*
X73168D01*
Y149083D01*
X69784Y145378D02*
X72909Y148504D01*
X69784Y145374D02*
Y145378D01*
Y143307D02*
Y145374D01*
X81718Y233858D02*
X81718Y100321D01*
X83293Y235433D02*
X83293Y99668D01*
X80057Y288250D02*
X84055Y284252D01*
Y283970D02*
Y284252D01*
Y283970D02*
X84868Y283157D01*
X82026Y288508D02*
X85827Y284707D01*
Y284426D02*
Y284707D01*
Y284426D02*
X86443Y283810D01*
X82026Y288508D02*
Y289825D01*
X68366Y95906D02*
X69673D01*
Y91843D02*
Y95906D01*
X69685Y200236D02*
X70689D01*
X73168Y149083D02*
X73227Y149141D01*
X73551D01*
X76994Y152585D01*
X64567Y113592D02*
Y123228D01*
X62992Y112205D02*
Y124016D01*
X78569Y139592D01*
X64567Y123228D02*
X80143Y138805D01*
Y144390D01*
X64567Y113592D02*
X77362Y100796D01*
Y93270D02*
Y100796D01*
X75787Y92618D02*
Y99410D01*
X62992Y112205D02*
X75787Y99410D01*
X376240Y291183D02*
X376329D01*
X381898Y296752D01*
X381988D01*
X368071Y257776D02*
Y258366D01*
X368760Y259055D01*
X369350D01*
X369668Y259373D01*
X370670D01*
X371950Y260652D01*
Y264681D01*
X368504Y266142D02*
Y268110D01*
Y262659D02*
Y264173D01*
X361850Y257776D02*
X364370Y260295D01*
Y262205D02*
X368504D01*
X364370Y260295D02*
Y262205D01*
X372933Y269094D02*
X383563D01*
X384055Y268602D01*
X388780Y262319D02*
Y264681D01*
X384859Y268602D02*
X388780Y264681D01*
X384055Y268602D02*
X384859D01*
X361850Y257776D02*
X362194Y257432D01*
Y255805D02*
Y257432D01*
X356693Y257776D02*
X361850D01*
X356299Y257382D02*
X356693Y257776D01*
X368761Y266138D02*
X370690D01*
X359203Y268160D02*
X362352D01*
X359547Y268209D02*
X359596Y268160D01*
X358296Y262205D02*
X362205D01*
X356820Y263681D02*
X358296Y262205D01*
X356654Y263681D02*
X356820D01*
X361154Y264173D02*
X362205D01*
X360564Y264764D02*
X361154Y264173D01*
X360138Y264764D02*
X360564D01*
X362795Y266142D02*
X364507D01*
X365393Y265256D01*
X365650D01*
X370690Y265941D02*
X371950Y264681D01*
X377476Y261827D02*
X378839Y263189D01*
X372639Y261827D02*
X377476D01*
X112579Y83851D02*
Y87599D01*
X122618Y83851D02*
Y87599D01*
X145551Y83851D02*
Y87599D01*
X148701Y83851D02*
Y87599D01*
X152146Y83851D02*
Y87599D01*
X183937Y83851D02*
Y87599D01*
X202165Y87598D02*
Y91346D01*
X198721Y87598D02*
Y91346D01*
X195571Y87598D02*
Y91346D01*
X192126Y87598D02*
Y91346D01*
X180492Y87599D02*
Y91346D01*
X177342Y87599D02*
Y91346D01*
X173898Y87599D02*
Y91346D01*
X168976Y87599D02*
Y91346D01*
X165532Y87599D02*
Y91346D01*
X162382Y87599D02*
Y91346D01*
X158937Y87599D02*
Y91346D01*
X142106Y87599D02*
Y91346D01*
X137087Y87599D02*
Y91346D01*
X133642Y87599D02*
Y91346D01*
X130492Y87599D02*
Y91346D01*
X127047Y87599D02*
Y91346D01*
X119173Y87599D02*
Y91346D01*
X116024Y87599D02*
Y91346D01*
X116115Y91437D01*
X156673D01*
X278543Y251083D02*
X280812Y253352D01*
X282480D01*
X276181Y149404D02*
X276969Y150191D01*
X94673Y80413D02*
X130965D01*
X80807Y94280D02*
Y97182D01*
Y94280D02*
X94673Y80413D01*
X94021Y78839D02*
X122539D01*
X78937Y93923D02*
Y97539D01*
Y93923D02*
X94021Y78839D01*
X77362Y93270D02*
X93448Y77185D01*
X114193D01*
X92795Y75610D02*
X105768D01*
X75787Y92618D02*
X92795Y75610D01*
X130965Y80413D02*
X138307Y73071D01*
X69673Y91843D02*
X69784Y91732D01*
X72909Y148504D02*
Y149018D01*
X14410Y243701D02*
X25172D01*
X30526Y249055D01*
X138307Y72087D02*
Y73071D01*
X80807Y97182D02*
X83293Y99668D01*
X124377Y52854D02*
X124803D01*
X123590Y52067D02*
X124377Y52854D01*
X108268Y52067D02*
X123590D01*
X160768Y52953D02*
X195447D01*
X158504Y55216D02*
X160768Y52953D01*
X123825Y55216D02*
X158504D01*
X203346Y81398D02*
X203622Y81122D01*
Y58901D02*
Y81122D01*
X196099Y51378D02*
X203622Y58901D01*
X139075Y51378D02*
X196099D01*
X199902Y81398D02*
X202047Y79252D01*
Y59553D02*
Y79252D01*
X195447Y52953D02*
X202047Y59553D01*
X123047Y54439D02*
X123825Y55216D01*
X109856Y54439D02*
X123047D01*
X161427Y54931D02*
Y55691D01*
X160317Y56801D02*
X161427Y55691D01*
X110834Y56801D02*
X160317D01*
X198307Y72087D02*
Y73071D01*
X191457Y79921D02*
X198307Y73071D01*
X181299Y79921D02*
X191457D01*
X108307Y55988D02*
X109856Y54439D01*
X108307Y55988D02*
Y62087D01*
X85728Y93701D02*
X85827Y93799D01*
Y96198D01*
X86443Y96814D01*
X83169Y95768D02*
X84868Y97466D01*
X78937Y97539D02*
X81718Y100321D01*
X80057Y288250D02*
Y289825D01*
X80143Y144390D02*
X80144Y233071D01*
X80020Y289862D02*
X80057Y289825D01*
X81988Y289862D02*
X82026Y289825D01*
X276181Y147447D02*
X276969Y146659D01*
X276181Y147447D02*
Y149404D01*
X276969Y143504D02*
Y146659D01*
Y143504D02*
X277165Y143307D01*
X105768Y75610D02*
X108307Y73071D01*
Y72087D02*
Y73071D01*
X118307Y72087D02*
Y73071D01*
X114193Y77185D02*
X118307Y73071D01*
X128307Y72087D02*
Y73071D01*
X122539Y78839D02*
X128307Y73071D01*
X278781Y291576D02*
Y293444D01*
X278720Y293504D02*
X278781Y293444D01*
D19*
X365547Y313090D02*
D03*
Y274311D02*
D03*
D20*
X382279Y313090D02*
D03*
Y274311D02*
D03*
D21*
X364642Y276181D02*
D03*
X386098D02*
D03*
Y311221D02*
D03*
X364642D02*
D03*
D22*
X364268Y293701D02*
D03*
Y290551D02*
D03*
Y287402D02*
D03*
Y296850D02*
D03*
Y300000D02*
D03*
D23*
X69685Y115905D02*
D03*
X69685Y95906D02*
D03*
X69685Y167480D02*
D03*
X69685Y147480D02*
D03*
X69685Y220236D02*
D03*
X69685Y200236D02*
D03*
D24*
X18602Y93012D02*
D03*
Y105905D02*
D03*
Y118799D02*
D03*
X38484Y106004D02*
D03*
Y118898D02*
D03*
X18602Y144587D02*
D03*
Y157480D02*
D03*
Y170374D02*
D03*
X38484Y157579D02*
D03*
Y170472D02*
D03*
X18602Y197343D02*
D03*
Y210236D02*
D03*
Y223130D02*
D03*
X38484Y210335D02*
D03*
Y223228D02*
D03*
D25*
X36515Y93110D02*
D03*
Y144685D02*
D03*
Y197441D02*
D03*
D26*
X33622Y243701D02*
D03*
X13622Y243701D02*
D03*
D27*
X10728Y294783D02*
D03*
X23622D02*
D03*
X36516D02*
D03*
X23720Y274902D02*
D03*
X36614D02*
D03*
D28*
X10827Y276870D02*
D03*
D29*
X362205Y266142D02*
D03*
Y264173D02*
D03*
Y268110D02*
D03*
Y262205D02*
D03*
X368504Y268110D02*
D03*
Y266142D02*
D03*
Y264173D02*
D03*
Y262205D02*
D03*
D30*
X364370Y268307D02*
D03*
X366339D02*
D03*
Y262008D02*
D03*
X364370D02*
D03*
D31*
X367480Y257776D02*
D03*
X361260D02*
D03*
D32*
X69784Y91732D02*
D03*
X47736D02*
D03*
Y196063D02*
D03*
X69784D02*
D03*
X47736Y143307D02*
D03*
X69784D02*
D03*
D33*
X388387Y262319D02*
D03*
X371851D02*
D03*
D34*
X276673Y96260D02*
D03*
Y89961D02*
D03*
D35*
X10236Y243602D02*
D03*
Y265650D02*
D03*
D79*
X54647Y336876D02*
X54557Y337829D01*
X54283Y338746D01*
X53836Y339593D01*
X53232Y340335D01*
X52495Y340946D01*
X51652Y341401D01*
X50738Y341683D01*
X49785Y341781D01*
X25432Y341786D02*
X24480Y341688D01*
X23565Y341406D01*
X22723Y340951D01*
X21986Y340340D01*
X21382Y339598D01*
X20934Y338751D01*
X20661Y337834D01*
X20571Y336881D01*
X49787Y319917D02*
X50739Y320015D01*
X51654Y320297D01*
X52496Y320752D01*
X53233Y321363D01*
X53837Y322105D01*
X54285Y322952D01*
X54558Y323869D01*
X54648Y324822D01*
X20570Y324833D02*
X20659Y323880D01*
X20933Y322962D01*
X21381Y322116D01*
X21985Y321374D01*
X22722Y320763D01*
X23564Y320308D01*
X24479Y320026D01*
X25431Y319928D01*
X25432Y319936D02*
X49842D01*
X25432Y341786D02*
X49842D01*
X20571Y324744D02*
Y336881D01*
X54647Y324802D02*
Y336939D01*
D80*
X209252Y111988D02*
D03*
D81*
X156772Y83858D02*
D03*
X156673Y91437D02*
D03*
D82*
X183937Y87599D02*
D03*
X180492D02*
D03*
X177342D02*
D03*
X173898D02*
D03*
X168976D02*
D03*
X165532D02*
D03*
X162382D02*
D03*
X158937D02*
D03*
X152146D02*
D03*
X148701D02*
D03*
X145551D02*
D03*
X142106D02*
D03*
X137087D02*
D03*
X133642D02*
D03*
X130492D02*
D03*
X127047D02*
D03*
X122618D02*
D03*
X119173D02*
D03*
X116024Y87599D02*
D03*
X112579D02*
D03*
X192126Y87598D02*
D03*
X195571D02*
D03*
X198721D02*
D03*
X202165D02*
D03*
D83*
X89104Y141978D02*
D03*
D84*
X269321Y141486D02*
D03*
D85*
X269370Y283071D02*
D03*
D86*
X261742Y284990D02*
D03*
D87*
X266024Y283563D02*
D03*
D88*
X88919Y285569D02*
D03*
D89*
X175041Y286417D02*
D03*
D90*
X269862Y212303D02*
D03*
D91*
X179508Y140945D02*
D03*
D92*
X88071Y213866D02*
D03*
D93*
X230315Y141929D02*
D03*
D94*
X237008Y81201D02*
D03*
D95*
X255709Y79331D02*
D03*
D96*
X235039Y93012D02*
D03*
D97*
X223031Y103445D02*
D03*
D98*
X210630Y104331D02*
D03*
D99*
X271752Y120276D02*
D03*
X277047Y307973D02*
D03*
X277047Y300492D02*
D03*
D100*
X210630Y121235D02*
D03*
D101*
X237575Y139370D02*
D03*
D102*
X271416Y98612D02*
D03*
D103*
X355020Y267323D02*
D03*
D104*
X353642Y262303D02*
D03*
X131398Y294753D02*
D03*
D105*
X298721Y279085D02*
D03*
D106*
X326161Y257283D02*
D03*
D107*
X356594Y291388D02*
D03*
D108*
X323130Y315650D02*
D03*
D109*
X78248Y304872D02*
D03*
D110*
X102559Y289665D02*
D03*
D111*
X121457Y302510D02*
D03*
D112*
X99803Y315650D02*
D03*
D113*
X81988Y289862D02*
D03*
X80020D02*
D03*
D114*
X120768Y289665D02*
D03*
D115*
X296752Y269931D02*
D03*
D116*
X276260Y256693D02*
D03*
D117*
X296634Y297638D02*
D03*
D118*
X281791Y304035D02*
D03*
D119*
X286729Y255807D02*
D03*
D120*
X276260Y272392D02*
D03*
D121*
X277668Y290168D02*
D03*
D122*
X280689Y87355D02*
D03*
D123*
X280413Y94252D02*
D03*
D124*
X283957Y87067D02*
D03*
D125*
X284191Y251755D02*
D03*
D126*
X337598Y254921D02*
D03*
D127*
X281010Y220357D02*
D03*
D128*
X281010Y152017D02*
D03*
D129*
X281004Y115157D02*
D03*
D130*
X390256Y139272D02*
D03*
D131*
X342815Y87303D02*
D03*
D132*
X317231Y89582D02*
D03*
X373825D02*
D03*
X378769D02*
D03*
D133*
X389130Y253804D02*
D03*
D134*
X390262Y244827D02*
D03*
D135*
X281581Y103347D02*
D03*
D136*
X267175Y316240D02*
D03*
D137*
X124705Y302635D02*
D03*
D138*
X196653Y289173D02*
D03*
D139*
X183268Y316043D02*
D03*
D140*
X278917Y299311D02*
D03*
D141*
X67422Y239273D02*
D03*
X70728D02*
D03*
X64468D02*
D03*
X75354D02*
D03*
X79980D02*
D03*
X82972D02*
D03*
X59842D02*
D03*
X55216D02*
D03*
D142*
X52953Y271260D02*
D03*
D143*
X65207Y291929D02*
D03*
D144*
X53543Y291339D02*
D03*
D145*
X31693Y113287D02*
D03*
Y164862D02*
D03*
Y217618D02*
D03*
D146*
X26378Y93701D02*
D03*
Y145276D02*
D03*
Y198031D02*
D03*
D147*
X31004Y281693D02*
D03*
D148*
X11417Y287008D02*
D03*
D149*
X179429Y67224D02*
D03*
X181004D02*
D03*
D150*
X271780Y83459D02*
X276678D01*
X277421Y82717D02*
X296864D01*
X276678Y83459D02*
X277421Y82717D01*
X298130Y82677D02*
X304035Y76772D01*
X271654Y83586D02*
Y86221D01*
X296864Y82717D02*
X296903Y82677D01*
X271654Y83586D02*
X271780Y83459D01*
X296903Y82677D02*
X298130D01*
X275984Y139272D02*
X276575Y138681D01*
Y121167D02*
Y138681D01*
X274750Y119783D02*
X275191D01*
X276575Y121167D01*
X28740Y118110D02*
Y124311D01*
Y105905D02*
Y112303D01*
Y93799D02*
Y100000D01*
Y118110D02*
Y124311D01*
Y105905D02*
Y112303D01*
Y93799D02*
Y100000D01*
X216831Y22835D02*
Y22863D01*
X213386Y26308D02*
X216831Y22863D01*
X197992Y39331D02*
X198307D01*
X211772Y45866D02*
X218307Y39331D01*
X204842Y45866D02*
X211772D01*
X198307Y39331D02*
X204842Y45866D01*
X193386Y26004D02*
X196260Y23130D01*
X188307Y38346D02*
Y39331D01*
Y38346D02*
X193386Y33268D01*
Y26004D02*
Y33268D01*
X208307Y38346D02*
Y39331D01*
Y38346D02*
X213386Y33268D01*
Y26308D02*
Y33268D01*
X60798Y62421D02*
X62323D01*
X28740Y87992D02*
Y100000D01*
Y112303D02*
Y124311D01*
Y100000D02*
Y112303D01*
D151*
X272835Y68504D02*
Y71850D01*
X280551Y79567D02*
X295559D01*
X272835Y71850D02*
X274173Y73189D01*
X278189Y77205D02*
X280551Y79567D01*
X274173Y74783D02*
X276595Y77205D01*
X278189D01*
X274173Y73189D02*
Y74783D01*
X268169Y287106D02*
X271831Y283445D01*
X271850Y248507D02*
X271850Y248507D01*
X271831Y282500D02*
Y283445D01*
X266146Y287106D02*
X268169D01*
X265287Y287966D02*
X266146Y287106D01*
X265287Y287966D02*
Y289183D01*
X271850Y248507D02*
Y282480D01*
X271831Y282500D02*
X271850Y282480D01*
X275000Y151006D02*
Y250673D01*
X274213Y150219D02*
X275000Y151006D01*
X275984Y139272D02*
Y139311D01*
X271850Y143445D02*
Y248507D01*
X264173Y61122D02*
Y64961D01*
X266142Y66929D01*
X269685Y67205D02*
X271535D01*
X272835Y68504D01*
X267657Y54606D02*
X272441Y59390D01*
Y63386D02*
X275984Y66929D01*
X272441Y59390D02*
Y63386D01*
X282165Y67205D02*
X283858Y68898D01*
X279684Y67205D02*
X282165D01*
X283858Y68898D02*
Y74468D01*
X286595Y77205D02*
X290019D01*
X283858Y74468D02*
X286595Y77205D01*
X290019D02*
X292618Y74606D01*
X41339Y196161D02*
X47933D01*
X283366Y56890D02*
X283465Y56988D01*
X214173Y62087D02*
Y77953D01*
X274606Y251066D02*
X275000Y250673D01*
X251870Y14173D02*
X263484Y25787D01*
X192224Y14567D02*
X192438D01*
X192831Y14173D02*
X251870D01*
X192438Y14567D02*
X192831Y14173D01*
X157087Y77559D02*
X159843Y80315D01*
X152795Y77559D02*
X157087D01*
X148307Y73071D02*
X152795Y77559D01*
X148307Y72087D02*
Y73071D01*
X274213Y146631D02*
Y150219D01*
X274456Y145426D02*
X274606Y145276D01*
X274213Y146631D02*
X274456Y146388D01*
Y145426D02*
Y146388D01*
X260019Y56968D02*
X264173Y61122D01*
X239114Y56968D02*
X260019D01*
X224173Y42027D02*
X239114Y56968D01*
X224173Y36181D02*
Y42027D01*
X218307Y30315D02*
X224173Y36181D01*
X242598Y54606D02*
X267657D01*
X228307Y40315D02*
X242598Y54606D01*
X228307Y39331D02*
Y40315D01*
X295559Y79567D02*
X297753Y77373D01*
X292618Y74606D02*
X299508D01*
X253150Y45158D02*
X272890D01*
X248307Y40315D02*
X253150Y45158D01*
X248307Y39331D02*
Y40315D01*
X247874Y49882D02*
X270933D01*
X238307Y40315D02*
X247874Y49882D01*
X238307Y39331D02*
Y40315D01*
X271850Y143445D02*
X275984Y139311D01*
X273622Y41476D02*
X277057Y44911D01*
X279852D01*
X232874Y41142D02*
X243976Y52244D01*
X232874Y34882D02*
Y41142D01*
X243976Y52244D02*
X269955D01*
X274601Y56890D02*
X283366D01*
X288287Y53642D02*
X288337Y53592D01*
X274693Y53642D02*
X288287D01*
X270933Y49882D02*
X274693Y53642D01*
X271912Y47520D02*
X275278Y50886D01*
X284842D01*
X275469Y47736D02*
X282185D01*
X272890Y45158D02*
X275469Y47736D01*
X243406Y41260D02*
X249666Y47520D01*
X271912D01*
X238307Y29331D02*
Y30315D01*
X243406Y35413D01*
Y41260D01*
X269955Y52244D02*
X274601Y56890D01*
X270571Y34744D02*
X273622Y37795D01*
Y41476D01*
X266359Y34213D02*
X266930D01*
X263484Y31338D02*
X266359Y34213D01*
X263484Y25787D02*
Y31338D01*
X228307Y29331D02*
Y30315D01*
X232874Y34882D01*
X218307Y29331D02*
Y30315D01*
X281345Y304974D02*
X281496Y304823D01*
X281345Y304974D02*
Y306844D01*
X280217Y307973D02*
X281345Y306844D01*
X277441Y307973D02*
X280217D01*
X47933Y143405D02*
Y151870D01*
X41339Y143405D02*
X47933D01*
X9449Y265650D02*
Y272244D01*
Y265650D02*
X17913D01*
X47933Y196161D02*
Y204626D01*
Y91831D02*
Y100295D01*
X41339Y91831D02*
X47933D01*
D152*
X371749Y84153D02*
X373825Y86229D01*
Y89468D01*
X326249Y84153D02*
X371749D01*
X324173Y82078D02*
X326249Y84153D01*
X324173Y69970D02*
Y82078D01*
X378769Y81505D02*
Y89582D01*
X376694Y79429D02*
X378769Y81505D01*
X330973Y79429D02*
X376694D01*
X78465Y117953D02*
X78543D01*
X75394D02*
X78465D01*
X73543Y116102D02*
X73701D01*
X69685D02*
X73504D01*
X78465Y114213D02*
X78543D01*
X75394D02*
X78465D01*
X73504Y116102D02*
X75394Y114213D01*
X67520Y164803D02*
X71653D01*
X67520Y170709D02*
X71653D01*
X305315Y79232D02*
X309547Y83465D01*
X314961D01*
X317231Y85734D01*
Y89089D01*
X328898Y68013D02*
Y77354D01*
X330973Y79429D01*
X196260Y23130D02*
X201673Y17717D01*
X247677D02*
X258307Y28346D01*
X201673Y17717D02*
X247677D01*
X288307Y29331D02*
Y39331D01*
X324606Y47028D02*
Y63721D01*
X328898Y68013D01*
X295885Y18307D02*
X324606Y47028D01*
X278346Y18307D02*
X295885D01*
X268307Y28346D02*
X278346Y18307D01*
X319882Y65678D02*
X324173Y69970D01*
X319882Y48985D02*
Y65678D01*
X315385Y44488D02*
X319882Y48985D01*
X242795Y22835D02*
X248307Y28346D01*
X216831Y22835D02*
X242795D01*
X258307Y28346D02*
Y29331D01*
X248307Y28346D02*
Y29331D01*
X295571Y24761D02*
X315298Y44488D01*
X315385D01*
X295571Y24761D02*
Y24761D01*
X293841Y23031D02*
X295571Y24761D01*
X283622Y23031D02*
X293841D01*
X268307Y28346D02*
Y29331D01*
X278307Y28346D02*
Y29331D01*
Y28346D02*
X283622Y23031D01*
X278307Y39331D02*
X288307D01*
X78465Y114213D02*
X78543Y114134D01*
X73504Y116102D02*
X73543D01*
X75394Y117953D01*
X62323Y62913D02*
X72953Y73543D01*
X54759Y57480D02*
X57475Y60197D01*
X49361Y57480D02*
X54759D01*
X43337Y63504D02*
X49361Y57480D01*
X20472Y68307D02*
Y86417D01*
Y68307D02*
X25276Y63504D01*
X43337D01*
X72953Y73543D02*
X77165D01*
X20472Y86417D02*
X28740Y94685D01*
X78465Y117953D02*
X78543Y117874D01*
D153*
X228307Y62087D02*
X233386Y67165D01*
X228307Y62087D02*
Y62087D01*
X233386Y67165D02*
X259938D01*
X260194Y67421D01*
X260236D02*
X262303Y69488D01*
X260194Y67421D02*
X260236D01*
X261713Y76083D02*
X261939Y75857D01*
Y75007D02*
Y75857D01*
Y75007D02*
X262303Y74643D01*
Y69488D02*
Y74643D01*
X269547Y67067D02*
X269685Y67205D01*
X266280Y67067D02*
X269547D01*
X266142Y66929D02*
X266280Y67067D01*
X279547D02*
X279684Y67205D01*
X276122Y67067D02*
X279547D01*
X275984Y66929D02*
X276122Y67067D01*
X274016Y251657D02*
Y285925D01*
Y251657D02*
X274803Y250869D01*
X165059Y55315D02*
X166732Y56988D01*
X193209D01*
X198307Y62087D01*
X266930Y34213D02*
X267126Y34409D01*
X270236D01*
X270571Y34744D01*
D154*
X297100Y297362D02*
Y297756D01*
X123228Y48425D02*
X191732D01*
X213386Y78740D02*
Y87500D01*
Y78740D02*
X214173Y77953D01*
X209370Y62087D02*
X214173D01*
X218307D01*
X208307Y63150D02*
X209370Y62087D01*
X181004Y67224D02*
X182185D01*
X183521Y65889D01*
X183596D01*
X178307Y76673D02*
Y83169D01*
Y73150D02*
Y76673D01*
X178248Y73091D02*
X178307Y73150D01*
X178248Y63209D02*
Y73091D01*
Y63209D02*
X178307Y63150D01*
X118307Y43504D02*
X123228Y48425D01*
X191732D02*
X193799Y46358D01*
X271752Y119783D02*
X274750D01*
X178602Y62165D02*
X188602D01*
X304035Y76575D02*
Y76772D01*
X193799Y46358D02*
X198307Y41850D01*
Y39331D02*
Y41850D01*
X118307Y39331D02*
Y43504D01*
D155*
X305315Y67716D02*
Y79232D01*
X293258Y44478D02*
Y55660D01*
X305315Y67716D01*
X288307Y39331D02*
Y39528D01*
X293258Y44478D01*
D156*
X271654Y86221D02*
Y97501D01*
D157*
X58711Y60433D02*
X60798Y62520D01*
D158*
X374799Y285039D02*
D03*
Y302362D02*
D03*
D159*
X234744Y132776D02*
D03*
X213287Y105807D02*
D03*
X242224Y110236D02*
D03*
X267126Y137992D02*
D03*
X234813Y112175D02*
D03*
X352772Y290075D02*
D03*
X319390Y287402D02*
D03*
X302756Y290039D02*
D03*
X332579Y287402D02*
D03*
X341339D02*
D03*
X324016D02*
D03*
X296555Y309350D02*
D03*
X104331Y296063D02*
D03*
X107776Y293996D02*
D03*
X108957Y299016D02*
D03*
X108661Y312992D02*
D03*
X290354Y267815D02*
D03*
X293898D02*
D03*
X278839D02*
D03*
X283858D02*
D03*
X286043Y293110D02*
D03*
X230118Y315158D02*
D03*
X273031D02*
D03*
X131398Y300197D02*
D03*
X174213Y315158D02*
D03*
X125932D02*
D03*
X75059Y279035D02*
D03*
X82284Y277362D02*
D03*
X74213Y275197D02*
D03*
X75059Y271752D02*
D03*
X82284Y267126D02*
D03*
X75354Y268406D02*
D03*
X77126Y262008D02*
D03*
X82284Y259449D02*
D03*
X75000Y286516D02*
D03*
X58957Y287697D02*
D03*
X227785Y95669D02*
D03*
X229331Y101083D02*
D03*
X276279Y103051D02*
D03*
X253150Y78839D02*
D03*
X279331Y86417D02*
D03*
X272539Y78347D02*
D03*
X272244Y155709D02*
D03*
X275984Y139272D02*
D03*
X276378Y87795D02*
D03*
X232874Y85728D02*
D03*
X223524Y79724D02*
D03*
X215551Y94587D02*
D03*
X261713Y76083D02*
D03*
X122835Y288583D02*
D03*
X123228Y306299D02*
D03*
X75197Y313779D02*
D03*
X54724Y295276D02*
D03*
X70866Y231890D02*
D03*
X48819Y249213D02*
D03*
X376240Y291183D02*
D03*
X381988Y296752D02*
D03*
X280906Y315945D02*
D03*
X389567Y255906D02*
D03*
X372933Y269094D02*
D03*
X365650Y265256D02*
D03*
X359744Y264764D02*
D03*
X356654Y263681D02*
D03*
X375886Y265158D02*
D03*
X359547Y268209D02*
D03*
X275492Y288189D02*
D03*
X267028Y284350D02*
D03*
X297736Y281102D02*
D03*
X285236Y254724D02*
D03*
X298228Y256791D02*
D03*
X273819Y285433D02*
D03*
X378839Y263189D02*
D03*
X341535Y256102D02*
D03*
X310531Y256299D02*
D03*
X363288Y290650D02*
D03*
X362303Y303346D02*
D03*
X356594Y275689D02*
D03*
X283465Y56988D02*
D03*
X267717Y55216D02*
D03*
X215059Y101969D02*
D03*
X230315Y140157D02*
D03*
X213386Y87500D02*
D03*
X206004Y67126D02*
D03*
X282382Y253352D02*
D03*
X346063Y46752D02*
D03*
X389173Y77658D02*
D03*
X320472Y34941D02*
D03*
X314075Y60335D02*
D03*
X295177Y33760D02*
D03*
X96161Y289075D02*
D03*
X86910Y318406D02*
D03*
X319094Y319390D02*
D03*
X356890Y319193D02*
D03*
X386910D02*
D03*
X388878Y302461D02*
D03*
X388681Y282579D02*
D03*
X220708Y92618D02*
D03*
X103839Y54232D02*
D03*
X153051Y35827D02*
D03*
X133957Y23524D02*
D03*
X186713Y22835D02*
D03*
X212598Y21752D02*
D03*
X230709Y55020D02*
D03*
X218110D02*
D03*
X207677Y54724D02*
D03*
X203346Y81398D02*
D03*
X199902D02*
D03*
X183596Y65889D02*
D03*
X165059Y55315D02*
D03*
X161723Y55423D02*
D03*
X181299Y79921D02*
D03*
X159843Y80315D02*
D03*
X148425Y79823D02*
D03*
X144685Y80020D02*
D03*
X110834Y56801D02*
D03*
X124803Y52854D02*
D03*
X108268Y52067D02*
D03*
X139075Y51378D02*
D03*
X178248Y48917D02*
D03*
X85728Y93701D02*
D03*
X83169Y95768D02*
D03*
X209941Y107283D02*
D03*
X276969Y253445D02*
D03*
X272244Y248720D02*
D03*
X335728Y60925D02*
D03*
X332874D02*
D03*
X335728Y63287D02*
D03*
X332874D02*
D03*
X335728Y65650D02*
D03*
X332874D02*
D03*
X335728Y68012D02*
D03*
X332874D02*
D03*
X335728Y70374D02*
D03*
X332874D02*
D03*
Y72736D02*
D03*
X335728D02*
D03*
Y75098D02*
D03*
X332874D02*
D03*
X297753Y77373D02*
D03*
X299508Y74606D02*
D03*
X278543Y148425D02*
D03*
X276772Y142815D02*
D03*
X288337Y53592D02*
D03*
X284842Y50886D02*
D03*
X282185Y47736D02*
D03*
X279852Y44911D02*
D03*
X192224Y14567D02*
D03*
X274606Y145276D02*
D03*
X359547Y287697D02*
D03*
X359646Y293701D02*
D03*
X116807Y341315D02*
D03*
X145351D02*
D03*
X173894D02*
D03*
X202437D02*
D03*
X373697D02*
D03*
X339272Y9843D02*
D03*
X193799Y46358D02*
D03*
X345154Y341315D02*
D03*
X316611D02*
D03*
X288067D02*
D03*
X259524D02*
D03*
X230981D02*
D03*
X88264D02*
D03*
X88878Y3937D02*
D03*
X117421D02*
D03*
X145965D02*
D03*
X174508D02*
D03*
X203051D02*
D03*
X231594D02*
D03*
X260138D02*
D03*
X288681D02*
D03*
X317224D02*
D03*
X86122Y29823D02*
D03*
X345965Y20079D02*
D03*
X94882Y68504D02*
D03*
X96260Y51279D02*
D03*
D160*
X54331Y41142D02*
D03*
X77165D02*
D03*
X65748Y50315D02*
D03*
X54331Y73150D02*
D03*
X77165D02*
D03*
D161*
X208307Y62087D02*
D03*
X288307Y72087D02*
D03*
Y62087D02*
D03*
X278307Y72087D02*
D03*
Y62087D02*
D03*
X268307Y72087D02*
D03*
Y62087D02*
D03*
X258307Y72087D02*
D03*
Y62087D02*
D03*
X248307Y72087D02*
D03*
Y62087D02*
D03*
X238307Y72087D02*
D03*
Y62087D02*
D03*
X228307Y72087D02*
D03*
Y62087D02*
D03*
X218307Y72087D02*
D03*
Y62087D02*
D03*
X208307Y72087D02*
D03*
Y29331D02*
D03*
X288307Y39331D02*
D03*
Y29331D02*
D03*
X278307Y39331D02*
D03*
Y29331D02*
D03*
X268307Y39331D02*
D03*
Y29331D02*
D03*
X258307Y39331D02*
D03*
Y29331D02*
D03*
X248307Y39331D02*
D03*
Y29331D02*
D03*
X238307Y39331D02*
D03*
Y29331D02*
D03*
X228307Y39331D02*
D03*
Y29331D02*
D03*
X218307Y39331D02*
D03*
Y29331D02*
D03*
X208307Y39331D02*
D03*
X108307Y62087D02*
D03*
Y72087D02*
D03*
X118307Y62087D02*
D03*
Y72087D02*
D03*
X128307Y62087D02*
D03*
Y72087D02*
D03*
X138307Y62087D02*
D03*
Y72087D02*
D03*
X148307Y62087D02*
D03*
Y72087D02*
D03*
X158307Y62087D02*
D03*
Y72087D02*
D03*
X168307Y62087D02*
D03*
Y72087D02*
D03*
X178307Y62087D02*
D03*
Y72087D02*
D03*
X188307Y62087D02*
D03*
Y72087D02*
D03*
X198307Y62087D02*
D03*
Y72087D02*
D03*
X108307Y29331D02*
D03*
Y39331D02*
D03*
X118307Y29331D02*
D03*
Y39331D02*
D03*
X128307Y29331D02*
D03*
Y39331D02*
D03*
X138307Y29331D02*
D03*
Y39331D02*
D03*
X148307Y29331D02*
D03*
Y39331D02*
D03*
X158307Y29331D02*
D03*
Y39331D02*
D03*
X168307Y29331D02*
D03*
Y39331D02*
D03*
X178307Y29331D02*
D03*
Y39331D02*
D03*
X188307Y29331D02*
D03*
Y39331D02*
D03*
X198307Y29331D02*
D03*
Y39331D02*
D03*
D162*
X5630Y341024D02*
D03*
X343012Y5433D02*
D03*
X5630D02*
D03*
D163*
X28543Y124114D02*
D03*
Y112106D02*
D03*
Y99803D02*
D03*
Y87795D02*
D03*
X40944D02*
D03*
X35728D02*
D03*
X40944Y99803D02*
D03*
X35728D02*
D03*
X42913Y112106D02*
D03*
X35728D02*
D03*
Y124114D02*
D03*
X42913D02*
D03*
X50098Y101181D02*
D03*
Y112106D02*
D03*
Y124114D02*
D03*
X28543Y93799D02*
D03*
Y105905D02*
D03*
X28543Y118110D02*
D03*
X50098D02*
D03*
X50098Y106102D02*
D03*
X28543Y175689D02*
D03*
Y163681D02*
D03*
Y151378D02*
D03*
Y139370D02*
D03*
X40944D02*
D03*
X35728D02*
D03*
X40944Y151378D02*
D03*
X35728D02*
D03*
X42913Y163681D02*
D03*
X35728D02*
D03*
Y175689D02*
D03*
X42913D02*
D03*
X50098Y152756D02*
D03*
Y163681D02*
D03*
Y175689D02*
D03*
X28543Y145374D02*
D03*
Y157480D02*
D03*
X28543Y169685D02*
D03*
X50098D02*
D03*
X50098Y157677D02*
D03*
X28543Y228445D02*
D03*
Y216437D02*
D03*
Y204134D02*
D03*
Y192126D02*
D03*
X40944D02*
D03*
X35728D02*
D03*
X40944Y204134D02*
D03*
X35728D02*
D03*
X42913Y216437D02*
D03*
X35728D02*
D03*
Y228445D02*
D03*
X42913D02*
D03*
X50098Y205512D02*
D03*
Y216437D02*
D03*
Y228445D02*
D03*
X28543Y198130D02*
D03*
Y210236D02*
D03*
X28543Y222441D02*
D03*
X50098D02*
D03*
X50098Y210433D02*
D03*
X41831Y284843D02*
D03*
X29823D02*
D03*
X17520D02*
D03*
X5512D02*
D03*
Y272441D02*
D03*
Y277658D02*
D03*
X17520Y272441D02*
D03*
Y277658D02*
D03*
X29823Y270473D02*
D03*
Y277658D02*
D03*
X41831D02*
D03*
Y270473D02*
D03*
X18898Y263288D02*
D03*
X29823D02*
D03*
X41831D02*
D03*
X11516Y284842D02*
D03*
X23622D02*
D03*
X35827Y284843D02*
D03*
Y263288D02*
D03*
X23819Y263288D02*
D03*
X67421Y164803D02*
D03*
X78543Y114134D02*
D03*
X31713Y242323D02*
D03*
X37618D02*
D03*
X71063Y222756D02*
D03*
X75394Y117953D02*
D03*
Y114213D02*
D03*
X67421Y170709D02*
D03*
X71653Y170630D02*
D03*
Y164724D02*
D03*
X67323Y222835D02*
D03*
Y216929D02*
D03*
X71063Y216850D02*
D03*
X31791Y245866D02*
D03*
X37697D02*
D03*
X78543Y117874D02*
D03*
M02*
