G04*
G04 #@! TF.GenerationSoftware,Altium Limited,Altium Designer,20.2.7 (254)*
G04*
G04 Layer_Physical_Order=2*
G04 Layer_Color=16711680*
%FSLAX25Y25*%
%MOIN*%
G70*
G04*
G04 #@! TF.SameCoordinates,F02F79C3-03E1-47DE-868D-05DBDBA98D82*
G04*
G04*
G04 #@! TF.FilePolarity,Positive*
G04*
G01*
G75*
%ADD10C,0.00984*%
%ADD12C,0.01000*%
%ADD14C,0.00787*%
%ADD132O,0.03937X0.05906*%
%ADD135O,0.03150X0.02362*%
%ADD150C,0.03150*%
%ADD151C,0.01575*%
%ADD152C,0.03937*%
%ADD153C,0.01181*%
%ADD154C,0.01968*%
%ADD156C,0.02362*%
%ADD158C,0.03543*%
%ADD159C,0.02362*%
%ADD160O,0.07087X0.07874*%
%ADD161O,0.05118X0.07087*%
%ADD162C,0.04535*%
%ADD163C,0.03937*%
G04:AMPARAMS|DCode=164|XSize=9.84mil|YSize=19.68mil|CornerRadius=4.92mil|HoleSize=0mil|Usage=FLASHONLY|Rotation=90.000|XOffset=0mil|YOffset=0mil|HoleType=Round|Shape=RoundedRectangle|*
%AMROUNDEDRECTD164*
21,1,0.00984,0.00984,0,0,90.0*
21,1,0.00000,0.01968,0,0,90.0*
1,1,0.00984,0.00492,0.00000*
1,1,0.00984,0.00492,0.00000*
1,1,0.00984,-0.00492,0.00000*
1,1,0.00984,-0.00492,0.00000*
%
%ADD164ROUNDEDRECTD164*%
G04:AMPARAMS|DCode=165|XSize=9.84mil|YSize=19.68mil|CornerRadius=4.92mil|HoleSize=0mil|Usage=FLASHONLY|Rotation=0.000|XOffset=0mil|YOffset=0mil|HoleType=Round|Shape=RoundedRectangle|*
%AMROUNDEDRECTD165*
21,1,0.00984,0.00984,0,0,0.0*
21,1,0.00000,0.01968,0,0,0.0*
1,1,0.00984,0.00000,-0.00492*
1,1,0.00984,0.00000,-0.00492*
1,1,0.00984,0.00000,0.00492*
1,1,0.00984,0.00000,0.00492*
%
%ADD165ROUNDEDRECTD165*%
%ADD166R,0.01968X0.03150*%
%ADD167R,0.01968X0.01575*%
%ADD168O,0.01575X0.00787*%
%ADD169O,0.02362X0.01575*%
%ADD170O,0.02362X0.03150*%
%ADD171O,0.44882X0.04331*%
%ADD172O,0.01575X0.02362*%
%ADD173O,1.00787X0.00787*%
%ADD174O,0.00787X1.60630*%
G04:AMPARAMS|DCode=175|XSize=7.87mil|YSize=47.24mil|CornerRadius=0mil|HoleSize=0mil|Usage=FLASHONLY|Rotation=45.000|XOffset=0mil|YOffset=0mil|HoleType=Round|Shape=Round|*
%AMOVALD175*
21,1,0.03937,0.00787,0.00000,0.00000,135.0*
1,1,0.00787,0.01392,-0.01392*
1,1,0.00787,-0.01392,0.01392*
%
%ADD175OVALD175*%

%ADD176C,0.07874*%
%ADD177C,0.06299*%
%ADD178C,0.07087*%
%ADD179R,0.28543X0.43504*%
%ADD180R,0.43504X0.28543*%
G36*
X109415Y312083D02*
X109328Y312005D01*
X109250Y311923D01*
X109181Y311838D01*
X109122Y311750D01*
X109071Y311657D01*
X109030Y311561D01*
X108998Y311461D01*
X108975Y311358D01*
X108961Y311251D01*
X108957Y311140D01*
X108169Y311210D01*
X108165Y311318D01*
X108153Y311424D01*
X108133Y311529D01*
X108105Y311633D01*
X108069Y311735D01*
X108025Y311835D01*
X107972Y311934D01*
X107912Y312031D01*
X107844Y312126D01*
X107767Y312221D01*
X109415Y312083D01*
D02*
G37*
G36*
X296258Y310493D02*
X295388Y309171D01*
X295378Y309186D01*
X295355Y309200D01*
X295318Y309212D01*
X295267Y309223D01*
X295202Y309232D01*
X295030Y309245D01*
X294670Y309252D01*
X294887Y310827D01*
X296258Y310493D01*
D02*
G37*
G36*
X374769Y292524D02*
X374385Y291951D01*
X374233Y291183D01*
X374385Y290415D01*
X374820Y289764D01*
X375472Y289329D01*
X376240Y289176D01*
X377008Y289329D01*
X377430Y289611D01*
X378160Y289313D01*
X378217Y289262D01*
Y265072D01*
X378070Y265043D01*
X377419Y264608D01*
X376984Y263957D01*
X376832Y263189D01*
X376984Y262421D01*
X377419Y261770D01*
X377470Y261736D01*
X377231Y260948D01*
X365157D01*
X364855Y261676D01*
X366107Y262928D01*
X366107Y262928D01*
X366369Y263319D01*
X366384Y263395D01*
X366418Y263402D01*
X367069Y263837D01*
X367504Y264488D01*
X367657Y265256D01*
X367504Y266024D01*
X367069Y266675D01*
X366418Y267110D01*
X365650Y267263D01*
X364881Y267110D01*
X364230Y266675D01*
X363795Y266024D01*
X363643Y265256D01*
X363795Y264488D01*
X363982Y264209D01*
X362297Y262523D01*
X361351D01*
X361112Y263311D01*
X361163Y263345D01*
X361598Y263996D01*
X361751Y264764D01*
X361598Y265532D01*
X361163Y266183D01*
X360966Y266314D01*
Y266790D01*
X361402Y267441D01*
X361554Y268209D01*
X361402Y268977D01*
X360966Y269628D01*
X360315Y270063D01*
X359547Y270216D01*
X358779Y270063D01*
X358295Y269739D01*
X358269Y269726D01*
X358244Y269706D01*
X358128Y269628D01*
X358118Y269612D01*
X358089Y269594D01*
X358040Y269568D01*
X357993Y269548D01*
X357948Y269532D01*
X357904Y269520D01*
X357860Y269511D01*
X309929D01*
X309701Y269740D01*
X309700Y269740D01*
X300439Y279001D01*
X300049Y279262D01*
X299588Y279354D01*
X299588Y279354D01*
X279151D01*
X278690Y279262D01*
X278300Y279001D01*
X270901Y271602D01*
X270639Y271211D01*
X269862Y271340D01*
Y282579D01*
X268779Y283662D01*
X264375D01*
Y284161D01*
X264276Y284661D01*
X263993Y285084D01*
X263570Y285367D01*
X263071Y285466D01*
X262571Y285367D01*
X262148Y285084D01*
X261693Y285039D01*
X261125Y285607D01*
X261452Y286394D01*
X269813D01*
X269813Y286394D01*
X270274Y286486D01*
X270665Y286747D01*
X273444Y289526D01*
X278746D01*
X279047Y288799D01*
X277288Y287039D01*
X274959D01*
X274587Y287287D01*
X273819Y287440D01*
X273051Y287287D01*
X272400Y286852D01*
X271965Y286201D01*
X271812Y285433D01*
X271965Y284665D01*
X272400Y284014D01*
X273051Y283579D01*
X273819Y283426D01*
X274587Y283579D01*
X274944Y283817D01*
X275137Y283827D01*
X277953D01*
X277953Y283827D01*
X278567Y283950D01*
X279088Y284298D01*
X285918Y291128D01*
X286043Y291103D01*
X286811Y291256D01*
X287462Y291691D01*
X287784Y292173D01*
X288654Y292416D01*
X309678Y271393D01*
X309678Y271393D01*
X310068Y271131D01*
X310529Y271040D01*
X310529Y271040D01*
X348622D01*
X348622Y271040D01*
X349083Y271131D01*
X349474Y271393D01*
X360637Y282556D01*
X361178D01*
X361178Y282556D01*
X361639Y282647D01*
X362030Y282908D01*
X364336Y285215D01*
X364597Y285605D01*
X364688Y286066D01*
X364688Y286066D01*
Y289022D01*
X364697Y289072D01*
X364710Y289124D01*
X364727Y289178D01*
X364749Y289234D01*
X364776Y289293D01*
X364808Y289354D01*
X364848Y289418D01*
X364905Y289501D01*
X364936Y289574D01*
X365142Y289882D01*
X365295Y290650D01*
X365142Y291418D01*
X364707Y292069D01*
X364056Y292504D01*
X363288Y292657D01*
X362520Y292504D01*
X361924Y293053D01*
X361777Y293273D01*
X361777Y293273D01*
X361684Y293365D01*
X361684Y293366D01*
X361655Y293405D01*
X361636Y293437D01*
X361625Y293459D01*
X361619Y293473D01*
X361618Y293478D01*
X361620Y293517D01*
X361619Y293529D01*
X361653Y293701D01*
X361500Y294469D01*
X361065Y295120D01*
X360414Y295555D01*
X359646Y295708D01*
X358878Y295555D01*
X358226Y295120D01*
X357791Y294469D01*
X357639Y293701D01*
X357791Y292933D01*
X358226Y292282D01*
X358878Y291847D01*
X359646Y291694D01*
X359721Y291632D01*
Y290472D01*
X359547Y289704D01*
X358779Y289551D01*
X358128Y289116D01*
X357693Y288465D01*
X357540Y287697D01*
X357591Y287443D01*
X355743Y285595D01*
X355743Y285595D01*
X346745Y276598D01*
X312333D01*
X301614Y287317D01*
X301658Y287420D01*
X301969Y287824D01*
Y289252D01*
X300541D01*
X300137Y288942D01*
X300034Y288897D01*
X293798Y295132D01*
X294186Y295858D01*
X294412Y295813D01*
X294412Y295813D01*
X305935D01*
X317560Y284188D01*
X317951Y283927D01*
X318411Y283835D01*
X318411Y283835D01*
X319580D01*
X322672Y280743D01*
X322672Y280743D01*
X323063Y280482D01*
X323524Y280390D01*
X344882D01*
X344882Y280390D01*
X345343Y280482D01*
X345733Y280743D01*
X350261Y285271D01*
X350261Y285271D01*
X350522Y285661D01*
X350614Y286122D01*
X350614Y286122D01*
Y288038D01*
X350753Y288149D01*
X351401Y288387D01*
X351927Y288035D01*
X351984Y288024D01*
Y290075D01*
Y292126D01*
X351927Y292115D01*
X351401Y291763D01*
X350753Y292001D01*
X350614Y292112D01*
Y294285D01*
X353156Y296827D01*
X362493D01*
X366808Y292513D01*
Y273721D01*
X366808Y273721D01*
X366899Y273260D01*
X367160Y272869D01*
X370789Y269241D01*
X370818Y269198D01*
X370847Y269152D01*
X370874Y269101D01*
X370899Y269045D01*
X370922Y268984D01*
X370943Y268916D01*
X370961Y268843D01*
X370981Y268743D01*
X371010Y268671D01*
X371079Y268326D01*
X371514Y267675D01*
X372165Y267240D01*
X372933Y267087D01*
X373701Y267240D01*
X374352Y267675D01*
X374787Y268326D01*
X374940Y269094D01*
X374787Y269863D01*
X374352Y270514D01*
X373701Y270949D01*
X372933Y271102D01*
X372655Y271046D01*
X372596Y271049D01*
X372519Y271038D01*
X372483Y271036D01*
X372456Y271037D01*
X372435Y271040D01*
X372418Y271044D01*
X372401Y271050D01*
X372384Y271059D01*
X372366Y271070D01*
X369216Y274219D01*
Y293012D01*
X369124Y293473D01*
X368863Y293863D01*
X368863Y293863D01*
X363844Y298883D01*
X363453Y299144D01*
X362992Y299236D01*
X362992Y299236D01*
X352658D01*
X352658Y299236D01*
X352197Y299144D01*
X351806Y298883D01*
X351806Y298883D01*
X348558Y295635D01*
X348297Y295244D01*
X348205Y294783D01*
X348205Y294783D01*
Y286621D01*
X344383Y282799D01*
X324022D01*
X321345Y285476D01*
X320930Y285891D01*
X321242Y286630D01*
X321244Y286633D01*
X321301Y286922D01*
X322104D01*
X322162Y286633D01*
X322597Y285982D01*
X323248Y285547D01*
X324016Y285395D01*
X324784Y285547D01*
X325435Y285982D01*
X325870Y286633D01*
X326023Y287402D01*
X325893Y288053D01*
X326211Y288418D01*
X326508Y288633D01*
X326876Y288560D01*
X330110D01*
X330645Y287772D01*
X330572Y287402D01*
X330724Y286633D01*
X331159Y285982D01*
X331811Y285547D01*
X332579Y285395D01*
X332679Y285414D01*
X332720Y285410D01*
X332770Y285402D01*
X332814Y285391D01*
X332854Y285378D01*
X332889Y285362D01*
X332923Y285344D01*
X332954Y285324D01*
X334089Y284188D01*
X334089Y284188D01*
X334480Y283927D01*
X334941Y283835D01*
X334941Y283835D01*
X342317D01*
X342317Y283835D01*
X342778Y283927D01*
X343169Y284188D01*
X345044Y286064D01*
X345044Y286064D01*
X345305Y286454D01*
X345397Y286915D01*
Y288976D01*
X345397Y288976D01*
X345305Y289437D01*
X345044Y289828D01*
X345044Y289828D01*
X342682Y292190D01*
X342292Y292451D01*
X341831Y292543D01*
X341831Y292543D01*
X328058D01*
X325655Y294946D01*
X325562Y295008D01*
X325525Y295044D01*
X325135Y295305D01*
X324674Y295397D01*
X324674Y295397D01*
X319692D01*
X312129Y302960D01*
X312431Y303687D01*
X360507D01*
X360507Y303687D01*
X360968Y303779D01*
X361359Y304040D01*
X361824Y304504D01*
X362789D01*
X374769Y292524D01*
D02*
G37*
G36*
X131247Y299026D02*
X131224Y299023D01*
X131194Y299010D01*
X131155Y298987D01*
X131108Y298953D01*
X130990Y298856D01*
X130840Y298718D01*
X130657Y298539D01*
X129724Y299833D01*
X130224Y300324D01*
X131247Y299026D01*
D02*
G37*
G36*
X109944Y299682D02*
X110025Y299604D01*
X110110Y299536D01*
X110199Y299476D01*
X110292Y299426D01*
X110388Y299384D01*
X110488Y299352D01*
X110591Y299329D01*
X110698Y299316D01*
X110809Y299311D01*
X110739Y298524D01*
X110631Y298520D01*
X110524Y298507D01*
X110419Y298487D01*
X110316Y298459D01*
X110214Y298423D01*
X110114Y298379D01*
X110015Y298327D01*
X109918Y298266D01*
X109822Y298198D01*
X109728Y298122D01*
X109866Y299769D01*
X109944Y299682D01*
D02*
G37*
G36*
X383172Y296621D02*
X383183Y296506D01*
X383201Y296396D01*
X383228Y296289D01*
X383263Y296187D01*
X383305Y296090D01*
X383356Y295996D01*
X383414Y295907D01*
X383481Y295822D01*
X383555Y295742D01*
X382998Y295185D01*
X382918Y295259D01*
X382833Y295326D01*
X382744Y295384D01*
X382650Y295435D01*
X382553Y295478D01*
X382451Y295512D01*
X382345Y295539D01*
X382234Y295557D01*
X382119Y295568D01*
X382000Y295571D01*
X383169Y296740D01*
X383172Y296621D01*
D02*
G37*
G36*
X105075Y295133D02*
X105001Y295044D01*
X104937Y294953D01*
X104880Y294859D01*
X104833Y294763D01*
X104794Y294663D01*
X104763Y294562D01*
X104742Y294457D01*
X104729Y294350D01*
X104724Y294241D01*
X103937D01*
X103933Y294350D01*
X103920Y294457D01*
X103898Y294562D01*
X103868Y294663D01*
X103829Y294763D01*
X103781Y294859D01*
X103725Y294953D01*
X103660Y295044D01*
X103586Y295133D01*
X103504Y295219D01*
X105157D01*
X105075Y295133D01*
D02*
G37*
G36*
X108763Y294655D02*
X108794Y294640D01*
X108838Y294628D01*
X108895Y294617D01*
X108965Y294608D01*
X109143Y294594D01*
X109507Y294587D01*
X109649Y293012D01*
X108469Y293040D01*
X108745Y294671D01*
X108763Y294655D01*
D02*
G37*
G36*
X376634Y292669D02*
X376657Y292362D01*
X376665Y292327D01*
X376674Y292300D01*
X376685Y292281D01*
X376697Y292272D01*
X375782D01*
X375794Y292281D01*
X375805Y292300D01*
X375815Y292327D01*
X375823Y292362D01*
X375830Y292406D01*
X375840Y292520D01*
X375845Y292669D01*
X375846Y292756D01*
X376633D01*
X376634Y292669D01*
D02*
G37*
G36*
X360814Y293479D02*
X360818Y293392D01*
X360833Y293306D01*
X360857Y293220D01*
X360890Y293133D01*
X360933Y293047D01*
X360986Y292960D01*
X361049Y292873D01*
X361122Y292787D01*
X361204Y292700D01*
X360647Y292143D01*
X360560Y292225D01*
X360473Y292297D01*
X360386Y292360D01*
X360300Y292413D01*
X360213Y292456D01*
X360127Y292490D01*
X360040Y292514D01*
X359954Y292528D01*
X359868Y292533D01*
X359782Y292528D01*
X360819Y293565D01*
X360814Y293479D01*
D02*
G37*
G36*
X285740Y291969D02*
X285714Y291969D01*
X285681Y291959D01*
X285639Y291939D01*
X285591Y291908D01*
X285534Y291866D01*
X285397Y291752D01*
X285229Y291595D01*
X285134Y291501D01*
X284440Y293034D01*
X284896Y293391D01*
X285740Y291969D01*
D02*
G37*
G36*
X364174Y289855D02*
X364112Y289753D01*
X364057Y289651D01*
X364009Y289548D01*
X363969Y289445D01*
X363936Y289341D01*
X363911Y289236D01*
X363893Y289131D01*
X363882Y289025D01*
X363878Y288918D01*
X363090Y288776D01*
X363086Y288888D01*
X363071Y288995D01*
X363048Y289098D01*
X363014Y289195D01*
X362971Y289288D01*
X362919Y289376D01*
X362856Y289459D01*
X362785Y289538D01*
X362704Y289611D01*
X362613Y289680D01*
X364243Y289956D01*
X364174Y289855D01*
D02*
G37*
G36*
X340284Y288823D02*
X340370Y288757D01*
X340459Y288701D01*
X340552Y288654D01*
X340649Y288617D01*
X340749Y288589D01*
X340853Y288571D01*
X340961Y288562D01*
X341073Y288563D01*
X341188Y288573D01*
X340164Y287274D01*
X340148Y287395D01*
X340125Y287511D01*
X340096Y287622D01*
X340060Y287729D01*
X340019Y287831D01*
X339971Y287928D01*
X339916Y288021D01*
X339856Y288109D01*
X339789Y288192D01*
X339715Y288271D01*
X340202Y288898D01*
X340284Y288823D01*
D02*
G37*
G36*
X322961D02*
X323047Y288757D01*
X323136Y288701D01*
X323229Y288654D01*
X323326Y288617D01*
X323426Y288589D01*
X323530Y288571D01*
X323638Y288562D01*
X323750Y288563D01*
X323865Y288573D01*
X322842Y287274D01*
X322825Y287395D01*
X322802Y287511D01*
X322773Y287622D01*
X322738Y287729D01*
X322696Y287831D01*
X322648Y287928D01*
X322593Y288021D01*
X322533Y288109D01*
X322466Y288192D01*
X322393Y288271D01*
X322879Y288898D01*
X322961Y288823D01*
D02*
G37*
G36*
X318335D02*
X318421Y288757D01*
X318510Y288701D01*
X318603Y288654D01*
X318700Y288617D01*
X318800Y288589D01*
X318904Y288571D01*
X319012Y288562D01*
X319124Y288563D01*
X319239Y288573D01*
X318216Y287274D01*
X318199Y287395D01*
X318176Y287511D01*
X318147Y287622D01*
X318112Y287729D01*
X318070Y287831D01*
X318022Y287928D01*
X317968Y288021D01*
X317907Y288109D01*
X317840Y288192D01*
X317766Y288271D01*
X318253Y288898D01*
X318335Y288823D01*
D02*
G37*
G36*
X59886Y288441D02*
X59975Y288368D01*
X60066Y288303D01*
X60160Y288246D01*
X60257Y288199D01*
X60356Y288160D01*
X60458Y288129D01*
X60562Y288108D01*
X60669Y288095D01*
X60779Y288091D01*
Y287303D01*
X60669Y287299D01*
X60562Y287286D01*
X60458Y287264D01*
X60356Y287234D01*
X60257Y287195D01*
X60160Y287147D01*
X60066Y287091D01*
X59975Y287026D01*
X59886Y286952D01*
X59800Y286870D01*
Y288524D01*
X59886Y288441D01*
D02*
G37*
G36*
X333763Y287271D02*
X333773Y287156D01*
X333792Y287045D01*
X333819Y286939D01*
X333853Y286837D01*
X333896Y286739D01*
X333946Y286646D01*
X334005Y286557D01*
X334071Y286472D01*
X334146Y286391D01*
X333589Y285835D01*
X333508Y285909D01*
X333423Y285976D01*
X333334Y286034D01*
X333241Y286085D01*
X333143Y286127D01*
X333041Y286162D01*
X332935Y286188D01*
X332824Y286207D01*
X332710Y286218D01*
X332591Y286221D01*
X333760Y287390D01*
X333763Y287271D01*
D02*
G37*
G36*
X76184Y286385D02*
X76195Y286270D01*
X76213Y286159D01*
X76240Y286053D01*
X76275Y285951D01*
X76317Y285854D01*
X76368Y285760D01*
X76426Y285671D01*
X76493Y285586D01*
X76567Y285506D01*
X76010Y284949D01*
X75930Y285023D01*
X75845Y285090D01*
X75756Y285148D01*
X75662Y285199D01*
X75565Y285241D01*
X75463Y285276D01*
X75356Y285302D01*
X75246Y285321D01*
X75131Y285332D01*
X75012Y285335D01*
X76181Y286504D01*
X76184Y286385D01*
D02*
G37*
G36*
X274677Y286252D02*
X274705Y286246D01*
X274746Y286240D01*
X274868Y286230D01*
X275273Y286221D01*
X275408Y286221D01*
X275408Y284646D01*
X274662Y284606D01*
X274662Y286260D01*
X274677Y286252D01*
D02*
G37*
G36*
X259156Y285190D02*
X259192Y284349D01*
X258288D01*
X258303Y284380D01*
X258317Y284424D01*
X258329Y284482D01*
X258340Y284553D01*
X258356Y284734D01*
X258368Y285107D01*
X258369Y285258D01*
X259156Y285190D01*
D02*
G37*
G36*
X224526Y285167D02*
X224547Y284349D01*
X223642D01*
X223660Y284384D01*
X223677Y284432D01*
X223691Y284493D01*
X223704Y284567D01*
X223723Y284753D01*
X223734Y284991D01*
X223738Y285280D01*
X224526Y285167D01*
D02*
G37*
G36*
X220195D02*
X220216Y284349D01*
X219311D01*
X219330Y284384D01*
X219346Y284432D01*
X219360Y284493D01*
X219373Y284567D01*
X219392Y284753D01*
X219404Y284991D01*
X219408Y285280D01*
X220195Y285167D01*
D02*
G37*
G36*
X215864D02*
X215885Y284349D01*
X214981D01*
X214999Y284384D01*
X215015Y284432D01*
X215030Y284493D01*
X215042Y284567D01*
X215061Y284753D01*
X215073Y284991D01*
X215077Y285280D01*
X215864Y285167D01*
D02*
G37*
G36*
X211534D02*
X211555Y284349D01*
X210650D01*
X210668Y284384D01*
X210685Y284432D01*
X210699Y284493D01*
X210712Y284567D01*
X210731Y284753D01*
X210742Y284991D01*
X210746Y285280D01*
X211534Y285167D01*
D02*
G37*
G36*
X198466Y285132D02*
X198500Y284569D01*
X198512Y284494D01*
X198527Y284433D01*
X198544Y284384D01*
X198562Y284349D01*
X197658D01*
X197661Y284362D01*
X197665Y284391D01*
X197670Y284493D01*
X197677Y285165D01*
X198465Y285283D01*
X198466Y285132D01*
D02*
G37*
G36*
X145631Y285073D02*
X145677Y284373D01*
X145688Y284349D01*
X144784D01*
X144795Y284373D01*
X144805Y284412D01*
X144814Y284464D01*
X144828Y284611D01*
X144840Y284937D01*
X144843Y285224D01*
X145630D01*
X145631Y285073D01*
D02*
G37*
G36*
X140434D02*
X140480Y284373D01*
X140492Y284349D01*
X139587D01*
X139598Y284373D01*
X139608Y284412D01*
X139617Y284464D01*
X139631Y284611D01*
X139643Y284937D01*
X139646Y285224D01*
X140433D01*
X140434Y285073D01*
D02*
G37*
G36*
X135237D02*
X135284Y284373D01*
X135295Y284349D01*
X134390D01*
X134401Y284373D01*
X134411Y284412D01*
X134420Y284464D01*
X134434Y284611D01*
X134447Y284937D01*
X134449Y285224D01*
X135236D01*
X135237Y285073D01*
D02*
G37*
G36*
X255429Y284850D02*
X255283Y284698D01*
X255052Y284424D01*
X254967Y284301D01*
X254903Y284187D01*
X254859Y284083D01*
X254835Y283989D01*
X254832Y283904D01*
X254849Y283828D01*
X254887Y283763D01*
X254222Y284614D01*
X254197Y284615D01*
X254192Y284635D01*
X254208Y284673D01*
X254245Y284728D01*
X254302Y284801D01*
X254479Y285000D01*
X254899Y285433D01*
X255429Y284850D01*
D02*
G37*
G36*
X246794Y284651D02*
X246649Y284500D01*
X246417Y284225D01*
X246330Y284100D01*
X246264Y283984D01*
X246217Y283877D01*
X246189Y283779D01*
X246182Y283690D01*
X246194Y283609D01*
X246225Y283537D01*
X245561Y284614D01*
X245586Y284623D01*
X245620Y284643D01*
X245663Y284674D01*
X245777Y284768D01*
X246016Y284990D01*
X246221Y285191D01*
X246794Y284651D01*
D02*
G37*
G36*
X251125Y284637D02*
X250980Y284486D01*
X250748Y284211D01*
X250662Y284087D01*
X250595Y283971D01*
X250548Y283864D01*
X250521Y283766D01*
X250513Y283676D01*
X250525Y283595D01*
X250556Y283523D01*
X249891Y284614D01*
X249920Y284624D01*
X249957Y284645D01*
X250003Y284676D01*
X250058Y284718D01*
X250193Y284834D01*
X250569Y285194D01*
X251125Y284637D01*
D02*
G37*
G36*
X88573Y283485D02*
X88548Y283496D01*
X88510Y283506D01*
X88457Y283515D01*
X88310Y283529D01*
X87984Y283541D01*
X87697Y283543D01*
Y284331D01*
X87848Y284331D01*
X88548Y284378D01*
X88573Y284389D01*
Y283485D01*
D02*
G37*
G36*
Y280886D02*
X88548Y280897D01*
X88510Y280907D01*
X88457Y280916D01*
X88310Y280930D01*
X87984Y280943D01*
X87697Y280945D01*
Y281732D01*
X87848Y281733D01*
X88548Y281780D01*
X88573Y281791D01*
Y280886D01*
D02*
G37*
G36*
Y278288D02*
X88548Y278299D01*
X88510Y278309D01*
X88457Y278318D01*
X88310Y278332D01*
X87984Y278344D01*
X87697Y278346D01*
Y279134D01*
X87848Y279134D01*
X88548Y279181D01*
X88573Y279192D01*
Y278288D01*
D02*
G37*
G36*
X83461Y277533D02*
X83540Y277310D01*
X83586Y277206D01*
X83636Y277106D01*
X83690Y277011D01*
X83749Y276920D01*
X83812Y276835D01*
X83880Y276753D01*
X83951Y276677D01*
X83552Y275963D01*
X83469Y276040D01*
X83382Y276105D01*
X83294Y276159D01*
X83202Y276202D01*
X83108Y276233D01*
X83011Y276254D01*
X82911Y276263D01*
X82809Y276261D01*
X82704Y276248D01*
X82596Y276223D01*
X83429Y277652D01*
X83461Y277533D01*
D02*
G37*
G36*
X88573Y275690D02*
X88548Y275701D01*
X88510Y275711D01*
X88457Y275719D01*
X88310Y275733D01*
X87984Y275746D01*
X87697Y275748D01*
Y276536D01*
X87848Y276536D01*
X88548Y276583D01*
X88573Y276594D01*
Y275690D01*
D02*
G37*
G36*
X75142Y275941D02*
X75231Y275868D01*
X75323Y275803D01*
X75416Y275746D01*
X75513Y275699D01*
X75612Y275660D01*
X75714Y275629D01*
X75818Y275608D01*
X75925Y275595D01*
X76035Y275590D01*
Y274803D01*
X75925Y274799D01*
X75818Y274786D01*
X75714Y274764D01*
X75612Y274734D01*
X75513Y274695D01*
X75416Y274647D01*
X75323Y274591D01*
X75231Y274526D01*
X75142Y274452D01*
X75056Y274370D01*
Y276024D01*
X75142Y275941D01*
D02*
G37*
G36*
X88573Y273091D02*
X88548Y273102D01*
X88510Y273112D01*
X88457Y273121D01*
X88310Y273135D01*
X87984Y273147D01*
X87697Y273150D01*
Y273937D01*
X87848Y273938D01*
X88548Y273985D01*
X88573Y273996D01*
Y273091D01*
D02*
G37*
G36*
X75989Y272497D02*
X76078Y272423D01*
X76169Y272358D01*
X76263Y272302D01*
X76359Y272254D01*
X76459Y272215D01*
X76560Y272185D01*
X76665Y272163D01*
X76772Y272150D01*
X76881Y272146D01*
Y271358D01*
X76772Y271354D01*
X76665Y271341D01*
X76560Y271319D01*
X76459Y271289D01*
X76359Y271250D01*
X76263Y271202D01*
X76169Y271146D01*
X76078Y271081D01*
X75989Y271008D01*
X75902Y270925D01*
Y272579D01*
X75989Y272497D01*
D02*
G37*
G36*
X88573Y270493D02*
X88548Y270504D01*
X88510Y270514D01*
X88457Y270522D01*
X88310Y270537D01*
X87984Y270549D01*
X87697Y270551D01*
Y271339D01*
X87848Y271339D01*
X88548Y271386D01*
X88573Y271397D01*
Y270493D01*
D02*
G37*
G36*
X77022Y269090D02*
X76947Y269011D01*
X76877Y268928D01*
X76812Y268842D01*
X76753Y268752D01*
X76698Y268659D01*
X76649Y268563D01*
X76606Y268463D01*
X76567Y268360D01*
X76534Y268254D01*
X76506Y268144D01*
X75696Y269536D01*
X75796Y269511D01*
X75893Y269497D01*
X75988Y269493D01*
X76081Y269500D01*
X76171Y269517D01*
X76259Y269546D01*
X76344Y269585D01*
X76427Y269635D01*
X76507Y269695D01*
X76585Y269766D01*
X77022Y269090D01*
D02*
G37*
G36*
X371820Y270475D02*
X371906Y270410D01*
X371995Y270355D01*
X372088Y270309D01*
X372184Y270275D01*
X372283Y270250D01*
X372386Y270236D01*
X372491Y270232D01*
X372600Y270238D01*
X372713Y270255D01*
X371768Y268897D01*
X371745Y269018D01*
X371716Y269133D01*
X371682Y269244D01*
X371642Y269350D01*
X371596Y269452D01*
X371546Y269548D01*
X371489Y269640D01*
X371427Y269728D01*
X371360Y269810D01*
X371288Y269888D01*
X371738Y270551D01*
X371820Y270475D01*
D02*
G37*
G36*
X88573Y267894D02*
X88548Y267905D01*
X88510Y267915D01*
X88457Y267924D01*
X88310Y267938D01*
X87984Y267950D01*
X87697Y267953D01*
Y268740D01*
X87848Y268741D01*
X88548Y268788D01*
X88573Y268799D01*
Y267894D01*
D02*
G37*
G36*
X280405Y268825D02*
X280331Y268744D01*
X280265Y268660D01*
X280206Y268571D01*
X280156Y268477D01*
X280113Y268379D01*
X280079Y268278D01*
X280052Y268171D01*
X280033Y268061D01*
X280022Y267946D01*
X280020Y267827D01*
X278850Y268996D01*
X278970Y268999D01*
X279084Y269009D01*
X279195Y269028D01*
X279301Y269055D01*
X279403Y269089D01*
X279501Y269132D01*
X279594Y269182D01*
X279683Y269241D01*
X279768Y269307D01*
X279849Y269382D01*
X280405Y268825D01*
D02*
G37*
G36*
X358638Y267455D02*
X358560Y267542D01*
X358479Y267620D01*
X358394Y267689D01*
X358305Y267748D01*
X358212Y267799D01*
X358116Y267840D01*
X358016Y267872D01*
X357913Y267895D01*
X357806Y267909D01*
X357695Y267913D01*
X357765Y268701D01*
X357873Y268705D01*
X357980Y268717D01*
X358085Y268737D01*
X358188Y268765D01*
X358290Y268801D01*
X358390Y268846D01*
X358489Y268898D01*
X358586Y268958D01*
X358682Y269026D01*
X358776Y269103D01*
X358638Y267455D01*
D02*
G37*
G36*
X269196Y267862D02*
X269235Y267852D01*
X269287Y267844D01*
X269434Y267830D01*
X269760Y267817D01*
X270047Y267815D01*
Y267028D01*
X269896Y267027D01*
X269196Y266980D01*
X269172Y266969D01*
Y267874D01*
X269196Y267862D01*
D02*
G37*
G36*
X290203Y266644D02*
X290088Y266654D01*
X289977Y266655D01*
X289869Y266646D01*
X289765Y266628D01*
X289664Y266600D01*
X289568Y266563D01*
X289475Y266516D01*
X289385Y266460D01*
X289300Y266394D01*
X289218Y266318D01*
X288731Y266945D01*
X288804Y267024D01*
X288871Y267108D01*
X288932Y267196D01*
X288986Y267288D01*
X289035Y267386D01*
X289076Y267488D01*
X289112Y267595D01*
X289141Y267706D01*
X289164Y267822D01*
X289180Y267943D01*
X290203Y266644D01*
D02*
G37*
G36*
X295081Y267684D02*
X295092Y267569D01*
X295111Y267459D01*
X295138Y267352D01*
X295172Y267250D01*
X295215Y267153D01*
X295265Y267059D01*
X295324Y266970D01*
X295390Y266885D01*
X295464Y266805D01*
X294908Y266248D01*
X294827Y266322D01*
X294742Y266389D01*
X294653Y266447D01*
X294560Y266498D01*
X294462Y266541D01*
X294360Y266575D01*
X294254Y266602D01*
X294143Y266620D01*
X294029Y266631D01*
X293909Y266634D01*
X295079Y267803D01*
X295081Y267684D01*
D02*
G37*
G36*
X283707Y266644D02*
X283685Y266641D01*
X283654Y266628D01*
X283616Y266605D01*
X283569Y266571D01*
X283451Y266474D01*
X283300Y266336D01*
X283117Y266157D01*
X282184Y267451D01*
X282684Y267943D01*
X283707Y266644D01*
D02*
G37*
G36*
X292646Y266284D02*
X293130Y265961D01*
X293898Y265808D01*
X293997Y265828D01*
X294039Y265824D01*
X294089Y265815D01*
X294133Y265804D01*
X294172Y265791D01*
X294208Y265776D01*
X294241Y265757D01*
X294272Y265737D01*
X302200Y257810D01*
X302590Y257549D01*
X303051Y257457D01*
X348689D01*
X350403Y255743D01*
X350499Y255679D01*
X350260Y254892D01*
X287517D01*
X286614Y256063D01*
X284927Y254376D01*
X283964Y254527D01*
X283913Y254604D01*
X283899Y254630D01*
X283879Y254655D01*
X283801Y254771D01*
X283785Y254781D01*
X283768Y254810D01*
X283742Y254859D01*
X283721Y254906D01*
X283705Y254951D01*
X283693Y254995D01*
X283684Y255039D01*
Y259639D01*
X289847Y265802D01*
X289870Y265816D01*
X289893Y265828D01*
X289916Y265837D01*
X289941Y265844D01*
X289971Y265849D01*
X290006Y265852D01*
X290049Y265851D01*
X290132Y265844D01*
X290159Y265847D01*
X290354Y265808D01*
X291122Y265961D01*
X291606Y266284D01*
X292126Y266351D01*
X292646Y266284D01*
D02*
G37*
G36*
X83467Y267251D02*
X83539Y267026D01*
X83581Y266920D01*
X83629Y266820D01*
X83682Y266723D01*
X83740Y266632D01*
X83802Y266546D01*
X83869Y266464D01*
X83942Y266387D01*
X83517Y265698D01*
X83434Y265774D01*
X83348Y265840D01*
X83259Y265894D01*
X83167Y265938D01*
X83072Y265971D01*
X82974Y265993D01*
X82872Y266005D01*
X82768Y266006D01*
X82661Y265996D01*
X82551Y265975D01*
X83439Y267371D01*
X83467Y267251D01*
D02*
G37*
G36*
X88573Y265296D02*
X88548Y265307D01*
X88510Y265317D01*
X88457Y265326D01*
X88310Y265340D01*
X87984Y265352D01*
X87697Y265354D01*
Y266142D01*
X87848Y266142D01*
X88548Y266189D01*
X88573Y266200D01*
Y265296D01*
D02*
G37*
G36*
X358966Y266067D02*
X359206Y265856D01*
X359227Y265844D01*
X359244Y265838D01*
X359255Y265839D01*
X358651Y265211D01*
X358651Y265222D01*
X358644Y265238D01*
X358631Y265260D01*
X358611Y265287D01*
X358551Y265359D01*
X358411Y265508D01*
X358350Y265568D01*
X358907Y266125D01*
X358966Y266067D01*
D02*
G37*
G36*
X269196Y265264D02*
X269235Y265254D01*
X269287Y265245D01*
X269434Y265231D01*
X269760Y265219D01*
X270047Y265216D01*
Y264429D01*
X269896Y264428D01*
X269196Y264382D01*
X269172Y264371D01*
Y265275D01*
X269196Y265264D01*
D02*
G37*
G36*
X355619Y265115D02*
X355704Y265049D01*
X355794Y264992D01*
X355887Y264945D01*
X355984Y264907D01*
X356085Y264878D01*
X356189Y264858D01*
X356298Y264848D01*
X356410Y264847D01*
X356526Y264855D01*
X355478Y263576D01*
X355464Y263697D01*
X355443Y263813D01*
X355415Y263924D01*
X355381Y264031D01*
X355341Y264133D01*
X355294Y264230D01*
X355240Y264323D01*
X355180Y264412D01*
X355113Y264495D01*
X355039Y264574D01*
X355537Y265190D01*
X355619Y265115D01*
D02*
G37*
G36*
X78794Y262693D02*
X78722Y262617D01*
X78655Y262536D01*
X78592Y262450D01*
X78533Y262359D01*
X78478Y262264D01*
X78428Y262164D01*
X78382Y262060D01*
X78304Y261837D01*
X78271Y261718D01*
X77439Y263147D01*
X77547Y263123D01*
X77652Y263109D01*
X77754Y263107D01*
X77854Y263117D01*
X77951Y263137D01*
X78045Y263169D01*
X78136Y263211D01*
X78225Y263265D01*
X78311Y263331D01*
X78394Y263407D01*
X78794Y262693D01*
D02*
G37*
G36*
X88573Y262697D02*
X88548Y262708D01*
X88510Y262718D01*
X88457Y262727D01*
X88310Y262741D01*
X87984Y262754D01*
X87697Y262756D01*
Y263543D01*
X87848Y263544D01*
X88548Y263591D01*
X88573Y263602D01*
Y262697D01*
D02*
G37*
G36*
X269196Y262666D02*
X269235Y262656D01*
X269287Y262647D01*
X269434Y262633D01*
X269760Y262620D01*
X270047Y262618D01*
Y261831D01*
X269896Y261830D01*
X269196Y261783D01*
X269172Y261772D01*
Y262677D01*
X269196Y262666D01*
D02*
G37*
G36*
X83951Y260134D02*
X83880Y260057D01*
X83812Y259976D01*
X83749Y259891D01*
X83690Y259800D01*
X83636Y259705D01*
X83586Y259605D01*
X83540Y259501D01*
X83461Y259278D01*
X83429Y259159D01*
X82596Y260588D01*
X82704Y260563D01*
X82808Y260549D01*
X82910Y260547D01*
X83008Y260555D01*
X83103Y260573D01*
X83196Y260603D01*
X83285Y260643D01*
X83371Y260695D01*
X83454Y260757D01*
X83534Y260830D01*
X83951Y260134D01*
D02*
G37*
G36*
X88573Y260099D02*
X88548Y260110D01*
X88510Y260120D01*
X88457Y260129D01*
X88310Y260143D01*
X87984Y260155D01*
X87697Y260157D01*
Y260945D01*
X87848Y260946D01*
X88548Y260992D01*
X88573Y261003D01*
Y260099D01*
D02*
G37*
G36*
X269196Y260067D02*
X269235Y260057D01*
X269287Y260048D01*
X269434Y260034D01*
X269760Y260022D01*
X270047Y260020D01*
Y259232D01*
X269896Y259232D01*
X269196Y259185D01*
X269172Y259174D01*
Y260078D01*
X269196Y260067D01*
D02*
G37*
G36*
X282874Y255134D02*
X282878Y255026D01*
X282890Y254919D01*
X282910Y254814D01*
X282938Y254711D01*
X282975Y254609D01*
X283019Y254509D01*
X283071Y254410D01*
X283131Y254313D01*
X283200Y254217D01*
X283276Y254123D01*
X281628Y254261D01*
X281715Y254339D01*
X281793Y254420D01*
X281862Y254506D01*
X281922Y254594D01*
X281972Y254687D01*
X282013Y254783D01*
X282045Y254883D01*
X282068Y254986D01*
X282082Y255093D01*
X282087Y255204D01*
X282874Y255134D01*
D02*
G37*
G36*
X278535Y254455D02*
X278461Y254374D01*
X278395Y254290D01*
X278336Y254201D01*
X278286Y254107D01*
X278243Y254010D01*
X278208Y253907D01*
X278182Y253801D01*
X278163Y253691D01*
X278152Y253576D01*
X278150Y253457D01*
X276980Y254626D01*
X277099Y254629D01*
X277214Y254639D01*
X277325Y254658D01*
X277431Y254685D01*
X277533Y254719D01*
X277631Y254762D01*
X277724Y254812D01*
X277813Y254871D01*
X277898Y254937D01*
X277979Y255012D01*
X278535Y254455D01*
D02*
G37*
G36*
X384921Y345905D02*
X386322Y345481D01*
X387613Y344791D01*
X388744Y343862D01*
X389673Y342731D01*
X390363Y341440D01*
X390787Y340039D01*
X390927Y338619D01*
X390912Y338583D01*
Y252642D01*
X390125Y252316D01*
X387549Y254892D01*
X381034D01*
X380795Y255679D01*
X380890Y255743D01*
X385989Y260842D01*
X385989Y260842D01*
X386250Y261232D01*
X386342Y261693D01*
X386342Y261693D01*
Y302953D01*
X386342Y302953D01*
X386250Y303414D01*
X385989Y303804D01*
X385989Y303804D01*
X375359Y314434D01*
X374969Y314695D01*
X374508Y314787D01*
X374508Y314787D01*
X276969D01*
X276969Y314787D01*
X276508Y314695D01*
X276117Y314434D01*
X276117Y314434D01*
X275844Y314161D01*
X275453Y314370D01*
X273819D01*
Y312736D01*
X274028Y312345D01*
X271727Y310045D01*
X265444D01*
X264983Y309953D01*
X264592Y309692D01*
X264592Y309692D01*
X261813Y306913D01*
X252329D01*
X252329Y306913D01*
X251869Y306821D01*
X251478Y306560D01*
X251478Y306560D01*
X247008Y302090D01*
X217931D01*
X217931Y302090D01*
X217470Y301998D01*
X217079Y301737D01*
X213495Y298153D01*
X210442D01*
X210442Y298153D01*
X209981Y298061D01*
X209590Y297800D01*
X207285Y295496D01*
X162706D01*
X162245Y295404D01*
X161855Y295143D01*
X161855Y295143D01*
X153129Y286417D01*
X146440D01*
Y293113D01*
X146349Y293574D01*
X146088Y293964D01*
X146088Y293965D01*
X133984Y306068D01*
X133593Y306329D01*
X133133Y306421D01*
X133133Y306421D01*
X126513D01*
X126513Y306421D01*
X126052Y306329D01*
X125662Y306068D01*
X119715Y300122D01*
X110727D01*
X110698Y300128D01*
X110670Y300137D01*
X110643Y300149D01*
X110616Y300163D01*
X110587Y300182D01*
X110556Y300208D01*
X110522Y300241D01*
X110465Y300304D01*
X110462Y300307D01*
X110376Y300435D01*
X109725Y300870D01*
X109368Y300941D01*
X109108Y301795D01*
X109415Y302101D01*
X109676Y302492D01*
X109767Y302953D01*
X109767Y302953D01*
Y311222D01*
X109774Y311251D01*
X109783Y311279D01*
X109794Y311306D01*
X109809Y311333D01*
X109828Y311362D01*
X109853Y311393D01*
X109886Y311427D01*
X109950Y311484D01*
X109952Y311487D01*
X110081Y311573D01*
X110516Y312224D01*
X110669Y312992D01*
X110516Y313760D01*
X110081Y314411D01*
X109430Y314846D01*
X108661Y314999D01*
X107893Y314846D01*
X107242Y314411D01*
X106807Y313760D01*
X106654Y312992D01*
X106807Y312224D01*
X107131Y311740D01*
X107144Y311714D01*
X107165Y311689D01*
X107242Y311573D01*
X107258Y311562D01*
X107276Y311534D01*
X107302Y311485D01*
X107322Y311438D01*
X107338Y311393D01*
X107350Y311348D01*
X107359Y311305D01*
Y303452D01*
X105448Y301540D01*
X105187Y301150D01*
X105095Y300689D01*
X105095Y300689D01*
Y298721D01*
X104331Y298070D01*
X103563Y297917D01*
X102911Y297482D01*
X102476Y296831D01*
X102324Y296063D01*
X102476Y295295D01*
X102911Y294644D01*
X102996Y294587D01*
X103023Y294555D01*
X103052Y294514D01*
X103076Y294475D01*
X103094Y294438D01*
X103108Y294402D01*
X103119Y294365D01*
X103126Y294328D01*
Y292821D01*
X103126Y292821D01*
X103218Y292360D01*
X103479Y291969D01*
X105257Y290192D01*
X105257Y290192D01*
X105647Y289931D01*
X106108Y289839D01*
X106108Y289839D01*
X129619D01*
X132314Y287145D01*
X132012Y286417D01*
X89492D01*
X88207Y285160D01*
X87927Y285141D01*
X78078D01*
X77078Y286141D01*
X77057Y286172D01*
X77039Y286206D01*
X77024Y286241D01*
X77011Y286280D01*
X77000Y286324D01*
X76991Y286374D01*
X76987Y286416D01*
X77007Y286516D01*
X76854Y287284D01*
X76419Y287935D01*
X75768Y288370D01*
X75000Y288523D01*
X74232Y288370D01*
X73581Y287935D01*
X73146Y287284D01*
X73058Y286845D01*
X72246Y286544D01*
X70241Y288548D01*
X69851Y288809D01*
X69390Y288901D01*
X69390Y288901D01*
X60691D01*
X60654Y288909D01*
X60618Y288919D01*
X60582Y288934D01*
X60545Y288952D01*
X60506Y288975D01*
X60465Y289005D01*
X60432Y289032D01*
X60376Y289116D01*
X59725Y289551D01*
X58957Y289704D01*
X58189Y289551D01*
X57538Y289116D01*
X57102Y288465D01*
X56950Y287697D01*
X57102Y286929D01*
X57538Y286278D01*
X58189Y285843D01*
X58957Y285690D01*
X59725Y285843D01*
X60376Y286278D01*
X60432Y286362D01*
X60465Y286389D01*
X60506Y286418D01*
X60545Y286442D01*
X60582Y286460D01*
X60618Y286474D01*
X60654Y286485D01*
X60691Y286493D01*
X68891D01*
X73845Y281539D01*
X73745Y280525D01*
X73640Y280455D01*
X73205Y279803D01*
X73052Y279035D01*
X73205Y278267D01*
X73477Y277860D01*
X73454Y277281D01*
X73256Y276925D01*
X72793Y276616D01*
X72358Y275965D01*
X72206Y275197D01*
X72358Y274429D01*
X72793Y273778D01*
X73054Y273604D01*
X73439Y273320D01*
X73255Y272595D01*
X73205Y272520D01*
X73052Y271752D01*
X73205Y270984D01*
X73640Y270333D01*
X73641Y269385D01*
X73500Y269174D01*
X73347Y268406D01*
X73500Y267637D01*
X73935Y266986D01*
X74586Y266551D01*
X75354Y266398D01*
X76122Y266551D01*
X76774Y266986D01*
X77209Y267637D01*
X77259Y267892D01*
X77283Y267939D01*
X77283Y267943D01*
X77284Y267947D01*
X77307Y268035D01*
X77327Y268100D01*
X77350Y268161D01*
X77375Y268219D01*
X77403Y268274D01*
X77409Y268284D01*
X79815D01*
X80350Y267496D01*
X80276Y267126D01*
X80429Y266358D01*
X80864Y265707D01*
X81515Y265272D01*
X82171Y265141D01*
X82093Y264354D01*
X78694D01*
X78694Y264354D01*
X78233Y264262D01*
X77842Y264001D01*
X77842Y264001D01*
X77769Y263928D01*
X77756Y263920D01*
X77746Y263915D01*
X77739Y263913D01*
X77733Y263912D01*
X77725Y263911D01*
X77710Y263911D01*
X77685Y263914D01*
X77616Y263930D01*
X77544Y263932D01*
X77126Y264015D01*
X76358Y263862D01*
X75707Y263427D01*
X75272Y262776D01*
X75119Y262008D01*
X75272Y261240D01*
X75707Y260589D01*
X76358Y260154D01*
X77126Y260001D01*
X77894Y260154D01*
X78545Y260589D01*
X78980Y261240D01*
X79025Y261465D01*
X79045Y261504D01*
X79070Y261596D01*
X79130Y261765D01*
X79155Y261823D01*
X79186Y261885D01*
X79218Y261941D01*
X79221Y261945D01*
X81059D01*
X81298Y261158D01*
X80864Y260868D01*
X80429Y260217D01*
X80276Y259449D01*
X80429Y258681D01*
X80864Y258030D01*
X81515Y257594D01*
X82284Y257442D01*
X83052Y257594D01*
X83703Y258030D01*
X84138Y258681D01*
X84183Y258906D01*
X84202Y258945D01*
X84228Y259037D01*
X84287Y259206D01*
X84313Y259264D01*
X84343Y259326D01*
X84356Y259347D01*
X87381D01*
X87937Y258790D01*
X87766Y142962D01*
X89813Y140850D01*
X89702Y140588D01*
X87106Y137992D01*
X87263Y95990D01*
X86497Y95555D01*
X86477Y95559D01*
X85728Y95708D01*
X85055Y96377D01*
X85024Y96536D01*
X84588Y97187D01*
X83937Y97622D01*
X83169Y97775D01*
X82517Y97645D01*
X82177Y97789D01*
X81730Y98121D01*
Y114213D01*
Y117874D01*
X81728Y117893D01*
X81730Y117913D01*
Y140762D01*
X81581Y141893D01*
X81145Y142947D01*
X80451Y143851D01*
X77309Y146993D01*
X77074Y147560D01*
X76317Y148547D01*
X74261Y150603D01*
Y163817D01*
X74338Y164005D01*
X74433Y164724D01*
X74338Y165444D01*
X74299Y165540D01*
X74450Y166693D01*
Y170709D01*
Y196103D01*
X74549Y196850D01*
Y215571D01*
X74410Y216624D01*
X74450Y216929D01*
Y222835D01*
X74288Y224068D01*
X74261Y224134D01*
Y227165D01*
X72125Y230363D01*
X72285Y230471D01*
X72720Y231122D01*
X72873Y231890D01*
X72720Y232658D01*
X72285Y233309D01*
X72201Y233366D01*
X72174Y233398D01*
X72145Y233439D01*
X72121Y233478D01*
X72103Y233515D01*
X72089Y233551D01*
X72078Y233588D01*
X72070Y233624D01*
Y238976D01*
X71979Y239437D01*
X71718Y239828D01*
X61481Y250064D01*
X61091Y250325D01*
X60630Y250417D01*
X60630Y250417D01*
X51663D01*
Y257722D01*
X51827Y258264D01*
X51963Y259646D01*
Y288189D01*
X51827Y289570D01*
X51663Y290113D01*
Y316643D01*
X426D01*
Y346030D01*
X383465D01*
X383500Y346045D01*
X384921Y345905D01*
D02*
G37*
G36*
X274294Y249306D02*
X273401Y248484D01*
X272504Y249873D01*
X272529Y249873D01*
X272562Y249884D01*
X272603Y249905D01*
X272651Y249937D01*
X272708Y249979D01*
X272844Y250095D01*
X273107Y250346D01*
X274294Y249306D01*
D02*
G37*
G36*
X49749Y249957D02*
X49837Y249884D01*
X49929Y249818D01*
X50023Y249762D01*
X50119Y249715D01*
X50218Y249676D01*
X50320Y249645D01*
X50425Y249624D01*
X50532Y249611D01*
X50641Y249606D01*
Y248819D01*
X50532Y248815D01*
X50425Y248802D01*
X50320Y248780D01*
X50218Y248750D01*
X50119Y248711D01*
X50023Y248663D01*
X49929Y248607D01*
X49837Y248542D01*
X49749Y248468D01*
X49662Y248386D01*
Y250039D01*
X49749Y249957D01*
D02*
G37*
G36*
X269196Y244477D02*
X269235Y244467D01*
X269287Y244458D01*
X269434Y244444D01*
X269760Y244431D01*
X270047Y244429D01*
Y243642D01*
X269896Y243641D01*
X269196Y243594D01*
X269172Y243583D01*
Y244488D01*
X269196Y244477D01*
D02*
G37*
G36*
Y241878D02*
X269235Y241868D01*
X269287Y241859D01*
X269434Y241845D01*
X269760Y241833D01*
X270047Y241831D01*
Y241043D01*
X269896Y241043D01*
X269196Y240996D01*
X269172Y240985D01*
Y241889D01*
X269196Y241878D01*
D02*
G37*
G36*
Y239280D02*
X269235Y239270D01*
X269287Y239261D01*
X269434Y239247D01*
X269760Y239235D01*
X270047Y239232D01*
Y238445D01*
X269896Y238444D01*
X269196Y238397D01*
X269172Y238386D01*
Y239291D01*
X269196Y239280D01*
D02*
G37*
G36*
X280960Y236685D02*
X280915Y236700D01*
X280861Y236698D01*
X280797Y236681D01*
X280723Y236648D01*
X280640Y236599D01*
X280547Y236535D01*
X280444Y236454D01*
X280210Y236245D01*
X280078Y236116D01*
X279479Y236630D01*
X280040Y237211D01*
X280960Y236685D01*
D02*
G37*
G36*
X269196Y236681D02*
X269235Y236671D01*
X269287Y236663D01*
X269434Y236649D01*
X269760Y236636D01*
X270047Y236634D01*
Y235846D01*
X269896Y235846D01*
X269196Y235799D01*
X269172Y235788D01*
Y236692D01*
X269196Y236681D01*
D02*
G37*
G36*
Y234083D02*
X269235Y234073D01*
X269287Y234064D01*
X269434Y234050D01*
X269760Y234038D01*
X270047Y234035D01*
Y233248D01*
X269896Y233247D01*
X269196Y233201D01*
X269172Y233189D01*
Y234094D01*
X269196Y234083D01*
D02*
G37*
G36*
X71264Y233602D02*
X71277Y233495D01*
X71299Y233391D01*
X71329Y233289D01*
X71368Y233190D01*
X71416Y233094D01*
X71472Y233000D01*
X71537Y232908D01*
X71611Y232819D01*
X71693Y232733D01*
X70039D01*
X70122Y232819D01*
X70195Y232908D01*
X70260Y233000D01*
X70316Y233094D01*
X70364Y233190D01*
X70403Y233289D01*
X70433Y233391D01*
X70455Y233495D01*
X70468Y233602D01*
X70472Y233712D01*
X71260D01*
X71264Y233602D01*
D02*
G37*
G36*
X269196Y231484D02*
X269235Y231474D01*
X269287Y231466D01*
X269434Y231452D01*
X269760Y231439D01*
X270047Y231437D01*
Y230650D01*
X269896Y230649D01*
X269196Y230602D01*
X269172Y230591D01*
Y231496D01*
X269196Y231484D01*
D02*
G37*
G36*
Y228886D02*
X269235Y228876D01*
X269287Y228867D01*
X269434Y228853D01*
X269760Y228841D01*
X270047Y228839D01*
Y228051D01*
X269896Y228051D01*
X269196Y228004D01*
X269172Y227993D01*
Y228897D01*
X269196Y228886D01*
D02*
G37*
G36*
X269185Y223696D02*
X269214Y223693D01*
X269318Y223687D01*
X269990Y223679D01*
X270103Y222892D01*
X269952Y222891D01*
X269390Y222857D01*
X269316Y222845D01*
X269255Y222830D01*
X269207Y222814D01*
X269172Y222796D01*
Y223700D01*
X269185Y223696D01*
D02*
G37*
G36*
X269201Y221087D02*
X269245Y221074D01*
X269302Y221062D01*
X269372Y221052D01*
X269552Y221037D01*
X269924Y221025D01*
X270075Y221024D01*
X270018Y220237D01*
X269172Y220197D01*
Y221102D01*
X269201Y221087D01*
D02*
G37*
G36*
X269196Y218492D02*
X269235Y218482D01*
X269287Y218474D01*
X269434Y218460D01*
X269760Y218447D01*
X270047Y218445D01*
Y217657D01*
X269896Y217657D01*
X269196Y217610D01*
X269172Y217599D01*
Y218503D01*
X269196Y218492D01*
D02*
G37*
G36*
Y215894D02*
X269235Y215884D01*
X269287Y215875D01*
X269434Y215861D01*
X269760Y215849D01*
X270047Y215846D01*
Y215059D01*
X269896Y215058D01*
X269196Y215012D01*
X269172Y215001D01*
Y215905D01*
X269196Y215894D01*
D02*
G37*
G36*
Y213295D02*
X269235Y213285D01*
X269287Y213277D01*
X269434Y213263D01*
X269760Y213250D01*
X270047Y213248D01*
Y212461D01*
X269896Y212460D01*
X269196Y212413D01*
X269172Y212402D01*
Y213307D01*
X269196Y213295D01*
D02*
G37*
G36*
Y210697D02*
X269235Y210687D01*
X269287Y210678D01*
X269434Y210664D01*
X269760Y210652D01*
X270047Y210650D01*
Y209862D01*
X269896Y209862D01*
X269196Y209815D01*
X269172Y209804D01*
Y210708D01*
X269196Y210697D01*
D02*
G37*
G36*
X269245Y208065D02*
X269326Y208025D01*
X269413Y207990D01*
X269506Y207959D01*
X269606Y207933D01*
X269713Y207912D01*
X269946Y207883D01*
X270072Y207876D01*
X270204Y207874D01*
X270226Y207087D01*
X269994Y207088D01*
X269192Y207145D01*
X269157Y207162D01*
X269150Y207183D01*
X269172Y207205D01*
Y208110D01*
X269245Y208065D01*
D02*
G37*
G36*
X269196Y205500D02*
X269235Y205490D01*
X269287Y205481D01*
X269434Y205467D01*
X269760Y205455D01*
X270047Y205453D01*
Y204665D01*
X269896Y204665D01*
X269196Y204618D01*
X269172Y204607D01*
Y205511D01*
X269196Y205500D01*
D02*
G37*
G36*
Y202902D02*
X269235Y202892D01*
X269287Y202883D01*
X269434Y202869D01*
X269760Y202857D01*
X270047Y202854D01*
Y202067D01*
X269896Y202066D01*
X269196Y202020D01*
X269172Y202008D01*
Y202913D01*
X269196Y202902D01*
D02*
G37*
G36*
Y195106D02*
X269235Y195097D01*
X269287Y195088D01*
X269434Y195074D01*
X269760Y195061D01*
X270047Y195059D01*
Y194272D01*
X269896Y194271D01*
X269196Y194224D01*
X269172Y194213D01*
Y195118D01*
X269196Y195106D01*
D02*
G37*
G36*
Y192508D02*
X269235Y192498D01*
X269287Y192489D01*
X269434Y192475D01*
X269760Y192463D01*
X270047Y192461D01*
Y191673D01*
X269896Y191673D01*
X269196Y191626D01*
X269172Y191615D01*
Y192519D01*
X269196Y192508D01*
D02*
G37*
G36*
Y189910D02*
X269235Y189900D01*
X269287Y189891D01*
X269434Y189877D01*
X269760Y189865D01*
X270047Y189862D01*
Y189075D01*
X269896Y189074D01*
X269196Y189027D01*
X269172Y189016D01*
Y189921D01*
X269196Y189910D01*
D02*
G37*
G36*
Y187311D02*
X269235Y187301D01*
X269287Y187293D01*
X269434Y187278D01*
X269760Y187266D01*
X270047Y187264D01*
Y186476D01*
X269896Y186476D01*
X269196Y186429D01*
X269172Y186418D01*
Y187322D01*
X269196Y187311D01*
D02*
G37*
G36*
Y184713D02*
X269235Y184703D01*
X269287Y184694D01*
X269434Y184680D01*
X269760Y184668D01*
X270047Y184665D01*
Y183878D01*
X269896Y183877D01*
X269196Y183830D01*
X269172Y183819D01*
Y184724D01*
X269196Y184713D01*
D02*
G37*
G36*
Y182114D02*
X269235Y182104D01*
X269287Y182096D01*
X269434Y182081D01*
X269760Y182069D01*
X270047Y182067D01*
Y181280D01*
X269896Y181279D01*
X269196Y181232D01*
X269172Y181221D01*
Y182125D01*
X269196Y182114D01*
D02*
G37*
G36*
Y179516D02*
X269235Y179506D01*
X269287Y179497D01*
X269434Y179483D01*
X269760Y179471D01*
X270047Y179469D01*
Y178681D01*
X269896Y178681D01*
X269196Y178634D01*
X269172Y178622D01*
Y179527D01*
X269196Y179516D01*
D02*
G37*
G36*
Y176918D02*
X269235Y176908D01*
X269287Y176899D01*
X269434Y176885D01*
X269760Y176872D01*
X270047Y176870D01*
Y176083D01*
X269896Y176082D01*
X269196Y176035D01*
X269172Y176024D01*
Y176929D01*
X269196Y176918D01*
D02*
G37*
G36*
Y174319D02*
X269235Y174309D01*
X269287Y174300D01*
X269434Y174286D01*
X269760Y174274D01*
X270047Y174272D01*
Y173484D01*
X269896Y173484D01*
X269196Y173437D01*
X269172Y173426D01*
Y174330D01*
X269196Y174319D01*
D02*
G37*
G36*
Y171721D02*
X269235Y171711D01*
X269287Y171702D01*
X269434Y171688D01*
X269760Y171676D01*
X270047Y171673D01*
Y170886D01*
X269896Y170885D01*
X269196Y170838D01*
X269172Y170827D01*
Y171732D01*
X269196Y171721D01*
D02*
G37*
G36*
X273091Y156539D02*
X273118Y156533D01*
X273159Y156528D01*
X273281Y156519D01*
X273820Y156511D01*
X273846Y154936D01*
X273711Y154936D01*
X273113Y154901D01*
X273098Y154892D01*
X273077Y156546D01*
X273091Y156539D01*
D02*
G37*
G36*
X279288Y147495D02*
X279214Y147407D01*
X279149Y147315D01*
X279093Y147221D01*
X279045Y147125D01*
X279006Y147026D01*
X278976Y146924D01*
X278954Y146819D01*
X278941Y146713D01*
X278937Y146603D01*
X278150D01*
X278145Y146713D01*
X278132Y146819D01*
X278111Y146924D01*
X278080Y147026D01*
X278041Y147125D01*
X277994Y147221D01*
X277937Y147315D01*
X277872Y147407D01*
X277799Y147495D01*
X277716Y147582D01*
X279370D01*
X279288Y147495D01*
D02*
G37*
G36*
X275074Y144191D02*
X274246Y143113D01*
X273085Y144179D01*
X273179Y144275D01*
X273446Y144577D01*
X273486Y144633D01*
X273515Y144681D01*
X273532Y144721D01*
X273539Y144754D01*
X273535Y144778D01*
X275074Y144191D01*
D02*
G37*
G36*
X275956Y141961D02*
X275891Y142014D01*
X275823Y142053D01*
X275754Y142076D01*
X275681Y142085D01*
X275606Y142079D01*
X275529Y142058D01*
X275450Y142022D01*
X275367Y141971D01*
X275283Y141905D01*
X275196Y141824D01*
X274812Y142553D01*
X275805Y143494D01*
X275956Y141961D01*
D02*
G37*
G36*
X236301Y142026D02*
X236338Y141422D01*
X236356Y141310D01*
X236376Y141213D01*
X236400Y141133D01*
X236427Y141067D01*
X236456Y141018D01*
X234567D01*
X234597Y141067D01*
X234624Y141133D01*
X234647Y141213D01*
X234668Y141310D01*
X234685Y141422D01*
X234710Y141693D01*
X234723Y142026D01*
X234724Y142216D01*
X236299D01*
X236301Y142026D01*
D02*
G37*
G36*
X230810Y141821D02*
X230820Y141707D01*
X230837Y141599D01*
X230861Y141496D01*
X230891Y141400D01*
X230928Y141309D01*
X230971Y141223D01*
X231021Y141144D01*
X231078Y141069D01*
X231142Y141001D01*
X229488Y141001D01*
X229552Y141069D01*
X229609Y141144D01*
X229659Y141223D01*
X229702Y141309D01*
X229739Y141400D01*
X229769Y141496D01*
X229793Y141599D01*
X229809Y141707D01*
X229819Y141821D01*
X229823Y141940D01*
X230807Y141940D01*
X230810Y141821D01*
D02*
G37*
G36*
X232520Y139801D02*
X232450Y139791D01*
X231779Y139514D01*
X231204Y139072D01*
X228842Y136710D01*
X228400Y136134D01*
X228122Y135464D01*
X228027Y134744D01*
Y129859D01*
X227567Y129170D01*
X227384Y128248D01*
X227567Y127326D01*
X227785Y127000D01*
Y123734D01*
X219152Y115100D01*
X218717Y114449D01*
X218564Y113681D01*
Y102898D01*
X216492Y100826D01*
X214586D01*
X213916Y101495D01*
Y102953D01*
X213764Y103721D01*
X213842Y103910D01*
X214055Y103953D01*
X214707Y104388D01*
X215142Y105039D01*
X215295Y105807D01*
X215142Y106575D01*
X214707Y107226D01*
X214706Y107227D01*
X214704Y107236D01*
X214697Y107281D01*
X214692Y107333D01*
Y136909D01*
X214585Y137447D01*
X214281Y137903D01*
X212494Y139690D01*
X212592Y140307D01*
X212717Y140580D01*
X212728Y140588D01*
X215855D01*
X215957Y140519D01*
X216457Y140420D01*
X216956Y140519D01*
X217059Y140588D01*
X220185D01*
X220288Y140519D01*
X220787Y140420D01*
X221287Y140519D01*
X221390Y140588D01*
X224516D01*
X224619Y140519D01*
X225118Y140420D01*
X225617Y140519D01*
X225720Y140588D01*
X232469D01*
X232520Y139801D01*
D02*
G37*
G36*
X267984Y138811D02*
X268012Y138805D01*
X268053Y138799D01*
X268175Y138789D01*
X268580Y138780D01*
X268715Y138780D01*
X268715Y137205D01*
X267969Y137165D01*
X267969Y138819D01*
X267984Y138811D01*
D02*
G37*
G36*
X236347Y138614D02*
X236130Y138391D01*
X235605Y137783D01*
X235472Y137599D01*
X235359Y137425D01*
X235268Y137261D01*
X235197Y137107D01*
X235147Y136963D01*
X235118Y136828D01*
X232891Y139055D01*
X233026Y139084D01*
X233170Y139134D01*
X233325Y139205D01*
X233488Y139296D01*
X233662Y139409D01*
X233846Y139542D01*
X234242Y139871D01*
X234677Y140284D01*
X236347Y138614D01*
D02*
G37*
G36*
X236407Y133488D02*
X236335Y133412D01*
X236268Y133330D01*
X236205Y133244D01*
X236147Y133153D01*
X236093Y133058D01*
X236044Y132957D01*
X236000Y132852D01*
X235925Y132628D01*
X235895Y132509D01*
X235034Y133921D01*
X235143Y133898D01*
X235249Y133887D01*
X235352Y133886D01*
X235453Y133897D01*
X235550Y133918D01*
X235645Y133950D01*
X235737Y133994D01*
X235826Y134048D01*
X235912Y134113D01*
X235995Y134189D01*
X236407Y133488D01*
D02*
G37*
G36*
X258433Y124828D02*
X258447Y124694D01*
X244810Y111056D01*
X243905Y111265D01*
X243644Y111655D01*
X242992Y112091D01*
X242224Y112243D01*
X241456Y112091D01*
X240805Y111655D01*
X240370Y111004D01*
X240217Y110236D01*
X240232Y110161D01*
X240232Y110160D01*
X240225Y110137D01*
X240213Y110109D01*
X240195Y110076D01*
X240171Y110037D01*
X240145Y110002D01*
X232530Y102387D01*
X230966D01*
X230923Y102394D01*
X230879Y102404D01*
X230843Y102415D01*
X230815Y102427D01*
X230793Y102438D01*
X230792Y102438D01*
X230750Y102502D01*
X230099Y102937D01*
X229331Y103090D01*
X228563Y102937D01*
X227911Y102502D01*
X227476Y101851D01*
X227385Y101393D01*
X226598Y101470D01*
Y102848D01*
X234067Y110317D01*
X234813Y110168D01*
X235581Y110321D01*
X236232Y110756D01*
X236667Y111407D01*
X236820Y112175D01*
X236667Y112943D01*
X236232Y113594D01*
X235581Y114030D01*
X234813Y114182D01*
X234045Y114030D01*
X233394Y113594D01*
X232959Y112943D01*
X232872Y112510D01*
X232816Y112472D01*
X232816Y112472D01*
X224542Y104198D01*
X224281Y103807D01*
X224189Y103347D01*
X224189Y103346D01*
Y97803D01*
X221083Y94696D01*
X221052Y94676D01*
X221018Y94657D01*
X220983Y94642D01*
X220943Y94629D01*
X220899Y94618D01*
X220849Y94609D01*
X220808Y94605D01*
X220708Y94625D01*
X219940Y94472D01*
X219289Y94037D01*
X218854Y93386D01*
X218701Y92618D01*
X218854Y91850D01*
X218906Y91772D01*
X219279Y91186D01*
X218817Y90595D01*
X216117Y87895D01*
X215263Y88154D01*
X215240Y88268D01*
X214805Y88919D01*
X214154Y89354D01*
X213386Y89507D01*
X212618Y89354D01*
X211967Y88919D01*
X211610Y88385D01*
X211547Y88322D01*
X210039D01*
X210004Y88315D01*
X209395Y88815D01*
Y98303D01*
X209456Y98315D01*
X209879Y98598D01*
X209937Y98684D01*
X210814Y98852D01*
X210908Y98827D01*
X212335Y97400D01*
X212986Y96965D01*
X213755Y96812D01*
X217323D01*
X218091Y96965D01*
X218742Y97400D01*
X221990Y100648D01*
X222425Y101299D01*
X222578Y102067D01*
Y112850D01*
X231211Y121483D01*
X231646Y122134D01*
X231799Y122902D01*
Y125468D01*
X258108D01*
X258433Y124828D01*
D02*
G37*
G36*
X242213Y109055D02*
X242119Y109052D01*
X242027Y109040D01*
X241935Y109019D01*
X241844Y108989D01*
X241753Y108951D01*
X241664Y108904D01*
X241575Y108848D01*
X241486Y108783D01*
X241399Y108710D01*
X241312Y108628D01*
X240616Y109324D01*
X240698Y109411D01*
X240771Y109498D01*
X240836Y109586D01*
X240892Y109675D01*
X240939Y109765D01*
X240977Y109855D01*
X241007Y109947D01*
X241028Y110038D01*
X241040Y110131D01*
X241043Y110224D01*
X242213Y109055D01*
D02*
G37*
G36*
X213880Y107412D02*
X213899Y107183D01*
X213916Y107081D01*
X213937Y106988D01*
X213963Y106904D01*
X213994Y106828D01*
X214029Y106760D01*
X214069Y106701D01*
X214114Y106651D01*
X212461D01*
X212506Y106701D01*
X212546Y106760D01*
X212581Y106828D01*
X212612Y106904D01*
X212638Y106988D01*
X212659Y107081D01*
X212676Y107183D01*
X212687Y107293D01*
X212697Y107539D01*
X213878D01*
X213880Y107412D01*
D02*
G37*
G36*
X211882Y136328D02*
Y107316D01*
X211880Y107290D01*
X211871Y107236D01*
X211869Y107227D01*
X211868Y107226D01*
X211433Y106575D01*
X210735Y106122D01*
X209395D01*
Y137151D01*
X210227Y137983D01*
X211882Y136328D01*
D02*
G37*
G36*
X230243Y101846D02*
X230317Y101789D01*
X230397Y101739D01*
X230482Y101695D01*
X230573Y101658D01*
X230670Y101628D01*
X230772Y101605D01*
X230880Y101588D01*
X230994Y101578D01*
X231113Y101575D01*
Y100591D01*
X230994Y100587D01*
X230880Y100577D01*
X230772Y100560D01*
X230670Y100537D01*
X230573Y100507D01*
X230482Y100470D01*
X230397Y100427D01*
X230317Y100376D01*
X230243Y100320D01*
X230174Y100256D01*
Y101909D01*
X230243Y101846D01*
D02*
G37*
G36*
X227586Y94505D02*
X227472Y94520D01*
X227362Y94525D01*
X227256Y94519D01*
X227153Y94504D01*
X227053Y94478D01*
X226957Y94443D01*
X226865Y94397D01*
X226775Y94342D01*
X226690Y94276D01*
X226607Y94200D01*
X226146Y94853D01*
X226219Y94931D01*
X226286Y95014D01*
X226347Y95101D01*
X226403Y95193D01*
X226453Y95290D01*
X226498Y95392D01*
X226536Y95498D01*
X226569Y95609D01*
X226596Y95725D01*
X226617Y95846D01*
X227586Y94505D01*
D02*
G37*
G36*
X83914Y94838D02*
X83840Y94749D01*
X83775Y94658D01*
X83719Y94564D01*
X83671Y94467D01*
X83632Y94368D01*
X83602Y94266D01*
X83580Y94162D01*
X83567Y94055D01*
X83563Y93945D01*
X82776D01*
X82771Y94055D01*
X82758Y94162D01*
X82737Y94266D01*
X82706Y94368D01*
X82667Y94467D01*
X82620Y94564D01*
X82563Y94658D01*
X82498Y94749D01*
X82425Y94838D01*
X82342Y94924D01*
X83996D01*
X83914Y94838D01*
D02*
G37*
G36*
X222275Y93628D02*
X222200Y93548D01*
X222134Y93463D01*
X222075Y93374D01*
X222025Y93280D01*
X221982Y93183D01*
X221948Y93081D01*
X221921Y92975D01*
X221902Y92864D01*
X221892Y92749D01*
X221889Y92630D01*
X220720Y93799D01*
X220839Y93802D01*
X220954Y93813D01*
X221064Y93831D01*
X221170Y93858D01*
X221272Y93893D01*
X221370Y93935D01*
X221463Y93986D01*
X221553Y94044D01*
X221637Y94111D01*
X221718Y94185D01*
X222275Y93628D01*
D02*
G37*
G36*
X86422Y92745D02*
X86332Y92674D01*
X86252Y92598D01*
X86181Y92518D01*
X86119Y92434D01*
X86067Y92345D01*
X86024Y92251D01*
X85991Y92153D01*
X85967Y92050D01*
X85953Y91943D01*
X85948Y91832D01*
X85161Y91956D01*
X85157Y92063D01*
X85146Y92169D01*
X85127Y92275D01*
X85101Y92379D01*
X85067Y92483D01*
X85026Y92585D01*
X84978Y92687D01*
X84921Y92788D01*
X84858Y92889D01*
X84787Y92988D01*
X86422Y92745D01*
D02*
G37*
G36*
X277858Y88957D02*
X277764Y88861D01*
X277498Y88561D01*
X277458Y88506D01*
X277430Y88459D01*
X277413Y88420D01*
X277406Y88390D01*
X277411Y88368D01*
X275863Y88858D01*
X276659Y89985D01*
X277858Y88957D01*
D02*
G37*
G36*
X276366Y86614D02*
X276351Y86609D01*
X276326Y86594D01*
X276293Y86569D01*
X276200Y86490D01*
X275907Y86210D01*
X275811Y86115D01*
X274698Y87229D01*
X275197Y87783D01*
X276366Y86614D01*
D02*
G37*
G36*
X378505Y88681D02*
X379041Y87832D01*
X378059Y86849D01*
X344588D01*
X343868Y86755D01*
X343198Y86477D01*
X342622Y86035D01*
X337700Y81113D01*
X337258Y80537D01*
X336980Y79867D01*
X336886Y79147D01*
Y58030D01*
X336438Y57583D01*
X327341D01*
X326621Y57488D01*
X325951Y57210D01*
X325375Y56769D01*
X318150Y49543D01*
X317482Y49989D01*
X317766Y50675D01*
X317963Y52165D01*
X317766Y53656D01*
X317191Y55044D01*
X316276Y56237D01*
X315084Y57152D01*
X313695Y57727D01*
X312205Y57923D01*
X310715Y57727D01*
X309326Y57152D01*
X308133Y56237D01*
X307218Y55044D01*
X306643Y53656D01*
X306447Y52165D01*
X306643Y50675D01*
X307218Y49286D01*
X308133Y48094D01*
X309326Y47179D01*
X310715Y46604D01*
X312205Y46407D01*
X313695Y46604D01*
X314381Y46888D01*
X314827Y46220D01*
X292252Y23646D01*
X263620D01*
X261313Y25953D01*
Y26858D01*
X261567Y27473D01*
X261682Y28346D01*
Y30315D01*
X261567Y31189D01*
X261230Y32003D01*
X260694Y32702D01*
X259995Y33238D01*
X259181Y33575D01*
X258307Y33690D01*
X257434Y33575D01*
X256619Y33238D01*
X255920Y32702D01*
X255384Y32003D01*
X255047Y31189D01*
X254932Y30315D01*
Y28346D01*
X255047Y27473D01*
X255384Y26659D01*
X255442Y26583D01*
X255381Y26317D01*
X254516Y26068D01*
X254104Y26481D01*
X253320Y27338D01*
X252952Y27807D01*
X252625Y28275D01*
X252346Y28734D01*
X252112Y29185D01*
X251924Y29625D01*
X251780Y30056D01*
X251678Y30478D01*
X251612Y30931D01*
X251610Y30936D01*
X251610Y30942D01*
X251594Y30984D01*
X251567Y31189D01*
X251230Y32003D01*
X250694Y32702D01*
X249995Y33238D01*
X249181Y33575D01*
X248307Y33690D01*
X247433Y33575D01*
X246619Y33238D01*
X245920Y32702D01*
X245384Y32003D01*
X245047Y31189D01*
X244932Y30315D01*
Y28346D01*
X245047Y27473D01*
X245384Y26659D01*
X245920Y25960D01*
X246619Y25423D01*
X246955Y25284D01*
X247024Y25239D01*
X247158Y25184D01*
X247304Y25102D01*
X247490Y24977D01*
X249715Y23008D01*
X258546Y14176D01*
X259122Y13735D01*
X259792Y13457D01*
X260512Y13362D01*
X295361D01*
X296080Y13457D01*
X296751Y13735D01*
X297326Y14176D01*
X324389Y41239D01*
X325138Y40874D01*
X324997Y39449D01*
X325165Y37751D01*
X325660Y36118D01*
X326464Y34613D01*
X327547Y33295D01*
X328866Y32212D01*
X330370Y31408D01*
X332003Y30913D01*
X333701Y30746D01*
X335399Y30913D01*
X337031Y31408D01*
X338536Y32212D01*
X339855Y33295D01*
X340937Y34613D01*
X341742Y36118D01*
X342237Y37751D01*
X342404Y39449D01*
X342237Y41147D01*
X341742Y42779D01*
X340937Y44284D01*
X339855Y45603D01*
X338748Y46512D01*
X339019Y47299D01*
X342393D01*
X343113Y47394D01*
X343783Y47671D01*
X344359Y48113D01*
X346434Y50189D01*
X346876Y50765D01*
X347154Y51435D01*
X347249Y52154D01*
Y76118D01*
X347696Y76566D01*
X381167D01*
X381886Y76660D01*
X382557Y76938D01*
X383132Y77380D01*
X389176Y83424D01*
X389618Y84000D01*
X389896Y84670D01*
X389990Y85389D01*
Y86531D01*
X390125Y86625D01*
X390912Y86214D01*
Y75853D01*
X390780Y75721D01*
X348622D01*
X348321Y75597D01*
X348196Y75295D01*
Y426D01*
X74261D01*
Y25032D01*
X79093Y29864D01*
X79333Y30084D01*
X79815Y30479D01*
X79996Y30517D01*
X80097Y30560D01*
X80448Y30645D01*
X81988Y31283D01*
X83410Y32154D01*
X84677Y33236D01*
X85760Y34504D01*
X86631Y35925D01*
X87269Y37465D01*
X87658Y39086D01*
X87789Y40748D01*
Y41535D01*
X87658Y43197D01*
X87269Y44818D01*
X86631Y46358D01*
X85760Y47780D01*
X84677Y49047D01*
X83410Y50130D01*
X81988Y51001D01*
X80448Y51639D01*
X78827Y52028D01*
X77165Y52159D01*
X75503Y52028D01*
X74879Y51878D01*
X74261Y52365D01*
Y53392D01*
X75774Y54906D01*
X82794D01*
X83822Y55041D01*
X84780Y55438D01*
X85602Y56069D01*
X91391Y61857D01*
X92022Y62680D01*
X92418Y63638D01*
X92554Y64665D01*
X92418Y65693D01*
X92177Y66275D01*
X92409Y66834D01*
X92504Y67554D01*
Y77637D01*
X93291Y77964D01*
X98501Y72755D01*
Y37933D01*
X98501Y37933D01*
X98592Y37472D01*
X98853Y37082D01*
X104916Y31019D01*
X104949Y30980D01*
X105003Y30910D01*
X105009Y30900D01*
X104932Y30315D01*
Y28346D01*
X105047Y27473D01*
X105384Y26659D01*
X105920Y25960D01*
X106619Y25423D01*
X107433Y25086D01*
X108307Y24971D01*
X109181Y25086D01*
X109995Y25423D01*
X110694Y25960D01*
X111230Y26659D01*
X111567Y27473D01*
X111682Y28346D01*
Y30315D01*
X111567Y31189D01*
X111230Y32003D01*
X110694Y32702D01*
X109995Y33238D01*
X109181Y33575D01*
X108307Y33690D01*
X107433Y33575D01*
X106619Y33238D01*
X106327Y33014D01*
X100909Y38432D01*
Y40650D01*
X101636Y40952D01*
X104109Y38479D01*
X104109Y38479D01*
X104500Y38218D01*
X104961Y38127D01*
X105047Y37473D01*
X105384Y36659D01*
X105920Y35960D01*
X106619Y35423D01*
X107433Y35086D01*
X108307Y34971D01*
X109181Y35086D01*
X109995Y35423D01*
X110694Y35960D01*
X111230Y36659D01*
X111567Y37473D01*
X111682Y38346D01*
Y40315D01*
X111567Y41189D01*
X111230Y42003D01*
X110694Y42702D01*
X109995Y43238D01*
X109181Y43575D01*
X108307Y43690D01*
X107433Y43575D01*
X106619Y43238D01*
X105920Y42702D01*
X105384Y42003D01*
X105302Y41806D01*
X104374Y41621D01*
X102484Y43511D01*
Y56497D01*
X103211Y56798D01*
X106718Y53291D01*
X106413Y52835D01*
X106261Y52067D01*
X106413Y51299D01*
X106849Y50648D01*
X107500Y50213D01*
X108268Y50060D01*
X109036Y50213D01*
X109687Y50648D01*
X110122Y51299D01*
X110275Y52067D01*
X110122Y52835D01*
X109687Y53486D01*
X109151Y53844D01*
X109079Y54207D01*
X108938Y54418D01*
X109105Y55001D01*
X109281Y55248D01*
X109568Y55280D01*
X110066Y54947D01*
X110834Y54794D01*
X111602Y54947D01*
X112254Y55382D01*
X112542Y55813D01*
X113431Y56037D01*
X121080Y48388D01*
X121503Y48106D01*
X121530Y48100D01*
X121931Y47700D01*
X122354Y47417D01*
X122853Y47317D01*
X132383D01*
X133164Y46536D01*
Y34154D01*
X133263Y33654D01*
X133546Y33231D01*
X135090Y31687D01*
X135139Y31630D01*
X135197Y31552D01*
X135047Y31189D01*
X134932Y30315D01*
Y28346D01*
X135047Y27473D01*
X135384Y26659D01*
X135920Y25960D01*
X136619Y25423D01*
X137434Y25086D01*
X138307Y24971D01*
X139181Y25086D01*
X139995Y25423D01*
X140694Y25960D01*
X140725Y26000D01*
X141512Y25733D01*
Y25098D01*
X141512Y25098D01*
X141604Y24638D01*
X141865Y24247D01*
X143017Y23095D01*
X142716Y22368D01*
X131741D01*
X129612Y24497D01*
Y25101D01*
X129617Y25177D01*
X129631Y25273D01*
X129995Y25423D01*
X130694Y25960D01*
X131230Y26659D01*
X131567Y27473D01*
X131682Y28346D01*
Y30315D01*
X131567Y31189D01*
X131230Y32003D01*
X130694Y32702D01*
X129995Y33238D01*
X129181Y33575D01*
X128307Y33690D01*
X127434Y33575D01*
X126619Y33238D01*
X126463Y33118D01*
X125943Y33711D01*
X126944Y34713D01*
X127079Y34830D01*
X127275Y34981D01*
X127435Y35086D01*
X128307Y34971D01*
X129181Y35086D01*
X129995Y35423D01*
X130694Y35960D01*
X131230Y36659D01*
X131567Y37473D01*
X131682Y38346D01*
Y40315D01*
X131567Y41189D01*
X131230Y42003D01*
X130694Y42702D01*
X129995Y43238D01*
X129181Y43575D01*
X128307Y43690D01*
X127434Y43575D01*
X126619Y43238D01*
X125920Y42702D01*
X125384Y42003D01*
X125047Y41189D01*
X124932Y40315D01*
Y38346D01*
X125047Y37475D01*
X124949Y37325D01*
X124642Y36952D01*
X122684Y34994D01*
X122336Y34473D01*
X122213Y33858D01*
X122213Y33858D01*
Y32201D01*
X121426Y32045D01*
X121402Y32102D01*
X120834Y32842D01*
X120094Y33410D01*
X119337Y33724D01*
X119379Y33257D01*
X119447Y32904D01*
X119535Y32604D01*
X119642Y32359D01*
X119769Y32169D01*
X119915Y32032D01*
X120081Y31951D01*
X120266Y31924D01*
X119095D01*
Y29331D01*
Y24876D01*
X119232Y24894D01*
X120094Y25251D01*
X120834Y25819D01*
X121402Y26559D01*
X121426Y26617D01*
X122213Y26460D01*
Y25522D01*
X122213Y25522D01*
X122336Y24907D01*
X122684Y24386D01*
X129209Y17861D01*
X129730Y17513D01*
X130345Y17390D01*
X130345Y17390D01*
X187130D01*
X190283Y14238D01*
X190370Y13799D01*
X190805Y13148D01*
X191456Y12713D01*
X192224Y12560D01*
X192992Y12713D01*
X193644Y13148D01*
X194079Y13799D01*
X194231Y14567D01*
X194079Y15335D01*
X193644Y15986D01*
X192992Y16421D01*
X192572Y16505D01*
X192428Y16634D01*
X188931Y20131D01*
X188410Y20480D01*
X187795Y20602D01*
X187795Y20602D01*
X181886D01*
X181585Y21329D01*
X185470Y25214D01*
X185514Y25279D01*
X186405Y25517D01*
X186527Y25494D01*
X186619Y25423D01*
X187434Y25086D01*
X187648Y25058D01*
X187695Y25041D01*
X187957Y25004D01*
X188188Y24951D01*
X188421Y24876D01*
X188658Y24780D01*
X188900Y24659D01*
X189146Y24514D01*
X189388Y24351D01*
X189805Y24010D01*
X194565Y19250D01*
X195216Y18815D01*
X195984Y18662D01*
X207033D01*
X207801Y18815D01*
X208452Y19250D01*
X214254Y25052D01*
X214689Y25703D01*
X214779Y26154D01*
X215603Y26374D01*
X215920Y25960D01*
X216619Y25423D01*
X217434Y25086D01*
X218307Y24971D01*
X219181Y25086D01*
X219995Y25423D01*
X220694Y25960D01*
X221230Y26659D01*
X221567Y27473D01*
X221682Y28346D01*
Y30315D01*
X221567Y31189D01*
X221230Y32003D01*
X220694Y32702D01*
X219995Y33238D01*
X219181Y33575D01*
X218307Y33690D01*
X217434Y33575D01*
X216619Y33238D01*
X215920Y32702D01*
X215629Y32322D01*
X214842Y32589D01*
Y35749D01*
X215629Y36016D01*
X215780Y35819D01*
X216520Y35251D01*
X217382Y34894D01*
X217520Y34876D01*
Y35916D01*
X217328Y35982D01*
X217520Y36214D01*
Y39331D01*
X218307D01*
Y40118D01*
X220752D01*
X220854Y40241D01*
X220780Y40118D01*
X221881D01*
Y40315D01*
X221759Y41240D01*
X221402Y42102D01*
X220834Y42842D01*
X220094Y43410D01*
X219232Y43767D01*
X219198Y43772D01*
X218945Y44517D01*
X224254Y49826D01*
X224689Y50477D01*
X224842Y51245D01*
Y58828D01*
X225629Y59095D01*
X225920Y58716D01*
X226619Y58179D01*
X227433Y57842D01*
X228307Y57727D01*
X229181Y57842D01*
X229995Y58179D01*
X230694Y58716D01*
X231230Y59415D01*
X231567Y60229D01*
X231682Y61102D01*
Y63071D01*
X231567Y63945D01*
X231230Y64758D01*
X230694Y65458D01*
X229995Y65994D01*
X229181Y66331D01*
X228307Y66446D01*
X227433Y66331D01*
X226619Y65994D01*
X225920Y65458D01*
X225629Y65078D01*
X224842Y65345D01*
Y68828D01*
X225629Y69095D01*
X225920Y68716D01*
X226619Y68179D01*
X227433Y67842D01*
X228307Y67727D01*
X229181Y67842D01*
X229995Y68179D01*
X230694Y68716D01*
X230985Y69095D01*
X231772Y68828D01*
Y67598D01*
X231925Y66830D01*
X232360Y66179D01*
X234181Y64358D01*
X234404Y64106D01*
X234686Y63749D01*
X234899Y63437D01*
X234964Y63319D01*
X234932Y63071D01*
Y61102D01*
X235047Y60229D01*
X235384Y59415D01*
X235920Y58716D01*
X236619Y58179D01*
X237434Y57842D01*
X238307Y57727D01*
X239181Y57842D01*
X239995Y58179D01*
X240694Y58716D01*
X240985Y59095D01*
X241773Y58828D01*
Y54843D01*
X241925Y54075D01*
X242360Y53423D01*
X254181Y41603D01*
X254404Y41350D01*
X254686Y40993D01*
X254899Y40681D01*
X254964Y40564D01*
X254932Y40315D01*
Y38346D01*
X255047Y37473D01*
X255384Y36659D01*
X255920Y35960D01*
X256619Y35423D01*
X257434Y35086D01*
X258307Y34971D01*
X259181Y35086D01*
X259995Y35423D01*
X260190Y35573D01*
X260977Y35236D01*
X261161Y34315D01*
X261683Y33533D01*
X263733Y31483D01*
X264052Y31123D01*
X264454Y30618D01*
X264766Y30167D01*
X264932Y29875D01*
Y28346D01*
X265047Y27473D01*
X265384Y26659D01*
X265920Y25960D01*
X266619Y25423D01*
X267434Y25086D01*
X268307Y24971D01*
X269181Y25086D01*
X269995Y25423D01*
X270694Y25960D01*
X271230Y26659D01*
X271567Y27473D01*
X271682Y28346D01*
Y30315D01*
X271567Y31189D01*
X271230Y32003D01*
X270694Y32702D01*
X269995Y33238D01*
X269639Y33385D01*
X269548Y33439D01*
X269327Y33515D01*
X269181Y33575D01*
X269165Y33577D01*
X268970Y33660D01*
X268687Y33802D01*
X268051Y34190D01*
X268017Y34215D01*
X268302Y34958D01*
X268313Y34972D01*
X269181Y35086D01*
X269995Y35423D01*
X270190Y35573D01*
X270977Y35236D01*
X271161Y34315D01*
X271683Y33533D01*
X273733Y31483D01*
X274052Y31123D01*
X274454Y30618D01*
X274766Y30167D01*
X274932Y29875D01*
Y28346D01*
X275047Y27473D01*
X275384Y26659D01*
X275920Y25960D01*
X276619Y25423D01*
X277433Y25086D01*
X278307Y24971D01*
X279181Y25086D01*
X279995Y25423D01*
X280694Y25960D01*
X281230Y26659D01*
X281567Y27473D01*
X281682Y28346D01*
Y30315D01*
X281567Y31189D01*
X281230Y32003D01*
X280694Y32702D01*
X279995Y33238D01*
X279639Y33385D01*
X279548Y33439D01*
X279327Y33515D01*
X279181Y33575D01*
X279165Y33577D01*
X278970Y33660D01*
X278687Y33802D01*
X278051Y34190D01*
X278017Y34215D01*
X278302Y34958D01*
X278312Y34972D01*
X279181Y35086D01*
X279995Y35423D01*
X280159Y35550D01*
X280200Y35568D01*
X280464Y35760D01*
X280734Y35913D01*
X281050Y36055D01*
X281416Y36183D01*
X281829Y36294D01*
X282291Y36388D01*
X282792Y36461D01*
X283307Y36499D01*
X283822Y36461D01*
X284323Y36388D01*
X284785Y36294D01*
X285199Y36183D01*
X285372Y36122D01*
X285497Y34073D01*
X285473Y33344D01*
X285398Y32473D01*
X285353Y32151D01*
X285303Y31900D01*
X285258Y31738D01*
X285202Y31605D01*
X285202Y31603D01*
X285201Y31602D01*
X285185Y31522D01*
X285047Y31189D01*
X284932Y30315D01*
Y28346D01*
X285047Y27473D01*
X285384Y26659D01*
X285920Y25960D01*
X286619Y25423D01*
X287434Y25086D01*
X288307Y24971D01*
X289181Y25086D01*
X289995Y25423D01*
X290694Y25960D01*
X291230Y26659D01*
X291567Y27473D01*
X291682Y28346D01*
Y30315D01*
X291567Y31189D01*
X291429Y31522D01*
X291413Y31602D01*
X291412Y31603D01*
X291412Y31605D01*
X291356Y31738D01*
X291311Y31900D01*
X291268Y32119D01*
X291117Y34588D01*
X291141Y35317D01*
X291216Y36189D01*
X291262Y36511D01*
X291311Y36761D01*
X291356Y36923D01*
X291412Y37056D01*
X291412Y37058D01*
X291413Y37060D01*
X291429Y37139D01*
X291567Y37473D01*
X291682Y38346D01*
Y40315D01*
X291567Y41189D01*
X291230Y42003D01*
X290834Y42518D01*
X291043Y43131D01*
X291185Y43306D01*
X291325D01*
X291325Y43306D01*
X291939Y43428D01*
X292460Y43776D01*
X313122Y64438D01*
X319846D01*
X319846Y64438D01*
X320461Y64560D01*
X320982Y64908D01*
X327907Y71833D01*
X328255Y72354D01*
X328377Y72969D01*
Y81422D01*
X332447Y85491D01*
X332658D01*
X335848Y88681D01*
X378505Y88681D01*
D02*
G37*
G36*
X332061Y86857D02*
X332371Y87054D01*
X332584Y87165D01*
X332699Y87192D01*
X332717Y87133D01*
X332638Y86988D01*
X332462Y86759D01*
X332189Y86444D01*
X330786Y84987D01*
X329644Y86072D01*
X329847Y86286D01*
X330028Y86499D01*
X330188Y86713D01*
X330327Y86926D01*
X330445Y87139D01*
X330541Y87352D01*
X330615Y87565D01*
X330669Y87778D01*
X330701Y87991D01*
X330712Y88204D01*
X332061Y86857D01*
D02*
G37*
G36*
X324798D02*
X325142Y87076D01*
X325382Y87205D01*
X325519Y87243D01*
X325552Y87191D01*
X325481Y87048D01*
X325307Y86815D01*
X325029Y86491D01*
X323574Y84977D01*
X322391Y86021D01*
X322694Y86334D01*
X323168Y86897D01*
X323340Y87146D01*
X323469Y87374D01*
X323554Y87580D01*
X323596Y87765D01*
X323594Y87929D01*
X323549Y88071D01*
X323461Y88192D01*
X324798Y86857D01*
D02*
G37*
G36*
X202918Y83017D02*
X202908Y82982D01*
X202899Y82935D01*
X202891Y82875D01*
X202875Y82625D01*
X202870Y82268D01*
X202083D01*
X202082Y82399D01*
X202045Y82982D01*
X202035Y83017D01*
X202024Y83041D01*
X202929D01*
X202918Y83017D01*
D02*
G37*
G36*
X200276Y83118D02*
X200286Y83041D01*
X200330D01*
X200319Y83017D01*
X200309Y82978D01*
X200304Y82944D01*
X200311Y82907D01*
X200342Y82806D01*
X200382Y82707D01*
X200430Y82612D01*
X200487Y82519D01*
X200553Y82429D01*
X200628Y82342D01*
X200711Y82257D01*
X200272Y82249D01*
X200272Y82166D01*
X199484D01*
X199484Y82233D01*
X199058Y82224D01*
X199139Y82313D01*
X199212Y82403D01*
X199276Y82496D01*
X199331Y82591D01*
X199378Y82688D01*
X199416Y82788D01*
X199445Y82889D01*
X199437Y83017D01*
X199426Y83041D01*
X199473D01*
X199480Y83102D01*
X199484Y83211D01*
X200272Y83228D01*
X200276Y83118D01*
D02*
G37*
G36*
X181024Y83017D02*
X181014Y82978D01*
X181005Y82925D01*
X180991Y82778D01*
X180979Y82453D01*
X180976Y82166D01*
X180189D01*
X180188Y82316D01*
X180142Y83017D01*
X180130Y83041D01*
X181035D01*
X181024Y83017D01*
D02*
G37*
G36*
X171414D02*
X171404Y82978D01*
X171395Y82925D01*
X171381Y82778D01*
X171369Y82453D01*
X171367Y82166D01*
X170579D01*
X170579Y82316D01*
X170532Y83017D01*
X170521Y83041D01*
X171425D01*
X171414Y83017D01*
D02*
G37*
G36*
X116721D02*
X116711Y82978D01*
X116702Y82925D01*
X116688Y82778D01*
X116676Y82453D01*
X116673Y82166D01*
X115886D01*
X115885Y82316D01*
X115838Y83017D01*
X115827Y83041D01*
X116732D01*
X116721Y83017D01*
D02*
G37*
G36*
X114122D02*
X114112Y82978D01*
X114103Y82925D01*
X114090Y82778D01*
X114077Y82453D01*
X114075Y82166D01*
X113287D01*
X113287Y82316D01*
X113240Y83017D01*
X113229Y83041D01*
X114133D01*
X114122Y83017D01*
D02*
G37*
G36*
X189922Y83012D02*
X189910Y82969D01*
X189899Y82913D01*
X189889Y82844D01*
X189874Y82664D01*
X189863Y82293D01*
X189862Y82142D01*
X189075Y82190D01*
X189032Y83041D01*
X189936D01*
X189922Y83012D01*
D02*
G37*
G36*
X197714Y83006D02*
X197698Y82959D01*
X197684Y82898D01*
X197672Y82825D01*
X197653Y82639D01*
X197642Y82402D01*
X197638Y82113D01*
X196850Y82219D01*
X196827Y83041D01*
X197732D01*
X197714Y83006D01*
D02*
G37*
G36*
X168808Y83006D02*
X168792Y82958D01*
X168778Y82897D01*
X168765Y82823D01*
X168746Y82636D01*
X168734Y82399D01*
X168730Y82110D01*
X167943Y82222D01*
X167922Y83041D01*
X168827D01*
X168808Y83006D01*
D02*
G37*
G36*
X165963Y82776D02*
X165981Y82773D01*
X165980Y82753D01*
X165959Y82715D01*
X165919Y82660D01*
X165859Y82588D01*
X165563Y82269D01*
X165268Y81969D01*
X164751Y82566D01*
X164897Y82717D01*
X165128Y82992D01*
X165214Y83116D01*
X165279Y83230D01*
X165323Y83334D01*
X165348Y83429D01*
X165351Y83515D01*
X165335Y83591D01*
X165298Y83658D01*
X165963Y82776D01*
D02*
G37*
G36*
X146354Y80697D02*
X146272Y80611D01*
X146128Y80439D01*
X146067Y80352D01*
X146013Y80264D01*
X145966Y80177D01*
X145927Y80089D01*
X145894Y80000D01*
X145868Y79912D01*
X145850Y79822D01*
X144905Y81180D01*
X144996Y81168D01*
X145086Y81167D01*
X145176Y81176D01*
X145266Y81195D01*
X145355Y81225D01*
X145444Y81265D01*
X145532Y81316D01*
X145621Y81378D01*
X145709Y81450D01*
X145797Y81532D01*
X146354Y80697D01*
D02*
G37*
G36*
X180981Y81649D02*
X180995Y81542D01*
X181019Y81447D01*
X181051Y81363D01*
X181094Y81291D01*
X181145Y81229D01*
X181206Y81178D01*
X181276Y81139D01*
X181356Y81111D01*
X181445Y81093D01*
X180151Y80198D01*
X180158Y80240D01*
X180165Y80303D01*
X180180Y80620D01*
X180189Y81569D01*
X180976Y81766D01*
X180981Y81649D01*
D02*
G37*
G36*
X150033Y80735D02*
X149952Y80648D01*
X149878Y80561D01*
X149814Y80473D01*
X149758Y80384D01*
X149711Y80294D01*
X149672Y80204D01*
X149643Y80112D01*
X149622Y80021D01*
X149610Y79928D01*
X149606Y79835D01*
X148437Y81004D01*
X148530Y81007D01*
X148623Y81020D01*
X148715Y81040D01*
X148806Y81070D01*
X148896Y81108D01*
X148986Y81155D01*
X149075Y81211D01*
X149163Y81276D01*
X149251Y81349D01*
X149337Y81431D01*
X150033Y80735D01*
D02*
G37*
G36*
X160573Y81255D02*
X160784Y81149D01*
X160890Y81106D01*
X160996Y81070D01*
X161101Y81040D01*
X161206Y81017D01*
X161312Y81001D01*
X161417Y80991D01*
X161522Y80988D01*
X161727Y80200D01*
X161614Y80195D01*
X161507Y80181D01*
X161406Y80156D01*
X161310Y80122D01*
X161220Y80078D01*
X161136Y80024D01*
X161058Y79960D01*
X160985Y79887D01*
X160918Y79804D01*
X160857Y79711D01*
X160467Y81318D01*
X160573Y81255D01*
D02*
G37*
G36*
X298580Y78217D02*
X296926D01*
X296934Y78231D01*
X296940Y78259D01*
X296946Y78300D01*
X296956Y78422D01*
X296965Y78828D01*
X296966Y78962D01*
X298540D01*
X298580Y78217D01*
D02*
G37*
G36*
X262539Y76926D02*
X260886D01*
X260893Y76941D01*
X260900Y76968D01*
X260906Y77009D01*
X260915Y77132D01*
X260925Y77537D01*
X260925Y77672D01*
X262500D01*
X262539Y76926D01*
D02*
G37*
G36*
X279626Y88539D02*
Y86870D01*
X281005Y85492D01*
X282743Y85492D01*
Y84204D01*
X278145Y79606D01*
X276432D01*
X275664Y79453D01*
X275012Y79018D01*
X272360Y76365D01*
X271925Y75714D01*
X271769Y75658D01*
X271099Y75597D01*
X270897Y75828D01*
Y76184D01*
X270995Y76679D01*
X270995Y76679D01*
Y80142D01*
X276707Y85854D01*
X277146Y85941D01*
X277797Y86376D01*
X278232Y87027D01*
X278385Y87795D01*
X278297Y88238D01*
X278899Y88840D01*
X279626Y88539D01*
D02*
G37*
G36*
X249773Y76738D02*
X249779Y76457D01*
X249832Y75932D01*
X249879Y75689D01*
X249938Y75458D01*
X250011Y75240D01*
X250097Y75034D01*
X250197Y74841D01*
X250309Y74661D01*
X250435Y74493D01*
X247407Y75472D01*
X247557Y75443D01*
X247691Y75459D01*
X247810Y75520D01*
X247913Y75625D01*
X248000Y75775D01*
X248071Y75969D01*
X248127Y76209D01*
X248166Y76492D01*
X248190Y76821D01*
X248198Y77194D01*
X249773Y76738D01*
D02*
G37*
G36*
X239773D02*
X239779Y76457D01*
X239832Y75932D01*
X239879Y75689D01*
X239938Y75458D01*
X240011Y75240D01*
X240097Y75034D01*
X240197Y74841D01*
X240309Y74661D01*
X240435Y74493D01*
X237407Y75472D01*
X237557Y75443D01*
X237691Y75459D01*
X237810Y75520D01*
X237913Y75625D01*
X238000Y75775D01*
X238071Y75969D01*
X238126Y76209D01*
X238166Y76492D01*
X238190Y76821D01*
X238198Y77194D01*
X239773Y76738D01*
D02*
G37*
G36*
X276968Y104162D02*
X277583Y104040D01*
X277583Y104040D01*
X279626D01*
Y102514D01*
X278189D01*
X277421Y102361D01*
X276817Y101957D01*
X276476Y101890D01*
X275825Y101454D01*
X257538Y83167D01*
X257102Y82516D01*
X256950Y81748D01*
Y80955D01*
X252360Y76365D01*
X251925Y75714D01*
X251079Y75338D01*
X250788Y75462D01*
X250763Y75522D01*
X250708Y75686D01*
X250662Y75864D01*
X250627Y76048D01*
X250591Y76410D01*
Y85422D01*
X269371Y104201D01*
X276909D01*
X276968Y104162D01*
D02*
G37*
G36*
X234017Y88011D02*
Y85255D01*
X228367Y79606D01*
X226432D01*
X225664Y79453D01*
X225012Y79018D01*
X222360Y76365D01*
X221925Y75714D01*
X221835Y75263D01*
X221011Y75044D01*
X220694Y75458D01*
X219995Y75994D01*
X219181Y76331D01*
X219124Y76339D01*
X218842Y77170D01*
X223621Y81950D01*
X226095D01*
X226863Y82102D01*
X227514Y82538D01*
X233289Y88313D01*
X234017Y88011D01*
D02*
G37*
G36*
X171436Y74520D02*
X171280Y74357D01*
X171032Y74054D01*
X170940Y73914D01*
X170870Y73782D01*
X170821Y73658D01*
X170793Y73541D01*
X170787Y73432D01*
X170802Y73330D01*
X170838Y73236D01*
X169885Y75055D01*
X169939Y74977D01*
X170004Y74924D01*
X170081Y74896D01*
X170169Y74894D01*
X170269Y74918D01*
X170381Y74967D01*
X170504Y75042D01*
X170638Y75142D01*
X170785Y75267D01*
X170943Y75418D01*
X171436Y74520D01*
D02*
G37*
G36*
X186341Y75740D02*
X186488Y75613D01*
X186627Y75509D01*
X186756Y75428D01*
X186876Y75370D01*
X186987Y75335D01*
X187088Y75323D01*
X187180Y75334D01*
X187263Y75368D01*
X187336Y75425D01*
X185952Y74042D01*
X186010Y74115D01*
X186044Y74198D01*
X186055Y74290D01*
X186043Y74391D01*
X186008Y74502D01*
X185950Y74622D01*
X185869Y74751D01*
X185765Y74889D01*
X185638Y75037D01*
X185488Y75194D01*
X186184Y75890D01*
X186341Y75740D01*
D02*
G37*
G36*
X292182Y76021D02*
X291752Y75574D01*
X291090Y74780D01*
X290859Y74432D01*
X290693Y74117D01*
X290593Y73835D01*
X290560Y73586D01*
X290592Y73370D01*
X290690Y73186D01*
X290855Y73035D01*
X287328Y75435D01*
X287595Y75527D01*
X287865Y75639D01*
X288137Y75772D01*
X288412Y75926D01*
X288968Y76296D01*
X289249Y76513D01*
X289819Y77008D01*
X290108Y77288D01*
X292182Y76021D01*
D02*
G37*
G36*
X160267Y69542D02*
X160185Y69452D01*
X160112Y69336D01*
X160049Y69195D01*
X159996Y69027D01*
X159953Y68835D01*
X159919Y68616D01*
X159895Y68371D01*
X159876Y67805D01*
X158891Y67634D01*
X158886Y67858D01*
X158871Y68053D01*
X158847Y68218D01*
X158812Y68355D01*
X158768Y68463D01*
X158714Y68541D01*
X158650Y68590D01*
X158575Y68611D01*
X158492Y68602D01*
X158398Y68564D01*
X160358Y69606D01*
X160267Y69542D01*
D02*
G37*
G36*
X205920Y68716D02*
X206619Y68179D01*
X207434Y67842D01*
X208307Y67727D01*
X209181Y67842D01*
X209995Y68179D01*
X210296Y68410D01*
X211084Y68022D01*
Y66151D01*
X210296Y65763D01*
X209995Y65994D01*
X209181Y66331D01*
X208307Y66446D01*
X207434Y66331D01*
X206619Y65994D01*
X205920Y65458D01*
X205384Y64758D01*
X205047Y63945D01*
X204932Y63071D01*
Y61102D01*
X205047Y60229D01*
X205384Y59415D01*
X205920Y58716D01*
X206619Y58179D01*
X207434Y57842D01*
X208307Y57727D01*
X209181Y57842D01*
X209995Y58179D01*
X210296Y58411D01*
X211084Y58022D01*
Y52333D01*
X202360Y43609D01*
X201925Y42958D01*
X201887Y42764D01*
X201045Y42568D01*
X200834Y42842D01*
X200094Y43410D01*
X199232Y43767D01*
X198958Y44597D01*
X202899Y48538D01*
X202899Y48538D01*
X203160Y48929D01*
X203252Y49390D01*
X203252Y49390D01*
Y66505D01*
X204788Y68042D01*
X204788Y68042D01*
X205050Y68433D01*
X205069Y68531D01*
X205911Y68728D01*
X205920Y68716D01*
D02*
G37*
G36*
X120703Y65667D02*
X120552Y65509D01*
X120426Y65363D01*
X120326Y65228D01*
X120251Y65104D01*
X120201Y64992D01*
X120176Y64891D01*
X120177Y64802D01*
X120203Y64723D01*
X120254Y64657D01*
X120331Y64601D01*
X118552Y65594D01*
X118644Y65556D01*
X118744Y65539D01*
X118851Y65544D01*
X118967Y65570D01*
X119090Y65618D01*
X119221Y65687D01*
X119360Y65778D01*
X119506Y65890D01*
X119661Y66024D01*
X119823Y66180D01*
X120703Y65667D01*
D02*
G37*
G36*
X131436Y64520D02*
X131280Y64357D01*
X131032Y64054D01*
X130940Y63914D01*
X130870Y63782D01*
X130821Y63658D01*
X130793Y63541D01*
X130787Y63432D01*
X130802Y63330D01*
X130838Y63236D01*
X129885Y65055D01*
X129939Y64977D01*
X130004Y64924D01*
X130081Y64896D01*
X130169Y64894D01*
X130269Y64918D01*
X130381Y64967D01*
X130504Y65042D01*
X130638Y65142D01*
X130785Y65267D01*
X130943Y65418D01*
X131436Y64520D01*
D02*
G37*
G36*
X156824Y65834D02*
X157056Y65646D01*
X157163Y65578D01*
X157264Y65526D01*
X157358Y65492D01*
X157446Y65475D01*
X157528Y65476D01*
X157604Y65493D01*
X157674Y65528D01*
X156328Y64656D01*
X156386Y64704D01*
X156424Y64760D01*
X156443Y64824D01*
X156442Y64897D01*
X156422Y64978D01*
X156382Y65068D01*
X156323Y65166D01*
X156245Y65272D01*
X156147Y65387D01*
X156029Y65510D01*
X156699Y65954D01*
X156824Y65834D01*
D02*
G37*
G36*
X165870Y65086D02*
X165984Y64989D01*
X166089Y64912D01*
X166185Y64855D01*
X166272Y64817D01*
X166350Y64800D01*
X166420Y64803D01*
X166481Y64825D01*
X166533Y64867D01*
X166576Y64930D01*
X165801Y63490D01*
X165831Y63564D01*
X165844Y63643D01*
X165841Y63729D01*
X165821Y63820D01*
X165784Y63917D01*
X165730Y64019D01*
X165660Y64128D01*
X165573Y64242D01*
X165470Y64362D01*
X165349Y64487D01*
X165748Y65203D01*
X165870Y65086D01*
D02*
G37*
G36*
X292408Y65502D02*
X291970Y65047D01*
X291281Y64225D01*
X291031Y63859D01*
X290844Y63523D01*
X290721Y63217D01*
X290659Y62940D01*
X290662Y62694D01*
X290726Y62477D01*
X290855Y62290D01*
X287808Y65581D01*
X288105Y65623D01*
X288400Y65692D01*
X288695Y65786D01*
X288990Y65906D01*
X289283Y66052D01*
X289576Y66224D01*
X289867Y66422D01*
X290159Y66646D01*
X290449Y66896D01*
X290738Y67172D01*
X292408Y65502D01*
D02*
G37*
G36*
X272408D02*
X271970Y65047D01*
X271281Y64225D01*
X271031Y63859D01*
X270844Y63523D01*
X270721Y63217D01*
X270659Y62940D01*
X270661Y62694D01*
X270726Y62477D01*
X270854Y62290D01*
X267808Y65581D01*
X268105Y65623D01*
X268400Y65692D01*
X268695Y65786D01*
X268990Y65906D01*
X269283Y66052D01*
X269576Y66224D01*
X269867Y66422D01*
X270159Y66646D01*
X270449Y66896D01*
X270738Y67172D01*
X272408Y65502D01*
D02*
G37*
G36*
X256166Y66896D02*
X256747Y66422D01*
X257038Y66224D01*
X257331Y66052D01*
X257625Y65906D01*
X257919Y65786D01*
X258214Y65692D01*
X258510Y65623D01*
X258806Y65581D01*
X255760Y62290D01*
X255888Y62477D01*
X255953Y62694D01*
X255955Y62940D01*
X255894Y63217D01*
X255770Y63523D01*
X255583Y63859D01*
X255333Y64225D01*
X255020Y64621D01*
X254645Y65047D01*
X254206Y65502D01*
X255876Y67172D01*
X256166Y66896D01*
D02*
G37*
G36*
X236165D02*
X236747Y66422D01*
X237038Y66224D01*
X237331Y66052D01*
X237625Y65906D01*
X237919Y65786D01*
X238214Y65692D01*
X238510Y65623D01*
X238806Y65581D01*
X235760Y62290D01*
X235888Y62477D01*
X235953Y62694D01*
X235955Y62940D01*
X235894Y63217D01*
X235770Y63523D01*
X235583Y63859D01*
X235333Y64225D01*
X235020Y64621D01*
X234645Y65047D01*
X234206Y65502D01*
X235876Y67172D01*
X236165Y66896D01*
D02*
G37*
G36*
X250626Y62474D02*
X250506Y62123D01*
X250495Y61718D01*
X250593Y61260D01*
X250800Y60748D01*
X251116Y60182D01*
X251541Y59563D01*
X252075Y58891D01*
X252718Y58165D01*
X253469Y57385D01*
X250709Y54578D01*
X249761Y55532D01*
X246702Y59049D01*
X246885Y58974D01*
X250854Y62772D01*
X250626Y62474D01*
D02*
G37*
G36*
X185788Y66348D02*
X185795Y66341D01*
X185905Y65567D01*
X185866Y65387D01*
X185384Y64758D01*
X185047Y63945D01*
X184932Y63071D01*
Y61102D01*
X185047Y60229D01*
X185384Y59415D01*
X185920Y58716D01*
X186619Y58179D01*
X187434Y57842D01*
X188307Y57727D01*
X189181Y57842D01*
X189995Y58179D01*
X190056Y58226D01*
X190843Y57838D01*
Y55637D01*
X187799Y52592D01*
X187782Y52589D01*
X187391Y52328D01*
X182121Y47058D01*
X181860Y46667D01*
X181834Y46538D01*
X181762Y46429D01*
X181670Y45969D01*
X181670Y45969D01*
Y44583D01*
X181670Y44583D01*
X181762Y44122D01*
X181768Y44112D01*
Y42595D01*
X180981Y42328D01*
X180694Y42702D01*
X179995Y43238D01*
X179181Y43575D01*
X178307Y43690D01*
X177434Y43575D01*
X177378Y43552D01*
X177307Y43609D01*
X168293Y52623D01*
X167902Y52884D01*
X167441Y52976D01*
X167441Y52976D01*
X166519D01*
X166280Y53763D01*
X166478Y53896D01*
X166913Y54547D01*
X167066Y55315D01*
X167530Y55880D01*
X170276D01*
X170775Y55980D01*
X171198Y56263D01*
X174249Y59314D01*
X174449Y59613D01*
X174939Y59665D01*
X175308Y59599D01*
X175384Y59415D01*
X175920Y58716D01*
X176619Y58179D01*
X177434Y57842D01*
X178307Y57727D01*
X179181Y57842D01*
X179995Y58179D01*
X180694Y58716D01*
X181230Y59415D01*
X181567Y60229D01*
X181682Y61102D01*
Y63071D01*
X181567Y63945D01*
X181230Y64758D01*
X180828Y65282D01*
X180704Y65524D01*
X180826Y66348D01*
X181132Y66654D01*
X181405Y66708D01*
X181828Y66991D01*
X181882Y67045D01*
X185091D01*
X185788Y66348D01*
D02*
G37*
G36*
X284337Y57792D02*
X284365Y57785D01*
X284407Y57778D01*
X284462Y57772D01*
X284707Y57760D01*
X285071Y57756D01*
X285036Y56181D01*
X284294Y56147D01*
X284322Y57801D01*
X284337Y57792D01*
D02*
G37*
G36*
X269894Y53851D02*
X269878Y53979D01*
X269831Y54094D01*
X269752Y54196D01*
X269642Y54284D01*
X269500Y54358D01*
X269327Y54419D01*
X269122Y54467D01*
X268886Y54501D01*
X268847Y54503D01*
X268717Y54496D01*
X268673Y54486D01*
X268643Y54475D01*
X268626Y54463D01*
X268621Y54521D01*
X268618Y54521D01*
X268319Y54528D01*
Y56102D01*
X268489Y56107D01*
X268488Y56111D01*
X268497Y56109D01*
X268520Y56108D01*
X268523Y56108D01*
X268620Y56110D01*
X268889Y56134D01*
X269127Y56173D01*
X269333Y56228D01*
X269508Y56299D01*
X269651Y56386D01*
X269762Y56488D01*
X269841Y56606D01*
X269889Y56740D01*
X269906Y56890D01*
X269894Y53851D01*
D02*
G37*
G36*
X109991Y55975D02*
X109905Y56057D01*
X109816Y56130D01*
X109724Y56195D01*
X109631Y56252D01*
X109534Y56299D01*
X109435Y56338D01*
X109333Y56369D01*
X109229Y56390D01*
X109122Y56403D01*
X109012Y56408D01*
Y57195D01*
X109122Y57199D01*
X109229Y57212D01*
X109333Y57234D01*
X109435Y57264D01*
X109534Y57303D01*
X109631Y57351D01*
X109724Y57407D01*
X109816Y57472D01*
X109905Y57546D01*
X109991Y57628D01*
Y55975D01*
D02*
G37*
G36*
X164696Y56906D02*
X165021Y56627D01*
X165091Y56578D01*
X165156Y56537D01*
X165216Y56505D01*
X165272Y56481D01*
X165324Y56466D01*
X163914Y55603D01*
X163925Y55670D01*
X163925Y55740D01*
X163914Y55813D01*
X163892Y55889D01*
X163859Y55967D01*
X163816Y56048D01*
X163761Y56132D01*
X163695Y56218D01*
X163619Y56307D01*
X163531Y56399D01*
X164604Y56996D01*
X164696Y56906D01*
D02*
G37*
G36*
X162895Y55215D02*
X162899Y55102D01*
X162912Y54992D01*
X162934Y54887D01*
X162965Y54786D01*
X163004Y54689D01*
X163053Y54595D01*
X163110Y54506D01*
X163176Y54421D01*
X163251Y54339D01*
X162654Y53822D01*
X162575Y53896D01*
X162491Y53963D01*
X162402Y54023D01*
X162309Y54075D01*
X162211Y54121D01*
X162109Y54160D01*
X162002Y54191D01*
X161891Y54216D01*
X161775Y54234D01*
X161655Y54244D01*
X162900Y55332D01*
X162895Y55215D01*
D02*
G37*
G36*
X126393Y53462D02*
X126313Y53381D01*
X125992Y53019D01*
X125980Y52997D01*
X125977Y52982D01*
X125493Y53813D01*
X125511Y53804D01*
X125533Y53803D01*
X125558Y53807D01*
X125587Y53818D01*
X125619Y53835D01*
X125655Y53859D01*
X125695Y53889D01*
X125786Y53969D01*
X125837Y54018D01*
X126393Y53462D01*
D02*
G37*
G36*
X108363Y53656D02*
X108370Y53573D01*
X108383Y53499D01*
X108401Y53432D01*
X108425Y53373D01*
X108453Y53322D01*
X108487Y53278D01*
X108525Y53242D01*
X108569Y53215D01*
X108618Y53195D01*
X107406Y52875D01*
X107438Y52915D01*
X107466Y52966D01*
X107491Y53026D01*
X107513Y53097D01*
X107531Y53178D01*
X107546Y53268D01*
X107566Y53479D01*
X107571Y53600D01*
X107573Y53731D01*
X108360Y53746D01*
X108363Y53656D01*
D02*
G37*
G36*
X285736Y51667D02*
X285765Y51658D01*
X285807Y51650D01*
X285863Y51643D01*
X286014Y51632D01*
X286473Y51624D01*
X286385Y50049D01*
X285651Y50025D01*
X285720Y51677D01*
X285736Y51667D01*
D02*
G37*
G36*
X139921Y50540D02*
X139855Y50442D01*
X139796Y50343D01*
X139746Y50242D01*
X139703Y50141D01*
X139668Y50038D01*
X139641Y49934D01*
X139622Y49828D01*
X139610Y49722D01*
X139606Y49615D01*
X138819Y49516D01*
X138814Y49628D01*
X138800Y49735D01*
X138777Y49838D01*
X138744Y49937D01*
X138702Y50031D01*
X138651Y50122D01*
X138590Y50209D01*
X138520Y50291D01*
X138441Y50370D01*
X138352Y50444D01*
X139994Y50637D01*
X139921Y50540D01*
D02*
G37*
G36*
X73714Y54008D02*
X72883Y53169D01*
X69319Y49128D01*
X69133Y48813D01*
X69026Y48563D01*
X64390Y53987D01*
X64542Y54064D01*
X64772Y54227D01*
X65080Y54476D01*
X66470Y55735D01*
X69411Y58613D01*
X73714Y54008D01*
D02*
G37*
G36*
X283043Y48555D02*
X283071Y48549D01*
X283112Y48543D01*
X283234Y48533D01*
X283639Y48524D01*
X283774Y48524D01*
Y46949D01*
X283029Y46909D01*
Y48563D01*
X283043Y48555D01*
D02*
G37*
G36*
X280710Y45731D02*
X280738Y45724D01*
X280779Y45718D01*
X280902Y45709D01*
X281307Y45699D01*
X281441Y45699D01*
Y44124D01*
X280696Y44085D01*
Y45738D01*
X280710Y45731D01*
D02*
G37*
G36*
X215920Y58716D02*
X216619Y58179D01*
X217434Y57842D01*
X218307Y57727D01*
X219181Y57842D01*
X219995Y58179D01*
X220040Y58214D01*
X220828Y57826D01*
Y52077D01*
X211585Y42834D01*
X210952Y42740D01*
X210561Y42803D01*
X209995Y43238D01*
X209181Y43575D01*
X209124Y43583D01*
X208842Y44414D01*
X214510Y50082D01*
X214945Y50733D01*
X215098Y51501D01*
Y58494D01*
X215885Y58762D01*
X215920Y58716D01*
D02*
G37*
G36*
X269102Y43932D02*
X269165Y43290D01*
X269219Y43030D01*
X269289Y42809D01*
X269375Y42629D01*
X269477Y42489D01*
X269594Y42388D01*
X269726Y42328D01*
X269874Y42308D01*
X266740D01*
X266888Y42328D01*
X267021Y42388D01*
X267138Y42489D01*
X267239Y42629D01*
X267325Y42809D01*
X267395Y43030D01*
X267449Y43290D01*
X267489Y43591D01*
X267512Y43932D01*
X267520Y44313D01*
X269094D01*
X269102Y43932D01*
D02*
G37*
G36*
X176741Y43035D02*
X176970Y42849D01*
X177076Y42782D01*
X177175Y42732D01*
X177268Y42700D01*
X177354Y42685D01*
X177435Y42687D01*
X177508Y42706D01*
X177576Y42742D01*
X176271Y41830D01*
X176327Y41880D01*
X176363Y41938D01*
X176380Y42004D01*
X176378Y42078D01*
X176356Y42161D01*
X176316Y42252D01*
X176256Y42351D01*
X176176Y42458D01*
X176077Y42573D01*
X175959Y42697D01*
X176616Y43154D01*
X176741Y43035D01*
D02*
G37*
G36*
X53957Y47994D02*
X54114Y46390D01*
X54251Y45774D01*
X54428Y45283D01*
X54644Y44916D01*
X54899Y44672D01*
X55193Y44553D01*
X55527Y44558D01*
X55900Y44687D01*
X50850Y42228D01*
X50689Y41782D01*
X50544Y41565D01*
X50417Y41579D01*
X50306Y41822D01*
X50213Y42294D01*
X50136Y42997D01*
X50034Y45090D01*
X50000Y48102D01*
X53937Y48982D01*
X53957Y47994D01*
D02*
G37*
G36*
X156370Y42815D02*
X156486Y42715D01*
X156595Y42634D01*
X156696Y42571D01*
X156791Y42526D01*
X156878Y42499D01*
X156959Y42491D01*
X157032Y42500D01*
X157098Y42528D01*
X157156Y42574D01*
X156048Y41466D01*
X156094Y41524D01*
X156122Y41590D01*
X156131Y41664D01*
X156123Y41744D01*
X156096Y41831D01*
X156051Y41926D01*
X155988Y42028D01*
X155907Y42136D01*
X155807Y42252D01*
X155690Y42376D01*
X156246Y42933D01*
X156370Y42815D01*
D02*
G37*
G36*
X146370D02*
X146486Y42715D01*
X146595Y42634D01*
X146696Y42571D01*
X146791Y42526D01*
X146878Y42499D01*
X146959Y42491D01*
X147032Y42500D01*
X147098Y42528D01*
X147156Y42574D01*
X146048Y41466D01*
X146094Y41524D01*
X146122Y41590D01*
X146131Y41664D01*
X146123Y41744D01*
X146096Y41831D01*
X146051Y41926D01*
X145988Y42028D01*
X145907Y42136D01*
X145807Y42252D01*
X145690Y42376D01*
X146246Y42933D01*
X146370Y42815D01*
D02*
G37*
G36*
X286885Y37367D02*
X290672D01*
X290596Y37188D01*
X290529Y36947D01*
X290470Y36644D01*
X290418Y36280D01*
X290339Y35365D01*
X290314Y34577D01*
X290470Y32017D01*
X290529Y31714D01*
X290596Y31473D01*
X290672Y31294D01*
X285943D01*
X286018Y31473D01*
X286085Y31714D01*
X286144Y32017D01*
X286196Y32382D01*
X286275Y33297D01*
X286301Y34084D01*
X286144Y36644D01*
X286138Y36678D01*
X285861Y36802D01*
X285436Y36950D01*
X284969Y37076D01*
X284460Y37179D01*
X283910Y37259D01*
X283307Y37304D01*
X282704Y37259D01*
X282154Y37179D01*
X281645Y37076D01*
X281178Y36950D01*
X280753Y36802D01*
X280370Y36630D01*
X280029Y36436D01*
X279729Y36218D01*
Y42443D01*
X280029Y42226D01*
X280370Y42031D01*
X280753Y41860D01*
X281178Y41711D01*
X281645Y41585D01*
X282154Y41482D01*
X282704Y41402D01*
X283307Y41357D01*
X283910Y41402D01*
X284460Y41482D01*
X284969Y41585D01*
X285436Y41711D01*
X285861Y41860D01*
X286244Y42031D01*
X286585Y42226D01*
X286885Y42443D01*
Y37367D01*
D02*
G37*
G36*
X256166Y44140D02*
X256747Y43666D01*
X257038Y43468D01*
X257331Y43296D01*
X257625Y43150D01*
X257919Y43030D01*
X258214Y42936D01*
X258510Y42867D01*
X258806Y42825D01*
X255760Y39534D01*
X255888Y39721D01*
X255953Y39938D01*
X255955Y40185D01*
X255894Y40461D01*
X255770Y40767D01*
X255583Y41103D01*
X255333Y41469D01*
X255020Y41865D01*
X254645Y42291D01*
X254206Y42746D01*
X255876Y44416D01*
X256166Y44140D01*
D02*
G37*
G36*
X105760Y38544D02*
X105752Y38618D01*
X105728Y38685D01*
X105688Y38744D01*
X105632Y38795D01*
X105560Y38839D01*
X105472Y38874D01*
X105368Y38902D01*
X105248Y38921D01*
X105113Y38933D01*
X104961Y38937D01*
Y39724D01*
X105113Y39728D01*
X105248Y39740D01*
X105368Y39760D01*
X105472Y39787D01*
X105560Y39823D01*
X105632Y39866D01*
X105688Y39917D01*
X105728Y39976D01*
X105752Y40043D01*
X105760Y40118D01*
Y38544D01*
D02*
G37*
G36*
X128006Y35829D02*
X127887Y35919D01*
X127751Y35971D01*
X127597Y35982D01*
X127426Y35955D01*
X127238Y35888D01*
X127032Y35782D01*
X126810Y35636D01*
X126569Y35451D01*
X126312Y35227D01*
X126037Y34963D01*
X124924Y36077D01*
X125187Y36351D01*
X125597Y36849D01*
X125742Y37072D01*
X125849Y37277D01*
X125916Y37466D01*
X125943Y37636D01*
X125931Y37790D01*
X125880Y37926D01*
X125789Y38045D01*
X128006Y35829D01*
D02*
G37*
G36*
X168487Y35817D02*
X168396Y35839D01*
X168315Y35837D01*
X168243Y35811D01*
X168181Y35761D01*
X168128Y35686D01*
X168085Y35588D01*
X168051Y35465D01*
X168027Y35318D01*
X168013Y35148D01*
X168008Y34953D01*
X167024Y35160D01*
X167019Y35386D01*
X166981Y35776D01*
X166948Y35942D01*
X166906Y36086D01*
X166854Y36211D01*
X166793Y36316D01*
X166722Y36400D01*
X166641Y36464D01*
X166551Y36508D01*
X168487Y35817D01*
D02*
G37*
G36*
X140205Y36687D02*
X140166Y36632D01*
X140147Y36568D01*
X140147Y36496D01*
X140167Y36415D01*
X140206Y36326D01*
X140265Y36228D01*
X140343Y36122D01*
X140440Y36008D01*
X140558Y35885D01*
X139883Y35446D01*
X139757Y35566D01*
X139524Y35755D01*
X139417Y35824D01*
X139316Y35876D01*
X139221Y35911D01*
X139132Y35928D01*
X139049Y35928D01*
X138973Y35912D01*
X138902Y35878D01*
X140263Y36734D01*
X140205Y36687D01*
D02*
G37*
G36*
X195920Y58716D02*
X196619Y58179D01*
X197433Y57842D01*
X198307Y57727D01*
X199181Y57842D01*
X199995Y58179D01*
X200056Y58226D01*
X200843Y57838D01*
Y49889D01*
X192849Y41895D01*
X192588Y41504D01*
X192497Y41043D01*
X192497Y41043D01*
Y29150D01*
X191709Y28775D01*
X191682Y28797D01*
Y30315D01*
X191567Y31189D01*
X191230Y32003D01*
X190694Y32702D01*
X189995Y33238D01*
X189181Y33575D01*
X188307Y33690D01*
X187434Y33575D01*
X186619Y33238D01*
X186539Y33176D01*
X185751Y33565D01*
Y35097D01*
X186539Y35485D01*
X186619Y35423D01*
X187434Y35086D01*
X188307Y34971D01*
X189181Y35086D01*
X189995Y35423D01*
X190694Y35960D01*
X191230Y36659D01*
X191567Y37473D01*
X191682Y38346D01*
Y40315D01*
X191567Y41189D01*
X191230Y42003D01*
X190694Y42702D01*
X189995Y43238D01*
X189181Y43575D01*
X188307Y43690D01*
X187434Y43575D01*
X186619Y43238D01*
X186539Y43176D01*
X185751Y43565D01*
Y44537D01*
X189997Y48782D01*
X194683Y53468D01*
X194966Y53891D01*
X195065Y54390D01*
Y58537D01*
X195852Y58804D01*
X195920Y58716D01*
D02*
G37*
G36*
X142053Y50167D02*
X142514Y50075D01*
X146844D01*
X155247Y41672D01*
X155047Y41189D01*
X154932Y40315D01*
Y38346D01*
X155047Y37473D01*
X155384Y36659D01*
X155866Y36031D01*
X155909Y35877D01*
X155795Y35076D01*
X155788Y35069D01*
X152535Y31816D01*
X151499D01*
X151426Y31822D01*
X151313Y31838D01*
X151297Y31842D01*
X151230Y32003D01*
X150694Y32702D01*
X149995Y33238D01*
X149181Y33575D01*
X148307Y33690D01*
X147433Y33575D01*
X146619Y33238D01*
X146482Y33132D01*
X145694Y33521D01*
Y35141D01*
X146482Y35529D01*
X146619Y35423D01*
X147433Y35086D01*
X148307Y34971D01*
X149181Y35086D01*
X149995Y35423D01*
X150694Y35960D01*
X151230Y36659D01*
X151567Y37473D01*
X151682Y38346D01*
Y40315D01*
X151567Y41189D01*
X151230Y42003D01*
X150694Y42702D01*
X149995Y43238D01*
X149181Y43575D01*
X148307Y43690D01*
X147433Y43575D01*
X146950Y43375D01*
X140819Y49506D01*
X141010Y50095D01*
X141824Y50320D01*
X142053Y50167D01*
D02*
G37*
G36*
X77858Y37268D02*
X77539Y37213D01*
X77198Y37108D01*
X76835Y36954D01*
X76451Y36750D01*
X76045Y36496D01*
X75617Y36193D01*
X74695Y35438D01*
X74201Y34986D01*
X73686Y34485D01*
X70902Y37269D01*
X71388Y37776D01*
X72222Y38784D01*
X72569Y39284D01*
X72870Y39781D01*
X73126Y40276D01*
X73335Y40768D01*
X73498Y41257D01*
X73615Y41744D01*
X73685Y42228D01*
X77858Y37268D01*
D02*
G37*
G36*
X171126Y32438D02*
X170976Y32281D01*
X170849Y32133D01*
X170745Y31995D01*
X170664Y31866D01*
X170606Y31746D01*
X170571Y31635D01*
X170559Y31534D01*
X170570Y31442D01*
X170605Y31359D01*
X170662Y31286D01*
X169278Y32670D01*
X169351Y32612D01*
X169434Y32578D01*
X169526Y32567D01*
X169627Y32579D01*
X169738Y32614D01*
X169858Y32672D01*
X169987Y32753D01*
X170126Y32857D01*
X170273Y32984D01*
X170431Y33134D01*
X171126Y32438D01*
D02*
G37*
G36*
X161436Y31764D02*
X161280Y31601D01*
X161032Y31298D01*
X160940Y31158D01*
X160870Y31026D01*
X160821Y30902D01*
X160793Y30785D01*
X160787Y30676D01*
X160802Y30574D01*
X160838Y30481D01*
X159885Y32299D01*
X159939Y32221D01*
X160004Y32168D01*
X160081Y32140D01*
X160169Y32139D01*
X160269Y32162D01*
X160381Y32211D01*
X160504Y32286D01*
X160638Y32386D01*
X160785Y32511D01*
X160943Y32662D01*
X161436Y31764D01*
D02*
G37*
G36*
X136341Y32984D02*
X136488Y32857D01*
X136627Y32753D01*
X136756Y32672D01*
X136876Y32614D01*
X136987Y32579D01*
X137088Y32567D01*
X137180Y32578D01*
X137263Y32612D01*
X137336Y32670D01*
X135952Y31286D01*
X136010Y31359D01*
X136044Y31442D01*
X136055Y31534D01*
X136043Y31635D01*
X136008Y31746D01*
X135950Y31866D01*
X135869Y31995D01*
X135765Y32133D01*
X135638Y32281D01*
X135488Y32438D01*
X136184Y33134D01*
X136341Y32984D01*
D02*
G37*
G36*
X105870Y32330D02*
X105984Y32233D01*
X106089Y32156D01*
X106185Y32099D01*
X106272Y32061D01*
X106350Y32044D01*
X106420Y32047D01*
X106481Y32069D01*
X106533Y32111D01*
X106576Y32174D01*
X105801Y30734D01*
X105831Y30808D01*
X105844Y30887D01*
X105841Y30973D01*
X105821Y31064D01*
X105784Y31161D01*
X105730Y31264D01*
X105660Y31372D01*
X105573Y31486D01*
X105470Y31606D01*
X105350Y31732D01*
X105748Y32447D01*
X105870Y32330D01*
D02*
G37*
G36*
X175566Y32135D02*
X175713Y32009D01*
X175846Y31911D01*
X175966Y31840D01*
X176072Y31796D01*
X176165Y31780D01*
X176244Y31791D01*
X176310Y31830D01*
X176363Y31896D01*
X176402Y31990D01*
X175760Y29858D01*
X175779Y29969D01*
X175774Y30090D01*
X175744Y30223D01*
X175689Y30367D01*
X175610Y30521D01*
X175506Y30687D01*
X175377Y30863D01*
X175224Y31051D01*
X174843Y31459D01*
X175406Y32288D01*
X175566Y32135D01*
D02*
G37*
G36*
X202408Y32746D02*
X201970Y32291D01*
X201281Y31469D01*
X201031Y31103D01*
X200844Y30767D01*
X200721Y30461D01*
X200659Y30185D01*
X200661Y29938D01*
X200727Y29721D01*
X200854Y29534D01*
X197808Y32825D01*
X198105Y32867D01*
X198400Y32936D01*
X198695Y33030D01*
X198990Y33150D01*
X199283Y33296D01*
X199576Y33468D01*
X199867Y33666D01*
X200159Y33890D01*
X200449Y34140D01*
X200738Y34416D01*
X202408Y32746D01*
D02*
G37*
G36*
X150579Y31398D02*
X150625Y31315D01*
X150692Y31242D01*
X150780Y31179D01*
X150888Y31126D01*
X151018Y31082D01*
X151168Y31048D01*
X151339Y31023D01*
X151531Y31009D01*
X151744Y31004D01*
X151851Y30020D01*
X151648Y30015D01*
X151468Y30000D01*
X151311Y29975D01*
X151177Y29941D01*
X151066Y29897D01*
X150978Y29842D01*
X150912Y29779D01*
X150870Y29705D01*
X150851Y29621D01*
X150855Y29528D01*
X150553Y31490D01*
X150579Y31398D01*
D02*
G37*
G36*
X276156Y34705D02*
X277254Y33774D01*
X277608Y33521D01*
X278297Y33099D01*
X278633Y32931D01*
X278963Y32791D01*
X279287Y32680D01*
X275760Y28420D01*
X275918Y28683D01*
X275992Y28985D01*
X275982Y29327D01*
X275888Y29710D01*
X275709Y30132D01*
X275446Y30595D01*
X275099Y31097D01*
X274667Y31640D01*
X274151Y32222D01*
X273550Y32844D01*
X275778Y35072D01*
X276156Y34705D01*
D02*
G37*
G36*
X266156D02*
X267254Y33774D01*
X267608Y33521D01*
X268297Y33099D01*
X268633Y32931D01*
X268963Y32791D01*
X269286Y32680D01*
X265760Y28420D01*
X265918Y28683D01*
X265992Y28985D01*
X265982Y29327D01*
X265888Y29710D01*
X265709Y30132D01*
X265446Y30595D01*
X265099Y31097D01*
X264667Y31640D01*
X264151Y32222D01*
X263550Y32844D01*
X265777Y35072D01*
X266156Y34705D01*
D02*
G37*
G36*
X206325Y26765D02*
X206292Y26838D01*
X206248Y26889D01*
X206194Y26919D01*
X206130Y26928D01*
X206056Y26915D01*
X205972Y26881D01*
X205878Y26826D01*
X205773Y26749D01*
X205659Y26652D01*
X205534Y26533D01*
X205077Y27189D01*
X205232Y27349D01*
X205484Y27645D01*
X205581Y27780D01*
X205659Y27907D01*
X205717Y28025D01*
X205757Y28135D01*
X205777Y28237D01*
X205778Y28331D01*
X205760Y28416D01*
X206325Y26765D01*
D02*
G37*
G36*
X129193Y25984D02*
X129111Y25949D01*
X129038Y25892D01*
X128974Y25812D01*
X128921Y25709D01*
X128877Y25583D01*
X128843Y25435D01*
X128819Y25263D01*
X128804Y25069D01*
X128799Y24851D01*
X127815D01*
X127810Y25069D01*
X127796Y25263D01*
X127771Y25435D01*
X127737Y25583D01*
X127693Y25709D01*
X127640Y25812D01*
X127577Y25892D01*
X127504Y25949D01*
X127421Y25984D01*
X127329Y25995D01*
X129286D01*
X129193Y25984D01*
D02*
G37*
G36*
X190726Y28941D02*
X190662Y28724D01*
X190659Y28477D01*
X190720Y28200D01*
X190844Y27894D01*
X191031Y27558D01*
X191281Y27192D01*
X191594Y26796D01*
X191970Y26371D01*
X192408Y25916D01*
X190738Y24245D01*
X190449Y24521D01*
X189867Y24995D01*
X189576Y25193D01*
X189283Y25365D01*
X188990Y25512D01*
X188695Y25632D01*
X188400Y25726D01*
X188104Y25794D01*
X187808Y25836D01*
X190855Y29128D01*
X190726Y28941D01*
D02*
G37*
G36*
X250889Y30326D02*
X251007Y29834D01*
X251173Y29340D01*
X251386Y28842D01*
X251645Y28341D01*
X251952Y27836D01*
X252306Y27329D01*
X252707Y26818D01*
X253650Y25787D01*
X250842Y23028D01*
X250319Y23545D01*
X247982Y25614D01*
X247726Y25786D01*
X247508Y25908D01*
X247328Y25982D01*
X250817Y30814D01*
X250889Y30326D01*
D02*
G37*
G36*
X192213Y15748D02*
X191043Y14579D01*
X191039Y14594D01*
X191024Y14619D01*
X190999Y14652D01*
X190919Y14745D01*
X190639Y15038D01*
X190544Y15134D01*
X191658Y16247D01*
X192213Y15748D01*
D02*
G37*
%LPC*%
G36*
X353559Y292126D02*
Y290862D01*
X354823D01*
X354812Y290920D01*
X354333Y291636D01*
X353617Y292115D01*
X353559Y292126D01*
D02*
G37*
G36*
X303543Y292091D02*
Y290827D01*
X304807D01*
X304796Y290884D01*
X304317Y291600D01*
X303601Y292079D01*
X303543Y292091D01*
D02*
G37*
G36*
X301969D02*
X301911Y292079D01*
X301195Y291600D01*
X300716Y290884D01*
X300705Y290827D01*
X301969D01*
Y292091D01*
D02*
G37*
G36*
X354823Y289288D02*
X353559D01*
Y288024D01*
X353617Y288035D01*
X354333Y288514D01*
X354812Y289230D01*
X354823Y289288D01*
D02*
G37*
G36*
X304807Y289252D02*
X303543D01*
Y287988D01*
X303601Y288000D01*
X304317Y288478D01*
X304796Y289194D01*
X304807Y289252D01*
D02*
G37*
G36*
X374799Y287620D02*
X374131Y287532D01*
X373509Y287275D01*
X372974Y286864D01*
X372564Y286330D01*
X372306Y285707D01*
X372218Y285039D01*
X372306Y284371D01*
X372564Y283749D01*
X372974Y283214D01*
X373509Y282804D01*
X374131Y282546D01*
X374799Y282458D01*
X375467Y282546D01*
X376090Y282804D01*
X376624Y283214D01*
X377034Y283749D01*
X377292Y284371D01*
X377380Y285039D01*
X377292Y285707D01*
X377034Y286330D01*
X376624Y286864D01*
X376090Y287275D01*
X375467Y287532D01*
X374799Y287620D01*
D02*
G37*
G36*
X5630Y344105D02*
X4832Y344000D01*
X4089Y343692D01*
X3451Y343203D01*
X2961Y342564D01*
X2654Y341821D01*
X2548Y341024D01*
X2654Y340226D01*
X2961Y339483D01*
X3451Y338845D01*
X4089Y338355D01*
X4832Y338047D01*
X5630Y337942D01*
X6427Y338047D01*
X7171Y338355D01*
X7809Y338845D01*
X8299Y339483D01*
X8606Y340226D01*
X8711Y341024D01*
X8606Y341821D01*
X8299Y342564D01*
X7809Y343203D01*
X7171Y343692D01*
X6427Y344000D01*
X5630Y344105D01*
D02*
G37*
G36*
X202756Y335138D02*
X138091D01*
Y318209D01*
X202756D01*
Y335138D01*
D02*
G37*
G36*
X273819Y317209D02*
Y316302D01*
X273926Y316391D01*
X274093Y316547D01*
X274189Y316641D01*
X274788Y315945D01*
X275083D01*
X275071Y316002D01*
X274593Y316719D01*
X273876Y317197D01*
X273819Y317209D01*
D02*
G37*
G36*
X272244D02*
X272187Y317197D01*
X271470Y316719D01*
X270992Y316002D01*
X270980Y315945D01*
X272244D01*
Y317209D01*
D02*
G37*
G36*
X230906D02*
Y315945D01*
X232169D01*
X232158Y316002D01*
X231679Y316719D01*
X230963Y317197D01*
X230906Y317209D01*
D02*
G37*
G36*
X229331D02*
X229273Y317197D01*
X228557Y316719D01*
X228078Y316002D01*
X228067Y315945D01*
X229331D01*
Y317209D01*
D02*
G37*
G36*
X175000D02*
Y315945D01*
X176264D01*
X176252Y316002D01*
X175774Y316719D01*
X175057Y317197D01*
X175000Y317209D01*
D02*
G37*
G36*
X173425D02*
X173368Y317197D01*
X172652Y316719D01*
X172173Y316002D01*
X172161Y315945D01*
X173425D01*
Y317209D01*
D02*
G37*
G36*
X126719D02*
Y315945D01*
X127983D01*
X127972Y316002D01*
X127493Y316719D01*
X126777Y317197D01*
X126719Y317209D01*
D02*
G37*
G36*
X125145D02*
X125087Y317197D01*
X124371Y316719D01*
X123892Y316002D01*
X123881Y315945D01*
X125145D01*
Y317209D01*
D02*
G37*
G36*
X272244Y314370D02*
X270980D01*
X270992Y314313D01*
X271470Y313596D01*
X272187Y313118D01*
X272244Y313106D01*
Y314370D01*
D02*
G37*
G36*
X232169D02*
X230906D01*
Y313106D01*
X230963Y313118D01*
X231679Y313596D01*
X232158Y314313D01*
X232169Y314370D01*
D02*
G37*
G36*
X229331D02*
X228067D01*
X228078Y314313D01*
X228557Y313596D01*
X229273Y313118D01*
X229331Y313106D01*
Y314370D01*
D02*
G37*
G36*
X176264D02*
X175000D01*
Y313106D01*
X175057Y313118D01*
X175774Y313596D01*
X176252Y314313D01*
X176264Y314370D01*
D02*
G37*
G36*
X173425D02*
X172161D01*
X172173Y314313D01*
X172652Y313596D01*
X173368Y313118D01*
X173425Y313106D01*
Y314370D01*
D02*
G37*
G36*
X127983D02*
X126719D01*
Y313106D01*
X126777Y313118D01*
X127493Y313596D01*
X127972Y314313D01*
X127983Y314370D01*
D02*
G37*
G36*
X125145D02*
X123881D01*
X123892Y314313D01*
X124371Y313596D01*
X125087Y313118D01*
X125145Y313106D01*
Y314370D01*
D02*
G37*
G36*
X250590Y324442D02*
X249278Y324313D01*
X248017Y323930D01*
X246854Y323308D01*
X245835Y322472D01*
X244999Y321453D01*
X244377Y320290D01*
X243994Y319029D01*
X243865Y317717D01*
X243994Y316405D01*
X244377Y315143D01*
X244999Y313980D01*
X245835Y312961D01*
X246854Y312125D01*
X248017Y311503D01*
X249278Y311121D01*
X250590Y310991D01*
X251903Y311121D01*
X253164Y311503D01*
X254327Y312125D01*
X255346Y312961D01*
X256182Y313980D01*
X256804Y315143D01*
X257187Y316405D01*
X257316Y317717D01*
X257187Y319029D01*
X256804Y320290D01*
X256182Y321453D01*
X255346Y322472D01*
X254327Y323308D01*
X253164Y323930D01*
X251903Y324313D01*
X250590Y324442D01*
D02*
G37*
G36*
X119095Y43785D02*
Y40118D01*
X121881D01*
Y40315D01*
X121759Y41240D01*
X121402Y42102D01*
X120834Y42842D01*
X120094Y43410D01*
X119232Y43767D01*
X119095Y43785D01*
D02*
G37*
G36*
X117520D02*
X117382Y43767D01*
X116520Y43410D01*
X115780Y42842D01*
X115212Y42102D01*
X114855Y41240D01*
X114733Y40315D01*
Y40118D01*
X117520D01*
Y43785D01*
D02*
G37*
G36*
X219448Y38543D02*
X219094D01*
Y38116D01*
X219448Y38543D01*
D02*
G37*
G36*
X221881D02*
X220899D01*
X220905Y38529D01*
X221168Y38067D01*
X221516Y37564D01*
X221715Y37314D01*
X221759Y37422D01*
X221881Y38346D01*
Y38543D01*
D02*
G37*
G36*
X248307Y43690D02*
X247433Y43575D01*
X246619Y43238D01*
X245920Y42702D01*
X245384Y42003D01*
X245047Y41189D01*
X244932Y40315D01*
Y38346D01*
X245047Y37473D01*
X245384Y36659D01*
X245920Y35960D01*
X246619Y35423D01*
X247433Y35086D01*
X248307Y34971D01*
X249181Y35086D01*
X249995Y35423D01*
X250694Y35960D01*
X251230Y36659D01*
X251567Y37473D01*
X251682Y38346D01*
Y40315D01*
X251567Y41189D01*
X251230Y42003D01*
X250694Y42702D01*
X249995Y43238D01*
X249181Y43575D01*
X248307Y43690D01*
D02*
G37*
G36*
X238307D02*
X237434Y43575D01*
X236619Y43238D01*
X235920Y42702D01*
X235384Y42003D01*
X235047Y41189D01*
X234932Y40315D01*
Y38346D01*
X235047Y37473D01*
X235384Y36659D01*
X235920Y35960D01*
X236619Y35423D01*
X237434Y35086D01*
X238307Y34971D01*
X239181Y35086D01*
X239995Y35423D01*
X240694Y35960D01*
X241230Y36659D01*
X241567Y37473D01*
X241682Y38346D01*
Y40315D01*
X241567Y41189D01*
X241230Y42003D01*
X240694Y42702D01*
X239995Y43238D01*
X239181Y43575D01*
X238307Y43690D01*
D02*
G37*
G36*
X228307D02*
X227433Y43575D01*
X226619Y43238D01*
X225920Y42702D01*
X225384Y42003D01*
X225047Y41189D01*
X224932Y40315D01*
Y38346D01*
X225047Y37473D01*
X225384Y36659D01*
X225920Y35960D01*
X226619Y35423D01*
X227433Y35086D01*
X228307Y34971D01*
X229181Y35086D01*
X229995Y35423D01*
X230694Y35960D01*
X231230Y36659D01*
X231567Y37473D01*
X231682Y38346D01*
Y40315D01*
X231567Y41189D01*
X231230Y42003D01*
X230694Y42702D01*
X229995Y43238D01*
X229181Y43575D01*
X228307Y43690D01*
D02*
G37*
G36*
X117520Y38543D02*
X114733D01*
Y38346D01*
X114855Y37422D01*
X115212Y36560D01*
X115780Y35819D01*
X116520Y35251D01*
X117277Y34938D01*
X117235Y35404D01*
X117167Y35758D01*
X117079Y36057D01*
X116972Y36302D01*
X116845Y36493D01*
X116699Y36629D01*
X116533Y36711D01*
X116348Y36738D01*
X117520D01*
Y38543D01*
D02*
G37*
G36*
X121881D02*
X119095D01*
Y36738D01*
X120266D01*
X120081Y36711D01*
X119915Y36629D01*
X119769Y36493D01*
X119642Y36302D01*
X119535Y36057D01*
X119447Y35758D01*
X119379Y35404D01*
X119330Y34996D01*
X119326Y34933D01*
X120094Y35251D01*
X120834Y35819D01*
X121402Y36560D01*
X121759Y37422D01*
X121881Y38346D01*
Y38543D01*
D02*
G37*
G36*
X219094Y35078D02*
Y34876D01*
X219232Y34894D01*
X219307Y34925D01*
X219094Y35078D01*
D02*
G37*
G36*
X117288Y33728D02*
X116520Y33410D01*
X115780Y32842D01*
X115212Y32102D01*
X114855Y31240D01*
X114733Y30315D01*
Y30118D01*
X117520D01*
Y31924D01*
X116348D01*
X116533Y31951D01*
X116699Y32032D01*
X116845Y32169D01*
X116972Y32359D01*
X117079Y32604D01*
X117167Y32904D01*
X117235Y33257D01*
X117284Y33666D01*
X117288Y33728D01*
D02*
G37*
G36*
X238307Y33690D02*
X237434Y33575D01*
X236619Y33238D01*
X235920Y32702D01*
X235384Y32003D01*
X235047Y31189D01*
X234932Y30315D01*
Y28346D01*
X235047Y27473D01*
X235384Y26659D01*
X235920Y25960D01*
X236619Y25423D01*
X237434Y25086D01*
X238307Y24971D01*
X239181Y25086D01*
X239995Y25423D01*
X240694Y25960D01*
X241230Y26659D01*
X241567Y27473D01*
X241682Y28346D01*
Y30315D01*
X241567Y31189D01*
X241230Y32003D01*
X240694Y32702D01*
X239995Y33238D01*
X239181Y33575D01*
X238307Y33690D01*
D02*
G37*
G36*
X228307D02*
X227433Y33575D01*
X226619Y33238D01*
X225920Y32702D01*
X225384Y32003D01*
X225047Y31189D01*
X224932Y30315D01*
Y28346D01*
X225047Y27473D01*
X225384Y26659D01*
X225920Y25960D01*
X226619Y25423D01*
X227433Y25086D01*
X228307Y24971D01*
X229181Y25086D01*
X229995Y25423D01*
X230694Y25960D01*
X231230Y26659D01*
X231567Y27473D01*
X231682Y28346D01*
Y30315D01*
X231567Y31189D01*
X231230Y32003D01*
X230694Y32702D01*
X229995Y33238D01*
X229181Y33575D01*
X228307Y33690D01*
D02*
G37*
G36*
X117520Y28543D02*
X114733D01*
Y28346D01*
X114855Y27422D01*
X115212Y26559D01*
X115780Y25819D01*
X116520Y25251D01*
X117382Y24894D01*
X117520Y24876D01*
Y28543D01*
D02*
G37*
G36*
X319882Y30160D02*
X318184Y29993D01*
X316551Y29498D01*
X315047Y28693D01*
X313728Y27611D01*
X312645Y26292D01*
X311841Y24787D01*
X311346Y23155D01*
X311179Y21457D01*
X311346Y19759D01*
X311841Y18126D01*
X312645Y16621D01*
X313728Y15303D01*
X315047Y14220D01*
X316551Y13416D01*
X318184Y12921D01*
X319882Y12753D01*
X321580Y12921D01*
X323213Y13416D01*
X324717Y14220D01*
X326036Y15303D01*
X327118Y16621D01*
X327923Y18126D01*
X328418Y19759D01*
X328585Y21457D01*
X328418Y23155D01*
X327923Y24787D01*
X327118Y26292D01*
X326036Y27611D01*
X324717Y28693D01*
X323213Y29498D01*
X321580Y29993D01*
X319882Y30160D01*
D02*
G37*
G36*
X343012Y8514D02*
X342214Y8410D01*
X341471Y8102D01*
X340833Y7612D01*
X340343Y6974D01*
X340035Y6231D01*
X339930Y5433D01*
X340035Y4636D01*
X340343Y3892D01*
X340833Y3254D01*
X341471Y2764D01*
X342214Y2457D01*
X343012Y2352D01*
X343809Y2457D01*
X344552Y2764D01*
X345191Y3254D01*
X345680Y3892D01*
X345988Y4636D01*
X346093Y5433D01*
X345988Y6231D01*
X345680Y6974D01*
X345191Y7612D01*
X344552Y8102D01*
X343809Y8410D01*
X343012Y8514D01*
D02*
G37*
%LPD*%
D10*
X233071Y101083D02*
X242224Y110236D01*
X229331Y101083D02*
X233071D01*
X207795Y141122D02*
Y142216D01*
X230315Y140059D02*
Y142216D01*
X189075Y49705D02*
X189075D01*
X193761Y54390D02*
Y64036D01*
X189075Y49705D02*
X193761Y54390D01*
X184547Y45177D02*
X189075Y49705D01*
X199956Y67323D02*
X200000D01*
X199897Y67264D02*
X199956Y67323D01*
X196988Y67264D02*
X199897D01*
X193761Y64036D02*
X196988Y67264D01*
X200000Y67323D02*
X202264Y69587D01*
X156717Y34154D02*
X160531D01*
X149488Y30512D02*
X153075D01*
X156717Y34154D01*
X148307Y29331D02*
X149488Y30512D01*
X112697Y58617D02*
X122002Y49311D01*
X122164D01*
X122853Y48622D02*
X132923D01*
X134468Y34154D02*
Y47077D01*
X122164Y49311D02*
X122853Y48622D01*
X132923D02*
X134468Y47077D01*
X123587Y50394D02*
X133657D01*
X144390Y39661D01*
X114469Y59512D02*
X123587Y50394D01*
X134468Y34154D02*
X138307Y30315D01*
X179474Y21063D02*
X184547Y26136D01*
X131201Y21063D02*
X179474D01*
X128307Y23957D02*
X131201Y21063D01*
X121476Y81669D02*
Y83720D01*
X114469Y74661D02*
X121476Y81669D01*
X114469Y59512D02*
Y74661D01*
X144390Y26835D02*
Y39661D01*
Y26835D02*
X146717Y24508D01*
X159897D01*
X163707Y28317D01*
Y31143D01*
X167516Y34953D01*
Y38540D01*
X168307Y39331D01*
X210027Y86528D02*
X210039Y86516D01*
X208465Y86528D02*
X210027D01*
X203465Y140248D02*
Y142216D01*
X203464Y138689D02*
Y140248D01*
X199134Y140248D02*
Y142216D01*
X199134Y138689D02*
Y140248D01*
X194803Y140248D02*
Y142216D01*
X194803Y138689D02*
Y140248D01*
X190472Y140248D02*
Y142216D01*
X190472Y138689D02*
Y140248D01*
X186142Y140248D02*
Y142216D01*
X186142Y138689D02*
Y140248D01*
X181811Y140248D02*
Y142216D01*
X181811Y138689D02*
Y140248D01*
X177480Y140248D02*
Y142216D01*
X177480Y138689D02*
Y140248D01*
X173150Y140248D02*
Y142216D01*
X173150Y138689D02*
Y140248D01*
X168819Y140248D02*
Y142216D01*
X168819Y138689D02*
Y140248D01*
X164488Y140248D02*
Y142216D01*
X164488Y138689D02*
Y140248D01*
X160158Y140248D02*
Y142216D01*
X160157Y138689D02*
Y140248D01*
X155827Y140248D02*
Y142216D01*
X155827Y138689D02*
Y140248D01*
X151496Y140248D02*
Y142216D01*
X151496Y138689D02*
Y140248D01*
X147166Y140248D02*
Y142216D01*
X147165Y138689D02*
Y140248D01*
X142835Y140248D02*
Y142216D01*
X142835Y138689D02*
Y140248D01*
X138504Y140248D02*
Y142216D01*
X138504Y138689D02*
Y140248D01*
X134173Y140248D02*
Y142216D01*
X134173Y138689D02*
Y140248D01*
X129843Y140248D02*
Y142216D01*
X129842Y138689D02*
Y140248D01*
X125512Y140248D02*
Y142216D01*
X125512Y138689D02*
Y140248D01*
X121181Y140248D02*
Y142216D01*
X121181Y138689D02*
Y140248D01*
X116851Y140248D02*
Y142216D01*
X116850Y138689D02*
Y140248D01*
X112520Y140248D02*
Y142216D01*
X112520Y138689D02*
Y140248D01*
X108189Y140248D02*
Y142216D01*
X108189Y138689D02*
Y140248D01*
X103858Y140248D02*
Y142216D01*
X103858Y138689D02*
Y140248D01*
X99528Y140248D02*
Y142216D01*
X99528Y138689D02*
Y140248D01*
X95197Y138689D02*
Y140248D01*
X95197Y140248D01*
Y142216D01*
X193307Y80465D02*
X196862Y76909D01*
X199897D02*
X202264Y74543D01*
X196862Y76909D02*
X199897D01*
X193307Y80465D02*
Y80480D01*
X192083Y81705D02*
Y83720D01*
Y81705D02*
X193307Y80480D01*
X202264Y69587D02*
Y74543D01*
X166796Y57185D02*
X170276D01*
X173327Y60236D01*
Y63519D01*
X180547Y67913D02*
X180905D01*
X179543Y66909D02*
X180547Y67913D01*
X176717Y66909D02*
X179543D01*
X173327Y63519D02*
X176717Y66909D01*
X181341Y68349D02*
X185632D01*
X186717Y67264D02*
X189897D01*
X185632Y68349D02*
X186717Y67264D01*
X189897D02*
X192894Y70260D01*
X180905Y67913D02*
X181341Y68349D01*
X192894Y70260D02*
Y73913D01*
X166108Y67264D02*
X173268D01*
X165905D02*
X166108D01*
X165882Y67287D02*
X165905Y67264D01*
X173268D02*
X174409Y68405D01*
Y74602D02*
X176875Y77067D01*
X174409Y68405D02*
Y74602D01*
X188307Y72087D02*
Y73071D01*
X184311Y77067D02*
X188307Y73071D01*
X176875Y77067D02*
X184311D01*
X112697Y58617D02*
Y76083D01*
X177953Y81732D02*
Y82185D01*
X168307Y72087D02*
X177953Y81732D01*
X163484Y60497D02*
X166796Y57185D01*
X163484Y60497D02*
Y63386D01*
X159383Y67487D02*
Y68907D01*
Y67487D02*
X163484Y63386D01*
X158307Y69984D02*
X159383Y68907D01*
X158307Y69984D02*
Y72087D01*
X165882Y67287D02*
X166085D01*
X166108Y67264D01*
X164285Y68884D02*
X165882Y67287D01*
X164285Y68884D02*
Y74477D01*
X187605Y79202D02*
X190293Y76513D01*
X190293D01*
X192894Y73913D01*
X183181Y81976D02*
X185956Y79202D01*
X187605D01*
X183181Y81976D02*
Y83720D01*
X177984Y82217D02*
Y83720D01*
X177953Y82185D02*
X177984Y82217D01*
X166717Y76909D02*
X168642D01*
X164285Y74477D02*
X166717Y76909D01*
X168642D02*
X173524Y81791D01*
X173571Y81839D02*
Y83720D01*
X173524Y81791D02*
X173571Y81839D01*
X173524Y81791D02*
Y81791D01*
X188307Y71102D02*
Y72087D01*
X144193Y68996D02*
Y75394D01*
X137008Y82579D02*
X144193Y75394D01*
X149543Y67264D02*
X152461Y64346D01*
X145925Y67264D02*
X149543D01*
X144193Y68996D02*
X145925Y67264D01*
X142421Y60827D02*
X146752Y56496D01*
X137258Y79823D02*
X142421Y74660D01*
Y60827D02*
Y74660D01*
X158760Y50098D02*
X166748D01*
X167241Y49606D02*
X174469Y42378D01*
X167241Y49606D02*
X167241D01*
X152461Y56398D02*
X158760Y50098D01*
X166748D02*
X167241Y49606D01*
X152461Y56398D02*
Y64346D01*
X166015Y48327D02*
X172309Y42032D01*
X149503Y56496D02*
X157673Y48327D01*
X166015D01*
X146752Y56496D02*
X149503D01*
X160236Y46457D02*
X164469Y42224D01*
X148769Y54724D02*
X157037Y46457D01*
X160236D01*
X146018Y54724D02*
X148769D01*
X143558Y57185D02*
X146018Y54724D01*
X126796Y57185D02*
X143558D01*
X148036Y52953D02*
X156303Y44685D01*
X159449D02*
X162303Y41831D01*
X156303Y44685D02*
X159449D01*
X145284Y52953D02*
X148036D01*
X164469Y35492D02*
Y42224D01*
X162303Y35925D02*
Y41831D01*
X137067Y82638D02*
Y83720D01*
X137008Y82579D02*
X137067Y82638D01*
X134469Y82599D02*
Y83720D01*
X134350Y82480D02*
X134469Y82599D01*
X134350Y80905D02*
X135433Y79823D01*
X134350Y80905D02*
Y82480D01*
X150083Y82004D02*
Y83720D01*
Y82004D02*
X150098Y81988D01*
X148425Y79823D02*
X150098Y81496D01*
Y81988D01*
X147484Y82524D02*
Y83720D01*
X144980Y80020D02*
X147484Y82524D01*
X144685Y80020D02*
X144980D01*
X124311Y67466D02*
Y78445D01*
X126673Y80807D01*
X124075Y81063D02*
Y83720D01*
X122539Y79528D02*
X124075Y81063D01*
X122539Y68200D02*
Y79528D01*
X134252Y68032D02*
Y78051D01*
X131870Y80433D02*
Y83720D01*
Y80433D02*
X134252Y78051D01*
X129272Y82126D02*
Y83720D01*
X129232Y82087D02*
X129272Y82126D01*
X129232Y79921D02*
Y82087D01*
X126673Y80807D02*
Y83720D01*
X118878Y82598D02*
Y83720D01*
Y82598D02*
X118898Y82579D01*
X112697Y76083D02*
X118898Y82284D01*
Y82579D01*
X122697Y58779D02*
X126062Y55413D01*
X142824D02*
X145284Y52953D01*
X126062Y55413D02*
X142824D01*
X124469Y59512D02*
X126796Y57185D01*
X160531Y34154D02*
X162303Y35925D01*
X158307Y29331D02*
X164469Y35492D01*
X168307Y30315D02*
X172309Y34317D01*
Y42032D01*
X168307Y29331D02*
Y30315D01*
X174469Y32529D02*
Y42378D01*
X176532Y31106D02*
X178307Y29331D01*
X175892Y31106D02*
X176532D01*
X174469Y32529D02*
X175892Y31106D01*
X118307Y62087D02*
Y63968D01*
X122539Y68200D01*
X122697Y65852D02*
X124311Y67466D01*
X122697Y58779D02*
Y65852D01*
X132480Y69095D02*
Y76673D01*
X129232Y79921D02*
X132480Y76673D01*
X126279Y66929D02*
X130315D01*
X132480Y69095D01*
X128307Y62087D02*
X134252Y68032D01*
X124469Y65118D02*
X126279Y66929D01*
X124469Y59512D02*
Y65118D01*
X135433Y79823D02*
X137258D01*
X207795Y141122D02*
X208169Y140748D01*
X198307Y72087D02*
X198327Y72106D01*
X138307Y29331D02*
Y30315D01*
X128307Y23957D02*
Y29331D01*
D12*
X197737Y322441D02*
X198917Y323622D01*
Y324802D01*
X197737Y325983D01*
X193604Y324802D02*
X195375D01*
X195966Y324212D01*
Y323031D01*
X195375Y322441D01*
X193604D01*
X192423D02*
X191243Y323622D01*
Y324802D01*
X192423Y325983D01*
X185339Y324802D02*
X184158D01*
X183568Y324212D01*
Y322441D01*
X185339D01*
X185930Y323031D01*
X185339Y323622D01*
X183568D01*
X182387Y322441D02*
Y324802D01*
X180616D01*
X180026Y324212D01*
Y322441D01*
X176484Y325983D02*
Y322441D01*
X178255D01*
X178845Y323031D01*
Y324212D01*
X178255Y324802D01*
X176484D01*
X175303D02*
Y322441D01*
Y323622D01*
X174713Y324212D01*
X174122Y324802D01*
X173532D01*
X169990Y322441D02*
X171170D01*
X171761Y323031D01*
Y324212D01*
X171170Y324802D01*
X169990D01*
X169399Y324212D01*
Y323622D01*
X171761D01*
X168219Y322441D02*
X167038D01*
X167628D01*
Y324802D01*
X168219D01*
X165267Y322441D02*
Y325983D01*
Y323622D02*
X163496Y324802D01*
X165267Y323622D02*
X163496Y322441D01*
X161134Y324802D02*
X159954D01*
X159363Y324212D01*
Y322441D01*
X161134D01*
X161725Y323031D01*
X161134Y323622D01*
X159363D01*
X152279Y322441D02*
X154640D01*
X152279Y324802D01*
Y325393D01*
X152869Y325983D01*
X154050D01*
X154640Y325393D01*
X151098D02*
X150508Y325983D01*
X149327D01*
X148737Y325393D01*
Y323031D01*
X149327Y322441D01*
X150508D01*
X151098Y323031D01*
Y325393D01*
X145195Y322441D02*
X147556D01*
X145195Y324802D01*
Y325393D01*
X145785Y325983D01*
X146966D01*
X147556Y325393D01*
X144014Y322441D02*
X142833D01*
X143424D01*
Y325983D01*
X144014Y325393D01*
X198819Y333010D02*
Y328248D01*
Y330629D01*
X195644D01*
Y333010D01*
Y328248D01*
X191676D02*
X193263D01*
X194057Y329042D01*
Y330629D01*
X193263Y331423D01*
X191676D01*
X190882Y330629D01*
Y329835D01*
X194057D01*
X189295Y328248D02*
X187707D01*
X188501D01*
Y333010D01*
X189295D01*
X185326Y328248D02*
X183739D01*
X184532D01*
Y333010D01*
X185326D01*
X178976Y328248D02*
X180564D01*
X181357Y329042D01*
Y330629D01*
X180564Y331423D01*
X178976D01*
X178183Y330629D01*
Y329835D01*
X181357D01*
X176595Y328248D02*
Y331423D01*
X174214D01*
X173420Y330629D01*
Y328248D01*
X167071Y332216D02*
X166277Y333010D01*
X164690D01*
X163896Y332216D01*
Y331423D01*
X164690Y330629D01*
X163896Y329835D01*
Y329042D01*
X164690Y328248D01*
X166277D01*
X167071Y329042D01*
Y329835D01*
X166277Y330629D01*
X167071Y331423D01*
Y332216D01*
X166277Y330629D02*
X164690D01*
X162309Y328248D02*
X160721D01*
X161515D01*
Y333010D01*
X162309Y332216D01*
D14*
X153502Y285087D02*
X162706Y294291D01*
X153502Y283707D02*
Y285087D01*
X153465Y283669D02*
X153502Y283707D01*
X162706Y294291D02*
X207784D01*
X156083Y285441D02*
X163358Y292717D01*
X156083Y283330D02*
Y285441D01*
X163358Y292717D02*
X208437D01*
X211094Y295374D01*
X224138Y88681D02*
X265378Y129921D01*
X271602D01*
X225394Y97304D02*
Y103347D01*
X220708Y92618D02*
X225394Y97304D01*
Y103347D02*
X233667Y111620D01*
X234387Y112175D02*
X234813D01*
X233832Y111620D02*
X234387Y112175D01*
X233667Y111620D02*
X233832D01*
X227519Y95669D02*
X227785D01*
X222106Y90256D02*
X227519Y95669D01*
X220833Y88681D02*
X224138D01*
X271602Y129921D02*
X279134Y137453D01*
Y141837D01*
X279134Y141837D01*
Y143793D01*
X237992Y135630D02*
X269516D01*
X273228Y140413D02*
X275842Y143027D01*
X276886D01*
X234793Y132431D02*
X237992Y135630D01*
X273228Y139342D02*
Y140413D01*
X269516Y135630D02*
X273228Y139342D01*
X208963Y76811D02*
X220833Y88681D01*
X220181Y90256D02*
X222106D01*
X208960Y79035D02*
X220181Y90256D01*
X48819Y249213D02*
X60630D01*
X70866Y238976D01*
Y231890D02*
Y238976D01*
X58957Y287697D02*
X69390D01*
X75748Y281339D02*
X89252D01*
X69390Y287697D02*
X75748Y281339D01*
X77579Y283937D02*
X89252D01*
X75000Y286516D02*
X77579Y283937D01*
X85479Y278740D02*
X89252D01*
X84495Y279724D02*
X85479Y278740D01*
X76174Y279724D02*
X84495D01*
X75485Y279035D02*
X76174Y279724D01*
X75059Y279035D02*
X75485D01*
X83930Y276142D02*
X89252D01*
X82710Y277362D02*
X83930Y276142D01*
X82284Y277362D02*
X82710D01*
X82481Y273543D02*
X89252D01*
X80827Y275197D02*
X82481Y273543D01*
X74213Y275197D02*
X80827D01*
X85186Y270945D02*
X89252D01*
X84379Y271752D02*
X85186Y270945D01*
X75059Y271752D02*
X84379D01*
X85558Y268347D02*
X89252D01*
X84416Y269488D02*
X85558Y268347D01*
X76863Y269488D02*
X84416D01*
X75780Y268406D02*
X76863Y269488D01*
X75354Y268406D02*
X75780D01*
X84024Y265748D02*
X89252D01*
X82646Y267126D02*
X84024Y265748D01*
X82284Y267126D02*
X82646D01*
X78694Y263150D02*
X89252D01*
X77552Y262008D02*
X78694Y263150D01*
X77126Y262008D02*
X77552D01*
X83812Y260551D02*
X89252D01*
X82710Y259449D02*
X83812Y260551D01*
X82284Y259449D02*
X82710D01*
X31791Y245866D02*
X31890D01*
X31890Y245866D01*
X37697Y245866D02*
X37699Y245864D01*
X37795D01*
X67323Y216929D02*
X67323D01*
X67323Y222835D02*
X67323D01*
X75394Y114213D02*
X75590D01*
X67421Y164803D02*
X67716D01*
X376240Y291183D02*
Y292756D01*
X381988Y296752D02*
X383563Y295177D01*
X369330Y312008D02*
X378051Y303286D01*
X381791Y262801D02*
Y293307D01*
X378051Y297047D02*
Y303286D01*
Y297047D02*
X381791Y293307D01*
X378734Y259744D02*
X381791Y262801D01*
X379387Y258169D02*
X383563Y262346D01*
Y295177D01*
X374508Y313583D02*
X385138Y302953D01*
X380039Y256594D02*
X385138Y261693D01*
Y302953D01*
X361325Y305709D02*
X363287D01*
X376240Y292756D01*
X297674Y304891D02*
X360507D01*
X361325Y305709D01*
X291232Y300197D02*
X294412Y297017D01*
X283083Y300197D02*
X291232D01*
X323524Y281594D02*
X344882D01*
X306433Y297017D02*
X318411Y285039D01*
X320079D01*
X323524Y281594D01*
X294412Y297017D02*
X306433D01*
X282430Y301772D02*
X291885D01*
X295064Y298592D02*
X308002D01*
X291885Y301772D02*
X295064Y298592D01*
X308002D02*
X319193Y287402D01*
X281778Y303346D02*
X292537D01*
X317888Y291043D02*
X320177D01*
X292537Y303346D02*
X295717Y300167D01*
X308765D01*
X317888Y291043D01*
X320177D02*
X323819Y287402D01*
X309417Y301742D02*
X318541Y292618D01*
X281126Y304921D02*
X293189D01*
X296369Y301742D01*
X309417D01*
X318541Y292618D02*
X324022D01*
X319193Y294193D02*
X324674D01*
X297021Y303317D02*
X310069D01*
X319193Y294193D01*
X280473Y306496D02*
X293842D01*
X297021Y303317D01*
X279821Y308071D02*
X294494D01*
X297674Y304891D01*
X278190Y312008D02*
X369330D01*
X349410Y286122D02*
Y294783D01*
X352658Y298031D02*
X362992D01*
X349410Y294783D02*
X352658Y298031D01*
X344882Y281594D02*
X349410Y286122D01*
X368012Y273721D02*
Y293012D01*
X362992Y298031D02*
X368012Y293012D01*
Y273721D02*
X372785Y268947D01*
X359744Y264764D02*
X360138D01*
X359712D02*
X359744D01*
X210442Y296949D02*
X213994D01*
X207784Y294291D02*
X210442Y296949D01*
X213994D02*
X217931Y300886D01*
X252329Y305709D02*
X262312D01*
X247507Y300886D02*
X252329Y305709D01*
X262312D02*
X265444Y308840D01*
X217931Y300886D02*
X247507D01*
X252982Y304134D02*
X262964D01*
X248159Y299311D02*
X252982Y304134D01*
X214646Y295374D02*
X218583Y299311D01*
X211094Y295374D02*
X214646D01*
X218583Y299311D02*
X248159D01*
X262964Y304134D02*
X266096Y307266D01*
X276969Y313583D02*
X374508D01*
X272226Y308840D02*
X276969Y313583D01*
X273448Y307266D02*
X278190Y312008D01*
X266096Y307266D02*
X273448D01*
X265444Y308840D02*
X272226D01*
X351255Y256594D02*
X380039D01*
X352461Y258169D02*
X379387D01*
X309430Y268307D02*
X359547D01*
X365348Y264955D02*
X365650Y265256D01*
X365348Y264167D02*
Y264955D01*
X365256Y264075D02*
X365348Y264167D01*
X362795Y261319D02*
X365256Y263779D01*
Y264075D01*
X356489Y263681D02*
X356654D01*
X355013Y265158D02*
X356489Y263681D01*
X358629Y265846D02*
X359712Y264764D01*
X357829Y265846D02*
X358629D01*
X356944Y266732D02*
X357829Y265846D01*
X308778Y266732D02*
X356944D01*
X297631Y273425D02*
X307473Y263583D01*
X351502D02*
X353766Y261319D01*
X307473Y263583D02*
X351502D01*
X353766Y261319D02*
X362795D01*
X353113Y259744D02*
X378734D01*
X351046Y261811D02*
X353113Y259744D01*
X307018Y261811D02*
X351046D01*
X304817Y260236D02*
X350394D01*
X352461Y258169D01*
X303051Y258661D02*
X349187D01*
X351255Y256594D01*
X296979Y271850D02*
X307018Y261811D01*
X282874Y271850D02*
X296979D01*
X278839Y267815D02*
X282874Y271850D01*
X308849Y268888D02*
X308849D01*
X309430Y268307D01*
X299588Y278150D02*
X308849Y268888D01*
X298936Y276575D02*
X308778Y266732D01*
X308126Y265158D02*
X355013D01*
X298283Y275000D02*
X308126Y265158D01*
X293898Y267815D02*
X303051Y258661D01*
X294876Y270177D02*
X304817Y260236D01*
X294623Y270276D02*
X294722Y270177D01*
X294876D01*
X274902Y269446D02*
X280456Y275000D01*
X298283D01*
X281108Y273425D02*
X297631D01*
X286221Y267022D02*
X289474Y270276D01*
X294623D01*
X276476Y268793D02*
X281108Y273425D01*
X273327Y270098D02*
X279804Y276575D01*
X298936D01*
X271752Y270750D02*
X279151Y278150D01*
X299588D01*
X280007Y259892D02*
X286221Y266105D01*
Y267022D01*
X276969Y253445D02*
X280007Y256484D01*
Y259892D01*
X198071Y286063D02*
X200787Y288779D01*
X212894Y291437D02*
X216277D01*
X210236Y288779D02*
X212894Y291437D01*
X200787Y288779D02*
X210236D01*
X272945Y290730D02*
X280297D01*
X269813Y287598D02*
X272945Y290730D01*
X259848Y287598D02*
X269813D01*
X272293Y292305D02*
X279645D01*
X269161Y289173D02*
X272293Y292305D01*
X259196Y289173D02*
X269161D01*
X271640Y293880D02*
X278993D01*
X268509Y290748D02*
X271640Y293880D01*
X258544Y290748D02*
X268509D01*
X270988Y295455D02*
X278340D01*
X267856Y292323D02*
X270988Y295455D01*
X257891Y292323D02*
X267856D01*
X267204Y293898D02*
X270336Y297029D01*
X277688D01*
X257239Y293898D02*
X267204D01*
X269684Y298604D02*
X277036D01*
X266552Y295472D02*
X269684Y298604D01*
X256569Y295472D02*
X266552D01*
X265899Y297047D02*
X269031Y300179D01*
X276383D01*
X255917Y297047D02*
X265899D01*
X268379Y301754D02*
X275731D01*
X265247Y298622D02*
X268379Y301754D01*
X255265Y298622D02*
X265247D01*
X267727Y303329D02*
X275079D01*
X264595Y300197D02*
X267727Y303329D01*
X254612Y300197D02*
X264595D01*
X258763Y286513D02*
X259848Y287598D01*
X280297Y290730D02*
X285039Y295472D01*
X279645Y292305D02*
X284387Y297047D01*
X278993Y293880D02*
X283735Y298622D01*
X278340Y295455D02*
X283083Y300197D01*
X277688Y297029D02*
X282430Y301772D01*
X277036Y298604D02*
X281778Y303346D01*
X276383Y300179D02*
X281126Y304921D01*
X275731Y301754D02*
X280473Y306496D01*
X275079Y303329D02*
X279821Y308071D01*
X285039Y295472D02*
X287301D01*
X310529Y272244D01*
X258763Y283731D02*
Y286513D01*
X254408Y284385D02*
X259196Y289173D01*
X253622Y285827D02*
X258544Y290748D01*
X253069Y287500D02*
X257891Y292323D01*
X252416Y289075D02*
X257239Y293898D01*
X251747Y290650D02*
X256569Y295472D01*
X251094Y292224D02*
X255917Y297047D01*
X250442Y293799D02*
X255265Y298622D01*
X249790Y295374D02*
X254612Y300197D01*
X271752Y268012D02*
Y270750D01*
X268492Y267421D02*
X271161D01*
X271752Y268012D01*
X268492Y264823D02*
X272866D01*
X273327Y265284D01*
Y270098D01*
X274902Y264530D02*
Y269446D01*
X268492Y262224D02*
X272596D01*
X274902Y264530D01*
X272224Y259626D02*
X276476Y263878D01*
Y268793D01*
X268492Y259626D02*
X272224D01*
X360138Y283760D02*
X361178D01*
X348622Y272244D02*
X360138Y283760D01*
X310529Y272244D02*
X348622D01*
X361178Y283760D02*
X363484Y286066D01*
Y290453D01*
X363288Y290650D02*
X363484Y290453D01*
X311182Y273819D02*
X347933D01*
X359449Y285335D02*
X360526D01*
X347933Y273819D02*
X359449Y285335D01*
X360526D02*
X361909Y286719D01*
Y288687D01*
X311834Y275394D02*
X347244D01*
X356594Y284744D02*
Y284744D01*
X347244Y275394D02*
X356594Y284744D01*
Y284744D02*
X359547Y287697D01*
X360925Y289671D02*
X361909Y288687D01*
X360925Y289671D02*
Y292421D01*
X359646Y293701D02*
X360925Y292421D01*
X324803Y294094D02*
X327559Y291339D01*
X324674Y294193D02*
X324772Y294094D01*
X324803D01*
X341831Y291339D02*
X344193Y288976D01*
X327559Y291339D02*
X341831D01*
X338779Y289764D02*
X341142Y287402D01*
X326876Y289764D02*
X338779D01*
X324022Y292618D02*
X326876Y289764D01*
X332579Y287402D02*
X334941Y285039D01*
X342317D01*
X344193Y286915D02*
Y288976D01*
X342317Y285039D02*
X344193Y286915D01*
X288606Y298622D02*
X311834Y275394D01*
X287953Y297047D02*
X311182Y273819D01*
X216277Y291437D02*
X220214Y295374D01*
X249790D01*
X226969Y289075D02*
X252416D01*
X283735Y298622D02*
X288606D01*
X284387Y297047D02*
X287953D01*
X221752Y292224D02*
X251094D01*
X245748Y284161D02*
X249086Y287500D01*
X245748Y283669D02*
Y284161D01*
X249086Y287500D02*
X253069D01*
X277756Y240059D02*
X279312D01*
X271339Y233642D02*
X277756Y240059D01*
X279312D02*
X279779Y240526D01*
X198228Y79035D02*
X208960D01*
X206758Y76811D02*
X208963D01*
X202047Y49390D02*
Y67004D01*
X203937Y68893D02*
Y73990D01*
X202047Y67004D02*
X203937Y68893D01*
X193701Y41043D02*
X202047Y49390D01*
X203937Y73990D02*
X206758Y76811D01*
X192047Y55138D02*
Y67048D01*
X194567Y69567D01*
X188386Y51476D02*
X192047Y55138D01*
X188242Y51476D02*
X188386D01*
X194567Y69567D02*
Y76004D01*
X189469Y81102D02*
X194567Y76004D01*
X268492Y171279D02*
X278470D01*
X278879Y171688D01*
X280793D01*
X268492Y173878D02*
X278643D01*
X279051Y174286D01*
X280400Y174286D02*
X280793D01*
X280400Y174286D02*
X280400Y174286D01*
X279051Y174286D02*
X280400D01*
X278755Y178460D02*
X280793D01*
X276771Y176476D02*
X278755Y178460D01*
X276935Y181231D02*
X280793D01*
X274778Y179075D02*
X276935Y181231D01*
X273692Y181673D02*
X276400Y184381D01*
X280793D01*
X277044Y187531D02*
X280400D01*
X273785Y184272D02*
X277044Y187531D01*
X280400D02*
X280400Y187531D01*
X280793D01*
X273878Y186870D02*
X277672Y190664D01*
X280793D01*
X268492Y192067D02*
X272148D01*
X273172Y193090D02*
X273172D01*
X272148Y192067D02*
X273172Y193090D01*
X273172D02*
X276181Y196100D01*
X268492Y244035D02*
X272824D01*
X275344Y246555D01*
X276899D01*
X268492Y241437D02*
X272452D01*
X275996Y244980D01*
X277552D01*
X268492Y238839D02*
X272081D01*
X276648Y243406D01*
X278204D01*
X277104Y241634D02*
X278659D01*
X268492Y236240D02*
X271710D01*
X277104Y241634D01*
X268492Y233642D02*
X271339D01*
X268530Y223286D02*
X277518D01*
X277888Y223656D02*
X280993D01*
X277518Y223286D02*
X277888Y223656D01*
X268492Y223248D02*
X268530Y223286D01*
X268492Y215453D02*
X277854D01*
X278263Y215861D02*
X280793D01*
X277854Y215453D02*
X278263Y215861D01*
X268492Y220650D02*
X268511Y220631D01*
X277717D02*
X278144Y221058D01*
X268511Y220631D02*
X277717D01*
X278144Y221058D02*
X280793D01*
X277756Y198891D02*
X278171Y199306D01*
X277756Y195447D02*
Y198891D01*
X278171Y199306D02*
X280793D01*
X277675Y201038D02*
X280793D01*
X276181Y199545D02*
X277675Y201038D01*
X277180Y202770D02*
X280793D01*
X274606Y200197D02*
X277180Y202770D01*
X271358Y202461D02*
X273400Y204503D01*
X280793D01*
X268492Y202461D02*
X271358D01*
X272814Y206235D02*
X280793D01*
X271638Y205059D02*
X272814Y206235D01*
X269038Y207657D02*
X269215Y207480D01*
X271118Y207967D02*
X280793D01*
X269215Y207480D02*
X270631D01*
X271118Y207967D01*
X268492Y207657D02*
X269038D01*
X276851Y210256D02*
X277407Y209700D01*
X280793D01*
X278808Y211432D02*
X280793D01*
X277385Y212854D02*
X278808Y211432D01*
X278263Y218459D02*
X280793D01*
X277854Y218051D02*
X278263Y218459D01*
X268492Y218051D02*
X277854D01*
X279864Y238584D02*
X279996D01*
X279796Y238516D02*
X279864Y238584D01*
X279627Y238516D02*
X279796D01*
X279152Y238041D02*
X279627Y238516D01*
X278199Y238041D02*
X279152D01*
X280039Y238662D02*
X280064Y238637D01*
X280242D01*
X280400Y238794D01*
X280793D01*
X270866Y228445D02*
X278740Y236319D01*
X279724D01*
X280400Y237062D02*
X280793D01*
X280400Y236994D02*
Y237062D01*
X279724Y236319D02*
X280400Y236994D01*
X279779Y240526D02*
X280793D01*
X278659Y241634D02*
X279284Y242259D01*
X280793D01*
X278204Y243406D02*
X278789Y243991D01*
X280793D01*
X277552Y244980D02*
X278294Y245723D01*
X280793D01*
X276899Y246555D02*
X277800Y247456D01*
X280793D01*
X224132Y286238D02*
X226969Y289075D01*
X224132Y284120D02*
Y286238D01*
X224075Y284063D02*
X224132Y284120D01*
X219801D02*
Y285746D01*
X224705Y290650D02*
X251747D01*
X219801Y285746D02*
X224705Y290650D01*
X219744Y284063D02*
X219801Y284120D01*
X215471D02*
Y285943D01*
X221752Y292224D01*
X215413Y284063D02*
X215471Y284120D01*
X211140D02*
Y286238D01*
X214764Y289862D01*
X216929D01*
X220866Y293799D01*
X211083Y284063D02*
X211140Y284120D01*
X220866Y293799D02*
X250442D01*
X197244Y80020D02*
X198228Y79035D01*
X197244Y80020D02*
Y83685D01*
X178740Y22835D02*
X182283Y26378D01*
X142717Y25098D02*
X144980Y22835D01*
X178740D01*
X124803Y52854D02*
X125229D01*
X126115Y53740D01*
X140053D01*
X142514Y51279D01*
X147343D01*
X161427Y54931D02*
X162102D01*
X165262Y51772D01*
X167441D01*
X178307Y40906D01*
X202476Y82268D02*
Y83720D01*
Y82268D02*
X203346Y81398D01*
X199878Y81421D02*
Y83720D01*
Y81421D02*
X199902Y81398D01*
X197244Y83685D02*
X197280Y83720D01*
X189469Y83705D02*
X189484Y83720D01*
X189469Y81102D02*
Y83705D01*
X139075Y51378D02*
X139213Y51240D01*
Y49409D02*
Y51240D01*
Y49409D02*
X148307Y40315D01*
Y39331D02*
Y40315D01*
X180583Y80539D02*
Y83720D01*
Y80539D02*
X180905Y80216D01*
X162500Y67894D02*
Y75059D01*
X166024Y78583D01*
X167949D01*
X165372Y80158D02*
X167296D01*
X162912Y77698D02*
X165372Y80158D01*
X167296D02*
X168337Y81198D01*
Y83683D01*
X163336Y80594D02*
X165738Y82996D01*
Y83683D01*
X160121Y80594D02*
X163336D01*
X167949Y78583D02*
X170973Y81607D01*
Y83720D01*
X159843Y80315D02*
X160121Y80594D01*
X156044Y77698D02*
X162912D01*
X168337Y83683D02*
X168374Y83720D01*
X165738Y83683D02*
X165776Y83720D01*
X168307Y62087D02*
Y62087D01*
X162500Y67894D02*
X168307Y62087D01*
X154469Y76122D02*
X156044Y77698D01*
X154469Y67627D02*
Y76122D01*
Y67627D02*
X158307Y63789D01*
Y62087D02*
Y63789D01*
X147343Y51279D02*
X158307Y40315D01*
X107966Y52368D02*
X108268Y52067D01*
X107966Y52368D02*
Y53746D01*
X102992Y58720D02*
X107966Y53746D01*
X102992Y58720D02*
Y75272D01*
X101279Y43012D02*
X104961Y39331D01*
X85555Y89630D02*
X101279Y73906D01*
Y43012D02*
Y73906D01*
X99705Y37933D02*
X108307Y29331D01*
X83169Y89789D02*
X99705Y73253D01*
Y37933D02*
Y73253D01*
X106361Y78642D02*
X110662D01*
X102992Y75272D02*
X106361Y78642D01*
X113681Y81660D02*
Y83720D01*
X110662Y78642D02*
X113681Y81660D01*
X116279Y82032D02*
Y83720D01*
X111315Y77067D02*
X116279Y82032D01*
X104567Y74620D02*
X107014Y77067D01*
X111315D01*
X104993Y59127D02*
Y59127D01*
X104567Y59553D02*
X104993Y59127D01*
X104567Y59553D02*
Y74620D01*
X107319Y56801D02*
X110834D01*
X104993Y59127D02*
X107319Y56801D01*
X158307Y39331D02*
Y40315D01*
X142717Y25098D02*
Y33169D01*
X138307Y37579D02*
X142717Y33169D01*
X178307Y39331D02*
Y40906D01*
X271201Y231043D02*
X278199Y238041D01*
X106299Y298068D02*
Y300689D01*
X108563Y302953D02*
Y312894D01*
X106299Y300689D02*
X108563Y302953D01*
X106299Y298068D02*
X107911Y296457D01*
X108957Y299016D02*
X109055Y298917D01*
X120214D02*
X126513Y305217D01*
X109055Y298917D02*
X120214D01*
X107911Y296457D02*
X119980D01*
X127165Y303642D01*
X108563Y312894D02*
X108661Y312992D01*
X104331Y292821D02*
Y296063D01*
Y292821D02*
X106108Y291043D01*
X268492Y228445D02*
X270866D01*
X268492Y231043D02*
X271201D01*
X268492Y212854D02*
X277385D01*
X282480Y260138D02*
X290059Y267717D01*
X282480Y253352D02*
Y260138D01*
X268492Y210256D02*
X276851D01*
X276181Y196100D02*
Y199545D01*
X271777Y189468D02*
X277756Y195447D01*
X268492Y189468D02*
X271777D01*
X274606Y196752D02*
Y200197D01*
X272520Y194665D02*
X274606Y196752D01*
X268492Y205059D02*
X271638D01*
X268492Y194665D02*
X272520D01*
X268492Y179075D02*
X274778D01*
X268492Y176476D02*
X276771D01*
X268492Y184272D02*
X273785D01*
X268492Y181673D02*
X273692D01*
X268492Y186870D02*
X273878D01*
X278543Y144384D02*
X279134Y143793D01*
X278543Y144384D02*
Y148425D01*
X196758Y24606D02*
X203051D01*
X206494Y27518D02*
X208307Y29331D01*
X205963Y27518D02*
X206494D01*
X203051Y24606D02*
X205963Y27518D01*
X184547Y26136D02*
Y45177D01*
X193701Y27663D02*
Y41043D01*
Y27663D02*
X196758Y24606D01*
X138307Y37579D02*
Y39331D01*
X85555Y89630D02*
Y93527D01*
X83169Y89789D02*
Y95768D01*
X104961Y39331D02*
X108307D01*
Y29331D02*
Y29331D01*
X133133Y305217D02*
X145236Y293113D01*
X126513Y305217D02*
X133133D01*
X145236Y283669D02*
Y293113D01*
X140039Y283669D02*
Y296083D01*
X132480Y303642D02*
X140039Y296083D01*
X127165Y303642D02*
X132480D01*
X130118Y291043D02*
X134843Y286319D01*
X106108Y291043D02*
X130118D01*
X134843Y283669D02*
Y286319D01*
X254408Y283707D02*
Y284385D01*
X250039Y284108D02*
X251758Y285827D01*
X253622D01*
X198071Y284063D02*
Y286063D01*
X182353Y26308D02*
X182973Y26928D01*
Y46206D02*
X188242Y51476D01*
X182973Y26928D02*
Y44484D01*
Y46067D02*
Y46206D01*
X182874Y44583D02*
X182973Y44484D01*
X182874Y44583D02*
Y45969D01*
X182973Y46067D01*
X158924Y330248D02*
X157875D01*
X157350Y329724D01*
Y328149D01*
X158924D01*
X159449Y328674D01*
X158924Y329199D01*
X157350D01*
D132*
X387211Y89483D02*
D03*
X382266D02*
D03*
D135*
X281581Y129444D02*
D03*
Y125999D02*
D03*
Y121767D02*
D03*
Y109463D02*
D03*
Y100507D02*
D03*
D150*
X258366Y128248D02*
X262795Y132677D01*
X270461D02*
X275984Y138201D01*
Y139272D01*
X262795Y132677D02*
X270461D01*
X229792Y128248D02*
X230807D01*
X218307Y38346D02*
Y39331D01*
Y38346D02*
X223228Y33425D01*
Y11811D02*
Y33425D01*
X263386Y35236D02*
Y44685D01*
X263386Y44685D01*
X268307Y29331D02*
Y30315D01*
X263386Y35236D02*
X268307Y30315D01*
X278307Y29331D02*
Y30315D01*
X273386Y35236D02*
X278307Y30315D01*
X273386Y35236D02*
Y44154D01*
X273917Y44685D01*
D151*
X248985Y86087D02*
X268706Y105807D01*
X277421D01*
X277583Y105646D02*
X281207D01*
X277421Y105807D02*
X277583Y105646D01*
X248985Y72765D02*
Y86087D01*
X238985Y72765D02*
Y79034D01*
X269587Y114483D02*
X281207D01*
X241929Y81978D02*
Y86826D01*
X238985Y79034D02*
X241929Y81978D01*
Y86826D02*
X269587Y114483D01*
X266193Y127953D02*
X272418D01*
X232116Y93875D02*
Y93875D01*
X266193Y127953D01*
X224953Y86713D02*
X232116Y93875D01*
X221649Y86713D02*
X224953D01*
X272418Y127953D02*
X277157Y132692D01*
X271260Y90059D02*
Y90153D01*
X278386Y97279D01*
X281207D01*
X273622Y88878D02*
Y89175D01*
X279048Y94601D02*
X281207D01*
X273622Y89175D02*
X279048Y94601D01*
X267028Y77658D02*
Y82284D01*
X273622Y88878D01*
X279654Y91866D02*
X281207D01*
X276529Y88741D02*
X279654Y91866D01*
X276529Y87946D02*
Y88741D01*
X269390Y80807D02*
X276529Y87946D01*
X261713Y76083D02*
Y80512D01*
X271260Y90059D01*
X272690Y79777D02*
X279331Y86417D01*
X272690Y78497D02*
Y79777D01*
X272539Y78347D02*
X272690Y78497D01*
X269291Y76581D02*
X269390Y76679D01*
Y80807D01*
X268307Y72087D02*
X268985Y72765D01*
Y75366D02*
X269291Y75673D01*
X268985Y72765D02*
Y75366D01*
X269291Y75673D02*
Y76581D01*
X264173Y74803D02*
X267028Y77658D01*
X267126Y137992D02*
X269094D01*
X271260Y141240D02*
X274606Y144587D01*
X269094Y137992D02*
X271260Y140157D01*
X272244Y155496D02*
X272472Y155723D01*
X271260Y140157D02*
Y141240D01*
X272472Y155723D02*
X281207D01*
X208307Y73371D02*
X221649Y86713D01*
X264173Y53248D02*
Y74803D01*
Y53248D02*
X268307Y49114D01*
X362922Y308858D02*
X379823Y291957D01*
X378839Y263402D02*
X379823Y264386D01*
Y291957D01*
X297758Y308858D02*
X362922D01*
X378839Y263189D02*
Y263402D01*
X297567Y309049D02*
X297758Y308858D01*
X296555Y309350D02*
X296856Y309049D01*
X297567D01*
X296342Y309350D02*
X296555D01*
X279006Y310039D02*
X295653D01*
X296342Y309350D01*
X274264Y305297D02*
X279006Y310039D01*
X266911Y305297D02*
X274264D01*
X263779Y302165D02*
X266911Y305297D01*
X253797Y302165D02*
X263779D01*
X197441Y290748D02*
X209252D01*
X193740Y287047D02*
X197441Y290748D01*
X209252D02*
X211910Y293406D01*
X215461D01*
X273819Y285433D02*
X273819Y285433D01*
X277953D02*
X285630Y293110D01*
X273819Y285433D02*
X277953D01*
X248974Y297342D02*
X253797Y302165D01*
X274213Y254586D02*
X276227Y256601D01*
X274213Y250338D02*
Y254586D01*
X272989Y249114D02*
X274213Y250338D01*
X272851Y249114D02*
X272989D01*
X272608Y248871D02*
X272851Y249114D01*
X272306Y248871D02*
X272608D01*
X272244Y248934D02*
X272306Y248871D01*
X276227Y260380D02*
X283563Y267717D01*
X276227Y256601D02*
Y260380D01*
X273031Y314370D02*
X277605Y318944D01*
X280164D01*
X280315Y319094D01*
X193740Y283866D02*
Y287047D01*
X215461Y293406D02*
X219398Y297342D01*
X248974D01*
X283465Y56988D02*
X283484Y56968D01*
X290019D01*
X302913Y69863D01*
X270768Y55315D02*
X270866Y55413D01*
X267815Y55315D02*
X270768D01*
X267717Y55216D02*
X267815Y55315D01*
X327513Y86168D02*
Y87659D01*
X313805Y79646D02*
X320990D01*
X327513Y86168D01*
X208307Y72087D02*
Y73371D01*
X277157Y132692D02*
X281207D01*
X327513Y87659D02*
X327663Y87810D01*
X312827Y82008D02*
X319492D01*
X324239Y86755D02*
Y87416D01*
X319492Y82008D02*
X324239Y86755D01*
X326772Y82087D02*
X331502Y86817D01*
X326772Y72969D02*
Y82087D01*
X331502Y86817D02*
Y87416D01*
X319846Y66043D02*
X326772Y72969D01*
X187795Y18996D02*
X192224Y14567D01*
X123819Y25522D02*
X130345Y18996D01*
X187795D01*
X303333Y86035D02*
Y87416D01*
X297753Y80455D02*
X303333Y86035D01*
X306129Y85491D02*
Y87416D01*
X300551Y79913D02*
X306129Y85491D01*
X309672Y85693D02*
Y87416D01*
X302913Y78934D02*
X309672Y85693D01*
X317842Y85561D02*
Y87416D01*
X317123Y84842D02*
X317842Y85561D01*
X297753Y77373D02*
Y80455D01*
X124803Y293799D02*
X131201Y300197D01*
X107776Y293996D02*
X107926Y293845D01*
X108483D01*
X108529Y293799D02*
X124803D01*
X108483Y293845D02*
X108529Y293799D01*
X302913Y69863D02*
Y78934D01*
X312321Y84842D02*
X317123D01*
X305276Y77797D02*
X312321Y84842D01*
X305276Y68884D02*
Y77797D01*
X300551Y75863D02*
Y79913D01*
X299508Y74819D02*
X300551Y75863D01*
X299508Y74606D02*
Y74819D01*
X291325Y44911D02*
X312457Y66043D01*
X319846D01*
X307638Y76819D02*
X312827Y82008D01*
X307638Y67906D02*
Y76819D01*
X310000Y75840D02*
X313805Y79646D01*
X310000Y66927D02*
Y75840D01*
X290135Y53743D02*
X305276Y68884D01*
X290569Y50837D02*
X307638Y67906D01*
X290809Y47736D02*
X310000Y66927D01*
X279852Y44911D02*
X291325D01*
X282185Y47736D02*
X290809D01*
X288487Y53743D02*
X290135D01*
X288337Y53592D02*
X288487Y53743D01*
X284842Y50886D02*
X284892Y50837D01*
X290569D01*
X238307Y72087D02*
X238985Y72765D01*
X235512Y140309D02*
Y142216D01*
X248307Y72087D02*
X248985Y72765D01*
X268307Y39331D02*
Y49114D01*
X128307Y38346D02*
Y39331D01*
X123819Y25522D02*
Y33858D01*
X128307Y38346D01*
D152*
X275984Y46752D02*
Y55413D01*
X76137Y40113D02*
X77165Y41142D01*
X76137Y39719D02*
Y40113D01*
X64606Y28189D02*
X76137Y39719D01*
X36024Y284843D02*
X41831D01*
X35827Y284646D02*
X36024Y284843D01*
X4528D02*
X5512D01*
X4331Y284646D02*
X4528Y284843D01*
X45105Y28189D02*
X64606D01*
X4370Y68924D02*
X45105Y28189D01*
X4370Y68924D02*
Y247973D01*
X19685Y263288D01*
X23622Y284646D02*
Y284842D01*
X29823Y284646D02*
Y284843D01*
X23622Y284646D02*
X29823D01*
X35827D01*
X17972D02*
X23622D01*
X69685Y222835D02*
X71378D01*
X69685Y216929D02*
X71378D01*
X69685Y170709D02*
X71653D01*
X67421D02*
X69685D01*
X37716Y242520D02*
X37795Y245864D01*
X30512Y245866D02*
X31890D01*
X30512Y243701D02*
Y245866D01*
X50295Y215846D02*
Y227854D01*
Y191535D02*
Y215846D01*
X28740Y210236D02*
Y227854D01*
Y191535D02*
Y210236D01*
X19685Y191535D02*
X28740D01*
X50295Y152756D02*
Y157677D01*
X63976Y82795D02*
Y130315D01*
X54789Y73150D02*
X56876Y75236D01*
X50295Y169685D02*
Y175886D01*
X57475Y75236D02*
X62756Y80518D01*
X54331Y73150D02*
X54789D01*
X50295Y163878D02*
Y169685D01*
X56876Y75236D02*
X57475D01*
X50295Y157677D02*
Y163878D01*
X62756Y81575D02*
X63976Y82795D01*
X50295Y151575D02*
Y152756D01*
X62756Y80518D02*
Y81575D01*
X273917Y44685D02*
X275984Y46752D01*
Y55413D02*
X278081Y57510D01*
Y61861D01*
X278307Y62087D01*
X258533Y24802D02*
X262469Y20866D01*
X258533Y24802D02*
Y29105D01*
X293404Y20866D02*
X327341Y54803D01*
X262469Y20866D02*
X293404D01*
X295361Y16142D02*
X329298Y50079D01*
X248307Y28346D02*
X260512Y16142D01*
X295361D01*
X258307Y29331D02*
X258533Y29105D01*
X344469Y77270D02*
X346545Y79345D01*
X339665Y56879D02*
Y79147D01*
X344588Y84070D01*
X327341Y54803D02*
X337590D01*
X339665Y56879D01*
X344588Y84070D02*
X379210D01*
X346545Y79345D02*
X381167D01*
X344469Y52154D02*
Y77270D01*
X329298Y50079D02*
X342393D01*
X344469Y52154D01*
X381167Y79345D02*
X387211Y85389D01*
Y89089D01*
X382266Y87126D02*
Y89089D01*
X379210Y84070D02*
X382266Y87126D01*
X230807Y128248D02*
X258366D01*
X230807Y134744D02*
X233169Y137106D01*
X230807Y128248D02*
Y134744D01*
X248307Y62087D02*
X248533Y61861D01*
Y59538D02*
Y61861D01*
Y59538D02*
X263386Y44685D01*
X248307Y28346D02*
Y29331D01*
X75590Y114213D02*
X77165D01*
X36417Y245866D02*
Y246063D01*
X30512Y245866D02*
Y246063D01*
X81777Y86693D02*
X89724Y78745D01*
X76181Y86693D02*
X81777D01*
X69291Y216929D02*
X69685D01*
X69291Y222835D02*
X69685D01*
X88583Y64665D02*
Y66412D01*
X89724Y67554D02*
Y78745D01*
X88583Y66412D02*
X89724Y67554D01*
X54725Y139567D02*
X57480Y136811D01*
X50295Y139567D02*
Y151575D01*
Y139567D02*
X54725D01*
X57480Y136811D02*
X57491D01*
X62795Y131507D01*
Y131496D02*
Y131507D01*
Y131496D02*
X63976Y130315D01*
X67716Y164803D02*
X69488D01*
X67323Y222835D02*
X67717D01*
X67323Y216929D02*
X67717D01*
X278307Y39331D02*
X288307D01*
X288307Y29331D02*
Y39331D01*
X51968Y43504D02*
X54331Y41142D01*
X15354Y73474D02*
X25324Y63504D01*
X43337D01*
X51968Y54873D01*
Y43504D02*
Y54873D01*
X15354Y73474D02*
Y187205D01*
X19685Y191535D01*
D153*
X213287Y105807D02*
Y136909D01*
X211417Y102953D02*
Y104035D01*
X210735Y104717D02*
X211417Y104035D01*
X208465Y104717D02*
X210735D01*
X164833Y55541D02*
X165059Y55315D01*
X164833Y55541D02*
Y55932D01*
X162783Y57982D02*
X164833Y55932D01*
X160755Y57982D02*
X162783D01*
X160558Y57785D02*
X160755Y57982D01*
X154370Y59472D02*
Y65081D01*
X152681Y66770D02*
X154370Y65081D01*
X152681Y66770D02*
Y83327D01*
X154370Y59472D02*
X156676Y57165D01*
X160466Y57785D02*
X160558D01*
X159846Y57165D02*
X160466Y57785D01*
X156676Y57165D02*
X159846D01*
X207776Y141142D02*
X207795Y141122D01*
X208169Y140748D02*
X208366D01*
X208661Y140453D02*
X209744D01*
X208366Y140748D02*
X208661Y140453D01*
X209744D02*
X213287Y136909D01*
D154*
X210039Y86516D02*
X212295D01*
X213279Y87500D01*
X213386D01*
X118307Y29331D02*
Y39331D01*
D156*
X243779Y54843D02*
Y79931D01*
X268464Y109463D02*
X281581D01*
X244685Y80836D02*
Y85684D01*
X243779Y79931D02*
X244685Y80836D01*
Y85684D02*
X268464Y109463D01*
X239173Y87967D02*
X270104Y118898D01*
X276168D01*
X279037Y121767D01*
X239173Y83119D02*
Y87967D01*
X233780Y77725D02*
X239173Y83119D01*
X233780Y67598D02*
Y77725D01*
X279037Y121767D02*
X281581D01*
X234872Y92734D02*
Y92734D01*
X267335Y125197D02*
X273559D01*
X234872Y92734D02*
X267335Y125197D01*
X236024Y84424D02*
Y89272D01*
X268799Y122047D02*
X274864D01*
X236024Y89272D02*
X268799Y122047D01*
X229198Y77598D02*
X236024Y84424D01*
X226432Y77598D02*
X229198D01*
X223780Y74946D02*
X226432Y77598D01*
X278816Y125999D02*
X281581D01*
X274864Y122047D02*
X278816Y125999D01*
X226095Y83957D02*
X234872Y92734D01*
X222790Y83957D02*
X226095D01*
X273559Y125197D02*
X277806Y129444D01*
X258957Y80123D02*
Y81748D01*
X278189Y100507D02*
X281581D01*
X258957Y81748D02*
X277244Y100035D01*
X277718D01*
X278189Y100507D01*
X253780Y67598D02*
Y74946D01*
X258957Y80123D01*
X220571Y102067D02*
Y113681D01*
X229792Y122902D01*
X222835Y51245D02*
Y72146D01*
X223780Y73090D02*
Y74946D01*
X222835Y72146D02*
X223780Y73090D01*
X213090Y74257D02*
X222790Y83957D01*
X217323Y98819D02*
X220571Y102067D01*
X213755Y98819D02*
X217323D01*
X229792Y122902D02*
Y128248D01*
X212835Y41245D02*
X222835Y51245D01*
X211910Y100664D02*
X213755Y98819D01*
X211910Y100664D02*
Y102953D01*
X213090Y51501D02*
Y74257D01*
X277806Y129444D02*
X281581D01*
X284750Y83372D02*
Y87810D01*
X278976Y77598D02*
X284750Y83372D01*
X289376Y84884D02*
Y87810D01*
X288287Y83795D02*
X289376Y84884D01*
X294691Y85745D02*
Y87810D01*
X291437Y82491D02*
X294691Y85745D01*
X299317Y85917D02*
Y87810D01*
X294587Y81186D02*
X299317Y85917D01*
X294587Y69350D02*
Y81186D01*
X288307Y63071D02*
X294587Y69350D01*
X281383Y73411D02*
X288287Y80315D01*
Y83795D01*
X291437Y76947D02*
Y82491D01*
X278307Y72087D02*
Y72138D01*
X279580Y73411D01*
X281383D01*
X288307Y73817D02*
X291437Y76947D01*
X273683Y68447D02*
Y72305D01*
X273780Y72402D01*
Y74946D01*
X276432Y77598D01*
X278976D01*
X288307Y72087D02*
Y73817D01*
X235512Y139449D02*
Y140309D01*
X233169Y137106D02*
X235512Y139449D01*
X233780Y67598D02*
X238307Y63071D01*
X258307Y62087D02*
Y63071D01*
X253780Y67598D02*
X258307Y63071D01*
Y39331D02*
Y40315D01*
X243779Y54843D02*
X258307Y40315D01*
X212835Y26471D02*
Y41245D01*
X195984Y20669D02*
X207033D01*
X212835Y26471D01*
X203543Y39665D02*
X203780Y39902D01*
Y42190D01*
X213090Y51501D01*
X198307Y29331D02*
Y30315D01*
X203543Y35551D01*
Y39665D01*
X268307Y63071D02*
X273683Y68447D01*
X238307Y62087D02*
Y63071D01*
X188307Y28346D02*
Y29331D01*
Y28346D02*
X195984Y20669D01*
X268307Y62087D02*
Y63071D01*
X288307Y62087D02*
Y63071D01*
D158*
X374799Y285039D02*
D03*
Y302362D02*
D03*
D159*
X234744Y132776D02*
D03*
X213287Y105807D02*
D03*
X242224Y110236D02*
D03*
X267126Y137992D02*
D03*
X234813Y112175D02*
D03*
X352772Y290075D02*
D03*
X319390Y287402D02*
D03*
X302756Y290039D02*
D03*
X332579Y287402D02*
D03*
X341339D02*
D03*
X324016D02*
D03*
X296555Y309350D02*
D03*
X104331Y296063D02*
D03*
X107776Y293996D02*
D03*
X108957Y299016D02*
D03*
X108661Y312992D02*
D03*
X290354Y267815D02*
D03*
X293898D02*
D03*
X278839D02*
D03*
X283858D02*
D03*
X286043Y293110D02*
D03*
X230118Y315158D02*
D03*
X273031D02*
D03*
X131398Y300197D02*
D03*
X174213Y315158D02*
D03*
X125932D02*
D03*
X75059Y279035D02*
D03*
X82284Y277362D02*
D03*
X74213Y275197D02*
D03*
X75059Y271752D02*
D03*
X82284Y267126D02*
D03*
X75354Y268406D02*
D03*
X77126Y262008D02*
D03*
X82284Y259449D02*
D03*
X75000Y286516D02*
D03*
X58957Y287697D02*
D03*
X227785Y95669D02*
D03*
X229331Y101083D02*
D03*
X276279Y103051D02*
D03*
X253150Y78839D02*
D03*
X279331Y86417D02*
D03*
X272539Y78347D02*
D03*
X272244Y155709D02*
D03*
X275984Y139272D02*
D03*
X276378Y87795D02*
D03*
X232874Y85728D02*
D03*
X223524Y79724D02*
D03*
X215551Y94587D02*
D03*
X261713Y76083D02*
D03*
X122835Y288583D02*
D03*
X123228Y306299D02*
D03*
X75197Y313779D02*
D03*
X54724Y295276D02*
D03*
X70866Y231890D02*
D03*
X48819Y249213D02*
D03*
X376240Y291183D02*
D03*
X381988Y296752D02*
D03*
X280906Y315945D02*
D03*
X389567Y255906D02*
D03*
X372933Y269094D02*
D03*
X365650Y265256D02*
D03*
X359744Y264764D02*
D03*
X356654Y263681D02*
D03*
X375886Y265158D02*
D03*
X359547Y268209D02*
D03*
X275492Y288189D02*
D03*
X267028Y284350D02*
D03*
X297736Y281102D02*
D03*
X285236Y254724D02*
D03*
X298228Y256791D02*
D03*
X273819Y285433D02*
D03*
X378839Y263189D02*
D03*
X341535Y256102D02*
D03*
X310531Y256299D02*
D03*
X363288Y290650D02*
D03*
X362303Y303346D02*
D03*
X356594Y275689D02*
D03*
X283465Y56988D02*
D03*
X267717Y55216D02*
D03*
X215059Y101969D02*
D03*
X230315Y140157D02*
D03*
X213386Y87500D02*
D03*
X206004Y67126D02*
D03*
X282382Y253352D02*
D03*
X346063Y46752D02*
D03*
X389173Y77658D02*
D03*
X320472Y34941D02*
D03*
X314075Y60335D02*
D03*
X295177Y33760D02*
D03*
X96161Y289075D02*
D03*
X86910Y318406D02*
D03*
X319094Y319390D02*
D03*
X356890Y319193D02*
D03*
X386910D02*
D03*
X388878Y302461D02*
D03*
X388681Y282579D02*
D03*
X220708Y92618D02*
D03*
X103839Y54232D02*
D03*
X153051Y35827D02*
D03*
X133957Y23524D02*
D03*
X186713Y22835D02*
D03*
X212598Y21752D02*
D03*
X230709Y55020D02*
D03*
X218110D02*
D03*
X207677Y54724D02*
D03*
X203346Y81398D02*
D03*
X199902D02*
D03*
X183596Y65889D02*
D03*
X165059Y55315D02*
D03*
X161723Y55423D02*
D03*
X181299Y79921D02*
D03*
X159843Y80315D02*
D03*
X148425Y79823D02*
D03*
X144685Y80020D02*
D03*
X110834Y56801D02*
D03*
X124803Y52854D02*
D03*
X108268Y52067D02*
D03*
X139075Y51378D02*
D03*
X178248Y48917D02*
D03*
X85728Y93701D02*
D03*
X83169Y95768D02*
D03*
X209941Y107283D02*
D03*
X276969Y253445D02*
D03*
X272244Y248720D02*
D03*
X335728Y60925D02*
D03*
X332874D02*
D03*
X335728Y63287D02*
D03*
X332874D02*
D03*
X335728Y65650D02*
D03*
X332874D02*
D03*
X335728Y68012D02*
D03*
X332874D02*
D03*
X335728Y70374D02*
D03*
X332874D02*
D03*
Y72736D02*
D03*
X335728D02*
D03*
Y75098D02*
D03*
X332874D02*
D03*
X297753Y77373D02*
D03*
X299508Y74606D02*
D03*
X278543Y148425D02*
D03*
X276772Y142815D02*
D03*
X288337Y53592D02*
D03*
X284842Y50886D02*
D03*
X282185Y47736D02*
D03*
X279852Y44911D02*
D03*
X192224Y14567D02*
D03*
X274606Y145276D02*
D03*
X359547Y287697D02*
D03*
X359646Y293701D02*
D03*
X116807Y341315D02*
D03*
X145351D02*
D03*
X173894D02*
D03*
X202437D02*
D03*
X373697D02*
D03*
X339272Y9843D02*
D03*
X193799Y46358D02*
D03*
X345154Y341315D02*
D03*
X316611D02*
D03*
X288067D02*
D03*
X259524D02*
D03*
X230981D02*
D03*
X88264D02*
D03*
X88878Y3937D02*
D03*
X117421D02*
D03*
X145965D02*
D03*
X174508D02*
D03*
X203051D02*
D03*
X231594D02*
D03*
X260138D02*
D03*
X288681D02*
D03*
X317224D02*
D03*
X86122Y29823D02*
D03*
X345965Y20079D02*
D03*
X94882Y68504D02*
D03*
X96260Y51279D02*
D03*
D160*
X54331Y41142D02*
D03*
X77165D02*
D03*
X65748Y50315D02*
D03*
X54331Y73150D02*
D03*
X77165D02*
D03*
D161*
X208307Y62087D02*
D03*
X288307Y72087D02*
D03*
Y62087D02*
D03*
X278307Y72087D02*
D03*
Y62087D02*
D03*
X268307Y72087D02*
D03*
Y62087D02*
D03*
X258307Y72087D02*
D03*
Y62087D02*
D03*
X248307Y72087D02*
D03*
Y62087D02*
D03*
X238307Y72087D02*
D03*
Y62087D02*
D03*
X228307Y72087D02*
D03*
Y62087D02*
D03*
X218307Y72087D02*
D03*
Y62087D02*
D03*
X208307Y72087D02*
D03*
Y29331D02*
D03*
X288307Y39331D02*
D03*
Y29331D02*
D03*
X278307Y39331D02*
D03*
Y29331D02*
D03*
X268307Y39331D02*
D03*
Y29331D02*
D03*
X258307Y39331D02*
D03*
Y29331D02*
D03*
X248307Y39331D02*
D03*
Y29331D02*
D03*
X238307Y39331D02*
D03*
Y29331D02*
D03*
X228307Y39331D02*
D03*
Y29331D02*
D03*
X218307Y39331D02*
D03*
Y29331D02*
D03*
X208307Y39331D02*
D03*
X108307Y62087D02*
D03*
Y72087D02*
D03*
X118307Y62087D02*
D03*
Y72087D02*
D03*
X128307Y62087D02*
D03*
Y72087D02*
D03*
X138307Y62087D02*
D03*
Y72087D02*
D03*
X148307Y62087D02*
D03*
Y72087D02*
D03*
X158307Y62087D02*
D03*
Y72087D02*
D03*
X168307Y62087D02*
D03*
Y72087D02*
D03*
X178307Y62087D02*
D03*
Y72087D02*
D03*
X188307Y62087D02*
D03*
Y72087D02*
D03*
X198307Y62087D02*
D03*
Y72087D02*
D03*
X108307Y29331D02*
D03*
Y39331D02*
D03*
X118307Y29331D02*
D03*
Y39331D02*
D03*
X128307Y29331D02*
D03*
Y39331D02*
D03*
X138307Y29331D02*
D03*
Y39331D02*
D03*
X148307Y29331D02*
D03*
Y39331D02*
D03*
X158307Y29331D02*
D03*
Y39331D02*
D03*
X168307Y29331D02*
D03*
Y39331D02*
D03*
X178307Y29331D02*
D03*
Y39331D02*
D03*
X188307Y29331D02*
D03*
Y39331D02*
D03*
X198307Y29331D02*
D03*
Y39331D02*
D03*
D162*
X5630Y341024D02*
D03*
X343012Y5433D02*
D03*
X5630D02*
D03*
D163*
X28543Y124114D02*
D03*
Y112106D02*
D03*
Y99803D02*
D03*
Y87795D02*
D03*
X40944D02*
D03*
X35728D02*
D03*
X40944Y99803D02*
D03*
X35728D02*
D03*
X42913Y112106D02*
D03*
X35728D02*
D03*
Y124114D02*
D03*
X42913D02*
D03*
X50098Y101181D02*
D03*
Y112106D02*
D03*
Y124114D02*
D03*
X28543Y93799D02*
D03*
Y105905D02*
D03*
X28543Y118110D02*
D03*
X50098D02*
D03*
X50098Y106102D02*
D03*
X28543Y175689D02*
D03*
Y163681D02*
D03*
Y151378D02*
D03*
Y139370D02*
D03*
X40944D02*
D03*
X35728D02*
D03*
X40944Y151378D02*
D03*
X35728D02*
D03*
X42913Y163681D02*
D03*
X35728D02*
D03*
Y175689D02*
D03*
X42913D02*
D03*
X50098Y152756D02*
D03*
Y163681D02*
D03*
Y175689D02*
D03*
X28543Y145374D02*
D03*
Y157480D02*
D03*
X28543Y169685D02*
D03*
X50098D02*
D03*
X50098Y157677D02*
D03*
X28543Y228445D02*
D03*
Y216437D02*
D03*
Y204134D02*
D03*
Y192126D02*
D03*
X40944D02*
D03*
X35728D02*
D03*
X40944Y204134D02*
D03*
X35728D02*
D03*
X42913Y216437D02*
D03*
X35728D02*
D03*
Y228445D02*
D03*
X42913D02*
D03*
X50098Y205512D02*
D03*
Y216437D02*
D03*
Y228445D02*
D03*
X28543Y198130D02*
D03*
Y210236D02*
D03*
X28543Y222441D02*
D03*
X50098D02*
D03*
X50098Y210433D02*
D03*
X41831Y284843D02*
D03*
X29823D02*
D03*
X17520D02*
D03*
X5512D02*
D03*
Y272441D02*
D03*
Y277658D02*
D03*
X17520Y272441D02*
D03*
Y277658D02*
D03*
X29823Y270473D02*
D03*
Y277658D02*
D03*
X41831D02*
D03*
Y270473D02*
D03*
X18898Y263288D02*
D03*
X29823D02*
D03*
X41831D02*
D03*
X11516Y284842D02*
D03*
X23622D02*
D03*
X35827Y284843D02*
D03*
Y263288D02*
D03*
X23819Y263288D02*
D03*
X67421Y164803D02*
D03*
X78543Y114134D02*
D03*
X31713Y242323D02*
D03*
X37618D02*
D03*
X71063Y222756D02*
D03*
X75394Y117953D02*
D03*
Y114213D02*
D03*
X67421Y170709D02*
D03*
X71653Y170630D02*
D03*
Y164724D02*
D03*
X67323Y222835D02*
D03*
Y216929D02*
D03*
X71063Y216850D02*
D03*
X31791Y245866D02*
D03*
X37697D02*
D03*
X78543Y117874D02*
D03*
D164*
X208465Y86528D02*
D03*
Y107316D02*
D03*
Y104717D02*
D03*
Y102119D02*
D03*
Y99520D02*
D03*
X268492Y189469D02*
D03*
Y186870D02*
D03*
Y184272D02*
D03*
Y181673D02*
D03*
Y179075D02*
D03*
Y176476D02*
D03*
Y173878D02*
D03*
Y171280D02*
D03*
Y259626D02*
D03*
Y262224D02*
D03*
Y264823D02*
D03*
Y267421D02*
D03*
Y257028D02*
D03*
Y244035D02*
D03*
Y241437D02*
D03*
Y238839D02*
D03*
Y236240D02*
D03*
Y233642D02*
D03*
Y231043D02*
D03*
Y228445D02*
D03*
Y225846D02*
D03*
Y223248D02*
D03*
Y220650D02*
D03*
Y218051D02*
D03*
Y215453D02*
D03*
Y212854D02*
D03*
Y210256D02*
D03*
Y207658D02*
D03*
Y205059D02*
D03*
Y202461D02*
D03*
Y199862D02*
D03*
Y197264D02*
D03*
Y194665D02*
D03*
Y192067D02*
D03*
X89252Y278740D02*
D03*
Y276142D02*
D03*
Y273543D02*
D03*
Y270945D02*
D03*
Y268347D02*
D03*
Y265748D02*
D03*
Y263150D02*
D03*
Y260551D02*
D03*
Y283937D02*
D03*
Y281339D02*
D03*
D165*
X108189Y138689D02*
D03*
X103858D02*
D03*
X99528D02*
D03*
X95197D02*
D03*
X202476Y83720D02*
D03*
X199878D02*
D03*
X197280D02*
D03*
X194681D02*
D03*
X192083D02*
D03*
X189484D02*
D03*
X183181D02*
D03*
X180583D02*
D03*
X177984D02*
D03*
X173571D02*
D03*
X170973D02*
D03*
X168374D02*
D03*
X165776D02*
D03*
X152681D02*
D03*
X150083D02*
D03*
X147484D02*
D03*
X137067D02*
D03*
X134469D02*
D03*
X131870D02*
D03*
X129272D02*
D03*
X126673D02*
D03*
X124075D02*
D03*
X121476D02*
D03*
X118878D02*
D03*
X116279D02*
D03*
X113681D02*
D03*
X112520Y138689D02*
D03*
X116850D02*
D03*
X121181D02*
D03*
X125512D02*
D03*
X129842D02*
D03*
X134173D02*
D03*
X138504D02*
D03*
X142835D02*
D03*
X147165D02*
D03*
X151496D02*
D03*
X155827D02*
D03*
X160157D02*
D03*
X164488D02*
D03*
X168819D02*
D03*
X173150D02*
D03*
X177480D02*
D03*
X181811D02*
D03*
X186142D02*
D03*
X190472D02*
D03*
X194803D02*
D03*
X199134D02*
D03*
X203464D02*
D03*
X153465Y283669D02*
D03*
X148228D02*
D03*
X250079D02*
D03*
X254409D02*
D03*
X258740D02*
D03*
X112520Y142217D02*
D03*
X108189D02*
D03*
X103858D02*
D03*
X99528D02*
D03*
X220787D02*
D03*
X225118D02*
D03*
X230315D02*
D03*
X235512D02*
D03*
X216457D02*
D03*
X212126D02*
D03*
X207795D02*
D03*
X203465D02*
D03*
X199134D02*
D03*
X194803D02*
D03*
X190472D02*
D03*
X186142D02*
D03*
X181811D02*
D03*
X177480D02*
D03*
X173150D02*
D03*
X168819D02*
D03*
X164488D02*
D03*
X160158D02*
D03*
X155827D02*
D03*
X151496D02*
D03*
X147166D02*
D03*
X142835D02*
D03*
X138504D02*
D03*
X134173D02*
D03*
X129843D02*
D03*
X125512D02*
D03*
X150847Y283669D02*
D03*
X145236D02*
D03*
X140039D02*
D03*
X134843D02*
D03*
X156083D02*
D03*
X159134D02*
D03*
X163465D02*
D03*
X167795D02*
D03*
X172126D02*
D03*
X176457D02*
D03*
X180787D02*
D03*
X185118D02*
D03*
X189449D02*
D03*
X193779D02*
D03*
X198110D02*
D03*
X202441D02*
D03*
X206771D02*
D03*
X211102D02*
D03*
X215433D02*
D03*
X219764D02*
D03*
X224094D02*
D03*
X228425D02*
D03*
X232756D02*
D03*
X237087D02*
D03*
X241417D02*
D03*
X245748D02*
D03*
X121181Y142217D02*
D03*
X116851D02*
D03*
X95197D02*
D03*
X263071Y283669D02*
D03*
D166*
X275984Y55413D02*
D03*
X270866D02*
D03*
D167*
X274902D02*
D03*
X271949D02*
D03*
D168*
X280793Y247456D02*
D03*
Y245723D02*
D03*
Y243991D02*
D03*
Y242259D02*
D03*
Y240526D02*
D03*
Y238794D02*
D03*
Y237062D02*
D03*
Y223656D02*
D03*
Y221058D02*
D03*
Y218459D02*
D03*
Y215861D02*
D03*
Y211432D02*
D03*
Y209700D02*
D03*
Y207967D02*
D03*
Y206235D02*
D03*
Y204503D02*
D03*
Y202770D02*
D03*
Y201038D02*
D03*
Y199306D02*
D03*
Y190664D02*
D03*
Y187531D02*
D03*
Y184381D02*
D03*
Y181231D02*
D03*
Y171688D02*
D03*
Y174286D02*
D03*
Y178460D02*
D03*
D169*
X281207Y155723D02*
D03*
Y132692D02*
D03*
Y91866D02*
D03*
Y94601D02*
D03*
Y97279D02*
D03*
Y105646D02*
D03*
Y114483D02*
D03*
Y117042D02*
D03*
D170*
X284750Y88204D02*
D03*
X289376D02*
D03*
X294691D02*
D03*
X299317D02*
D03*
X327663Y88204D02*
D03*
D171*
X356896Y88991D02*
D03*
D172*
X331502Y87810D02*
D03*
X324239D02*
D03*
X317842D02*
D03*
X303333D02*
D03*
X306129D02*
D03*
X309672D02*
D03*
X321364D02*
D03*
D173*
X337598Y254882D02*
D03*
D174*
X390354Y172106D02*
D03*
D175*
X388957Y253484D02*
D03*
D176*
X64724Y227795D02*
Y235849D01*
X58251Y242323D02*
X64724Y235849D01*
X36417Y242323D02*
X58251D01*
X64724Y227795D02*
X69685Y222835D01*
X31713Y242323D02*
X36417D01*
X69685Y216929D02*
Y222835D01*
Y170709D02*
Y196752D01*
Y166693D02*
Y170709D01*
X69488Y164803D02*
Y166280D01*
Y150113D02*
Y164803D01*
X332972Y75098D02*
Y80277D01*
X332874Y70374D02*
Y72736D01*
Y68012D02*
Y70374D01*
X332972Y61614D02*
Y65650D01*
X332874Y72736D02*
Y75098D01*
X69685Y196752D02*
X69783Y196850D01*
Y215571D01*
X69488Y148637D02*
X72948Y145177D01*
D177*
X82794Y58877D02*
X88583Y64665D01*
X74129Y58877D02*
X82794D01*
X65748Y50496D02*
X74129Y58877D01*
X65748Y50315D02*
Y50496D01*
X333563Y81557D02*
X336781Y84775D01*
D178*
X77362Y87697D02*
Y114213D01*
Y117874D01*
X77362Y117913D02*
Y140762D01*
X72948Y145177D02*
X77362Y140762D01*
D179*
X39469Y209547D02*
D03*
Y157579D02*
D03*
Y106004D02*
D03*
D180*
X23130Y273917D02*
D03*
M02*
