G04*
G04 #@! TF.GenerationSoftware,Altium Limited,Altium Designer,20.2.7 (254)*
G04*
G04 Layer_Color=65535*
%FSLAX25Y25*%
%MOIN*%
G70*
G04*
G04 #@! TF.SameCoordinates,F02F79C3-03E1-47DE-868D-05DBDBA98D82*
G04*
G04*
G04 #@! TF.FilePolarity,Positive*
G04*
G01*
G75*
%ADD10C,0.00984*%
%ADD11C,0.00300*%
%ADD12C,0.01000*%
%ADD13C,0.00906*%
%ADD14C,0.00787*%
%ADD15C,0.00500*%
%ADD16C,0.00800*%
%ADD17C,0.00394*%
%ADD18C,0.00669*%
G36*
X22893Y340634D02*
X23028Y340244D01*
X23419Y339685D01*
X23726Y339346D01*
X24126Y339071D01*
X24452Y338606D01*
X24638Y338043D01*
X24554Y337569D01*
X24373Y337234D01*
X24126Y336992D01*
X23800Y336764D01*
X23419Y336912D01*
X23163Y337080D01*
X22758Y337559D01*
X22367Y338117D01*
X22214Y338634D01*
X22265Y339155D01*
X22288Y339518D01*
X22372Y339992D01*
X22502Y340499D01*
X22609Y340644D01*
X22888Y340839D01*
X22893Y340634D01*
D02*
G37*
G36*
X22785Y343956D02*
X22925Y343361D01*
X23013Y342937D01*
X22948Y342337D01*
X22776Y341593D01*
X22460Y340955D01*
X22083Y340206D01*
X21786Y339443D01*
X21762Y339080D01*
X21883Y338610D01*
X22084Y338126D01*
X22330Y337675D01*
X22754Y337070D01*
X23093Y336684D01*
X23198Y336584D01*
X23058Y336487D01*
X22526Y336703D01*
X21884Y337224D01*
X21316Y337936D01*
X21069Y338387D01*
X20832Y339122D01*
X20878Y339848D01*
X21208Y340564D01*
X21571Y341234D01*
X22041Y342049D01*
X22297Y342574D01*
X22474Y343114D01*
X22585Y343747D01*
X22548Y343998D01*
X22785Y343956D01*
D02*
G37*
G36*
X23423Y341560D02*
X23572Y341249D01*
X23832Y340876D01*
X24168Y340695D01*
X24582Y340500D01*
X24996Y340304D01*
X25410Y340109D01*
X25749Y339723D01*
X25945Y339444D01*
X26178Y338913D01*
X26173Y338425D01*
X26089Y337950D01*
X25894Y337536D01*
X25620Y337136D01*
X24829Y336582D01*
X24359Y336461D01*
X24247Y336522D01*
X24894Y337182D01*
X25224Y337899D01*
X25261Y338341D01*
X25205Y338718D01*
X25135Y339016D01*
X24940Y339295D01*
X24493Y339537D01*
X24061Y339858D01*
X23772Y340072D01*
X23498Y340365D01*
X23316Y340723D01*
X23214Y341067D01*
X23176Y341318D01*
X23186Y341602D01*
X23339Y341779D01*
X23423Y341560D01*
D02*
G37*
G36*
X25750Y336257D02*
X25894Y336150D01*
X25927Y336103D01*
X25969Y335647D01*
X25973Y335443D01*
X25959Y335364D01*
X25899Y335252D01*
X25573Y335024D01*
X25457Y334596D01*
X25290Y333647D01*
X25271Y333079D01*
X25261Y331968D01*
X25266Y331915D01*
X25286Y331416D01*
X25326Y330917D01*
X25385Y330418D01*
X25465Y329959D01*
X25485D01*
X25565Y329979D01*
X25665Y329999D01*
X25824Y330019D01*
X25984Y330039D01*
X26204Y330079D01*
X26423Y330119D01*
X26663Y330179D01*
X27202Y330278D01*
X27741Y330418D01*
X28280Y330578D01*
X28519Y330658D01*
X28759Y330757D01*
Y330777D01*
Y330837D01*
X28739Y330957D01*
X28719Y331117D01*
X28699Y331336D01*
X28659Y331616D01*
X28599Y331955D01*
X28539Y332374D01*
Y332394D01*
X28519Y332454D01*
Y332534D01*
X28499Y332654D01*
X28479Y332773D01*
X28459Y332933D01*
X28399Y333292D01*
X28339Y333672D01*
X28300Y334051D01*
X28280Y334390D01*
X28260Y334550D01*
Y334670D01*
Y334689D01*
Y334749D01*
X28280Y334809D01*
X28300Y334909D01*
X28339Y335029D01*
X28399Y335149D01*
X28479Y335268D01*
X28599Y335388D01*
X28619Y335408D01*
X28659Y335448D01*
X28739Y335488D01*
X28839Y335548D01*
X28958Y335608D01*
X29098Y335668D01*
X29258Y335687D01*
X29417Y335707D01*
X29477D01*
X29557Y335687D01*
X29657D01*
X29856Y335608D01*
X29976Y335568D01*
X30076Y335488D01*
X30096D01*
X30116Y335448D01*
X30216Y335328D01*
X30316Y335129D01*
X30336Y335009D01*
X30355Y334869D01*
Y334849D01*
Y334749D01*
Y334670D01*
X30375Y334570D01*
Y334450D01*
Y334310D01*
X30395Y334131D01*
Y333951D01*
X30415Y333731D01*
X30435Y333472D01*
X30455Y333192D01*
X30495Y332873D01*
X30515Y332534D01*
X30555Y332155D01*
Y332115D01*
X30575Y332035D01*
Y331895D01*
X30595Y331735D01*
X30615Y331576D01*
Y331416D01*
X30635Y331296D01*
Y331196D01*
X30775Y331217D01*
X30814D01*
X30894Y331196D01*
X31014Y331117D01*
X31074Y331057D01*
X31134Y330977D01*
Y330957D01*
X31154Y330937D01*
X31234Y330817D01*
X31294Y330658D01*
X31313Y330438D01*
Y330418D01*
Y330398D01*
Y330338D01*
X31294Y330258D01*
X31234Y330039D01*
X31134Y329759D01*
Y329739D01*
X31114Y329699D01*
X31034Y329580D01*
X30934Y329440D01*
X30874Y329400D01*
X30814Y329380D01*
X30874Y328342D01*
Y328302D01*
X30894Y328222D01*
Y328143D01*
X30914Y328043D01*
X30934Y327923D01*
X30954Y327783D01*
X30974Y327624D01*
X30994Y327444D01*
X31014Y327244D01*
X31054Y327005D01*
X31094Y326765D01*
X31134Y326466D01*
X31174Y326167D01*
X31214Y325827D01*
Y325807D01*
X31234Y325747D01*
Y325648D01*
X31254Y325528D01*
X31274Y325388D01*
X31294Y325229D01*
X31353Y324869D01*
X31413Y324510D01*
X31453Y324171D01*
X31473Y324031D01*
Y323911D01*
X31493Y323811D01*
Y323751D01*
Y323731D01*
Y323692D01*
X31473Y323632D01*
X31453Y323552D01*
X31393Y323352D01*
X31313Y323252D01*
X31234Y323153D01*
X31214D01*
X31194Y323113D01*
X31134Y323093D01*
X31054Y323053D01*
X30854Y322973D01*
X30715Y322953D01*
X30575Y322933D01*
X30495D01*
X30395Y322953D01*
X30296Y322973D01*
X30156Y323013D01*
X30036Y323073D01*
X29896Y323153D01*
X29777Y323272D01*
X29757Y323292D01*
X29737Y323332D01*
X29697Y323412D01*
X29637Y323512D01*
X29577Y323652D01*
X29537Y323811D01*
X29517Y323991D01*
X29497Y324191D01*
Y324231D01*
Y324270D01*
Y324330D01*
X29477Y324410D01*
Y324530D01*
X29457Y324670D01*
Y324869D01*
X29417Y325069D01*
X29397Y325328D01*
X29377Y325628D01*
X29337Y325967D01*
X29278Y326366D01*
X29238Y326805D01*
X29178Y327304D01*
X29098Y327863D01*
Y327883D01*
Y327903D01*
X29078Y328023D01*
X29058Y328183D01*
X29038Y328382D01*
X29018Y328602D01*
X28998Y328801D01*
X28978Y328981D01*
X28958Y329101D01*
X28938D01*
X28898Y329081D01*
X28799D01*
X28699Y329061D01*
X28539Y329021D01*
X28379Y329001D01*
X28180Y328961D01*
X27960Y328921D01*
X27721Y328861D01*
X27441Y328821D01*
X26862Y328682D01*
X26204Y328542D01*
X25505Y328362D01*
Y328342D01*
Y328282D01*
X25525Y328163D01*
X25545Y327983D01*
X25585Y327763D01*
X25625Y327444D01*
X25665Y327085D01*
X25685Y326865D01*
X25725Y326626D01*
Y326606D01*
Y326566D01*
X25745Y326506D01*
X25765Y326406D01*
X25805Y326187D01*
X25844Y325907D01*
X25904Y325588D01*
X25944Y325288D01*
X26004Y324989D01*
X26064Y324729D01*
X26084Y324710D01*
X26164Y324690D01*
X26224Y324630D01*
X26284Y324570D01*
X26304Y324550D01*
X26324Y324510D01*
X26344Y324410D01*
Y324251D01*
Y324231D01*
Y324211D01*
X26324Y324151D01*
X26284Y324071D01*
X26224Y323991D01*
X26144Y323871D01*
X26044Y323751D01*
X25884Y323612D01*
X25864Y323592D01*
X25805Y323552D01*
X25725Y323492D01*
X25625Y323432D01*
X25385Y323312D01*
X25246Y323272D01*
X25126Y323252D01*
X25086D01*
X24966Y323272D01*
X24787Y323332D01*
X24587Y323452D01*
X24467Y323532D01*
X24367Y323652D01*
X24268Y323771D01*
X24188Y323931D01*
X24108Y324111D01*
X24048Y324330D01*
X23988Y324570D01*
X23968Y324849D01*
Y324869D01*
Y324969D01*
X23948Y325109D01*
X23928Y325308D01*
X23908Y325588D01*
X23888Y325947D01*
X23868Y326147D01*
X23848Y326366D01*
X23829Y326626D01*
X23809Y326885D01*
Y326905D01*
Y326945D01*
X23789Y327005D01*
Y327065D01*
X23769Y327264D01*
X23749Y327504D01*
X23729Y327743D01*
X23709Y327983D01*
X23689Y328183D01*
Y328242D01*
Y328302D01*
X23669D01*
X23589Y328342D01*
X23469Y328422D01*
X23409Y328482D01*
X23349Y328582D01*
Y328602D01*
X23329Y328642D01*
X23270Y328761D01*
X23190Y328921D01*
X23170Y329081D01*
Y329101D01*
Y329121D01*
X23190Y329240D01*
X23230Y329380D01*
X23290Y329540D01*
Y329560D01*
X23310Y329580D01*
X23369Y329660D01*
X23469Y329739D01*
X23609Y329799D01*
Y329819D01*
Y329839D01*
X23589Y329899D01*
Y329999D01*
X23569Y330139D01*
X23529Y330338D01*
X23489Y330558D01*
X23449Y330857D01*
Y330877D01*
X23429Y330937D01*
Y331017D01*
X23409Y331137D01*
X23369Y331296D01*
X23349Y331456D01*
X23290Y331835D01*
X23230Y332235D01*
X23190Y332634D01*
X23150Y332993D01*
X23148Y333011D01*
X23010Y333437D01*
X22647Y334153D01*
X22433Y334558D01*
X22177Y334726D01*
X22033Y334833D01*
X22000Y334879D01*
X21963Y335130D01*
X21940Y335461D01*
X21935Y335665D01*
X21995Y335777D01*
X22135Y335875D01*
X25592Y336285D01*
X25750Y336257D01*
D02*
G37*
G36*
X151690Y332777D02*
X151879Y332764D01*
X152094Y332737D01*
X152336Y332697D01*
X152592Y332643D01*
X152847Y332576D01*
X152618Y331392D01*
X152605D01*
X152551Y331405D01*
X152471Y331432D01*
X152363Y331446D01*
X152242Y331473D01*
X152107Y331486D01*
X151825Y331500D01*
X151771D01*
X151704Y331486D01*
X151623Y331473D01*
X151448Y331432D01*
X151368Y331379D01*
X151300Y331325D01*
Y331311D01*
X151273Y331284D01*
X151247Y331244D01*
X151220Y331177D01*
X151193Y331083D01*
X151166Y330962D01*
X151152Y330827D01*
X151139Y330652D01*
Y330208D01*
X152403D01*
Y328877D01*
X151139D01*
Y323806D01*
X149444D01*
Y328877D01*
X148503D01*
Y330208D01*
X149444D01*
Y330679D01*
Y330693D01*
Y330719D01*
Y330760D01*
Y330814D01*
X149458Y330962D01*
X149471Y331136D01*
X149485Y331325D01*
X149512Y331526D01*
X149552Y331715D01*
X149606Y331876D01*
X149619Y331890D01*
X149646Y331943D01*
X149686Y332024D01*
X149754Y332105D01*
X149834Y332212D01*
X149942Y332320D01*
X150076Y332428D01*
X150238Y332535D01*
X150265Y332549D01*
X150319Y332576D01*
X150426Y332616D01*
X150561Y332670D01*
X150735Y332710D01*
X150937Y332751D01*
X151166Y332777D01*
X151421Y332791D01*
X151542D01*
X151690Y332777D01*
D02*
G37*
G36*
X155039Y331083D02*
X153345D01*
Y332643D01*
X155039D01*
Y331083D01*
D02*
G37*
G36*
X182020Y330329D02*
X182195Y330303D01*
X182370Y330276D01*
X182572Y330222D01*
X182773Y330141D01*
X182962Y330047D01*
X182989Y330034D01*
X183042Y329993D01*
X183136Y329926D01*
X183244Y329832D01*
X183365Y329724D01*
X183486Y329576D01*
X183607Y329401D01*
X183701Y329213D01*
X183715Y329200D01*
X183728Y329132D01*
X183755Y329038D01*
X183795Y328890D01*
X183822Y328702D01*
X183849Y328473D01*
X183863Y328204D01*
X183876Y327882D01*
Y323806D01*
X182182D01*
Y327451D01*
Y327465D01*
Y327491D01*
Y327545D01*
Y327599D01*
X182168Y327774D01*
X182155Y327962D01*
X182141Y328177D01*
X182114Y328379D01*
X182061Y328554D01*
X182034Y328635D01*
X182007Y328689D01*
X181993Y328702D01*
X181966Y328742D01*
X181899Y328810D01*
X181832Y328877D01*
X181724Y328931D01*
X181603Y328998D01*
X181455Y329038D01*
X181280Y329052D01*
X181227D01*
X181159Y329038D01*
X181065Y329025D01*
X180958Y328998D01*
X180850Y328958D01*
X180729Y328904D01*
X180608Y328823D01*
X180594Y328810D01*
X180554Y328783D01*
X180500Y328729D01*
X180433Y328662D01*
X180366Y328581D01*
X180285Y328460D01*
X180218Y328339D01*
X180164Y328191D01*
Y328177D01*
X180137Y328110D01*
X180124Y328016D01*
X180097Y327868D01*
X180070Y327680D01*
X180056Y327465D01*
X180029Y327182D01*
Y326873D01*
Y323806D01*
X178335D01*
Y327303D01*
Y327317D01*
Y327344D01*
Y327397D01*
Y327451D01*
Y327613D01*
X178321Y327814D01*
X178308Y328016D01*
X178295Y328218D01*
X178268Y328379D01*
X178254Y328460D01*
X178241Y328514D01*
Y328527D01*
X178227Y328554D01*
X178200Y328608D01*
X178173Y328662D01*
X178079Y328796D01*
X177958Y328917D01*
X177945D01*
X177918Y328944D01*
X177877Y328958D01*
X177824Y328984D01*
X177757Y329011D01*
X177662Y329025D01*
X177568Y329052D01*
X177380D01*
X177299Y329038D01*
X177205Y329025D01*
X177097Y328998D01*
X176976Y328958D01*
X176855Y328904D01*
X176734Y328836D01*
X176721Y328823D01*
X176681Y328796D01*
X176627Y328742D01*
X176559Y328675D01*
X176492Y328594D01*
X176411Y328487D01*
X176344Y328366D01*
X176290Y328218D01*
Y328204D01*
X176263Y328137D01*
X176250Y328043D01*
X176223Y327908D01*
X176196Y327734D01*
X176183Y327505D01*
X176156Y327236D01*
Y326913D01*
Y323806D01*
X174461D01*
Y330208D01*
X176021D01*
Y329334D01*
X176035Y329348D01*
X176062Y329375D01*
X176102Y329428D01*
X176169Y329496D01*
X176250Y329563D01*
X176344Y329657D01*
X176452Y329751D01*
X176586Y329845D01*
X176721Y329939D01*
X176869Y330020D01*
X177218Y330182D01*
X177393Y330249D01*
X177595Y330303D01*
X177797Y330329D01*
X178012Y330343D01*
X178120D01*
X178227Y330329D01*
X178375Y330316D01*
X178550Y330276D01*
X178725Y330235D01*
X178900Y330168D01*
X179075Y330087D01*
X179102Y330074D01*
X179155Y330034D01*
X179236Y329980D01*
X179344Y329899D01*
X179465Y329791D01*
X179586Y329657D01*
X179707Y329496D01*
X179828Y329321D01*
X179841Y329348D01*
X179895Y329401D01*
X179989Y329496D01*
X180097Y329603D01*
X180231Y329738D01*
X180379Y329859D01*
X180554Y329980D01*
X180729Y330087D01*
X180756Y330101D01*
X180810Y330128D01*
X180917Y330168D01*
X181052Y330222D01*
X181200Y330262D01*
X181388Y330303D01*
X181576Y330329D01*
X181778Y330343D01*
X181899D01*
X182020Y330329D01*
D02*
G37*
G36*
X126351Y330329D02*
X126498Y330303D01*
X126660Y330262D01*
X126862Y330208D01*
X127063Y330128D01*
X127265Y330020D01*
X126741Y328541D01*
X126727Y328554D01*
X126673Y328581D01*
X126579Y328635D01*
X126485Y328689D01*
X126351Y328729D01*
X126216Y328783D01*
X126082Y328810D01*
X125934Y328823D01*
X125880D01*
X125813Y328810D01*
X125732Y328796D01*
X125638Y328769D01*
X125530Y328742D01*
X125423Y328689D01*
X125328Y328621D01*
X125315Y328608D01*
X125288Y328581D01*
X125248Y328527D01*
X125194Y328460D01*
X125127Y328366D01*
X125059Y328231D01*
X124992Y328083D01*
X124938Y327908D01*
Y327882D01*
X124925Y327855D01*
X124911Y327801D01*
Y327747D01*
X124898Y327666D01*
X124884Y327559D01*
X124871Y327451D01*
X124858Y327317D01*
X124844Y327169D01*
X124831Y326994D01*
Y326792D01*
X124817Y326577D01*
X124804Y326335D01*
Y326066D01*
Y325770D01*
Y323806D01*
X123109D01*
Y330208D01*
X124683D01*
Y329307D01*
X124696Y329321D01*
X124750Y329401D01*
X124831Y329509D01*
X124925Y329644D01*
X125032Y329791D01*
X125154Y329926D01*
X125288Y330047D01*
X125409Y330141D01*
X125423Y330155D01*
X125463Y330168D01*
X125530Y330208D01*
X125624Y330249D01*
X125732Y330276D01*
X125853Y330316D01*
X125987Y330329D01*
X126135Y330343D01*
X126230D01*
X126351Y330329D01*
D02*
G37*
G36*
X231234Y330329D02*
X231368Y330316D01*
X231530Y330289D01*
X231704Y330262D01*
X231879Y330208D01*
X232054Y330141D01*
X232081Y330128D01*
X232135Y330101D01*
X232215Y330061D01*
X232310Y330007D01*
X232431Y329926D01*
X232538Y329832D01*
X232659Y329738D01*
X232753Y329617D01*
X232767Y329603D01*
X232794Y329563D01*
X232834Y329496D01*
X232888Y329415D01*
X232942Y329307D01*
X232996Y329186D01*
X233049Y329052D01*
X233090Y328904D01*
Y328890D01*
X233103Y328836D01*
X233117Y328742D01*
X233144Y328621D01*
X233157Y328460D01*
X233171Y328258D01*
X233184Y328029D01*
Y327774D01*
Y323806D01*
X231489D01*
Y327061D01*
Y327075D01*
Y327101D01*
Y327155D01*
Y327222D01*
Y327317D01*
Y327411D01*
X231476Y327613D01*
X231462Y327841D01*
X231435Y328056D01*
X231409Y328245D01*
X231395Y328325D01*
X231368Y328393D01*
Y328406D01*
X231355Y328447D01*
X231328Y328500D01*
X231288Y328568D01*
X231180Y328729D01*
X231018Y328877D01*
X231005Y328890D01*
X230978Y328904D01*
X230924Y328931D01*
X230857Y328971D01*
X230776Y328998D01*
X230669Y329025D01*
X230561Y329038D01*
X230440Y329052D01*
X230359D01*
X230279Y329038D01*
X230171Y329025D01*
X230050Y328998D01*
X229916Y328944D01*
X229781Y328890D01*
X229647Y328810D01*
X229633Y328796D01*
X229593Y328769D01*
X229539Y328715D01*
X229458Y328635D01*
X229391Y328541D01*
X229310Y328433D01*
X229230Y328312D01*
X229176Y328164D01*
Y328151D01*
X229162Y328083D01*
X229135Y327989D01*
X229122Y327841D01*
X229109Y327747D01*
X229095Y327640D01*
X229082Y327518D01*
X229068Y327384D01*
Y327236D01*
X229055Y327075D01*
Y326886D01*
Y326698D01*
Y323806D01*
X227360D01*
Y330208D01*
X228934D01*
Y329267D01*
X228947Y329280D01*
X228974Y329307D01*
X229014Y329361D01*
X229082Y329442D01*
X229162Y329522D01*
X229270Y329603D01*
X229378Y329711D01*
X229512Y329805D01*
X229660Y329899D01*
X229808Y330007D01*
X229983Y330087D01*
X230171Y330182D01*
X230373Y330249D01*
X230575Y330303D01*
X230803Y330329D01*
X231032Y330343D01*
X231126D01*
X231234Y330329D01*
D02*
G37*
G36*
X101535Y330329D02*
X101629Y330316D01*
X101737Y330303D01*
X102006Y330235D01*
X102302Y330128D01*
X102463Y330060D01*
X102625Y329966D01*
X102773Y329872D01*
X102934Y329751D01*
X103095Y329617D01*
X103244Y329455D01*
X103257Y329442D01*
X103284Y329415D01*
X103311Y329361D01*
X103365Y329294D01*
X103418Y329200D01*
X103486Y329092D01*
X103566Y328971D01*
X103633Y328823D01*
X103701Y328662D01*
X103781Y328473D01*
X103849Y328272D01*
X103902Y328056D01*
X103956Y327828D01*
X103997Y327572D01*
X104010Y327303D01*
X104024Y327021D01*
Y327007D01*
Y326954D01*
Y326873D01*
X104010Y326752D01*
X103997Y326617D01*
X103983Y326469D01*
X103956Y326294D01*
X103929Y326106D01*
X103835Y325716D01*
X103768Y325501D01*
X103687Y325299D01*
X103593Y325097D01*
X103499Y324896D01*
X103365Y324707D01*
X103230Y324533D01*
X103217Y324519D01*
X103190Y324492D01*
X103149Y324452D01*
X103095Y324398D01*
X103015Y324331D01*
X102921Y324250D01*
X102813Y324169D01*
X102706Y324089D01*
X102423Y323927D01*
X102100Y323779D01*
X101925Y323726D01*
X101737Y323685D01*
X101535Y323658D01*
X101334Y323645D01*
X101239D01*
X101145Y323658D01*
X101024Y323672D01*
X100876Y323699D01*
X100715Y323726D01*
X100540Y323779D01*
X100379Y323847D01*
X100365Y323860D01*
X100298Y323887D01*
X100217Y323941D01*
X100110Y324021D01*
X99975Y324115D01*
X99814Y324250D01*
X99652Y324398D01*
X99477Y324573D01*
Y321358D01*
X97783D01*
Y330208D01*
X99356D01*
Y329267D01*
X99370Y329294D01*
X99410Y329348D01*
X99477Y329428D01*
X99572Y329536D01*
X99693Y329657D01*
X99827Y329791D01*
X99989Y329912D01*
X100177Y330033D01*
X100204Y330047D01*
X100271Y330087D01*
X100379Y330128D01*
X100527Y330195D01*
X100688Y330249D01*
X100890Y330289D01*
X101118Y330329D01*
X101347Y330343D01*
X101455D01*
X101535Y330329D01*
D02*
G37*
G36*
X114246Y328514D02*
X112551D01*
Y330208D01*
X114246D01*
Y328514D01*
D02*
G37*
G36*
X191623Y330329D02*
X191758Y330316D01*
X192040Y330289D01*
X192350Y330235D01*
X192686Y330168D01*
X192982Y330061D01*
X193130Y329993D01*
X193251Y329912D01*
X193264D01*
X193278Y329899D01*
X193359Y329832D01*
X193466Y329738D01*
X193601Y329590D01*
X193748Y329415D01*
X193896Y329200D01*
X194031Y328958D01*
X194139Y328662D01*
X192538Y328366D01*
Y328379D01*
X192511Y328420D01*
X192484Y328487D01*
X192444Y328568D01*
X192390Y328662D01*
X192323Y328756D01*
X192242Y328850D01*
X192134Y328931D01*
X192121Y328944D01*
X192081Y328958D01*
X192014Y328998D01*
X191933Y329038D01*
X191812Y329065D01*
X191677Y329105D01*
X191516Y329119D01*
X191328Y329132D01*
X191220D01*
X191099Y329119D01*
X190951Y329105D01*
X190642Y329052D01*
X190494Y329011D01*
X190373Y328944D01*
X190359D01*
X190346Y328917D01*
X190278Y328850D01*
X190211Y328742D01*
X190198Y328675D01*
X190184Y328594D01*
Y328581D01*
Y328568D01*
X190211Y328487D01*
X190252Y328379D01*
X190292Y328339D01*
X190346Y328285D01*
X190359Y328272D01*
X190400Y328258D01*
X190494Y328218D01*
X190547Y328191D01*
X190628Y328164D01*
X190722Y328124D01*
X190830Y328097D01*
X190964Y328056D01*
X191112Y328003D01*
X191274Y327962D01*
X191462Y327908D01*
X191677Y327855D01*
X191919Y327801D01*
X191933D01*
X191973Y327787D01*
X192054Y327774D01*
X192134Y327747D01*
X192256Y327720D01*
X192377Y327680D01*
X192673Y327599D01*
X192982Y327491D01*
X193291Y327357D01*
X193574Y327209D01*
X193708Y327128D01*
X193816Y327048D01*
X193843Y327021D01*
X193896Y326967D01*
X193991Y326859D01*
X194085Y326725D01*
X194179Y326550D01*
X194273Y326321D01*
X194327Y326079D01*
X194354Y325783D01*
Y325770D01*
Y325743D01*
Y325703D01*
X194340Y325635D01*
X194327Y325568D01*
X194313Y325474D01*
X194260Y325272D01*
X194179Y325030D01*
X194044Y324775D01*
X193964Y324654D01*
X193856Y324519D01*
X193748Y324398D01*
X193614Y324277D01*
X193601D01*
X193587Y324250D01*
X193533Y324223D01*
X193480Y324183D01*
X193399Y324129D01*
X193305Y324075D01*
X193197Y324021D01*
X193076Y323968D01*
X192928Y323900D01*
X192767Y323847D01*
X192592Y323793D01*
X192390Y323739D01*
X192188Y323699D01*
X191960Y323672D01*
X191704Y323658D01*
X191449Y323645D01*
X191328D01*
X191233Y323658D01*
X191126D01*
X190991Y323672D01*
X190857Y323685D01*
X190695Y323712D01*
X190373Y323779D01*
X190023Y323860D01*
X189687Y323994D01*
X189377Y324169D01*
X189364D01*
X189350Y324196D01*
X189310Y324223D01*
X189256Y324264D01*
X189122Y324385D01*
X188974Y324546D01*
X188812Y324748D01*
X188651Y325003D01*
X188503Y325286D01*
X188395Y325608D01*
X190090Y325864D01*
Y325837D01*
X190117Y325783D01*
X190144Y325689D01*
X190184Y325582D01*
X190238Y325461D01*
X190319Y325340D01*
X190413Y325219D01*
X190521Y325111D01*
X190534Y325097D01*
X190588Y325071D01*
X190655Y325030D01*
X190763Y324990D01*
X190897Y324950D01*
X191059Y324909D01*
X191233Y324882D01*
X191449Y324869D01*
X191556D01*
X191677Y324882D01*
X191812Y324896D01*
X191973Y324923D01*
X192134Y324963D01*
X192296Y325017D01*
X192430Y325097D01*
X192444Y325111D01*
X192471Y325124D01*
X192498Y325165D01*
X192552Y325219D01*
X192619Y325366D01*
X192646Y325461D01*
X192659Y325555D01*
Y325568D01*
Y325595D01*
X192646Y325676D01*
X192605Y325770D01*
X192538Y325877D01*
X192511Y325904D01*
X192471Y325918D01*
X192417Y325958D01*
X192336Y325985D01*
X192242Y326026D01*
X192108Y326066D01*
X191960Y326106D01*
X191933D01*
X191866Y326133D01*
X191771Y326147D01*
X191637Y326187D01*
X191475Y326227D01*
X191287Y326268D01*
X191085Y326321D01*
X190870Y326375D01*
X190426Y326496D01*
X190211Y326564D01*
X189996Y326644D01*
X189808Y326711D01*
X189633Y326779D01*
X189485Y326859D01*
X189364Y326927D01*
X189350D01*
X189337Y326954D01*
X189243Y327021D01*
X189122Y327142D01*
X188987Y327303D01*
X188853Y327505D01*
X188732Y327761D01*
X188637Y328043D01*
X188624Y328204D01*
X188611Y328366D01*
Y328379D01*
Y328406D01*
Y328447D01*
X188624Y328500D01*
X188651Y328662D01*
X188691Y328850D01*
X188772Y329079D01*
X188880Y329307D01*
X189041Y329549D01*
X189149Y329657D01*
X189256Y329765D01*
X189270Y329778D01*
X189283Y329791D01*
X189323Y329818D01*
X189377Y329859D01*
X189458Y329899D01*
X189539Y329953D01*
X189646Y330007D01*
X189754Y330061D01*
X189888Y330114D01*
X190050Y330155D01*
X190211Y330208D01*
X190400Y330249D01*
X190601Y330289D01*
X190816Y330316D01*
X191045Y330343D01*
X191516D01*
X191623Y330329D01*
D02*
G37*
G36*
X138160Y330329D02*
X138294Y330316D01*
X138577Y330289D01*
X138886Y330235D01*
X139222Y330168D01*
X139518Y330060D01*
X139666Y329993D01*
X139787Y329912D01*
X139801D01*
X139814Y329899D01*
X139895Y329832D01*
X140002Y329738D01*
X140137Y329590D01*
X140285Y329415D01*
X140433Y329200D01*
X140567Y328958D01*
X140675Y328662D01*
X139074Y328366D01*
Y328379D01*
X139047Y328419D01*
X139021Y328487D01*
X138980Y328568D01*
X138926Y328662D01*
X138859Y328756D01*
X138778Y328850D01*
X138671Y328931D01*
X138657Y328944D01*
X138617Y328958D01*
X138550Y328998D01*
X138469Y329038D01*
X138348Y329065D01*
X138214Y329105D01*
X138052Y329119D01*
X137864Y329132D01*
X137756D01*
X137635Y329119D01*
X137487Y329105D01*
X137178Y329052D01*
X137030Y329011D01*
X136909Y328944D01*
X136895D01*
X136882Y328917D01*
X136815Y328850D01*
X136747Y328742D01*
X136734Y328675D01*
X136721Y328594D01*
Y328581D01*
Y328568D01*
X136747Y328487D01*
X136788Y328379D01*
X136828Y328339D01*
X136882Y328285D01*
X136895Y328272D01*
X136936Y328258D01*
X137030Y328218D01*
X137084Y328191D01*
X137164Y328164D01*
X137259Y328124D01*
X137366Y328097D01*
X137501Y328056D01*
X137649Y328003D01*
X137810Y327962D01*
X137998Y327908D01*
X138214Y327855D01*
X138456Y327801D01*
X138469D01*
X138509Y327787D01*
X138590Y327774D01*
X138671Y327747D01*
X138792Y327720D01*
X138913Y327680D01*
X139209Y327599D01*
X139518Y327491D01*
X139828Y327357D01*
X140110Y327209D01*
X140244Y327128D01*
X140352Y327048D01*
X140379Y327021D01*
X140433Y326967D01*
X140527Y326859D01*
X140621Y326725D01*
X140715Y326550D01*
X140809Y326321D01*
X140863Y326079D01*
X140890Y325783D01*
Y325770D01*
Y325743D01*
Y325703D01*
X140877Y325635D01*
X140863Y325568D01*
X140850Y325474D01*
X140796Y325272D01*
X140715Y325030D01*
X140581Y324775D01*
X140500Y324654D01*
X140392Y324519D01*
X140285Y324398D01*
X140150Y324277D01*
X140137D01*
X140123Y324250D01*
X140070Y324223D01*
X140016Y324183D01*
X139935Y324129D01*
X139841Y324075D01*
X139733Y324021D01*
X139612Y323968D01*
X139464Y323900D01*
X139303Y323847D01*
X139128Y323793D01*
X138926Y323739D01*
X138725Y323699D01*
X138496Y323672D01*
X138240Y323658D01*
X137985Y323645D01*
X137864D01*
X137770Y323658D01*
X137662D01*
X137528Y323672D01*
X137393Y323685D01*
X137232Y323712D01*
X136909Y323779D01*
X136559Y323860D01*
X136223Y323994D01*
X135914Y324169D01*
X135900D01*
X135887Y324196D01*
X135846Y324223D01*
X135793Y324264D01*
X135658Y324384D01*
X135510Y324546D01*
X135349Y324748D01*
X135187Y325003D01*
X135039Y325286D01*
X134932Y325608D01*
X136626Y325864D01*
Y325837D01*
X136653Y325783D01*
X136680Y325689D01*
X136721Y325582D01*
X136774Y325461D01*
X136855Y325340D01*
X136949Y325218D01*
X137057Y325111D01*
X137070Y325097D01*
X137124Y325071D01*
X137191Y325030D01*
X137299Y324990D01*
X137433Y324949D01*
X137595Y324909D01*
X137770Y324882D01*
X137985Y324869D01*
X138092D01*
X138214Y324882D01*
X138348Y324896D01*
X138509Y324923D01*
X138671Y324963D01*
X138832Y325017D01*
X138967Y325097D01*
X138980Y325111D01*
X139007Y325124D01*
X139034Y325165D01*
X139088Y325218D01*
X139155Y325366D01*
X139182Y325461D01*
X139195Y325555D01*
Y325568D01*
Y325595D01*
X139182Y325676D01*
X139141Y325770D01*
X139074Y325877D01*
X139047Y325904D01*
X139007Y325918D01*
X138953Y325958D01*
X138873Y325985D01*
X138778Y326026D01*
X138644Y326066D01*
X138496Y326106D01*
X138469D01*
X138402Y326133D01*
X138308Y326147D01*
X138173Y326187D01*
X138012Y326227D01*
X137823Y326268D01*
X137622Y326321D01*
X137407Y326375D01*
X136963Y326496D01*
X136747Y326564D01*
X136532Y326644D01*
X136344Y326711D01*
X136169Y326779D01*
X136021Y326859D01*
X135900Y326927D01*
X135887D01*
X135873Y326954D01*
X135779Y327021D01*
X135658Y327142D01*
X135523Y327303D01*
X135389Y327505D01*
X135268Y327761D01*
X135174Y328043D01*
X135160Y328204D01*
X135147Y328366D01*
Y328379D01*
Y328406D01*
Y328447D01*
X135160Y328500D01*
X135187Y328662D01*
X135228Y328850D01*
X135308Y329079D01*
X135416Y329307D01*
X135577Y329549D01*
X135685Y329657D01*
X135793Y329765D01*
X135806Y329778D01*
X135819Y329791D01*
X135860Y329818D01*
X135914Y329859D01*
X135994Y329899D01*
X136075Y329953D01*
X136182Y330007D01*
X136290Y330060D01*
X136425Y330114D01*
X136586Y330155D01*
X136747Y330208D01*
X136936Y330249D01*
X137137Y330289D01*
X137353Y330316D01*
X137581Y330343D01*
X138052D01*
X138160Y330329D01*
D02*
G37*
G36*
X108005Y330329D02*
X108139Y330316D01*
X108422Y330289D01*
X108731Y330235D01*
X109067Y330168D01*
X109363Y330060D01*
X109511Y329993D01*
X109632Y329912D01*
X109646D01*
X109659Y329899D01*
X109740Y329832D01*
X109847Y329738D01*
X109982Y329590D01*
X110130Y329415D01*
X110278Y329200D01*
X110412Y328958D01*
X110520Y328662D01*
X108919Y328366D01*
Y328379D01*
X108893Y328419D01*
X108866Y328487D01*
X108825Y328568D01*
X108771Y328662D01*
X108704Y328756D01*
X108624Y328850D01*
X108516Y328931D01*
X108502Y328944D01*
X108462Y328958D01*
X108395Y328998D01*
X108314Y329038D01*
X108193Y329065D01*
X108059Y329105D01*
X107897Y329119D01*
X107709Y329132D01*
X107601D01*
X107480Y329119D01*
X107332Y329105D01*
X107023Y329052D01*
X106875Y329011D01*
X106754Y328944D01*
X106740D01*
X106727Y328917D01*
X106660Y328850D01*
X106593Y328742D01*
X106579Y328675D01*
X106566Y328594D01*
Y328581D01*
Y328568D01*
X106593Y328487D01*
X106633Y328379D01*
X106673Y328339D01*
X106727Y328285D01*
X106740Y328272D01*
X106781Y328258D01*
X106875Y328218D01*
X106929Y328191D01*
X107009Y328164D01*
X107104Y328124D01*
X107211Y328097D01*
X107346Y328056D01*
X107494Y328003D01*
X107655Y327962D01*
X107843Y327908D01*
X108059Y327855D01*
X108301Y327801D01*
X108314D01*
X108354Y327787D01*
X108435Y327774D01*
X108516Y327747D01*
X108637Y327720D01*
X108758Y327680D01*
X109054Y327599D01*
X109363Y327491D01*
X109673Y327357D01*
X109955Y327209D01*
X110090Y327128D01*
X110197Y327048D01*
X110224Y327021D01*
X110278Y326967D01*
X110372Y326859D01*
X110466Y326725D01*
X110560Y326550D01*
X110654Y326321D01*
X110708Y326079D01*
X110735Y325783D01*
Y325770D01*
Y325743D01*
Y325703D01*
X110722Y325635D01*
X110708Y325568D01*
X110695Y325474D01*
X110641Y325272D01*
X110560Y325030D01*
X110426Y324775D01*
X110345Y324654D01*
X110238Y324519D01*
X110130Y324398D01*
X109995Y324277D01*
X109982D01*
X109968Y324250D01*
X109915Y324223D01*
X109861Y324183D01*
X109780Y324129D01*
X109686Y324075D01*
X109578Y324021D01*
X109457Y323968D01*
X109309Y323900D01*
X109148Y323847D01*
X108973Y323793D01*
X108771Y323739D01*
X108570Y323699D01*
X108341Y323672D01*
X108086Y323658D01*
X107830Y323645D01*
X107709D01*
X107615Y323658D01*
X107507D01*
X107373Y323672D01*
X107238Y323685D01*
X107077Y323712D01*
X106754Y323779D01*
X106404Y323860D01*
X106068Y323994D01*
X105759Y324169D01*
X105745D01*
X105732Y324196D01*
X105691Y324223D01*
X105638Y324264D01*
X105503Y324384D01*
X105355Y324546D01*
X105194Y324748D01*
X105032Y325003D01*
X104884Y325286D01*
X104777Y325608D01*
X106472Y325864D01*
Y325837D01*
X106498Y325783D01*
X106525Y325689D01*
X106566Y325582D01*
X106619Y325461D01*
X106700Y325340D01*
X106794Y325218D01*
X106902Y325111D01*
X106915Y325097D01*
X106969Y325071D01*
X107036Y325030D01*
X107144Y324990D01*
X107279Y324949D01*
X107440Y324909D01*
X107615Y324882D01*
X107830Y324869D01*
X107938D01*
X108059Y324882D01*
X108193Y324896D01*
X108354Y324922D01*
X108516Y324963D01*
X108677Y325017D01*
X108812Y325097D01*
X108825Y325111D01*
X108852Y325124D01*
X108879Y325165D01*
X108933Y325218D01*
X109000Y325366D01*
X109027Y325461D01*
X109040Y325555D01*
Y325568D01*
Y325595D01*
X109027Y325676D01*
X108987Y325770D01*
X108919Y325877D01*
X108893Y325904D01*
X108852Y325918D01*
X108798Y325958D01*
X108718Y325985D01*
X108624Y326025D01*
X108489Y326066D01*
X108341Y326106D01*
X108314D01*
X108247Y326133D01*
X108153Y326147D01*
X108018Y326187D01*
X107857Y326227D01*
X107668Y326268D01*
X107467Y326321D01*
X107252Y326375D01*
X106808Y326496D01*
X106593Y326563D01*
X106377Y326644D01*
X106189Y326711D01*
X106014Y326779D01*
X105866Y326859D01*
X105745Y326927D01*
X105732D01*
X105718Y326954D01*
X105624Y327021D01*
X105503Y327142D01*
X105369Y327303D01*
X105234Y327505D01*
X105113Y327761D01*
X105019Y328043D01*
X105005Y328204D01*
X104992Y328366D01*
Y328379D01*
Y328406D01*
Y328446D01*
X105005Y328500D01*
X105032Y328662D01*
X105073Y328850D01*
X105153Y329079D01*
X105261Y329307D01*
X105422Y329549D01*
X105530Y329657D01*
X105638Y329765D01*
X105651Y329778D01*
X105665Y329791D01*
X105705Y329818D01*
X105759Y329859D01*
X105839Y329899D01*
X105920Y329953D01*
X106028Y330007D01*
X106135Y330060D01*
X106270Y330114D01*
X106431Y330155D01*
X106593Y330208D01*
X106781Y330249D01*
X106983Y330289D01*
X107198Y330316D01*
X107426Y330343D01*
X107897D01*
X108005Y330329D01*
D02*
G37*
G36*
X163109Y330329D02*
X163217D01*
X163325Y330316D01*
X163594Y330276D01*
X163890Y330222D01*
X164199Y330128D01*
X164495Y330007D01*
X164777Y329832D01*
X164791D01*
X164804Y329805D01*
X164898Y329738D01*
X165019Y329617D01*
X165167Y329455D01*
X165329Y329240D01*
X165504Y328984D01*
X165652Y328675D01*
X165786Y328312D01*
X164118Y328016D01*
Y328043D01*
X164105Y328097D01*
X164078Y328177D01*
X164038Y328285D01*
X163984Y328406D01*
X163916Y328527D01*
X163836Y328648D01*
X163728Y328756D01*
X163715Y328769D01*
X163674Y328796D01*
X163607Y328836D01*
X163526Y328890D01*
X163405Y328931D01*
X163271Y328971D01*
X163123Y328998D01*
X162948Y329011D01*
X162840D01*
X162733Y328984D01*
X162585Y328958D01*
X162424Y328904D01*
X162262Y328823D01*
X162087Y328715D01*
X161939Y328568D01*
X161926Y328541D01*
X161885Y328487D01*
X161818Y328379D01*
X161751Y328218D01*
X161684Y328016D01*
X161617Y327761D01*
X161576Y327465D01*
X161563Y327290D01*
Y327101D01*
Y327088D01*
Y327048D01*
Y326994D01*
Y326913D01*
X161576Y326819D01*
X161590Y326711D01*
X161617Y326469D01*
X161657Y326200D01*
X161724Y325945D01*
X161818Y325689D01*
X161872Y325582D01*
X161939Y325487D01*
X161953Y325474D01*
X162006Y325420D01*
X162087Y325340D01*
X162208Y325259D01*
X162356Y325178D01*
X162531Y325097D01*
X162733Y325044D01*
X162961Y325030D01*
X163042D01*
X163136Y325044D01*
X163244Y325071D01*
X163365Y325097D01*
X163499Y325138D01*
X163634Y325205D01*
X163755Y325299D01*
X163768Y325313D01*
X163809Y325353D01*
X163863Y325420D01*
X163930Y325514D01*
X163997Y325649D01*
X164078Y325810D01*
X164145Y326012D01*
X164199Y326241D01*
X165867Y325958D01*
Y325945D01*
X165853Y325904D01*
X165840Y325851D01*
X165813Y325770D01*
X165786Y325676D01*
X165746Y325568D01*
X165638Y325313D01*
X165504Y325030D01*
X165329Y324734D01*
X165113Y324465D01*
X164992Y324344D01*
X164858Y324223D01*
X164845D01*
X164831Y324196D01*
X164777Y324169D01*
X164723Y324129D01*
X164656Y324089D01*
X164562Y324035D01*
X164454Y323994D01*
X164347Y323941D01*
X164212Y323887D01*
X164064Y323833D01*
X163903Y323779D01*
X163728Y323739D01*
X163338Y323672D01*
X163123Y323658D01*
X162894Y323645D01*
X162760D01*
X162666Y323658D01*
X162545Y323672D01*
X162410Y323685D01*
X162262Y323712D01*
X162087Y323752D01*
X161738Y323860D01*
X161549Y323927D01*
X161361Y324008D01*
X161173Y324115D01*
X160998Y324237D01*
X160823Y324371D01*
X160661Y324519D01*
X160648Y324533D01*
X160621Y324559D01*
X160581Y324613D01*
X160527Y324680D01*
X160473Y324775D01*
X160392Y324882D01*
X160325Y325017D01*
X160245Y325165D01*
X160164Y325326D01*
X160097Y325514D01*
X160016Y325716D01*
X159962Y325931D01*
X159908Y326173D01*
X159868Y326429D01*
X159841Y326698D01*
X159828Y326980D01*
Y326994D01*
Y327048D01*
Y327128D01*
X159841Y327249D01*
X159854Y327370D01*
X159868Y327532D01*
X159895Y327707D01*
X159935Y327882D01*
X160029Y328285D01*
X160097Y328487D01*
X160177Y328689D01*
X160272Y328904D01*
X160392Y329092D01*
X160514Y329280D01*
X160661Y329455D01*
X160675Y329469D01*
X160702Y329496D01*
X160742Y329536D01*
X160810Y329590D01*
X160904Y329657D01*
X160998Y329738D01*
X161119Y329818D01*
X161253Y329899D01*
X161415Y329980D01*
X161576Y330060D01*
X161764Y330141D01*
X161966Y330208D01*
X162181Y330262D01*
X162410Y330303D01*
X162666Y330329D01*
X162921Y330343D01*
X163029D01*
X163109Y330329D01*
D02*
G37*
G36*
X133775Y323806D02*
X132201D01*
Y324761D01*
X132188Y324734D01*
X132134Y324680D01*
X132067Y324586D01*
X131959Y324465D01*
X131825Y324331D01*
X131663Y324196D01*
X131475Y324062D01*
X131273Y323941D01*
X131246Y323927D01*
X131179Y323900D01*
X131058Y323847D01*
X130910Y323793D01*
X130735Y323739D01*
X130534Y323685D01*
X130305Y323658D01*
X130076Y323645D01*
X129969D01*
X129848Y323658D01*
X129686Y323685D01*
X129511Y323712D01*
X129323Y323766D01*
X129121Y323833D01*
X128919Y323927D01*
X128893Y323941D01*
X128839Y323981D01*
X128745Y324048D01*
X128637Y324129D01*
X128516Y324250D01*
X128395Y324384D01*
X128274Y324546D01*
X128180Y324721D01*
X128166Y324748D01*
X128153Y324815D01*
X128112Y324936D01*
X128072Y325097D01*
X128032Y325299D01*
X128005Y325541D01*
X127978Y325824D01*
X127965Y326147D01*
Y330208D01*
X129659D01*
Y327249D01*
Y327236D01*
Y327196D01*
Y327128D01*
Y327034D01*
Y326927D01*
Y326805D01*
X129673Y326536D01*
Y326241D01*
X129700Y325972D01*
Y325851D01*
X129713Y325743D01*
X129727Y325649D01*
X129740Y325582D01*
Y325568D01*
X129753Y325528D01*
X129780Y325474D01*
X129821Y325407D01*
X129928Y325259D01*
X129996Y325178D01*
X130076Y325111D01*
X130090Y325097D01*
X130117Y325084D01*
X130184Y325057D01*
X130251Y325030D01*
X130345Y324990D01*
X130453Y324963D01*
X130574Y324949D01*
X130708Y324936D01*
X130776D01*
X130856Y324949D01*
X130964Y324963D01*
X131085Y324990D01*
X131219Y325030D01*
X131341Y325084D01*
X131475Y325165D01*
X131489Y325178D01*
X131529Y325205D01*
X131596Y325259D01*
X131663Y325326D01*
X131744Y325420D01*
X131825Y325514D01*
X131892Y325635D01*
X131946Y325756D01*
Y325770D01*
X131973Y325837D01*
Y325877D01*
X131986Y325945D01*
X132000Y326026D01*
X132013Y326106D01*
X132027Y326214D01*
X132040Y326335D01*
X132053Y326483D01*
Y326644D01*
X132067Y326819D01*
X132080Y327021D01*
Y327249D01*
Y327491D01*
Y330208D01*
X133775D01*
Y323806D01*
D02*
G37*
G36*
X245760Y323806D02*
X244065D01*
Y330182D01*
X244052Y330168D01*
X244025Y330141D01*
X243971Y330101D01*
X243904Y330034D01*
X243809Y329966D01*
X243702Y329886D01*
X243581Y329791D01*
X243433Y329697D01*
X243285Y329590D01*
X243110Y329482D01*
X242747Y329280D01*
X242330Y329079D01*
X241873Y328904D01*
Y330437D01*
X241886D01*
X241899Y330451D01*
X241940Y330464D01*
X241994Y330477D01*
X242128Y330531D01*
X242303Y330625D01*
X242518Y330733D01*
X242760Y330881D01*
X243029Y331042D01*
X243312Y331258D01*
X243325Y331271D01*
X243352Y331284D01*
X243392Y331325D01*
X243433Y331365D01*
X243567Y331486D01*
X243742Y331661D01*
X243917Y331863D01*
X244092Y332105D01*
X244253Y332374D01*
X244374Y332670D01*
X245760D01*
Y323806D01*
D02*
G37*
G36*
X218792Y323806D02*
X217098D01*
Y332643D01*
X218792D01*
Y323806D01*
D02*
G37*
G36*
X215363D02*
X213668D01*
Y332643D01*
X215363D01*
Y323806D01*
D02*
G37*
G36*
X200958Y329375D02*
X200971Y329388D01*
X200998Y329415D01*
X201038Y329469D01*
X201106Y329522D01*
X201186Y329603D01*
X201267Y329684D01*
X201375Y329765D01*
X201509Y329859D01*
X201792Y330034D01*
X202114Y330195D01*
X202303Y330249D01*
X202491Y330303D01*
X202693Y330329D01*
X202894Y330343D01*
X202989D01*
X203110Y330329D01*
X203244Y330316D01*
X203406Y330289D01*
X203594Y330249D01*
X203769Y330195D01*
X203944Y330114D01*
X203971Y330101D01*
X204024Y330074D01*
X204105Y330034D01*
X204213Y329966D01*
X204320Y329886D01*
X204441Y329791D01*
X204562Y329684D01*
X204657Y329563D01*
X204670Y329549D01*
X204697Y329509D01*
X204737Y329428D01*
X204791Y329348D01*
X204845Y329227D01*
X204899Y329105D01*
X204939Y328958D01*
X204979Y328810D01*
Y328796D01*
X204993Y328729D01*
X205006Y328635D01*
X205033Y328500D01*
X205047Y328325D01*
X205060Y328110D01*
X205073Y327841D01*
Y327545D01*
Y323806D01*
X203379D01*
Y327182D01*
Y327196D01*
Y327222D01*
Y327276D01*
Y327344D01*
Y327518D01*
X203365Y327720D01*
X203352Y327935D01*
X203338Y328137D01*
X203311Y328312D01*
X203285Y328393D01*
X203271Y328447D01*
Y328460D01*
X203258Y328500D01*
X203231Y328541D01*
X203190Y328608D01*
X203096Y328756D01*
X203016Y328823D01*
X202935Y328890D01*
X202921Y328904D01*
X202894Y328917D01*
X202841Y328944D01*
X202773Y328971D01*
X202679Y328998D01*
X202572Y329025D01*
X202464Y329052D01*
X202262D01*
X202182Y329038D01*
X202074Y329025D01*
X201967Y328998D01*
X201832Y328958D01*
X201711Y328904D01*
X201576Y328836D01*
X201563Y328823D01*
X201523Y328796D01*
X201469Y328756D01*
X201402Y328689D01*
X201321Y328594D01*
X201240Y328487D01*
X201173Y328366D01*
X201106Y328218D01*
Y328204D01*
X201079Y328137D01*
X201065Y328043D01*
X201038Y327922D01*
X201011Y327747D01*
X200985Y327532D01*
X200971Y327290D01*
X200958Y327007D01*
Y323806D01*
X199263D01*
Y332643D01*
X200958D01*
Y329375D01*
D02*
G37*
G36*
X158456Y323806D02*
X156761D01*
Y325501D01*
X158456D01*
Y323806D01*
D02*
G37*
G36*
X155039D02*
X153345D01*
Y330208D01*
X155039D01*
Y323806D01*
D02*
G37*
G36*
X114246D02*
X112551D01*
Y325501D01*
X114246D01*
Y323806D01*
D02*
G37*
G36*
X83781Y329375D02*
X83795Y329388D01*
X83822Y329415D01*
X83862Y329469D01*
X83929Y329522D01*
X84010Y329603D01*
X84091Y329684D01*
X84198Y329765D01*
X84333Y329859D01*
X84615Y330033D01*
X84938Y330195D01*
X85126Y330249D01*
X85315Y330303D01*
X85516Y330329D01*
X85718Y330343D01*
X85812D01*
X85933Y330329D01*
X86068Y330316D01*
X86229Y330289D01*
X86418Y330249D01*
X86592Y330195D01*
X86767Y330114D01*
X86794Y330101D01*
X86848Y330074D01*
X86929Y330033D01*
X87036Y329966D01*
X87144Y329886D01*
X87265Y329791D01*
X87386Y329684D01*
X87480Y329563D01*
X87493Y329549D01*
X87520Y329509D01*
X87561Y329428D01*
X87615Y329348D01*
X87668Y329226D01*
X87722Y329105D01*
X87762Y328958D01*
X87803Y328810D01*
Y328796D01*
X87816Y328729D01*
X87830Y328635D01*
X87857Y328500D01*
X87870Y328325D01*
X87884Y328110D01*
X87897Y327841D01*
Y327545D01*
Y323806D01*
X86202D01*
Y327182D01*
Y327196D01*
Y327222D01*
Y327276D01*
Y327344D01*
Y327518D01*
X86189Y327720D01*
X86175Y327935D01*
X86162Y328137D01*
X86135Y328312D01*
X86108Y328393D01*
X86095Y328446D01*
Y328460D01*
X86081Y328500D01*
X86054Y328541D01*
X86014Y328608D01*
X85920Y328756D01*
X85839Y328823D01*
X85759Y328890D01*
X85745Y328904D01*
X85718Y328917D01*
X85664Y328944D01*
X85597Y328971D01*
X85503Y328998D01*
X85395Y329025D01*
X85288Y329052D01*
X85086D01*
X85005Y329038D01*
X84898Y329025D01*
X84790Y328998D01*
X84656Y328958D01*
X84535Y328904D01*
X84400Y328836D01*
X84387Y328823D01*
X84346Y328796D01*
X84292Y328756D01*
X84225Y328689D01*
X84145Y328594D01*
X84064Y328487D01*
X83996Y328366D01*
X83929Y328218D01*
Y328204D01*
X83902Y328137D01*
X83889Y328043D01*
X83862Y327922D01*
X83835Y327747D01*
X83808Y327532D01*
X83795Y327290D01*
X83781Y327007D01*
Y323806D01*
X82087D01*
Y332643D01*
X83781D01*
Y329375D01*
D02*
G37*
G36*
X196196Y323658D02*
X194946D01*
X197125Y332791D01*
X198402D01*
X196196Y323658D01*
D02*
G37*
G36*
X185907D02*
X184656D01*
X186835Y332791D01*
X188113D01*
X185907Y323658D01*
D02*
G37*
G36*
X120110Y323658D02*
X118859D01*
X121038Y332791D01*
X122316D01*
X120110Y323658D01*
D02*
G37*
G36*
X116680D02*
X115429D01*
X117608Y332791D01*
X118886D01*
X116680Y323658D01*
D02*
G37*
G36*
X237609Y332656D02*
X237717D01*
X237838Y332643D01*
X237972Y332616D01*
X238120Y332589D01*
X238429Y332508D01*
X238752Y332401D01*
X239075Y332239D01*
X239223Y332132D01*
X239357Y332024D01*
X239371Y332011D01*
X239384Y331997D01*
X239425Y331957D01*
X239465Y331903D01*
X239573Y331769D01*
X239707Y331580D01*
X239842Y331338D01*
X239949Y331056D01*
X240030Y330746D01*
X240043Y330572D01*
X240057Y330383D01*
Y330356D01*
Y330276D01*
X240043Y330168D01*
X240017Y330020D01*
X239976Y329845D01*
X239922Y329670D01*
X239842Y329482D01*
X239734Y329294D01*
X239721Y329267D01*
X239680Y329213D01*
X239600Y329132D01*
X239505Y329025D01*
X239371Y328904D01*
X239223Y328783D01*
X239035Y328675D01*
X238833Y328568D01*
X238846D01*
X238860Y328554D01*
X238900Y328541D01*
X238954Y328514D01*
X239089Y328447D01*
X239250Y328352D01*
X239425Y328231D01*
X239613Y328083D01*
X239788Y327908D01*
X239949Y327707D01*
X239963Y327680D01*
X240017Y327613D01*
X240070Y327491D01*
X240151Y327330D01*
X240218Y327142D01*
X240285Y326913D01*
X240326Y326658D01*
X240339Y326389D01*
Y326375D01*
Y326335D01*
Y326268D01*
X240326Y326187D01*
X240312Y326079D01*
X240299Y325958D01*
X240272Y325824D01*
X240245Y325676D01*
X240151Y325366D01*
X240084Y325205D01*
X240003Y325030D01*
X239909Y324869D01*
X239815Y324707D01*
X239680Y324546D01*
X239546Y324398D01*
X239532Y324385D01*
X239505Y324371D01*
X239465Y324331D01*
X239398Y324277D01*
X239331Y324223D01*
X239236Y324156D01*
X239115Y324089D01*
X238994Y324021D01*
X238860Y323954D01*
X238698Y323887D01*
X238524Y323820D01*
X238349Y323766D01*
X238147Y323712D01*
X237932Y323672D01*
X237717Y323658D01*
X237474Y323645D01*
X237353D01*
X237273Y323658D01*
X237165D01*
X237044Y323685D01*
X236910Y323699D01*
X236775Y323726D01*
X236452Y323806D01*
X236116Y323914D01*
X235780Y324075D01*
X235618Y324169D01*
X235470Y324277D01*
X235457Y324290D01*
X235430Y324317D01*
X235390Y324358D01*
X235322Y324412D01*
X235255Y324492D01*
X235174Y324586D01*
X235094Y324694D01*
X235000Y324815D01*
X234919Y324950D01*
X234825Y325097D01*
X234744Y325272D01*
X234677Y325447D01*
X234610Y325649D01*
X234569Y325864D01*
X234542Y326079D01*
X234529Y326321D01*
Y326335D01*
Y326348D01*
Y326389D01*
Y326442D01*
X234542Y326577D01*
X234569Y326752D01*
X234610Y326954D01*
X234677Y327182D01*
X234758Y327411D01*
X234879Y327640D01*
Y327653D01*
X234892Y327666D01*
X234946Y327734D01*
X235027Y327855D01*
X235148Y327989D01*
X235309Y328137D01*
X235497Y328285D01*
X235726Y328433D01*
X235995Y328568D01*
X235981D01*
X235968Y328581D01*
X235887Y328621D01*
X235780Y328675D01*
X235632Y328769D01*
X235484Y328863D01*
X235322Y328998D01*
X235174Y329146D01*
X235053Y329321D01*
X235040Y329348D01*
X235013Y329401D01*
X234959Y329509D01*
X234906Y329630D01*
X234852Y329791D01*
X234798Y329980D01*
X234771Y330168D01*
X234758Y330383D01*
Y330397D01*
Y330424D01*
Y330477D01*
X234771Y330545D01*
X234785Y330639D01*
X234798Y330733D01*
X234838Y330962D01*
X234919Y331217D01*
X235053Y331500D01*
X235121Y331634D01*
X235215Y331769D01*
X235322Y331903D01*
X235443Y332024D01*
X235457Y332038D01*
X235470Y332051D01*
X235511Y332078D01*
X235565Y332132D01*
X235645Y332172D01*
X235726Y332226D01*
X235834Y332293D01*
X235941Y332347D01*
X236076Y332414D01*
X236224Y332468D01*
X236385Y332522D01*
X236560Y332576D01*
X236748Y332616D01*
X236950Y332643D01*
X237179Y332656D01*
X237407Y332670D01*
X237528D01*
X237609Y332656D01*
D02*
G37*
G36*
X223191Y330329D02*
X223312Y330316D01*
X223446Y330289D01*
X223607Y330262D01*
X223769Y330222D01*
X223944Y330168D01*
X224132Y330114D01*
X224320Y330034D01*
X224509Y329939D01*
X224697Y329832D01*
X224872Y329697D01*
X225047Y329563D01*
X225208Y329388D01*
X225221Y329375D01*
X225248Y329348D01*
X225289Y329294D01*
X225343Y329213D01*
X225396Y329105D01*
X225464Y328984D01*
X225544Y328850D01*
X225612Y328675D01*
X225692Y328487D01*
X225760Y328272D01*
X225827Y328029D01*
X225894Y327774D01*
X225934Y327491D01*
X225975Y327196D01*
X226002Y326859D01*
Y326510D01*
X221765Y326510D01*
Y326496D01*
Y326483D01*
Y326442D01*
X221778Y326389D01*
X221792Y326241D01*
X221819Y326079D01*
X221872Y325877D01*
X221940Y325689D01*
X222034Y325501D01*
X222168Y325326D01*
X222182Y325313D01*
X222236Y325259D01*
X222316Y325192D01*
X222437Y325124D01*
X222572Y325044D01*
X222747Y324976D01*
X222935Y324923D01*
X223137Y324909D01*
X223204D01*
X223285Y324923D01*
X223379Y324936D01*
X223473Y324963D01*
X223594Y325003D01*
X223702Y325057D01*
X223809Y325124D01*
X223823Y325138D01*
X223850Y325165D01*
X223903Y325219D01*
X223957Y325299D01*
X224025Y325393D01*
X224105Y325514D01*
X224172Y325649D01*
X224226Y325824D01*
X225907Y325541D01*
Y325528D01*
X225894Y325501D01*
X225867Y325447D01*
X225840Y325393D01*
X225813Y325313D01*
X225760Y325219D01*
X225652Y325017D01*
X225504Y324788D01*
X225329Y324559D01*
X225114Y324331D01*
X224872Y324129D01*
X224858D01*
X224845Y324102D01*
X224805Y324089D01*
X224751Y324048D01*
X224683Y324021D01*
X224589Y323981D01*
X224388Y323887D01*
X224132Y323793D01*
X223836Y323726D01*
X223500Y323672D01*
X223123Y323645D01*
X223056D01*
X222962Y323658D01*
X222854D01*
X222706Y323685D01*
X222558Y323699D01*
X222384Y323739D01*
X222195Y323779D01*
X221993Y323833D01*
X221792Y323914D01*
X221577Y323994D01*
X221375Y324102D01*
X221173Y324223D01*
X220985Y324371D01*
X220810Y324546D01*
X220649Y324734D01*
Y324748D01*
X220622Y324775D01*
X220595Y324828D01*
X220554Y324896D01*
X220501Y324976D01*
X220447Y325084D01*
X220393Y325205D01*
X220339Y325340D01*
X220285Y325487D01*
X220232Y325662D01*
X220178Y325837D01*
X220124Y326039D01*
X220057Y326469D01*
X220043Y326698D01*
X220030Y326940D01*
Y326954D01*
Y327007D01*
Y327088D01*
X220043Y327209D01*
X220057Y327330D01*
X220070Y327491D01*
X220097Y327666D01*
X220137Y327841D01*
X220232Y328245D01*
X220299Y328447D01*
X220379Y328662D01*
X220474Y328863D01*
X220581Y329065D01*
X220702Y329254D01*
X220850Y329428D01*
X220864Y329442D01*
X220891Y329469D01*
X220931Y329509D01*
X220998Y329576D01*
X221079Y329644D01*
X221186Y329724D01*
X221294Y329805D01*
X221429Y329886D01*
X221577Y329966D01*
X221725Y330061D01*
X221899Y330128D01*
X222088Y330195D01*
X222289Y330262D01*
X222491Y330303D01*
X222720Y330329D01*
X222949Y330343D01*
X223083D01*
X223191Y330329D01*
D02*
G37*
G36*
X209472D02*
X209593Y330316D01*
X209727Y330289D01*
X209889Y330262D01*
X210050Y330222D01*
X210225Y330168D01*
X210413Y330114D01*
X210601Y330034D01*
X210790Y329939D01*
X210978Y329832D01*
X211153Y329697D01*
X211328Y329563D01*
X211489Y329388D01*
X211503Y329375D01*
X211529Y329348D01*
X211570Y329294D01*
X211624Y329213D01*
X211677Y329105D01*
X211745Y328984D01*
X211825Y328850D01*
X211893Y328675D01*
X211973Y328487D01*
X212040Y328272D01*
X212108Y328029D01*
X212175Y327774D01*
X212215Y327491D01*
X212256Y327196D01*
X212283Y326859D01*
Y326510D01*
X208046D01*
Y326496D01*
Y326483D01*
Y326442D01*
X208059Y326389D01*
X208073Y326241D01*
X208100Y326079D01*
X208154Y325877D01*
X208221Y325689D01*
X208315Y325501D01*
X208449Y325326D01*
X208463Y325313D01*
X208517Y325259D01*
X208597Y325192D01*
X208718Y325124D01*
X208853Y325044D01*
X209028Y324976D01*
X209216Y324923D01*
X209418Y324909D01*
X209485D01*
X209566Y324923D01*
X209660Y324936D01*
X209754Y324963D01*
X209875Y325003D01*
X209983Y325057D01*
X210090Y325124D01*
X210104Y325138D01*
X210131Y325165D01*
X210184Y325219D01*
X210238Y325299D01*
X210306Y325393D01*
X210386Y325514D01*
X210453Y325649D01*
X210507Y325824D01*
X212189Y325541D01*
Y325528D01*
X212175Y325501D01*
X212148Y325447D01*
X212121Y325393D01*
X212094Y325313D01*
X212040Y325219D01*
X211933Y325017D01*
X211785Y324788D01*
X211610Y324559D01*
X211395Y324331D01*
X211153Y324129D01*
X211139D01*
X211126Y324102D01*
X211086Y324089D01*
X211032Y324048D01*
X210964Y324021D01*
X210870Y323981D01*
X210669Y323887D01*
X210413Y323793D01*
X210117Y323726D01*
X209781Y323672D01*
X209404Y323645D01*
X209337D01*
X209243Y323658D01*
X209135D01*
X208987Y323685D01*
X208839Y323699D01*
X208665Y323739D01*
X208476Y323779D01*
X208275Y323833D01*
X208073Y323914D01*
X207858Y323994D01*
X207656Y324102D01*
X207454Y324223D01*
X207266Y324371D01*
X207091Y324546D01*
X206929Y324734D01*
Y324748D01*
X206903Y324775D01*
X206876Y324828D01*
X206835Y324896D01*
X206782Y324976D01*
X206728Y325084D01*
X206674Y325205D01*
X206620Y325340D01*
X206566Y325487D01*
X206513Y325662D01*
X206459Y325837D01*
X206405Y326039D01*
X206338Y326469D01*
X206324Y326698D01*
X206311Y326940D01*
Y326954D01*
Y327007D01*
Y327088D01*
X206324Y327209D01*
X206338Y327330D01*
X206351Y327491D01*
X206378Y327666D01*
X206418Y327841D01*
X206513Y328245D01*
X206580Y328447D01*
X206661Y328662D01*
X206755Y328863D01*
X206862Y329065D01*
X206983Y329254D01*
X207131Y329428D01*
X207145Y329442D01*
X207172Y329469D01*
X207212Y329509D01*
X207279Y329576D01*
X207360Y329644D01*
X207468Y329724D01*
X207575Y329805D01*
X207710Y329886D01*
X207858Y329966D01*
X208005Y330061D01*
X208180Y330128D01*
X208369Y330195D01*
X208570Y330262D01*
X208772Y330303D01*
X209001Y330329D01*
X209229Y330343D01*
X209364D01*
X209472Y330329D01*
D02*
G37*
G36*
X170198D02*
X170319Y330316D01*
X170467Y330289D01*
X170615Y330262D01*
X170789Y330222D01*
X170978Y330168D01*
X171166Y330114D01*
X171368Y330034D01*
X171556Y329939D01*
X171758Y329832D01*
X171959Y329697D01*
X172148Y329563D01*
X172323Y329388D01*
X172336Y329375D01*
X172363Y329348D01*
X172403Y329294D01*
X172471Y329213D01*
X172538Y329132D01*
X172619Y329011D01*
X172699Y328890D01*
X172793Y328742D01*
X172874Y328568D01*
X172955Y328393D01*
X173036Y328191D01*
X173103Y327989D01*
X173170Y327761D01*
X173210Y327518D01*
X173237Y327276D01*
X173251Y327007D01*
Y326994D01*
Y326940D01*
Y326873D01*
X173237Y326765D01*
X173224Y326644D01*
X173197Y326496D01*
X173170Y326335D01*
X173130Y326160D01*
X173089Y325972D01*
X173022Y325783D01*
X172941Y325582D01*
X172861Y325380D01*
X172740Y325178D01*
X172619Y324976D01*
X172471Y324788D01*
X172309Y324600D01*
X172296Y324586D01*
X172269Y324559D01*
X172215Y324506D01*
X172148Y324452D01*
X172054Y324385D01*
X171946Y324304D01*
X171812Y324210D01*
X171664Y324129D01*
X171502Y324035D01*
X171327Y323941D01*
X171139Y323860D01*
X170924Y323793D01*
X170709Y323739D01*
X170467Y323685D01*
X170211Y323658D01*
X169956Y323645D01*
X169808D01*
X169727Y323658D01*
X169633Y323672D01*
X169418Y323699D01*
X169162Y323739D01*
X168879Y323806D01*
X168584Y323900D01*
X168288Y324035D01*
X168274D01*
X168247Y324048D01*
X168207Y324075D01*
X168153Y324116D01*
X168019Y324210D01*
X167844Y324331D01*
X167642Y324492D01*
X167440Y324694D01*
X167252Y324936D01*
X167077Y325205D01*
Y325218D01*
X167064Y325245D01*
X167037Y325286D01*
X167010Y325340D01*
X166983Y325420D01*
X166956Y325501D01*
X166916Y325608D01*
X166875Y325730D01*
X166808Y325998D01*
X166741Y326321D01*
X166687Y326684D01*
X166674Y327075D01*
Y327088D01*
Y327115D01*
Y327155D01*
X166687Y327222D01*
Y327290D01*
X166701Y327384D01*
X166727Y327599D01*
X166768Y327855D01*
X166849Y328124D01*
X166943Y328419D01*
X167077Y328715D01*
Y328729D01*
X167091Y328756D01*
X167118Y328796D01*
X167158Y328850D01*
X167252Y328984D01*
X167386Y329159D01*
X167548Y329361D01*
X167750Y329563D01*
X167978Y329751D01*
X168247Y329926D01*
X168261D01*
X168288Y329939D01*
X168328Y329966D01*
X168382Y329993D01*
X168449Y330020D01*
X168543Y330061D01*
X168745Y330141D01*
X169000Y330208D01*
X169296Y330276D01*
X169606Y330329D01*
X169956Y330343D01*
X170090D01*
X170198Y330329D01*
D02*
G37*
G36*
X145046Y330329D02*
X145167Y330316D01*
X145302Y330289D01*
X145463Y330262D01*
X145624Y330222D01*
X145799Y330168D01*
X145988Y330114D01*
X146176Y330034D01*
X146364Y329939D01*
X146553Y329832D01*
X146727Y329697D01*
X146902Y329563D01*
X147064Y329388D01*
X147077Y329375D01*
X147104Y329348D01*
X147144Y329294D01*
X147198Y329213D01*
X147252Y329105D01*
X147319Y328984D01*
X147400Y328850D01*
X147467Y328675D01*
X147548Y328487D01*
X147615Y328272D01*
X147682Y328029D01*
X147749Y327774D01*
X147790Y327491D01*
X147830Y327196D01*
X147857Y326859D01*
Y326510D01*
X143620D01*
Y326496D01*
Y326483D01*
Y326442D01*
X143634Y326389D01*
X143647Y326241D01*
X143674Y326079D01*
X143728Y325877D01*
X143795Y325689D01*
X143889Y325501D01*
X144024Y325326D01*
X144037Y325313D01*
X144091Y325259D01*
X144172Y325192D01*
X144293Y325124D01*
X144427Y325044D01*
X144602Y324976D01*
X144790Y324923D01*
X144992Y324909D01*
X145060D01*
X145140Y324923D01*
X145234Y324936D01*
X145328Y324963D01*
X145450Y325003D01*
X145557Y325057D01*
X145665Y325124D01*
X145678Y325138D01*
X145705Y325165D01*
X145759Y325218D01*
X145813Y325299D01*
X145880Y325393D01*
X145961Y325514D01*
X146028Y325649D01*
X146082Y325824D01*
X147763Y325541D01*
Y325528D01*
X147749Y325501D01*
X147723Y325447D01*
X147696Y325393D01*
X147669Y325313D01*
X147615Y325218D01*
X147507Y325017D01*
X147360Y324788D01*
X147185Y324559D01*
X146969Y324331D01*
X146727Y324129D01*
X146714D01*
X146700Y324102D01*
X146660Y324089D01*
X146606Y324048D01*
X146539Y324021D01*
X146445Y323981D01*
X146243Y323887D01*
X145988Y323793D01*
X145692Y323726D01*
X145355Y323672D01*
X144979Y323645D01*
X144912D01*
X144817Y323658D01*
X144710D01*
X144562Y323685D01*
X144414Y323699D01*
X144239Y323739D01*
X144051Y323779D01*
X143849Y323833D01*
X143647Y323914D01*
X143432Y323994D01*
X143230Y324102D01*
X143029Y324223D01*
X142840Y324371D01*
X142665Y324546D01*
X142504Y324734D01*
Y324748D01*
X142477Y324775D01*
X142450Y324828D01*
X142410Y324896D01*
X142356Y324976D01*
X142302Y325084D01*
X142248Y325205D01*
X142195Y325340D01*
X142141Y325487D01*
X142087Y325662D01*
X142033Y325837D01*
X141980Y326039D01*
X141912Y326469D01*
X141899Y326698D01*
X141885Y326940D01*
Y326954D01*
Y327007D01*
Y327088D01*
X141899Y327209D01*
X141912Y327330D01*
X141926Y327491D01*
X141953Y327666D01*
X141993Y327841D01*
X142087Y328245D01*
X142154Y328447D01*
X142235Y328662D01*
X142329Y328863D01*
X142437Y329065D01*
X142558Y329254D01*
X142706Y329428D01*
X142719Y329442D01*
X142746Y329469D01*
X142787Y329509D01*
X142854Y329576D01*
X142934Y329644D01*
X143042Y329724D01*
X143150Y329805D01*
X143284Y329886D01*
X143432Y329966D01*
X143580Y330060D01*
X143755Y330128D01*
X143943Y330195D01*
X144145Y330262D01*
X144347Y330303D01*
X144575Y330329D01*
X144804Y330343D01*
X144939D01*
X145046Y330329D01*
D02*
G37*
G36*
X95510Y330208D02*
X96666D01*
Y328863D01*
X95510D01*
Y326254D01*
Y326241D01*
Y326227D01*
Y326187D01*
Y326133D01*
Y325998D01*
Y325851D01*
X95523Y325689D01*
Y325541D01*
Y325420D01*
X95537Y325366D01*
Y325340D01*
Y325313D01*
X95564Y325259D01*
X95617Y325191D01*
X95685Y325124D01*
X95711Y325111D01*
X95765Y325084D01*
X95859Y325057D01*
X95967Y325044D01*
X96007D01*
X96061Y325057D01*
X96142Y325071D01*
X96236Y325084D01*
X96357Y325111D01*
X96492Y325151D01*
X96653Y325205D01*
X96801Y323887D01*
X96774Y323873D01*
X96693Y323847D01*
X96572Y323806D01*
X96411Y323766D01*
X96209Y323726D01*
X95981Y323685D01*
X95725Y323658D01*
X95456Y323645D01*
X95375D01*
X95294Y323658D01*
X95187D01*
X95052Y323685D01*
X94918Y323712D01*
X94770Y323739D01*
X94635Y323793D01*
X94622Y323806D01*
X94582Y323820D01*
X94514Y323847D01*
X94434Y323900D01*
X94259Y324021D01*
X94165Y324102D01*
X94098Y324183D01*
X94084Y324196D01*
X94071Y324223D01*
X94044Y324290D01*
X94003Y324358D01*
X93963Y324465D01*
X93923Y324573D01*
X93896Y324707D01*
X93869Y324855D01*
Y324869D01*
X93855Y324922D01*
Y325003D01*
X93842Y325111D01*
X93828Y325272D01*
Y325487D01*
X93815Y325743D01*
Y325891D01*
Y326052D01*
Y328863D01*
X93035D01*
Y330208D01*
X93815D01*
Y331473D01*
X95510Y332468D01*
Y330208D01*
D02*
G37*
G36*
X91408D02*
X92564D01*
Y328863D01*
X91408D01*
Y326254D01*
Y326241D01*
Y326227D01*
Y326187D01*
Y326133D01*
Y325998D01*
Y325851D01*
X91421Y325689D01*
Y325541D01*
Y325420D01*
X91434Y325366D01*
Y325340D01*
Y325313D01*
X91461Y325259D01*
X91515Y325191D01*
X91582Y325124D01*
X91609Y325111D01*
X91663Y325084D01*
X91757Y325057D01*
X91865Y325044D01*
X91905D01*
X91959Y325057D01*
X92040Y325071D01*
X92134Y325084D01*
X92255Y325111D01*
X92389Y325151D01*
X92551Y325205D01*
X92699Y323887D01*
X92672Y323873D01*
X92591Y323847D01*
X92470Y323806D01*
X92309Y323766D01*
X92107Y323726D01*
X91878Y323685D01*
X91623Y323658D01*
X91354Y323645D01*
X91273D01*
X91192Y323658D01*
X91085D01*
X90950Y323685D01*
X90816Y323712D01*
X90668Y323739D01*
X90533Y323793D01*
X90520Y323806D01*
X90479Y323820D01*
X90412Y323847D01*
X90332Y323900D01*
X90157Y324021D01*
X90062Y324102D01*
X89995Y324183D01*
X89982Y324196D01*
X89968Y324223D01*
X89941Y324290D01*
X89901Y324358D01*
X89861Y324465D01*
X89820Y324573D01*
X89793Y324707D01*
X89767Y324855D01*
Y324869D01*
X89753Y324922D01*
Y325003D01*
X89740Y325111D01*
X89726Y325272D01*
Y325487D01*
X89713Y325743D01*
Y325891D01*
Y326052D01*
Y328863D01*
X88933D01*
Y330208D01*
X89713D01*
Y331473D01*
X91408Y332468D01*
Y330208D01*
D02*
G37*
G36*
X68781Y332613D02*
X68941Y332573D01*
X69121Y332493D01*
X69281Y332373D01*
X69401Y332193D01*
X69500Y331973D01*
Y331953D01*
X69520Y331853D01*
X69560Y331713D01*
X69581Y331513D01*
X69620Y331254D01*
X69660Y330914D01*
X69720Y330534D01*
X69760Y330074D01*
Y330054D01*
Y330014D01*
X69780Y329954D01*
Y329854D01*
Y329734D01*
X69800Y329594D01*
X69820Y329275D01*
X69840Y328875D01*
X69860Y328455D01*
X69880Y327995D01*
Y327535D01*
Y327515D01*
Y327475D01*
Y327396D01*
Y327295D01*
Y327156D01*
X69900Y327016D01*
Y326836D01*
Y326636D01*
X69920Y326216D01*
X69960Y325716D01*
X70000Y325197D01*
X70060Y324657D01*
Y324637D01*
X70080Y324597D01*
Y324517D01*
X70100Y324437D01*
X70120Y324237D01*
X70140Y324157D01*
Y324097D01*
Y324077D01*
Y324037D01*
X70120Y323977D01*
X70100Y323917D01*
X70060Y323817D01*
X69980Y323717D01*
X69900Y323617D01*
X69780Y323497D01*
X69760Y323477D01*
X69720Y323457D01*
X69660Y323417D01*
X69581Y323358D01*
X69361Y323257D01*
X69241Y323237D01*
X69121Y323218D01*
X69081D01*
X68981Y323237D01*
X68821Y323257D01*
X68661Y323318D01*
X68621Y323338D01*
X68541Y323397D01*
X68421Y323497D01*
X68301Y323617D01*
Y323637D01*
X68281Y323657D01*
X68261Y323737D01*
X68241Y323837D01*
X68201Y323997D01*
X68181Y324197D01*
X68141Y324477D01*
X68121Y324817D01*
Y324837D01*
Y324897D01*
Y324977D01*
X68101Y325097D01*
Y325237D01*
X68081Y325396D01*
Y325596D01*
Y325816D01*
X68061Y326316D01*
X68041Y326856D01*
X68021Y327455D01*
Y328075D01*
Y328095D01*
Y328115D01*
Y328175D01*
Y328275D01*
Y328375D01*
X68001Y328495D01*
Y328635D01*
X67981Y328815D01*
X67961Y329195D01*
X67921Y329654D01*
X67841Y330154D01*
X67761Y330734D01*
Y330774D01*
X67741Y330874D01*
X67721Y331014D01*
X67701Y331174D01*
X67681Y331353D01*
X67661Y331533D01*
X67641Y331693D01*
Y331813D01*
Y331833D01*
Y331873D01*
X67661Y331953D01*
X67681Y332033D01*
X67741Y332253D01*
X67801Y332353D01*
X67881Y332433D01*
X67901Y332453D01*
X67921Y332473D01*
X67981Y332513D01*
X68061Y332553D01*
X68261Y332613D01*
X68381Y332653D01*
X68641D01*
X68781Y332613D01*
D02*
G37*
G36*
X62844Y333652D02*
X63124Y333612D01*
X63424Y333532D01*
X63763Y333412D01*
X64083Y333232D01*
X64403Y333013D01*
X64443Y332993D01*
X64523Y332893D01*
X64663Y332753D01*
X64803Y332573D01*
X64943Y332333D01*
X65083Y332073D01*
X65163Y331773D01*
X65203Y331453D01*
Y331433D01*
Y331374D01*
X65183Y331294D01*
X65163Y331194D01*
X65143Y331054D01*
X65083Y330914D01*
X65023Y330754D01*
X64923Y330574D01*
X64903Y330554D01*
X64863Y330494D01*
X64783Y330394D01*
X64663Y330234D01*
X64503Y330054D01*
X64303Y329814D01*
X64043Y329534D01*
X63723Y329215D01*
X63683Y329175D01*
X63583Y329075D01*
X63403Y328895D01*
X63224Y328695D01*
X63004Y328475D01*
X62784Y328235D01*
X62584Y327995D01*
X62404Y327775D01*
X62384Y327755D01*
X62344Y327675D01*
X62284Y327575D01*
X62184Y327435D01*
X62084Y327256D01*
X61964Y327056D01*
X61844Y326836D01*
X61724Y326596D01*
X61465Y326096D01*
X61245Y325616D01*
X61145Y325377D01*
X61085Y325157D01*
X61045Y324957D01*
X61025Y324777D01*
Y324757D01*
Y324717D01*
Y324657D01*
X61045Y324577D01*
X61085Y324397D01*
X61105Y324297D01*
X61145Y324237D01*
X61165Y324217D01*
X61265Y324177D01*
X61405Y324117D01*
X61604Y324097D01*
X61684D01*
X61784Y324117D01*
X61924Y324157D01*
X62084Y324217D01*
X62284Y324317D01*
X62504Y324437D01*
X62764Y324597D01*
X62804Y324617D01*
X62884Y324677D01*
X63024Y324797D01*
X63204Y324937D01*
X63384Y325097D01*
X63583Y325296D01*
X63803Y325496D01*
X63983Y325736D01*
X64003Y325756D01*
X64063Y325836D01*
X64143Y325976D01*
X64223Y326116D01*
X64303Y326296D01*
X64383Y326496D01*
X64443Y326696D01*
X64463Y326896D01*
Y326916D01*
X64443Y326976D01*
X64423Y327076D01*
X64363Y327196D01*
X64263Y327295D01*
X64123Y327415D01*
X63923Y327515D01*
X63663Y327595D01*
X63623D01*
X63543Y327635D01*
X63403Y327695D01*
X63284Y327795D01*
X63264Y327835D01*
X63224Y327915D01*
X63164Y328035D01*
X63144Y328175D01*
Y328195D01*
Y328215D01*
X63184Y328315D01*
X63224Y328375D01*
X63284Y328455D01*
X63364Y328555D01*
X63463Y328635D01*
X63484Y328655D01*
X63524Y328675D01*
X63643Y328775D01*
X63823Y328855D01*
X63903Y328875D01*
X63983Y328895D01*
X64083D01*
X64183Y328875D01*
X64303D01*
X64583Y328795D01*
X64703Y328755D01*
X64803Y328675D01*
X64823Y328655D01*
X64863Y328635D01*
X64923Y328575D01*
X65003Y328535D01*
X65103Y328455D01*
X65223Y328415D01*
X65522Y328315D01*
X65543D01*
X65602Y328295D01*
X65682Y328275D01*
X65782Y328235D01*
X65882Y328175D01*
X66022Y328095D01*
X66122Y327975D01*
X66242Y327835D01*
X66262Y327815D01*
X66282Y327755D01*
X66322Y327675D01*
X66382Y327575D01*
X66482Y327295D01*
X66502Y327156D01*
X66522Y326996D01*
Y326976D01*
Y326896D01*
X66502Y326776D01*
X66482Y326616D01*
X66422Y326416D01*
X66362Y326196D01*
X66262Y325936D01*
X66122Y325676D01*
X66102Y325636D01*
X66042Y325556D01*
X65922Y325396D01*
X65762Y325197D01*
X65543Y324957D01*
X65263Y324697D01*
X64923Y324377D01*
X64503Y324057D01*
X64463Y324037D01*
X64343Y323957D01*
X64163Y323837D01*
X63943Y323697D01*
X63663Y323517D01*
X63364Y323358D01*
X63044Y323178D01*
X62704Y323018D01*
X62664Y322998D01*
X62564Y322958D01*
X62384Y322898D01*
X62184Y322818D01*
X61944Y322738D01*
X61684Y322678D01*
X61444Y322638D01*
X61205Y322618D01*
X61045D01*
X60885Y322638D01*
X60665Y322678D01*
X60445Y322718D01*
X60185Y322778D01*
X59965Y322878D01*
X59745Y323018D01*
X59725Y323038D01*
X59665Y323098D01*
X59585Y323198D01*
X59505Y323318D01*
X59406Y323477D01*
X59326Y323677D01*
X59266Y323897D01*
X59246Y324137D01*
Y324157D01*
Y324217D01*
X59266Y324317D01*
Y324457D01*
X59286Y324617D01*
X59326Y324817D01*
X59366Y325037D01*
X59446Y325296D01*
X59526Y325576D01*
X59625Y325856D01*
X59745Y326176D01*
X59905Y326516D01*
X60065Y326856D01*
X60285Y327196D01*
X60505Y327575D01*
X60785Y327935D01*
X60765D01*
X60705Y327915D01*
X60625Y327895D01*
X60485Y327875D01*
X60345Y327835D01*
X60145Y327815D01*
X59945Y327795D01*
X59585D01*
X59465Y327815D01*
X59306Y327855D01*
X59146Y327895D01*
X58966Y327975D01*
X58806Y328075D01*
X58666Y328215D01*
X58646Y328235D01*
X58626Y328295D01*
X58566Y328395D01*
X58526Y328535D01*
X58466Y328735D01*
X58406Y328975D01*
X58386Y329255D01*
X58366Y329574D01*
Y329594D01*
Y329614D01*
X58386Y329734D01*
X58406Y329914D01*
X58446Y330174D01*
X58506Y330454D01*
X58626Y330774D01*
X58766Y331134D01*
X58966Y331493D01*
Y331513D01*
X58986Y331533D01*
X59066Y331653D01*
X59206Y331833D01*
X59386Y332053D01*
X59605Y332313D01*
X59865Y332573D01*
X60165Y332833D01*
X60505Y333073D01*
X60525D01*
X60545Y333093D01*
X60665Y333173D01*
X60865Y333273D01*
X61105Y333393D01*
X61405Y333492D01*
X61724Y333592D01*
X62064Y333672D01*
X62424Y333692D01*
X62624D01*
X62844Y333652D01*
D02*
G37*
G36*
X73624Y328071D02*
X73716Y328060D01*
X73843Y328036D01*
X73970Y327979D01*
X74108Y327910D01*
X74247Y327817D01*
X74374Y327679D01*
X74385Y327656D01*
X74431Y327610D01*
X74489Y327518D01*
X74558Y327391D01*
X74651Y327218D01*
X74731Y327022D01*
X74823Y326780D01*
X74904Y326503D01*
Y326491D01*
X74916Y326468D01*
X74927Y326434D01*
X74939Y326388D01*
X74950Y326318D01*
X74973Y326238D01*
X74985Y326146D01*
X75008Y326042D01*
X75031Y325915D01*
X75042Y325788D01*
X75065Y325638D01*
X75077Y325477D01*
X75089Y325315D01*
X75100Y325131D01*
X75112Y324935D01*
Y324727D01*
Y324704D01*
Y324647D01*
Y324543D01*
X75100Y324416D01*
X75089Y324266D01*
X75065Y324093D01*
X75008Y323736D01*
Y323724D01*
X74996Y323690D01*
X74985Y323643D01*
X74962Y323586D01*
X74916Y323470D01*
X74893Y323424D01*
X74870Y323390D01*
X74858Y323378D01*
X74823Y323367D01*
X74754Y323332D01*
X74673Y323309D01*
X74651D01*
X74593Y323298D01*
X74524Y323286D01*
X74443Y323274D01*
X74408D01*
X74362Y323286D01*
X74304D01*
X74189Y323321D01*
X74062Y323378D01*
X74051D01*
X74039Y323401D01*
X73993Y323459D01*
X73936Y323540D01*
X73924Y323597D01*
X73913Y323667D01*
X73959Y324001D01*
X73947Y323989D01*
X73901Y323943D01*
X73843Y323886D01*
X73751Y323805D01*
X73647Y323724D01*
X73509Y323632D01*
X73359Y323540D01*
X73186Y323459D01*
X73163Y323447D01*
X73105Y323424D01*
X73013Y323401D01*
X72898Y323367D01*
X72759Y323321D01*
X72598Y323298D01*
X72437Y323274D01*
X72275Y323263D01*
X72195D01*
X72148Y323274D01*
X72022Y323298D01*
X71872Y323344D01*
X71710Y323413D01*
X71583Y323517D01*
X71537Y323586D01*
X71491Y323667D01*
X71468Y323759D01*
X71457Y323863D01*
Y323874D01*
Y323897D01*
X71468Y323955D01*
X71480Y324012D01*
X71491Y324093D01*
X71514Y324197D01*
X71549Y324301D01*
X71595Y324416D01*
X71653Y324554D01*
X71733Y324693D01*
X71826Y324843D01*
X71929Y324992D01*
X72056Y325154D01*
X72206Y325315D01*
X72379Y325477D01*
X72575Y325650D01*
X72587D01*
X72598Y325673D01*
X72633Y325696D01*
X72679Y325730D01*
X72737Y325777D01*
X72794Y325834D01*
X72967Y325961D01*
X72979Y325973D01*
X73013Y325996D01*
X73059Y326030D01*
X73128Y326088D01*
X73198Y326146D01*
X73290Y326215D01*
X73474Y326353D01*
X73486Y326364D01*
X73520Y326388D01*
X73567Y326422D01*
X73613Y326457D01*
X73740Y326526D01*
X73797Y326561D01*
X73855Y326572D01*
Y326584D01*
X73843Y326630D01*
X73832Y326687D01*
X73809Y326757D01*
X73751Y326918D01*
X73705Y327010D01*
X73659Y327079D01*
X73647Y327091D01*
X73636Y327114D01*
X73567Y327183D01*
X73463Y327241D01*
X73394Y327264D01*
X73325Y327275D01*
X73290D01*
X73244Y327264D01*
X73186D01*
X73117Y327241D01*
X73036Y327218D01*
X72944Y327195D01*
X72840Y327149D01*
X72829D01*
X72794Y327126D01*
X72748Y327102D01*
X72690Y327068D01*
X72563Y326987D01*
X72494Y326929D01*
X72437Y326883D01*
X72425Y326872D01*
X72402Y326849D01*
X72321Y326791D01*
X72229Y326722D01*
X72195Y326699D01*
X72160Y326687D01*
X72137D01*
X72056Y326699D01*
X71952Y326745D01*
X71895Y326768D01*
X71837Y326814D01*
X71826Y326826D01*
X71814Y326837D01*
X71768Y326906D01*
X71710Y326999D01*
X71699Y327068D01*
X71687Y327126D01*
Y327137D01*
Y327172D01*
X71710Y327218D01*
X71733Y327275D01*
X71768Y327333D01*
X71826Y327414D01*
X71906Y327483D01*
X72022Y327552D01*
X72033Y327564D01*
X72079Y327587D01*
X72160Y327621D01*
X72252Y327667D01*
X72379Y327725D01*
X72517Y327783D01*
X72667Y327852D01*
X72840Y327910D01*
X72863Y327921D01*
X72921Y327933D01*
X73002Y327967D01*
X73105Y328002D01*
X73336Y328060D01*
X73451Y328071D01*
X73544Y328082D01*
X73567D01*
X73624Y328071D01*
D02*
G37*
G36*
X60328Y321863D02*
X60390D01*
X60459Y321855D01*
X60543Y321839D01*
X60628Y321824D01*
X60827Y321786D01*
X61042Y321724D01*
X61281Y321640D01*
X61396Y321586D01*
X61511Y321525D01*
X61519D01*
X61542Y321509D01*
X61572Y321486D01*
X61611Y321463D01*
X61664Y321425D01*
X61726Y321386D01*
X61864Y321279D01*
X62025Y321141D01*
X62187Y320972D01*
X62340Y320780D01*
X62486Y320557D01*
X62494Y320549D01*
X62502Y320526D01*
X62517Y320496D01*
X62540Y320449D01*
X62571Y320388D01*
X62602Y320319D01*
X62632Y320242D01*
X62671Y320158D01*
X62701Y320058D01*
X62732Y319958D01*
X62793Y319735D01*
X62832Y319489D01*
X62847Y319367D01*
Y319236D01*
Y319228D01*
Y319205D01*
Y319167D01*
X62840Y319121D01*
Y319059D01*
X62832Y318990D01*
X62817Y318906D01*
X62801Y318814D01*
X62763Y318614D01*
X62701Y318391D01*
X62609Y318161D01*
X62555Y318038D01*
X62494Y317923D01*
Y317915D01*
X62479Y317892D01*
X62455Y317861D01*
X62432Y317823D01*
X62394Y317769D01*
X62348Y317708D01*
X62240Y317569D01*
X62102Y317416D01*
X61933Y317254D01*
X61741Y317093D01*
X61519Y316955D01*
X61511D01*
X61488Y316940D01*
X61457Y316924D01*
X61411Y316901D01*
X61357Y316878D01*
X61288Y316847D01*
X61211Y316817D01*
X61119Y316786D01*
X61027Y316748D01*
X60927Y316717D01*
X60704Y316663D01*
X60466Y316625D01*
X60343Y316617D01*
X60213Y316609D01*
X60144D01*
X60098Y316617D01*
X60036D01*
X59960Y316625D01*
X59883Y316640D01*
X59791Y316655D01*
X59583Y316694D01*
X59368Y316755D01*
X59130Y316840D01*
X59007Y316894D01*
X58892Y316955D01*
X58884Y316963D01*
X58861Y316970D01*
X58831Y316993D01*
X58792Y317016D01*
X58738Y317055D01*
X58677Y317101D01*
X58539Y317208D01*
X58385Y317347D01*
X58224Y317508D01*
X58063Y317700D01*
X57924Y317923D01*
Y317930D01*
X57909Y317953D01*
X57894Y317984D01*
X57871Y318030D01*
X57847Y318092D01*
X57817Y318161D01*
X57786Y318238D01*
X57755Y318322D01*
X57717Y318422D01*
X57686Y318522D01*
X57632Y318744D01*
X57594Y318983D01*
X57586Y319105D01*
X57579Y319236D01*
Y319244D01*
Y319267D01*
Y319305D01*
X57586Y319351D01*
Y319413D01*
X57594Y319489D01*
X57609Y319574D01*
X57625Y319658D01*
X57663Y319866D01*
X57725Y320089D01*
X57817Y320319D01*
X57871Y320442D01*
X57932Y320557D01*
X57940Y320565D01*
X57947Y320588D01*
X57970Y320618D01*
X57994Y320664D01*
X58032Y320710D01*
X58078Y320772D01*
X58185Y320918D01*
X58324Y321072D01*
X58493Y321233D01*
X58685Y321386D01*
X58907Y321525D01*
X58915Y321532D01*
X58938Y321540D01*
X58969Y321555D01*
X59015Y321578D01*
X59076Y321601D01*
X59138Y321632D01*
X59215Y321663D01*
X59307Y321701D01*
X59399Y321732D01*
X59499Y321763D01*
X59721Y321816D01*
X59960Y321855D01*
X60082Y321870D01*
X60282D01*
X60328Y321863D01*
D02*
G37*
G36*
X79461Y321067D02*
X79530Y321059D01*
X79614Y321037D01*
X79699Y321006D01*
X79768Y320952D01*
X79799Y320921D01*
X79822Y320883D01*
X79829Y320845D01*
X79837Y320791D01*
Y320775D01*
X79829Y320737D01*
X79814Y320691D01*
X79776Y320630D01*
X79722Y320568D01*
X79683Y320545D01*
X79637Y320522D01*
X79584Y320499D01*
X79522Y320483D01*
X79453Y320476D01*
X79369Y320468D01*
X79353D01*
X79307Y320476D01*
X79253Y320483D01*
X79184Y320499D01*
X79115Y320537D01*
X79054Y320583D01*
X79008Y320645D01*
X79000Y320691D01*
X78992Y320737D01*
Y320745D01*
Y320760D01*
X79000Y320783D01*
X79008Y320814D01*
X79023Y320845D01*
X79046Y320883D01*
X79077Y320929D01*
X79115Y320967D01*
X79123Y320975D01*
X79138Y320983D01*
X79161Y320998D01*
X79199Y321021D01*
X79284Y321059D01*
X79338Y321067D01*
X79391Y321075D01*
X79430D01*
X79461Y321067D01*
D02*
G37*
G36*
X68878Y320192D02*
X68931Y320184D01*
X68993Y320161D01*
X69054Y320138D01*
X69123Y320099D01*
X69185Y320046D01*
X69192Y320038D01*
X69216Y320015D01*
X69246Y319984D01*
X69277Y319931D01*
X69323Y319869D01*
X69362Y319792D01*
X69400Y319700D01*
X69438Y319600D01*
X69446Y319585D01*
Y319570D01*
X69454Y319539D01*
X69461Y319500D01*
X69469Y319454D01*
X69477Y319401D01*
X69484Y319332D01*
X69492Y319255D01*
X69507Y319163D01*
X69515Y319055D01*
X69523Y318940D01*
X69530Y318802D01*
X69538Y318656D01*
X69546Y318494D01*
X69554Y318310D01*
Y318302D01*
Y318279D01*
Y318249D01*
X69561Y318203D01*
Y318133D01*
X69569Y318057D01*
Y317965D01*
X69577Y317857D01*
Y317842D01*
X69584Y317811D01*
Y317757D01*
X69592Y317696D01*
X69599Y317565D01*
X69607Y317504D01*
Y317458D01*
Y317450D01*
Y317435D01*
X69599Y317404D01*
X69592Y317373D01*
X69577Y317327D01*
X69546Y317289D01*
X69515Y317243D01*
X69469Y317196D01*
X69461Y317189D01*
X69446Y317181D01*
X69415Y317166D01*
X69377Y317143D01*
X69331Y317120D01*
X69285Y317104D01*
X69223Y317097D01*
X69162Y317089D01*
X69131D01*
X69100Y317097D01*
X69062D01*
X68962Y317120D01*
X68870Y317166D01*
X68862Y317174D01*
X68855Y317181D01*
X68816Y317227D01*
X68770Y317289D01*
X68762Y317335D01*
X68755Y317381D01*
Y317389D01*
Y317396D01*
Y317427D01*
Y317465D01*
Y317511D01*
Y317581D01*
X68762Y317665D01*
Y317773D01*
Y317780D01*
Y317788D01*
Y317811D01*
Y317842D01*
X68770Y317911D01*
Y318003D01*
Y318095D01*
X68778Y318187D01*
Y318272D01*
Y318341D01*
Y318349D01*
Y318364D01*
Y318387D01*
Y318433D01*
Y318441D01*
Y318456D01*
X68786Y318502D01*
Y318564D01*
Y318625D01*
Y318640D01*
Y318671D01*
Y318725D01*
X68778Y318786D01*
Y318871D01*
X68770Y318955D01*
X68755Y319155D01*
X68716Y319347D01*
X68701Y319431D01*
X68670Y319516D01*
X68639Y319577D01*
X68609Y319631D01*
X68563Y319662D01*
X68517Y319677D01*
X68494D01*
X68455Y319670D01*
X68417Y319654D01*
X68363Y319631D01*
X68302Y319600D01*
X68233Y319562D01*
X68163Y319500D01*
X68156Y319493D01*
X68133Y319470D01*
X68094Y319431D01*
X68048Y319378D01*
X68002Y319316D01*
X67948Y319232D01*
X67902Y319147D01*
X67856Y319047D01*
X67848Y319032D01*
X67841Y319001D01*
X67826Y318940D01*
X67802Y318871D01*
X67779Y318779D01*
X67764Y318671D01*
X67756Y318556D01*
X67749Y318433D01*
Y318425D01*
Y318410D01*
Y318372D01*
X67756Y318318D01*
X67764Y318241D01*
X67772Y318141D01*
X67787Y318018D01*
X67810Y317865D01*
Y317857D01*
Y317842D01*
X67818Y317819D01*
X67826Y317788D01*
X67833Y317696D01*
X67848Y317596D01*
X67864Y317481D01*
X67872Y317373D01*
X67887Y317281D01*
Y317235D01*
Y317204D01*
Y317196D01*
Y317189D01*
X67872Y317150D01*
X67848Y317097D01*
X67818Y317066D01*
X67787Y317043D01*
X67779D01*
X67772Y317035D01*
X67726Y317012D01*
X67656Y316989D01*
X67572Y316982D01*
X67526D01*
X67472Y316989D01*
X67411Y317004D01*
X67342Y317027D01*
X67280Y317066D01*
X67219Y317112D01*
X67173Y317181D01*
Y317189D01*
X67157Y317219D01*
X67142Y317273D01*
X67127Y317350D01*
X67103Y317458D01*
X67096Y317519D01*
X67088Y317588D01*
X67073Y317665D01*
X67065Y317757D01*
X67050Y317849D01*
X67042Y317957D01*
Y317965D01*
Y317995D01*
X67034Y318041D01*
X67027Y318095D01*
X67019Y318218D01*
X67011Y318272D01*
X67004Y318325D01*
Y318341D01*
X66996Y318372D01*
X66988Y318425D01*
X66981Y318502D01*
X66973Y318587D01*
X66965Y318679D01*
X66942Y318886D01*
X66912Y319101D01*
X66904Y319209D01*
X66896Y319301D01*
X66888Y319393D01*
X66881Y319462D01*
X66873Y319516D01*
Y319554D01*
Y319562D01*
Y319577D01*
Y319593D01*
X66881Y319623D01*
X66896Y319700D01*
X66927Y319785D01*
X66981Y319862D01*
X67058Y319938D01*
X67103Y319969D01*
X67165Y319984D01*
X67226Y320000D01*
X67303Y320007D01*
X67334D01*
X67372Y320000D01*
X67411Y319992D01*
X67511Y319961D01*
X67549Y319938D01*
X67587Y319900D01*
X67595Y319892D01*
X67603Y319877D01*
X67618Y319854D01*
X67641Y319815D01*
X67656Y319769D01*
X67680Y319708D01*
X67695Y319631D01*
X67710Y319547D01*
X67718Y319562D01*
X67749Y319600D01*
X67795Y319654D01*
X67856Y319723D01*
X67925Y319800D01*
X68010Y319884D01*
X68110Y319961D01*
X68209Y320030D01*
X68225Y320038D01*
X68256Y320054D01*
X68317Y320084D01*
X68386Y320115D01*
X68478Y320146D01*
X68578Y320176D01*
X68686Y320192D01*
X68793Y320199D01*
X68832D01*
X68878Y320192D01*
D02*
G37*
G36*
X75306Y320115D02*
X75344D01*
X75429Y320084D01*
X75475Y320061D01*
X75529Y320030D01*
X75575Y319992D01*
X75621Y319938D01*
X75667Y319884D01*
X75705Y319808D01*
X75744Y319723D01*
X75767Y319623D01*
X75782Y319508D01*
X75790Y319378D01*
Y319370D01*
Y319362D01*
X75782Y319308D01*
X75751Y319239D01*
X75728Y319201D01*
X75697Y319163D01*
X75690Y319155D01*
X75682Y319147D01*
X75644Y319109D01*
X75582Y319070D01*
X75551Y319063D01*
X75513Y319055D01*
X75459D01*
X75413Y319063D01*
X75352Y319078D01*
X75290Y319093D01*
X75229Y319124D01*
X75191Y319163D01*
X75168Y319216D01*
Y319224D01*
X75160Y319247D01*
X75152Y319278D01*
X75144Y319316D01*
X75121Y319393D01*
X75106Y319431D01*
X75091Y319462D01*
X75083Y319470D01*
X75052Y319500D01*
X75006Y319524D01*
X74945Y319531D01*
X74937D01*
X74914Y319524D01*
X74868Y319500D01*
X74807Y319462D01*
X74768Y319431D01*
X74730Y319393D01*
X74676Y319347D01*
X74622Y319293D01*
X74568Y319232D01*
X74499Y319155D01*
X74430Y319070D01*
X74353Y318971D01*
Y318963D01*
Y318924D01*
X74361Y318871D01*
X74369Y318794D01*
X74376Y318694D01*
X74392Y318579D01*
X74407Y318441D01*
X74430Y318279D01*
Y318272D01*
Y318256D01*
X74438Y318233D01*
X74446Y318203D01*
X74453Y318118D01*
X74476Y318018D01*
X74499Y317895D01*
X74522Y317765D01*
X74546Y317642D01*
X74576Y317519D01*
Y317511D01*
X74584Y317481D01*
X74599Y317442D01*
X74615Y317389D01*
X74638Y317281D01*
X74645Y317235D01*
Y317196D01*
Y317189D01*
Y317181D01*
X74630Y317143D01*
X74615Y317120D01*
X74591Y317089D01*
X74561Y317066D01*
X74515Y317035D01*
X74507D01*
X74492Y317027D01*
X74469Y317012D01*
X74438Y317004D01*
X74353Y316974D01*
X74269Y316966D01*
X74223D01*
X74185Y316974D01*
X74108Y316989D01*
X74015Y317020D01*
X74008D01*
X74000Y317027D01*
X73954Y317051D01*
X73908Y317089D01*
X73885Y317112D01*
X73870Y317143D01*
Y317150D01*
X73862Y317174D01*
X73854Y317204D01*
X73839Y317266D01*
X73824Y317335D01*
X73808Y317427D01*
X73793Y317542D01*
X73770Y317680D01*
Y317688D01*
Y317696D01*
X73762Y317719D01*
Y317750D01*
X73754Y317819D01*
X73739Y317911D01*
X73731Y318018D01*
X73716Y318126D01*
X73701Y318233D01*
X73693Y318333D01*
Y318341D01*
Y318356D01*
X73685Y318379D01*
Y318425D01*
X73678Y318487D01*
X73662Y318571D01*
X73647Y318671D01*
X73632Y318802D01*
Y318809D01*
Y318832D01*
X73624Y318863D01*
X73616Y318901D01*
X73608Y318948D01*
X73601Y319001D01*
X73585Y319132D01*
X73570Y319262D01*
X73555Y319385D01*
X73547Y319493D01*
X73539Y319539D01*
Y319570D01*
Y319585D01*
Y319616D01*
X73547Y319662D01*
Y319715D01*
X73578Y319838D01*
X73593Y319900D01*
X73624Y319946D01*
X73632Y319954D01*
X73639Y319961D01*
X73662Y319984D01*
X73701Y320007D01*
X73739Y320023D01*
X73793Y320046D01*
X73854Y320054D01*
X73931Y320061D01*
X73985D01*
X74023Y320054D01*
X74100Y320030D01*
X74185Y319984D01*
X74192D01*
X74200Y319969D01*
X74238Y319938D01*
X74277Y319884D01*
X74284Y319854D01*
X74292Y319823D01*
Y319815D01*
Y319777D01*
Y319715D01*
X74284Y319631D01*
Y319623D01*
Y319616D01*
Y319570D01*
Y319508D01*
Y319470D01*
X74292Y319478D01*
X74323Y319516D01*
X74369Y319577D01*
X74423Y319654D01*
X74492Y319739D01*
X74568Y319815D01*
X74653Y319892D01*
X74738Y319961D01*
X74745Y319969D01*
X74776Y319984D01*
X74830Y320015D01*
X74891Y320046D01*
X74968Y320069D01*
X75060Y320099D01*
X75152Y320115D01*
X75260Y320123D01*
X75283D01*
X75306Y320115D01*
D02*
G37*
G36*
X80828Y321029D02*
X80889Y321006D01*
X80951Y320960D01*
X80966Y320944D01*
X80989Y320906D01*
X81020Y320845D01*
X81035Y320768D01*
Y320752D01*
X81043Y320722D01*
X81050Y320675D01*
X81058Y320606D01*
X81066Y320560D01*
X81081Y320514D01*
X81089Y320453D01*
X81104Y320384D01*
X81120Y320307D01*
X81135Y320222D01*
Y320215D01*
X81143Y320199D01*
X81150Y320169D01*
X81158Y320123D01*
X81166Y320076D01*
X81173Y320023D01*
X81196Y319907D01*
X81219Y319777D01*
X81242Y319662D01*
X81250Y319608D01*
X81258Y319562D01*
X81265Y319524D01*
Y319493D01*
X81273Y319500D01*
X81288Y319508D01*
X81312Y319531D01*
X81350Y319570D01*
X81404Y319616D01*
X81473Y319677D01*
X81550Y319746D01*
X81650Y319838D01*
X81665Y319854D01*
X81696Y319884D01*
X81749Y319931D01*
X81803Y319984D01*
X81941Y320107D01*
X81995Y320169D01*
X82049Y320215D01*
X82056Y320222D01*
X82072Y320230D01*
X82110Y320276D01*
X82156Y320330D01*
X82164Y320353D01*
X82172Y320376D01*
Y320391D01*
X82164Y320422D01*
X82156Y320461D01*
X82149Y320507D01*
Y320522D01*
X82164Y320553D01*
X82179Y320568D01*
X82210Y320591D01*
X82241Y320614D01*
X82287Y320637D01*
X82295D01*
X82310Y320645D01*
X82341Y320660D01*
X82379Y320675D01*
X82425Y320683D01*
X82479Y320699D01*
X82594Y320706D01*
X82609D01*
X82656Y320699D01*
X82717Y320675D01*
X82778Y320630D01*
X82786D01*
X82794Y320614D01*
X82824Y320576D01*
X82848Y320522D01*
X82863Y320491D01*
Y320453D01*
Y320445D01*
Y320414D01*
X82855Y320368D01*
X82840Y320315D01*
X82817Y320253D01*
X82778Y320184D01*
X82732Y320115D01*
X82671Y320046D01*
X82663Y320038D01*
X82640Y320015D01*
X82594Y319977D01*
X82525Y319923D01*
X82441Y319846D01*
X82325Y319746D01*
X82179Y319631D01*
X82103Y319562D01*
X82010Y319485D01*
X82003Y319478D01*
X81987Y319470D01*
X81964Y319447D01*
X81934Y319424D01*
X81849Y319355D01*
X81757Y319278D01*
X81657Y319193D01*
X81573Y319124D01*
X81496Y319063D01*
X81473Y319047D01*
X81458Y319032D01*
X81450Y319024D01*
X81434Y319017D01*
X81388Y318978D01*
X81342Y318924D01*
X81327Y318894D01*
X81319Y318871D01*
Y318863D01*
X81327Y318855D01*
X81342Y318848D01*
X81365Y318832D01*
X81404Y318809D01*
X81450Y318779D01*
X81511Y318740D01*
X81527Y318733D01*
X81557Y318717D01*
X81588Y318694D01*
X81619Y318679D01*
X81626Y318671D01*
X81650Y318656D01*
X81688Y318633D01*
X81742Y318602D01*
X81803Y318571D01*
X81880Y318525D01*
X81957Y318479D01*
X82049Y318433D01*
X82226Y318341D01*
X82418Y318249D01*
X82594Y318172D01*
X82671Y318149D01*
X82748Y318126D01*
X82755D01*
X82771Y318118D01*
X82802Y318110D01*
X82832Y318095D01*
X82917Y318041D01*
X82994Y317972D01*
X83001Y317965D01*
X83009Y317949D01*
X83024Y317934D01*
X83047Y317903D01*
X83078Y317826D01*
X83086Y317788D01*
X83093Y317750D01*
Y317742D01*
Y317734D01*
X83086Y317688D01*
X83063Y317619D01*
X83024Y317550D01*
X83017Y317534D01*
X82986Y317511D01*
X82932Y317481D01*
X82901Y317473D01*
X82871Y317465D01*
X82855D01*
X82817Y317473D01*
X82755Y317481D01*
X82671Y317496D01*
X82563Y317527D01*
X82441Y317573D01*
X82287Y317634D01*
X82118Y317719D01*
X82110D01*
X82095Y317734D01*
X82072Y317742D01*
X82041Y317765D01*
X81957Y317811D01*
X81849Y317872D01*
X81726Y317949D01*
X81603Y318034D01*
X81488Y318118D01*
X81381Y318210D01*
Y318203D01*
Y318172D01*
X81388Y318126D01*
X81396Y318057D01*
X81404Y317972D01*
X81411Y317880D01*
X81427Y317773D01*
X81450Y317650D01*
Y317642D01*
X81458Y317611D01*
X81465Y317573D01*
X81473Y317527D01*
X81480Y317427D01*
X81488Y317381D01*
Y317342D01*
Y317335D01*
Y317319D01*
X81480Y317296D01*
X81473Y317266D01*
X81458Y317235D01*
X81442Y317196D01*
X81411Y317158D01*
X81373Y317120D01*
X81365D01*
X81350Y317104D01*
X81327Y317089D01*
X81296Y317074D01*
X81219Y317043D01*
X81173Y317035D01*
X81127Y317027D01*
X81104D01*
X81073Y317035D01*
X81043D01*
X80951Y317058D01*
X80858Y317104D01*
X80851Y317112D01*
X80843Y317120D01*
X80805Y317166D01*
X80759Y317227D01*
X80751Y317266D01*
X80743Y317312D01*
Y317319D01*
Y317342D01*
Y317366D01*
Y317396D01*
X80736Y317435D01*
Y317481D01*
X80728Y317534D01*
Y317603D01*
X80720Y317680D01*
X80712Y317765D01*
X80705Y317865D01*
X80690Y317980D01*
X80682Y318110D01*
X80666Y318249D01*
Y318256D01*
Y318287D01*
X80659Y318325D01*
X80651Y318379D01*
Y318441D01*
X80643Y318510D01*
X80628Y318671D01*
X80605Y318832D01*
X80590Y318994D01*
X80582Y319063D01*
X80574Y319124D01*
X80567Y319170D01*
X80559Y319209D01*
Y319216D01*
X80551Y319239D01*
Y319278D01*
X80544Y319339D01*
X80528Y319408D01*
X80513Y319500D01*
X80497Y319608D01*
X80474Y319739D01*
Y319746D01*
X80467Y319769D01*
X80459Y319808D01*
X80451Y319854D01*
X80444Y319915D01*
X80436Y319984D01*
X80413Y320138D01*
X80382Y320299D01*
X80367Y320461D01*
X80352Y320606D01*
X80344Y320668D01*
Y320722D01*
Y320729D01*
Y320745D01*
X80352Y320768D01*
X80359Y320798D01*
X80375Y320829D01*
X80390Y320867D01*
X80421Y320898D01*
X80459Y320937D01*
X80467Y320944D01*
X80482Y320952D01*
X80505Y320967D01*
X80544Y320990D01*
X80582Y321006D01*
X80636Y321021D01*
X80690Y321029D01*
X80759Y321037D01*
X80782D01*
X80828Y321029D01*
D02*
G37*
G36*
X100857Y320860D02*
X100919Y320845D01*
X100988Y320814D01*
X101049Y320768D01*
X101095Y320699D01*
X101134Y320614D01*
Y320606D01*
X101141Y320568D01*
X101157Y320514D01*
X101164Y320438D01*
X101180Y320338D01*
X101195Y320207D01*
X101218Y320061D01*
X101233Y319884D01*
Y319877D01*
Y319862D01*
X101241Y319838D01*
Y319800D01*
Y319754D01*
X101249Y319700D01*
X101257Y319577D01*
X101264Y319424D01*
X101272Y319262D01*
X101279Y319086D01*
Y318909D01*
Y318901D01*
Y318886D01*
Y318855D01*
Y318817D01*
Y318763D01*
X101287Y318709D01*
Y318640D01*
Y318564D01*
X101295Y318402D01*
X101310Y318210D01*
X101326Y318011D01*
X101349Y317803D01*
Y317795D01*
X101356Y317780D01*
Y317750D01*
X101364Y317719D01*
X101372Y317642D01*
X101379Y317611D01*
Y317588D01*
Y317581D01*
Y317565D01*
X101372Y317542D01*
X101364Y317519D01*
X101349Y317481D01*
X101318Y317442D01*
X101287Y317404D01*
X101241Y317358D01*
X101233Y317350D01*
X101218Y317342D01*
X101195Y317327D01*
X101164Y317304D01*
X101080Y317266D01*
X101034Y317258D01*
X100988Y317250D01*
X100972D01*
X100934Y317258D01*
X100873Y317266D01*
X100811Y317289D01*
X100796Y317296D01*
X100765Y317319D01*
X100719Y317358D01*
X100673Y317404D01*
Y317411D01*
X100665Y317419D01*
X100657Y317450D01*
X100650Y317488D01*
X100634Y317550D01*
X100627Y317627D01*
X100611Y317734D01*
X100604Y317865D01*
Y317872D01*
Y317895D01*
Y317926D01*
X100596Y317972D01*
Y318026D01*
X100588Y318087D01*
Y318164D01*
Y318249D01*
X100581Y318441D01*
X100573Y318648D01*
X100565Y318878D01*
Y319116D01*
Y319124D01*
Y319132D01*
Y319155D01*
Y319193D01*
Y319232D01*
X100558Y319278D01*
Y319332D01*
X100550Y319401D01*
X100542Y319547D01*
X100527Y319723D01*
X100496Y319915D01*
X100466Y320138D01*
Y320153D01*
X100458Y320192D01*
X100450Y320246D01*
X100442Y320307D01*
X100435Y320376D01*
X100427Y320445D01*
X100419Y320507D01*
Y320553D01*
Y320560D01*
Y320576D01*
X100427Y320606D01*
X100435Y320637D01*
X100458Y320722D01*
X100481Y320760D01*
X100512Y320791D01*
X100519Y320798D01*
X100527Y320806D01*
X100550Y320821D01*
X100581Y320837D01*
X100657Y320860D01*
X100704Y320875D01*
X100803D01*
X100857Y320860D01*
D02*
G37*
G36*
X94744Y320821D02*
X94775Y320798D01*
X94813Y320775D01*
X94844Y320737D01*
X94874Y320691D01*
X94882D01*
X94898Y320699D01*
X94920Y320706D01*
X94959Y320714D01*
X95005Y320722D01*
X95059Y320729D01*
X95120Y320737D01*
X95197D01*
X95228Y320729D01*
X95274Y320722D01*
X95335Y320706D01*
X95404Y320668D01*
X95481Y320622D01*
X95573Y320560D01*
X95666Y320468D01*
X95681Y320453D01*
X95711Y320422D01*
X95758Y320361D01*
X95819Y320284D01*
X95888Y320184D01*
X95957Y320076D01*
X96026Y319946D01*
X96096Y319800D01*
Y319792D01*
X96103Y319785D01*
X96111Y319762D01*
X96119Y319731D01*
X96149Y319654D01*
X96180Y319554D01*
X96211Y319439D01*
X96241Y319308D01*
X96257Y319178D01*
X96264Y319040D01*
Y319032D01*
Y319017D01*
Y318994D01*
Y318963D01*
X96257Y318917D01*
X96249Y318871D01*
X96234Y318748D01*
X96203Y318610D01*
X96157Y318448D01*
X96096Y318279D01*
X96011Y318110D01*
Y318103D01*
X96003Y318087D01*
X95988Y318064D01*
X95965Y318034D01*
X95911Y317949D01*
X95834Y317849D01*
X95742Y317726D01*
X95627Y317603D01*
X95496Y317481D01*
X95351Y317366D01*
X95343D01*
X95335Y317350D01*
X95312Y317342D01*
X95281Y317319D01*
X95205Y317273D01*
X95097Y317227D01*
X94974Y317174D01*
X94836Y317127D01*
X94690Y317097D01*
X94544Y317081D01*
X94498D01*
X94460Y317089D01*
X94375Y317104D01*
X94260Y317127D01*
X94137Y317174D01*
X94007Y317243D01*
X93945Y317289D01*
X93884Y317342D01*
X93822Y317396D01*
X93769Y317465D01*
Y317473D01*
X93753Y317481D01*
X93745Y317504D01*
X93722Y317534D01*
X93707Y317573D01*
X93684Y317619D01*
X93630Y317734D01*
X93577Y317872D01*
X93538Y318041D01*
X93507Y318233D01*
X93492Y318448D01*
Y318456D01*
Y318471D01*
Y318502D01*
Y318533D01*
Y318579D01*
X93500Y318633D01*
X93507Y318756D01*
X93515Y318894D01*
X93538Y319047D01*
X93561Y319201D01*
X93599Y319355D01*
Y319362D01*
X93607Y319370D01*
X93615Y319393D01*
X93623Y319424D01*
X93646Y319500D01*
X93684Y319600D01*
X93730Y319715D01*
X93784Y319846D01*
X93853Y319977D01*
X93930Y320115D01*
Y320123D01*
X93937Y320130D01*
X93968Y320176D01*
X94014Y320238D01*
X94068Y320315D01*
X94137Y320407D01*
X94206Y320491D01*
X94283Y320576D01*
X94360Y320653D01*
X94368Y320660D01*
X94391Y320683D01*
X94429Y320714D01*
X94475Y320745D01*
X94521Y320775D01*
X94575Y320806D01*
X94629Y320829D01*
X94675Y320837D01*
X94698D01*
X94744Y320821D01*
D02*
G37*
G36*
X84714Y320253D02*
X84775Y320246D01*
X84860Y320230D01*
X84944Y320192D01*
X85036Y320146D01*
X85128Y320084D01*
X85213Y319992D01*
X85221Y319977D01*
X85251Y319946D01*
X85290Y319884D01*
X85336Y319800D01*
X85397Y319685D01*
X85451Y319554D01*
X85513Y319393D01*
X85566Y319209D01*
Y319201D01*
X85574Y319186D01*
X85582Y319163D01*
X85589Y319132D01*
X85597Y319086D01*
X85612Y319032D01*
X85620Y318971D01*
X85635Y318901D01*
X85651Y318817D01*
X85658Y318733D01*
X85674Y318633D01*
X85681Y318525D01*
X85689Y318418D01*
X85697Y318295D01*
X85704Y318164D01*
Y318026D01*
Y318011D01*
Y317972D01*
Y317903D01*
X85697Y317819D01*
X85689Y317719D01*
X85674Y317603D01*
X85635Y317366D01*
Y317358D01*
X85628Y317335D01*
X85620Y317304D01*
X85605Y317266D01*
X85574Y317189D01*
X85559Y317158D01*
X85543Y317135D01*
X85536Y317127D01*
X85513Y317120D01*
X85466Y317097D01*
X85413Y317081D01*
X85397D01*
X85359Y317074D01*
X85313Y317066D01*
X85259Y317058D01*
X85236D01*
X85205Y317066D01*
X85167D01*
X85090Y317089D01*
X85006Y317127D01*
X84998D01*
X84990Y317143D01*
X84960Y317181D01*
X84921Y317235D01*
X84913Y317273D01*
X84906Y317319D01*
X84936Y317542D01*
X84929Y317534D01*
X84898Y317504D01*
X84860Y317465D01*
X84798Y317411D01*
X84729Y317358D01*
X84637Y317296D01*
X84537Y317235D01*
X84422Y317181D01*
X84407Y317174D01*
X84368Y317158D01*
X84307Y317143D01*
X84230Y317120D01*
X84138Y317089D01*
X84030Y317074D01*
X83923Y317058D01*
X83815Y317051D01*
X83762D01*
X83731Y317058D01*
X83646Y317074D01*
X83546Y317104D01*
X83439Y317150D01*
X83354Y317219D01*
X83324Y317266D01*
X83293Y317319D01*
X83278Y317381D01*
X83270Y317450D01*
Y317458D01*
Y317473D01*
X83278Y317511D01*
X83285Y317550D01*
X83293Y317603D01*
X83308Y317673D01*
X83331Y317742D01*
X83362Y317819D01*
X83400Y317911D01*
X83454Y318003D01*
X83516Y318103D01*
X83585Y318203D01*
X83669Y318310D01*
X83769Y318418D01*
X83884Y318525D01*
X84015Y318640D01*
X84023D01*
X84030Y318656D01*
X84053Y318671D01*
X84084Y318694D01*
X84122Y318725D01*
X84161Y318763D01*
X84276Y318848D01*
X84284Y318855D01*
X84307Y318871D01*
X84338Y318894D01*
X84384Y318932D01*
X84430Y318971D01*
X84491Y319017D01*
X84614Y319109D01*
X84622Y319116D01*
X84645Y319132D01*
X84675Y319155D01*
X84706Y319178D01*
X84791Y319224D01*
X84829Y319247D01*
X84867Y319255D01*
Y319262D01*
X84860Y319293D01*
X84852Y319332D01*
X84837Y319378D01*
X84798Y319485D01*
X84768Y319547D01*
X84737Y319593D01*
X84729Y319600D01*
X84721Y319616D01*
X84675Y319662D01*
X84606Y319700D01*
X84560Y319715D01*
X84514Y319723D01*
X84491D01*
X84460Y319715D01*
X84422D01*
X84376Y319700D01*
X84322Y319685D01*
X84261Y319670D01*
X84192Y319639D01*
X84184D01*
X84161Y319623D01*
X84130Y319608D01*
X84092Y319585D01*
X84007Y319531D01*
X83961Y319493D01*
X83923Y319462D01*
X83915Y319454D01*
X83900Y319439D01*
X83846Y319401D01*
X83785Y319355D01*
X83762Y319339D01*
X83738Y319332D01*
X83723D01*
X83669Y319339D01*
X83600Y319370D01*
X83562Y319385D01*
X83523Y319416D01*
X83516Y319424D01*
X83508Y319431D01*
X83477Y319478D01*
X83439Y319539D01*
X83431Y319585D01*
X83424Y319623D01*
Y319631D01*
Y319654D01*
X83439Y319685D01*
X83454Y319723D01*
X83477Y319762D01*
X83516Y319815D01*
X83570Y319862D01*
X83646Y319907D01*
X83654Y319915D01*
X83685Y319931D01*
X83738Y319954D01*
X83800Y319984D01*
X83884Y320023D01*
X83977Y320061D01*
X84076Y320107D01*
X84192Y320146D01*
X84207Y320153D01*
X84245Y320161D01*
X84299Y320184D01*
X84368Y320207D01*
X84522Y320246D01*
X84599Y320253D01*
X84660Y320261D01*
X84675D01*
X84714Y320253D01*
D02*
G37*
G36*
X65322D02*
X65383Y320246D01*
X65468Y320230D01*
X65552Y320192D01*
X65644Y320146D01*
X65737Y320084D01*
X65821Y319992D01*
X65829Y319977D01*
X65859Y319946D01*
X65898Y319884D01*
X65944Y319800D01*
X66005Y319685D01*
X66059Y319554D01*
X66120Y319393D01*
X66174Y319209D01*
Y319201D01*
X66182Y319186D01*
X66190Y319163D01*
X66197Y319132D01*
X66205Y319086D01*
X66220Y319032D01*
X66228Y318971D01*
X66243Y318901D01*
X66259Y318817D01*
X66266Y318733D01*
X66282Y318633D01*
X66290Y318525D01*
X66297Y318418D01*
X66305Y318295D01*
X66312Y318164D01*
Y318026D01*
Y318011D01*
Y317972D01*
Y317903D01*
X66305Y317819D01*
X66297Y317719D01*
X66282Y317603D01*
X66243Y317366D01*
Y317358D01*
X66236Y317335D01*
X66228Y317304D01*
X66213Y317266D01*
X66182Y317189D01*
X66167Y317158D01*
X66151Y317135D01*
X66144Y317127D01*
X66120Y317120D01*
X66074Y317097D01*
X66021Y317081D01*
X66005D01*
X65967Y317074D01*
X65921Y317066D01*
X65867Y317058D01*
X65844D01*
X65813Y317066D01*
X65775D01*
X65698Y317089D01*
X65614Y317127D01*
X65606D01*
X65598Y317143D01*
X65568Y317181D01*
X65529Y317235D01*
X65522Y317273D01*
X65514Y317319D01*
X65544Y317542D01*
X65537Y317534D01*
X65506Y317504D01*
X65468Y317465D01*
X65406Y317411D01*
X65337Y317358D01*
X65245Y317296D01*
X65145Y317235D01*
X65030Y317181D01*
X65015Y317174D01*
X64976Y317158D01*
X64915Y317143D01*
X64838Y317120D01*
X64746Y317089D01*
X64638Y317074D01*
X64531Y317058D01*
X64423Y317051D01*
X64369D01*
X64339Y317058D01*
X64254Y317074D01*
X64154Y317104D01*
X64047Y317150D01*
X63962Y317219D01*
X63932Y317266D01*
X63901Y317319D01*
X63886Y317381D01*
X63878Y317450D01*
Y317458D01*
Y317473D01*
X63886Y317511D01*
X63893Y317550D01*
X63901Y317603D01*
X63916Y317673D01*
X63939Y317742D01*
X63970Y317819D01*
X64008Y317911D01*
X64062Y318003D01*
X64124Y318103D01*
X64193Y318203D01*
X64277Y318310D01*
X64377Y318418D01*
X64492Y318525D01*
X64623Y318640D01*
X64631D01*
X64638Y318656D01*
X64661Y318671D01*
X64692Y318694D01*
X64730Y318725D01*
X64769Y318763D01*
X64884Y318848D01*
X64892Y318855D01*
X64915Y318871D01*
X64946Y318894D01*
X64991Y318932D01*
X65038Y318971D01*
X65099Y319017D01*
X65222Y319109D01*
X65230Y319116D01*
X65253Y319132D01*
X65283Y319155D01*
X65314Y319178D01*
X65399Y319224D01*
X65437Y319247D01*
X65475Y319255D01*
Y319262D01*
X65468Y319293D01*
X65460Y319332D01*
X65445Y319378D01*
X65406Y319485D01*
X65376Y319547D01*
X65345Y319593D01*
X65337Y319600D01*
X65329Y319616D01*
X65283Y319662D01*
X65214Y319700D01*
X65168Y319715D01*
X65122Y319723D01*
X65099D01*
X65068Y319715D01*
X65030D01*
X64984Y319700D01*
X64930Y319685D01*
X64869Y319670D01*
X64799Y319639D01*
X64792D01*
X64769Y319623D01*
X64738Y319608D01*
X64700Y319585D01*
X64615Y319531D01*
X64569Y319493D01*
X64531Y319462D01*
X64523Y319454D01*
X64508Y319439D01*
X64454Y319401D01*
X64393Y319355D01*
X64369Y319339D01*
X64346Y319332D01*
X64331D01*
X64277Y319339D01*
X64208Y319370D01*
X64170Y319385D01*
X64131Y319416D01*
X64124Y319424D01*
X64116Y319431D01*
X64085Y319478D01*
X64047Y319539D01*
X64039Y319585D01*
X64032Y319623D01*
Y319631D01*
Y319654D01*
X64047Y319685D01*
X64062Y319723D01*
X64085Y319762D01*
X64124Y319815D01*
X64178Y319862D01*
X64254Y319907D01*
X64262Y319915D01*
X64293Y319931D01*
X64346Y319954D01*
X64408Y319984D01*
X64492Y320023D01*
X64584Y320061D01*
X64684Y320107D01*
X64799Y320146D01*
X64815Y320153D01*
X64853Y320161D01*
X64907Y320184D01*
X64976Y320207D01*
X65130Y320246D01*
X65207Y320253D01*
X65268Y320261D01*
X65283D01*
X65322Y320253D01*
D02*
G37*
G36*
X98238Y321029D02*
X98315Y321021D01*
X98415Y320998D01*
X98522Y320967D01*
X98638Y320914D01*
X98745Y320845D01*
X98853Y320752D01*
X98868Y320737D01*
X98899Y320706D01*
X98937Y320645D01*
X98991Y320568D01*
X99037Y320468D01*
X99083Y320353D01*
X99114Y320222D01*
X99121Y320076D01*
Y320069D01*
Y320030D01*
X99114Y319977D01*
Y319915D01*
X99098Y319831D01*
X99083Y319746D01*
X99060Y319654D01*
X99029Y319554D01*
X99022Y319547D01*
X99014Y319508D01*
X98991Y319454D01*
X98960Y319385D01*
X98914Y319293D01*
X98860Y319186D01*
X98791Y319063D01*
X98707Y318932D01*
X98699Y318917D01*
X98684Y318901D01*
X98668Y318878D01*
X98645Y318848D01*
X98622Y318809D01*
X98584Y318763D01*
X98538Y318702D01*
X98492Y318640D01*
X98430Y318564D01*
X98361Y318471D01*
X98284Y318372D01*
X98200Y318264D01*
X98100Y318141D01*
X97992Y318011D01*
X97877Y317865D01*
X98507Y318041D01*
X98515D01*
X98545Y318057D01*
X98592Y318072D01*
X98653Y318095D01*
X98738Y318133D01*
X98837Y318187D01*
X98968Y318249D01*
X99114Y318325D01*
X99121D01*
X99137Y318333D01*
X99152Y318349D01*
X99183Y318364D01*
X99260Y318402D01*
X99352Y318456D01*
X99444Y318502D01*
X99536Y318541D01*
X99613Y318571D01*
X99674Y318579D01*
X99721D01*
X99774Y318571D01*
X99836Y318548D01*
X99889Y318525D01*
X99943Y318487D01*
X99974Y318433D01*
X99989Y318356D01*
Y318349D01*
Y318325D01*
X99982Y318279D01*
X99974Y318233D01*
X99959Y318179D01*
X99936Y318118D01*
X99905Y318057D01*
X99859Y317995D01*
X99851Y317987D01*
X99836Y317972D01*
X99805Y317949D01*
X99767Y317926D01*
X99713Y317895D01*
X99651Y317872D01*
X99582Y317857D01*
X99498Y317849D01*
X99421D01*
X99383Y317842D01*
X99336D01*
X99275Y317834D01*
X99206Y317826D01*
X99129Y317819D01*
X99052Y317811D01*
X98960Y317795D01*
X98860Y317780D01*
X98745Y317765D01*
X98630Y317742D01*
X98507Y317719D01*
X98377Y317688D01*
X98361D01*
X98323Y317673D01*
X98269Y317665D01*
X98200Y317642D01*
X98115Y317627D01*
X98023Y317603D01*
X97939Y317573D01*
X97854Y317550D01*
X97847D01*
X97824Y317542D01*
X97785Y317527D01*
X97739Y317511D01*
X97647Y317473D01*
X97601Y317450D01*
X97570Y317427D01*
X97562Y317419D01*
X97524Y317389D01*
X97470Y317335D01*
X97432Y317296D01*
X97386Y317250D01*
X97378Y317243D01*
X97355Y317219D01*
X97324Y317189D01*
X97286Y317150D01*
X97240Y317112D01*
X97202Y317081D01*
X97171Y317058D01*
X97148Y317051D01*
X97132D01*
X97086Y317058D01*
X97032Y317081D01*
X96979Y317127D01*
X96971Y317143D01*
X96948Y317181D01*
X96917Y317250D01*
X96910Y317342D01*
Y317350D01*
X96917Y317373D01*
X96925Y317404D01*
X96940Y317458D01*
X96971Y317534D01*
X97017Y317627D01*
X97079Y317742D01*
X97163Y317880D01*
Y317888D01*
X97178Y317895D01*
X97186Y317918D01*
X97209Y317949D01*
X97263Y318034D01*
X97332Y318141D01*
X97424Y318272D01*
X97524Y318418D01*
X97639Y318579D01*
X97770Y318748D01*
X97777Y318763D01*
X97808Y318802D01*
X97854Y318863D01*
X97908Y318948D01*
X97970Y319055D01*
X98039Y319170D01*
X98115Y319308D01*
X98185Y319454D01*
Y319462D01*
X98192Y319470D01*
X98200Y319493D01*
X98215Y319524D01*
X98246Y319593D01*
X98284Y319685D01*
X98315Y319792D01*
X98346Y319892D01*
X98369Y320000D01*
X98377Y320092D01*
Y320099D01*
Y320123D01*
Y320153D01*
X98369Y320192D01*
X98361Y320269D01*
X98346Y320299D01*
X98330Y320322D01*
X98323Y320330D01*
X98292Y320353D01*
X98261Y320361D01*
X98231Y320368D01*
X98185Y320376D01*
X98115D01*
X98077Y320368D01*
X98008Y320338D01*
X97970Y320315D01*
X97916Y320291D01*
X97862Y320253D01*
X97800Y320207D01*
X97731Y320146D01*
X97662Y320084D01*
X97585Y320000D01*
X97501Y319907D01*
X97409Y319800D01*
X97317Y319677D01*
X97309Y319670D01*
X97278Y319639D01*
X97224Y319600D01*
X97148Y319562D01*
X97140D01*
X97125Y319554D01*
X97102Y319547D01*
X97071Y319539D01*
X96986Y319524D01*
X96894Y319516D01*
X96871D01*
X96825Y319531D01*
X96794Y319547D01*
X96756Y319570D01*
X96725Y319600D01*
X96695Y319639D01*
Y319646D01*
X96687Y319662D01*
X96672Y319692D01*
X96664Y319723D01*
X96649Y319769D01*
X96633Y319823D01*
X96626Y319946D01*
Y319954D01*
X96633Y319984D01*
X96641Y320023D01*
X96664Y320076D01*
X96695Y320138D01*
X96741Y320207D01*
X96810Y320276D01*
X96902Y320345D01*
X96910Y320353D01*
X96933Y320368D01*
X96956Y320384D01*
X96986Y320407D01*
X97025Y320430D01*
X97071Y320468D01*
X97079Y320476D01*
X97102Y320491D01*
X97140Y320522D01*
X97186Y320560D01*
X97248Y320599D01*
X97317Y320645D01*
X97478Y320752D01*
X97655Y320860D01*
X97839Y320944D01*
X97931Y320983D01*
X98015Y321013D01*
X98092Y321029D01*
X98169Y321037D01*
X98208D01*
X98238Y321029D01*
D02*
G37*
G36*
X91495D02*
X91572Y321021D01*
X91672Y320998D01*
X91779Y320967D01*
X91895Y320914D01*
X92002Y320845D01*
X92110Y320752D01*
X92125Y320737D01*
X92156Y320706D01*
X92194Y320645D01*
X92248Y320568D01*
X92294Y320468D01*
X92340Y320353D01*
X92371Y320222D01*
X92378Y320076D01*
Y320069D01*
Y320030D01*
X92371Y319977D01*
Y319915D01*
X92355Y319831D01*
X92340Y319746D01*
X92317Y319654D01*
X92286Y319554D01*
X92279Y319547D01*
X92271Y319508D01*
X92248Y319454D01*
X92217Y319385D01*
X92171Y319293D01*
X92117Y319186D01*
X92048Y319063D01*
X91964Y318932D01*
X91956Y318917D01*
X91941Y318901D01*
X91925Y318878D01*
X91902Y318848D01*
X91879Y318809D01*
X91841Y318763D01*
X91795Y318702D01*
X91749Y318640D01*
X91687Y318564D01*
X91618Y318471D01*
X91541Y318372D01*
X91457Y318264D01*
X91357Y318141D01*
X91250Y318011D01*
X91134Y317865D01*
X91764Y318041D01*
X91772D01*
X91802Y318057D01*
X91848Y318072D01*
X91910Y318095D01*
X91994Y318133D01*
X92094Y318187D01*
X92225Y318249D01*
X92371Y318325D01*
X92378D01*
X92394Y318333D01*
X92409Y318349D01*
X92440Y318364D01*
X92517Y318402D01*
X92609Y318456D01*
X92701Y318502D01*
X92793Y318541D01*
X92870Y318571D01*
X92931Y318579D01*
X92977D01*
X93031Y318571D01*
X93093Y318548D01*
X93146Y318525D01*
X93200Y318487D01*
X93231Y318433D01*
X93246Y318356D01*
Y318349D01*
Y318325D01*
X93239Y318279D01*
X93231Y318233D01*
X93216Y318179D01*
X93192Y318118D01*
X93162Y318057D01*
X93116Y317995D01*
X93108Y317987D01*
X93093Y317972D01*
X93062Y317949D01*
X93024Y317926D01*
X92970Y317895D01*
X92908Y317872D01*
X92839Y317857D01*
X92755Y317849D01*
X92678D01*
X92639Y317842D01*
X92593D01*
X92532Y317834D01*
X92463Y317826D01*
X92386Y317819D01*
X92309Y317811D01*
X92217Y317795D01*
X92117Y317780D01*
X92002Y317765D01*
X91887Y317742D01*
X91764Y317719D01*
X91633Y317688D01*
X91618D01*
X91580Y317673D01*
X91526Y317665D01*
X91457Y317642D01*
X91372Y317627D01*
X91280Y317603D01*
X91196Y317573D01*
X91111Y317550D01*
X91104D01*
X91080Y317542D01*
X91042Y317527D01*
X90996Y317511D01*
X90904Y317473D01*
X90858Y317450D01*
X90827Y317427D01*
X90819Y317419D01*
X90781Y317389D01*
X90727Y317335D01*
X90689Y317296D01*
X90643Y317250D01*
X90635Y317243D01*
X90612Y317219D01*
X90581Y317189D01*
X90543Y317150D01*
X90497Y317112D01*
X90458Y317081D01*
X90428Y317058D01*
X90405Y317051D01*
X90389D01*
X90343Y317058D01*
X90289Y317081D01*
X90236Y317127D01*
X90228Y317143D01*
X90205Y317181D01*
X90174Y317250D01*
X90167Y317342D01*
Y317350D01*
X90174Y317373D01*
X90182Y317404D01*
X90197Y317458D01*
X90228Y317534D01*
X90274Y317627D01*
X90336Y317742D01*
X90420Y317880D01*
Y317888D01*
X90435Y317895D01*
X90443Y317918D01*
X90466Y317949D01*
X90520Y318034D01*
X90589Y318141D01*
X90681Y318272D01*
X90781Y318418D01*
X90896Y318579D01*
X91027Y318748D01*
X91034Y318763D01*
X91065Y318802D01*
X91111Y318863D01*
X91165Y318948D01*
X91226Y319055D01*
X91296Y319170D01*
X91372Y319308D01*
X91442Y319454D01*
Y319462D01*
X91449Y319470D01*
X91457Y319493D01*
X91472Y319524D01*
X91503Y319593D01*
X91541Y319685D01*
X91572Y319792D01*
X91603Y319892D01*
X91626Y320000D01*
X91633Y320092D01*
Y320099D01*
Y320123D01*
Y320153D01*
X91626Y320192D01*
X91618Y320269D01*
X91603Y320299D01*
X91587Y320322D01*
X91580Y320330D01*
X91549Y320353D01*
X91518Y320361D01*
X91487Y320368D01*
X91442Y320376D01*
X91372D01*
X91334Y320368D01*
X91265Y320338D01*
X91226Y320315D01*
X91173Y320291D01*
X91119Y320253D01*
X91057Y320207D01*
X90988Y320146D01*
X90919Y320084D01*
X90842Y320000D01*
X90758Y319907D01*
X90666Y319800D01*
X90574Y319677D01*
X90566Y319670D01*
X90535Y319639D01*
X90482Y319600D01*
X90405Y319562D01*
X90397D01*
X90382Y319554D01*
X90359Y319547D01*
X90328Y319539D01*
X90243Y319524D01*
X90151Y319516D01*
X90128D01*
X90082Y319531D01*
X90051Y319547D01*
X90013Y319570D01*
X89982Y319600D01*
X89951Y319639D01*
Y319646D01*
X89944Y319662D01*
X89929Y319692D01*
X89921Y319723D01*
X89906Y319769D01*
X89890Y319823D01*
X89882Y319946D01*
Y319954D01*
X89890Y319984D01*
X89898Y320023D01*
X89921Y320076D01*
X89951Y320138D01*
X89998Y320207D01*
X90067Y320276D01*
X90159Y320345D01*
X90167Y320353D01*
X90190Y320368D01*
X90213Y320384D01*
X90243Y320407D01*
X90282Y320430D01*
X90328Y320468D01*
X90336Y320476D01*
X90359Y320491D01*
X90397Y320522D01*
X90443Y320560D01*
X90504Y320599D01*
X90574Y320645D01*
X90735Y320752D01*
X90912Y320860D01*
X91096Y320944D01*
X91188Y320983D01*
X91272Y321013D01*
X91349Y321029D01*
X91426Y321037D01*
X91465D01*
X91495Y321029D01*
D02*
G37*
G36*
X77018Y320291D02*
X77095Y320284D01*
X77187Y320269D01*
X77295Y320253D01*
X77402Y320222D01*
X77510Y320184D01*
X77525Y320176D01*
X77556Y320161D01*
X77610Y320138D01*
X77679Y320099D01*
X77756Y320061D01*
X77840Y320007D01*
X77925Y319946D01*
X78001Y319877D01*
X78009Y319869D01*
X78032Y319846D01*
X78071Y319808D01*
X78109Y319762D01*
X78140Y319708D01*
X78178Y319654D01*
X78201Y319593D01*
X78209Y319531D01*
Y319524D01*
Y319500D01*
Y319470D01*
X78201Y319431D01*
X78193Y319339D01*
X78186Y319301D01*
X78170Y319262D01*
X78163Y319247D01*
X78140Y319209D01*
X78101Y319163D01*
X78048Y319101D01*
X78040D01*
X78025Y319086D01*
X78001Y319063D01*
X77948Y319040D01*
X77886Y318994D01*
X77794Y318940D01*
X77671Y318871D01*
X77602Y318832D01*
X77525Y318786D01*
X77518D01*
X77510Y318779D01*
X77487Y318763D01*
X77456Y318748D01*
X77387Y318709D01*
X77303Y318663D01*
X77218Y318610D01*
X77134Y318564D01*
X77072Y318525D01*
X77049Y318510D01*
X77034Y318502D01*
Y318333D01*
Y318325D01*
Y318295D01*
X77042Y318249D01*
Y318195D01*
X77049Y318126D01*
X77065Y318057D01*
X77103Y317918D01*
Y317911D01*
X77118Y317888D01*
X77126Y317865D01*
X77149Y317834D01*
X77172Y317795D01*
X77195Y317773D01*
X77226Y317750D01*
X77257Y317742D01*
X77264D01*
X77287Y317750D01*
X77326Y317765D01*
X77379Y317795D01*
X77456Y317842D01*
X77548Y317911D01*
X77602Y317957D01*
X77663Y318018D01*
X77725Y318080D01*
X77794Y318149D01*
X77810Y318164D01*
X77848Y318203D01*
X77902Y318256D01*
X77963Y318318D01*
X78032Y318387D01*
X78101Y318456D01*
X78163Y318510D01*
X78209Y318548D01*
X78216D01*
X78224Y318564D01*
X78270Y318587D01*
X78332Y318610D01*
X78401Y318625D01*
X78439D01*
X78478Y318617D01*
X78531Y318602D01*
X78578Y318571D01*
X78616Y318533D01*
X78647Y318479D01*
X78654Y318410D01*
Y318402D01*
X78647Y318364D01*
X78616Y318310D01*
X78593Y318272D01*
X78562Y318226D01*
X78524Y318172D01*
X78470Y318118D01*
X78416Y318049D01*
X78339Y317980D01*
X78255Y317903D01*
X78155Y317811D01*
X78040Y317719D01*
X77909Y317619D01*
X77902D01*
X77886Y317603D01*
X77856Y317581D01*
X77810Y317542D01*
X77802Y317534D01*
X77779Y317519D01*
X77748Y317496D01*
X77710Y317465D01*
X77656Y317427D01*
X77602Y317381D01*
X77479Y317296D01*
X77341Y317204D01*
X77218Y317120D01*
X77157Y317089D01*
X77111Y317066D01*
X77065Y317051D01*
X77034Y317043D01*
X77018D01*
X76988Y317051D01*
X76926Y317058D01*
X76857Y317089D01*
X76780Y317127D01*
X76696Y317189D01*
X76611Y317281D01*
X76573Y317335D01*
X76535Y317396D01*
Y317404D01*
X76527Y317411D01*
X76504Y317458D01*
X76473Y317534D01*
X76442Y317627D01*
X76404Y317742D01*
X76373Y317880D01*
X76350Y318026D01*
X76343Y318187D01*
Y318310D01*
X76335D01*
X76304Y318302D01*
X76258Y318295D01*
X76197Y318287D01*
X76189D01*
X76166Y318295D01*
X76135Y318318D01*
X76104Y318356D01*
X76097Y318372D01*
X76089Y318402D01*
X76074Y318441D01*
X76066Y318487D01*
Y318494D01*
Y318510D01*
Y318533D01*
X76074Y318564D01*
X76089Y318633D01*
X76112Y318686D01*
X76120Y318694D01*
X76135Y318709D01*
X76158Y318725D01*
X76189Y318748D01*
X76220Y318771D01*
X76274Y318794D01*
X76327Y318817D01*
Y318825D01*
Y318832D01*
Y318878D01*
X76335Y318955D01*
Y319047D01*
X76350Y319155D01*
X76366Y319270D01*
X76381Y319393D01*
X76412Y319516D01*
Y319524D01*
X76419Y319531D01*
X76427Y319570D01*
X76450Y319631D01*
X76473Y319708D01*
X76504Y319800D01*
X76542Y319892D01*
X76588Y319984D01*
X76642Y320069D01*
X76650Y320076D01*
X76665Y320107D01*
X76696Y320146D01*
X76727Y320184D01*
X76773Y320230D01*
X76811Y320261D01*
X76857Y320291D01*
X76903Y320299D01*
X76957D01*
X77018Y320291D01*
D02*
G37*
G36*
X79561Y320000D02*
X79614Y319992D01*
X79676Y319969D01*
X79729Y319938D01*
X79783Y319884D01*
X79822Y319815D01*
X79837Y319777D01*
Y319723D01*
Y319708D01*
Y319692D01*
Y319662D01*
X79829Y319623D01*
Y319570D01*
X79822Y319508D01*
X79814Y319424D01*
Y319416D01*
Y319408D01*
Y319385D01*
X79806Y319355D01*
Y319278D01*
X79799Y319186D01*
X79791Y319078D01*
Y318978D01*
X79783Y318878D01*
Y318794D01*
Y318786D01*
Y318756D01*
Y318702D01*
X79791Y318663D01*
Y318617D01*
Y318564D01*
X79799Y318502D01*
X79806Y318433D01*
Y318356D01*
X79814Y318264D01*
X79822Y318164D01*
X79837Y318057D01*
X79845Y317941D01*
Y317934D01*
Y317918D01*
X79852Y317903D01*
Y317872D01*
X79860Y317795D01*
X79868Y317703D01*
X79875Y317611D01*
X79883Y317519D01*
X79891Y317450D01*
Y317419D01*
Y317396D01*
Y317389D01*
Y317366D01*
X79883Y317335D01*
X79875Y317289D01*
X79860Y317243D01*
X79845Y317189D01*
X79814Y317135D01*
X79776Y317089D01*
X79768Y317081D01*
X79760Y317074D01*
X79737Y317051D01*
X79706Y317035D01*
X79622Y316989D01*
X79568Y316982D01*
X79514Y316974D01*
X79499D01*
X79453Y316982D01*
X79391Y316989D01*
X79322Y317020D01*
X79246Y317058D01*
X79184Y317120D01*
X79138Y317212D01*
X79130Y317266D01*
X79123Y317327D01*
Y317335D01*
Y317350D01*
Y317381D01*
Y317435D01*
X79115Y317511D01*
Y317565D01*
X79107Y317619D01*
Y317680D01*
X79100Y317757D01*
Y317842D01*
X79092Y317934D01*
Y317949D01*
Y317987D01*
X79084Y318049D01*
Y318126D01*
X79077Y318226D01*
Y318341D01*
X79069Y318464D01*
Y318594D01*
X79054Y318871D01*
X79046Y319147D01*
Y319278D01*
X79038Y319401D01*
Y319508D01*
Y319608D01*
Y319616D01*
Y319639D01*
X79046Y319670D01*
X79054Y319708D01*
X79069Y319754D01*
X79092Y319800D01*
X79123Y319846D01*
X79169Y319892D01*
X79176Y319900D01*
X79192Y319907D01*
X79223Y319931D01*
X79261Y319954D01*
X79315Y319969D01*
X79369Y319992D01*
X79438Y320000D01*
X79507Y320007D01*
X79522D01*
X79561Y320000D01*
D02*
G37*
G36*
X72326Y321904D02*
X72387Y321897D01*
X72457Y321881D01*
X72526Y321843D01*
X72587Y321797D01*
X72633Y321728D01*
X72641Y321682D01*
X72649Y321636D01*
Y321628D01*
Y321605D01*
Y321574D01*
Y321520D01*
Y321467D01*
Y321390D01*
Y321305D01*
X72656Y321213D01*
Y321113D01*
Y320998D01*
Y320875D01*
X72664Y320745D01*
X72672Y320461D01*
X72679Y320153D01*
Y320146D01*
Y320123D01*
Y320092D01*
X72687Y320046D01*
Y319992D01*
Y319931D01*
X72695Y319792D01*
X72710Y319631D01*
X72718Y319462D01*
X72733Y319301D01*
X72748Y319155D01*
Y319147D01*
Y319140D01*
X72756Y319116D01*
Y319086D01*
X72764Y319047D01*
X72771Y319001D01*
X72787Y318940D01*
X72794Y318871D01*
X72810Y318794D01*
X72825Y318709D01*
X72840Y318610D01*
X72856Y318502D01*
X72879Y318387D01*
X72902Y318256D01*
X72925Y318118D01*
X72956Y317972D01*
Y317965D01*
X72963Y317941D01*
X72971Y317911D01*
X72979Y317865D01*
X72986Y317811D01*
X72994Y317750D01*
X73025Y317619D01*
X73048Y317488D01*
X73063Y317358D01*
X73071Y317304D01*
X73079Y317258D01*
X73086Y317227D01*
Y317204D01*
Y317196D01*
Y317174D01*
X73079Y317143D01*
Y317112D01*
X73048Y317027D01*
X73032Y316997D01*
X73002Y316966D01*
X72986Y316958D01*
X72963Y316951D01*
X72933Y316935D01*
X72894Y316928D01*
X72848Y316912D01*
X72794Y316905D01*
X72672D01*
X72633Y316912D01*
X72556Y316928D01*
X72518Y316943D01*
X72487Y316958D01*
X72472Y316966D01*
X72449Y316989D01*
X72418Y317027D01*
X72395Y317081D01*
Y317089D01*
X72387Y317120D01*
X72380Y317166D01*
X72372Y317204D01*
X72364Y317250D01*
Y317258D01*
X72357Y317273D01*
Y317304D01*
X72349Y317350D01*
X72341Y317404D01*
X72326Y317465D01*
X72318Y317542D01*
X72303Y317634D01*
Y317627D01*
X72295Y317603D01*
X72280Y317573D01*
X72257Y317534D01*
X72218Y317488D01*
X72165Y317442D01*
X72096Y317396D01*
X72003Y317358D01*
X71988Y317350D01*
X71957Y317342D01*
X71904Y317327D01*
X71827Y317312D01*
X71735Y317289D01*
X71627Y317273D01*
X71504Y317266D01*
X71366Y317258D01*
X71312D01*
X71274Y317266D01*
X71228D01*
X71174Y317273D01*
X71043Y317296D01*
X70898Y317327D01*
X70744Y317381D01*
X70598Y317450D01*
X70460Y317542D01*
X70444Y317558D01*
X70406Y317596D01*
X70352Y317657D01*
X70291Y317734D01*
X70222Y317834D01*
X70168Y317957D01*
X70130Y318087D01*
X70122Y318157D01*
X70114Y318226D01*
Y318233D01*
Y318264D01*
X70122Y318302D01*
Y318356D01*
X70137Y318425D01*
X70152Y318502D01*
X70168Y318587D01*
X70199Y318686D01*
X70237Y318786D01*
X70283Y318901D01*
X70337Y319009D01*
X70406Y319124D01*
X70483Y319239D01*
X70575Y319362D01*
X70675Y319478D01*
X70798Y319585D01*
X70813Y319593D01*
X70844Y319623D01*
X70905Y319670D01*
X70982Y319723D01*
X71074Y319785D01*
X71182Y319854D01*
X71305Y319915D01*
X71435Y319984D01*
X71443D01*
X71450Y319992D01*
X71496Y320015D01*
X71558Y320038D01*
X71635Y320076D01*
X71719Y320107D01*
X71804Y320130D01*
X71881Y320153D01*
X71950Y320161D01*
Y320169D01*
Y320176D01*
X71942Y320207D01*
Y320253D01*
X71927Y320322D01*
X71919Y320407D01*
X71904Y320522D01*
X71888Y320591D01*
X71881Y320668D01*
Y320675D01*
Y320706D01*
X71873Y320745D01*
X71865Y320798D01*
X71858Y320860D01*
X71850Y320929D01*
X71834Y321090D01*
X71819Y321252D01*
X71811Y321321D01*
X71804Y321397D01*
X71796Y321459D01*
Y321505D01*
X71788Y321543D01*
Y321566D01*
Y321574D01*
Y321589D01*
X71796Y321620D01*
X71804Y321651D01*
X71819Y321689D01*
X71842Y321735D01*
X71873Y321774D01*
X71911Y321812D01*
X71919Y321820D01*
X71934Y321828D01*
X71965Y321843D01*
X72003Y321866D01*
X72057Y321881D01*
X72119Y321897D01*
X72188Y321904D01*
X72264Y321912D01*
X72280D01*
X72326Y321904D01*
D02*
G37*
G36*
X86857Y317527D02*
X86895Y317519D01*
X86995Y317488D01*
X87041Y317465D01*
X87095Y317427D01*
X87102Y317419D01*
X87118Y317411D01*
X87171Y317366D01*
X87217Y317296D01*
X87233Y317266D01*
X87240Y317227D01*
Y317219D01*
Y317212D01*
X87233Y317189D01*
X87225Y317150D01*
X87202Y317104D01*
X87179Y317043D01*
X87141Y316966D01*
X87087Y316874D01*
X87079Y316859D01*
X87056Y316828D01*
X87025Y316782D01*
X86987Y316720D01*
X86933Y316651D01*
X86872Y316574D01*
X86803Y316505D01*
X86726Y316444D01*
X86718Y316436D01*
X86695Y316421D01*
X86657Y316390D01*
X86611Y316367D01*
X86503Y316306D01*
X86457Y316290D01*
X86411Y316283D01*
X86365D01*
X86334Y316290D01*
X86265Y316306D01*
X86188Y316344D01*
X86173Y316352D01*
X86142Y316390D01*
X86111Y316436D01*
X86104Y316467D01*
X86096Y316498D01*
Y316505D01*
Y316521D01*
X86104Y316544D01*
X86119Y316582D01*
X86142Y316628D01*
X86173Y316690D01*
X86219Y316766D01*
X86281Y316851D01*
X86288Y316859D01*
X86296Y316874D01*
X86319Y316897D01*
X86342Y316935D01*
X86373Y316982D01*
X86403Y317035D01*
X86449Y317097D01*
X86488Y317174D01*
X86496Y317181D01*
X86511Y317212D01*
X86534Y317250D01*
X86557Y317296D01*
X86618Y317396D01*
X86649Y317435D01*
X86672Y317465D01*
X86680Y317473D01*
X86711Y317504D01*
X86757Y317527D01*
X86803Y317534D01*
X86826D01*
X86857Y317527D01*
D02*
G37*
G36*
X51569Y328712D02*
X51662Y328699D01*
X51769Y328659D01*
X51876Y328619D01*
X51995Y328552D01*
X52102Y328459D01*
X52115Y328446D01*
X52155Y328406D01*
X52208Y328353D01*
X52261Y328259D01*
X52341Y328153D01*
X52408Y328020D01*
X52474Y327860D01*
X52541Y327687D01*
X52554Y327661D01*
Y327634D01*
X52568Y327581D01*
X52581Y327514D01*
X52594Y327434D01*
X52608Y327341D01*
X52621Y327221D01*
X52634Y327088D01*
X52661Y326928D01*
X52674Y326742D01*
X52687Y326542D01*
X52701Y326303D01*
X52714Y326050D01*
X52727Y325770D01*
X52741Y325451D01*
Y325438D01*
Y325398D01*
Y325345D01*
X52754Y325265D01*
Y325145D01*
X52767Y325012D01*
Y324852D01*
X52780Y324666D01*
Y324639D01*
X52794Y324586D01*
Y324493D01*
X52807Y324386D01*
X52820Y324160D01*
X52834Y324054D01*
Y323974D01*
Y323960D01*
Y323934D01*
X52820Y323881D01*
X52807Y323827D01*
X52780Y323747D01*
X52727Y323681D01*
X52674Y323601D01*
X52594Y323521D01*
X52581Y323508D01*
X52554Y323495D01*
X52501Y323468D01*
X52434Y323428D01*
X52355Y323388D01*
X52275Y323361D01*
X52168Y323348D01*
X52062Y323335D01*
X52009D01*
X51955Y323348D01*
X51889D01*
X51716Y323388D01*
X51556Y323468D01*
X51543Y323481D01*
X51529Y323495D01*
X51463Y323574D01*
X51383Y323681D01*
X51370Y323761D01*
X51356Y323841D01*
Y323854D01*
Y323867D01*
Y323920D01*
Y323987D01*
Y324067D01*
Y324187D01*
X51370Y324333D01*
Y324519D01*
Y324533D01*
Y324546D01*
Y324586D01*
Y324639D01*
X51383Y324759D01*
Y324919D01*
Y325078D01*
X51396Y325238D01*
Y325384D01*
Y325504D01*
Y325518D01*
Y325544D01*
Y325584D01*
Y325664D01*
Y325677D01*
Y325704D01*
X51410Y325784D01*
Y325890D01*
Y325997D01*
Y326023D01*
Y326077D01*
Y326170D01*
X51396Y326276D01*
Y326423D01*
X51383Y326569D01*
X51356Y326915D01*
X51290Y327248D01*
X51263Y327394D01*
X51210Y327541D01*
X51157Y327647D01*
X51104Y327740D01*
X51024Y327794D01*
X50944Y327820D01*
X50904D01*
X50837Y327807D01*
X50771Y327780D01*
X50678Y327740D01*
X50571Y327687D01*
X50451Y327621D01*
X50331Y327514D01*
X50318Y327501D01*
X50278Y327461D01*
X50212Y327394D01*
X50132Y327301D01*
X50052Y327195D01*
X49959Y327048D01*
X49879Y326902D01*
X49799Y326729D01*
X49786Y326702D01*
X49773Y326649D01*
X49746Y326542D01*
X49706Y326423D01*
X49666Y326263D01*
X49639Y326077D01*
X49626Y325877D01*
X49613Y325664D01*
Y325651D01*
Y325624D01*
Y325558D01*
X49626Y325464D01*
X49639Y325331D01*
X49653Y325158D01*
X49679Y324945D01*
X49719Y324679D01*
Y324666D01*
Y324639D01*
X49733Y324599D01*
X49746Y324546D01*
X49759Y324386D01*
X49786Y324213D01*
X49812Y324014D01*
X49826Y323827D01*
X49852Y323668D01*
Y323588D01*
Y323534D01*
Y323521D01*
Y323508D01*
X49826Y323441D01*
X49786Y323348D01*
X49733Y323295D01*
X49679Y323255D01*
X49666D01*
X49653Y323242D01*
X49573Y323202D01*
X49453Y323162D01*
X49307Y323148D01*
X49227D01*
X49134Y323162D01*
X49027Y323188D01*
X48907Y323228D01*
X48801Y323295D01*
X48694Y323375D01*
X48614Y323495D01*
Y323508D01*
X48588Y323561D01*
X48561Y323654D01*
X48535Y323787D01*
X48495Y323974D01*
X48481Y324080D01*
X48468Y324200D01*
X48441Y324333D01*
X48428Y324493D01*
X48401Y324653D01*
X48388Y324839D01*
Y324852D01*
Y324905D01*
X48375Y324985D01*
X48362Y325078D01*
X48348Y325291D01*
X48335Y325384D01*
X48322Y325478D01*
Y325504D01*
X48308Y325558D01*
X48295Y325651D01*
X48282Y325784D01*
X48268Y325930D01*
X48255Y326090D01*
X48215Y326449D01*
X48162Y326822D01*
X48149Y327008D01*
X48135Y327168D01*
X48122Y327328D01*
X48109Y327448D01*
X48095Y327541D01*
Y327607D01*
Y327621D01*
Y327647D01*
Y327674D01*
X48109Y327727D01*
X48135Y327860D01*
X48189Y328007D01*
X48282Y328140D01*
X48415Y328273D01*
X48495Y328326D01*
X48601Y328353D01*
X48708Y328379D01*
X48841Y328393D01*
X48894D01*
X48961Y328379D01*
X49027Y328366D01*
X49200Y328313D01*
X49267Y328273D01*
X49333Y328206D01*
X49347Y328193D01*
X49360Y328166D01*
X49387Y328126D01*
X49426Y328060D01*
X49453Y327980D01*
X49493Y327873D01*
X49520Y327740D01*
X49546Y327594D01*
X49560Y327621D01*
X49613Y327687D01*
X49693Y327780D01*
X49799Y327900D01*
X49919Y328033D01*
X50065Y328180D01*
X50238Y328313D01*
X50411Y328432D01*
X50438Y328446D01*
X50491Y328472D01*
X50598Y328526D01*
X50718Y328579D01*
X50877Y328632D01*
X51050Y328685D01*
X51237Y328712D01*
X51423Y328725D01*
X51490D01*
X51569Y328712D01*
D02*
G37*
G36*
X44661Y328885D02*
X44794Y328872D01*
X44954Y328845D01*
X45141Y328818D01*
X45327Y328765D01*
X45513Y328699D01*
X45540Y328685D01*
X45593Y328659D01*
X45686Y328619D01*
X45806Y328552D01*
X45939Y328486D01*
X46086Y328393D01*
X46232Y328286D01*
X46365Y328166D01*
X46378Y328153D01*
X46418Y328113D01*
X46485Y328046D01*
X46551Y327967D01*
X46605Y327873D01*
X46671Y327780D01*
X46711Y327674D01*
X46725Y327567D01*
Y327554D01*
Y327514D01*
Y327461D01*
X46711Y327394D01*
X46698Y327235D01*
X46685Y327168D01*
X46658Y327101D01*
X46645Y327075D01*
X46605Y327008D01*
X46538Y326928D01*
X46445Y326822D01*
X46432D01*
X46405Y326795D01*
X46365Y326755D01*
X46272Y326715D01*
X46165Y326636D01*
X46006Y326542D01*
X45793Y326423D01*
X45673Y326356D01*
X45540Y326276D01*
X45527D01*
X45513Y326263D01*
X45473Y326236D01*
X45420Y326210D01*
X45300Y326143D01*
X45154Y326063D01*
X45008Y325970D01*
X44861Y325890D01*
X44755Y325824D01*
X44715Y325797D01*
X44688Y325784D01*
Y325491D01*
Y325478D01*
Y325425D01*
X44701Y325345D01*
Y325252D01*
X44715Y325132D01*
X44741Y325012D01*
X44808Y324772D01*
Y324759D01*
X44835Y324719D01*
X44848Y324679D01*
X44888Y324626D01*
X44928Y324559D01*
X44968Y324519D01*
X45021Y324480D01*
X45074Y324466D01*
X45087D01*
X45127Y324480D01*
X45194Y324506D01*
X45287Y324559D01*
X45420Y324639D01*
X45580Y324759D01*
X45673Y324839D01*
X45779Y324945D01*
X45886Y325052D01*
X46006Y325172D01*
X46032Y325198D01*
X46099Y325265D01*
X46192Y325358D01*
X46299Y325464D01*
X46418Y325584D01*
X46538Y325704D01*
X46645Y325797D01*
X46725Y325864D01*
X46738D01*
X46751Y325890D01*
X46831Y325930D01*
X46937Y325970D01*
X47057Y325997D01*
X47124D01*
X47190Y325984D01*
X47284Y325957D01*
X47363Y325904D01*
X47430Y325837D01*
X47483Y325744D01*
X47497Y325624D01*
Y325611D01*
X47483Y325544D01*
X47430Y325451D01*
X47390Y325384D01*
X47337Y325305D01*
X47270Y325212D01*
X47177Y325118D01*
X47084Y324999D01*
X46951Y324879D01*
X46804Y324746D01*
X46631Y324586D01*
X46432Y324426D01*
X46205Y324253D01*
X46192D01*
X46165Y324227D01*
X46112Y324187D01*
X46032Y324120D01*
X46019Y324107D01*
X45979Y324080D01*
X45926Y324040D01*
X45859Y323987D01*
X45766Y323920D01*
X45673Y323841D01*
X45460Y323694D01*
X45220Y323534D01*
X45008Y323388D01*
X44901Y323335D01*
X44821Y323295D01*
X44741Y323268D01*
X44688Y323255D01*
X44661D01*
X44608Y323268D01*
X44502Y323282D01*
X44382Y323335D01*
X44249Y323401D01*
X44102Y323508D01*
X43956Y323668D01*
X43889Y323761D01*
X43823Y323867D01*
Y323881D01*
X43810Y323894D01*
X43770Y323974D01*
X43716Y324107D01*
X43663Y324267D01*
X43597Y324466D01*
X43543Y324706D01*
X43503Y324959D01*
X43490Y325238D01*
Y325451D01*
X43477D01*
X43424Y325438D01*
X43344Y325425D01*
X43237Y325411D01*
X43224D01*
X43184Y325425D01*
X43131Y325464D01*
X43077Y325531D01*
X43064Y325558D01*
X43051Y325611D01*
X43024Y325677D01*
X43011Y325757D01*
Y325770D01*
Y325797D01*
Y325837D01*
X43024Y325890D01*
X43051Y326010D01*
X43091Y326103D01*
X43104Y326117D01*
X43131Y326143D01*
X43171Y326170D01*
X43224Y326210D01*
X43277Y326250D01*
X43370Y326290D01*
X43464Y326330D01*
Y326343D01*
Y326356D01*
Y326436D01*
X43477Y326569D01*
Y326729D01*
X43503Y326915D01*
X43530Y327115D01*
X43557Y327328D01*
X43610Y327541D01*
Y327554D01*
X43623Y327567D01*
X43637Y327634D01*
X43676Y327740D01*
X43716Y327873D01*
X43770Y328033D01*
X43836Y328193D01*
X43916Y328353D01*
X44009Y328499D01*
X44023Y328512D01*
X44049Y328566D01*
X44102Y328632D01*
X44156Y328699D01*
X44236Y328779D01*
X44302Y328832D01*
X44382Y328885D01*
X44462Y328898D01*
X44555D01*
X44661Y328885D01*
D02*
G37*
G36*
X34426D02*
X34559Y328872D01*
X34719Y328845D01*
X34905Y328818D01*
X35092Y328765D01*
X35278Y328699D01*
X35304Y328685D01*
X35358Y328659D01*
X35451Y328619D01*
X35571Y328552D01*
X35704Y328486D01*
X35850Y328393D01*
X35997Y328286D01*
X36130Y328166D01*
X36143Y328153D01*
X36183Y328113D01*
X36250Y328046D01*
X36316Y327967D01*
X36369Y327873D01*
X36436Y327780D01*
X36476Y327674D01*
X36489Y327567D01*
Y327554D01*
Y327514D01*
Y327461D01*
X36476Y327394D01*
X36463Y327235D01*
X36449Y327168D01*
X36423Y327101D01*
X36409Y327075D01*
X36369Y327008D01*
X36303Y326928D01*
X36210Y326822D01*
X36196D01*
X36170Y326795D01*
X36130Y326755D01*
X36037Y326715D01*
X35930Y326636D01*
X35770Y326542D01*
X35557Y326423D01*
X35438Y326356D01*
X35304Y326276D01*
X35291D01*
X35278Y326263D01*
X35238Y326236D01*
X35185Y326210D01*
X35065Y326143D01*
X34918Y326063D01*
X34772Y325970D01*
X34626Y325890D01*
X34519Y325824D01*
X34479Y325797D01*
X34453Y325784D01*
Y325491D01*
Y325478D01*
Y325425D01*
X34466Y325345D01*
Y325252D01*
X34479Y325132D01*
X34506Y325012D01*
X34572Y324772D01*
Y324759D01*
X34599Y324719D01*
X34612Y324679D01*
X34652Y324626D01*
X34692Y324559D01*
X34732Y324519D01*
X34785Y324480D01*
X34839Y324466D01*
X34852D01*
X34892Y324480D01*
X34958Y324506D01*
X35052Y324559D01*
X35185Y324639D01*
X35344Y324759D01*
X35438Y324839D01*
X35544Y324945D01*
X35651Y325052D01*
X35770Y325172D01*
X35797Y325198D01*
X35864Y325265D01*
X35957Y325358D01*
X36063Y325464D01*
X36183Y325584D01*
X36303Y325704D01*
X36409Y325797D01*
X36489Y325864D01*
X36502D01*
X36516Y325890D01*
X36596Y325930D01*
X36702Y325970D01*
X36822Y325997D01*
X36888D01*
X36955Y325984D01*
X37048Y325957D01*
X37128Y325904D01*
X37194Y325837D01*
X37248Y325744D01*
X37261Y325624D01*
Y325611D01*
X37248Y325544D01*
X37194Y325451D01*
X37155Y325384D01*
X37101Y325305D01*
X37035Y325212D01*
X36942Y325118D01*
X36849Y324999D01*
X36715Y324879D01*
X36569Y324746D01*
X36396Y324586D01*
X36196Y324426D01*
X35970Y324253D01*
X35957D01*
X35930Y324227D01*
X35877Y324187D01*
X35797Y324120D01*
X35784Y324107D01*
X35744Y324080D01*
X35691Y324040D01*
X35624Y323987D01*
X35531Y323920D01*
X35438Y323841D01*
X35225Y323694D01*
X34985Y323534D01*
X34772Y323388D01*
X34666Y323335D01*
X34586Y323295D01*
X34506Y323268D01*
X34453Y323255D01*
X34426D01*
X34373Y323268D01*
X34266Y323282D01*
X34146Y323335D01*
X34013Y323401D01*
X33867Y323508D01*
X33721Y323668D01*
X33654Y323761D01*
X33588Y323867D01*
Y323881D01*
X33574Y323894D01*
X33534Y323974D01*
X33481Y324107D01*
X33428Y324267D01*
X33361Y324466D01*
X33308Y324706D01*
X33268Y324959D01*
X33255Y325238D01*
Y325451D01*
X33241D01*
X33188Y325438D01*
X33108Y325425D01*
X33002Y325411D01*
X32989D01*
X32949Y325425D01*
X32895Y325464D01*
X32842Y325531D01*
X32829Y325558D01*
X32816Y325611D01*
X32789Y325677D01*
X32776Y325757D01*
Y325770D01*
Y325797D01*
Y325837D01*
X32789Y325890D01*
X32816Y326010D01*
X32855Y326103D01*
X32869Y326117D01*
X32895Y326143D01*
X32935Y326170D01*
X32989Y326210D01*
X33042Y326250D01*
X33135Y326290D01*
X33228Y326330D01*
Y326343D01*
Y326356D01*
Y326436D01*
X33241Y326569D01*
Y326729D01*
X33268Y326915D01*
X33295Y327115D01*
X33321Y327328D01*
X33375Y327541D01*
Y327554D01*
X33388Y327567D01*
X33401Y327634D01*
X33441Y327740D01*
X33481Y327873D01*
X33534Y328033D01*
X33601Y328193D01*
X33681Y328353D01*
X33774Y328499D01*
X33787Y328512D01*
X33814Y328566D01*
X33867Y328632D01*
X33920Y328699D01*
X34000Y328779D01*
X34067Y328832D01*
X34146Y328885D01*
X34226Y328898D01*
X34320D01*
X34426Y328885D01*
D02*
G37*
G36*
X41134Y331680D02*
X41294Y331640D01*
X41454Y331574D01*
X41467D01*
X41494Y331547D01*
X41560Y331481D01*
X41640Y331374D01*
X41653Y331294D01*
X41667Y331214D01*
Y331188D01*
Y331161D01*
Y331108D01*
Y331055D01*
X41653Y330961D01*
Y330868D01*
X41640Y330749D01*
Y330735D01*
Y330722D01*
Y330642D01*
X41627Y330522D01*
Y330376D01*
X41613Y330203D01*
Y330030D01*
X41600Y329870D01*
Y329710D01*
Y329697D01*
Y329630D01*
X41613Y329591D01*
Y329524D01*
Y329444D01*
X41627Y329351D01*
X41640Y329244D01*
X41653Y329111D01*
X41680Y328952D01*
X41693Y328779D01*
X41720Y328592D01*
X41747Y328366D01*
X41787Y328126D01*
X41826Y327847D01*
Y327834D01*
X41840Y327794D01*
Y327727D01*
X41853Y327647D01*
X41866Y327554D01*
X41893Y327448D01*
X41920Y327195D01*
X41960Y326942D01*
X41999Y326689D01*
X42013Y326569D01*
X42026Y326476D01*
X42039Y326383D01*
Y326316D01*
Y326290D01*
X42053Y326223D01*
X42066Y326090D01*
Y326010D01*
X42079Y325917D01*
X42093Y325811D01*
X42119Y325677D01*
X42132Y325544D01*
X42159Y325398D01*
X42199Y325238D01*
X42226Y325052D01*
X42266Y324866D01*
X42306Y324653D01*
Y324639D01*
X42319Y324626D01*
X42332Y324546D01*
X42359Y324426D01*
X42385Y324280D01*
X42412Y324133D01*
X42439Y323987D01*
X42465Y323867D01*
Y323774D01*
Y323761D01*
Y323734D01*
X42452Y323681D01*
X42439Y323628D01*
X42385Y323495D01*
X42345Y323428D01*
X42279Y323375D01*
X42266D01*
X42252Y323348D01*
X42212Y323335D01*
X42159Y323308D01*
X42093Y323282D01*
X42013Y323255D01*
X41920Y323242D01*
X41813Y323228D01*
X41693D01*
X41600Y323242D01*
X41414Y323268D01*
X41227Y323335D01*
X41214D01*
X41188Y323361D01*
X41108Y323428D01*
X41028Y323521D01*
X41001Y323588D01*
X40988Y323668D01*
Y323681D01*
Y323694D01*
X40975Y323747D01*
Y323814D01*
X40961Y323920D01*
X40948Y324040D01*
X40921Y324213D01*
X40895Y324413D01*
Y324426D01*
Y324466D01*
X40881Y324533D01*
X40868Y324613D01*
X40855Y324719D01*
X40841Y324839D01*
X40815Y325118D01*
X40775Y325425D01*
X40748Y325744D01*
X40722Y326050D01*
X40708Y326183D01*
X40695Y326316D01*
Y326343D01*
X40682Y326409D01*
X40668Y326516D01*
Y326596D01*
X40655Y326689D01*
X40642Y326782D01*
X40628Y326902D01*
X40602Y327035D01*
X40589Y327181D01*
X40562Y327354D01*
X40535Y327527D01*
X40509Y327727D01*
X40469Y327940D01*
Y327967D01*
X40455Y328020D01*
X40442Y328113D01*
X40415Y328246D01*
X40402Y328406D01*
X40376Y328579D01*
X40349Y328765D01*
X40322Y328978D01*
X40256Y329417D01*
X40216Y329843D01*
X40189Y330056D01*
X40176Y330256D01*
X40163Y330429D01*
Y330589D01*
Y330602D01*
Y330642D01*
Y330695D01*
X40176Y330762D01*
X40203Y330935D01*
X40269Y331148D01*
X40362Y331347D01*
X40429Y331441D01*
X40509Y331521D01*
X40602Y331587D01*
X40708Y331640D01*
X40828Y331680D01*
X40975Y331694D01*
X41068D01*
X41134Y331680D01*
D02*
G37*
G36*
X38406D02*
X38565Y331640D01*
X38725Y331574D01*
X38739D01*
X38765Y331547D01*
X38832Y331481D01*
X38912Y331374D01*
X38925Y331294D01*
X38938Y331214D01*
Y331188D01*
Y331161D01*
Y331108D01*
Y331055D01*
X38925Y330961D01*
Y330868D01*
X38912Y330749D01*
Y330735D01*
Y330722D01*
Y330642D01*
X38898Y330522D01*
Y330376D01*
X38885Y330203D01*
Y330030D01*
X38872Y329870D01*
Y329710D01*
Y329697D01*
Y329630D01*
X38885Y329591D01*
Y329524D01*
Y329444D01*
X38898Y329351D01*
X38912Y329244D01*
X38925Y329111D01*
X38951Y328952D01*
X38965Y328779D01*
X38991Y328592D01*
X39018Y328366D01*
X39058Y328126D01*
X39098Y327847D01*
Y327834D01*
X39111Y327794D01*
Y327727D01*
X39125Y327647D01*
X39138Y327554D01*
X39164Y327448D01*
X39191Y327195D01*
X39231Y326942D01*
X39271Y326689D01*
X39284Y326569D01*
X39298Y326476D01*
X39311Y326383D01*
Y326316D01*
Y326290D01*
X39324Y326223D01*
X39337Y326090D01*
Y326010D01*
X39351Y325917D01*
X39364Y325811D01*
X39391Y325677D01*
X39404Y325544D01*
X39431Y325398D01*
X39470Y325238D01*
X39497Y325052D01*
X39537Y324866D01*
X39577Y324653D01*
Y324639D01*
X39590Y324626D01*
X39604Y324546D01*
X39630Y324426D01*
X39657Y324280D01*
X39683Y324133D01*
X39710Y323987D01*
X39737Y323867D01*
Y323774D01*
Y323761D01*
Y323734D01*
X39723Y323681D01*
X39710Y323628D01*
X39657Y323495D01*
X39617Y323428D01*
X39550Y323375D01*
X39537D01*
X39524Y323348D01*
X39484Y323335D01*
X39431Y323308D01*
X39364Y323282D01*
X39284Y323255D01*
X39191Y323242D01*
X39085Y323228D01*
X38965D01*
X38872Y323242D01*
X38685Y323268D01*
X38499Y323335D01*
X38486D01*
X38459Y323361D01*
X38379Y323428D01*
X38299Y323521D01*
X38273Y323588D01*
X38259Y323668D01*
Y323681D01*
Y323694D01*
X38246Y323747D01*
Y323814D01*
X38233Y323920D01*
X38219Y324040D01*
X38193Y324213D01*
X38166Y324413D01*
Y324426D01*
Y324466D01*
X38153Y324533D01*
X38140Y324613D01*
X38126Y324719D01*
X38113Y324839D01*
X38086Y325118D01*
X38046Y325425D01*
X38020Y325744D01*
X37993Y326050D01*
X37980Y326183D01*
X37966Y326316D01*
Y326343D01*
X37953Y326409D01*
X37940Y326516D01*
Y326596D01*
X37927Y326689D01*
X37913Y326782D01*
X37900Y326902D01*
X37873Y327035D01*
X37860Y327181D01*
X37833Y327354D01*
X37807Y327527D01*
X37780Y327727D01*
X37740Y327940D01*
Y327967D01*
X37727Y328020D01*
X37714Y328113D01*
X37687Y328246D01*
X37674Y328406D01*
X37647Y328579D01*
X37620Y328765D01*
X37594Y328978D01*
X37527Y329417D01*
X37487Y329843D01*
X37461Y330056D01*
X37447Y330256D01*
X37434Y330429D01*
Y330589D01*
Y330602D01*
Y330642D01*
Y330695D01*
X37447Y330762D01*
X37474Y330935D01*
X37541Y331148D01*
X37634Y331347D01*
X37700Y331441D01*
X37780Y331521D01*
X37873Y331587D01*
X37980Y331640D01*
X38100Y331680D01*
X38246Y331694D01*
X38339D01*
X38406Y331680D01*
D02*
G37*
%LPC*%
G36*
X100876Y329011D02*
X100849D01*
X100769Y328998D01*
X100661Y328984D01*
X100513Y328958D01*
X100352Y328890D01*
X100190Y328810D01*
X100015Y328689D01*
X99854Y328527D01*
X99841Y328500D01*
X99787Y328433D01*
X99733Y328325D01*
X99652Y328164D01*
X99585Y327962D01*
X99518Y327720D01*
X99464Y327438D01*
X99451Y327101D01*
Y327088D01*
Y327048D01*
Y326994D01*
X99464Y326927D01*
Y326832D01*
X99477Y326725D01*
X99504Y326496D01*
X99558Y326227D01*
X99625Y325972D01*
X99733Y325716D01*
X99800Y325608D01*
X99867Y325501D01*
X99881Y325474D01*
X99948Y325420D01*
X100042Y325340D01*
X100163Y325245D01*
X100311Y325151D01*
X100486Y325071D01*
X100688Y325017D01*
X100917Y324990D01*
X100944D01*
X101011Y325003D01*
X101118Y325017D01*
X101253Y325044D01*
X101414Y325111D01*
X101576Y325191D01*
X101737Y325299D01*
X101885Y325461D01*
X101899Y325487D01*
X101952Y325555D01*
X102020Y325662D01*
X102087Y325837D01*
X102167Y326052D01*
X102194Y326173D01*
X102221Y326321D01*
X102248Y326469D01*
X102275Y326644D01*
X102288Y326819D01*
Y327021D01*
Y327034D01*
Y327061D01*
Y327115D01*
Y327182D01*
X102275Y327276D01*
X102262Y327370D01*
X102235Y327586D01*
X102194Y327828D01*
X102114Y328083D01*
X102020Y328312D01*
X101885Y328514D01*
X101872Y328541D01*
X101818Y328594D01*
X101724Y328675D01*
X101603Y328769D01*
X101468Y328850D01*
X101293Y328931D01*
X101092Y328984D01*
X100876Y329011D01*
D02*
G37*
G36*
X237421Y331325D02*
X237340D01*
X237246Y331311D01*
X237138Y331284D01*
X237017Y331258D01*
X236883Y331204D01*
X236762Y331123D01*
X236641Y331029D01*
X236627Y331015D01*
X236600Y330975D01*
X236546Y330908D01*
X236506Y330827D01*
X236452Y330719D01*
X236399Y330585D01*
X236372Y330437D01*
X236358Y330262D01*
Y330235D01*
Y330182D01*
X236372Y330087D01*
X236399Y329980D01*
X236425Y329859D01*
X236479Y329724D01*
X236546Y329603D01*
X236641Y329482D01*
X236654Y329469D01*
X236694Y329442D01*
X236762Y329388D01*
X236842Y329348D01*
X236950Y329294D01*
X237084Y329240D01*
X237232Y329213D01*
X237407Y329200D01*
X237488D01*
X237569Y329213D01*
X237676Y329240D01*
X237797Y329267D01*
X237932Y329321D01*
X238053Y329388D01*
X238174Y329482D01*
X238187Y329496D01*
X238214Y329536D01*
X238268Y329603D01*
X238322Y329684D01*
X238376Y329805D01*
X238429Y329939D01*
X238456Y330101D01*
X238470Y330276D01*
Y330303D01*
Y330356D01*
X238456Y330437D01*
X238429Y330545D01*
X238403Y330666D01*
X238349Y330787D01*
X238268Y330921D01*
X238174Y331029D01*
X238160Y331042D01*
X238120Y331069D01*
X238066Y331123D01*
X237972Y331177D01*
X237864Y331231D01*
X237743Y331284D01*
X237582Y331311D01*
X237421Y331325D01*
D02*
G37*
G36*
Y327855D02*
X237313D01*
X237206Y327828D01*
X237071Y327801D01*
X236923Y327747D01*
X236775Y327680D01*
X236627Y327572D01*
X236493Y327424D01*
X236479Y327411D01*
X236452Y327344D01*
X236399Y327263D01*
X236345Y327142D01*
X236291Y327007D01*
X236237Y326846D01*
X236210Y326671D01*
X236197Y326483D01*
Y326469D01*
Y326456D01*
Y326362D01*
X236210Y326241D01*
X236237Y326079D01*
X236277Y325904D01*
X236345Y325730D01*
X236425Y325555D01*
X236546Y325393D01*
X236560Y325380D01*
X236614Y325340D01*
X236694Y325272D01*
X236802Y325205D01*
X236923Y325124D01*
X237084Y325071D01*
X237259Y325017D01*
X237448Y325003D01*
X237542D01*
X237636Y325030D01*
X237757Y325057D01*
X237891Y325097D01*
X238039Y325165D01*
X238187Y325259D01*
X238322Y325380D01*
X238335Y325393D01*
X238376Y325447D01*
X238429Y325541D01*
X238497Y325662D01*
X238564Y325810D01*
X238618Y325999D01*
X238658Y326214D01*
X238671Y326469D01*
Y326483D01*
Y326496D01*
Y326577D01*
X238658Y326684D01*
X238631Y326833D01*
X238577Y326980D01*
X238524Y327155D01*
X238429Y327317D01*
X238308Y327465D01*
X238295Y327478D01*
X238241Y327532D01*
X238174Y327586D01*
X238066Y327666D01*
X237932Y327734D01*
X237784Y327801D01*
X237609Y327841D01*
X237421Y327855D01*
D02*
G37*
G36*
X223056Y329052D02*
X222962D01*
X222868Y329025D01*
X222733Y328998D01*
X222585Y328944D01*
X222437Y328877D01*
X222289Y328769D01*
X222142Y328635D01*
X222128Y328621D01*
X222088Y328568D01*
X222034Y328473D01*
X221967Y328352D01*
X221899Y328191D01*
X221846Y328003D01*
X221805Y327787D01*
X221792Y327545D01*
X224320D01*
Y327559D01*
Y327572D01*
Y327613D01*
X224307Y327666D01*
X224293Y327801D01*
X224267Y327962D01*
X224213Y328137D01*
X224146Y328325D01*
X224051Y328500D01*
X223930Y328662D01*
X223917Y328675D01*
X223863Y328729D01*
X223796Y328783D01*
X223688Y328863D01*
X223567Y328931D01*
X223419Y328998D01*
X223244Y329038D01*
X223056Y329052D01*
D02*
G37*
G36*
X209337D02*
X209243D01*
X209149Y329025D01*
X209014Y328998D01*
X208866Y328944D01*
X208718Y328877D01*
X208570Y328769D01*
X208422Y328635D01*
X208409Y328621D01*
X208369Y328568D01*
X208315Y328473D01*
X208248Y328352D01*
X208180Y328191D01*
X208127Y328003D01*
X208086Y327787D01*
X208073Y327545D01*
X210601D01*
Y327559D01*
Y327572D01*
Y327613D01*
X210588Y327666D01*
X210575Y327801D01*
X210548Y327962D01*
X210494Y328137D01*
X210426Y328325D01*
X210332Y328500D01*
X210211Y328662D01*
X210198Y328675D01*
X210144Y328729D01*
X210077Y328783D01*
X209969Y328863D01*
X209848Y328931D01*
X209700Y328998D01*
X209525Y329038D01*
X209337Y329052D01*
D02*
G37*
G36*
X169956Y328958D02*
X169929D01*
X169848Y328944D01*
X169727Y328931D01*
X169565Y328890D01*
X169391Y328836D01*
X169216Y328742D01*
X169027Y328621D01*
X168853Y328447D01*
X168839Y328420D01*
X168785Y328352D01*
X168718Y328231D01*
X168637Y328070D01*
X168543Y327868D01*
X168476Y327613D01*
X168422Y327330D01*
X168409Y326994D01*
Y326980D01*
Y326954D01*
Y326900D01*
X168422Y326833D01*
Y326752D01*
X168436Y326671D01*
X168463Y326456D01*
X168516Y326214D01*
X168597Y325972D01*
X168705Y325743D01*
X168853Y325528D01*
X168879Y325501D01*
X168933Y325447D01*
X169027Y325366D01*
X169162Y325286D01*
X169323Y325192D01*
X169512Y325111D01*
X169713Y325057D01*
X169956Y325030D01*
X169982D01*
X170063Y325044D01*
X170184Y325057D01*
X170345Y325097D01*
X170520Y325151D01*
X170695Y325245D01*
X170884Y325366D01*
X171058Y325528D01*
X171072Y325555D01*
X171126Y325622D01*
X171206Y325743D01*
X171287Y325904D01*
X171368Y326106D01*
X171448Y326362D01*
X171502Y326658D01*
X171516Y326994D01*
Y327007D01*
Y327034D01*
Y327088D01*
Y327155D01*
X171502Y327222D01*
X171489Y327317D01*
X171462Y327532D01*
X171408Y327761D01*
X171327Y328003D01*
X171206Y328231D01*
X171058Y328447D01*
X171045Y328473D01*
X170978Y328527D01*
X170884Y328608D01*
X170749Y328702D01*
X170601Y328796D01*
X170413Y328877D01*
X170198Y328931D01*
X169956Y328958D01*
D02*
G37*
G36*
X144912Y329052D02*
X144817D01*
X144723Y329025D01*
X144589Y328998D01*
X144441Y328944D01*
X144293Y328877D01*
X144145Y328769D01*
X143997Y328635D01*
X143983Y328621D01*
X143943Y328568D01*
X143889Y328473D01*
X143822Y328352D01*
X143755Y328191D01*
X143701Y328003D01*
X143661Y327787D01*
X143647Y327545D01*
X146176D01*
Y327559D01*
Y327572D01*
Y327613D01*
X146162Y327666D01*
X146149Y327801D01*
X146122Y327962D01*
X146068Y328137D01*
X146001Y328325D01*
X145907Y328500D01*
X145786Y328662D01*
X145772Y328675D01*
X145719Y328729D01*
X145651Y328783D01*
X145544Y328863D01*
X145423Y328931D01*
X145275Y328998D01*
X145100Y329038D01*
X144912Y329052D01*
D02*
G37*
G36*
X62404Y332193D02*
X62124D01*
X62024Y332173D01*
X61884Y332153D01*
X61724Y332093D01*
X61564Y332033D01*
X61385Y331933D01*
X61205Y331813D01*
X61185Y331793D01*
X61125Y331753D01*
X61045Y331653D01*
X60925Y331553D01*
X60805Y331394D01*
X60665Y331234D01*
X60545Y331014D01*
X60405Y330794D01*
X60385Y330774D01*
X60365Y330694D01*
X60305Y330574D01*
X60245Y330414D01*
X60185Y330254D01*
X60145Y330074D01*
X60105Y329894D01*
X60085Y329714D01*
Y329694D01*
X60105Y329614D01*
X60125Y329514D01*
X60165Y329395D01*
X60245Y329255D01*
X60365Y329155D01*
X60525Y329075D01*
X60745Y329055D01*
X60845D01*
X60985Y329075D01*
X61145Y329115D01*
X61325Y329175D01*
X61545Y329275D01*
X61764Y329395D01*
X62004Y329554D01*
X62024Y329574D01*
X62064Y329594D01*
X62124Y329654D01*
X62204Y329714D01*
X62424Y329894D01*
X62664Y330134D01*
X62884Y330434D01*
X63104Y330774D01*
X63184Y330954D01*
X63244Y331134D01*
X63284Y331333D01*
X63304Y331533D01*
Y331553D01*
X63284Y331633D01*
X63244Y331733D01*
X63164Y331873D01*
X63044Y331993D01*
X62844Y332093D01*
X62724Y332133D01*
X62564Y332173D01*
X62404Y332193D01*
D02*
G37*
G36*
X73959Y325846D02*
X73947Y325834D01*
X73901Y325811D01*
X73832Y325765D01*
X73740Y325696D01*
X73636Y325615D01*
X73520Y325534D01*
X73267Y325315D01*
X73013Y325073D01*
X72898Y324946D01*
X72794Y324808D01*
X72702Y324670D01*
X72633Y324543D01*
X72587Y324404D01*
X72575Y324278D01*
Y324266D01*
Y324243D01*
X72587Y324208D01*
X72610Y324162D01*
X72633Y324116D01*
X72679Y324082D01*
X72748Y324059D01*
X72829Y324047D01*
X72840D01*
X72898Y324059D01*
X72967Y324070D01*
X73059Y324093D01*
X73175Y324139D01*
X73313Y324208D01*
X73451Y324301D01*
X73601Y324428D01*
X73613Y324439D01*
X73670Y324474D01*
X73740Y324531D01*
X73832Y324589D01*
X73843D01*
X73855Y324601D01*
X73901Y324635D01*
X73959Y324658D01*
X73970Y324670D01*
X73982D01*
Y324693D01*
Y324739D01*
Y324785D01*
Y324854D01*
Y324923D01*
Y325096D01*
Y325292D01*
X73970Y325488D01*
Y325684D01*
X73959Y325846D01*
D02*
G37*
G36*
X60213Y321348D02*
X60159D01*
X60121Y321340D01*
X60075D01*
X60013Y321333D01*
X59875Y321317D01*
X59721Y321279D01*
X59545Y321233D01*
X59360Y321164D01*
X59168Y321072D01*
X59161D01*
X59145Y321056D01*
X59122Y321041D01*
X59084Y321025D01*
X59000Y320956D01*
X58884Y320872D01*
X58762Y320764D01*
X58631Y320634D01*
X58500Y320472D01*
X58385Y320296D01*
Y320288D01*
X58370Y320273D01*
X58362Y320242D01*
X58339Y320211D01*
X58316Y320165D01*
X58293Y320104D01*
X58270Y320042D01*
X58247Y319973D01*
X58193Y319812D01*
X58147Y319635D01*
X58116Y319443D01*
X58101Y319236D01*
Y319228D01*
Y319213D01*
Y319182D01*
X58109Y319144D01*
Y319098D01*
X58116Y319036D01*
X58139Y318898D01*
X58170Y318737D01*
X58216Y318560D01*
X58285Y318376D01*
X58377Y318184D01*
Y318176D01*
X58393Y318161D01*
X58408Y318138D01*
X58431Y318099D01*
X58493Y318015D01*
X58577Y317900D01*
X58692Y317777D01*
X58823Y317646D01*
X58977Y317523D01*
X59153Y317408D01*
X59161D01*
X59176Y317393D01*
X59207Y317385D01*
X59238Y317362D01*
X59291Y317347D01*
X59345Y317324D01*
X59407Y317293D01*
X59476Y317270D01*
X59637Y317216D01*
X59814Y317178D01*
X60006Y317147D01*
X60213Y317132D01*
X60267D01*
X60305Y317139D01*
X60351D01*
X60413Y317147D01*
X60551Y317170D01*
X60704Y317201D01*
X60881Y317247D01*
X61073Y317316D01*
X61257Y317408D01*
X61265D01*
X61281Y317424D01*
X61304Y317439D01*
X61342Y317462D01*
X61434Y317523D01*
X61549Y317608D01*
X61672Y317723D01*
X61803Y317854D01*
X61926Y318007D01*
X62041Y318184D01*
Y318192D01*
X62056Y318207D01*
X62064Y318238D01*
X62087Y318268D01*
X62110Y318322D01*
X62133Y318376D01*
X62156Y318437D01*
X62187Y318506D01*
X62233Y318660D01*
X62279Y318844D01*
X62310Y319036D01*
X62325Y319236D01*
Y319244D01*
Y319259D01*
Y319290D01*
X62317Y319328D01*
Y319382D01*
X62310Y319436D01*
X62302Y319505D01*
X62287Y319574D01*
X62256Y319735D01*
X62202Y319919D01*
X62133Y320104D01*
X62033Y320296D01*
Y320304D01*
X62018Y320319D01*
X62002Y320342D01*
X61979Y320380D01*
X61918Y320472D01*
X61826Y320580D01*
X61718Y320710D01*
X61580Y320833D01*
X61426Y320964D01*
X61250Y321072D01*
X61242D01*
X61227Y321087D01*
X61204Y321094D01*
X61165Y321118D01*
X61119Y321133D01*
X61066Y321156D01*
X60935Y321210D01*
X60781Y321264D01*
X60605Y321302D01*
X60413Y321333D01*
X60213Y321348D01*
D02*
G37*
%LPD*%
G36*
X60397Y320680D02*
X60497Y320664D01*
X60612Y320634D01*
X60728Y320603D01*
X60843Y320549D01*
X60958Y320480D01*
X60973Y320472D01*
X61004Y320442D01*
X61058Y320396D01*
X61119Y320326D01*
X61188Y320234D01*
X61265Y320127D01*
X61342Y319996D01*
X61403Y319843D01*
X60843Y319712D01*
X60835Y319720D01*
X60827Y319750D01*
X60804Y319797D01*
X60774Y319850D01*
X60697Y319973D01*
X60643Y320035D01*
X60589Y320081D01*
X60582Y320089D01*
X60566Y320096D01*
X60536Y320119D01*
X60489Y320142D01*
X60436Y320158D01*
X60374Y320181D01*
X60305Y320188D01*
X60228Y320196D01*
X60175D01*
X60121Y320181D01*
X60052Y320165D01*
X59967Y320134D01*
X59883Y320096D01*
X59798Y320035D01*
X59721Y319958D01*
X59714Y319950D01*
X59691Y319912D01*
X59660Y319858D01*
X59629Y319781D01*
X59591Y319681D01*
X59560Y319551D01*
X59537Y319405D01*
X59530Y319228D01*
Y319221D01*
Y319205D01*
Y319182D01*
Y319144D01*
X59537Y319059D01*
X59553Y318952D01*
X59575Y318829D01*
X59614Y318706D01*
X59660Y318591D01*
X59721Y318491D01*
X59729Y318483D01*
X59760Y318453D01*
X59798Y318422D01*
X59852Y318376D01*
X59921Y318337D01*
X59998Y318299D01*
X60090Y318268D01*
X60190Y318261D01*
X60228D01*
X60274Y318268D01*
X60328Y318276D01*
X60390Y318291D01*
X60451Y318314D01*
X60520Y318345D01*
X60582Y318391D01*
X60589Y318399D01*
X60612Y318422D01*
X60643Y318453D01*
X60681Y318499D01*
X60720Y318568D01*
X60766Y318645D01*
X60812Y318737D01*
X60850Y318852D01*
X61403Y318668D01*
Y318660D01*
X61396Y318652D01*
X61388Y318629D01*
X61380Y318599D01*
X61350Y318514D01*
X61304Y318422D01*
X61242Y318314D01*
X61165Y318199D01*
X61073Y318092D01*
X60966Y318000D01*
X60950Y317992D01*
X60912Y317961D01*
X60850Y317930D01*
X60766Y317884D01*
X60658Y317846D01*
X60536Y317808D01*
X60397Y317777D01*
X60244Y317769D01*
X60190D01*
X60144Y317777D01*
X60098Y317785D01*
X60036Y317792D01*
X59906Y317815D01*
X59752Y317861D01*
X59599Y317930D01*
X59514Y317969D01*
X59437Y318022D01*
X59360Y318076D01*
X59291Y318145D01*
X59284Y318153D01*
X59276Y318161D01*
X59261Y318184D01*
X59238Y318215D01*
X59207Y318253D01*
X59176Y318299D01*
X59145Y318360D01*
X59107Y318422D01*
X59076Y318491D01*
X59038Y318576D01*
X58984Y318752D01*
X58938Y318967D01*
X58930Y319082D01*
X58923Y319205D01*
Y319213D01*
Y319228D01*
Y319251D01*
Y319282D01*
X58930Y319367D01*
X58946Y319474D01*
X58961Y319597D01*
X58992Y319727D01*
X59030Y319866D01*
X59084Y319996D01*
Y320004D01*
X59092Y320012D01*
X59115Y320050D01*
X59153Y320111D01*
X59207Y320188D01*
X59268Y320273D01*
X59353Y320357D01*
X59445Y320442D01*
X59553Y320511D01*
X59568Y320518D01*
X59606Y320542D01*
X59675Y320565D01*
X59760Y320603D01*
X59860Y320634D01*
X59983Y320657D01*
X60113Y320680D01*
X60251Y320688D01*
X60321D01*
X60397Y320680D01*
D02*
G37*
%LPC*%
G36*
X94982Y320153D02*
X94974D01*
X94959Y320146D01*
X94936Y320138D01*
X94905Y320115D01*
X94898Y320107D01*
X94882Y320092D01*
X94851Y320076D01*
X94828Y320069D01*
X94821D01*
X94798Y320061D01*
X94759Y320030D01*
X94728Y320015D01*
X94698Y319984D01*
X94613Y319869D01*
Y319862D01*
X94598Y319846D01*
X94583Y319815D01*
X94560Y319777D01*
X94537Y319723D01*
X94506Y319662D01*
X94475Y319585D01*
X94444Y319508D01*
X94406Y319416D01*
X94375Y319316D01*
X94345Y319201D01*
X94322Y319086D01*
X94298Y318955D01*
X94283Y318825D01*
X94275Y318679D01*
X94268Y318533D01*
Y318525D01*
Y318517D01*
Y318494D01*
Y318464D01*
X94275Y318387D01*
X94283Y318295D01*
X94298Y318195D01*
X94322Y318080D01*
X94352Y317980D01*
X94391Y317880D01*
X94398Y317872D01*
X94414Y317842D01*
X94444Y317811D01*
X94483Y317765D01*
X94529Y317726D01*
X94583Y317688D01*
X94636Y317657D01*
X94705Y317650D01*
X94728D01*
X94759Y317657D01*
X94798Y317673D01*
X94844Y317696D01*
X94905Y317734D01*
X94974Y317780D01*
X95051Y317842D01*
X95059Y317849D01*
X95090Y317880D01*
X95128Y317918D01*
X95174Y317972D01*
X95228Y318041D01*
X95281Y318118D01*
X95335Y318210D01*
X95381Y318310D01*
X95389Y318325D01*
X95404Y318356D01*
X95420Y318418D01*
X95443Y318487D01*
X95466Y318571D01*
X95489Y318671D01*
X95496Y318779D01*
X95504Y318894D01*
Y318909D01*
Y318948D01*
X95496Y319009D01*
Y319086D01*
X95481Y319170D01*
X95466Y319270D01*
X95450Y319370D01*
X95420Y319478D01*
Y319493D01*
X95404Y319524D01*
X95389Y319577D01*
X95366Y319639D01*
X95335Y319715D01*
X95297Y319792D01*
X95197Y319954D01*
X95189Y319961D01*
X95174Y319984D01*
X95151Y320015D01*
X95120Y320054D01*
X95082Y320092D01*
X95051Y320123D01*
X95013Y320146D01*
X94982Y320153D01*
D02*
G37*
G36*
X84936Y318771D02*
X84929Y318763D01*
X84898Y318748D01*
X84852Y318717D01*
X84791Y318671D01*
X84721Y318617D01*
X84645Y318564D01*
X84476Y318418D01*
X84307Y318256D01*
X84230Y318172D01*
X84161Y318080D01*
X84099Y317987D01*
X84053Y317903D01*
X84023Y317811D01*
X84015Y317726D01*
Y317719D01*
Y317703D01*
X84023Y317680D01*
X84038Y317650D01*
X84053Y317619D01*
X84084Y317596D01*
X84130Y317581D01*
X84184Y317573D01*
X84192D01*
X84230Y317581D01*
X84276Y317588D01*
X84338Y317603D01*
X84414Y317634D01*
X84506Y317680D01*
X84599Y317742D01*
X84698Y317826D01*
X84706Y317834D01*
X84745Y317857D01*
X84791Y317895D01*
X84852Y317934D01*
X84860D01*
X84867Y317941D01*
X84898Y317965D01*
X84936Y317980D01*
X84944Y317987D01*
X84952D01*
Y318003D01*
Y318034D01*
Y318064D01*
Y318110D01*
Y318157D01*
Y318272D01*
Y318402D01*
X84944Y318533D01*
Y318663D01*
X84936Y318771D01*
D02*
G37*
G36*
X65544D02*
X65537Y318763D01*
X65506Y318748D01*
X65460Y318717D01*
X65399Y318671D01*
X65329Y318617D01*
X65253Y318564D01*
X65084Y318418D01*
X64915Y318256D01*
X64838Y318172D01*
X64769Y318080D01*
X64707Y317987D01*
X64661Y317903D01*
X64631Y317811D01*
X64623Y317726D01*
Y317719D01*
Y317703D01*
X64631Y317680D01*
X64646Y317650D01*
X64661Y317619D01*
X64692Y317596D01*
X64738Y317581D01*
X64792Y317573D01*
X64799D01*
X64838Y317581D01*
X64884Y317588D01*
X64946Y317603D01*
X65022Y317634D01*
X65114Y317680D01*
X65207Y317742D01*
X65306Y317826D01*
X65314Y317834D01*
X65352Y317857D01*
X65399Y317895D01*
X65460Y317934D01*
X65468D01*
X65475Y317941D01*
X65506Y317965D01*
X65544Y317980D01*
X65552Y317987D01*
X65560D01*
Y318003D01*
Y318034D01*
Y318064D01*
Y318110D01*
Y318157D01*
Y318272D01*
Y318402D01*
X65552Y318533D01*
Y318663D01*
X65544Y318771D01*
D02*
G37*
G36*
X77203Y319692D02*
X77195D01*
X77180Y319677D01*
X77164Y319662D01*
X77141Y319631D01*
X77118Y319593D01*
X77095Y319531D01*
X77072Y319454D01*
Y319447D01*
X77065Y319416D01*
X77057Y319370D01*
X77042Y319324D01*
X77018Y319193D01*
X77011Y319070D01*
X77018Y319078D01*
X77057Y319093D01*
X77087Y319109D01*
X77126Y319124D01*
X77172Y319147D01*
X77226Y319170D01*
X77241Y319178D01*
X77272Y319193D01*
X77318Y319209D01*
X77372Y319239D01*
X77433Y319262D01*
X77487Y319293D01*
X77541Y319316D01*
X77571Y319339D01*
Y319347D01*
Y319362D01*
X77564Y319385D01*
X77556Y319408D01*
X77541Y319447D01*
X77525Y319485D01*
X77495Y319524D01*
X77456Y319570D01*
X77448Y319577D01*
X77441Y319593D01*
X77418Y319608D01*
X77387Y319631D01*
X77303Y319677D01*
X77257Y319685D01*
X77203Y319692D01*
D02*
G37*
G36*
X71980Y319685D02*
Y319677D01*
X71965Y319670D01*
X71950Y319646D01*
X71927Y319631D01*
X71896Y319600D01*
X71850Y319585D01*
X71804Y319562D01*
X71742Y319547D01*
X71727D01*
X71704Y319539D01*
X71696D01*
X71688Y319531D01*
X71642Y319508D01*
X71566Y319470D01*
X71481Y319416D01*
X71389Y319355D01*
X71297Y319278D01*
X71212Y319186D01*
X71143Y319086D01*
X71136Y319070D01*
X71120Y319032D01*
X71090Y318971D01*
X71066Y318894D01*
X71036Y318786D01*
X71005Y318656D01*
X70990Y318510D01*
X70982Y318349D01*
Y318341D01*
Y318302D01*
X70990Y318256D01*
X70997Y318195D01*
X71020Y318126D01*
X71043Y318049D01*
X71082Y317972D01*
X71128Y317895D01*
X71136Y317888D01*
X71159Y317865D01*
X71189Y317834D01*
X71235Y317803D01*
X71289Y317765D01*
X71358Y317734D01*
X71435Y317711D01*
X71520Y317703D01*
X71550D01*
X71589Y317711D01*
X71627D01*
X71727Y317734D01*
X71834Y317773D01*
X71842D01*
X71858Y317788D01*
X71881Y317803D01*
X71911Y317834D01*
X71950Y317865D01*
X71988Y317911D01*
X72026Y317965D01*
X72065Y318034D01*
X72072Y318041D01*
X72088Y318072D01*
X72111Y318095D01*
X72157Y318118D01*
Y318126D01*
X72149Y318149D01*
Y318187D01*
X72142Y318241D01*
X72134Y318302D01*
X72126Y318379D01*
X72103Y318541D01*
X72080Y318725D01*
X72057Y318909D01*
X72042Y319086D01*
X72034Y319170D01*
X72026Y319239D01*
Y319255D01*
Y319285D01*
X72019Y319339D01*
Y319401D01*
X72003Y319547D01*
X71988Y319623D01*
X71980Y319685D01*
D02*
G37*
G36*
X44981Y327847D02*
X44968D01*
X44941Y327820D01*
X44914Y327794D01*
X44874Y327740D01*
X44835Y327674D01*
X44794Y327567D01*
X44755Y327434D01*
Y327421D01*
X44741Y327368D01*
X44728Y327288D01*
X44701Y327208D01*
X44661Y326982D01*
X44648Y326769D01*
X44661Y326782D01*
X44728Y326809D01*
X44781Y326835D01*
X44848Y326862D01*
X44928Y326902D01*
X45021Y326942D01*
X45047Y326955D01*
X45101Y326982D01*
X45180Y327008D01*
X45274Y327062D01*
X45380Y327101D01*
X45473Y327155D01*
X45566Y327195D01*
X45620Y327235D01*
Y327248D01*
Y327275D01*
X45606Y327314D01*
X45593Y327354D01*
X45566Y327421D01*
X45540Y327487D01*
X45487Y327554D01*
X45420Y327634D01*
X45407Y327647D01*
X45393Y327674D01*
X45354Y327700D01*
X45300Y327740D01*
X45154Y327820D01*
X45074Y327834D01*
X44981Y327847D01*
D02*
G37*
G36*
X34745D02*
X34732D01*
X34705Y327820D01*
X34679Y327794D01*
X34639Y327740D01*
X34599Y327674D01*
X34559Y327567D01*
X34519Y327434D01*
Y327421D01*
X34506Y327368D01*
X34493Y327288D01*
X34466Y327208D01*
X34426Y326982D01*
X34413Y326769D01*
X34426Y326782D01*
X34493Y326809D01*
X34546Y326835D01*
X34612Y326862D01*
X34692Y326902D01*
X34785Y326942D01*
X34812Y326955D01*
X34865Y326982D01*
X34945Y327008D01*
X35038Y327062D01*
X35145Y327101D01*
X35238Y327155D01*
X35331Y327195D01*
X35384Y327235D01*
Y327248D01*
Y327275D01*
X35371Y327314D01*
X35358Y327354D01*
X35331Y327421D01*
X35304Y327487D01*
X35251Y327554D01*
X35185Y327634D01*
X35171Y327647D01*
X35158Y327674D01*
X35118Y327700D01*
X35065Y327740D01*
X34918Y327820D01*
X34839Y327834D01*
X34745Y327847D01*
D02*
G37*
%LPD*%
D10*
X73032Y100394D02*
X72293Y100820D01*
Y99967D01*
X73032Y100394D01*
Y151969D02*
X72293Y152395D01*
Y151542D01*
X73032Y151969D01*
Y204724D02*
X72293Y205151D01*
Y204298D01*
X73032Y204724D01*
X18602Y240846D02*
X17864Y241273D01*
Y240420D01*
X18602Y240846D01*
D11*
X360433Y268307D02*
X359646D01*
X360433D01*
D12*
X384411Y262319D02*
X384295Y263309D01*
X383954Y264245D01*
X383406Y265077D01*
X382682Y265761D01*
X381819Y266259D01*
X380864Y266545D01*
X379870Y266603D01*
X378888Y266430D01*
X377973Y266035D01*
X377174Y265440D01*
X376534Y264677D01*
X376086Y263787D01*
X375857Y262817D01*
Y261821D01*
X376086Y260851D01*
X376534Y259961D01*
X377174Y259197D01*
X377973Y258602D01*
X378888Y258208D01*
X379870Y258035D01*
X380864Y258093D01*
X381819Y258379D01*
X382682Y258877D01*
X383406Y259560D01*
X383954Y260393D01*
X384295Y261329D01*
X384411Y262319D01*
D13*
X50001Y318297D02*
X51000Y318380D01*
X51974Y318619D01*
X52898Y319006D01*
X53751Y319534D01*
X54510Y320188D01*
X55158Y320954D01*
X55678Y321811D01*
X56057Y322739D01*
X56287Y323715D01*
X56361Y324714D01*
X18857D02*
X18931Y323715D01*
X19161Y322739D01*
X19541Y321811D01*
X20061Y320954D01*
X20708Y320188D01*
X21468Y319534D01*
X22320Y319006D01*
X23245Y318619D01*
X24218Y318380D01*
X25218Y318297D01*
X56361Y336988D02*
X56286Y337988D01*
X56057Y338964D01*
X55677Y339892D01*
X55157Y340749D01*
X54509Y341514D01*
X53750Y342169D01*
X52897Y342696D01*
X51973Y343084D01*
X50999Y343322D01*
X50000Y343406D01*
X25218Y343348D02*
X24218Y343264D01*
X23245Y343026D01*
X22320Y342638D01*
X21468Y342111D01*
X20708Y341456D01*
X20061Y340691D01*
X19541Y339834D01*
X19161Y338906D01*
X18931Y337930D01*
X18857Y336930D01*
X24803Y322047D02*
X52165D01*
X25218Y318268D02*
X50035Y318297D01*
X56366Y324772D02*
X56378Y336988D01*
X25182Y343366D02*
X50000Y343406D01*
X18857Y324714D02*
Y336930D01*
D14*
X373130Y313287D02*
X373917D01*
X391531Y282480D02*
Y304921D01*
X373130Y274213D02*
X373917D01*
X360799Y302201D02*
Y306201D01*
Y281201D02*
Y285201D01*
X88189Y138091D02*
X89764Y139665D01*
X88189Y88779D02*
Y138091D01*
Y88779D02*
X94291Y82677D01*
X205827D01*
X205807D02*
X209449Y86319D01*
Y137697D01*
X207480Y139665D02*
X209449Y137697D01*
X89764Y139665D02*
X207480Y139665D01*
X89785Y286840D02*
X260483D01*
X263268Y284055D01*
X269321D01*
X270158Y283219D01*
X87761Y142822D02*
X90029Y140555D01*
X270158Y283219D02*
X270158Y141900D01*
X87761Y284816D02*
X87761Y142822D01*
X87761Y284816D02*
X89785Y286840D01*
X90029Y140555D02*
X268812D01*
X270158Y141900D01*
X233957Y82870D02*
X238284Y78543D01*
X273917D02*
Y139665D01*
X210236D02*
X273917D01*
X210236Y103543D02*
Y139665D01*
X230979Y103071D02*
X233957Y100093D01*
X238284Y78543D02*
X273917D01*
X210709Y103071D02*
X230979D01*
X210236Y103543D02*
X210709Y103071D01*
X233957Y82870D02*
Y100093D01*
X283465Y316437D02*
X356890D01*
X357677Y266172D02*
Y315650D01*
X297835Y256299D02*
X354730D01*
X297835D02*
Y304823D01*
X296063Y306594D02*
X297835Y304823D01*
X283465Y306594D02*
X296063D01*
X283465D02*
Y316437D01*
X354730Y266172D02*
X357677D01*
X354730Y256299D02*
Y266172D01*
X78937Y288976D02*
X121850D01*
X78937Y288976D02*
X78937Y288976D01*
X77854Y293504D02*
X78937Y292421D01*
X77854Y293504D02*
Y315935D01*
X121850Y316088D01*
Y288976D02*
Y316088D01*
X78937Y288976D02*
Y292421D01*
X297047Y255610D02*
Y304429D01*
X275787Y255610D02*
X297047D01*
X275787D02*
Y288780D01*
X279921Y292914D02*
Y304528D01*
X281299Y305906D01*
X295571D01*
X297047Y304429D01*
X275886Y288878D02*
X279921Y292914D01*
X279998Y151168D02*
X280518Y151688D01*
X279998Y87656D02*
X280238Y87416D01*
X280945Y86710D01*
X389162D01*
X279998Y87656D02*
Y151168D01*
X390656Y88204D02*
Y253460D01*
X389162Y86710D02*
X390656Y88204D01*
X388786Y255330D02*
X390656Y253460D01*
X280518Y249129D02*
X286719Y255330D01*
X388786D01*
X280518Y151688D02*
Y249129D01*
X123819Y288386D02*
X272047D01*
X274410Y290748D01*
X276476D01*
X279035Y293307D01*
X244980Y310925D02*
X255315D01*
X123819Y316928D02*
X279035Y316635D01*
X123819Y288386D02*
Y316928D01*
X279035Y293307D02*
Y316635D01*
X53875Y292407D02*
X76476D01*
Y290059D02*
X79429Y287106D01*
X83366Y279724D02*
Y287106D01*
X53445Y238584D02*
X82383D01*
X83366Y239567D01*
Y279724D01*
X52461Y239568D02*
X53445Y238584D01*
X52461Y239568D02*
Y290992D01*
X53875Y292407D01*
X76476Y290059D02*
Y292407D01*
X79429Y287106D02*
X83366D01*
X10236Y83957D02*
X73228D01*
X10236Y127854D02*
X73228D01*
X10236Y135531D02*
X73228D01*
X10236Y179429D02*
X73228D01*
X10236Y188287D02*
X73228D01*
X10236Y232185D02*
X73228D01*
X1673Y240158D02*
Y303150D01*
X45571Y240158D02*
Y303150D01*
X48622Y24331D02*
Y78347D01*
X203307Y78150D02*
X293307D01*
X203307Y24331D02*
X293307D01*
Y77953D01*
X49016Y78150D02*
X110807D01*
X203307D01*
X48622Y24331D02*
X110807D01*
X203307D01*
X364370Y256398D02*
Y259350D01*
X52461Y85827D02*
X65059D01*
X52461Y97638D02*
X65059D01*
X390946Y256610D02*
Y268027D01*
X388584D02*
X390946D01*
X388584Y256610D02*
X390946D01*
X369277Y268027D02*
X371639D01*
X369277Y256610D02*
X371639D01*
X369277D02*
Y268027D01*
X52461Y201969D02*
X65059D01*
X52461Y190157D02*
X65059D01*
X4331Y248327D02*
Y260925D01*
X16142Y248327D02*
Y260925D01*
X52461Y149213D02*
X65059D01*
X52461Y137402D02*
X65059D01*
D15*
X361024Y269488D02*
X369685D01*
Y260827D02*
Y269488D01*
X361024Y260827D02*
X369685D01*
X361024D02*
Y269488D01*
D16*
X275213Y92327D02*
X275213Y93902D01*
X278150Y92323D02*
X278150Y93898D01*
X97407Y70768D02*
X94784D01*
X97407Y73391D01*
Y74047D01*
X96751Y74703D01*
X95439D01*
X94784Y74047D01*
X100687Y70768D02*
Y74703D01*
X98719Y72736D01*
X101343D01*
X97801Y40451D02*
X96489Y39796D01*
X95177Y38484D01*
Y37172D01*
X95833Y36516D01*
X97145D01*
X97801Y37172D01*
Y37828D01*
X97145Y38484D01*
X95177D01*
X101737Y36516D02*
X99113D01*
X101737Y39140D01*
Y39796D01*
X101081Y40451D01*
X99769D01*
X99113Y39796D01*
X79573Y66995D02*
X76949D01*
Y65027D01*
X78261Y65683D01*
X78917D01*
X79573Y65027D01*
Y63715D01*
X78917Y63059D01*
X77605D01*
X76949Y63715D01*
X55590Y63256D02*
Y67192D01*
X53622Y65224D01*
X56246D01*
X65039Y43701D02*
X65695Y44357D01*
X67007D01*
X67663Y43701D01*
Y43045D01*
X67007Y42389D01*
X66351D01*
X67007D01*
X67663Y41733D01*
Y41077D01*
X67007Y40421D01*
X65695D01*
X65039Y41077D01*
X79179Y31071D02*
X76555D01*
X79179Y33695D01*
Y34351D01*
X78523Y35007D01*
X77211D01*
X76555Y34351D01*
X52933Y30579D02*
X54245D01*
X53589D01*
Y34514D01*
X52933Y33858D01*
X96554Y61122D02*
Y65058D01*
X94587Y63090D01*
X97210D01*
X98522Y64402D02*
X99178Y65058D01*
X100490D01*
X101146Y64402D01*
Y63746D01*
X100490Y63090D01*
X99834D01*
X100490D01*
X101146Y62434D01*
Y61778D01*
X100490Y61122D01*
X99178D01*
X98522Y61778D01*
X96260Y30544D02*
X96916Y31199D01*
X98228D01*
X98884Y30544D01*
Y29888D01*
X98228Y29232D01*
X98884Y28576D01*
Y27920D01*
X98228Y27264D01*
X96916D01*
X96260Y27920D01*
Y28576D01*
X96916Y29232D01*
X96260Y29888D01*
Y30544D01*
X96916Y29232D02*
X98228D01*
X100196Y27264D02*
X101507D01*
X100852D01*
Y31199D01*
X100196Y30544D01*
D17*
X1280Y316437D02*
X390945Y316437D01*
D18*
X12454Y233964D02*
Y236115D01*
X11916Y236653D01*
X10841D01*
X10303Y236115D01*
Y233964D01*
X10841Y233426D01*
X11916D01*
X11378Y234502D02*
X12454Y233426D01*
X11916D02*
X12454Y233964D01*
X15144Y233426D02*
Y236653D01*
X13530Y235039D01*
X15682D01*
X4186Y305617D02*
Y307769D01*
X3649Y308307D01*
X2573D01*
X2035Y307769D01*
Y305617D01*
X2573Y305079D01*
X3649D01*
X3111Y306155D02*
X4186Y305079D01*
X3649D02*
X4186Y305617D01*
X5262Y307769D02*
X5800Y308307D01*
X6876D01*
X7414Y307769D01*
Y307231D01*
X6876Y306693D01*
X6338D01*
X6876D01*
X7414Y306155D01*
Y305617D01*
X6876Y305079D01*
X5800D01*
X5262Y305617D01*
X12454Y180814D02*
Y182966D01*
X11916Y183503D01*
X10841D01*
X10303Y182966D01*
Y180814D01*
X10841Y180276D01*
X11916D01*
X11378Y181352D02*
X12454Y180276D01*
X11916D02*
X12454Y180814D01*
X15682Y180276D02*
X13530D01*
X15682Y182428D01*
Y182966D01*
X15144Y183503D01*
X14068D01*
X13530Y182966D01*
X12205Y129633D02*
Y131784D01*
X11667Y132322D01*
X10591D01*
X10053Y131784D01*
Y129633D01*
X10591Y129095D01*
X11667D01*
X11129Y130171D02*
X12205Y129095D01*
X11667D02*
X12205Y129633D01*
X13281Y129095D02*
X14356D01*
X13818D01*
Y132322D01*
X13281Y131784D01*
X3937Y80709D02*
Y83857D01*
X5511D01*
X6036Y83333D01*
Y82283D01*
X5511Y81758D01*
X3937D01*
X7086Y80709D02*
X8135D01*
X7610D01*
Y83857D01*
X7086Y83333D01*
X57579Y99508D02*
Y102656D01*
X59153D01*
X59678Y102132D01*
Y101082D01*
X59153Y100557D01*
X57579D01*
X58628D02*
X59678Y99508D01*
X62826D02*
X60727D01*
X62826Y101607D01*
Y102132D01*
X62302Y102656D01*
X61252D01*
X60727Y102132D01*
X57579Y151476D02*
Y154625D01*
X59153D01*
X59678Y154100D01*
Y153051D01*
X59153Y152526D01*
X57579D01*
X58628D02*
X59678Y151476D01*
X60727Y154100D02*
X61252Y154625D01*
X62302D01*
X62826Y154100D01*
Y153576D01*
X62302Y153051D01*
X61777D01*
X62302D01*
X62826Y152526D01*
Y152001D01*
X62302Y151476D01*
X61252D01*
X60727Y152001D01*
X18110Y252362D02*
Y255511D01*
X19684D01*
X20209Y254986D01*
Y253937D01*
X19684Y253412D01*
X18110D01*
X19160D02*
X20209Y252362D01*
X22833D02*
Y255511D01*
X21259Y253937D01*
X23358D01*
X56102Y203839D02*
Y206987D01*
X57677D01*
X58201Y206462D01*
Y205413D01*
X57677Y204888D01*
X56102D01*
X57152D02*
X58201Y203839D01*
X61350Y206987D02*
X59251D01*
Y205413D01*
X60300Y205938D01*
X60825D01*
X61350Y205413D01*
Y204363D01*
X60825Y203839D01*
X59776D01*
X59251Y204363D01*
M02*
