G75*
G70*
%OFA0B0*%
%FSLAX25Y25*%
%IPPOS*%
%LPD*%
%AMOC8*
5,1,8,0,0,1.08239X$1,22.5*
%
%AMM1*
21,1,0.041340,0.070470,0.000000,0.000000,90.000000*
21,1,0.033070,0.078740,0.000000,0.000000,90.000000*
1,1,0.008270,0.035240,0.016540*
1,1,0.008270,0.035240,-0.016540*
1,1,0.008270,-0.035240,-0.016540*
1,1,0.008270,-0.035240,0.016540*
%
%AMM10*
21,1,0.125980,0.056690,0.000000,0.000000,180.000000*
21,1,0.111810,0.070870,0.000000,0.000000,180.000000*
1,1,0.014170,-0.055910,0.028350*
1,1,0.014170,0.055910,0.028350*
1,1,0.014170,0.055910,-0.028350*
1,1,0.014170,-0.055910,-0.028350*
%
%AMM101*
21,1,0.094490,0.111020,0.000000,0.000000,180.000000*
21,1,0.075590,0.129920,0.000000,0.000000,180.000000*
1,1,0.018900,-0.037800,0.055510*
1,1,0.018900,0.037800,0.055510*
1,1,0.018900,0.037800,-0.055510*
1,1,0.018900,-0.037800,-0.055510*
%
%AMM102*
21,1,0.023620,0.018900,0.000000,0.000000,270.000000*
21,1,0.018900,0.023620,0.000000,0.000000,270.000000*
1,1,0.004720,-0.009450,-0.009450*
1,1,0.004720,-0.009450,0.009450*
1,1,0.004720,0.009450,0.009450*
1,1,0.004720,0.009450,-0.009450*
%
%AMM103*
21,1,0.035830,0.026770,0.000000,0.000000,0.000000*
21,1,0.029130,0.033470,0.000000,0.000000,0.000000*
1,1,0.006690,0.014570,-0.013390*
1,1,0.006690,-0.014570,-0.013390*
1,1,0.006690,-0.014570,0.013390*
1,1,0.006690,0.014570,0.013390*
%
%AMM104*
21,1,0.023620,0.018900,0.000000,0.000000,180.000000*
21,1,0.018900,0.023620,0.000000,0.000000,180.000000*
1,1,0.004720,-0.009450,0.009450*
1,1,0.004720,0.009450,0.009450*
1,1,0.004720,0.009450,-0.009450*
1,1,0.004720,-0.009450,-0.009450*
%
%AMM105*
21,1,0.035430,0.030320,0.000000,0.000000,0.000000*
21,1,0.028350,0.037400,0.000000,0.000000,0.000000*
1,1,0.007090,0.014170,-0.015160*
1,1,0.007090,-0.014170,-0.015160*
1,1,0.007090,-0.014170,0.015160*
1,1,0.007090,0.014170,0.015160*
%
%AMM106*
21,1,0.078740,0.070870,0.000000,0.000000,270.000000*
21,1,0.062990,0.086610,0.000000,0.000000,270.000000*
1,1,0.015750,-0.035430,-0.031500*
1,1,0.015750,-0.035430,0.031500*
1,1,0.015750,0.035430,0.031500*
1,1,0.015750,0.035430,-0.031500*
%
%AMM107*
21,1,0.051180,0.068500,0.000000,0.000000,180.000000*
21,1,0.040950,0.078740,0.000000,0.000000,180.000000*
1,1,0.010240,-0.020470,0.034250*
1,1,0.010240,0.020470,0.034250*
1,1,0.010240,0.020470,-0.034250*
1,1,0.010240,-0.020470,-0.034250*
%
%AMM108*
21,1,0.033470,0.026770,0.000000,0.000000,90.000000*
21,1,0.026770,0.033470,0.000000,0.000000,90.000000*
1,1,0.006690,0.013390,0.013390*
1,1,0.006690,0.013390,-0.013390*
1,1,0.006690,-0.013390,-0.013390*
1,1,0.006690,-0.013390,0.013390*
%
%AMM109*
21,1,0.035830,0.026770,0.000000,0.000000,90.000000*
21,1,0.029130,0.033470,0.000000,0.000000,90.000000*
1,1,0.006690,0.013390,0.014570*
1,1,0.006690,0.013390,-0.014570*
1,1,0.006690,-0.013390,-0.014570*
1,1,0.006690,-0.013390,0.014570*
%
%AMM110*
21,1,0.070870,0.036220,0.000000,0.000000,180.000000*
21,1,0.061810,0.045280,0.000000,0.000000,180.000000*
1,1,0.009060,-0.030910,0.018110*
1,1,0.009060,0.030910,0.018110*
1,1,0.009060,0.030910,-0.018110*
1,1,0.009060,-0.030910,-0.018110*
%
%AMM121*
21,1,0.070870,0.036220,0.000000,0.000000,90.000000*
21,1,0.061810,0.045280,0.000000,0.000000,90.000000*
1,1,0.009060,0.018110,0.030910*
1,1,0.009060,0.018110,-0.030910*
1,1,0.009060,-0.018110,-0.030910*
1,1,0.009060,-0.018110,0.030910*
%
%AMM122*
21,1,0.086610,0.073230,0.000000,0.000000,90.000000*
21,1,0.069290,0.090550,0.000000,0.000000,90.000000*
1,1,0.017320,0.036610,0.034650*
1,1,0.017320,0.036610,-0.034650*
1,1,0.017320,-0.036610,-0.034650*
1,1,0.017320,-0.036610,0.034650*
%
%AMM123*
21,1,0.021650,0.038980,0.000000,0.000000,0.000000*
21,1,0.017320,0.043310,0.000000,0.000000,0.000000*
1,1,0.004330,0.008660,-0.019490*
1,1,0.004330,-0.008660,-0.019490*
1,1,0.004330,-0.008660,0.019490*
1,1,0.004330,0.008660,0.019490*
%
%AMM124*
21,1,0.092520,0.119290,0.000000,0.000000,180.000000*
21,1,0.074020,0.137800,0.000000,0.000000,180.000000*
1,1,0.018500,-0.037010,0.059650*
1,1,0.018500,0.037010,0.059650*
1,1,0.018500,0.037010,-0.059650*
1,1,0.018500,-0.037010,-0.059650*
%
%AMM129*
21,1,0.078740,0.045670,0.000000,0.000000,270.000000*
21,1,0.067320,0.057090,0.000000,0.000000,270.000000*
1,1,0.011420,-0.022840,-0.033660*
1,1,0.011420,-0.022840,0.033660*
1,1,0.011420,0.022840,0.033660*
1,1,0.011420,0.022840,-0.033660*
%
%AMM130*
21,1,0.059060,0.020470,0.000000,0.000000,270.000000*
21,1,0.053940,0.025590,0.000000,0.000000,270.000000*
1,1,0.005120,-0.010240,-0.026970*
1,1,0.005120,-0.010240,0.026970*
1,1,0.005120,0.010240,0.026970*
1,1,0.005120,0.010240,-0.026970*
%
%AMM133*
21,1,0.070870,0.036220,0.000000,0.000000,270.000000*
21,1,0.061810,0.045280,0.000000,0.000000,270.000000*
1,1,0.009060,-0.018110,-0.030910*
1,1,0.009060,-0.018110,0.030910*
1,1,0.009060,0.018110,0.030910*
1,1,0.009060,0.018110,-0.030910*
%
%AMM134*
21,1,0.035430,0.030320,0.000000,0.000000,90.000000*
21,1,0.028350,0.037400,0.000000,0.000000,90.000000*
1,1,0.007090,0.015160,0.014170*
1,1,0.007090,0.015160,-0.014170*
1,1,0.007090,-0.015160,-0.014170*
1,1,0.007090,-0.015160,0.014170*
%
%AMM135*
21,1,0.043310,0.075980,0.000000,0.000000,180.000000*
21,1,0.034650,0.084650,0.000000,0.000000,180.000000*
1,1,0.008660,-0.017320,0.037990*
1,1,0.008660,0.017320,0.037990*
1,1,0.008660,0.017320,-0.037990*
1,1,0.008660,-0.017320,-0.037990*
%
%AMM136*
21,1,0.043310,0.075990,0.000000,0.000000,180.000000*
21,1,0.034650,0.084650,0.000000,0.000000,180.000000*
1,1,0.008660,-0.017320,0.037990*
1,1,0.008660,0.017320,0.037990*
1,1,0.008660,0.017320,-0.037990*
1,1,0.008660,-0.017320,-0.037990*
%
%AMM137*
21,1,0.137800,0.067720,0.000000,0.000000,180.000000*
21,1,0.120870,0.084650,0.000000,0.000000,180.000000*
1,1,0.016930,-0.060430,0.033860*
1,1,0.016930,0.060430,0.033860*
1,1,0.016930,0.060430,-0.033860*
1,1,0.016930,-0.060430,-0.033860*
%
%AMM138*
21,1,0.039370,0.049210,0.000000,0.000000,0.000000*
21,1,0.031500,0.057090,0.000000,0.000000,0.000000*
1,1,0.007870,0.015750,-0.024610*
1,1,0.007870,-0.015750,-0.024610*
1,1,0.007870,-0.015750,0.024610*
1,1,0.007870,0.015750,0.024610*
%
%AMM145*
21,1,0.033470,0.026770,0.000000,0.000000,0.000000*
21,1,0.026770,0.033470,0.000000,0.000000,0.000000*
1,1,0.006690,0.013390,-0.013390*
1,1,0.006690,-0.013390,-0.013390*
1,1,0.006690,-0.013390,0.013390*
1,1,0.006690,0.013390,0.013390*
%
%AMM2*
21,1,0.041340,0.070470,0.000000,0.000000,0.000000*
21,1,0.033070,0.078740,0.000000,0.000000,0.000000*
1,1,0.008270,0.016540,-0.035240*
1,1,0.008270,-0.016540,-0.035240*
1,1,0.008270,-0.016540,0.035240*
1,1,0.008270,0.016540,0.035240*
%
%AMM3*
21,1,0.080710,0.097440,0.000000,0.000000,270.000000*
21,1,0.040350,0.137800,0.000000,0.000000,270.000000*
1,1,0.040350,-0.048720,-0.020180*
1,1,0.040350,-0.048720,0.020180*
1,1,0.040350,0.048720,0.020180*
1,1,0.040350,0.048720,-0.020180*
%
%AMM4*
21,1,0.080710,0.117130,0.000000,0.000000,270.000000*
21,1,0.040350,0.157480,0.000000,0.000000,270.000000*
1,1,0.040350,-0.058560,-0.020180*
1,1,0.040350,-0.058560,0.020180*
1,1,0.040350,0.058560,0.020180*
1,1,0.040350,0.058560,-0.020180*
%
%AMM5*
21,1,0.078740,0.059060,0.000000,0.000000,90.000000*
21,1,0.039370,0.098430,0.000000,0.000000,90.000000*
1,1,0.039370,0.029530,0.019680*
1,1,0.039370,0.029530,-0.019680*
1,1,0.039370,-0.029530,-0.019680*
1,1,0.039370,-0.029530,0.019680*
%
%AMM55*
21,1,0.043310,0.075980,0.000000,0.000000,0.000000*
21,1,0.034650,0.084650,0.000000,0.000000,0.000000*
1,1,0.008660,0.017320,-0.037990*
1,1,0.008660,-0.017320,-0.037990*
1,1,0.008660,-0.017320,0.037990*
1,1,0.008660,0.017320,0.037990*
%
%AMM56*
21,1,0.043310,0.075990,0.000000,0.000000,0.000000*
21,1,0.034650,0.084650,0.000000,0.000000,0.000000*
1,1,0.008660,0.017320,-0.037990*
1,1,0.008660,-0.017320,-0.037990*
1,1,0.008660,-0.017320,0.037990*
1,1,0.008660,0.017320,0.037990*
%
%AMM57*
21,1,0.137800,0.067720,0.000000,0.000000,0.000000*
21,1,0.120870,0.084650,0.000000,0.000000,0.000000*
1,1,0.016930,0.060430,-0.033860*
1,1,0.016930,-0.060430,-0.033860*
1,1,0.016930,-0.060430,0.033860*
1,1,0.016930,0.060430,0.033860*
%
%AMM58*
21,1,0.025590,0.026380,0.000000,0.000000,90.000000*
21,1,0.020470,0.031500,0.000000,0.000000,90.000000*
1,1,0.005120,0.013190,0.010240*
1,1,0.005120,0.013190,-0.010240*
1,1,0.005120,-0.013190,-0.010240*
1,1,0.005120,-0.013190,0.010240*
%
%AMM59*
21,1,0.017720,0.027950,0.000000,0.000000,90.000000*
21,1,0.014170,0.031500,0.000000,0.000000,90.000000*
1,1,0.003540,0.013980,0.007090*
1,1,0.003540,0.013980,-0.007090*
1,1,0.003540,-0.013980,-0.007090*
1,1,0.003540,-0.013980,0.007090*
%
%AMM6*
21,1,0.033470,0.026770,0.000000,0.000000,180.000000*
21,1,0.026770,0.033470,0.000000,0.000000,180.000000*
1,1,0.006690,-0.013390,0.013390*
1,1,0.006690,0.013390,0.013390*
1,1,0.006690,0.013390,-0.013390*
1,1,0.006690,-0.013390,-0.013390*
%
%AMM60*
21,1,0.033470,0.026770,0.000000,0.000000,270.000000*
21,1,0.026770,0.033470,0.000000,0.000000,270.000000*
1,1,0.006690,-0.013390,-0.013390*
1,1,0.006690,-0.013390,0.013390*
1,1,0.006690,0.013390,0.013390*
1,1,0.006690,0.013390,-0.013390*
%
%AMM61*
21,1,0.039370,0.035430,0.000000,0.000000,270.000000*
21,1,0.031500,0.043310,0.000000,0.000000,270.000000*
1,1,0.007870,-0.017720,-0.015750*
1,1,0.007870,-0.017720,0.015750*
1,1,0.007870,0.017720,0.015750*
1,1,0.007870,0.017720,-0.015750*
%
%AMM62*
21,1,0.027560,0.030710,0.000000,0.000000,180.000000*
21,1,0.022050,0.036220,0.000000,0.000000,180.000000*
1,1,0.005510,-0.011020,0.015350*
1,1,0.005510,0.011020,0.015350*
1,1,0.005510,0.011020,-0.015350*
1,1,0.005510,-0.011020,-0.015350*
%
%AMM63*
21,1,0.027560,0.030710,0.000000,0.000000,90.000000*
21,1,0.022050,0.036220,0.000000,0.000000,90.000000*
1,1,0.005510,0.015350,0.011020*
1,1,0.005510,0.015350,-0.011020*
1,1,0.005510,-0.015350,-0.011020*
1,1,0.005510,-0.015350,0.011020*
%
%AMM64*
21,1,0.035430,0.030320,0.000000,0.000000,270.000000*
21,1,0.028350,0.037400,0.000000,0.000000,270.000000*
1,1,0.007090,-0.015160,-0.014170*
1,1,0.007090,-0.015160,0.014170*
1,1,0.007090,0.015160,0.014170*
1,1,0.007090,0.015160,-0.014170*
%
%AMM65*
21,1,0.023620,0.030710,0.000000,0.000000,180.000000*
21,1,0.018900,0.035430,0.000000,0.000000,180.000000*
1,1,0.004720,-0.009450,0.015350*
1,1,0.004720,0.009450,0.015350*
1,1,0.004720,0.009450,-0.015350*
1,1,0.004720,-0.009450,-0.015350*
%
%AMM66*
21,1,0.025590,0.026380,0.000000,0.000000,0.000000*
21,1,0.020470,0.031500,0.000000,0.000000,0.000000*
1,1,0.005120,0.010240,-0.013190*
1,1,0.005120,-0.010240,-0.013190*
1,1,0.005120,-0.010240,0.013190*
1,1,0.005120,0.010240,0.013190*
%
%AMM67*
21,1,0.017720,0.027950,0.000000,0.000000,0.000000*
21,1,0.014170,0.031500,0.000000,0.000000,0.000000*
1,1,0.003540,0.007090,-0.013980*
1,1,0.003540,-0.007090,-0.013980*
1,1,0.003540,-0.007090,0.013980*
1,1,0.003540,0.007090,0.013980*
%
%AMM68*
21,1,0.035830,0.026770,0.000000,0.000000,270.000000*
21,1,0.029130,0.033470,0.000000,0.000000,270.000000*
1,1,0.006690,-0.013390,-0.014570*
1,1,0.006690,-0.013390,0.014570*
1,1,0.006690,0.013390,0.014570*
1,1,0.006690,0.013390,-0.014570*
%
%AMM69*
21,1,0.035430,0.030320,0.000000,0.000000,180.000000*
21,1,0.028350,0.037400,0.000000,0.000000,180.000000*
1,1,0.007090,-0.014170,0.015160*
1,1,0.007090,0.014170,0.015160*
1,1,0.007090,0.014170,-0.015160*
1,1,0.007090,-0.014170,-0.015160*
%
%AMM7*
21,1,0.125980,0.056690,0.000000,0.000000,270.000000*
21,1,0.111810,0.070870,0.000000,0.000000,270.000000*
1,1,0.014170,-0.028350,-0.055910*
1,1,0.014170,-0.028350,0.055910*
1,1,0.014170,0.028350,0.055910*
1,1,0.014170,0.028350,-0.055910*
%
%AMM70*
21,1,0.027560,0.049610,0.000000,0.000000,270.000000*
21,1,0.022050,0.055120,0.000000,0.000000,270.000000*
1,1,0.005510,-0.024800,-0.011020*
1,1,0.005510,-0.024800,0.011020*
1,1,0.005510,0.024800,0.011020*
1,1,0.005510,0.024800,-0.011020*
%
%AMM71*
21,1,0.035830,0.026770,0.000000,0.000000,180.000000*
21,1,0.029130,0.033470,0.000000,0.000000,180.000000*
1,1,0.006690,-0.014570,0.013390*
1,1,0.006690,0.014570,0.013390*
1,1,0.006690,0.014570,-0.013390*
1,1,0.006690,-0.014570,-0.013390*
%
%AMM8*
21,1,0.031500,0.072440,0.000000,0.000000,180.000000*
21,1,0.025200,0.078740,0.000000,0.000000,180.000000*
1,1,0.006300,-0.012600,0.036220*
1,1,0.006300,0.012600,0.036220*
1,1,0.006300,0.012600,-0.036220*
1,1,0.006300,-0.012600,-0.036220*
%
%AMM89*
21,1,0.035430,0.050000,0.000000,0.000000,270.000000*
21,1,0.028350,0.057090,0.000000,0.000000,270.000000*
1,1,0.007090,-0.025000,-0.014170*
1,1,0.007090,-0.025000,0.014170*
1,1,0.007090,0.025000,0.014170*
1,1,0.007090,0.025000,-0.014170*
%
%AMM9*
21,1,0.027560,0.030710,0.000000,0.000000,270.000000*
21,1,0.022050,0.036220,0.000000,0.000000,270.000000*
1,1,0.005510,-0.015350,-0.011020*
1,1,0.005510,-0.015350,0.011020*
1,1,0.005510,0.015350,0.011020*
1,1,0.005510,0.015350,-0.011020*
%
%AMM90*
21,1,0.086610,0.073230,0.000000,0.000000,270.000000*
21,1,0.069290,0.090550,0.000000,0.000000,270.000000*
1,1,0.017320,-0.036610,-0.034650*
1,1,0.017320,-0.036610,0.034650*
1,1,0.017320,0.036610,0.034650*
1,1,0.017320,0.036610,-0.034650*
%
%AMM91*
21,1,0.039370,0.049210,0.000000,0.000000,180.000000*
21,1,0.031500,0.057090,0.000000,0.000000,180.000000*
1,1,0.007870,-0.015750,0.024610*
1,1,0.007870,0.015750,0.024610*
1,1,0.007870,0.015750,-0.024610*
1,1,0.007870,-0.015750,-0.024610*
%
%AMM92*
21,1,0.023620,0.030710,0.000000,0.000000,90.000000*
21,1,0.018900,0.035430,0.000000,0.000000,90.000000*
1,1,0.004720,0.015350,0.009450*
1,1,0.004720,0.015350,-0.009450*
1,1,0.004720,-0.015350,-0.009450*
1,1,0.004720,-0.015350,0.009450*
%
%AMM93*
21,1,0.027560,0.030710,0.000000,0.000000,0.000000*
21,1,0.022050,0.036220,0.000000,0.000000,0.000000*
1,1,0.005510,0.011020,-0.015350*
1,1,0.005510,-0.011020,-0.015350*
1,1,0.005510,-0.011020,0.015350*
1,1,0.005510,0.011020,0.015350*
%
%AMM94*
21,1,0.039370,0.049210,0.000000,0.000000,90.000000*
21,1,0.031500,0.057090,0.000000,0.000000,90.000000*
1,1,0.007870,0.024610,0.015750*
1,1,0.007870,0.024610,-0.015750*
1,1,0.007870,-0.024610,-0.015750*
1,1,0.007870,-0.024610,0.015750*
%
%ADD11O,0.05118X0.00866*%
%ADD110R,0.03937X0.11811*%
%ADD117R,0.05906X0.05118*%
%ADD118M67*%
%ADD127M107*%
%ADD129C,0.02362*%
%ADD136M1*%
%ADD137M70*%
%ADD140M56*%
%ADD15M61*%
%ADD160M93*%
%ADD164M71*%
%ADD166M68*%
%ADD167M58*%
%ADD168M137*%
%ADD17M55*%
%ADD171M130*%
%ADD174M104*%
%ADD175M90*%
%ADD178M102*%
%ADD18R,0.01378X0.00984*%
%ADD181M63*%
%ADD184M9*%
%ADD185O,0.08661X0.02362*%
%ADD189M106*%
%ADD19M94*%
%ADD191O,0.02362X0.08661*%
%ADD192M122*%
%ADD193M65*%
%ADD194M110*%
%ADD196M64*%
%ADD201O,0.01968X0.03937*%
%ADD214M7*%
%ADD220M121*%
%ADD223M8*%
%ADD23M133*%
%ADD235R,0.06693X0.09449*%
%ADD242O,0.04961X0.00984*%
%ADD244C,0.03150*%
%ADD245M6*%
%ADD249M103*%
%ADD258M59*%
%ADD260M145*%
%ADD262M91*%
%ADD265M62*%
%ADD267R,0.07874X0.03937*%
%ADD270M135*%
%ADD276M134*%
%ADD277M136*%
%ADD278M66*%
%ADD279M109*%
%ADD28M123*%
%ADD281R,0.11811X0.03937*%
%ADD29M89*%
%ADD292O,0.00866X0.05118*%
%ADD294M10*%
%ADD30M108*%
%ADD302M57*%
%ADD32M5*%
%ADD36R,0.03937X0.07874*%
%ADD39R,0.00984X0.01378*%
%ADD40M69*%
%ADD42O,0.04331X0.01181*%
%ADD51M105*%
%ADD60M101*%
%ADD61M124*%
%ADD63M60*%
%ADD66M3*%
%ADD72M129*%
%ADD76M4*%
%ADD79O,0.08858X0.01968*%
%ADD87M138*%
%ADD94M2*%
%ADD99M92*%
X0000000Y0000000D02*
G01*
G75*
D136*
X0069685Y0115905D02*
D03*
X0069685Y0095906D02*
D03*
X0069685Y0167480D02*
D03*
X0069685Y0147480D02*
D03*
X0069685Y0220236D02*
D03*
X0069685Y0200236D02*
D03*
D281*
X0018602Y0093012D02*
D03*
X0018602Y0105905D02*
D03*
X0018602Y0118799D02*
D03*
X0038484Y0106004D02*
D03*
X0038484Y0118898D02*
D03*
X0018602Y0144587D02*
D03*
X0018602Y0157480D02*
D03*
X0018602Y0170374D02*
D03*
X0038484Y0157579D02*
D03*
X0038484Y0170472D02*
D03*
X0018602Y0197343D02*
D03*
X0018602Y0210236D02*
D03*
X0018602Y0223130D02*
D03*
X0038484Y0210335D02*
D03*
X0038484Y0223228D02*
D03*
D267*
X0036515Y0093110D02*
D03*
X0036515Y0144685D02*
D03*
X0036515Y0197441D02*
D03*
D94*
X0033622Y0243701D02*
D03*
X0013622Y0243701D02*
D03*
D110*
X0010728Y0294783D02*
D03*
X0023622Y0294783D02*
D03*
X0036516Y0294783D02*
D03*
X0023720Y0274902D02*
D03*
X0036614Y0274902D02*
D03*
D36*
X0010827Y0276870D02*
D03*
D66*
X0365547Y0313091D02*
D03*
X0365547Y0274311D02*
D03*
D76*
X0382279Y0313091D02*
D03*
X0382279Y0274311D02*
D03*
D32*
X0364642Y0276181D02*
D03*
X0386098Y0276181D02*
D03*
X0386098Y0311221D02*
D03*
X0364642Y0311221D02*
D03*
D79*
X0364268Y0293701D02*
D03*
X0364268Y0290551D02*
D03*
X0364268Y0287402D02*
D03*
X0364268Y0296850D02*
D03*
X0364268Y0300000D02*
D03*
D18*
X0362205Y0266142D02*
D03*
X0362205Y0264173D02*
D03*
X0362205Y0268110D02*
D03*
X0362205Y0262205D02*
D03*
X0368504Y0268110D02*
D03*
X0368504Y0266142D02*
D03*
X0368504Y0264173D02*
D03*
X0368504Y0262205D02*
D03*
D39*
X0364370Y0268307D02*
D03*
X0366339Y0268307D02*
D03*
X0366339Y0262008D02*
D03*
X0364370Y0262008D02*
D03*
D245*
X0367480Y0257776D02*
D03*
X0361260Y0257776D02*
D03*
D214*
X0069784Y0091732D02*
D03*
X0047736Y0091732D02*
D03*
X0047736Y0196063D02*
D03*
X0069784Y0196063D02*
D03*
X0047736Y0143307D02*
D03*
X0069784Y0143307D02*
D03*
D223*
X0388387Y0262319D02*
D03*
X0371851Y0262319D02*
D03*
D184*
X0276673Y0096260D02*
D03*
X0276673Y0089961D02*
D03*
D294*
X0010236Y0243602D02*
D03*
X0010236Y0265650D02*
D03*
X0087382Y0140157D02*
G01*
G75*
D17*
X0246240Y0178740D02*
D03*
X0264351Y0178740D02*
D03*
D140*
X0255295Y0178740D02*
D03*
D302*
X0255295Y0203149D02*
D03*
D167*
X0100276Y0278838D02*
D03*
X0093189Y0278838D02*
D03*
X0093189Y0268799D02*
D03*
X0100276Y0268799D02*
D03*
X0115886Y0269074D02*
D03*
X0108799Y0269074D02*
D03*
X0108799Y0259034D02*
D03*
X0115886Y0259034D02*
D03*
X0192599Y0154429D02*
D03*
X0199685Y0154429D02*
D03*
X0199685Y0144389D02*
D03*
X0192599Y0144389D02*
D03*
X0202244Y0168307D02*
D03*
X0209331Y0168307D02*
D03*
X0209331Y0158267D02*
D03*
X0202244Y0158267D02*
D03*
D258*
X0093189Y0272244D02*
D03*
X0093189Y0275393D02*
D03*
X0100276Y0275393D02*
D03*
X0100276Y0272244D02*
D03*
X0108799Y0262479D02*
D03*
X0108799Y0265629D02*
D03*
X0115886Y0265629D02*
D03*
X0115886Y0262479D02*
D03*
X0192599Y0150984D02*
D03*
X0192599Y0147834D02*
D03*
X0199685Y0147834D02*
D03*
X0199685Y0150984D02*
D03*
X0202244Y0164862D02*
D03*
X0202244Y0161712D02*
D03*
X0209331Y0161712D02*
D03*
X0209331Y0164862D02*
D03*
D42*
X0215925Y0160826D02*
D03*
X0215925Y0158267D02*
D03*
X0215925Y0155708D02*
D03*
X0215925Y0153149D02*
D03*
X0215925Y0150590D02*
D03*
X0215925Y0148031D02*
D03*
X0215925Y0145472D02*
D03*
X0238366Y0160826D02*
D03*
X0238366Y0158267D02*
D03*
X0238366Y0155708D02*
D03*
X0238366Y0153149D02*
D03*
X0238366Y0150590D02*
D03*
X0238366Y0148031D02*
D03*
X0238366Y0145472D02*
D03*
X0091909Y0195177D02*
D03*
X0091909Y0192618D02*
D03*
X0091909Y0190059D02*
D03*
X0091909Y0187500D02*
D03*
X0091909Y0184940D02*
D03*
X0091909Y0182381D02*
D03*
X0091909Y0179822D02*
D03*
X0114351Y0195177D02*
D03*
X0114351Y0192618D02*
D03*
X0114351Y0190059D02*
D03*
X0114351Y0187500D02*
D03*
X0114351Y0184940D02*
D03*
X0114351Y0182381D02*
D03*
X0114351Y0179822D02*
D03*
X0091417Y0240157D02*
D03*
X0091417Y0237598D02*
D03*
X0091417Y0235039D02*
D03*
X0091417Y0232480D02*
D03*
X0091417Y0229921D02*
D03*
X0091417Y0227362D02*
D03*
X0091417Y0224803D02*
D03*
X0113858Y0240157D02*
D03*
X0113858Y0237598D02*
D03*
X0113858Y0235039D02*
D03*
X0113858Y0232480D02*
D03*
X0113858Y0229921D02*
D03*
X0113858Y0227362D02*
D03*
X0113858Y0224803D02*
D03*
X0142106Y0145472D02*
D03*
X0142106Y0148031D02*
D03*
X0142106Y0150590D02*
D03*
X0142106Y0153149D02*
D03*
X0142106Y0155708D02*
D03*
X0142106Y0158267D02*
D03*
X0142106Y0160826D02*
D03*
X0119666Y0145472D02*
D03*
X0119666Y0148031D02*
D03*
X0119666Y0150590D02*
D03*
X0119666Y0153149D02*
D03*
X0119666Y0155708D02*
D03*
X0119666Y0158267D02*
D03*
X0119666Y0160826D02*
D03*
X0186398Y0145472D02*
D03*
X0186398Y0148031D02*
D03*
X0186398Y0150590D02*
D03*
X0186398Y0153149D02*
D03*
X0186398Y0155708D02*
D03*
X0186398Y0158267D02*
D03*
X0186398Y0160826D02*
D03*
X0163957Y0145472D02*
D03*
X0163957Y0148031D02*
D03*
X0163957Y0150590D02*
D03*
X0163957Y0153149D02*
D03*
X0163957Y0155708D02*
D03*
X0163957Y0158267D02*
D03*
X0163957Y0160826D02*
D03*
X0091614Y0160826D02*
D03*
X0091614Y0158267D02*
D03*
X0091614Y0155708D02*
D03*
X0091614Y0153149D02*
D03*
X0091614Y0150590D02*
D03*
X0091614Y0148031D02*
D03*
X0091614Y0145472D02*
D03*
X0114055Y0160826D02*
D03*
X0114055Y0158267D02*
D03*
X0114055Y0155708D02*
D03*
X0114055Y0153149D02*
D03*
X0114055Y0150590D02*
D03*
X0114055Y0148031D02*
D03*
X0114055Y0145472D02*
D03*
D11*
X0131673Y0267322D02*
D03*
X0131673Y0265354D02*
D03*
X0131673Y0263385D02*
D03*
X0131673Y0261417D02*
D03*
X0131673Y0259448D02*
D03*
X0131673Y0257480D02*
D03*
X0131673Y0255511D02*
D03*
X0131673Y0253543D02*
D03*
X0131673Y0251574D02*
D03*
X0131673Y0249606D02*
D03*
X0131673Y0247637D02*
D03*
X0131673Y0245669D02*
D03*
X0131673Y0243700D02*
D03*
X0131673Y0241732D02*
D03*
X0131673Y0239763D02*
D03*
X0131673Y0237795D02*
D03*
X0131673Y0235826D02*
D03*
X0131673Y0233858D02*
D03*
X0131673Y0231889D02*
D03*
X0131673Y0229921D02*
D03*
X0131673Y0227952D02*
D03*
X0131673Y0225984D02*
D03*
X0131673Y0224015D02*
D03*
X0131673Y0222047D02*
D03*
X0131673Y0220078D02*
D03*
X0131673Y0218110D02*
D03*
X0131673Y0216141D02*
D03*
X0131673Y0214173D02*
D03*
X0131673Y0212204D02*
D03*
X0131673Y0210236D02*
D03*
X0131673Y0208267D02*
D03*
X0131673Y0206299D02*
D03*
X0131673Y0204330D02*
D03*
X0131673Y0202362D02*
D03*
X0131673Y0200393D02*
D03*
X0131673Y0198425D02*
D03*
X0131673Y0196456D02*
D03*
X0131673Y0194488D02*
D03*
X0131673Y0192519D02*
D03*
X0131673Y0190551D02*
D03*
X0131673Y0188582D02*
D03*
X0131673Y0186614D02*
D03*
X0131673Y0184645D02*
D03*
X0131673Y0182677D02*
D03*
X0235217Y0182677D02*
D03*
X0235217Y0184645D02*
D03*
X0235217Y0186614D02*
D03*
X0235217Y0188582D02*
D03*
X0235217Y0190551D02*
D03*
X0235217Y0192519D02*
D03*
X0235217Y0194488D02*
D03*
X0235217Y0196456D02*
D03*
X0235217Y0198425D02*
D03*
X0235217Y0200393D02*
D03*
X0235217Y0202362D02*
D03*
X0235217Y0204330D02*
D03*
X0235217Y0206299D02*
D03*
X0235217Y0208267D02*
D03*
X0235217Y0210236D02*
D03*
X0235217Y0212204D02*
D03*
X0235217Y0214173D02*
D03*
X0235217Y0216141D02*
D03*
X0235217Y0218110D02*
D03*
X0235217Y0220078D02*
D03*
X0235217Y0222047D02*
D03*
X0235217Y0224015D02*
D03*
X0235217Y0225984D02*
D03*
X0235217Y0227952D02*
D03*
X0235217Y0229921D02*
D03*
X0235217Y0231889D02*
D03*
X0235217Y0233858D02*
D03*
X0235217Y0235826D02*
D03*
X0235217Y0237795D02*
D03*
X0235217Y0239763D02*
D03*
X0235217Y0241732D02*
D03*
X0235217Y0243700D02*
D03*
X0235217Y0245669D02*
D03*
X0235217Y0247637D02*
D03*
X0235217Y0249606D02*
D03*
X0235217Y0251574D02*
D03*
X0235217Y0253543D02*
D03*
X0235217Y0255511D02*
D03*
X0235217Y0257480D02*
D03*
X0235217Y0259448D02*
D03*
X0235217Y0261417D02*
D03*
X0235217Y0263385D02*
D03*
X0235217Y0265354D02*
D03*
X0235217Y0267322D02*
D03*
D292*
X0141122Y0173228D02*
D03*
X0143091Y0173228D02*
D03*
X0145059Y0173228D02*
D03*
X0147028Y0173228D02*
D03*
X0148996Y0173228D02*
D03*
X0150965Y0173228D02*
D03*
X0152933Y0173228D02*
D03*
X0154902Y0173228D02*
D03*
X0156870Y0173228D02*
D03*
X0158839Y0173228D02*
D03*
X0160807Y0173228D02*
D03*
X0162776Y0173228D02*
D03*
X0164744Y0173228D02*
D03*
X0166713Y0173228D02*
D03*
X0168681Y0173228D02*
D03*
X0170650Y0173228D02*
D03*
X0172618Y0173228D02*
D03*
X0174587Y0173228D02*
D03*
X0176555Y0173228D02*
D03*
X0178524Y0173228D02*
D03*
X0180492Y0173228D02*
D03*
X0182461Y0173228D02*
D03*
X0184429Y0173228D02*
D03*
X0186398Y0173228D02*
D03*
X0188366Y0173228D02*
D03*
X0190335Y0173228D02*
D03*
X0192303Y0173228D02*
D03*
X0194272Y0173228D02*
D03*
X0196240Y0173228D02*
D03*
X0198209Y0173228D02*
D03*
X0200177Y0173228D02*
D03*
X0202146Y0173228D02*
D03*
X0204114Y0173228D02*
D03*
X0206083Y0173228D02*
D03*
X0208051Y0173228D02*
D03*
X0210020Y0173228D02*
D03*
X0211988Y0173228D02*
D03*
X0213957Y0173228D02*
D03*
X0215925Y0173228D02*
D03*
X0217894Y0173228D02*
D03*
X0219862Y0173228D02*
D03*
X0221831Y0173228D02*
D03*
X0223799Y0173228D02*
D03*
X0225768Y0173228D02*
D03*
X0225768Y0276771D02*
D03*
X0223799Y0276771D02*
D03*
X0221831Y0276771D02*
D03*
X0219862Y0276771D02*
D03*
X0217894Y0276771D02*
D03*
X0215925Y0276771D02*
D03*
X0213957Y0276771D02*
D03*
X0211988Y0276771D02*
D03*
X0210020Y0276771D02*
D03*
X0208051Y0276771D02*
D03*
X0206083Y0276771D02*
D03*
X0204114Y0276771D02*
D03*
X0202146Y0276771D02*
D03*
X0200177Y0276771D02*
D03*
X0198209Y0276771D02*
D03*
X0196240Y0276771D02*
D03*
X0194272Y0276771D02*
D03*
X0192303Y0276771D02*
D03*
X0190335Y0276771D02*
D03*
X0188366Y0276771D02*
D03*
X0186398Y0276771D02*
D03*
X0184429Y0276771D02*
D03*
X0182461Y0276771D02*
D03*
X0180492Y0276771D02*
D03*
X0178524Y0276771D02*
D03*
X0176555Y0276771D02*
D03*
X0174587Y0276771D02*
D03*
X0172618Y0276771D02*
D03*
X0170650Y0276771D02*
D03*
X0168681Y0276771D02*
D03*
X0166713Y0276771D02*
D03*
X0164744Y0276771D02*
D03*
X0162776Y0276771D02*
D03*
X0160807Y0276771D02*
D03*
X0158839Y0276771D02*
D03*
X0156870Y0276771D02*
D03*
X0154902Y0276771D02*
D03*
X0152933Y0276771D02*
D03*
X0150965Y0276771D02*
D03*
X0148996Y0276771D02*
D03*
X0147028Y0276771D02*
D03*
X0145059Y0276771D02*
D03*
X0143091Y0276771D02*
D03*
X0141122Y0276771D02*
D03*
D245*
X0243327Y0160236D02*
D03*
X0249547Y0160236D02*
D03*
X0240571Y0268897D02*
D03*
X0246791Y0268897D02*
D03*
X0249921Y0210039D02*
D03*
X0256142Y0210039D02*
D03*
X0152185Y0167913D02*
D03*
X0158406Y0167913D02*
D03*
X0223327Y0281968D02*
D03*
X0217106Y0281968D02*
D03*
X0215276Y0167322D02*
D03*
X0221496Y0167322D02*
D03*
X0129449Y0275984D02*
D03*
X0135669Y0275984D02*
D03*
X0245689Y0235334D02*
D03*
X0251909Y0235334D02*
D03*
X0140669Y0167913D02*
D03*
X0146890Y0167913D02*
D03*
X0191555Y0163188D02*
D03*
X0197776Y0163188D02*
D03*
X0125138Y0234350D02*
D03*
X0118918Y0234350D02*
D03*
X0153878Y0282086D02*
D03*
X0147658Y0282086D02*
D03*
X0173347Y0281988D02*
D03*
X0179567Y0281988D02*
D03*
X0190473Y0281988D02*
D03*
X0196693Y0281988D02*
D03*
X0240984Y0179429D02*
D03*
X0234764Y0179429D02*
D03*
X0179173Y0167519D02*
D03*
X0172953Y0167519D02*
D03*
X0194823Y0167618D02*
D03*
X0188603Y0167618D02*
D03*
X0125039Y0238680D02*
D03*
X0118819Y0238680D02*
D03*
X0120000Y0194389D02*
D03*
X0126221Y0194389D02*
D03*
D63*
X0253032Y0280866D02*
D03*
X0253032Y0274645D02*
D03*
X0266811Y0163425D02*
D03*
X0266811Y0169645D02*
D03*
X0240630Y0258110D02*
D03*
X0240630Y0264330D02*
D03*
X0124685Y0223759D02*
D03*
X0124685Y0229980D02*
D03*
X0245158Y0257322D02*
D03*
X0245158Y0263543D02*
D03*
X0209725Y0147677D02*
D03*
X0209725Y0153897D02*
D03*
X0244173Y0149153D02*
D03*
X0244173Y0155374D02*
D03*
X0248603Y0155373D02*
D03*
X0248603Y0149153D02*
D03*
X0099882Y0218858D02*
D03*
X0099882Y0212637D02*
D03*
X0120158Y0223759D02*
D03*
X0120158Y0229980D02*
D03*
X0124784Y0179074D02*
D03*
X0124784Y0185295D02*
D03*
X0119961Y0178976D02*
D03*
X0119961Y0185196D02*
D03*
X0106378Y0166574D02*
D03*
X0106378Y0172795D02*
D03*
X0092795Y0212539D02*
D03*
X0092795Y0218759D02*
D03*
X0240925Y0229468D02*
D03*
X0240925Y0235688D02*
D03*
X0241024Y0214724D02*
D03*
X0241024Y0208504D02*
D03*
X0121142Y0199842D02*
D03*
X0121142Y0206062D02*
D03*
X0245551Y0212559D02*
D03*
X0245551Y0206338D02*
D03*
X0125866Y0259114D02*
D03*
X0125866Y0252893D02*
D03*
D15*
X0265827Y0228543D02*
D03*
X0265827Y0221850D02*
D03*
X0253327Y0221948D02*
D03*
X0253327Y0228641D02*
D03*
X0259528Y0228543D02*
D03*
X0259528Y0221850D02*
D03*
X0247402Y0222539D02*
D03*
X0247402Y0229232D02*
D03*
D117*
X0260610Y0163484D02*
D03*
X0260610Y0170964D02*
D03*
D265*
X0162579Y0167716D02*
D03*
X0168878Y0167716D02*
D03*
X0246240Y0217125D02*
D03*
X0252539Y0217125D02*
D03*
X0207166Y0282185D02*
D03*
X0200866Y0282185D02*
D03*
X0264744Y0216929D02*
D03*
X0258445Y0216929D02*
D03*
X0266614Y0211417D02*
D03*
X0260315Y0211417D02*
D03*
X0119961Y0189862D02*
D03*
X0126260Y0189862D02*
D03*
X0259626Y0260334D02*
D03*
X0265925Y0260334D02*
D03*
D181*
X0234626Y0270964D02*
D03*
X0234626Y0277263D02*
D03*
X0229902Y0275787D02*
D03*
X0229902Y0282086D02*
D03*
X0241024Y0225295D02*
D03*
X0241024Y0218996D02*
D03*
X0257559Y0281692D02*
D03*
X0257559Y0275393D02*
D03*
X0266614Y0270866D02*
D03*
X0266614Y0264566D02*
D03*
X0266614Y0281003D02*
D03*
X0266614Y0274704D02*
D03*
X0261988Y0272440D02*
D03*
X0261988Y0266141D02*
D03*
X0125965Y0199901D02*
D03*
X0125965Y0206200D02*
D03*
D196*
X0248484Y0277756D02*
D03*
X0239232Y0281496D02*
D03*
D196*
X0239232Y0274015D02*
D03*
D235*
X0105984Y0215256D02*
D03*
X0120551Y0215256D02*
D03*
D193*
X0247913Y0241141D02*
D03*
X0244173Y0241141D02*
D03*
X0240433Y0241141D02*
D03*
X0240433Y0250590D02*
D03*
X0244173Y0250590D02*
D03*
X0247913Y0250590D02*
D03*
D278*
X0266417Y0148326D02*
D03*
X0266417Y0155413D02*
D03*
X0256378Y0155413D02*
D03*
X0256378Y0148326D02*
D03*
X0244961Y0164862D02*
D03*
X0244961Y0171948D02*
D03*
X0255000Y0171948D02*
D03*
X0255000Y0164862D02*
D03*
X0116811Y0199310D02*
D03*
X0116811Y0206397D02*
D03*
X0106772Y0206397D02*
D03*
X0106772Y0199310D02*
D03*
X0091516Y0199311D02*
D03*
X0091516Y0206397D02*
D03*
X0101555Y0206397D02*
D03*
X0101555Y0199311D02*
D03*
X0120748Y0165944D02*
D03*
X0120748Y0173031D02*
D03*
X0110709Y0173031D02*
D03*
X0110709Y0165944D02*
D03*
X0092008Y0165944D02*
D03*
X0092008Y0173031D02*
D03*
X0102047Y0173031D02*
D03*
X0102047Y0165944D02*
D03*
X0117008Y0244488D02*
D03*
X0117008Y0251574D02*
D03*
X0106969Y0251574D02*
D03*
X0106969Y0244488D02*
D03*
X0229114Y0165157D02*
D03*
X0229114Y0172244D02*
D03*
X0239154Y0172244D02*
D03*
X0239154Y0165157D02*
D03*
X0101654Y0244488D02*
D03*
X0101654Y0251574D02*
D03*
X0091614Y0251574D02*
D03*
X0091614Y0244488D02*
D03*
X0156969Y0163681D02*
D03*
X0156969Y0156594D02*
D03*
X0146929Y0156594D02*
D03*
X0146929Y0163681D02*
D03*
X0147717Y0145374D02*
D03*
X0147717Y0152460D02*
D03*
X0157756Y0152460D02*
D03*
X0157756Y0145374D02*
D03*
D118*
X0259823Y0155413D02*
D03*
X0262973Y0155413D02*
D03*
X0262973Y0148326D02*
D03*
X0259823Y0148326D02*
D03*
X0248406Y0164862D02*
D03*
X0251555Y0164862D02*
D03*
X0251555Y0171948D02*
D03*
X0248406Y0171948D02*
D03*
X0110217Y0206397D02*
D03*
X0113366Y0206397D02*
D03*
X0113366Y0199310D02*
D03*
X0110217Y0199310D02*
D03*
X0094961Y0199311D02*
D03*
X0098110Y0199311D02*
D03*
X0098110Y0206397D02*
D03*
X0094961Y0206397D02*
D03*
X0114154Y0173031D02*
D03*
X0117303Y0173031D02*
D03*
X0117303Y0165944D02*
D03*
X0114154Y0165944D02*
D03*
X0095453Y0165944D02*
D03*
X0098603Y0165944D02*
D03*
X0098603Y0173031D02*
D03*
X0095453Y0173031D02*
D03*
X0110414Y0251574D02*
D03*
X0113563Y0251574D02*
D03*
X0113563Y0244488D02*
D03*
X0110414Y0244488D02*
D03*
X0232559Y0165157D02*
D03*
X0235709Y0165157D02*
D03*
X0235709Y0172244D02*
D03*
X0232559Y0172244D02*
D03*
X0095059Y0251574D02*
D03*
X0098209Y0251574D02*
D03*
X0098209Y0244488D02*
D03*
X0095059Y0244488D02*
D03*
X0153524Y0163681D02*
D03*
X0150374Y0163681D02*
D03*
X0150374Y0156594D02*
D03*
X0153524Y0156594D02*
D03*
X0151162Y0145374D02*
D03*
X0154311Y0145374D02*
D03*
X0154311Y0152460D02*
D03*
X0151162Y0152460D02*
D03*
D166*
X0254114Y0257086D02*
D03*
X0254114Y0270078D02*
D03*
D40*
X0133740Y0174488D02*
D03*
X0130000Y0165236D02*
D03*
D40*
X0126260Y0174488D02*
D03*
D137*
X0123996Y0248818D02*
D03*
X0123996Y0242913D02*
D03*
D164*
X0142697Y0281988D02*
D03*
X0129705Y0281988D02*
D03*
X0087795Y0082283D02*
G01*
G75*
D29*
X0106102Y0098818D02*
D03*
X0106102Y0091338D02*
D03*
D175*
X0096456Y0134941D02*
D03*
X0096456Y0117224D02*
D03*
D181*
X0188090Y0088582D02*
D03*
X0188090Y0094881D02*
D03*
D262*
X0104823Y0085826D02*
D03*
X0097342Y0085826D02*
D03*
D244*
X0100590Y0097637D02*
D03*
X0100590Y0091338D02*
D03*
D99*
X0202559Y0113287D02*
D03*
X0202559Y0117027D02*
D03*
X0202559Y0120767D02*
D03*
X0193110Y0120767D02*
D03*
X0193110Y0117027D02*
D03*
X0193110Y0113287D02*
D03*
X0125393Y0113287D02*
D03*
X0125393Y0117027D02*
D03*
X0125393Y0120767D02*
D03*
X0134842Y0120767D02*
D03*
X0134842Y0117027D02*
D03*
X0134842Y0113287D02*
D03*
X0117913Y0113287D02*
D03*
X0117913Y0117027D02*
D03*
X0117913Y0120767D02*
D03*
X0108464Y0120767D02*
D03*
X0108464Y0117027D02*
D03*
X0108464Y0113287D02*
D03*
X0142323Y0113287D02*
D03*
X0142323Y0117027D02*
D03*
X0142323Y0120767D02*
D03*
X0151771Y0120767D02*
D03*
X0151771Y0117027D02*
D03*
X0151771Y0113287D02*
D03*
X0168700Y0113287D02*
D03*
X0168700Y0117027D02*
D03*
X0168700Y0120767D02*
D03*
X0159252Y0120767D02*
D03*
X0159252Y0117027D02*
D03*
X0159252Y0113287D02*
D03*
X0176181Y0113287D02*
D03*
X0176181Y0117027D02*
D03*
X0176181Y0120767D02*
D03*
X0185630Y0120767D02*
D03*
X0185630Y0117027D02*
D03*
X0185630Y0113287D02*
D03*
D278*
X0202264Y0087893D02*
D03*
X0202264Y0094980D02*
D03*
X0192224Y0094980D02*
D03*
X0192224Y0087893D02*
D03*
X0127165Y0087893D02*
D03*
X0127165Y0094980D02*
D03*
X0137204Y0094980D02*
D03*
X0137204Y0087893D02*
D03*
X0122638Y0087893D02*
D03*
X0122638Y0094980D02*
D03*
X0112598Y0094980D02*
D03*
X0112598Y0087893D02*
D03*
X0142224Y0087893D02*
D03*
X0142224Y0094980D02*
D03*
X0152263Y0094980D02*
D03*
X0152263Y0087893D02*
D03*
X0169094Y0087893D02*
D03*
X0169094Y0094980D02*
D03*
X0159055Y0094980D02*
D03*
X0159055Y0087893D02*
D03*
X0174016Y0087893D02*
D03*
X0174016Y0094980D02*
D03*
X0184055Y0094980D02*
D03*
X0184055Y0087893D02*
D03*
X0137106Y0101673D02*
D03*
X0137106Y0108759D02*
D03*
X0127067Y0108759D02*
D03*
X0127067Y0101673D02*
D03*
X0111122Y0101673D02*
D03*
X0111122Y0108759D02*
D03*
X0121161Y0108759D02*
D03*
X0121161Y0101673D02*
D03*
X0152362Y0101673D02*
D03*
X0152362Y0108759D02*
D03*
X0142323Y0108759D02*
D03*
X0142323Y0101673D02*
D03*
X0159055Y0101673D02*
D03*
X0159055Y0108759D02*
D03*
X0169094Y0108759D02*
D03*
X0169094Y0101673D02*
D03*
X0184350Y0101673D02*
D03*
X0184350Y0108759D02*
D03*
X0174311Y0108759D02*
D03*
X0174311Y0101673D02*
D03*
X0191732Y0101771D02*
D03*
X0191732Y0108858D02*
D03*
X0201771Y0108858D02*
D03*
X0201771Y0101771D02*
D03*
D118*
X0195669Y0094980D02*
D03*
X0198819Y0094980D02*
D03*
X0198819Y0087893D02*
D03*
X0195669Y0087893D02*
D03*
X0130610Y0087893D02*
D03*
X0133760Y0087893D02*
D03*
X0133760Y0094980D02*
D03*
X0130610Y0094980D02*
D03*
X0116043Y0094980D02*
D03*
X0119193Y0094980D02*
D03*
X0119193Y0087893D02*
D03*
X0116043Y0087893D02*
D03*
X0145669Y0087893D02*
D03*
X0148819Y0087893D02*
D03*
X0148819Y0094980D02*
D03*
X0145669Y0094980D02*
D03*
X0162500Y0094980D02*
D03*
X0165649Y0094980D02*
D03*
X0165649Y0087893D02*
D03*
X0162500Y0087893D02*
D03*
X0177460Y0087893D02*
D03*
X0180610Y0087893D02*
D03*
X0180610Y0094980D02*
D03*
X0177460Y0094980D02*
D03*
X0130512Y0108759D02*
D03*
X0133661Y0108759D02*
D03*
X0133661Y0101673D02*
D03*
X0130512Y0101673D02*
D03*
X0114567Y0101673D02*
D03*
X0117716Y0101673D02*
D03*
X0117716Y0108759D02*
D03*
X0114567Y0108759D02*
D03*
X0145768Y0108759D02*
D03*
X0148917Y0108759D02*
D03*
X0148917Y0101673D02*
D03*
X0145768Y0101673D02*
D03*
X0162500Y0101673D02*
D03*
X0165649Y0101673D02*
D03*
X0165649Y0108759D02*
D03*
X0162500Y0108759D02*
D03*
X0177756Y0108759D02*
D03*
X0180905Y0108759D02*
D03*
X0180905Y0101673D02*
D03*
X0177756Y0101673D02*
D03*
X0195177Y0101771D02*
D03*
X0198326Y0101771D02*
D03*
X0198326Y0108858D02*
D03*
X0195177Y0108858D02*
D03*
D63*
X0206299Y0088031D02*
D03*
X0206299Y0094252D02*
D03*
X0171752Y0129468D02*
D03*
X0171752Y0135689D02*
D03*
X0167421Y0135689D02*
D03*
X0167421Y0129468D02*
D03*
X0163090Y0129468D02*
D03*
X0163090Y0135689D02*
D03*
X0158760Y0135689D02*
D03*
X0158760Y0129468D02*
D03*
X0176082Y0129468D02*
D03*
X0176082Y0135689D02*
D03*
X0180413Y0135689D02*
D03*
X0180413Y0129468D02*
D03*
X0184744Y0129468D02*
D03*
X0184744Y0135689D02*
D03*
X0189074Y0135689D02*
D03*
X0189074Y0129468D02*
D03*
X0141437Y0129468D02*
D03*
X0141437Y0135689D02*
D03*
X0145768Y0135689D02*
D03*
X0145768Y0129468D02*
D03*
X0150098Y0129468D02*
D03*
X0150098Y0135689D02*
D03*
X0154429Y0135689D02*
D03*
X0154429Y0129468D02*
D03*
X0106791Y0129468D02*
D03*
X0106791Y0135689D02*
D03*
X0111122Y0135689D02*
D03*
X0111122Y0129468D02*
D03*
X0115452Y0129468D02*
D03*
X0115452Y0135689D02*
D03*
X0119783Y0135689D02*
D03*
X0119783Y0129468D02*
D03*
X0124114Y0129468D02*
D03*
X0124114Y0135689D02*
D03*
X0128445Y0135689D02*
D03*
X0128445Y0129468D02*
D03*
X0132775Y0129468D02*
D03*
X0132775Y0135689D02*
D03*
X0137106Y0135689D02*
D03*
X0137106Y0129468D02*
D03*
X0206299Y0101417D02*
D03*
X0206299Y0107637D02*
D03*
X0193405Y0129468D02*
D03*
X0193405Y0135689D02*
D03*
X0197736Y0135689D02*
D03*
X0197736Y0129468D02*
D03*
X0202067Y0129468D02*
D03*
X0202067Y0135689D02*
D03*
X0206397Y0135689D02*
D03*
X0206397Y0129468D02*
D03*
D160*
X0090354Y0096555D02*
D03*
X0096653Y0096555D02*
D03*
X0096653Y0092027D02*
D03*
X0090354Y0092027D02*
D03*
X0097638Y0105511D02*
D03*
X0091338Y0105511D02*
D03*
X0097638Y0110137D02*
D03*
X0091338Y0110137D02*
D03*
D19*
X0102952Y0111023D02*
D03*
X0102952Y0103543D02*
D03*
D245*
X0090590Y0101082D02*
D03*
X0096811Y0101082D02*
D03*
X0209843Y0078150D02*
G01*
G75*
D60*
X0267323Y0091241D02*
D03*
X0239961Y0091241D02*
D03*
D178*
X0225788Y0106300D02*
D03*
X0217126Y0106300D02*
D03*
X0217422Y0116339D02*
D03*
X0226083Y0116339D02*
D03*
D249*
X0254922Y0135926D02*
D03*
X0267914Y0135926D02*
D03*
D174*
X0269882Y0120276D02*
D03*
X0269882Y0128937D02*
D03*
X0239764Y0108563D02*
D03*
X0239764Y0117225D02*
D03*
D160*
X0229430Y0106496D02*
D03*
X0235729Y0106496D02*
D03*
X0229528Y0111319D02*
D03*
X0223229Y0111319D02*
D03*
X0250689Y0119292D02*
D03*
X0244390Y0119292D02*
D03*
D196*
X0262284Y0115847D02*
D03*
X0271536Y0112107D02*
D03*
X0248308Y0114567D02*
D03*
X0257560Y0110827D02*
D03*
D196*
X0262284Y0108367D02*
D03*
X0248307Y0107087D02*
D03*
D51*
X0259646Y0129902D02*
D03*
X0255906Y0120650D02*
D03*
D51*
X0263386Y0120650D02*
D03*
D189*
X0216339Y0122441D02*
D03*
X0216339Y0134252D02*
D03*
D127*
X0225000Y0134252D02*
D03*
X0239567Y0134252D02*
D03*
D181*
X0225296Y0120867D02*
D03*
X0225296Y0127166D02*
D03*
D30*
X0213485Y0109646D02*
D03*
X0213485Y0115866D02*
D03*
D279*
X0232284Y0128839D02*
D03*
X0232284Y0115847D02*
D03*
D194*
X0248130Y0135827D02*
D03*
X0248130Y0124410D02*
D03*
X0123425Y0287992D02*
G01*
G75*
D30*
X0193996Y0310590D02*
D03*
X0193996Y0304370D02*
D03*
X0250689Y0302421D02*
D03*
X0250689Y0296201D02*
D03*
D194*
X0209153Y0314468D02*
D03*
X0209153Y0303051D02*
D03*
X0200689Y0303051D02*
D03*
X0200689Y0314468D02*
D03*
X0269586Y0307185D02*
D03*
X0269586Y0295768D02*
D03*
X0144193Y0313681D02*
D03*
X0144193Y0302264D02*
D03*
X0152854Y0302264D02*
D03*
X0152854Y0313681D02*
D03*
D220*
X0205610Y0296161D02*
D03*
X0194193Y0296161D02*
D03*
X0154429Y0295079D02*
D03*
X0143012Y0295079D02*
D03*
D192*
X0131496Y0311417D02*
D03*
X0131496Y0293701D02*
D03*
D28*
X0255905Y0307382D02*
D03*
X0259646Y0307382D02*
D03*
X0263386Y0307382D02*
D03*
X0263386Y0297146D02*
D03*
X0259646Y0297146D02*
D03*
X0255905Y0297146D02*
D03*
D61*
X0218307Y0302657D02*
D03*
X0242126Y0302657D02*
D03*
X0186122Y0302657D02*
D03*
X0162303Y0302657D02*
D03*
D164*
X0271063Y0312992D02*
D03*
X0258071Y0312992D02*
D03*
D181*
X0275910Y0304429D02*
D03*
X0275910Y0310728D02*
D03*
X0275886Y0294390D02*
D03*
X0275886Y0300689D02*
D03*
X0210728Y0292126D02*
D03*
X0210728Y0298425D02*
D03*
D201*
X0131496Y0313878D02*
D03*
X0283071Y0255906D02*
G01*
G75*
D72*
X0300689Y0303937D02*
D03*
X0300689Y0271260D02*
D03*
X0354823Y0271260D02*
D03*
X0354823Y0303937D02*
D03*
D171*
X0345453Y0293701D02*
D03*
X0341122Y0293701D02*
D03*
X0336791Y0293701D02*
D03*
X0332461Y0293701D02*
D03*
X0328130Y0293701D02*
D03*
X0323799Y0293701D02*
D03*
X0319469Y0293701D02*
D03*
X0315138Y0293701D02*
D03*
D30*
X0294784Y0308504D02*
D03*
X0294784Y0314725D02*
D03*
X0290158Y0308504D02*
D03*
X0290158Y0314725D02*
D03*
D184*
X0285630Y0314764D02*
D03*
X0285630Y0308465D02*
D03*
X0279724Y0086280D02*
G01*
G75*
D194*
X0356102Y0090808D02*
D03*
X0356102Y0102225D02*
D03*
D23*
X0350393Y0104193D02*
D03*
X0338976Y0104193D02*
D03*
D276*
X0352874Y0123682D02*
D03*
X0343622Y0127422D02*
D03*
X0350275Y0114331D02*
D03*
X0341023Y0118071D02*
D03*
D276*
X0352874Y0131162D02*
D03*
X0341023Y0110591D02*
D03*
D181*
X0354921Y0112658D02*
D03*
X0354921Y0118957D02*
D03*
X0386515Y0216753D02*
D03*
X0386515Y0223052D02*
D03*
X0388582Y0233879D02*
D03*
X0388582Y0227579D02*
D03*
X0337204Y0212619D02*
D03*
X0337204Y0206319D02*
D03*
X0386515Y0213012D02*
D03*
X0386515Y0206713D02*
D03*
D270*
X0358464Y0197067D02*
D03*
X0340354Y0197067D02*
D03*
X0358464Y0138800D02*
D03*
X0340354Y0138800D02*
D03*
X0367716Y0138800D02*
D03*
X0385826Y0138800D02*
D03*
X0367716Y0197067D02*
D03*
X0385826Y0197067D02*
D03*
X0331102Y0197067D02*
D03*
X0312992Y0197067D02*
D03*
X0285630Y0197067D02*
D03*
X0303740Y0197067D02*
D03*
X0312598Y0138800D02*
D03*
X0330708Y0138800D02*
D03*
X0302952Y0138800D02*
D03*
X0284842Y0138800D02*
D03*
D277*
X0349409Y0197067D02*
D03*
X0349409Y0138800D02*
D03*
X0376771Y0138800D02*
D03*
X0376771Y0197067D02*
D03*
X0322047Y0197067D02*
D03*
X0294685Y0197067D02*
D03*
X0321653Y0138800D02*
D03*
X0293897Y0138800D02*
D03*
D168*
X0349409Y0172658D02*
D03*
X0349409Y0163209D02*
D03*
X0376771Y0163209D02*
D03*
X0376771Y0172658D02*
D03*
X0322047Y0172658D02*
D03*
X0294685Y0172658D02*
D03*
X0321653Y0163209D02*
D03*
X0293897Y0163209D02*
D03*
D40*
X0307381Y0098957D02*
D03*
X0303641Y0089705D02*
D03*
X0289665Y0089705D02*
D03*
X0293405Y0098957D02*
D03*
X0317224Y0089705D02*
D03*
X0320964Y0098957D02*
D03*
X0329724Y0122442D02*
D03*
X0333464Y0131694D02*
D03*
X0296752Y0117658D02*
D03*
X0300492Y0126910D02*
D03*
D40*
X0299901Y0098957D02*
D03*
X0285925Y0098957D02*
D03*
X0313484Y0098957D02*
D03*
X0337204Y0122442D02*
D03*
X0293011Y0126910D02*
D03*
D167*
X0311318Y0163209D02*
D03*
X0304232Y0163209D02*
D03*
X0304232Y0173249D02*
D03*
X0311318Y0173249D02*
D03*
X0290354Y0209863D02*
D03*
X0283267Y0209863D02*
D03*
X0283267Y0219902D02*
D03*
X0290354Y0219902D02*
D03*
X0367027Y0172855D02*
D03*
X0359940Y0172855D02*
D03*
X0359940Y0162815D02*
D03*
X0367027Y0162815D02*
D03*
D258*
X0311318Y0166654D02*
D03*
X0311318Y0169804D02*
D03*
X0304232Y0169804D02*
D03*
X0304232Y0166654D02*
D03*
X0290354Y0213308D02*
D03*
X0290354Y0216457D02*
D03*
X0283267Y0216457D02*
D03*
X0283267Y0213308D02*
D03*
X0359940Y0166260D02*
D03*
X0359940Y0169410D02*
D03*
X0367027Y0169410D02*
D03*
X0367027Y0166260D02*
D03*
D191*
X0285157Y0229941D02*
D03*
X0290157Y0229941D02*
D03*
X0295157Y0229941D02*
D03*
X0300157Y0229941D02*
D03*
X0305157Y0229941D02*
D03*
X0310157Y0229941D02*
D03*
X0315157Y0229941D02*
D03*
X0320157Y0229941D02*
D03*
X0285157Y0248839D02*
D03*
X0290157Y0248839D02*
D03*
X0295157Y0248839D02*
D03*
X0300157Y0248839D02*
D03*
X0305157Y0248839D02*
D03*
X0310157Y0248839D02*
D03*
X0315157Y0248839D02*
D03*
X0320157Y0248839D02*
D03*
X0361594Y0249036D02*
D03*
X0356594Y0249036D02*
D03*
X0351594Y0249036D02*
D03*
X0346594Y0249036D02*
D03*
X0341594Y0249036D02*
D03*
X0336594Y0249036D02*
D03*
X0331594Y0249036D02*
D03*
X0326594Y0249036D02*
D03*
X0361594Y0230138D02*
D03*
X0356594Y0230138D02*
D03*
X0351594Y0230138D02*
D03*
X0346594Y0230138D02*
D03*
X0341594Y0230138D02*
D03*
X0336594Y0230138D02*
D03*
X0331594Y0230138D02*
D03*
X0326594Y0230138D02*
D03*
X0368189Y0230138D02*
D03*
X0373189Y0230138D02*
D03*
X0378189Y0230138D02*
D03*
X0383189Y0230138D02*
D03*
X0368189Y0249036D02*
D03*
X0373189Y0249036D02*
D03*
X0378189Y0249036D02*
D03*
X0383189Y0249036D02*
D03*
D185*
X0366732Y0205414D02*
D03*
X0366732Y0210414D02*
D03*
X0366732Y0215414D02*
D03*
X0366732Y0220414D02*
D03*
X0347834Y0205414D02*
D03*
X0347834Y0210414D02*
D03*
X0347834Y0215414D02*
D03*
X0347834Y0220414D02*
D03*
X0364961Y0104961D02*
D03*
X0364961Y0099961D02*
D03*
X0364961Y0094961D02*
D03*
X0364961Y0089961D02*
D03*
X0383858Y0104961D02*
D03*
X0383858Y0099961D02*
D03*
X0383858Y0094961D02*
D03*
X0383858Y0089961D02*
D03*
X0382087Y0111812D02*
D03*
X0382087Y0116811D02*
D03*
X0382087Y0121811D02*
D03*
X0382087Y0126812D02*
D03*
X0363189Y0111812D02*
D03*
X0363189Y0116811D02*
D03*
X0363189Y0121811D02*
D03*
X0363189Y0126812D02*
D03*
D87*
X0381693Y0205138D02*
D03*
X0374212Y0205138D02*
D03*
X0374114Y0221772D02*
D03*
X0381594Y0221772D02*
D03*
D245*
X0326811Y0222855D02*
D03*
X0333031Y0222855D02*
D03*
X0307244Y0222953D02*
D03*
X0301023Y0222953D02*
D03*
D19*
X0284645Y0111339D02*
D03*
X0284645Y0103859D02*
D03*
X0291535Y0103859D02*
D03*
X0291535Y0111339D02*
D03*
X0298425Y0111339D02*
D03*
X0298425Y0103859D02*
D03*
X0305315Y0103859D02*
D03*
X0305315Y0111339D02*
D03*
X0312204Y0111339D02*
D03*
X0312204Y0103859D02*
D03*
X0319094Y0103859D02*
D03*
X0319094Y0111339D02*
D03*
X0325984Y0111339D02*
D03*
X0325984Y0103859D02*
D03*
X0332874Y0103859D02*
D03*
X0332874Y0111339D02*
D03*
X0345374Y0090374D02*
D03*
X0345374Y0097855D02*
D03*
X0338189Y0097658D02*
D03*
X0338189Y0090178D02*
D03*
D279*
X0323130Y0117638D02*
D03*
X0323130Y0130630D02*
D03*
X0285925Y0130237D02*
D03*
X0285925Y0117245D02*
D03*
X0307086Y0117638D02*
D03*
X0307086Y0130630D02*
D03*
X0315255Y0130630D02*
D03*
X0315255Y0117638D02*
D03*
D265*
X0332677Y0097264D02*
D03*
X0326378Y0097264D02*
D03*
X0326279Y0091654D02*
D03*
X0332578Y0091654D02*
D03*
X0330216Y0117737D02*
D03*
X0336515Y0117737D02*
D03*
X0301082Y0131615D02*
D03*
X0294783Y0131615D02*
D03*
X0374704Y0211241D02*
D03*
X0381003Y0211241D02*
D03*
X0374704Y0216162D02*
D03*
X0381003Y0216162D02*
D03*
X0077461Y0288583D02*
G01*
G75*
D40*
X0088878Y0301595D02*
D03*
X0085138Y0292343D02*
D03*
D40*
X0081398Y0301595D02*
D03*
D185*
X0096437Y0313209D02*
D03*
X0096437Y0308209D02*
D03*
X0096437Y0303209D02*
D03*
X0096437Y0298209D02*
D03*
X0115335Y0313209D02*
D03*
X0115335Y0308209D02*
D03*
X0115335Y0303209D02*
D03*
X0115335Y0298209D02*
D03*
D260*
X0112146Y0292914D02*
D03*
X0118366Y0292914D02*
D03*
X0103800Y0292914D02*
D03*
X0097579Y0292914D02*
D03*
D265*
X0081988Y0306496D02*
D03*
X0088288Y0306496D02*
D03*
D129*
X0092618Y0290453D02*
D03*
X0275394Y0255217D02*
G01*
G75*
D260*
X0278780Y0287205D02*
D03*
X0285000Y0287205D02*
D03*
D249*
X0281890Y0301674D02*
D03*
X0294882Y0301674D02*
D03*
X0295079Y0293504D02*
D03*
X0282087Y0293504D02*
D03*
D160*
X0289075Y0287343D02*
D03*
X0295374Y0287343D02*
D03*
D191*
X0293918Y0280217D02*
D03*
X0288918Y0280217D02*
D03*
X0283918Y0280217D02*
D03*
X0278918Y0280217D02*
D03*
X0293918Y0261320D02*
D03*
X0288918Y0261320D02*
D03*
X0283918Y0261320D02*
D03*
X0278918Y0261320D02*
D03*
X0052362Y0238189D02*
G01*
G75*
D242*
X0079410Y0256890D02*
D03*
X0079410Y0259449D02*
D03*
X0079410Y0262008D02*
D03*
X0079410Y0264567D02*
D03*
X0079410Y0267126D02*
D03*
X0079410Y0269685D02*
D03*
X0079410Y0272244D02*
D03*
X0079410Y0274803D02*
D03*
X0079410Y0277362D02*
D03*
X0079410Y0279921D02*
D03*
X0079410Y0282480D02*
D03*
X0079410Y0285039D02*
D03*
X0056417Y0256890D02*
D03*
X0056417Y0259449D02*
D03*
X0056417Y0262008D02*
D03*
X0056417Y0264567D02*
D03*
X0056417Y0267126D02*
D03*
X0056417Y0269685D02*
D03*
X0056417Y0272244D02*
D03*
X0056417Y0274803D02*
D03*
X0056417Y0277362D02*
D03*
X0056417Y0279921D02*
D03*
X0056417Y0282480D02*
D03*
X0056417Y0285039D02*
D03*
D260*
X0056437Y0288976D02*
D03*
X0062658Y0288976D02*
D03*
X0073189Y0288976D02*
D03*
X0066968Y0288976D02*
D03*
D160*
X0075197Y0251772D02*
D03*
X0081496Y0251772D02*
D03*
X0062205Y0251378D02*
D03*
X0068504Y0251378D02*
D03*
D184*
X0070280Y0240748D02*
D03*
X0070280Y0247047D02*
D03*
X0063957Y0247047D02*
D03*
X0063957Y0240748D02*
D03*
X0059331Y0240748D02*
D03*
X0059331Y0247047D02*
D03*
X0079508Y0246949D02*
D03*
X0079508Y0240650D02*
D03*
X0054705Y0247047D02*
D03*
X0054705Y0240748D02*
D03*
X0074902Y0247047D02*
D03*
X0074902Y0240748D02*
D03*
M02*
