G75*
G70*
%OFA0B0*%
%FSLAX25Y25*%
%IPPOS*%
%LPD*%
%AMOC8*
5,1,8,0,0,1.08239X$1,22.5*
%
%ADD222C,0.00669*%
%ADD67C,0.00787*%
X0000000Y0000000D02*
G01*
G75*
D67*
X0089764Y0139665D02*
X0207480Y0139665D01*
X0209449Y0137697D01*
X0209449Y0086319D02*
X0209449Y0137697D01*
X0205807Y0082677D02*
X0209449Y0086319D01*
X0094291Y0082677D02*
X0205827Y0082677D01*
X0088189Y0088779D02*
X0094291Y0082677D01*
X0088189Y0088779D02*
X0088189Y0138091D01*
X0089764Y0139665D01*
X0089695Y0286811D02*
X0260512Y0286811D01*
X0263268Y0284055D01*
X0269272Y0284055D01*
X0087776Y0142796D02*
X0090016Y0140555D01*
X0270154Y0283172D02*
X0270154Y0141903D01*
X0087776Y0284891D02*
X0087776Y0142796D01*
X0087776Y0284891D02*
X0089695Y0286811D01*
X0090016Y0140555D02*
X0268806Y0140555D01*
X0270154Y0141903D01*
X0269272Y0284055D02*
X0270154Y0283172D01*
X0273917Y0078543D02*
X0273917Y0139665D01*
X0210236Y0139665D02*
X0273917Y0139665D01*
X0238189Y0078543D02*
X0273917Y0078543D01*
X0231004Y0103051D02*
X0233957Y0100098D01*
X0210236Y0103543D02*
X0210236Y0139665D01*
X0210729Y0103051D02*
X0231004Y0103051D01*
X0210236Y0103543D02*
X0210729Y0103051D01*
X0233957Y0082776D02*
X0233957Y0100098D01*
X0233957Y0082776D02*
X0238189Y0078543D01*
X0283465Y0316437D02*
X0356890Y0316437D01*
X0357677Y0266183D02*
X0357677Y0315650D01*
X0297835Y0256299D02*
X0354730Y0256299D01*
X0297835Y0256299D02*
X0297835Y0304823D01*
X0296063Y0306594D02*
X0297835Y0304823D01*
X0283465Y0306594D02*
X0296063Y0306594D01*
X0283465Y0306594D02*
X0283465Y0316437D01*
X0354730Y0266183D02*
X0357677Y0266183D01*
X0354730Y0256299D02*
X0354730Y0266183D01*
X0077854Y0293504D02*
X0077854Y0315936D01*
X0079158Y0288976D02*
X0121850Y0288976D01*
X0077854Y0315936D02*
X0121850Y0316089D01*
X0121850Y0288952D02*
X0121850Y0316089D01*
X0077854Y0293504D02*
X0078937Y0292421D01*
X0078937Y0289173D02*
X0078937Y0292421D01*
X0078937Y0289173D02*
X0079158Y0288976D01*
X0297047Y0255610D02*
X0297047Y0304429D01*
X0275787Y0255610D02*
X0297047Y0255610D01*
X0275787Y0255610D02*
X0275787Y0288780D01*
X0279921Y0292914D02*
X0279921Y0304528D01*
X0281299Y0305906D01*
X0295571Y0305906D01*
X0297047Y0304429D01*
X0275886Y0288878D02*
X0279921Y0292914D01*
X0279984Y0151154D02*
X0280518Y0151688D01*
X0279984Y0087655D02*
X0279984Y0151154D01*
X0279984Y0087655D02*
X0280943Y0086696D01*
X0389148Y0086696D01*
X0280518Y0151688D02*
X0280518Y0249129D01*
X0286719Y0255330D02*
X0388786Y0255330D01*
X0280518Y0249129D02*
X0286719Y0255330D01*
X0388786Y0255330D02*
X0390656Y0253460D01*
X0389148Y0086696D02*
X0390656Y0088204D01*
X0390656Y0253460D01*
X0123819Y0288386D02*
X0272047Y0288386D01*
X0274410Y0290748D01*
X0276476Y0290748D01*
X0279035Y0293307D01*
X0244980Y0310925D02*
X0255315Y0310925D01*
X0123819Y0316928D02*
X0279035Y0316635D01*
X0123819Y0288386D02*
X0123819Y0316928D01*
X0279035Y0293307D02*
X0279035Y0316635D01*
X0053884Y0292416D02*
X0076476Y0292416D01*
X0076476Y0290059D02*
X0079429Y0287106D01*
X0083366Y0239567D02*
X0083366Y0287106D01*
X0082383Y0238584D02*
X0083366Y0239567D01*
X0053445Y0238584D02*
X0082383Y0238584D01*
X0052461Y0239568D02*
X0053445Y0238584D01*
X0052461Y0239568D02*
X0052461Y0290992D01*
X0053884Y0292416D01*
X0076476Y0290059D02*
X0076476Y0292416D01*
X0079429Y0287106D02*
X0083366Y0287106D01*
D222*
X0273766Y0051614D02*
X0274842Y0051614D01*
X0274304Y0051614D01*
X0274304Y0048924D01*
X0274842Y0048386D01*
X0275380Y0048386D01*
X0275918Y0048924D01*
X0272691Y0051076D02*
X0272153Y0051614D01*
X0271077Y0051614D01*
X0270539Y0051076D01*
X0270539Y0050538D01*
X0271077Y0050000D01*
X0271615Y0050000D01*
X0271077Y0050000D01*
X0270539Y0049462D01*
X0270539Y0048924D01*
X0271077Y0048386D01*
X0272153Y0048386D01*
X0272691Y0048924D01*
X0087382Y0140157D02*
G01*
G75*
D67*
X0089696Y0286810D02*
X0260512Y0286810D01*
X0263268Y0284055D01*
X0269272Y0284055D01*
X0087776Y0142795D02*
X0090016Y0140555D01*
X0270155Y0283172D02*
X0270155Y0141903D01*
X0087776Y0284891D02*
X0087776Y0142795D01*
X0087776Y0284891D02*
X0089696Y0286810D01*
X0090016Y0140555D02*
X0268806Y0140555D01*
X0270155Y0141903D01*
X0269272Y0284055D02*
X0270155Y0283172D01*
X0087795Y0082283D02*
G01*
G75*
D67*
X0089764Y0139665D02*
X0207480Y0139665D01*
X0209448Y0137696D01*
X0209448Y0086318D02*
X0209448Y0137696D01*
X0205807Y0082677D02*
X0209448Y0086318D01*
X0094291Y0082677D02*
X0205827Y0082677D01*
X0088189Y0088779D02*
X0094291Y0082677D01*
X0088189Y0088779D02*
X0088189Y0138090D01*
X0089764Y0139665D01*
X0209843Y0078150D02*
G01*
G75*
D67*
X0233957Y0082776D02*
X0238189Y0078544D01*
X0233957Y0082776D02*
X0233957Y0100099D01*
X0210237Y0103544D02*
X0210729Y0103051D01*
X0231005Y0103051D01*
X0210237Y0103544D02*
X0210237Y0139666D01*
X0231005Y0103051D02*
X0233957Y0100099D01*
X0238189Y0078544D02*
X0273918Y0078544D01*
X0210237Y0139666D02*
X0273918Y0139666D01*
X0273918Y0078544D02*
X0273918Y0139666D01*
X0123425Y0287992D02*
G01*
G75*
D67*
X0123819Y0288386D02*
X0272047Y0288386D01*
X0274409Y0290748D01*
X0276476Y0290748D01*
X0279035Y0293307D01*
X0244980Y0310925D02*
X0255315Y0310925D01*
X0123819Y0316928D02*
X0279035Y0316635D01*
X0123819Y0288386D02*
X0123819Y0316928D01*
X0279035Y0293307D02*
X0279035Y0316635D01*
X0283071Y0255906D02*
G01*
G75*
D67*
X0354730Y0256300D02*
X0354730Y0266183D01*
X0357677Y0266183D01*
X0283465Y0306595D02*
X0283465Y0316438D01*
X0283465Y0306595D02*
X0296063Y0306595D01*
X0297835Y0304823D01*
X0297835Y0256300D02*
X0297835Y0304823D01*
X0297835Y0256300D02*
X0354730Y0256300D01*
X0357677Y0266183D02*
X0357677Y0315650D01*
X0283465Y0316438D02*
X0356890Y0316438D01*
X0279724Y0086280D02*
G01*
G75*
D67*
X0279984Y0151155D02*
X0280517Y0151688D01*
X0279984Y0087655D02*
X0279984Y0151155D01*
X0279984Y0087655D02*
X0280943Y0086696D01*
X0389147Y0086696D01*
X0280517Y0151688D02*
X0280517Y0249129D01*
X0286718Y0255330D02*
X0388785Y0255330D01*
X0280517Y0249129D02*
X0286718Y0255330D01*
X0388785Y0255330D02*
X0390655Y0253460D01*
X0389147Y0086696D02*
X0390655Y0088204D01*
X0390655Y0253460D01*
X0077461Y0288583D02*
G01*
G75*
D67*
X0078937Y0289174D02*
X0079159Y0288977D01*
X0078937Y0289174D02*
X0078937Y0292422D01*
X0077855Y0293504D02*
X0078937Y0292422D01*
X0121851Y0288952D02*
X0121851Y0316090D01*
X0077855Y0315937D02*
X0121851Y0316090D01*
X0079159Y0288977D02*
X0121851Y0288977D01*
X0077855Y0293504D02*
X0077855Y0315937D01*
X0275394Y0255217D02*
G01*
G75*
D67*
X0297048Y0255611D02*
X0297048Y0304430D01*
X0275788Y0255611D02*
X0297048Y0255611D01*
X0275788Y0255611D02*
X0275788Y0288780D01*
X0279922Y0292914D02*
X0279922Y0304528D01*
X0281300Y0305906D01*
X0295571Y0305906D01*
X0297048Y0304430D01*
X0275886Y0288878D02*
X0279922Y0292914D01*
X0052362Y0238189D02*
G01*
G75*
D67*
X0079134Y0287106D02*
X0083071Y0287106D01*
X0076181Y0290059D02*
X0076181Y0292416D01*
X0052362Y0291189D02*
X0053589Y0292416D01*
X0052362Y0239371D02*
X0053150Y0238584D01*
X0082088Y0238584D01*
X0083071Y0239567D01*
X0083071Y0287106D01*
X0076181Y0290059D02*
X0079134Y0287106D01*
X0053589Y0292416D02*
X0076181Y0292416D01*
M02*
