M48
INCH,TZ
T01C0.011800
T02C0.019700
T03C0.027600
T04C0.037400
T05C0.045400
T06C0.051200
T07C0.098400
T08C0.118100
T09C0.157500
%
T01
X8888Y394
X11742Y394
X14596Y394
X13396Y2352
X15305Y3583
X13907Y5138
X12480Y5285
X10827Y5207
X10384Y5423
X11083Y5680
X9626Y5128
X9488Y6850
X8573Y9370
X8317Y9577
X8612Y2982
X14468Y8002
X14843Y7982
X15984Y8031
X18130Y7992
X18360Y6589
X17825Y4892
X19380Y4636
X20768Y5472
X21811Y5502
X23071Y5502
X22352Y7972
X23287Y8573
X22779Y9567
X22933Y10108
X21506Y10197
X21329Y10581
X20994Y10728
X21555Y9459
X22071Y9262
X21339Y8750
X20335Y8140
X19990Y8140
X20600Y6713
X21260Y2175
X18671Y2283
X19222Y1457
X20305Y394
X17451Y394
X23159Y394
X26014Y394
X28868Y394
X29518Y3376
X27985Y4491
X28219Y4774
X28484Y5089
X28834Y5359
X28346Y5699
X26772Y5522
X26171Y7608
X25315Y7884
X27254Y7835
X27638Y8780
X27933Y8642
X27628Y10305
X27598Y13927
X27677Y14281
X27461Y14528
X27854Y14843
X27224Y15571
X26713Y13799
X23474Y13278
X23031Y14016
X23481Y11218
X24222Y11024
X29775Y7737
X29951Y7461
X16506Y5531
X16172Y5542
X31407Y6033
X33287Y6093
X33287Y6329
X33287Y6565
X33287Y6801
X33287Y7037
X33287Y7274
X33287Y7510
X33573Y7510
X33573Y7274
X33573Y7037
X33573Y6801
X33573Y6565
X33573Y6329
X33573Y6093
X34606Y4675
X34596Y2008
X33927Y984
X31722Y394
X32047Y3494
X38917Y7766
X38957Y25591
X37884Y26319
X37589Y26516
X37293Y26909
X36565Y26526
X35974Y26476
X35955Y26821
X35665Y26368
X35659Y27569
X35955Y28770
X35965Y29370
X36329Y29065
X35277Y29007
X34134Y28740
X33258Y28740
X32402Y28740
X31939Y28740
X34154Y25610
X36230Y30335
X37624Y29118
X38199Y29675
X38888Y30246
X38868Y28258
X29774Y28110
X30276Y29004
X28604Y29311
X27549Y28819
X27382Y28543
X26703Y28435
X27884Y26781
X28386Y26781
X29035Y26781
X29390Y26781
X29823Y25679
X31053Y25630
X28524Y25472
X28238Y25335
X27697Y25344
X27224Y24872
X29656Y30935
X13140Y30020
X12323Y30630
X12283Y28858
X10778Y29400
X10433Y29606
X10896Y29902
X9616Y28907
X7500Y28652
X7506Y27904
X7421Y27520
X7506Y27175
X7535Y26841
X7713Y26201
X8228Y25945
X8228Y26713
X8228Y27736
X5896Y28770
X5472Y29528
X4882Y24921
X7087Y23189
X7520Y31378
X8691Y31841
X8826Y34132
X11681Y34132
X14535Y34132
X12593Y31516
X10866Y31299
X17421Y31516
X17389Y34132
X20244Y34132
X23098Y34132
X23012Y31516
X27303Y31516
X28091Y31594
X28807Y34132
X25952Y34132
X31661Y34132
X31909Y31939
X35689Y31919
X38691Y31919
X37370Y34132
X34515Y34132
X9712Y14557
X10086Y14538
X10529Y15118
X11051Y15315
X11021Y15630
X10687Y16260
X9860Y16132
X9525Y15620
X9535Y15069
X11553Y15059
X12242Y15049
X12488Y14843
X12901Y14518
X13335Y14508
X13147Y15030
X12675Y15512
X12281Y15561
X12390Y16053
X12862Y15975
X13561Y15610
X13777Y16427
X14329Y16339
X14319Y16821
X13906Y17313
X13679Y17981
X14201Y17943
X14437Y18160
X14585Y17855
X15067Y17776
X15195Y18120
X15510Y18002
X15647Y18376
X15982Y18150
X16140Y17796
X16445Y17894
X17311Y18435
X16838Y19164
X17479Y19676
X17773Y19843
X18059Y19616
X19329Y19547
X19280Y18632
X19289Y18317
X19289Y18002
X19112Y16870
X18492Y16870
X19378Y16378
X19998Y16447
X19968Y16792
X20579Y16575
X20775Y16841
X20727Y17855
X20569Y18130
X20490Y18435
X20264Y18662
X20116Y18967
X21455Y18268
X21750Y18150
X21947Y16831
X22153Y15896
X22410Y15679
X22714Y15817
X23069Y15847
X23227Y16319
X23551Y16322
X23867Y16339
X22862Y16319
X22932Y17422
X23256Y17422
X23571Y17431
X23925Y17422
X23157Y14538
X22439Y15207
X20608Y15355
X20323Y15502
X19929Y15571
X19614Y15581
X19417Y14931
X18227Y14922
X18216Y14607
X18197Y15473
X17921Y16024
X17429Y16427
X16632Y16388
X16937Y15965
X16809Y15670
X15992Y15906
X15530Y16044
X15283Y15807
X14840Y15876
X14978Y16437
X15638Y16782
X15136Y15305
X14378Y15315
X15293Y14626
X17321Y14764
X17547Y14990
X20953Y14360
X21966Y20483
X21966Y20802
X21789Y21201
X21509Y20993
X21258Y21201
X21347Y21674
X21592Y21949
X21405Y22736
X21710Y22825
X22025Y22855
X22356Y22894
X21110Y23110
X21317Y23367
X21278Y23857
X21563Y23997
X21947Y24282
X22331Y24479
X22911Y24813
X23078Y25286
X23088Y26939
X23797Y26998
X24142Y27776
X22569Y27313
X21796Y27289
X21504Y26369
X21484Y26044
X21347Y25759
X21386Y25286
X21120Y25103
X20460Y24705
X20171Y24188
X20116Y23199
X20136Y22874
X20480Y22589
X20609Y23062
X21071Y22550
X19407Y22628
X19427Y22983
X19595Y23278
X19397Y23573
X18521Y23445
X17872Y23740
X17557Y23721
X16691Y23642
X16481Y22727
X16996Y22589
X17557Y22225
X17734Y21939
X17685Y21536
X17272Y21280
X17498Y20660
X17901Y20925
X18492Y21231
X19044Y21851
X19378Y21841
X19717Y21838
X19132Y22156
X18197Y22441
X15825Y22481
X15500Y22412
X15884Y21890
X16642Y21585
X16297Y21162
X16769Y20827
X15569Y20670
X15717Y20158
X15077Y20207
X14604Y20020
X14516Y19401
X13984Y19065
X13649Y18731
X13640Y19803
X13728Y20719
X14043Y20709
X14142Y20404
X14043Y21192
X13955Y21496
X13640Y21526
X14309Y21368
X13876Y23977
X13649Y24370
X13827Y24862
X13768Y25236
X13807Y25670
X12449Y25709
X11996Y25955
X11792Y26248
X11307Y26565
X11327Y26880
X10519Y27087
X10254Y27264
X10332Y27845
X10588Y27658
X11464Y27884
X11740Y27658
X12035Y27372
X12429Y27008
X12449Y28012
X13185Y27829
X13492Y28219
X13807Y28170
X14063Y27215
X14191Y26920
X14506Y26959
X14575Y26339
X15332Y27028
X15539Y27274
X16691Y26595
X16514Y26320
X16605Y26010
X16878Y25679
X17144Y25502
X17449Y25414
X17613Y25886
X17360Y26093
X17956Y26436
X17665Y27195
X18384Y27223
X18246Y28130
X18581Y28110
X19299Y28130
X20303Y28130
X21967Y26185
X18542Y25001
X17872Y25059
X14368Y24823
X15510Y23435
X12262Y23780
X12001Y23269
X11199Y22992
X10962Y22776
X11110Y23504
X10598Y23376
X10283Y23012
X9329Y23248
X9663Y24046
X10677Y24213
X10884Y24990
X11504Y24951
X9968Y24990
X9358Y24971
X9043Y25679
X10382Y25581
X10116Y28544
X9771Y28406
X9279Y22136
X8974Y22215
X9565Y21299
X9666Y20985
X9988Y20866
X9958Y20266
X10490Y20483
X11307Y20808
X11408Y20207
X12203Y20394
X12246Y19561
X10795Y19577
X10313Y19498
X10234Y19183
X9447Y19026
X9535Y18514
X10480Y18366
X11110Y18494
X11149Y19016
X12124Y18120
X12478Y18130
X13010Y18002
X13364Y17677
X11897Y16959
X15096Y19065
X15342Y19331
X15579Y19006
X19525Y20871
X20313Y21004
X22262Y20375
X22617Y20512
X22754Y20797
X23069Y20827
X24210Y20994
X24290Y22294
X10008Y21644
X9092Y20286
X24556Y18741
X25047Y18898
X25442Y18691
X25825Y18691
X26317Y18898
X26238Y19252
X26523Y18642
X26494Y17116
X26405Y15896
X26083Y15896
X25854Y15404
X25234Y15168
X25238Y14725
X24732Y15945
X24781Y16998
X25126Y16998
X24953Y17589
X25371Y21329
X25609Y21329
X26051Y21683
X26277Y21181
X24831Y21762
X24476Y23908
X24407Y24853
X25431Y24695
X25504Y24223
X26553Y24380
X26572Y24961
X26455Y26112
X26268Y26408
X25972Y26290
X25647Y26294
X25687Y25660
X25304Y26625
X24987Y26605
X24501Y27269
X24899Y28071
X25273Y27717
X25785Y27145
X26140Y27392
X26356Y27864
X26730Y27746
X26582Y26624
X9036Y8956
X9292Y10010
X9449Y10285
X9130Y11245
X9121Y12167
X10159Y12162
X10611Y12539
X10992Y12481
X11546Y12509
X11930Y12447
X12284Y12551
X12668Y12447
X13367Y12401
X13721Y12490
X14164Y12519
X14587Y12372
X14804Y12120
X15050Y12401
X15473Y12509
X15886Y12598
X16349Y12559
X16477Y12116
X16782Y12401
X17176Y12539
X17550Y12450
X18052Y12450
X18465Y12401
X18189Y12106
X17855Y11761
X18317Y11387
X18908Y10502
X19233Y10502
X18819Y10186
X18790Y9793
X18475Y9803
X18113Y9788
X17786Y9734
X17242Y9431
X17225Y10521
X16901Y10521
X16634Y11368
X16182Y11693
X14941Y11368
X14479Y11702
X13209Y11368
X12815Y11693
X13102Y12117
X11546Y11763
X11251Y11389
X11420Y11122
X10758Y10718
X10749Y10403
X10758Y10088
X10699Y9508
X11132Y9803
X11467Y9832
X11789Y9825
X12126Y9809
X12619Y9813
X12934Y9824
X13428Y9808
X13750Y9813
X14272Y9891
X14588Y9814
X15689Y9660
X16155Y9813
X15631Y10513
X15237Y10521
X19636Y9852
X19951Y9832
X20266Y9754
X20552Y9202
X20592Y10375
X20511Y10836
X20020Y11319
X19637Y11635
X19882Y12067
X19774Y12480
X20158Y12401
X20650Y12411
X19174Y12401
X18859Y12605
X9666Y13002
X10168Y11309
X10896Y8710
X21328Y10581
X23481Y11218
X24222Y11024
X23474Y13278
X26712Y13799
X13140Y30019
X12594Y31516
X17422Y31516
X23012Y31516
X27304Y31516
X30276Y29004
X31939Y28741
X32401Y28741
X33258Y28741
X34134Y28741
X35277Y29008
X29655Y30935
X28238Y13270
X29793Y13422
X29852Y13864
X29881Y12772
X29675Y12532
X31161Y12601
X30944Y12024
X30708Y14431
X30708Y14638
X30708Y14874
X30078Y14819
X29931Y15154
X29606Y14789
X28740Y14535
X28346Y15573
X28405Y16561
X28405Y16817
X28248Y17118
X28248Y17433
X28267Y17797
X28269Y18124
X28279Y18439
X28318Y18754
X28297Y19077
X28641Y18884
X28878Y18894
X29025Y19402
X29025Y19648
X29261Y19653
X29517Y20327
X29822Y20248
X30206Y20799
X30492Y21104
X30482Y22305
X31358Y22266
X31582Y23356
X31988Y23348
X32086Y23654
X31850Y23870
X31527Y23872
X31327Y23591
X31035Y23754
X31023Y23435
X30718Y23575
X30679Y23260
X28887Y23978
X28815Y22167
X28681Y21854
X28681Y21539
X29421Y21588
X30049Y18841
X30295Y18841
X30547Y18841
X30877Y18351
X31358Y18314
X31663Y18205
X31919Y19238
X31919Y19455
X31712Y19498
X31712Y19813
X31642Y20260
X33307Y20852
X33257Y21246
X32815Y21443
X32716Y22411
X33090Y22388
X33159Y22709
X33661Y22541
X34168Y22664
X34659Y22699
X35049Y22699
X35482Y22699
X36175Y22379
X36614Y22348
X37007Y21876
X37086Y20744
X36574Y20350
X36417Y21001
X36004Y21621
X35935Y22093
X35551Y20764
X34104Y20465
X33937Y19081
X33937Y18864
X33730Y18795
X33513Y19028
X33622Y17043
X34646Y18048
X36466Y18520
X36763Y18891
X37204Y19632
X37209Y19875
X38031Y19160
X37893Y18112
X37559Y18274
X36781Y17681
X36594Y16626
X36791Y16173
X36259Y15770
X36515Y15347
X36594Y14776
X35982Y14406
X36250Y12998
X36407Y12683
X36220Y12171
X36128Y11678
X36122Y10813
X36161Y10163
X36594Y10587
X37057Y10862
X37049Y11467
X37029Y11686
X37130Y12654
X37578Y12939
X38110Y13136
X38513Y12679
X38513Y12433
X38513Y12187
X38238Y11695
X38228Y11449
X38228Y11183
X37106Y9524
X35679Y9534
X34281Y8929
X33986Y8929
X34301Y11089
X34635Y11108
X34626Y12063
X34753Y12496
X34429Y12457
X33820Y12631
X34744Y13008
X34567Y13274
X34340Y14215
X34332Y15467
X33307Y14972
X33307Y14736
X33307Y14500
X32992Y14648
X32992Y14884
X32992Y15120
X32677Y15222
X32677Y14884
X32677Y14648
X32677Y14411
X30137Y15705
X30275Y15991
X30285Y16315
X30777Y16908
X30777Y17238
X31112Y17280
X30472Y17841
X32441Y24028
X33503Y23683
X36476Y23516
X37578Y23539
X37480Y23855
X37598Y24238
X38346Y23648
X38868Y23791
X38868Y24047
X37749Y22401
X38002Y21561
X37834Y15494
X37834Y15248
X37834Y15002
X37834Y14756
X37834Y14510
X37443Y15525
X38395Y24403
X38868Y24284
X36476Y24480
X35661Y24404
X35159Y24404
X34667Y24404
X34133Y24500
X33641Y24500
X32066Y24530
X29330Y25238
X28838Y25248
X10433Y29606
X10777Y29399
X10896Y29901
X10866Y31299
X27883Y26782
X28385Y26782
X29035Y26782
X29389Y26782
X28604Y29311
X7683Y26201
X8199Y25945
X8199Y26713
X7506Y26841
X7477Y27175
X7392Y27520
X7477Y27904
X7471Y28652
X8199Y27736
X5866Y28770
T02
X7539Y11421
X7854Y11413
X7854Y11787
X7539Y11795
X7165Y16472
X6742Y16480
X6742Y17071
X7165Y17063
X7106Y21685
X6732Y21693
X6732Y22283
X7106Y22276
X3762Y24232
X3770Y24587
X3179Y24587
X3171Y24232
T03
X2854Y8780
X2854Y9380
X2854Y9980
X2854Y10591
X2854Y11211
X2854Y11811
X2854Y12411
X3573Y12411
X4291Y12411
X5010Y12411
X5010Y11811
X5010Y11211
X5010Y10610
X5010Y10118
X4094Y9980
X3573Y9980
X3573Y8780
X4094Y8780
X4291Y11211
X3573Y11211
X3573Y13937
X4094Y13937
X4094Y15138
X3573Y15138
X2854Y15138
X2854Y14537
X2854Y13937
X5010Y15276
X5010Y15768
X5010Y16368
X5010Y16968
X5010Y17569
X4291Y17569
X3573Y17569
X2854Y17569
X2854Y16968
X2854Y16368
X2854Y15748
X3573Y16368
X4291Y16368
X4094Y19213
X3573Y19213
X2854Y19213
X2854Y19813
X2854Y20413
X2854Y21024
X2854Y21644
X2854Y22244
X2854Y22844
X3573Y22844
X4291Y22844
X5010Y22844
X5010Y22244
X5010Y21644
X5010Y21043
X5010Y20551
X4094Y20413
X3573Y20413
X3573Y21644
X4291Y21644
X4183Y26329
X3583Y26329
X2982Y26329
X2382Y26329
X1890Y26329
X1752Y27244
X1752Y27766
X1752Y28484
X1152Y28484
X551Y28484
X551Y27766
X551Y27244
X2982Y27047
X2982Y27766
X2982Y28484
X3583Y28484
X4183Y28484
X4183Y27766
X4183Y27047
X2362Y28484
T04
X37480Y28504
X37480Y30236
X10831Y2933
X10831Y3933
X11831Y3933
X11831Y2933
X12831Y2933
X12831Y3933
X13831Y3933
X13831Y2933
X14831Y2933
X14831Y3933
X14831Y6209
X13831Y6209
X12831Y6209
X11831Y6209
X10831Y6209
X10831Y7209
X11831Y7209
X12831Y7209
X13831Y7209
X14831Y7209
X15831Y7209
X15831Y6209
X16831Y6209
X16831Y7209
X17831Y7209
X17831Y6209
X18831Y6209
X18831Y7209
X19831Y7209
X20831Y7209
X20831Y6209
X21831Y6209
X22831Y6209
X23831Y6209
X24831Y6209
X25831Y6209
X26831Y6209
X27831Y6209
X28831Y6209
X28831Y7209
X27831Y7209
X26831Y7209
X25831Y7209
X24831Y7209
X23831Y7209
X22831Y7209
X21831Y7209
X19831Y6209
X19831Y3933
X20831Y3933
X20831Y2933
X21831Y2933
X22831Y2933
X23831Y2933
X24831Y2933
X25831Y2933
X26831Y2933
X27831Y2933
X28831Y2933
X28831Y3933
X27831Y3933
X26831Y3933
X25831Y3933
X24831Y3933
X23831Y3933
X22831Y3933
X21831Y3933
X18831Y3933
X17831Y3933
X16831Y3933
X15831Y3933
X15831Y2933
X16831Y2933
X17831Y2933
X18831Y2933
X19831Y2933
X25681Y23508
X26481Y23508
X26081Y25508
T05
X563Y543
X34301Y543
X563Y34102
T06
X5433Y4114
X6575Y5031
X7717Y4114
X7717Y7315
X5433Y7315
T07
X3602Y5217
X3433Y7315
X31220Y5217
X31650Y7315
T08
X25059Y31772
T09
X2835Y2146
X1508Y3945
X33370Y3945
X31988Y2146
M30
