G75*
G70*
%OFA0B0*%
%FSLAX25Y25*%
%IPPOS*%
%LPD*%
%AMOC8*
5,1,8,0,0,1.08239X$1,22.5*
%
%AMM53*
21,1,0.015350,0.009840,0.000000,0.000000,90.000000*
21,1,0.000000,0.025200,0.000000,0.000000,90.000000*
1,1,0.015350,0.004920,0.000000*
1,1,0.015350,0.004920,0.000000*
1,1,0.015350,-0.004920,0.000000*
1,1,0.015350,-0.004920,0.000000*
%
%AMM54*
21,1,0.015350,0.009840,0.000000,0.000000,0.000000*
21,1,0.000000,0.025200,0.000000,0.000000,0.000000*
1,1,0.015350,0.000000,-0.004920*
1,1,0.015350,0.000000,-0.004920*
1,1,0.015350,0.000000,0.004920*
1,1,0.015350,0.000000,0.004920*
%
%AMM92*
21,1,0.015350,0.009840,0.000000,0.000000,270.000000*
21,1,0.000000,0.025200,0.000000,0.000000,270.000000*
1,1,0.015350,-0.004920,0.000000*
1,1,0.015350,-0.004920,0.000000*
1,1,0.015350,0.004920,0.000000*
1,1,0.015350,0.004920,0.000000*
%
%ADD10M54*%
%ADD102M92*%
%ADD108C,0.04451*%
%ADD142O,0.02913X0.02126*%
%ADD148O,0.04488X0.06457*%
%ADD156R,0.02520X0.03701*%
%ADD161O,0.02913X0.03701*%
%ADD181C,0.04095*%
%ADD203O,0.45433X0.04882*%
%ADD205R,3.01083X0.11417*%
%ADD229R,2.65847X0.08563*%
%ADD244O,0.02126X0.01339*%
%ADD246M53*%
%ADD265C,0.04488*%
%ADD282C,0.00551*%
%ADD292O,0.07638X0.08425*%
%ADD298C,0.05701*%
%ADD45R,0.03556X0.03162*%
%ADD80O,0.02126X0.02913*%
%ADD86O,0.03701X0.02913*%
%ADD93C,0.02913*%
%ADD95O,0.05669X0.07638*%
X0000000Y0000000D02*
G01*
G75*
D229*
X0215699Y0004281D02*
D03*
D148*
X0387211Y0089483D02*
D03*
X0382266Y0089483D02*
D03*
D86*
X0281581Y0129444D02*
D03*
X0281581Y0125999D02*
D03*
X0281581Y0121767D02*
D03*
X0281581Y0109463D02*
D03*
X0281581Y0100507D02*
D03*
D181*
X0374799Y0285039D02*
D03*
X0374799Y0302362D02*
D03*
D93*
X0234744Y0132776D02*
D03*
X0213287Y0105807D02*
D03*
X0242224Y0110236D02*
D03*
X0267126Y0137992D02*
D03*
X0234813Y0112175D02*
D03*
X0352772Y0290075D02*
D03*
X0319390Y0287402D02*
D03*
X0302756Y0290039D02*
D03*
X0332579Y0287402D02*
D03*
X0341339Y0287402D02*
D03*
X0324016Y0287402D02*
D03*
X0296555Y0309350D02*
D03*
X0104331Y0296063D02*
D03*
X0107776Y0293996D02*
D03*
X0108957Y0299016D02*
D03*
X0108661Y0312992D02*
D03*
X0290354Y0267815D02*
D03*
X0293898Y0267815D02*
D03*
X0278839Y0267815D02*
D03*
X0283858Y0267815D02*
D03*
X0286043Y0293110D02*
D03*
X0230118Y0315158D02*
D03*
X0273031Y0315158D02*
D03*
X0131398Y0300197D02*
D03*
X0174213Y0315158D02*
D03*
X0125932Y0315158D02*
D03*
X0075059Y0279035D02*
D03*
X0082284Y0277362D02*
D03*
X0074213Y0275197D02*
D03*
X0075059Y0271752D02*
D03*
X0082284Y0267126D02*
D03*
X0075354Y0268406D02*
D03*
X0077126Y0262008D02*
D03*
X0082284Y0259449D02*
D03*
X0075000Y0286516D02*
D03*
X0058957Y0287697D02*
D03*
D282*
X0312205Y0052165D02*
D03*
X0319882Y0021457D02*
D03*
X0028346Y0021457D02*
D03*
X0036024Y0052165D02*
D03*
X0034331Y0073150D02*
D03*
X0316496Y0073150D02*
D03*
X0015079Y0039449D02*
D03*
X0333701Y0039449D02*
D03*
X0250590Y0317717D02*
D03*
D292*
X0054331Y0041142D02*
D03*
X0077165Y0041142D02*
D03*
X0065748Y0050315D02*
D03*
X0054331Y0073150D02*
D03*
X0077165Y0073150D02*
D03*
D95*
X0208307Y0062087D02*
D03*
X0288307Y0072087D02*
D03*
X0288307Y0062087D02*
D03*
X0278307Y0072087D02*
D03*
X0278307Y0062087D02*
D03*
X0268307Y0072087D02*
D03*
X0268307Y0062087D02*
D03*
X0258307Y0072087D02*
D03*
X0258307Y0062087D02*
D03*
X0248307Y0072087D02*
D03*
X0248307Y0062087D02*
D03*
X0238307Y0072087D02*
D03*
X0238307Y0062087D02*
D03*
X0228307Y0072087D02*
D03*
X0228307Y0062087D02*
D03*
X0218307Y0072087D02*
D03*
X0218307Y0062087D02*
D03*
X0208307Y0072087D02*
D03*
X0208307Y0029331D02*
D03*
X0288307Y0039331D02*
D03*
X0288307Y0029331D02*
D03*
X0278307Y0039331D02*
D03*
X0278307Y0029331D02*
D03*
X0268307Y0039331D02*
D03*
X0268307Y0029331D02*
D03*
X0258307Y0039331D02*
D03*
X0258307Y0029331D02*
D03*
X0248307Y0039331D02*
D03*
X0248307Y0029331D02*
D03*
X0238307Y0039331D02*
D03*
X0238307Y0029331D02*
D03*
X0228307Y0039331D02*
D03*
X0228307Y0029331D02*
D03*
X0218307Y0039331D02*
D03*
X0218307Y0029331D02*
D03*
X0208307Y0039331D02*
D03*
X0108307Y0062087D02*
D03*
X0108307Y0072087D02*
D03*
X0118307Y0062087D02*
D03*
X0118307Y0072087D02*
D03*
X0128307Y0062087D02*
D03*
X0128307Y0072087D02*
D03*
X0138307Y0062087D02*
D03*
X0138307Y0072087D02*
D03*
X0148307Y0062087D02*
D03*
X0148307Y0072087D02*
D03*
X0158307Y0062087D02*
D03*
X0158307Y0072087D02*
D03*
X0168307Y0062087D02*
D03*
X0168307Y0072087D02*
D03*
X0178307Y0062087D02*
D03*
X0178307Y0072087D02*
D03*
X0188307Y0062087D02*
D03*
X0188307Y0072087D02*
D03*
X0198307Y0062087D02*
D03*
X0198307Y0072087D02*
D03*
X0108307Y0029331D02*
D03*
X0108307Y0039331D02*
D03*
X0118307Y0029331D02*
D03*
X0118307Y0039331D02*
D03*
X0128307Y0029331D02*
D03*
X0128307Y0039331D02*
D03*
X0138307Y0029331D02*
D03*
X0138307Y0039331D02*
D03*
X0148307Y0029331D02*
D03*
X0148307Y0039331D02*
D03*
X0158307Y0029331D02*
D03*
X0158307Y0039331D02*
D03*
X0168307Y0029331D02*
D03*
X0168307Y0039331D02*
D03*
X0178307Y0029331D02*
D03*
X0178307Y0039331D02*
D03*
X0188307Y0029331D02*
D03*
X0188307Y0039331D02*
D03*
X0198307Y0029331D02*
D03*
X0198307Y0039331D02*
D03*
D298*
X0005630Y0341024D02*
D03*
X0343012Y0005433D02*
D03*
X0005630Y0005433D02*
D03*
D265*
X0028543Y0124114D02*
D03*
X0028543Y0112106D02*
D03*
X0028543Y0099803D02*
D03*
X0028543Y0087795D02*
D03*
X0040944Y0087795D02*
D03*
X0035728Y0087795D02*
D03*
X0040944Y0099803D02*
D03*
X0035728Y0099803D02*
D03*
X0042913Y0112106D02*
D03*
X0035728Y0112106D02*
D03*
X0035728Y0124114D02*
D03*
X0042913Y0124114D02*
D03*
X0050098Y0101181D02*
D03*
X0050098Y0112106D02*
D03*
X0050098Y0124114D02*
D03*
X0028543Y0093799D02*
D03*
X0028543Y0105905D02*
D03*
X0028543Y0118110D02*
D03*
X0050098Y0118110D02*
D03*
X0050098Y0106102D02*
D03*
X0028543Y0175689D02*
D03*
X0028543Y0163681D02*
D03*
X0028543Y0151378D02*
D03*
X0028543Y0139370D02*
D03*
X0040944Y0139370D02*
D03*
X0035728Y0139370D02*
D03*
X0040944Y0151378D02*
D03*
X0035728Y0151378D02*
D03*
X0042913Y0163681D02*
D03*
X0035728Y0163681D02*
D03*
X0035728Y0175689D02*
D03*
X0042913Y0175689D02*
D03*
X0050098Y0152756D02*
D03*
X0050098Y0163681D02*
D03*
X0050098Y0175689D02*
D03*
X0028543Y0145374D02*
D03*
X0028543Y0157480D02*
D03*
X0028543Y0169685D02*
D03*
X0050098Y0169685D02*
D03*
X0050098Y0157677D02*
D03*
X0028543Y0228445D02*
D03*
X0028543Y0216437D02*
D03*
X0028543Y0204134D02*
D03*
X0028543Y0192126D02*
D03*
X0040944Y0192126D02*
D03*
X0035728Y0192126D02*
D03*
X0040944Y0204134D02*
D03*
X0035728Y0204134D02*
D03*
X0042913Y0216437D02*
D03*
X0035728Y0216437D02*
D03*
X0035728Y0228445D02*
D03*
X0042913Y0228445D02*
D03*
X0050098Y0205512D02*
D03*
X0050098Y0216437D02*
D03*
X0050098Y0228445D02*
D03*
X0028543Y0198130D02*
D03*
X0028543Y0210236D02*
D03*
X0028543Y0222441D02*
D03*
X0050098Y0222441D02*
D03*
X0050098Y0210433D02*
D03*
X0041831Y0284843D02*
D03*
X0029823Y0284843D02*
D03*
X0017520Y0284843D02*
D03*
X0005512Y0284843D02*
D03*
X0005512Y0272441D02*
D03*
X0005512Y0277658D02*
D03*
X0017520Y0272441D02*
D03*
X0017520Y0277658D02*
D03*
X0029823Y0270473D02*
D03*
X0029823Y0277658D02*
D03*
X0041831Y0277658D02*
D03*
X0041831Y0270473D02*
D03*
X0018898Y0263288D02*
D03*
X0029823Y0263288D02*
D03*
X0041831Y0263288D02*
D03*
X0011516Y0284842D02*
D03*
X0023622Y0284842D02*
D03*
X0035827Y0284843D02*
D03*
X0035827Y0263288D02*
D03*
X0023819Y0263288D02*
D03*
D205*
X0233317Y0340748D02*
D03*
D246*
X0208465Y0086528D02*
D03*
X0208465Y0107316D02*
D03*
X0208465Y0104717D02*
D03*
X0208465Y0102119D02*
D03*
X0208465Y0099520D02*
D03*
X0268492Y0189469D02*
D03*
X0268492Y0186870D02*
D03*
X0268492Y0184272D02*
D03*
X0268492Y0181673D02*
D03*
X0268492Y0179075D02*
D03*
X0268492Y0176476D02*
D03*
X0268492Y0173878D02*
D03*
X0268492Y0171280D02*
D03*
X0268492Y0259626D02*
D03*
X0268492Y0262224D02*
D03*
X0268492Y0264823D02*
D03*
X0268492Y0267421D02*
D03*
X0268492Y0257028D02*
D03*
X0268492Y0244035D02*
D03*
X0268492Y0241437D02*
D03*
X0268492Y0238839D02*
D03*
X0268492Y0236240D02*
D03*
X0268492Y0233642D02*
D03*
X0268492Y0231043D02*
D03*
X0268492Y0228445D02*
D03*
X0268492Y0225846D02*
D03*
X0268492Y0223248D02*
D03*
X0268492Y0220650D02*
D03*
X0268492Y0218051D02*
D03*
X0268492Y0215453D02*
D03*
X0268492Y0212854D02*
D03*
X0268492Y0210256D02*
D03*
X0268492Y0207658D02*
D03*
X0268492Y0205059D02*
D03*
X0268492Y0202461D02*
D03*
X0268492Y0199862D02*
D03*
X0268492Y0197264D02*
D03*
X0268492Y0194665D02*
D03*
X0268492Y0192067D02*
D03*
X0089252Y0278740D02*
D03*
X0089252Y0276142D02*
D03*
X0089252Y0273543D02*
D03*
X0089252Y0270945D02*
D03*
X0089252Y0268347D02*
D03*
X0089252Y0265748D02*
D03*
X0089252Y0263150D02*
D03*
X0089252Y0260551D02*
D03*
X0089252Y0283937D02*
D03*
X0089252Y0281339D02*
D03*
D10*
X0108189Y0138689D02*
D03*
X0103858Y0138689D02*
D03*
X0099528Y0138689D02*
D03*
X0095197Y0138689D02*
D03*
X0202476Y0083720D02*
D03*
X0199878Y0083720D02*
D03*
X0197280Y0083720D02*
D03*
X0194681Y0083720D02*
D03*
X0192083Y0083720D02*
D03*
X0189484Y0083720D02*
D03*
X0183181Y0083720D02*
D03*
X0180583Y0083720D02*
D03*
X0177984Y0083720D02*
D03*
X0173571Y0083720D02*
D03*
X0170973Y0083720D02*
D03*
X0168374Y0083720D02*
D03*
X0165776Y0083720D02*
D03*
X0152681Y0083720D02*
D03*
X0150083Y0083720D02*
D03*
X0147484Y0083720D02*
D03*
X0137067Y0083720D02*
D03*
X0134469Y0083720D02*
D03*
X0131870Y0083720D02*
D03*
X0129272Y0083720D02*
D03*
X0126673Y0083720D02*
D03*
X0124075Y0083720D02*
D03*
X0121476Y0083720D02*
D03*
X0118878Y0083720D02*
D03*
X0116279Y0083720D02*
D03*
X0113681Y0083720D02*
D03*
X0112520Y0138689D02*
D03*
X0116850Y0138689D02*
D03*
X0121181Y0138689D02*
D03*
X0125512Y0138689D02*
D03*
X0129842Y0138689D02*
D03*
X0134173Y0138689D02*
D03*
X0138504Y0138689D02*
D03*
X0142835Y0138689D02*
D03*
X0147165Y0138689D02*
D03*
X0151496Y0138689D02*
D03*
X0155827Y0138689D02*
D03*
X0160157Y0138689D02*
D03*
X0164488Y0138689D02*
D03*
X0168819Y0138689D02*
D03*
X0173150Y0138689D02*
D03*
X0177480Y0138689D02*
D03*
X0181811Y0138689D02*
D03*
X0186142Y0138689D02*
D03*
X0190472Y0138689D02*
D03*
X0194803Y0138689D02*
D03*
X0199134Y0138689D02*
D03*
X0203464Y0138689D02*
D03*
X0153465Y0283669D02*
D03*
X0148228Y0283669D02*
D03*
X0250079Y0283669D02*
D03*
X0254409Y0283669D02*
D03*
X0258740Y0283669D02*
D03*
X0112520Y0142217D02*
D03*
X0108189Y0142217D02*
D03*
X0103858Y0142217D02*
D03*
X0099528Y0142217D02*
D03*
X0220787Y0142217D02*
D03*
X0225118Y0142217D02*
D03*
X0230315Y0142217D02*
D03*
X0235512Y0142217D02*
D03*
X0216457Y0142217D02*
D03*
X0212126Y0142217D02*
D03*
X0207795Y0142217D02*
D03*
X0203465Y0142217D02*
D03*
X0199134Y0142217D02*
D03*
X0194803Y0142217D02*
D03*
X0190472Y0142217D02*
D03*
X0186142Y0142217D02*
D03*
X0181811Y0142217D02*
D03*
X0177480Y0142217D02*
D03*
X0173150Y0142217D02*
D03*
X0168819Y0142217D02*
D03*
X0164488Y0142217D02*
D03*
X0160158Y0142217D02*
D03*
X0155827Y0142217D02*
D03*
X0151496Y0142217D02*
D03*
X0147166Y0142217D02*
D03*
X0142835Y0142217D02*
D03*
X0138504Y0142217D02*
D03*
X0134173Y0142217D02*
D03*
X0129843Y0142217D02*
D03*
X0125512Y0142217D02*
D03*
X0150847Y0283669D02*
D03*
X0145236Y0283669D02*
D03*
X0140039Y0283669D02*
D03*
X0134843Y0283669D02*
D03*
X0156083Y0283669D02*
D03*
X0159134Y0283669D02*
D03*
X0163465Y0283669D02*
D03*
X0167795Y0283669D02*
D03*
X0172126Y0283669D02*
D03*
X0176457Y0283669D02*
D03*
X0180787Y0283669D02*
D03*
X0185118Y0283669D02*
D03*
X0189449Y0283669D02*
D03*
X0193779Y0283669D02*
D03*
X0198110Y0283669D02*
D03*
X0202441Y0283669D02*
D03*
X0206771Y0283669D02*
D03*
X0211102Y0283669D02*
D03*
X0215433Y0283669D02*
D03*
X0219764Y0283669D02*
D03*
X0224094Y0283669D02*
D03*
X0228425Y0283669D02*
D03*
X0232756Y0283669D02*
D03*
X0237087Y0283669D02*
D03*
X0241417Y0283669D02*
D03*
X0245748Y0283669D02*
D03*
X0121181Y0142217D02*
D03*
X0116851Y0142217D02*
D03*
X0095197Y0142217D02*
D03*
X0263071Y0283669D02*
D03*
D156*
X0275984Y0055413D02*
D03*
X0270866Y0055413D02*
D03*
D45*
X0274902Y0055413D02*
D03*
X0271949Y0055413D02*
D03*
D244*
X0280793Y0247456D02*
D03*
X0280793Y0245723D02*
D03*
X0280793Y0243991D02*
D03*
X0280793Y0242259D02*
D03*
X0280793Y0240526D02*
D03*
X0280793Y0238794D02*
D03*
X0280793Y0237062D02*
D03*
X0280793Y0223656D02*
D03*
X0280793Y0221058D02*
D03*
X0280793Y0218459D02*
D03*
X0280793Y0215861D02*
D03*
X0280793Y0211432D02*
D03*
X0280793Y0209700D02*
D03*
X0280793Y0207967D02*
D03*
X0280793Y0206235D02*
D03*
X0280793Y0204503D02*
D03*
X0280793Y0202770D02*
D03*
X0280793Y0201038D02*
D03*
X0280793Y0199306D02*
D03*
X0280793Y0190664D02*
D03*
X0280793Y0187531D02*
D03*
X0280793Y0184381D02*
D03*
X0280793Y0181231D02*
D03*
X0280793Y0171688D02*
D03*
X0280793Y0174286D02*
D03*
X0280793Y0178460D02*
D03*
D142*
X0281207Y0155723D02*
D03*
X0281207Y0132692D02*
D03*
X0281207Y0091866D02*
D03*
X0281207Y0094601D02*
D03*
X0281207Y0097279D02*
D03*
X0281207Y0105646D02*
D03*
X0281207Y0114483D02*
D03*
X0281207Y0117042D02*
D03*
D161*
X0284750Y0088204D02*
D03*
X0289376Y0088204D02*
D03*
X0294691Y0088204D02*
D03*
X0299317Y0088204D02*
D03*
X0327663Y0088204D02*
D03*
D203*
X0356896Y0088991D02*
D03*
D80*
X0331502Y0087810D02*
D03*
X0324239Y0087810D02*
D03*
X0317842Y0087810D02*
D03*
X0303333Y0087810D02*
D03*
X0306129Y0087810D02*
D03*
X0309672Y0087810D02*
D03*
X0321364Y0087810D02*
D03*
X0087382Y0140157D02*
G01*
G75*
D108*
X0260807Y0255078D02*
D03*
X0264807Y0235078D02*
D03*
X0256807Y0235078D02*
D03*
D10*
X0153465Y0283669D02*
D03*
X0148229Y0283669D02*
D03*
X0250079Y0283669D02*
D03*
X0254409Y0283669D02*
D03*
X0258740Y0283669D02*
D03*
X0112520Y0142216D02*
D03*
X0108189Y0142216D02*
D03*
X0103859Y0142216D02*
D03*
X0099528Y0142216D02*
D03*
X0220787Y0142216D02*
D03*
X0225118Y0142216D02*
D03*
X0230315Y0142216D02*
D03*
X0235512Y0142216D02*
D03*
X0216457Y0142216D02*
D03*
X0212126Y0142216D02*
D03*
X0207795Y0142216D02*
D03*
X0203465Y0142216D02*
D03*
X0199134Y0142216D02*
D03*
X0194803Y0142216D02*
D03*
X0190473Y0142216D02*
D03*
X0186142Y0142216D02*
D03*
X0181811Y0142216D02*
D03*
X0177481Y0142216D02*
D03*
X0173150Y0142216D02*
D03*
X0168819Y0142216D02*
D03*
X0164488Y0142216D02*
D03*
X0160158Y0142216D02*
D03*
X0155827Y0142216D02*
D03*
X0151496Y0142216D02*
D03*
X0147166Y0142216D02*
D03*
X0142835Y0142216D02*
D03*
X0138504Y0142216D02*
D03*
X0134173Y0142216D02*
D03*
X0129843Y0142216D02*
D03*
X0125512Y0142216D02*
D03*
X0150847Y0283669D02*
D03*
X0145236Y0283669D02*
D03*
X0140040Y0283669D02*
D03*
X0134843Y0283669D02*
D03*
X0156083Y0283669D02*
D03*
X0159134Y0283669D02*
D03*
X0163465Y0283669D02*
D03*
X0167795Y0283669D02*
D03*
X0172126Y0283669D02*
D03*
X0176457Y0283669D02*
D03*
X0180787Y0283669D02*
D03*
X0185118Y0283669D02*
D03*
X0189449Y0283669D02*
D03*
X0193780Y0283669D02*
D03*
X0198110Y0283669D02*
D03*
X0202441Y0283669D02*
D03*
X0206772Y0283669D02*
D03*
X0211102Y0283669D02*
D03*
X0215433Y0283669D02*
D03*
X0219764Y0283669D02*
D03*
X0224095Y0283669D02*
D03*
X0228425Y0283669D02*
D03*
X0232756Y0283669D02*
D03*
X0237087Y0283669D02*
D03*
X0241417Y0283669D02*
D03*
X0245748Y0283669D02*
D03*
X0121181Y0142216D02*
D03*
X0116851Y0142216D02*
D03*
X0095197Y0142216D02*
D03*
X0263071Y0283669D02*
D03*
D102*
X0268492Y0189468D02*
D03*
X0268492Y0186870D02*
D03*
X0268492Y0184271D02*
D03*
X0268492Y0181673D02*
D03*
X0268492Y0179074D02*
D03*
X0268492Y0176476D02*
D03*
X0268492Y0173877D02*
D03*
X0268492Y0171279D02*
D03*
X0268492Y0259625D02*
D03*
X0268492Y0262224D02*
D03*
X0268492Y0264822D02*
D03*
X0268492Y0267421D02*
D03*
X0268492Y0257027D02*
D03*
X0268492Y0244035D02*
D03*
X0268492Y0241436D02*
D03*
X0268492Y0238838D02*
D03*
X0268492Y0236240D02*
D03*
X0268492Y0233641D02*
D03*
X0268492Y0231043D02*
D03*
X0268492Y0228444D02*
D03*
X0268492Y0225846D02*
D03*
X0268492Y0223248D02*
D03*
X0268492Y0220649D02*
D03*
X0268492Y0218051D02*
D03*
X0268492Y0215452D02*
D03*
X0268492Y0212854D02*
D03*
X0268492Y0210255D02*
D03*
X0268492Y0207657D02*
D03*
X0268492Y0205059D02*
D03*
X0268492Y0202460D02*
D03*
X0268492Y0199862D02*
D03*
X0268492Y0197263D02*
D03*
X0268492Y0194665D02*
D03*
X0268492Y0192066D02*
D03*
X0089252Y0278740D02*
D03*
X0089252Y0276141D02*
D03*
X0089252Y0273543D02*
D03*
X0089252Y0270944D02*
D03*
X0089252Y0268346D02*
D03*
X0089252Y0265748D02*
D03*
X0089252Y0263149D02*
D03*
X0089252Y0260551D02*
D03*
X0089252Y0283937D02*
D03*
X0089252Y0281338D02*
D03*
X0087795Y0082283D02*
G01*
G75*
D246*
X0208464Y0086528D02*
D03*
X0208464Y0107315D02*
D03*
X0208464Y0104717D02*
D03*
X0208464Y0102118D02*
D03*
X0208464Y0099520D02*
D03*
D10*
X0108189Y0138689D02*
D03*
X0103858Y0138689D02*
D03*
X0099527Y0138689D02*
D03*
X0095197Y0138689D02*
D03*
X0202476Y0083720D02*
D03*
X0199878Y0083720D02*
D03*
X0197279Y0083720D02*
D03*
X0194681Y0083720D02*
D03*
X0192082Y0083720D02*
D03*
X0189484Y0083720D02*
D03*
X0183181Y0083720D02*
D03*
X0180582Y0083720D02*
D03*
X0177984Y0083720D02*
D03*
X0173571Y0083720D02*
D03*
X0170973Y0083720D02*
D03*
X0168374Y0083720D02*
D03*
X0165776Y0083720D02*
D03*
X0152681Y0083720D02*
D03*
X0150082Y0083720D02*
D03*
X0147484Y0083720D02*
D03*
X0137067Y0083720D02*
D03*
X0134468Y0083720D02*
D03*
X0131870Y0083720D02*
D03*
X0129271Y0083720D02*
D03*
X0126673Y0083720D02*
D03*
X0124075Y0083720D02*
D03*
X0121476Y0083720D02*
D03*
X0118878Y0083720D02*
D03*
X0116279Y0083720D02*
D03*
X0113681Y0083720D02*
D03*
X0112519Y0138689D02*
D03*
X0116850Y0138689D02*
D03*
X0121181Y0138689D02*
D03*
X0125511Y0138689D02*
D03*
X0129842Y0138689D02*
D03*
X0134173Y0138689D02*
D03*
X0138504Y0138689D02*
D03*
X0142834Y0138689D02*
D03*
X0147165Y0138689D02*
D03*
X0151496Y0138689D02*
D03*
X0155826Y0138689D02*
D03*
X0160157Y0138689D02*
D03*
X0164488Y0138689D02*
D03*
X0168819Y0138689D02*
D03*
X0173149Y0138689D02*
D03*
X0177480Y0138689D02*
D03*
X0181811Y0138689D02*
D03*
X0186141Y0138689D02*
D03*
X0190472Y0138689D02*
D03*
X0194803Y0138689D02*
D03*
X0199133Y0138689D02*
D03*
X0203464Y0138689D02*
D03*
X0209843Y0078150D02*
G01*
G75*
D93*
X0234814Y0112176D02*
D03*
X0267127Y0137992D02*
D03*
X0242225Y0110237D02*
D03*
X0213288Y0105807D02*
D03*
X0234745Y0132776D02*
D03*
X0123425Y0287992D02*
G01*
G75*
D93*
X0230118Y0315157D02*
D03*
X0273031Y0315157D02*
D03*
X0131397Y0300197D02*
D03*
X0174212Y0315157D02*
D03*
X0125932Y0315157D02*
D03*
X0283071Y0255906D02*
G01*
G75*
D93*
X0296555Y0309351D02*
D03*
X0324016Y0287402D02*
D03*
X0341339Y0287402D02*
D03*
X0332579Y0287402D02*
D03*
X0302756Y0290040D02*
D03*
X0319390Y0287402D02*
D03*
X0352772Y0290076D02*
D03*
X0279724Y0086280D02*
G01*
G75*
D148*
X0387210Y0089484D02*
D03*
X0382266Y0089484D02*
D03*
D86*
X0281580Y0129444D02*
D03*
X0281580Y0125999D02*
D03*
X0281580Y0121767D02*
D03*
X0281580Y0109464D02*
D03*
X0281580Y0100507D02*
D03*
D244*
X0280793Y0247456D02*
D03*
X0280793Y0245724D02*
D03*
X0280793Y0243992D02*
D03*
X0280793Y0242259D02*
D03*
X0280793Y0240527D02*
D03*
X0280793Y0238795D02*
D03*
X0280793Y0237062D02*
D03*
X0280793Y0223657D02*
D03*
X0280793Y0221058D02*
D03*
X0280793Y0218460D02*
D03*
X0280793Y0215861D02*
D03*
X0280793Y0211432D02*
D03*
X0280793Y0209700D02*
D03*
X0280793Y0207968D02*
D03*
X0280793Y0206236D02*
D03*
X0280793Y0204503D02*
D03*
X0280793Y0202771D02*
D03*
X0280793Y0201039D02*
D03*
X0280793Y0199306D02*
D03*
X0280793Y0190665D02*
D03*
X0280793Y0187531D02*
D03*
X0280793Y0184382D02*
D03*
X0280793Y0181232D02*
D03*
X0280793Y0171688D02*
D03*
X0280793Y0174287D02*
D03*
X0280793Y0178460D02*
D03*
D142*
X0281207Y0155724D02*
D03*
X0281207Y0132692D02*
D03*
X0281207Y0091866D02*
D03*
X0281207Y0094602D02*
D03*
X0281207Y0097280D02*
D03*
X0281207Y0105646D02*
D03*
X0281207Y0114484D02*
D03*
X0281207Y0117043D02*
D03*
D161*
X0284750Y0088204D02*
D03*
X0289376Y0088204D02*
D03*
X0294691Y0088204D02*
D03*
X0299317Y0088204D02*
D03*
X0327663Y0088204D02*
D03*
D203*
X0356895Y0088992D02*
D03*
D80*
X0331502Y0087810D02*
D03*
X0324239Y0087810D02*
D03*
X0317841Y0087810D02*
D03*
X0303332Y0087810D02*
D03*
X0306129Y0087810D02*
D03*
X0309672Y0087810D02*
D03*
X0321364Y0087810D02*
D03*
X0077461Y0288583D02*
G01*
G75*
D93*
X0108662Y0312992D02*
D03*
X0108957Y0299016D02*
D03*
X0107776Y0293996D02*
D03*
X0104331Y0296063D02*
D03*
X0275394Y0255217D02*
G01*
G75*
D93*
X0290355Y0267815D02*
D03*
X0293898Y0267815D02*
D03*
X0278839Y0267815D02*
D03*
X0283859Y0267815D02*
D03*
X0286044Y0293111D02*
D03*
X0052362Y0238189D02*
G01*
G75*
D93*
X0058661Y0287697D02*
D03*
X0074705Y0286516D02*
D03*
X0081988Y0259449D02*
D03*
X0076831Y0262008D02*
D03*
X0075059Y0268406D02*
D03*
X0081988Y0267126D02*
D03*
X0074764Y0271752D02*
D03*
X0073917Y0275197D02*
D03*
X0081988Y0277362D02*
D03*
X0074764Y0279035D02*
D03*
M02*
